<?xml version="1.0" encoding="UTF-8"?>
<!DOCTYPE svg PUBLIC "-//W3C//DTD SVG 1.1//EN" "http://www.w3.org/Graphics/SVG/1.1/DTD/svg11.dtd">
<svg xmlns="http://www.w3.org/2000/svg" version="1.1" width="700px" height="700px" style="shape-rendering:geometricPrecision; text-rendering:geometricPrecision; image-rendering:optimizeQuality; fill-rule:evenodd; clip-rule:evenodd" xmlns:xlink="http://www.w3.org/1999/xlink">
<g><path style="opacity:0.883" fill="#fefffe" d="M 96.5,-0.5 C 99.5,-0.5 102.5,-0.5 105.5,-0.5C 107.126,2.24571 107.793,5.24571 107.5,8.5C 113.158,8.15777 115.824,10.8244 115.5,16.5C 115.485,18.6341 114.985,20.6341 114,22.5C 111.515,23.9874 109.348,25.8208 107.5,28C 109.519,28.4497 111.352,29.283 113,30.5C 114.47,28.8481 116.303,27.8481 118.5,27.5C 121.75,27.8082 125.083,27.9748 128.5,28C 129.333,28.8333 130.167,29.6667 131,30.5C 135.406,27.2485 138.406,28.2485 140,33.5C 144.325,29.2481 147.658,29.9148 150,35.5C 155.307,33.0692 158.14,34.7359 158.5,40.5C 164.833,39.5 167.5,42.1667 166.5,48.5C 173.707,49.0849 175.04,52.2516 170.5,58C 175.218,59.4486 176.718,62.6153 175,67.5C 173.445,69.1458 171.779,69.4791 170,68.5C 169.333,69.5 169.333,70.5 170,71.5C 171.699,70.5939 173.533,70.2606 175.5,70.5C 170.288,79.2347 164.788,87.9014 159,96.5C 158.879,98.7271 158.046,100.56 156.5,102C 159.339,105.521 158.506,108.021 154,109.5C 153.667,109.167 153.333,108.833 153,108.5C 150.95,111.148 149.784,114.148 149.5,117.5C 153.8,117.815 155.467,120.149 154.5,124.5C 160.833,124.5 167.167,124.5 173.5,124.5C 173.667,164.168 173.5,203.835 173,243.5C 170.931,254.137 165.098,261.97 155.5,267C 143.64,272.398 131.306,276.398 118.5,279C 112.342,281.912 106.342,285.079 100.5,288.5C 88.8982,280.036 75.8982,275.536 61.5,275C 47.0379,270.871 36.5379,262.038 30,248.5C 28.5225,207.214 28.0225,165.881 28.5,124.5C 34.8333,124.5 41.1667,124.5 47.5,124.5C 47.3398,122.801 47.5065,121.134 48,119.5C 50.6355,117.454 51.1355,114.954 49.5,112C 47.9947,109.828 46.1614,107.995 44,106.5C 43.2888,104.633 43.7888,103.133 45.5,102C 40.5636,92.6424 34.7303,83.809 28,75.5C 26.9914,73.9751 26.4914,72.3084 26.5,70.5C 28.4672,70.2606 30.3005,70.5939 32,71.5C 32.866,69.1039 32.366,68.4372 30.5,69.5C 25.7377,68.0181 24.4044,65.0181 26.5,60.5C 27.9122,59.1936 29.5789,58.3603 31.5,58C 28.7972,56.1799 27.9639,53.6799 29,50.5C 30.9162,49.0722 33.0829,48.0722 35.5,47.5C 34.4994,41.3996 36.9994,39.3996 43,41.5C 43.1065,35.0521 46.1065,33.0521 52,35.5C 53.7262,30.4875 56.7262,29.4875 61,32.5C 63.6933,28.2278 67.0266,27.5611 71,30.5C 72.255,28.4062 74.0884,27.4062 76.5,27.5C 78.8765,28.5413 81.2098,28.5413 83.5,27.5C 85.6259,27.7298 87.2925,28.7298 88.5,30.5C 90.5473,29.8153 92.2139,28.6486 93.5,27C 89.1284,24.7956 86.4618,21.2956 85.5,16.5C 85.9946,11.005 88.9946,8.33831 94.5,8.5C 94.2069,5.24571 94.8736,2.24571 96.5,-0.5 Z M 93.5,20.5 C 95.0847,21.0024 95.5847,22.0024 95,23.5C 93.9614,22.7562 93.4614,21.7562 93.5,20.5 Z M 106.5,20.5 C 108.973,20.9473 109.14,21.9473 107,23.5C 106.517,22.552 106.351,21.552 106.5,20.5 Z M 74.5,30.5 C 77.1662,30.0658 78.3329,31.0658 78,33.5C 76.2714,33.0257 75.1047,32.0257 74.5,30.5 Z M 82.5,30.5 C 85.9563,31.5362 86.2896,33.2029 83.5,35.5C 81.2957,34.218 80.9624,32.5514 82.5,30.5 Z M 117.5,30.5 C 121.34,31.5678 121.507,33.2345 118,35.5C 116.212,33.9769 116.045,32.3102 117.5,30.5 Z M 123.5,30.5 C 124.978,30.238 126.311,30.5713 127.5,31.5C 126.833,31.8333 126.167,32.1667 125.5,32.5C 124.287,32.2528 123.62,31.5862 123.5,30.5 Z M 65.5,31.5 C 66.5,31.5 67.5,31.5 68.5,31.5C 68.5,32.8333 68.5,34.1667 68.5,35.5C 65.0464,35.7332 64.0464,34.3999 65.5,31.5 Z M 133.5,31.5 C 134.5,31.5 135.5,31.5 136.5,31.5C 136.5,32.8333 136.5,34.1667 136.5,35.5C 133.046,35.7332 132.046,34.3999 133.5,31.5 Z M 56.5,33.5 C 59.6898,34.6671 60.0232,36.3338 57.5,38.5C 54.1396,37.2095 53.8063,35.5428 56.5,33.5 Z M 143.5,33.5 C 146.956,34.5362 147.29,36.2029 144.5,38.5C 142.296,37.218 141.962,35.5514 143.5,33.5 Z M 74.5,35.5 C 77.9563,36.5362 78.2896,38.2029 75.5,40.5C 73.2957,39.218 72.9624,37.5514 74.5,35.5 Z M 107.5,35.5 C 117.635,40.8354 126.135,48.1687 133,57.5C 134.325,61.4285 134.658,65.4285 134,69.5C 133.333,70.1667 132.667,70.8333 132,71.5C 127.494,69.7493 124.16,71.0827 122,75.5C 120.385,80.9303 122.052,84.9303 127,87.5C 128.117,86.0506 128.784,84.3839 129,82.5C 129.781,83.7287 130.281,85.062 130.5,86.5C 128.624,88.048 127.624,90.048 127.5,92.5C 125.856,92.7135 124.356,92.3802 123,91.5C 122.262,88.5305 121.096,85.8638 119.5,83.5C 117.957,86.086 116.291,88.586 114.5,91C 111.854,91.4974 109.187,91.6641 106.5,91.5C 105.883,87.5048 107.049,84.1715 110,81.5C 110.18,83.4884 110.014,85.4884 109.5,87.5C 115.314,87.356 118.648,84.356 119.5,78.5C 118.945,72.9456 115.945,69.6123 110.5,68.5C 112.512,63.0163 113.012,57.3496 112,51.5C 110.797,46.062 109.297,40.7286 107.5,35.5 Z M 124.5,35.5 C 128.161,35.3501 129.161,36.8501 127.5,40C 124.241,39.9181 123.241,38.4181 124.5,35.5 Z M 93.5,36.5 C 91.0774,43.4475 89.744,50.6142 89.5,58C 89.3304,61.8643 89.9971,65.5309 91.5,69C 83.0698,70.6925 80.5698,75.5258 84,83.5C 89.38,89.4612 92.0467,88.7946 92,81.5C 94.8146,84.2781 95.8146,87.6114 95,91.5C 89.0472,93.4417 84.8806,91.4417 82.5,85.5C 80.9884,86.9906 79.9884,88.8239 79.5,91C 77.9751,92.0086 76.3084,92.5086 74.5,92.5C 74.5391,90.6412 73.7058,89.3079 72,88.5C 71.1799,86.272 71.5132,84.272 73,82.5C 72.8564,86.7084 74.3564,87.8751 77.5,86C 81.5,81.3333 81.5,76.6667 77.5,72C 74.4361,70.6335 71.4361,70.1335 68.5,70.5C 67.1512,66.1275 67.3179,61.7942 69,57.5C 75.5113,48.4828 83.678,41.4828 93.5,36.5 Z M 46.5,37.5 C 49.5,37.1667 50.8333,38.5 50.5,41.5C 47.5,41.8333 46.1667,40.5 46.5,37.5 Z M 151.5,37.5 C 153.346,37.2222 154.68,37.8888 155.5,39.5C 154.68,41.1112 153.346,41.7778 151.5,41.5C 151.5,40.1667 151.5,38.8333 151.5,37.5 Z M 66.5,41.5 C 70.9338,42.5583 71.2671,44.225 67.5,46.5C 65.2957,45.218 64.9624,43.5514 66.5,41.5 Z M 132.5,41.5 C 135.685,41.7224 136.685,43.2224 135.5,46C 131.707,46.4866 130.707,44.9866 132.5,41.5 Z M 38.5,43.5 C 39.5,43.5 40.5,43.5 41.5,43.5C 41.5,44.8333 41.5,46.1667 41.5,47.5C 38.0464,47.7332 37.0464,46.3999 38.5,43.5 Z M 160.5,43.5 C 161.5,43.5 162.5,43.5 163.5,43.5C 163.5,44.8333 163.5,46.1667 163.5,47.5C 162.167,47.5 160.833,47.5 159.5,47.5C 159.433,46.0413 159.766,44.7079 160.5,43.5 Z M 60.5,44.5 C 50.6727,52.8268 47.8394,63.1602 52,75.5C 50.7485,77.0009 49.7485,78.6675 49,80.5C 46.9307,79.7362 44.764,79.2362 42.5,79C 35.782,65.2915 39.1153,54.6248 52.5,47C 55.022,45.6591 57.6887,44.8257 60.5,44.5 Z M 141.5,44.5 C 151.233,46.7385 158.067,52.4051 162,61.5C 163.11,67.4735 162.276,73.1402 159.5,78.5C 156.914,79.48 154.247,79.8134 151.5,79.5C 151.863,77.0885 150.863,75.5885 148.5,75C 153.684,63.0623 151.351,52.8956 141.5,44.5 Z M 60.5,47.5 C 64.5683,49.9687 64.235,51.6354 59.5,52.5C 59.366,50.7085 59.6993,49.0418 60.5,47.5 Z M 139.5,47.5 C 142.084,48.0483 143.084,49.715 142.5,52.5C 137.967,52.4204 136.967,50.7538 139.5,47.5 Z M 33.5,50.5 C 36.148,52.1276 36.148,53.7943 33.5,55.5C 30.8387,53.8277 30.8387,52.1611 33.5,50.5 Z M 167.5,50.5 C 170.701,51.8395 171.035,53.5061 168.5,55.5C 166.296,54.218 165.962,52.5514 167.5,50.5 Z M 55.5,55.5 C 59.1612,55.3501 60.1612,56.8501 58.5,60C 54.6682,60.514 53.6682,59.014 55.5,55.5 Z M 143.5,55.5 C 147.161,55.3501 148.161,56.8501 146.5,60C 145.207,60.49 143.873,60.6567 142.5,60.5C 142.366,58.7085 142.699,57.0418 143.5,55.5 Z M 29.5,61.5 C 32.9563,62.5362 33.2896,64.2029 30.5,66.5C 28.2957,65.218 27.9624,63.5514 29.5,61.5 Z M 170.5,61.5 C 174.34,62.5678 174.507,64.2345 171,66.5C 167.98,65.1781 167.813,63.5114 170.5,61.5 Z M 52.5,88.5 C 53.6946,88.8656 54.3613,89.699 54.5,91C 53.9221,92.8114 53.4221,94.6447 53,96.5C 52.5026,93.854 52.3359,91.1873 52.5,88.5 Z M 61.5,88.5 C 63.8639,90.2724 63.8639,92.2724 61.5,94.5C 57.8979,92.678 57.8979,91.678 61.5,91.5C 61.5,90.5 61.5,89.5 61.5,88.5 Z M 140.5,88.5 C 140.48,90.143 141.147,91.4763 142.5,92.5C 141.652,94.2828 140.319,94.7828 138.5,94C 139.424,93.15 139.424,92.15 138.5,91C 138.639,89.699 139.305,88.8656 140.5,88.5 Z M 147.5,89.5 C 149.238,91.1195 149.738,93.1195 149,95.5C 147.681,93.7505 147.181,91.7505 147.5,89.5 Z M 93.5,105.5 C 98.5111,105.334 103.511,105.501 108.5,106C 110.887,108.953 110.221,111.286 106.5,113C 102.5,113.667 98.5,113.667 94.5,113C 91.0547,110.852 90.7214,108.352 93.5,105.5 Z M 69.5,106.5 C 72.2577,107.377 74.9244,108.544 77.5,110C 75.1891,112.164 72.5225,113.164 69.5,113C 67.6675,112.252 66.0009,111.252 64.5,110C 66.3464,108.97 68.0131,107.804 69.5,106.5 Z M 130.5,106.5 C 133.09,107.128 135.423,108.295 137.5,110C 132.833,114.667 128.167,114.667 123.5,110C 125.925,108.787 128.259,107.621 130.5,106.5 Z M 63.5,147.5 C 66.2105,149.945 69.0438,152.278 72,154.5C 72.5428,157.868 72.3761,161.201 71.5,164.5C 81.0593,163.546 84.5593,167.546 82,176.5C 80.8455,177.743 79.5122,178.743 78,179.5C 77.4108,173.669 74.7441,172.336 70,175.5C 69.0561,178.347 69.5561,180.847 71.5,183C 69.1985,186.161 69.5318,189.161 72.5,192C 70.8925,191.981 69.2259,191.815 67.5,191.5C 67.846,194.602 67.1793,197.435 65.5,200C 64.8333,200.667 64.1667,200.667 63.5,200C 61.3742,197.567 60.0409,194.734 59.5,191.5C 58.3914,192.59 57.3914,192.59 56.5,191.5C 58.5438,188.838 58.8771,186.005 57.5,183C 59.8113,180.353 59.978,177.52 58,174.5C 52.9628,172.193 50.6294,173.86 51,179.5C 44.291,176.288 43.1243,171.788 47.5,166C 50.3508,164.711 53.3508,164.211 56.5,164.5C 53.7631,157.312 55.9298,152.312 63,149.5C 63.4643,148.906 63.631,148.239 63.5,147.5 Z M 136.5,148.5 C 141.27,150.102 144.604,153.269 146.5,158C 145.932,159.872 145.265,161.705 144.5,163.5C 153.412,162.908 157.245,166.908 156,175.5C 154.622,177.213 152.955,178.547 151,179.5C 151.371,173.86 149.037,172.193 144,174.5C 141.87,177.665 142.037,180.665 144.5,183.5C 142.306,186.405 142.639,189.238 145.5,192C 144.451,192.492 143.451,192.326 142.5,191.5C 141.515,193.772 140.681,196.105 140,198.5C 138.333,201.167 136.667,201.167 135,198.5C 133.89,196.603 133.724,194.77 134.5,193C 133.975,192.308 133.308,191.808 132.5,191.5C 131.549,192.326 130.549,192.492 129.5,192C 132.361,189.238 132.694,186.405 130.5,183.5C 132.963,180.665 133.13,177.665 131,174.5C 125.963,172.193 123.629,173.86 124,179.5C 117.31,175.33 116.81,170.497 122.5,165C 125.226,164.818 127.893,164.318 130.5,163.5C 128.336,160.55 128.169,157.55 130,154.5C 132.063,152.266 134.229,150.266 136.5,148.5 Z M 108.5,253.5 C 107.167,253.5 105.833,253.5 104.5,253.5C 105,257.164 103.833,260.164 101,262.5C 98.1666,260.164 96.9999,257.164 97.5,253.5C 96.1667,253.5 94.8333,253.5 93.5,253.5C 94.0138,251.634 94.6805,249.8 95.5,248C 95.2409,246.739 94.5742,245.739 93.5,245C 96.1667,241.667 96.1667,238.333 93.5,235C 89.2887,234.183 87.2887,236.016 87.5,240.5C 81.0172,237.418 80.0172,233.085 84.5,227.5C 87.3899,225.531 90.3899,225.198 93.5,226.5C 92.6239,223.201 92.4572,219.868 93,216.5C 95.3981,213.951 98.0648,211.617 101,209.5C 103.854,211.598 106.521,213.931 109,216.5C 109.388,219.849 109.221,223.183 108.5,226.5C 113.664,224.948 117.497,226.614 120,231.5C 120.72,236.61 118.553,239.61 113.5,240.5C 113.689,234.852 111.522,233.518 107,236.5C 104.866,239.522 105.033,242.355 107.5,245C 106.134,248.036 106.468,250.869 108.5,253.5 Z"/></g>
<g><path style="opacity:1" fill="#f2f3f2" d="M 224.5,2.5 C 228.059,2.28446 231.559,2.6178 235,3.5C 236.946,5.88057 238.779,8.38057 240.5,11C 245.465,10.5822 250.465,10.5822 255.5,11C 258.807,11.6528 261.473,13.3195 263.5,16C 269.189,17.2261 274.856,18.5595 280.5,20C 287.167,23.6667 293.833,27.3333 300.5,31C 304.2,35.0352 308.2,38.7019 312.5,42C 314.5,42.6667 316.5,42.6667 318.5,42C 322.011,39.4945 325.844,37.6612 330,36.5C 336.645,38.1265 341.978,41.7931 346,47.5C 347.514,52.0285 349.681,56.1952 352.5,60C 355.351,61.2886 358.351,61.7886 361.5,61.5C 360.921,67.2292 357.588,70.0626 351.5,70C 349.622,71.5429 348.122,73.3762 347,75.5C 346.638,80.6811 346.138,85.8478 345.5,91C 346.75,100.293 351.75,103.959 360.5,102C 362.983,99.5938 365.65,97.4271 368.5,95.5C 375.009,98.5846 381.009,102.418 386.5,107C 390.32,110.275 390.487,113.775 387,117.5C 386.333,119.5 386.333,121.5 387,123.5C 390.127,128.419 392.127,133.752 393,139.5C 396.081,145.331 399.415,150.998 403,156.5C 405.264,159.433 408.098,161.6 411.5,163C 420.519,165.072 429.519,167.072 438.5,169C 440.915,172.776 442.082,176.943 442,181.5C 444.706,188.422 448.54,194.589 453.5,200C 458.143,203.102 463.143,204.268 468.5,203.5C 473.192,207.959 478.859,210.293 485.5,210.5C 488.104,214.812 489.604,219.478 490,224.5C 493.499,228.827 496.499,233.494 499,238.5C 500.543,240.378 502.376,241.878 504.5,243C 515.056,243.276 517.056,247.443 510.5,255.5C 512.547,257.015 514.881,257.849 517.5,258C 519.535,264.883 523.868,267.05 530.5,264.5C 532.425,264.59 533.592,265.59 534,267.5C 533.348,272.122 533.015,276.789 533,281.5C 535.667,284.833 538.333,288.167 541,291.5C 541.667,293.5 541.667,295.5 541,297.5C 537.369,298.208 534.369,299.874 532,302.5C 531.167,302.333 530.333,302.167 529.5,302C 527.833,299.667 526.167,297.333 524.5,295C 522.19,294.503 519.857,294.337 517.5,294.5C 518.689,301.722 516.022,303.889 509.5,301C 506.931,298.521 504.598,295.854 502.5,293C 497.198,290.718 492.698,291.884 489,296.5C 484.174,303.485 481.007,311.152 479.5,319.5C 482.753,326.171 484.253,333.171 484,340.5C 483.538,345.629 480.704,348.463 475.5,349C 474.313,350.019 473.313,351.186 472.5,352.5C 480.893,358.442 485.559,366.609 486.5,377C 486.204,378.888 485.704,380.722 485,382.5C 480.892,387.21 476.225,391.21 471,394.5C 470.697,398.92 472.364,402.587 476,405.5C 477.59,407.65 478.257,409.983 478,412.5C 474.589,413.293 471.089,413.793 467.5,414C 470.576,416.62 473.742,419.12 477,421.5C 478.706,425.079 480.539,428.579 482.5,432C 485.622,433.645 488.788,435.145 492,436.5C 494.004,440.328 493.504,443.828 490.5,447C 491.936,449.643 494.103,451.477 497,452.5C 497.822,454.788 498.489,457.122 499,459.5C 503.625,463.223 508.125,467.056 512.5,471C 515.409,479.464 518.242,487.964 521,496.5C 521.57,504.197 521.236,511.864 520,519.5C 518.818,522.523 516.651,524.189 513.5,524.5C 508.897,523.012 504.23,522.179 499.5,522C 498.833,523.333 498.167,524.667 497.5,526C 495.5,526 493.5,526 491.5,526C 487.743,529.086 484.743,532.752 482.5,537C 477.746,537.79 474.079,536.124 471.5,532C 466.859,531.76 462.692,530.26 459,527.5C 455.388,530.088 452.221,533.088 449.5,536.5C 440.693,529.585 434.86,520.585 432,509.5C 430.833,516 427,519.833 420.5,521C 417.112,523.786 414.446,527.119 412.5,531C 402.634,537.857 393.634,545.857 385.5,555C 379.643,555.646 376.477,558.813 376,564.5C 374.485,566.677 372.985,568.844 371.5,571C 372.615,573.616 373.949,576.116 375.5,578.5C 374.024,581.415 373.19,584.415 373,587.5C 375.204,589.017 377.538,590.35 380,591.5C 380.126,595.641 380.292,599.641 380.5,603.5C 380.192,606.592 379.192,609.425 377.5,612C 378.255,614.133 379.588,615.8 381.5,617C 386.34,617.426 391.173,617.26 396,616.5C 402.138,615.738 405.805,618.405 407,624.5C 407.995,629.305 408.829,634.139 409.5,639C 409.554,643.875 407.554,647.542 403.5,650C 397.896,650.723 392.396,650.223 387,648.5C 385.347,648.82 384.347,649.82 384,651.5C 383.192,653.423 382.692,655.423 382.5,657.5C 383.735,663.194 383.735,668.861 382.5,674.5C 383.803,676.968 385.303,679.301 387,681.5C 387.92,684.308 387.087,686.475 384.5,688C 381.833,688.667 379.167,688.667 376.5,688C 374.772,684.815 373.439,681.481 372.5,678C 368.984,676.744 365.984,674.744 363.5,672C 361.275,670.869 358.942,670.036 356.5,669.5C 353.091,670.315 349.757,670.648 346.5,670.5C 346.584,674.433 346.251,678.433 345.5,682.5C 342.167,683.833 338.833,683.833 335.5,682.5C 329.306,687.486 324.972,686.319 322.5,679C 323.178,676.476 324.512,674.309 326.5,672.5C 324.171,672.681 321.671,672.348 319,671.5C 316.882,667.38 315.215,663.047 314,658.5C 309.648,653.75 305.315,649.084 301,644.5C 301.946,638.177 300.946,632.177 298,626.5C 294.131,624.263 291.298,621.097 289.5,617C 286.044,615.519 282.711,613.852 279.5,612C 276.086,611.703 272.753,611.036 269.5,610C 267.966,607.034 266.8,603.867 266,600.5C 267.209,593.541 267.542,586.541 267,579.5C 269,576.833 271,574.167 273,571.5C 274.102,567.584 274.769,563.584 275,559.5C 281.944,553.243 286.277,545.576 288,536.5C 288.667,532.833 288.667,529.167 288,525.5C 279.834,525.757 273.001,522.923 267.5,517C 264.576,516.012 261.576,515.346 258.5,515C 257.865,510.032 255.031,507.532 250,507.5C 246.735,502.633 243.735,497.633 241,492.5C 238.617,489.727 235.783,487.561 232.5,486C 230.013,479.21 227.513,472.377 225,465.5C 224.081,457.196 224.581,449.03 226.5,441C 224.627,432.414 221.127,431.581 216,438.5C 214.107,437.804 212.274,436.97 210.5,436C 208.266,432.364 206.432,428.531 205,424.5C 205.064,417.107 205.897,409.774 207.5,402.5C 206.977,398.668 205.977,395.001 204.5,391.5C 205.606,387.681 207.273,384.014 209.5,380.5C 207.385,377.047 205.718,373.38 204.5,369.5C 204.871,359.261 207.371,349.594 212,340.5C 215.45,339.617 218.95,338.784 222.5,338C 227.511,333.56 227.178,329.227 221.5,325C 217.93,323.5 214.43,322 211,320.5C 211.775,313.478 209.442,307.811 204,303.5C 203.294,301.029 203.627,298.695 205,296.5C 208.281,294.891 210.447,292.391 211.5,289C 211.333,288.167 211.167,287.333 211,286.5C 208.521,283.931 205.854,281.598 203,279.5C 202.333,278.167 202.333,276.833 203,275.5C 204.932,273.962 207.099,272.795 209.5,272C 206.098,264.737 208.431,260.57 216.5,259.5C 219.122,254.966 219.122,250.466 216.5,246C 212.866,245.353 209.7,243.853 207,241.5C 205.595,237.995 205.095,234.495 205.5,231C 204.391,230.362 203.225,229.862 202,229.5C 199.44,230.53 196.94,231.697 194.5,233C 188.112,234.735 185.779,232.568 187.5,226.5C 186.167,224.5 184.5,222.833 182.5,221.5C 180.957,217.063 181.957,213.23 185.5,210C 191.173,208.338 195.173,210.171 197.5,215.5C 199.923,206.465 205.59,200.632 214.5,198C 217.528,193.469 221.861,191.135 227.5,191C 229.167,188.667 230.833,186.333 232.5,184C 232.002,182.842 231.169,182.009 230,181.5C 226.713,182.655 223.379,183.655 220,184.5C 218.739,184.241 217.739,183.574 217,182.5C 216.333,176.5 216.333,170.5 217,164.5C 223.322,159.205 227.655,152.539 230,144.5C 232.134,142.516 234.634,141.182 237.5,140.5C 238.333,139.5 239.167,138.5 240,137.5C 239.54,126.516 239.54,115.516 240,104.5C 238.713,100.63 237.047,96.9638 235,93.5C 229.933,88.3557 225.1,83.0224 220.5,77.5C 221.56,73.1304 222.393,68.797 223,64.5C 218.839,63.8125 214.673,62.9791 210.5,62C 209.838,57.5688 209.672,53.0688 210,48.5C 206.528,46.2744 202.695,44.9411 198.5,44.5C 197.359,42.5787 197.192,40.5787 198,38.5C 199.659,37.1832 200.826,35.5165 201.5,33.5C 198.353,30.6947 196.02,27.3614 194.5,23.5C 196.326,17.2538 200.326,15.2538 206.5,17.5C 210.429,16.0528 213.596,13.7195 216,10.5C 220.754,12.3969 225.587,14.0635 230.5,15.5C 231.111,11.0676 229.278,7.73428 225,5.5C 224.517,4.55198 224.351,3.55198 224.5,2.5 Z"/></g>
</svg>
