<?xml version="1.0" encoding="UTF-8"?>
<!DOCTYPE svg PUBLIC "-//W3C//DTD SVG 1.1//EN" "http://www.w3.org/Graphics/SVG/1.1/DTD/svg11.dtd">
<svg xmlns="http://www.w3.org/2000/svg" version="1.1" width="700px" height="701px" style="shape-rendering:geometricPrecision; text-rendering:geometricPrecision; image-rendering:optimizeQuality; fill-rule:evenodd; clip-rule:evenodd" xmlns:xlink="http://www.w3.org/1999/xlink">
<g><path style="opacity:0.883" fill="#fefffe" d="M 97.5,-0.5 C 99.8333,-0.5 102.167,-0.5 104.5,-0.5C 106.978,2.32914 107.978,5.66248 107.5,9.5C 113.158,9.15777 115.824,11.8244 115.5,17.5C 115.485,19.6341 114.985,21.6341 114,23.5C 111.515,24.9874 109.348,26.8208 107.5,29C 109.519,29.4497 111.352,30.283 113,31.5C 114.47,29.8481 116.303,28.8481 118.5,28.5C 121.75,28.8082 125.083,28.9748 128.5,29C 129.333,29.8333 130.167,30.6667 131,31.5C 135.406,28.2485 138.406,29.2485 140,34.5C 144.325,30.2481 147.658,30.9148 150,36.5C 155.307,34.0692 158.14,35.7359 158.5,41.5C 164.833,40.5 167.5,43.1667 166.5,49.5C 173.707,50.0849 175.04,53.2516 170.5,59C 175.218,60.4486 176.718,63.6153 175,68.5C 173.445,70.1458 171.779,70.4791 170,69.5C 169.333,70.5 169.333,71.5 170,72.5C 171.699,71.5939 173.533,71.2606 175.5,71.5C 170.288,80.2347 164.788,88.9014 159,97.5C 158.879,99.7271 158.046,101.56 156.5,103C 159.339,106.521 158.506,109.021 154,110.5C 153.667,110.167 153.333,109.833 153,109.5C 150.95,112.148 149.784,115.148 149.5,118.5C 153.8,118.815 155.467,121.149 154.5,125.5C 160.833,125.5 167.167,125.5 173.5,125.5C 173.667,165.168 173.5,204.835 173,244.5C 170.931,255.137 165.098,262.97 155.5,268C 143.64,273.398 131.306,277.398 118.5,280C 112.342,282.912 106.342,286.079 100.5,289.5C 88.8982,281.036 75.8982,276.536 61.5,276C 47.0379,271.871 36.5379,263.038 30,249.5C 28.5225,208.214 28.0225,166.881 28.5,125.5C 34.8333,125.5 41.1667,125.5 47.5,125.5C 47.3398,123.801 47.5065,122.134 48,120.5C 50.6355,118.454 51.1355,115.954 49.5,113C 47.9947,110.828 46.1614,108.995 44,107.5C 43.2888,105.633 43.7888,104.133 45.5,103C 40.5636,93.6424 34.7303,84.809 28,76.5C 26.9914,74.9751 26.4914,73.3084 26.5,71.5C 28.4672,71.2606 30.3005,71.5939 32,72.5C 32.866,70.1039 32.366,69.4372 30.5,70.5C 25.7377,69.0181 24.4044,66.0181 26.5,61.5C 27.9122,60.1936 29.5789,59.3603 31.5,59C 28.7972,57.1799 27.9639,54.6799 29,51.5C 30.9162,50.0722 33.0829,49.0722 35.5,48.5C 34.4994,42.3996 36.9994,40.3996 43,42.5C 43.1065,36.0521 46.1065,34.0521 52,36.5C 53.7262,31.4875 56.7262,30.4875 61,33.5C 63.6933,29.2278 67.0266,28.5611 71,31.5C 72.255,29.4062 74.0884,28.4062 76.5,28.5C 78.8765,29.5413 81.2098,29.5413 83.5,28.5C 85.6259,28.7298 87.2925,29.7298 88.5,31.5C 90.5473,30.8153 92.2139,29.6486 93.5,28C 89.1284,25.7956 86.4618,22.2956 85.5,17.5C 85.9946,12.005 88.9946,9.33831 94.5,9.5C 94.0216,5.66248 95.0216,2.32914 97.5,-0.5 Z M 93.5,21.5 C 95.0847,22.0024 95.5847,23.0024 95,24.5C 93.9614,23.7562 93.4614,22.7562 93.5,21.5 Z M 106.5,21.5 C 108.973,21.9473 109.14,22.9473 107,24.5C 106.517,23.552 106.351,22.552 106.5,21.5 Z M 74.5,31.5 C 77.1662,31.0658 78.3329,32.0658 78,34.5C 76.2714,34.0257 75.1047,33.0257 74.5,31.5 Z M 82.5,31.5 C 85.9563,32.5362 86.2896,34.2029 83.5,36.5C 81.2957,35.218 80.9624,33.5514 82.5,31.5 Z M 117.5,31.5 C 121.34,32.5678 121.507,34.2345 118,36.5C 116.212,34.9769 116.045,33.3102 117.5,31.5 Z M 123.5,31.5 C 124.978,31.238 126.311,31.5713 127.5,32.5C 126.833,32.8333 126.167,33.1667 125.5,33.5C 124.287,33.2528 123.62,32.5862 123.5,31.5 Z M 65.5,32.5 C 66.5,32.5 67.5,32.5 68.5,32.5C 68.5,33.8333 68.5,35.1667 68.5,36.5C 65.0464,36.7332 64.0464,35.3999 65.5,32.5 Z M 133.5,32.5 C 134.5,32.5 135.5,32.5 136.5,32.5C 136.5,33.8333 136.5,35.1667 136.5,36.5C 133.046,36.7332 132.046,35.3999 133.5,32.5 Z M 56.5,34.5 C 59.6898,35.6671 60.0232,37.3338 57.5,39.5C 54.1396,38.2095 53.8063,36.5428 56.5,34.5 Z M 143.5,34.5 C 146.956,35.5362 147.29,37.2029 144.5,39.5C 142.296,38.218 141.962,36.5514 143.5,34.5 Z M 74.5,36.5 C 77.9563,37.5362 78.2896,39.2029 75.5,41.5C 73.2957,40.218 72.9624,38.5514 74.5,36.5 Z M 107.5,36.5 C 117.635,41.8354 126.135,49.1687 133,58.5C 134.325,62.4285 134.658,66.4285 134,70.5C 133.333,71.1667 132.667,71.8333 132,72.5C 127.494,70.7493 124.16,72.0827 122,76.5C 120.385,81.9303 122.052,85.9303 127,88.5C 128.117,87.0506 128.784,85.3839 129,83.5C 129.781,84.7287 130.281,86.062 130.5,87.5C 128.624,89.048 127.624,91.048 127.5,93.5C 125.856,93.7135 124.356,93.3802 123,92.5C 122.262,89.5305 121.096,86.8638 119.5,84.5C 117.957,87.086 116.291,89.586 114.5,92C 111.854,92.4974 109.187,92.6641 106.5,92.5C 105.883,88.5048 107.049,85.1715 110,82.5C 110.18,84.4884 110.014,86.4884 109.5,88.5C 115.314,88.356 118.648,85.356 119.5,79.5C 118.945,73.9456 115.945,70.6123 110.5,69.5C 112.512,64.0163 113.012,58.3496 112,52.5C 110.797,47.062 109.297,41.7286 107.5,36.5 Z M 124.5,36.5 C 128.161,36.3501 129.161,37.8501 127.5,41C 124.241,40.9181 123.241,39.4181 124.5,36.5 Z M 93.5,37.5 C 91.0774,44.4475 89.744,51.6142 89.5,59C 89.3304,62.8643 89.9971,66.5309 91.5,70C 83.0698,71.6925 80.5698,76.5258 84,84.5C 89.38,90.4612 92.0467,89.7946 92,82.5C 94.8146,85.2781 95.8146,88.6114 95,92.5C 89.0472,94.4417 84.8806,92.4417 82.5,86.5C 80.9884,87.9906 79.9884,89.8239 79.5,92C 77.9751,93.0086 76.3084,93.5086 74.5,93.5C 74.5391,91.6412 73.7058,90.3079 72,89.5C 71.1799,87.272 71.5132,85.272 73,83.5C 72.8564,87.7084 74.3564,88.8751 77.5,87C 81.5,82.3333 81.5,77.6667 77.5,73C 74.4361,71.6335 71.4361,71.1335 68.5,71.5C 67.1512,67.1275 67.3179,62.7942 69,58.5C 75.5113,49.4828 83.678,42.4828 93.5,37.5 Z M 46.5,38.5 C 49.5,38.1667 50.8333,39.5 50.5,42.5C 47.5,42.8333 46.1667,41.5 46.5,38.5 Z M 151.5,38.5 C 153.346,38.2222 154.68,38.8888 155.5,40.5C 154.68,42.1112 153.346,42.7778 151.5,42.5C 151.5,41.1667 151.5,39.8333 151.5,38.5 Z M 66.5,42.5 C 70.9338,43.5583 71.2671,45.225 67.5,47.5C 65.2957,46.218 64.9624,44.5514 66.5,42.5 Z M 132.5,42.5 C 135.685,42.7224 136.685,44.2224 135.5,47C 131.707,47.4866 130.707,45.9866 132.5,42.5 Z M 38.5,44.5 C 39.5,44.5 40.5,44.5 41.5,44.5C 41.5,45.8333 41.5,47.1667 41.5,48.5C 38.0464,48.7332 37.0464,47.3999 38.5,44.5 Z M 160.5,44.5 C 161.5,44.5 162.5,44.5 163.5,44.5C 163.5,45.8333 163.5,47.1667 163.5,48.5C 162.167,48.5 160.833,48.5 159.5,48.5C 159.433,47.0413 159.766,45.7079 160.5,44.5 Z M 60.5,45.5 C 50.6727,53.8268 47.8394,64.1602 52,76.5C 50.7485,78.0009 49.7485,79.6675 49,81.5C 46.9307,80.7362 44.764,80.2362 42.5,80C 35.782,66.2915 39.1153,55.6248 52.5,48C 55.022,46.6591 57.6887,45.8257 60.5,45.5 Z M 141.5,45.5 C 151.233,47.7385 158.067,53.4051 162,62.5C 163.11,68.4735 162.276,74.1402 159.5,79.5C 156.914,80.48 154.247,80.8134 151.5,80.5C 151.863,78.0885 150.863,76.5885 148.5,76C 153.684,64.0623 151.351,53.8956 141.5,45.5 Z M 60.5,48.5 C 64.5683,50.9687 64.235,52.6354 59.5,53.5C 59.366,51.7085 59.6993,50.0418 60.5,48.5 Z M 139.5,48.5 C 142.084,49.0483 143.084,50.715 142.5,53.5C 137.967,53.4204 136.967,51.7538 139.5,48.5 Z M 33.5,51.5 C 36.148,53.1276 36.148,54.7943 33.5,56.5C 30.8387,54.8277 30.8387,53.1611 33.5,51.5 Z M 167.5,51.5 C 170.701,52.8395 171.035,54.5061 168.5,56.5C 166.296,55.218 165.962,53.5514 167.5,51.5 Z M 55.5,56.5 C 59.1612,56.3501 60.1612,57.8501 58.5,61C 54.6682,61.514 53.6682,60.014 55.5,56.5 Z M 143.5,56.5 C 147.161,56.3501 148.161,57.8501 146.5,61C 145.207,61.49 143.873,61.6567 142.5,61.5C 142.366,59.7085 142.699,58.0418 143.5,56.5 Z M 29.5,62.5 C 32.9563,63.5362 33.2896,65.2029 30.5,67.5C 28.2957,66.218 27.9624,64.5514 29.5,62.5 Z M 170.5,62.5 C 174.34,63.5678 174.507,65.2345 171,67.5C 167.98,66.1781 167.813,64.5114 170.5,62.5 Z M 52.5,89.5 C 53.6946,89.8656 54.3613,90.699 54.5,92C 53.9221,93.8114 53.4221,95.6447 53,97.5C 52.5026,94.854 52.3359,92.1873 52.5,89.5 Z M 61.5,89.5 C 63.8639,91.2724 63.8639,93.2724 61.5,95.5C 57.8979,93.678 57.8979,92.678 61.5,92.5C 61.5,91.5 61.5,90.5 61.5,89.5 Z M 140.5,89.5 C 140.48,91.143 141.147,92.4763 142.5,93.5C 141.652,95.2828 140.319,95.7828 138.5,95C 139.424,94.15 139.424,93.15 138.5,92C 138.639,90.699 139.305,89.8656 140.5,89.5 Z M 147.5,90.5 C 149.238,92.1195 149.738,94.1195 149,96.5C 147.681,94.7505 147.181,92.7505 147.5,90.5 Z M 93.5,106.5 C 98.5111,106.334 103.511,106.501 108.5,107C 110.887,109.953 110.221,112.286 106.5,114C 102.5,114.667 98.5,114.667 94.5,114C 91.0547,111.852 90.7214,109.352 93.5,106.5 Z M 69.5,107.5 C 72.2577,108.377 74.9244,109.544 77.5,111C 75.1891,113.164 72.5225,114.164 69.5,114C 67.6675,113.252 66.0009,112.252 64.5,111C 66.3464,109.97 68.0131,108.804 69.5,107.5 Z M 130.5,107.5 C 133.09,108.128 135.423,109.295 137.5,111C 132.833,115.667 128.167,115.667 123.5,111C 125.925,109.787 128.259,108.621 130.5,107.5 Z M 63.5,148.5 C 66.2105,150.945 69.0438,153.278 72,155.5C 72.5428,158.868 72.3761,162.201 71.5,165.5C 81.0593,164.546 84.5593,168.546 82,177.5C 80.8455,178.743 79.5122,179.743 78,180.5C 77.4108,174.669 74.7441,173.336 70,176.5C 69.0561,179.347 69.5561,181.847 71.5,184C 69.1985,187.161 69.5318,190.161 72.5,193C 70.8925,192.981 69.2259,192.815 67.5,192.5C 67.846,195.602 67.1793,198.435 65.5,201C 64.8333,201.667 64.1667,201.667 63.5,201C 61.3742,198.567 60.0409,195.734 59.5,192.5C 58.3914,193.59 57.3914,193.59 56.5,192.5C 58.5438,189.838 58.8771,187.005 57.5,184C 59.8113,181.353 59.978,178.52 58,175.5C 52.9628,173.193 50.6294,174.86 51,180.5C 44.291,177.288 43.1243,172.788 47.5,167C 50.3508,165.711 53.3508,165.211 56.5,165.5C 53.7631,158.312 55.9298,153.312 63,150.5C 63.4643,149.906 63.631,149.239 63.5,148.5 Z M 136.5,149.5 C 141.27,151.102 144.604,154.269 146.5,159C 145.932,160.872 145.265,162.705 144.5,164.5C 153.412,163.908 157.245,167.908 156,176.5C 154.622,178.213 152.955,179.547 151,180.5C 151.371,174.86 149.037,173.193 144,175.5C 141.87,178.665 142.037,181.665 144.5,184.5C 142.306,187.405 142.639,190.238 145.5,193C 144.451,193.492 143.451,193.326 142.5,192.5C 141.515,194.772 140.681,197.105 140,199.5C 138.333,202.167 136.667,202.167 135,199.5C 133.89,197.603 133.724,195.77 134.5,194C 133.975,193.308 133.308,192.808 132.5,192.5C 131.549,193.326 130.549,193.492 129.5,193C 132.361,190.238 132.694,187.405 130.5,184.5C 132.963,181.665 133.13,178.665 131,175.5C 125.963,173.193 123.629,174.86 124,180.5C 117.31,176.33 116.81,171.497 122.5,166C 125.226,165.818 127.893,165.318 130.5,164.5C 128.336,161.55 128.169,158.55 130,155.5C 132.063,153.266 134.229,151.266 136.5,149.5 Z M 108.5,254.5 C 107.167,254.5 105.833,254.5 104.5,254.5C 105,258.164 103.833,261.164 101,263.5C 98.1666,261.164 96.9999,258.164 97.5,254.5C 96.1667,254.5 94.8333,254.5 93.5,254.5C 94.0138,252.634 94.6805,250.8 95.5,249C 95.2409,247.739 94.5742,246.739 93.5,246C 96.1667,242.667 96.1667,239.333 93.5,236C 89.2887,235.183 87.2887,237.016 87.5,241.5C 81.0172,238.418 80.0172,234.085 84.5,228.5C 87.3899,226.531 90.3899,226.198 93.5,227.5C 92.6239,224.201 92.4572,220.868 93,217.5C 95.3981,214.951 98.0648,212.617 101,210.5C 103.854,212.598 106.521,214.931 109,217.5C 109.388,220.849 109.221,224.183 108.5,227.5C 113.664,225.948 117.497,227.614 120,232.5C 120.72,237.61 118.553,240.61 113.5,241.5C 113.689,235.852 111.522,234.518 107,237.5C 104.866,240.522 105.033,243.355 107.5,246C 106.134,249.036 106.468,251.869 108.5,254.5 Z"/></g>
<g><path style="opacity:1" fill="#f2f3f2" d="M 435.5,700.5 C 431.167,700.5 426.833,700.5 422.5,700.5C 418.678,696.874 418.512,692.874 422,688.5C 422.667,684.167 422.667,679.833 422,675.5C 421.31,672.804 419.81,670.637 417.5,669C 411.583,667.343 405.583,666.009 399.5,665C 398.167,664.333 396.833,663.667 395.5,663C 394.194,660.427 392.527,658.094 390.5,656C 388.473,655.502 386.473,655.669 384.5,656.5C 382.803,656.101 381.137,655.601 379.5,655C 375.784,650.952 372.45,646.618 369.5,642C 365.205,641.102 361.372,639.269 358,636.5C 356.263,632.339 355.263,628.005 355,623.5C 335.428,608.253 315.594,593.42 295.5,579C 289.5,573.667 283.5,568.333 277.5,563C 256.986,549.489 237.32,534.822 218.5,519C 195.24,502.402 172.573,485.069 150.5,467C 119.769,446.606 88.7689,426.606 57.5,407C 54.9975,404.916 52.3308,403.083 49.5,401.5C 47.2201,394.29 46.8867,386.957 48.5,379.5C 46.3678,368.152 46.2011,356.819 48,345.5C 51.0808,342.707 54.5808,340.54 58.5,339C 63.1988,333.966 68.1988,329.3 73.5,325C 77.6827,323.204 82.016,321.871 86.5,321C 89.5,318.667 92.5,316.333 95.5,314C 100.573,313.82 105.573,314.153 110.5,315C 111.416,314.626 112.25,314.126 113,313.5C 114.123,310.751 115.623,308.251 117.5,306C 126.727,304.104 136.06,303.104 145.5,303C 153.307,300.526 158.474,295.359 161,287.5C 167.659,280.495 175.825,276.328 185.5,275C 187.87,271.558 190.87,268.891 194.5,267C 198.584,266.769 202.584,266.102 206.5,265C 207.451,264.282 207.617,263.449 207,262.5C 205.164,260.292 202.831,258.958 200,258.5C 199.306,254.998 199.806,251.664 201.5,248.5C 197.268,237.662 200.768,233.996 212,237.5C 215.603,235.872 219.437,235.038 223.5,235C 225.563,232.489 227.063,229.656 228,226.5C 228.903,225.299 230.069,224.465 231.5,224C 235.955,223.103 240.455,222.603 245,222.5C 254,223.5 263,224.5 272,225.5C 274.5,225.333 277,225.167 279.5,225C 282.228,224.361 282.728,223.194 281,221.5C 280.333,219.167 280.333,216.833 281,214.5C 282.635,213.274 284.135,211.941 285.5,210.5C 282.615,207.454 279.282,204.954 275.5,203C 272.672,199.699 272.006,196.032 273.5,192C 272.034,189.186 270.534,186.353 269,183.5C 268.755,179.147 268.755,174.813 269,170.5C 264.938,166.242 264.438,161.575 267.5,156.5C 265.621,151.91 265.287,147.243 266.5,142.5C 266.147,140.269 265.314,138.269 264,136.5C 263.667,133.167 263.333,129.833 263,126.5C 258.374,124.061 255.541,120.395 254.5,115.5C 261.076,114.587 267.409,112.753 273.5,110C 276.868,106.098 279.868,101.931 282.5,97.5C 287.784,92.3587 294.117,89.692 301.5,89.5C 302.624,88.086 303.624,86.586 304.5,85C 306.5,84.3333 308.5,84.3333 310.5,85C 312.405,86.87 314.572,88.37 317,89.5C 320.467,84.7613 324.301,80.2613 328.5,76C 335.374,72.0634 342.374,68.3967 349.5,65C 364.362,62.8052 379.195,60.6385 394,58.5C 396.501,58.5838 398.834,59.2505 401,60.5C 410.597,59.1959 420.097,57.3626 429.5,55C 442.852,47.3992 457.185,45.3992 472.5,49C 478.839,51.363 484.672,54.5297 490,58.5C 496.155,52.1749 503.655,49.3416 512.5,50C 516.771,49.2303 518.437,46.7303 517.5,42.5C 520.187,42.3359 522.854,42.5026 525.5,43C 527.298,45.4725 529.632,47.1392 532.5,48C 537.155,48.4992 541.821,48.6658 546.5,48.5C 546.338,46.4727 546.505,44.4727 547,42.5C 548.231,41.8922 549.564,41.5589 551,41.5C 558.529,44.0305 565.862,47.0305 573,50.5C 578.994,48.6652 585.161,47.9985 591.5,48.5C 593.603,52.1258 592.603,54.2925 588.5,55C 589.517,56.0495 589.684,57.2161 589,58.5C 587.068,60.0383 584.901,61.205 582.5,62C 585.496,64.8154 586.829,68.3154 586.5,72.5C 585.899,77.738 584.899,82.9047 583.5,88C 586.048,93.1947 586.048,98.3614 583.5,103.5C 584.194,106.088 585.36,108.421 587,110.5C 588.115,114.484 587.115,117.818 584,120.5C 583.74,124.25 583.073,127.916 582,131.5C 578.929,133.865 575.596,135.865 572,137.5C 570.472,140.417 569.139,143.417 568,146.5C 565.512,148.743 562.846,150.743 560,152.5C 556.47,157.075 557.137,161.075 562,164.5C 562.449,172.161 564.949,178.995 569.5,185C 573.363,186.181 576.863,188.014 580,190.5C 583.21,196.506 585.377,202.84 586.5,209.5C 590.923,212.921 595.923,215.088 601.5,216C 605.33,220.474 607.83,225.641 609,231.5C 612.846,246.73 616.179,262.064 619,277.5C 619.942,280.993 621.275,284.326 623,287.5C 623.667,289.5 623.667,291.5 623,293.5C 620.667,295.006 618.5,296.673 616.5,298.5C 621,305.5 625.5,312.5 630,319.5C 631.286,322.405 632.286,325.405 633,328.5C 633.109,333.249 633.275,337.916 633.5,342.5C 632.26,347.624 631.26,352.791 630.5,358C 632.592,364.779 634.592,371.612 636.5,378.5C 634.088,386.31 631.421,393.977 628.5,401.5C 631.092,407.022 633.425,412.689 635.5,418.5C 634.049,426.776 629.383,431.942 621.5,434C 620.257,435.154 619.257,436.488 618.5,438C 619.794,440.087 620.961,442.254 622,444.5C 627.044,449.876 631.711,455.542 636,461.5C 639.716,470.23 640.55,479.23 638.5,488.5C 640.527,488.338 642.527,488.505 644.5,489C 645.727,491.736 646.727,494.569 647.5,497.5C 661.904,496.513 675.237,500.013 687.5,508C 690.933,511.104 693.1,514.937 694,519.5C 695.168,524.173 696.335,528.839 697.5,533.5C 697.423,535.299 696.923,536.966 696,538.5C 688.615,543.414 680.782,547.581 672.5,551C 660.272,563.433 646.938,574.433 632.5,584C 609.67,596.578 587.337,609.912 565.5,624C 557.096,632.282 548.596,640.449 540,648.5C 529.753,661.137 518.92,673.304 507.5,685C 495.022,687.249 482.689,690.249 470.5,694C 463.256,695.652 455.923,696.652 448.5,697C 443.958,697.867 439.625,699.033 435.5,700.5 Z"/></g>
</svg>
