<?xml version="1.0" encoding="UTF-8"?>
<!DOCTYPE svg PUBLIC "-//W3C//DTD SVG 1.1//EN" "http://www.w3.org/Graphics/SVG/1.1/DTD/svg11.dtd">
<svg xmlns="http://www.w3.org/2000/svg" version="1.1" width="380px" height="360px" style="shape-rendering:geometricPrecision; text-rendering:geometricPrecision; image-rendering:optimizeQuality; fill-rule:evenodd; clip-rule:evenodd" xmlns:xlink="http://www.w3.org/1999/xlink">
<g><path style="opacity:0.953" fill="#ebebeb" d="M 180.5,0.5 C 198.745,-1.81039 213.911,3.85627 226,17.5C 237.845,35.377 238.512,53.7104 228,72.5C 213.884,90.5769 195.718,96.4103 173.5,90C 151.379,79.9293 141.545,62.7626 144,38.5C 148.567,18.4346 160.734,5.76793 180.5,0.5 Z M 188.5,5.5 C 200.44,11.0445 205.274,20.3778 203,33.5C 201.106,38.392 198.772,43.0587 196,47.5C 195.338,49.8127 194.838,52.146 194.5,54.5C 196.5,54.5 198.5,54.5 200.5,54.5C 201.887,46.6181 204.054,38.9514 207,31.5C 208.723,28.275 211.223,25.9416 214.5,24.5C 216.187,24.7605 217.687,25.4272 219,26.5C 224.911,36.7316 228.744,47.7316 230.5,59.5C 230.267,60.9317 229.6,61.4317 228.5,61C 225.451,56.2842 221.451,52.6176 216.5,50C 213.208,49.1042 210.875,50.2709 209.5,53.5C 210.325,54.3857 211.325,54.719 212.5,54.5C 212.711,59.3995 212.211,64.0661 211,68.5C 213.596,70.0201 216.429,70.8534 219.5,71C 217.5,73 215.5,75 213.5,77C 208.386,79.7929 204.553,78.6263 202,73.5C 201.453,70.2976 200.453,67.2976 199,64.5C 198.308,65.0253 197.808,65.6919 197.5,66.5C 201.459,75.3344 198.792,80.6677 189.5,82.5C 179.975,80.7841 177.308,75.4507 181.5,66.5C 181.192,65.6919 180.692,65.0253 180,64.5C 178.562,68.8041 176.729,72.9707 174.5,77C 168,79.9186 163.333,78.0853 160.5,71.5C 164.14,71.2604 166.806,69.5937 168.5,66.5C 166.656,62.7826 165.989,58.7826 166.5,54.5C 169.696,54.0358 169.696,52.5358 166.5,50C 164.833,49.3333 163.167,49.3333 161.5,50C 156.992,53.342 152.992,57.1754 149.5,61.5C 149.833,49.5166 153,38.1833 159,27.5C 161.003,25.0779 163.503,24.2446 166.5,25C 169.531,27.559 171.698,30.7257 173,34.5C 175.302,40.7086 177.135,47.0419 178.5,53.5C 180.5,54.8333 182.5,54.8333 184.5,53.5C 183.088,47.3429 180.588,41.6763 177,36.5C 173.037,23.2195 176.87,12.8862 188.5,5.5 Z"/></g>
<g><path style="opacity:1" fill="#ebeceb" d="M 188.5,8.5 C 200.39,14.996 203.89,24.6627 199,37.5C 195.146,42.5387 192.979,48.2054 192.5,54.5C 190.5,54.5 188.5,54.5 186.5,54.5C 185.684,47.5299 183.184,41.1966 179,35.5C 175.944,24.2842 179.111,15.2842 188.5,8.5 Z"/></g>
<g><path style="opacity:1" fill="#ebeceb" d="M 163.5,26.5 C 166.845,27.6799 169.011,30.0132 170,33.5C 172.757,40.2691 174.59,47.2691 175.5,54.5C 174.167,54.5 172.833,54.5 171.5,54.5C 170.399,48.2751 166.732,46.1085 160.5,48C 158.023,49.6427 155.69,51.476 153.5,53.5C 153.822,44.6839 156.322,36.3506 161,28.5C 161.995,27.9341 162.828,27.2674 163.5,26.5 Z"/></g>
<g><path style="opacity:1" fill="#ebeceb" d="M 214.5,26.5 C 218.195,28.8694 220.695,32.2027 222,36.5C 224.32,42.0864 225.487,47.7531 225.5,53.5C 222.506,49.7547 218.673,47.4213 214,46.5C 210.193,47.6404 207.693,50.1404 206.5,54C 205.552,54.4828 204.552,54.6495 203.5,54.5C 204.293,45.6627 206.793,37.3294 211,29.5C 212.145,28.3636 213.312,27.3636 214.5,26.5 Z"/></g>
<g><path style="opacity:0.955" fill="#ebebeb" d="M 131.5,35.5 C 133.144,35.2865 134.644,35.6198 136,36.5C 134.183,52.2337 137.85,66.567 147,79.5C 151.202,83.3666 155.035,87.5332 158.5,92C 136.086,93.1569 113.586,93.6569 91,93.5C 68.1054,93.6516 45.2721,93.1516 22.5,92C 23.8333,91.3333 24.8333,90.3333 25.5,89C 61.0497,71.3922 96.3831,53.5589 131.5,35.5 Z"/></g>
<g><path style="opacity:0.955" fill="#ebebeb" d="M 243.5,35.5 C 244.873,35.3433 246.207,35.51 247.5,36C 282.833,53.6667 318.167,71.3333 353.5,89C 354.167,90.3333 355.167,91.3333 356.5,92C 311.892,93.6509 267.226,93.9843 222.5,93C 220.314,92.3964 220.148,91.2297 222,89.5C 238.494,75.1784 245.661,57.1784 243.5,35.5 Z"/></g>
<g><path style="opacity:1" fill="#ebeceb" d="M 168.5,57.5 C 182.167,57.5 195.833,57.5 209.5,57.5C 209.5,59.1667 209.5,60.8333 209.5,62.5C 196.163,62.6666 182.829,62.4999 169.5,62C 168.62,60.6439 168.286,59.1439 168.5,57.5 Z"/></g>
<g><path style="opacity:1" fill="#ebeceb" d="M 171.5,64.5 C 172.833,64.5 174.167,64.5 175.5,64.5C 176.641,70.2191 174.641,74.2191 169.5,76.5C 167.444,75.9524 165.777,74.7858 164.5,73C 168.866,71.8035 171.2,68.9702 171.5,64.5 Z"/></g>
<g><path style="opacity:1" fill="#ebeceb" d="M 185.5,64.5 C 193.09,62.7597 196.757,65.7597 196.5,73.5C 196.674,75.6934 196.007,77.5267 194.5,79C 185.031,82.1827 181.197,79.0161 183,69.5C 183.335,67.4971 184.168,65.8304 185.5,64.5 Z"/></g>
<g><path style="opacity:1" fill="#ebeceb" d="M 203.5,64.5 C 206.73,64.561 208.563,66.2277 209,69.5C 210.154,70.7433 211.488,71.7433 213,72.5C 211.662,76.6629 209.162,77.3295 205.5,74.5C 203.515,71.2608 202.849,67.9275 203.5,64.5 Z"/></g>
<g><path style="opacity:0.958" fill="#ebebeb" d="M 23.5,109.5 C 134.167,109.333 244.834,109.5 355.5,110C 356.649,118.421 356.816,126.921 356,135.5C 245.236,136.665 134.403,136.832 23.5,136C 22.18,127.167 22.18,118.333 23.5,109.5 Z"/></g>
<g><path style="opacity:0.879" fill="#ebebeb" d="M 47.5,144.5 C 64.8365,144.333 82.1699,144.5 99.5,145C 100.61,147.737 100.777,150.571 100,153.5C 82.5738,154.658 65.0738,154.825 47.5,154C 46.208,150.835 46.208,147.668 47.5,144.5 Z"/></g>
<g><path style="opacity:0.879" fill="#ebeceb" d="M 163.5,144.5 C 180.837,144.333 198.17,144.5 215.5,145C 216.61,147.737 216.777,150.571 216,153.5C 198.574,154.658 181.074,154.825 163.5,154C 162.208,150.835 162.208,147.668 163.5,144.5 Z"/></g>
<g><path style="opacity:0.879" fill="#ebeceb" d="M 279.5,144.5 C 296.837,144.333 314.17,144.5 331.5,145C 332.61,147.737 332.777,150.571 332,153.5C 314.574,154.658 297.074,154.825 279.5,154C 278.208,150.835 278.208,147.668 279.5,144.5 Z"/></g>
<g><path style="opacity:0.973" fill="#ebebeb" d="M 55.5,162.5 C 67.747,162.178 79.9136,162.512 92,163.5C 98.0744,207.761 103.741,252.094 109,296.5C 109.784,299.76 109.617,302.927 108.5,306C 84.9274,306.827 61.4274,306.66 38,305.5C 42.769,257.682 48.6023,210.015 55.5,162.5 Z"/></g>
<g><path style="opacity:0.973" fill="#ebebeb" d="M 171.5,162.5 C 183.747,162.178 195.914,162.512 208,163.5C 214.16,209.449 219.994,255.449 225.5,301.5C 225.449,303.1 225.116,304.6 224.5,306C 200.927,306.827 177.427,306.66 154,305.5C 154.752,291.81 156.085,278.143 158,264.5C 162.015,230.376 166.515,196.376 171.5,162.5 Z"/></g>
<g><path style="opacity:0.973" fill="#ebebeb" d="M 287.5,162.5 C 299.747,162.178 311.914,162.512 324,163.5C 330.198,209.611 336.031,255.778 341.5,302C 341.441,303.436 341.108,304.769 340.5,306C 316.927,306.827 293.427,306.66 270,305.5C 269.333,302.5 269.333,299.5 270,296.5C 275.186,251.679 281.019,207.012 287.5,162.5 Z"/></g>
<g><path style="opacity:0.917" fill="#ebeceb" d="M 23.5,313.5 C 57.1683,313.333 90.835,313.5 124.5,314C 125.629,318.079 125.796,322.245 125,326.5C 91.2382,327.662 57.4048,327.829 23.5,327C 22.1943,322.501 22.1943,318.001 23.5,313.5 Z"/></g>
<g><path style="opacity:0.917" fill="#ebeceb" d="M 139.5,313.5 C 172.835,313.333 206.168,313.5 239.5,314C 241.045,315.822 241.712,317.989 241.5,320.5C 241.712,323.011 241.045,325.178 239.5,327C 206.167,327.667 172.833,327.667 139.5,327C 136.867,322.501 136.867,318.001 139.5,313.5 Z"/></g>
<g><path style="opacity:0.917" fill="#ebeceb" d="M 254.5,313.5 C 288.168,313.333 321.835,313.5 355.5,314C 356.629,318.079 356.796,322.245 356,326.5C 322.572,327.662 289.072,327.829 255.5,327C 253.217,322.712 252.884,318.212 254.5,313.5 Z"/></g>
<g><path style="opacity:0.954" fill="#ebebeb" d="M 2.5,334.5 C 127.167,334.333 251.834,334.5 376.5,335C 377.647,342.42 377.813,349.92 377,357.5C 252.236,358.665 127.403,358.832 2.5,358C 1.1818,350.167 1.1818,342.334 2.5,334.5 Z"/></g>
</svg>
