<?xml version="1.0" encoding="UTF-8"?>
<!DOCTYPE svg PUBLIC "-//W3C//DTD SVG 1.1//EN" "http://www.w3.org/Graphics/SVG/1.1/DTD/svg11.dtd">
<svg xmlns="http://www.w3.org/2000/svg" version="1.1" width="460px" height="460px" style="shape-rendering:geometricPrecision; text-rendering:geometricPrecision; image-rendering:optimizeQuality; fill-rule:evenodd; clip-rule:evenodd" xmlns:xlink="http://www.w3.org/1999/xlink">
<g><path style="opacity:0.084" fill="#000000" d="M 341.5,4.5 C 341.897,3.47498 342.563,3.30831 343.5,4C 344.774,4.97722 344.774,5.81056 343.5,6.5C 343.167,5.5 342.5,4.83333 341.5,4.5 Z"/></g>
<g><path style="opacity:0.993" fill="#f8f8f8" d="M 341.5,4.5 C 342.5,4.83333 343.167,5.5 343.5,6.5C 337.509,28.3223 326.509,47.1556 310.5,63C 300.69,70.2389 290.023,75.9056 278.5,80C 277.5,81 276.5,82 275.5,83C 297.113,77.9945 319.113,76.1612 341.5,77.5C 342.11,78.391 342.443,79.391 342.5,80.5C 327.992,94.2634 311.325,104.763 292.5,112C 294.134,112.494 295.801,112.66 297.5,112.5C 296.85,116.14 295.35,119.473 293,122.5C 287.623,128.208 282.623,134.208 278,140.5C 271.461,146.708 264.627,152.541 257.5,158C 258.059,158.725 258.392,159.558 258.5,160.5C 253.809,179.08 246.309,196.413 236,212.5C 224.82,225.179 211.32,234.512 195.5,240.5C 193.237,245.984 192.07,251.65 192,257.5C 206.194,241.174 222.694,227.84 241.5,217.5C 242.391,218.11 243.391,218.443 244.5,218.5C 243.454,225.681 241.621,232.681 239,239.5C 234.941,249.95 230.107,259.95 224.5,269.5C 223.243,270.623 223.576,271.289 225.5,271.5C 227.266,312.312 210.932,343.312 176.5,364.5C 174.731,370.733 174.231,377.066 175,383.5C 185.462,366.864 198.296,352.197 213.5,339.5C 214.391,340.11 215.391,340.443 216.5,340.5C 215.906,361.875 211.072,382.209 202,401.5C 193.98,412.354 184.48,421.687 173.5,429.5C 172.669,437.145 172.169,444.812 172,452.5C 168.606,453.456 165.106,453.789 161.5,453.5C 161.205,437.975 161.538,422.475 162.5,407C 155.729,400.559 149.229,393.726 143,386.5C 133.573,372.908 127.24,357.908 124,341.5C 121.63,331.284 120.13,320.951 119.5,310.5C 120.609,310.443 121.609,310.11 122.5,309.5C 125.956,311.783 129.29,314.283 132.5,317C 142.847,326.673 151.681,337.506 159,349.5C 161.277,354.387 163.277,359.387 165,364.5C 166.103,354.469 167.269,344.469 168.5,334.5C 150.589,319.017 139.089,299.684 134,276.5C 131.704,265.263 130.204,253.93 129.5,242.5C 130.5,241.833 131.5,241.167 132.5,240.5C 151.043,254.536 164.877,272.203 174,293.5C 174.27,290.776 174.77,288.109 175.5,285.5C 154.989,263.639 145.989,237.639 148.5,207.5C 148.294,198.941 148.961,190.608 150.5,182.5C 151.391,181.89 152.391,181.557 153.5,181.5C 168.385,198.601 178.552,218.267 184,240.5C 184.721,235.059 185.888,229.726 187.5,224.5C 168.806,202.939 160.473,177.772 162.5,149C 162.382,140.287 163.048,131.787 164.5,123.5C 165.492,123.672 166.158,123.338 166.5,122.5C 175.64,132.828 183.474,144.162 190,156.5C 195.343,167.545 198.009,179.212 198,191.5C 199.07,188.124 200.236,184.79 201.5,181.5C 193.484,164.733 190.65,147.067 193,128.5C 195.311,115.898 198.645,103.565 203,91.5C 205.352,85.4624 208.185,79.7957 211.5,74.5C 212.391,75.1098 213.391,75.4431 214.5,75.5C 221.805,93.8556 225.305,112.856 225,132.5C 226.667,129.833 228.333,127.167 230,124.5C 220.547,96.926 221.547,69.5927 233,42.5C 235.333,36.5 237.667,30.5 240,24.5C 240.377,23.0577 241.21,22.0577 242.5,21.5C 243.391,22.1098 244.391,22.4431 245.5,22.5C 254.322,44.0894 257.488,66.4227 255,89.5C 259.3,84.1988 263.966,79.1988 269,74.5C 274.006,57.6574 283.173,43.4907 296.5,32C 310.221,20.8031 325.221,11.6364 341.5,4.5 Z M 287.5,113.5 C 271.505,117.61 255.838,122.943 240.5,129.5C 242.845,123.979 245.845,118.812 249.5,114C 262.166,114.777 274.833,114.61 287.5,113.5 Z M 243.5,163.5 C 245.379,163.393 245.712,163.893 244.5,165C 231.283,173.045 219.449,182.878 209,194.5C 211.476,185.697 214.976,177.197 219.5,169C 227.894,168.331 235.894,166.497 243.5,163.5 Z M 203.5,288.5 C 195.001,297.506 187.834,307.506 182,318.5C 182.112,312.146 182.779,305.813 184,299.5C 190.406,295.577 196.906,291.911 203.5,288.5 Z"/></g>
<g><path style="opacity:0.09" fill="#141414" d="M 242.5,21.5 C 243.779,20.2848 244.779,20.6182 245.5,22.5C 244.391,22.4431 243.391,22.1098 242.5,21.5 Z"/></g>
<g><path style="opacity:0.056" fill="#141414" d="M 214.5,75.5 C 213.391,75.4431 212.391,75.1098 211.5,74.5C 212.86,72.0188 213.86,72.3522 214.5,75.5 Z"/></g>
<g><path style="opacity:0.035" fill="#000000" d="M 341.5,77.5 C 343.552,78.0527 343.885,79.0527 342.5,80.5C 342.443,79.391 342.11,78.391 341.5,77.5 Z"/></g>
<g><path style="opacity:0.631" fill="#656565" d="M 166.5,122.5 C 166.158,123.338 165.492,123.672 164.5,123.5C 164.711,121.576 165.377,121.243 166.5,122.5 Z"/></g>
<g><path style="opacity:0.947" fill="#f9f9f9" d="M 304.5,161.5 C 326.521,161.363 339.687,172.029 344,193.5C 345.472,214.342 336.305,227.842 316.5,234C 294.118,237.568 279.285,228.734 272,207.5C 268.787,181.923 279.62,166.59 304.5,161.5 Z M 306.5,182.5 C 322.368,185.236 326.868,193.903 320,208.5C 313.386,214.045 306.22,214.878 298.5,211C 292.401,205.257 290.901,198.423 294,190.5C 297.025,185.961 301.192,183.295 306.5,182.5 Z"/></g>
<g><path style="opacity:0.066" fill="#111111" d="M 153.5,181.5 C 152.391,181.557 151.391,181.89 150.5,182.5C 150.351,178.999 151.351,178.666 153.5,181.5 Z"/></g>
<g><path style="opacity:0.963" fill="#f9f9f9" d="M 384.5,187.5 C 394.913,187.97 398.746,193.303 396,203.5C 359.5,240 323,276.5 286.5,313C 273.6,314.43 269.1,308.93 273,296.5C 308.5,261 344,225.5 379.5,190C 381.315,189.243 382.981,188.41 384.5,187.5 Z"/></g>
<g><path style="opacity:0.145" fill="#101010" d="M 244.5,218.5 C 243.391,218.443 242.391,218.11 241.5,217.5C 243.649,214.666 244.649,214.999 244.5,218.5 Z"/></g>
<g><path style="opacity:0.216" fill="#1b1b1b" d="M 132.5,240.5 C 131.5,241.167 130.5,241.833 129.5,242.5C 129.5,241.5 129.5,240.5 129.5,239.5C 130.791,239.263 131.791,239.596 132.5,240.5 Z"/></g>
<g><path style="opacity:0.947" fill="#f9f9f9" d="M 356.5,266.5 C 386.006,267.838 399.173,283.171 396,312.5C 388.875,333.27 374.375,342.103 352.5,339C 329.373,331.93 320.207,316.43 325,292.5C 330.299,277.354 340.799,268.688 356.5,266.5 Z M 357.5,287.5 C 373.531,289.039 378.698,297.373 373,312.5C 364.945,320.062 356.612,320.396 348,313.5C 341.987,301.364 345.154,292.698 357.5,287.5 Z"/></g>
<g><path style="opacity:0.149" fill="#171717" d="M 224.5,269.5 C 225.338,269.842 225.672,270.508 225.5,271.5C 223.576,271.289 223.243,270.623 224.5,269.5 Z"/></g>
<g><path style="opacity:0.093" fill="#121212" d="M 122.5,309.5 C 121.609,310.11 120.609,310.443 119.5,310.5C 120.053,308.448 121.053,308.115 122.5,309.5 Z"/></g>
<g><path style="opacity:0.075" fill="#161616" d="M 213.5,339.5 C 214.947,338.115 215.947,338.448 216.5,340.5C 215.391,340.443 214.391,340.11 213.5,339.5 Z"/></g>
</svg>
