<?xml version="1.0" encoding="UTF-8"?>
<!DOCTYPE svg PUBLIC "-//W3C//DTD SVG 1.1//EN" "http://www.w3.org/Graphics/SVG/1.1/DTD/svg11.dtd">
<svg xmlns="http://www.w3.org/2000/svg" version="1.1" width="402px" height="402px" style="shape-rendering:geometricPrecision; text-rendering:geometricPrecision; image-rendering:optimizeQuality; fill-rule:evenodd; clip-rule:evenodd" xmlns:xlink="http://www.w3.org/1999/xlink">
<g><path style="opacity:0.849" fill="#646464" d="M 184.5,2.5 C 184.5,2.83333 184.5,3.16667 184.5,3.5C 176.701,4.81665 168.701,5.48332 160.5,5.5C 168.31,4.0658 176.31,3.0658 184.5,2.5 Z"/></g>
<g><path style="opacity:1" fill="#ececec" d="M 184.5,3.5 C 202.534,3.36778 220.534,4.03445 238.5,5.5C 244.767,5.65553 250.767,6.65553 256.5,8.5C 257.841,10.12 259.674,11.12 262,11.5C 262.671,10.7476 263.504,10.4142 264.5,10.5C 264.62,11.5862 265.287,12.2528 266.5,12.5C 272.202,14.0113 277.702,16.0113 283,18.5C 283.671,17.7476 284.504,17.4142 285.5,17.5C 290.002,19.0079 294.002,21.3412 297.5,24.5C 298.616,28.5584 300.283,32.225 302.5,35.5C 302.461,36.5832 302.127,37.5832 301.5,38.5C 301.957,39.2975 302.624,39.6309 303.5,39.5C 303.461,40.5832 303.127,41.5832 302.5,42.5C 305.871,58.361 309.871,73.361 314.5,87.5C 316.399,93.6745 318.066,100.008 319.5,106.5C 317.825,108.456 318.158,109.789 320.5,110.5C 320.67,111.822 320.337,112.989 319.5,114C 320.094,114.464 320.761,114.631 321.5,114.5C 321.5,114.833 321.5,115.167 321.5,115.5C 319.871,117.196 320.204,118.196 322.5,118.5C 322.5,118.833 322.5,119.167 322.5,119.5C 320.825,121.456 321.158,122.789 323.5,123.5C 323.461,124.583 323.127,125.583 322.5,126.5C 322.957,127.298 323.624,127.631 324.5,127.5C 323.396,130.99 324.063,133.99 326.5,136.5C 326.5,136.833 326.5,137.167 326.5,137.5C 326.5,138.167 326.167,138.5 325.5,138.5C 323.262,137.463 320.929,137.297 318.5,138C 316.33,139.586 313.996,140.92 311.5,142C 302.501,142.215 293.501,142.048 284.5,141.5C 267.81,140.981 251.143,140.314 234.5,139.5C 234.417,117.82 234.917,96.1538 236,74.5C 237.259,71.6441 238.759,68.9774 240.5,66.5C 240.5,65.5 240.5,64.5 240.5,63.5C 240.5,62.8333 240.5,62.1667 240.5,61.5C 240.092,56.105 237.092,53.7717 231.5,54.5C 231.209,53.3509 230.376,52.6842 229,52.5C 221.753,51.3839 214.586,49.8839 207.5,48C 205.714,47.2155 204.214,46.0488 203,44.5C 202.601,44.7284 202.435,45.0618 202.5,45.5C 201.5,45.1667 200.833,44.5 200.5,43.5C 200.61,39.7722 199.277,39.6055 196.5,43C 196.728,43.3988 197.062,43.5654 197.5,43.5C 197.672,44.4916 197.338,45.1583 196.5,45.5C 196.565,45.0618 196.399,44.7284 196,44.5C 194.519,45.4709 193.685,46.8042 193.5,48.5C 192.883,48.3893 192.383,48.056 192,47.5C 184.298,50.0423 176.465,52.209 168.5,54C 165.293,54.5717 163.626,56.405 163.5,59.5C 163.5,61.1667 163.5,62.8333 163.5,64.5C 163.343,65.8734 163.51,67.2068 164,68.5C 167.861,72.9142 169.361,78.0808 168.5,84C 167.4,98.8328 166.4,113.666 165.5,128.5C 165.815,132.371 165.482,136.038 164.5,139.5C 137.935,140.538 111.602,141.538 85.5,142.5C 84.8333,142.5 84.1667,142.5 83.5,142.5C 83.8693,140.007 83.2027,139.34 81.5,140.5C 79.2362,139.781 76.9029,139.448 74.5,139.5C 73.971,137.229 73.6377,134.896 73.5,132.5C 73.2155,130.585 73.5489,128.919 74.5,127.5C 76.229,126.047 77.229,124.047 77.5,121.5C 77.1373,120.817 76.8039,120.15 76.5,119.5C 76.5,119.167 76.5,118.833 76.5,118.5C 78.7957,118.196 79.129,117.196 77.5,115.5C 77.5,115.167 77.5,114.833 77.5,114.5C 78.5862,114.38 79.2528,113.713 79.5,112.5C 80.7888,108.792 81.1221,105.125 80.5,101.5C 81.2389,101.631 81.9056,101.464 82.5,101C 81.6634,99.9887 81.33,98.8221 81.5,97.5C 81.5,97.1667 81.5,96.8333 81.5,96.5C 82.2389,96.631 82.9056,96.4643 83.5,96C 82.7476,95.3292 82.4142,94.4959 82.5,93.5C 82.5,93.1667 82.5,92.8333 82.5,92.5C 84.7957,92.1959 85.129,91.1959 83.5,89.5C 85.0502,81.6289 87.0502,73.9622 89.5,66.5C 92.4605,58.3529 94.7938,49.3529 96.5,39.5C 97.5072,36.678 98.3405,33.678 99,30.5C 100.421,28.5952 101.588,26.5952 102.5,24.5C 105.358,20.9905 109.024,18.6571 113.5,17.5C 114.15,17.8039 114.817,18.1373 115.5,18.5C 118.033,17.696 120.033,16.3627 121.5,14.5C 123.396,14.9198 125.229,14.9198 127,14.5C 127.464,13.9056 127.631,13.2389 127.5,12.5C 128.496,12.4142 129.329,12.7476 130,13.5C 132.953,12.6762 135.453,11.3428 137.5,9.5C 137.833,9.5 138.167,9.5 138.5,9.5C 139.496,9.41423 140.329,9.74756 141,10.5C 143.326,10.12 145.159,9.11996 146.5,7.5C 151.036,6.18924 155.703,5.52257 160.5,5.5C 168.701,5.48332 176.701,4.81665 184.5,3.5 Z"/></g>
<g><path style="opacity:0.776" fill="#7c7c7c" d="M 184.5,3.5 C 184.5,3.16667 184.5,2.83333 184.5,2.5C 195.838,2.33348 207.172,2.50014 218.5,3C 225.38,3.28953 232.046,4.12286 238.5,5.5C 220.534,4.03445 202.534,3.36778 184.5,3.5 Z"/></g>
<g><path style="opacity:0.831" fill="#4b4b4b" d="M 146.5,7.5 C 145.159,9.11996 143.326,10.12 141,10.5C 140.329,9.74756 139.496,9.41423 138.5,9.5C 140.905,8.2318 143.572,7.56513 146.5,7.5 Z"/></g>
<g><path style="opacity:0.82" fill="#4d4d4d" d="M 256.5,8.5 C 259.428,8.56513 262.095,9.2318 264.5,10.5C 263.504,10.4142 262.671,10.7476 262,11.5C 259.674,11.12 257.841,10.12 256.5,8.5 Z"/></g>
<g><path style="opacity:0.722" fill="#696969" d="M 137.5,9.5 C 135.453,11.3428 132.953,12.6762 130,13.5C 129.329,12.7476 128.496,12.4142 127.5,12.5C 130.619,11.1301 133.952,10.1301 137.5,9.5 Z"/></g>
<g><path style="opacity:0.835" fill="#5d5d5d" d="M 264.5,10.5 C 271.921,11.8625 278.921,14.1958 285.5,17.5C 284.504,17.4142 283.671,17.7476 283,18.5C 277.702,16.0113 272.202,14.0113 266.5,12.5C 265.287,12.2528 264.62,11.5862 264.5,10.5 Z"/></g>
<g><path style="opacity:0.886" fill="#424242" d="M 127.5,12.5 C 127.631,13.2389 127.464,13.9056 127,14.5C 125.229,14.9198 123.396,14.9198 121.5,14.5C 123.102,12.9261 125.102,12.2594 127.5,12.5 Z"/></g>
<g><path style="opacity:0.812" fill="#656565" d="M 121.5,14.5 C 120.033,16.3627 118.033,17.696 115.5,18.5C 114.817,18.1373 114.15,17.8039 113.5,17.5C 115.792,15.7329 118.458,14.7329 121.5,14.5 Z"/></g>
<g><path style="opacity:0.745" fill="#5e5e5e" d="M 297.5,24.5 C 300.883,27.2887 302.55,30.9554 302.5,35.5C 300.283,32.225 298.616,28.5584 297.5,24.5 Z"/></g>
<g><path style="opacity:0.827" fill="#555555" d="M 102.5,24.5 C 101.588,26.5952 100.421,28.5952 99,30.5C 98.3405,33.678 97.5072,36.678 96.5,39.5C 96.1667,39.5 95.8333,39.5 95.5,39.5C 95.8572,35.737 96.6905,32.0704 98,28.5C 98.7475,26.249 100.248,24.9156 102.5,24.5 Z"/></g>
<g><path style="opacity:0.847" fill="#4b4b4b" d="M 302.5,35.5 C 303.434,36.5676 303.768,37.901 303.5,39.5C 302.624,39.6309 301.957,39.2975 301.5,38.5C 302.127,37.5832 302.461,36.5832 302.5,35.5 Z"/></g>
<g><path style="opacity:0.11" fill="#8b8b8b" d="M 200.5,43.5 C 199.5,42.1667 198.5,42.1667 197.5,43.5C 197.062,43.5654 196.728,43.3988 196.5,43C 199.277,39.6055 200.61,39.7722 200.5,43.5 Z"/></g>
<g><path style="opacity:0.141" fill="#636363" d="M 196.5,45.5 C 196.5,47.5 195.5,48.5 193.5,48.5C 193.685,46.8042 194.519,45.4709 196,44.5C 196.399,44.7284 196.565,45.0618 196.5,45.5 Z"/></g>
<g><path style="opacity:0.745" fill="#5f5f5f" d="M 231.5,54.5 C 221.866,53.5404 212.532,51.3738 203.5,48C 202.748,47.3292 202.414,46.4959 202.5,45.5C 202.435,45.0618 202.601,44.7284 203,44.5C 204.214,46.0488 205.714,47.2155 207.5,48C 214.586,49.8839 221.753,51.3839 229,52.5C 230.376,52.6842 231.209,53.3509 231.5,54.5 Z"/></g>
<g><path style="opacity:0.6" fill="#686868" d="M 193.5,48.5 C 192.158,49.793 190.491,50.6264 188.5,51C 182.5,52.3333 176.5,53.6667 170.5,55C 167.798,56.0121 165.465,57.5121 163.5,59.5C 163.626,56.405 165.293,54.5717 168.5,54C 176.465,52.209 184.298,50.0423 192,47.5C 192.383,48.056 192.883,48.3893 193.5,48.5 Z"/></g>
<g><path style="opacity:1" fill="#ececec" d="M 232.5,58.5 C 233.5,59.5 234.5,60.5 235.5,61.5C 233.939,64.7731 232.272,68.1064 230.5,71.5C 230.863,72.1835 231.196,72.8501 231.5,73.5C 231.371,75.2161 231.038,76.8828 230.5,78.5C 229.168,89.3128 228.501,100.479 228.5,112C 228.667,123.167 228.833,134.333 229,145.5C 249.758,146.577 270.592,147.244 291.5,147.5C 298.655,148.655 305.988,148.822 313.5,148C 315.544,147.502 316.878,146.335 317.5,144.5C 319.102,142.926 321.102,142.259 323.5,142.5C 324.669,147.325 326.002,151.991 327.5,156.5C 328.387,163.33 330.387,169.83 333.5,176C 332.971,177.559 332.304,179.059 331.5,180.5C 331.624,181.107 331.957,181.44 332.5,181.5C 332.5,181.833 332.5,182.167 332.5,182.5C 330.883,183.589 330.05,185.256 330,187.5C 329.501,191.821 329.334,196.154 329.5,200.5C 329.083,203.159 328.083,205.492 326.5,207.5C 323.176,204.436 319.176,202.603 314.5,202C 304.874,200.756 295.208,200.256 285.5,200.5C 266.348,199.173 247.014,198.506 227.5,198.5C 227.5,211.5 227.5,224.5 227.5,237.5C 226.576,256.334 226.576,275.334 227.5,294.5C 227.5,300.5 227.5,306.5 227.5,312.5C 226.169,319.636 225.503,327.136 225.5,335C 225.667,342.5 225.833,350 226,357.5C 226.236,359.119 227.069,360.119 228.5,360.5C 229.873,364.59 230.539,368.59 230.5,372.5C 228.958,373.301 227.292,373.634 225.5,373.5C 224.735,373.077 223.902,372.743 223,372.5C 216.559,373.613 210.393,375.28 204.5,377.5C 202.606,378.048 200.94,379.048 199.5,380.5C 195.91,377.344 191.91,376.01 187.5,376.5C 186.789,374.158 185.456,373.825 183.5,375.5C 181.05,375.702 178.717,375.369 176.5,374.5C 175.789,372.158 174.456,371.825 172.5,373.5C 171.041,373.567 169.708,373.234 168.5,372.5C 168.935,370.703 168.935,368.703 168.5,366.5C 170.497,363.84 171.997,360.84 173,357.5C 172.833,304.5 172.333,251.5 171.5,198.5C 161.442,197.86 151.775,198.527 142.5,200.5C 136.167,200.5 129.833,200.5 123.5,200.5C 110.462,200.173 97.462,200.673 84.5,202C 79.6948,202.767 75.3614,204.6 71.5,207.5C 70.8302,205.709 70.1635,204.042 69.5,202.5C 70.3564,193.131 68.6898,184.298 64.5,176C 66.5628,173.489 68.0628,170.656 69,167.5C 70.3333,162.167 71.6667,156.833 73,151.5C 73.598,148.692 74.7647,146.192 76.5,144C 79.4751,144.979 82.4751,146.312 85.5,148C 101.014,148.436 116.347,147.936 131.5,146.5C 144.413,146.822 157.246,146.489 170,145.5C 171.681,125.345 173.181,105.178 174.5,85C 174.49,80.771 173.823,76.9377 172.5,73.5C 170.992,71.8185 169.992,69.8185 169.5,67.5C 169.611,66.8826 169.944,66.3826 170.5,66C 169.468,64.3732 168.134,63.2066 166.5,62.5C 166.5,62.1667 166.5,61.8333 166.5,61.5C 170.111,59.7434 173.777,58.4101 177.5,57.5C 185.45,57.0141 192.784,54.6808 199.5,50.5C 210.031,55.7336 221.031,58.4003 232.5,58.5 Z M 199.5,113.5 C 199.171,126.677 199.505,139.677 200.5,152.5C 200.5,180.833 200.5,209.167 200.5,237.5C 199.503,256.993 199.17,276.66 199.5,296.5C 198.5,266.682 197.833,232.182 197.5,193C 197.679,164.465 198.345,137.965 199.5,113.5 Z M 228.5,167.5 C 254.181,167.694 279.848,168.361 305.5,169.5C 305.167,172.833 304.833,176.167 304.5,179.5C 279.203,177.986 253.87,177.319 228.5,177.5C 228.5,174.167 228.5,170.833 228.5,167.5 Z M 147.5,167.5 C 155.167,167.5 162.833,167.5 170.5,167.5C 170.5,170.833 170.5,174.167 170.5,177.5C 145.129,177.293 119.796,177.96 94.5,179.5C 94.1667,176.167 93.8333,172.833 93.5,169.5C 111.501,168.855 129.501,168.188 147.5,167.5 Z"/></g>
<g><path style="opacity:0.851" fill="#585858" d="M 232.5,58.5 C 221.031,58.4003 210.031,55.7336 199.5,50.5C 192.784,54.6808 185.45,57.0141 177.5,57.5C 176.167,57.5 174.833,57.5 173.5,57.5C 180.126,55.999 186.792,54.1657 193.5,52C 195.344,50.8179 197.177,49.6512 199,48.5C 202.227,49.8635 205.394,51.3635 208.5,53C 216.674,54.6644 224.674,56.4978 232.5,58.5 Z"/></g>
<g><path style="opacity:0.757" fill="#525252" d="M 231.5,54.5 C 237.092,53.7717 240.092,56.105 240.5,61.5C 238.448,57.971 235.448,55.6376 231.5,54.5 Z"/></g>
<g><path style="opacity:0.847" fill="#6a6a6a" d="M 95.5,39.5 C 95.8333,39.5 96.1667,39.5 96.5,39.5C 94.7938,49.3529 92.4605,58.3529 89.5,66.5C 91.0088,57.2774 93.0088,48.2774 95.5,39.5 Z"/></g>
<g><path style="opacity:0.725" fill="#6a6a6a" d="M 173.5,57.5 C 174.833,57.5 176.167,57.5 177.5,57.5C 173.777,58.4101 170.111,59.7434 166.5,61.5C 167.665,58.4098 169.998,57.0764 173.5,57.5 Z"/></g>
<g><path style="opacity:0.839" fill="#636363" d="M 303.5,39.5 C 307.658,55.2716 311.324,71.2716 314.5,87.5C 309.871,73.361 305.871,58.361 302.5,42.5C 303.127,41.5832 303.461,40.5832 303.5,39.5 Z"/></g>
<g><path style="opacity:0.06" fill="#111111" d="M 232.5,58.5 C 236.829,58.7932 238.163,60.7932 236.5,64.5C 236.737,63.209 236.404,62.209 235.5,61.5C 234.5,60.5 233.5,59.5 232.5,58.5 Z"/></g>
<g><path style="opacity:0.757" fill="#5f5f5f" d="M 166.5,62.5 C 168.134,63.2066 169.468,64.3732 170.5,66C 169.944,66.3826 169.611,66.8826 169.5,67.5C 168.11,66.1007 167.11,64.4341 166.5,62.5 Z"/></g>
<g><path style="opacity:0.259" fill="#222222" d="M 240.5,63.5 C 240.5,64.5 240.5,65.5 240.5,66.5C 239.833,66.5 239.167,66.5 238.5,66.5C 238.932,65.2905 239.599,64.2905 240.5,63.5 Z"/></g>
<g><path style="opacity:0.686" fill="#5e5e5e" d="M 235.5,61.5 C 236.404,62.209 236.737,63.209 236.5,64.5C 235.017,67.6312 233.35,70.6312 231.5,73.5C 231.196,72.8501 230.863,72.1835 230.5,71.5C 232.272,68.1064 233.939,64.7731 235.5,61.5 Z"/></g>
<g><path style="opacity:0.776" fill="#656565" d="M 163.5,64.5 C 166.582,68.3246 168.915,72.6579 170.5,77.5C 169.53,94.5059 168.197,111.506 166.5,128.5C 166.167,128.5 165.833,128.5 165.5,128.5C 166.4,113.666 167.4,98.8328 168.5,84C 169.361,78.0808 167.861,72.9142 164,68.5C 163.51,67.2068 163.343,65.8734 163.5,64.5 Z"/></g>
<g><path style="opacity:0.844" fill="#6b6b6b" d="M 238.5,66.5 C 239.167,66.5 239.833,66.5 240.5,66.5C 238.759,68.9774 237.259,71.6441 236,74.5C 234.917,96.1538 234.417,117.82 234.5,139.5C 233.566,138.432 233.232,137.099 233.5,135.5C 233.333,115.497 233.5,95.4972 234,75.5C 234.986,72.1943 236.486,69.1943 238.5,66.5 Z"/></g>
<g><path style="opacity:0.812" fill="#656565" d="M 83.5,89.5 C 85.129,91.1959 84.7957,92.1959 82.5,92.5C 82.2627,91.209 82.596,90.209 83.5,89.5 Z"/></g>
<g><path style="opacity:0.776" fill="#5a5a5a" d="M 82.5,93.5 C 82.4142,94.4959 82.7476,95.3292 83.5,96C 82.9056,96.4643 82.2389,96.631 81.5,96.5C 81.2627,95.209 81.596,94.209 82.5,93.5 Z"/></g>
<g><path style="opacity:0.851" fill="#494949" d="M 81.5,97.5 C 81.33,98.8221 81.6634,99.9887 82.5,101C 81.9056,101.464 81.2389,101.631 80.5,101.5C 80.2322,99.901 80.5655,98.5676 81.5,97.5 Z"/></g>
<g><path style="opacity:0.561" fill="#a5a5a5" d="M 198.5,87.5 C 199.812,89.7432 200.478,92.4098 200.5,95.5C 200.167,98.1667 199.833,100.833 199.5,103.5C 198.505,98.2079 198.172,92.8746 198.5,87.5 Z"/></g>
<g><path style="opacity:0.773" fill="#5a5a5a" d="M 172.5,73.5 C 173.823,76.9377 174.49,80.771 174.5,85C 173.181,105.178 171.681,125.345 170,145.5C 157.246,146.489 144.413,146.822 131.5,146.5C 126.833,146.5 122.167,146.5 117.5,146.5C 134.658,145.386 151.992,144.72 169.5,144.5C 170.681,120.841 171.681,97.1739 172.5,73.5 Z"/></g>
<g><path style="opacity:0.788" fill="#626262" d="M 80.5,101.5 C 81.1221,105.125 80.7888,108.792 79.5,112.5C 79.2528,113.713 78.5862,114.38 77.5,114.5C 77.8816,109.908 78.8816,105.575 80.5,101.5 Z"/></g>
<g><path style="opacity:0.141" fill="#5e5e5e" d="M 319.5,106.5 C 320.434,107.568 320.768,108.901 320.5,110.5C 318.158,109.789 317.825,108.456 319.5,106.5 Z"/></g>
<g><path style="opacity:0.161" fill="#494949" d="M 320.5,110.5 C 321.434,111.568 321.768,112.901 321.5,114.5C 320.761,114.631 320.094,114.464 319.5,114C 320.337,112.989 320.67,111.822 320.5,110.5 Z"/></g>
<g><path style="opacity:0.827" fill="#545454" d="M 77.5,115.5 C 79.129,117.196 78.7957,118.196 76.5,118.5C 76.2627,117.209 76.596,116.209 77.5,115.5 Z"/></g>
<g><path style="opacity:0.796" fill="#5d5d5d" d="M 321.5,115.5 C 322.404,116.209 322.737,117.209 322.5,118.5C 320.204,118.196 319.871,117.196 321.5,115.5 Z"/></g>
<g><path style="opacity:0.765" fill="#595959" d="M 322.5,119.5 C 323.434,120.568 323.768,121.901 323.5,123.5C 321.158,122.789 320.825,121.456 322.5,119.5 Z"/></g>
<g><path style="opacity:0.788" fill="#636363" d="M 76.5,119.5 C 76.8039,120.15 77.1373,120.817 77.5,121.5C 77.229,124.047 76.229,126.047 74.5,127.5C 74.5651,124.572 75.2318,121.905 76.5,119.5 Z"/></g>
<g><path style="opacity:0.839" fill="#4f4f4f" d="M 323.5,123.5 C 324.434,124.568 324.768,125.901 324.5,127.5C 323.624,127.631 322.957,127.298 322.5,126.5C 323.127,125.583 323.461,124.583 323.5,123.5 Z"/></g>
<g><path style="opacity:0.603" fill="#5e5e5e" d="M 230.5,78.5 C 230.766,100.519 230.433,122.519 229.5,144.5C 254.35,144.859 279.016,145.859 303.5,147.5C 299.5,147.5 295.5,147.5 291.5,147.5C 270.592,147.244 249.758,146.577 229,145.5C 228.833,134.333 228.667,123.167 228.5,112C 228.501,100.479 229.168,89.3128 230.5,78.5 Z"/></g>
<g><path style="opacity:0.124" fill="#080808" d="M 165.5,128.5 C 165.833,128.5 166.167,128.5 166.5,128.5C 166.5,132.833 166.5,137.167 166.5,141.5C 165.167,141.5 163.833,141.5 162.5,141.5C 163.167,140.833 163.833,140.167 164.5,139.5C 165.482,136.038 165.815,132.371 165.5,128.5 Z"/></g>
<g><path style="opacity:0.827" fill="#464646" d="M 73.5,132.5 C 73.6377,134.896 73.971,137.229 74.5,139.5C 73.791,140.404 72.791,140.737 71.5,140.5C 71.5651,137.572 72.2318,134.905 73.5,132.5 Z"/></g>
<g><path style="opacity:0.788" fill="#636363" d="M 324.5,127.5 C 325.657,130.273 326.324,133.273 326.5,136.5C 324.063,133.99 323.396,130.99 324.5,127.5 Z"/></g>
<g><path style="opacity:0.04" fill="#040404" d="M 233.5,135.5 C 233.232,137.099 233.566,138.432 234.5,139.5C 235.167,140.167 235.833,140.833 236.5,141.5C 235.167,141.5 233.833,141.5 232.5,141.5C 232.205,139.265 232.539,137.265 233.5,135.5 Z"/></g>
<g><path style="opacity:0.053" fill="#090909" d="M 326.5,137.5 C 327.404,138.209 327.737,139.209 327.5,140.5C 326.209,140.737 325.209,140.404 324.5,139.5C 325.167,139.5 325.5,139.167 325.5,138.5C 326.167,138.5 326.5,138.167 326.5,137.5 Z"/></g>
<g><path style="opacity:0.169" fill="#444444" d="M 83.5,142.5 C 82.5,142.167 81.8333,141.5 81.5,140.5C 83.2027,139.34 83.8693,140.007 83.5,142.5 Z"/></g>
<g><path style="opacity:0.516" fill="#747474" d="M 164.5,139.5 C 163.833,140.167 163.167,140.833 162.5,141.5C 138.984,142.124 115.484,143.124 92,144.5C 89.4563,144.664 87.2897,143.997 85.5,142.5C 111.602,141.538 137.935,140.538 164.5,139.5 Z"/></g>
<g><path style="opacity:0.525" fill="#878787" d="M 234.5,139.5 C 251.143,140.314 267.81,140.981 284.5,141.5C 283.432,142.434 282.099,142.768 280.5,142.5C 265.822,142.553 251.155,142.22 236.5,141.5C 235.833,140.833 235.167,140.167 234.5,139.5 Z"/></g>
<g><path style="opacity:0.649" fill="#606060" d="M 325.5,138.5 C 325.5,139.167 325.167,139.5 324.5,139.5C 319.785,139.671 315.452,141.171 311.5,144C 301.001,144.099 290.667,143.599 280.5,142.5C 282.099,142.768 283.432,142.434 284.5,141.5C 293.501,142.048 302.501,142.215 311.5,142C 313.996,140.92 316.33,139.586 318.5,138C 320.929,137.297 323.262,137.463 325.5,138.5 Z"/></g>
<g><path style="opacity:0.5" fill="#747474" d="M 199.5,113.5 C 200.829,119.128 201.496,125.128 201.5,131.5C 201.444,138.533 201.111,145.533 200.5,152.5C 199.505,139.677 199.171,126.677 199.5,113.5 Z"/></g>
<g><path style="opacity:0.673" fill="#848484" d="M 317.5,144.5 C 316.878,146.335 315.544,147.502 313.5,148C 305.988,148.822 298.655,148.655 291.5,147.5C 295.5,147.5 299.5,147.5 303.5,147.5C 308.452,147.736 313.119,146.736 317.5,144.5 Z"/></g>
<g><path style="opacity:0.765" fill="#666666" d="M 117.5,146.5 C 122.167,146.5 126.833,146.5 131.5,146.5C 116.347,147.936 101.014,148.436 85.5,148C 82.4751,146.312 79.4751,144.979 76.5,144C 74.7647,146.192 73.598,148.692 73,151.5C 71.6667,156.833 70.3333,162.167 69,167.5C 68.0628,170.656 66.5628,173.489 64.5,176C 68.6898,184.298 70.3564,193.131 69.5,202.5C 69.5,203.833 69.5,205.167 69.5,206.5C 68.5088,199.669 67.6754,192.669 67,185.5C 66.257,182.18 65.0903,179.013 63.5,176C 65.1377,172.558 66.6377,169.058 68,165.5C 69.3786,157.985 71.3786,150.651 74,143.5C 75.7261,142.424 77.5594,142.257 79.5,143C 83.2846,145.484 87.4513,146.984 92,147.5C 100.475,146.607 108.975,146.274 117.5,146.5 Z"/></g>
<g><path style="opacity:0.698" fill="#5c5c5c" d="M 323.5,142.5 C 326.181,145.192 327.514,148.525 327.5,152.5C 327.5,153.833 327.5,155.167 327.5,156.5C 326.002,151.991 324.669,147.325 323.5,142.5 Z"/></g>
<g><path style="opacity:0.871" fill="#555555" d="M 327.5,152.5 C 329.149,160.559 331.816,168.392 335.5,176C 334.86,178.12 333.86,179.954 332.5,181.5C 331.957,181.44 331.624,181.107 331.5,180.5C 332.304,179.059 332.971,177.559 333.5,176C 330.387,169.83 328.387,163.33 327.5,156.5C 327.5,155.167 327.5,153.833 327.5,152.5 Z"/></g>
<g><path style="opacity:0.7" fill="#606060" d="M 227.5,165.5 C 253.836,166.086 280.169,166.753 306.5,167.5C 306.5,171.833 306.5,176.167 306.5,180.5C 279.829,179.995 253.162,179.329 226.5,178.5C 226.231,174.069 226.564,169.735 227.5,165.5 Z M 228.5,167.5 C 228.5,170.833 228.5,174.167 228.5,177.5C 253.87,177.319 279.203,177.986 304.5,179.5C 304.833,176.167 305.167,172.833 305.5,169.5C 279.848,168.361 254.181,167.694 228.5,167.5 Z"/></g>
<g><path style="opacity:0.702" fill="#6b6b6b" d="M 171.5,166.5 C 172.483,170.298 172.817,174.298 172.5,178.5C 145.838,179.307 119.171,179.974 92.5,180.5C 92.5,176.167 92.5,171.833 92.5,167.5C 114.67,167.005 136.837,166.338 159,165.5C 163.347,165.501 167.514,165.834 171.5,166.5 Z M 147.5,167.5 C 155.167,167.5 162.833,167.5 170.5,167.5C 170.5,170.833 170.5,174.167 170.5,177.5C 145.129,177.293 119.796,177.96 94.5,179.5C 94.1667,176.167 93.8333,172.833 93.5,169.5C 111.501,168.855 129.501,168.188 147.5,167.5 Z"/></g>
<g><path style="opacity:0.133" fill="#020202" d="M 147.5,167.5 C 155.316,166.508 163.316,166.174 171.5,166.5C 171.815,170.371 171.482,174.038 170.5,177.5C 170.5,174.167 170.5,170.833 170.5,167.5C 162.833,167.5 155.167,167.5 147.5,167.5 Z"/></g>
<g><path style="opacity:0.69" fill="#555555" d="M 332.5,182.5 C 331.494,190.635 330.494,198.635 329.5,206.5C 329.5,204.5 329.5,202.5 329.5,200.5C 329.334,196.154 329.501,191.821 330,187.5C 330.05,185.256 330.883,183.589 332.5,182.5 Z"/></g>
<g><path style="opacity:0.702" fill="#828282" d="M 285.5,201.5 C 285.5,201.167 285.5,200.833 285.5,200.5C 295.208,200.256 304.874,200.756 314.5,202C 319.176,202.603 323.176,204.436 326.5,207.5C 325.833,207.5 325.167,207.5 324.5,207.5C 321.285,205.144 317.619,203.644 313.5,203C 304.181,202.168 294.848,201.668 285.5,201.5 Z"/></g>
<g><path style="opacity:0.106" fill="#717171" d="M 123.5,200.5 C 110.994,201.386 98.3274,202.219 85.5,203C 79.6996,204.413 74.3663,206.579 69.5,209.5C 69.5,208.5 69.5,207.5 69.5,206.5C 69.5,205.167 69.5,203.833 69.5,202.5C 70.1635,204.042 70.8302,205.709 71.5,207.5C 75.3614,204.6 79.6948,202.767 84.5,202C 97.462,200.673 110.462,200.173 123.5,200.5 Z"/></g>
<g><path style="opacity:0.801" fill="#5d5d5d" d="M 122.5,204.5 C 131.318,203.507 140.318,203.173 149.5,203.5C 145.724,204.825 141.557,205.491 137,205.5C 132.118,205.446 127.285,205.112 122.5,204.5 Z"/></g>
<g><path style="opacity:1" fill="#ececec" d="M 149.5,203.5 C 153.833,203.5 158.167,203.5 162.5,203.5C 163.5,203.5 164.5,203.5 165.5,203.5C 165.17,223.34 165.503,243.007 166.5,262.5C 166.365,294.507 166.698,326.507 167.5,358.5C 167.34,360.153 166.674,361.486 165.5,362.5C 163.824,363.183 163.157,364.517 163.5,366.5C 162.114,369.393 162.448,372.226 164.5,375C 169.489,377.747 174.822,379.247 180.5,379.5C 184.377,380.641 188.377,381.808 192.5,383C 194.743,385.488 196.743,388.154 198.5,391C 200.635,391.605 200.969,391.105 199.5,389.5C 199.5,389.167 199.5,388.833 199.5,388.5C 202.101,387.72 204.101,386.054 205.5,383.5C 210.233,382.261 214.566,380.594 218.5,378.5C 218.833,378.5 219.167,378.5 219.5,378.5C 227.965,379.75 233.965,376.583 237.5,369C 235.546,364.922 233.713,360.756 232,356.5C 231.5,344.505 231.333,332.505 231.5,320.5C 232.612,281.67 233.279,242.67 233.5,203.5C 234.5,203.5 235.5,203.5 236.5,203.5C 240.833,203.5 245.167,203.5 249.5,203.5C 253.107,204.824 257.107,205.491 261.5,205.5C 266.215,205.443 270.882,205.11 275.5,204.5C 277.833,204.5 280.167,204.5 282.5,204.5C 290.954,206.272 299.787,207.272 309,207.5C 310.878,207.304 312.712,206.971 314.5,206.5C 314.833,206.5 315.167,206.5 315.5,206.5C 314.496,208.677 315.162,209.011 317.5,207.5C 319.167,208.167 320.833,208.833 322.5,209.5C 322.36,211.124 323.027,212.29 324.5,213C 327.039,213.796 329.372,213.629 331.5,212.5C 332.391,211.89 333.391,211.557 334.5,211.5C 334.5,215.5 334.5,219.5 334.5,223.5C 333.173,227.783 332.507,232.449 332.5,237.5C 331.143,270.491 330.143,303.491 329.5,336.5C 328.833,345.675 328.167,355.009 327.5,364.5C 324.653,365.234 322.653,366.234 321.5,367.5C 314.552,370.718 307.218,373.051 299.5,374.5C 298.504,374.586 297.671,374.252 297,373.5C 293.577,374.731 290.077,375.731 286.5,376.5C 283.895,376.621 281.895,377.621 280.5,379.5C 278.095,380.768 275.428,381.435 272.5,381.5C 260.999,382.874 249.666,385.207 238.5,388.5C 237.287,388.747 236.62,389.414 236.5,390.5C 231.473,391.372 226.473,392.372 221.5,393.5C 221.265,392.903 220.765,392.57 220,392.5C 217.031,393.294 214.031,393.961 211,394.5C 209.624,394.684 208.791,395.351 208.5,396.5C 203.995,398.33 199.329,398.664 194.5,397.5C 193.789,395.158 192.456,394.825 190.5,396.5C 182.02,394.741 173.687,392.741 165.5,390.5C 145.197,384.828 124.197,379.161 102.5,373.5C 101.583,374.127 100.583,374.461 99.5,374.5C 98.9473,372.448 97.9473,372.115 96.5,373.5C 89.9663,371.876 83.633,369.876 77.5,367.5C 76.3467,366.234 74.3467,365.234 71.5,364.5C 70.8333,356.343 70.1666,348.343 69.5,340.5C 68.9053,305.079 67.5719,270.412 65.5,236.5C 64.5073,228.35 64.1739,220.017 64.5,211.5C 64.8333,211.5 65.1667,211.5 65.5,211.5C 70.1625,214.431 74.4959,213.931 78.5,210C 78.2716,209.601 77.9382,209.435 77.5,209.5C 78.6715,208.655 80.0048,207.989 81.5,207.5C 83.8375,209.011 84.5042,208.677 83.5,206.5C 83.8333,206.5 84.1667,206.5 84.5,206.5C 87.9271,208.177 90.9271,207.844 93.5,205.5C 95.1667,205.5 96.8333,205.5 98.5,205.5C 101.783,206.081 105.116,206.414 108.5,206.5C 111.59,206.478 114.257,205.812 116.5,204.5C 118.5,204.5 120.5,204.5 122.5,204.5C 127.285,205.112 132.118,205.446 137,205.5C 141.557,205.491 145.724,204.825 149.5,203.5 Z M 102.5,250.5 C 104.647,251.932 104.98,253.765 103.5,256C 102.551,256.617 101.718,256.451 101,255.5C 100.51,254.207 100.343,252.873 100.5,251.5C 101.492,251.672 102.158,251.338 102.5,250.5 Z M 138.5,255.5 C 136.178,256.897 134.511,256.23 133.5,253.5C 136.27,249.696 137.936,250.362 138.5,255.5 Z M 262.5,250.5 C 265.167,252.5 265.167,254.5 262.5,256.5C 262.158,255.662 261.492,255.328 260.5,255.5C 260.5,254.5 260.5,253.5 260.5,252.5C 261.167,251.833 261.833,251.167 262.5,250.5 Z M 298.5,255.5 C 297.504,255.414 296.671,255.748 296,256.5C 295.292,255.619 294.458,254.953 293.5,254.5C 293.685,252.804 294.519,251.471 296,250.5C 297.892,251.617 298.725,253.284 298.5,255.5 Z M 280.5,264.5 C 281.833,265.833 281.833,267.167 280.5,268.5C 276.5,267.167 276.5,265.833 280.5,264.5 Z M 118.5,264.5 C 119.609,264.557 120.609,264.89 121.5,265.5C 121.306,267.912 119.973,268.912 117.5,268.5C 117.232,266.901 117.566,265.568 118.5,264.5 Z M 295.5,280.5 C 295.833,280.5 296.167,280.5 296.5,280.5C 296.842,281.338 297.508,281.672 298.5,281.5C 298.567,282.959 298.234,284.292 297.5,285.5C 293.26,285.107 292.593,283.441 295.5,280.5 Z M 133.5,283.5 C 133.5,283.167 133.5,282.833 133.5,282.5C 135.551,280.962 137.218,281.296 138.5,283.5C 136.828,286.161 135.161,286.161 133.5,283.5 Z M 261.5,281.5 C 262.5,281.5 263.5,281.5 264.5,281.5C 264.912,283.973 263.912,285.306 261.5,285.5C 261.5,284.833 261.167,284.5 260.5,284.5C 260.557,283.391 260.89,282.391 261.5,281.5 Z M 100.5,281.5 C 101.833,281.5 103.167,281.5 104.5,281.5C 104.778,283.346 104.111,284.68 102.5,285.5C 100.889,284.68 100.222,283.346 100.5,281.5 Z M 118.5,293.5 C 121.959,294.543 122.292,296.21 119.5,298.5C 119.167,298.5 118.833,298.5 118.5,298.5C 118.5,297.833 118.167,297.5 117.5,297.5C 117.433,296.041 117.766,294.708 118.5,293.5 Z M 280.5,298.5 C 280.167,298.5 279.833,298.5 279.5,298.5C 276.839,296.839 276.839,295.172 279.5,293.5C 281.704,294.782 282.038,296.449 280.5,298.5 Z M 138.5,313.5 C 137.292,314.234 135.959,314.567 134.5,314.5C 134.5,313.5 134.5,312.5 134.5,311.5C 136.709,310.024 138.042,310.691 138.5,313.5 Z M 264.5,311.5 C 264.5,312.5 264.5,313.5 264.5,314.5C 262.62,314.771 261.287,314.104 260.5,312.5C 261.538,310.481 262.872,310.147 264.5,311.5 Z M 294.5,310.5 C 297.5,310.167 298.833,311.5 298.5,314.5C 297.167,314.5 295.833,314.5 294.5,314.5C 293.167,313.167 293.167,311.833 294.5,310.5 Z M 101.5,310.5 C 103.912,310.694 104.912,312.027 104.5,314.5C 103.167,314.5 101.833,314.5 100.5,314.5C 100.433,313.041 100.766,311.708 101.5,310.5 Z M 119.5,322.5 C 119.842,323.338 120.508,323.672 121.5,323.5C 121.716,328.727 120.049,329.56 116.5,326C 117.163,324.482 118.163,323.315 119.5,322.5 Z M 277.5,323.5 C 278.833,323.5 280.167,323.5 281.5,323.5C 281.884,325.665 281.217,327.332 279.5,328.5C 277.783,327.332 277.116,325.665 277.5,323.5 Z M 136.5,344.5 C 135.5,343.833 134.5,343.167 133.5,342.5C 133.5,342.167 133.5,341.833 133.5,341.5C 135.585,338.76 137.252,338.927 138.5,342C 137.944,343.011 137.278,343.844 136.5,344.5 Z M 263.5,339.5 C 264.833,341.167 264.833,342.833 263.5,344.5C 261.748,344.582 260.748,343.749 260.5,342C 260.748,340.251 261.748,339.418 263.5,339.5 Z"/></g>
<g><path style="opacity:0.631" fill="#646464" d="M 249.5,203.5 C 258.349,203.174 267.016,203.507 275.5,204.5C 270.882,205.11 266.215,205.443 261.5,205.5C 257.107,205.491 253.107,204.824 249.5,203.5 Z"/></g>
<g><path style="opacity:0.769" fill="#888888" d="M 329.5,200.5 C 329.5,202.5 329.5,204.5 329.5,206.5C 329.5,207.167 329.5,207.833 329.5,208.5C 328.209,208.737 327.209,208.404 326.5,207.5C 328.083,205.492 329.083,203.159 329.5,200.5 Z"/></g>
<g><path style="opacity:0.179" fill="#020202" d="M 67.5,210.5 C 66.5084,210.328 65.8417,210.662 65.5,211.5C 65.1667,211.5 64.8333,211.5 64.5,211.5C 64.7394,209.533 64.4061,207.699 63.5,206C 64.448,205.517 65.448,205.351 66.5,205.5C 66.366,207.292 66.6993,208.958 67.5,210.5 Z"/></g>
<g><path style="opacity:0.841" fill="#5b5b5b" d="M 98.5,205.5 C 104.31,204.51 110.31,204.177 116.5,204.5C 114.257,205.812 111.59,206.478 108.5,206.5C 105.116,206.414 101.783,206.081 98.5,205.5 Z"/></g>
<g><path style="opacity:0.488" fill="#6d6d6d" d="M 282.5,204.5 C 293.368,204.362 304.035,205.029 314.5,206.5C 312.712,206.971 310.878,207.304 309,207.5C 299.787,207.272 290.954,206.272 282.5,204.5 Z"/></g>
<g><path style="opacity:0.186" fill="#161616" d="M 334.5,211.5 C 333.391,211.557 332.391,211.89 331.5,212.5C 330.833,212.5 330.167,212.5 329.5,212.5C 331.85,210.787 332.85,208.453 332.5,205.5C 333.552,205.351 334.552,205.517 335.5,206C 334.594,207.699 334.261,209.533 334.5,211.5 Z"/></g>
<g><path style="opacity:0.875" fill="#5a5a5a" d="M 84.5,206.5 C 87.2869,205.523 90.2869,205.19 93.5,205.5C 90.9271,207.844 87.9271,208.177 84.5,206.5 Z"/></g>
<g><path style="opacity:0.867" fill="#565656" d="M 81.5,207.5 C 81.8417,206.662 82.5084,206.328 83.5,206.5C 84.5042,208.677 83.8375,209.011 81.5,207.5 Z"/></g>
<g><path style="opacity:0.686" fill="#5f5f5f" d="M 315.5,206.5 C 316.492,206.328 317.158,206.662 317.5,207.5C 315.162,209.011 314.496,208.677 315.5,206.5 Z"/></g>
<g><path style="opacity:0.019" fill="#121212" d="M 324.5,207.5 C 325.167,207.5 325.833,207.5 326.5,207.5C 327.209,208.404 328.209,208.737 329.5,208.5C 327.545,209.93 325.879,209.597 324.5,207.5 Z"/></g>
<g><path style="opacity:0.804" fill="#828282" d="M 77.5,209.5 C 77.9382,209.435 78.2716,209.601 78.5,210C 74.4959,213.931 70.1625,214.431 65.5,211.5C 65.8417,210.662 66.5084,210.328 67.5,210.5C 68.4961,211.665 69.8295,212.332 71.5,212.5C 73.5107,211.481 75.5107,210.481 77.5,209.5 Z"/></g>
<g><path style="opacity:0.573" fill="#979797" d="M 322.5,209.5 C 324.213,211.85 326.547,212.85 329.5,212.5C 330.167,212.5 330.833,212.5 331.5,212.5C 329.372,213.629 327.039,213.796 324.5,213C 323.027,212.29 322.36,211.124 322.5,209.5 Z"/></g>
<g><path style="opacity:0.529" fill="#787878" d="M 285.5,200.5 C 285.5,200.833 285.5,201.167 285.5,201.5C 266.829,200.885 248.162,200.218 229.5,199.5C 229.167,212.167 228.833,224.833 228.5,237.5C 228.167,237.5 227.833,237.5 227.5,237.5C 227.5,224.5 227.5,211.5 227.5,198.5C 247.014,198.506 266.348,199.173 285.5,200.5 Z"/></g>
<g><path style="opacity:0.842" fill="#575757" d="M 236.5,203.5 C 235.5,203.5 234.5,203.5 233.5,203.5C 233.279,242.67 232.612,281.67 231.5,320.5C 231.167,320.5 230.833,320.5 230.5,320.5C 231.044,281.162 231.711,241.829 232.5,202.5C 234.099,202.232 235.432,202.566 236.5,203.5 Z"/></g>
<g><path style="opacity:0.84" fill="#535353" d="M 334.5,223.5 C 333.104,267.668 331.437,311.668 329.5,355.5C 329.5,349.167 329.5,342.833 329.5,336.5C 330.143,303.491 331.143,270.491 332.5,237.5C 332.507,232.449 333.173,227.783 334.5,223.5 Z"/></g>
<g><path style="opacity:0.8" fill="#595959" d="M 162.5,203.5 C 163.568,202.566 164.901,202.232 166.5,202.5C 167.297,222.489 167.63,242.489 167.5,262.5C 167.167,262.5 166.833,262.5 166.5,262.5C 165.503,243.007 165.17,223.34 165.5,203.5C 164.5,203.5 163.5,203.5 162.5,203.5 Z"/></g>
<g><path style="opacity:0.11" fill="#8b8b8b" d="M 138.5,255.5 C 137.936,250.362 136.27,249.696 133.5,253.5C 132.878,250.629 134.212,249.463 137.5,250C 140.572,251.627 141.072,253.793 139,256.5C 138.601,256.272 138.435,255.938 138.5,255.5 Z"/></g>
<g><path style="opacity:0.576" fill="#a7a7a7" d="M 298.5,255.5 C 298.725,253.284 297.892,251.617 296,250.5C 294.519,251.471 293.685,252.804 293.5,254.5C 292.388,254.514 292.221,253.514 293,251.5C 296.252,248.745 298.752,249.411 300.5,253.5C 300,254.5 299.5,255.5 299,256.5C 298.601,256.272 298.435,255.938 298.5,255.5 Z"/></g>
<g><path style="opacity:0.8" fill="#626262" d="M 260.5,252.5 C 260.5,253.5 260.5,254.5 260.5,255.5C 257.833,254.5 257.833,253.5 260.5,252.5 Z"/></g>
<g><path style="opacity:0.766" fill="#545454" d="M 227.5,237.5 C 227.833,237.5 228.167,237.5 228.5,237.5C 228.83,256.674 228.497,275.674 227.5,294.5C 226.576,275.334 226.576,256.334 227.5,237.5 Z"/></g>
<g><path style="opacity:0.678" fill="#8e8e8e" d="M 262.5,256.5 C 265.167,254.5 265.167,252.5 262.5,250.5C 261.983,249.463 262.649,249.297 264.5,250C 267.167,252.333 267.167,254.667 264.5,257C 262.649,257.703 261.983,257.537 262.5,256.5 Z"/></g>
<g><path style="opacity:0.725" fill="#757575" d="M 100.5,251.5 C 100.343,252.873 100.51,254.207 101,255.5C 101.718,256.451 102.551,256.617 103.5,256C 104.98,253.765 104.647,251.932 102.5,250.5C 101.255,250.031 101.421,249.697 103,249.5C 106.911,251.313 107.411,253.813 104.5,257C 99.7328,257.664 98.3995,255.831 100.5,251.5 Z"/></g>
<g><path style="opacity:0.255" fill="#3b3b3b" d="M 277.5,263.5 C 278.791,263.263 279.791,263.596 280.5,264.5C 276.5,265.833 276.5,267.167 280.5,268.5C 279.791,269.404 278.791,269.737 277.5,269.5C 274.833,267.5 274.833,265.5 277.5,263.5 Z"/></g>
<g><path style="opacity:0.804" fill="#686868" d="M 69.5,340.5 C 69.5,345.5 69.5,350.5 69.5,355.5C 67.5282,316.013 66.1948,276.346 65.5,236.5C 67.5719,270.412 68.9053,305.079 69.5,340.5 Z"/></g>
<g><path style="opacity:0.686" fill="#656565" d="M 121.5,263.5 C 123.561,264.751 123.894,266.418 122.5,268.5C 117.725,271.568 115.558,270.234 116,264.5C 117.678,262.447 119.511,262.113 121.5,263.5 Z M 118.5,264.5 C 119.609,264.557 120.609,264.89 121.5,265.5C 121.306,267.912 119.973,268.912 117.5,268.5C 117.232,266.901 117.566,265.568 118.5,264.5 Z"/></g>
<g><path style="opacity:0.076" fill="#111111" d="M 118.5,264.5 C 119.209,263.596 120.209,263.263 121.5,263.5C 121.5,264.167 121.5,264.833 121.5,265.5C 120.609,264.89 119.609,264.557 118.5,264.5 Z"/></g>
<g><path style="opacity:0.8" fill="#777777" d="M 277.5,263.5 C 280.639,261.806 282.639,262.806 283.5,266.5C 282.639,270.194 280.639,271.194 277.5,269.5C 278.791,269.737 279.791,269.404 280.5,268.5C 281.833,267.167 281.833,265.833 280.5,264.5C 279.791,263.596 278.791,263.263 277.5,263.5 Z"/></g>
<g><path style="opacity:0.701" fill="#5e5e5e" d="M 168.5,366.5 C 168.5,365.833 168.5,365.167 168.5,364.5C 169.32,362.188 170.153,359.854 171,357.5C 171.198,304.828 170.698,252.161 169.5,199.5C 160.521,200.266 151.521,200.599 142.5,200.5C 151.775,198.527 161.442,197.86 171.5,198.5C 172.333,251.5 172.833,304.5 173,357.5C 171.997,360.84 170.497,363.84 168.5,366.5 Z"/></g>
<g><path style="opacity:0.82" fill="#3e3e3e" d="M 261.5,281.5 C 262.946,280.387 264.613,280.22 266.5,281C 265.167,282.333 265.167,283.667 266.5,285C 264.694,287.818 263.028,287.984 261.5,285.5C 263.912,285.306 264.912,283.973 264.5,281.5C 263.5,281.5 262.5,281.5 261.5,281.5 Z"/></g>
<g><path style="opacity:0.141" fill="#6b6b6b" d="M 298.5,281.5 C 297.508,281.672 296.842,281.338 296.5,280.5C 297.648,279.105 298.648,279.272 299.5,281C 299.272,281.399 298.938,281.565 298.5,281.5 Z"/></g>
<g><path style="opacity:0.361" fill="#4f4f4f" d="M 133.5,283.5 C 135.161,286.161 136.828,286.161 138.5,283.5C 137.218,281.296 135.551,280.962 133.5,282.5C 132.105,281.352 132.272,280.352 134,279.5C 135.333,280.833 136.667,280.833 138,279.5C 141.499,283.026 140.832,285.692 136,287.5C 133.442,286.849 132.609,285.515 133.5,283.5 Z"/></g>
<g><path style="opacity:0.004" fill="#1d1d1d" d="M 261.5,281.5 C 260.89,282.391 260.557,283.391 260.5,284.5C 259.115,283.053 259.448,282.053 261.5,281.5 Z"/></g>
<g><path style="opacity:0.122" fill="#7d7d7d" d="M 295.5,280.5 C 292.593,283.441 293.26,285.107 297.5,285.5C 296.304,287.981 294.804,287.981 293,285.5C 292.333,283.833 292.333,282.167 293,280.5C 293.77,279.402 294.603,279.402 295.5,280.5 Z"/></g>
<g><path style="opacity:0.886" fill="#5d5d5d" d="M 100.5,279.5 C 102.01,280.728 103.51,280.728 105,279.5C 105.5,280 106,280.5 106.5,281C 105.897,282.825 105.23,284.659 104.5,286.5C 101.295,287.725 99.2949,286.558 98.5,283C 98.9783,281.697 99.645,280.531 100.5,279.5 Z M 100.5,281.5 C 100.222,283.346 100.889,284.68 102.5,285.5C 104.111,284.68 104.778,283.346 104.5,281.5C 103.167,281.5 101.833,281.5 100.5,281.5 Z"/></g>
<g><path style="opacity:0.838" fill="#555555" d="M 200.5,237.5 C 200.688,251.169 201.022,264.835 201.5,278.5C 201.496,284.872 200.829,290.872 199.5,296.5C 199.17,276.66 199.503,256.993 200.5,237.5 Z"/></g>
<g><path style="opacity:0.745" fill="#737373" d="M 119.5,298.5 C 122.292,296.21 121.959,294.543 118.5,293.5C 118.369,292.761 118.536,292.094 119,291.5C 122.537,292.643 123.704,294.809 122.5,298C 121.552,298.483 120.552,298.649 119.5,298.5 Z"/></g>
<g><path style="opacity:0.718" fill="#5e5e5e" d="M 280.5,298.5 C 282.038,296.449 281.704,294.782 279.5,293.5C 276.839,295.172 276.839,296.839 279.5,298.5C 277.203,299.754 275.87,298.92 275.5,296C 276.914,291.533 279.414,290.7 283,293.5C 283.494,295.134 283.66,296.801 283.5,298.5C 282.5,298.5 281.5,298.5 280.5,298.5 Z M 280.5,298.5 C 280.167,298.5 279.833,298.5 279.5,298.5C 276.839,296.839 276.839,295.172 279.5,293.5C 281.704,294.782 282.038,296.449 280.5,298.5 Z"/></g>
<g><path style="opacity:0.765" fill="#6b6b6b" d="M 166.5,262.5 C 166.833,262.5 167.167,262.5 167.5,262.5C 168.535,294.665 168.535,326.665 167.5,358.5C 166.698,326.507 166.365,294.507 166.5,262.5 Z"/></g>
<g><path style="opacity:0.027" fill="#090909" d="M 116.5,293.5 C 117.167,293.5 117.833,293.5 118.5,293.5C 117.766,294.708 117.433,296.041 117.5,297.5C 116.566,296.432 116.232,295.099 116.5,293.5 Z"/></g>
<g><path style="opacity:0.667" fill="#858585" d="M 116.5,293.5 C 116.232,295.099 116.566,296.432 117.5,297.5C 118.167,297.5 118.5,297.833 118.5,298.5C 117.603,299.598 116.77,299.598 116,298.5C 115.22,296.613 115.387,294.946 116.5,293.5 Z"/></g>
<g><path style="opacity:0.871" fill="#6f6f6f" d="M 138.5,315.5 C 138.5,314.833 138.5,314.167 138.5,313.5C 138.042,310.691 136.709,310.024 134.5,311.5C 134.167,311.5 133.833,311.5 133.5,311.5C 132.668,310.671 133.001,309.838 134.5,309C 137.496,308.334 139.496,309.501 140.5,312.5C 140.058,313.739 139.391,314.739 138.5,315.5 Z"/></g>
<g><path style="opacity:0.867" fill="#696969" d="M 294.5,314.5 C 295.833,314.5 297.167,314.5 298.5,314.5C 298.833,311.5 297.5,310.167 294.5,310.5C 296.975,308.018 298.975,308.684 300.5,312.5C 299.456,316.947 297.456,317.614 294.5,314.5 Z"/></g>
<g><path style="opacity:0.651" fill="#7d7d7d" d="M 265.5,315.5 C 265.768,313.901 265.434,312.568 264.5,311.5C 262.872,310.147 261.538,310.481 260.5,312.5C 259.662,312.842 259.328,313.508 259.5,314.5C 258.22,311.411 259.386,309.411 263,308.5C 266.395,310.018 267.229,312.351 265.5,315.5 Z M 264.5,311.5 C 264.5,312.5 264.5,313.5 264.5,314.5C 262.62,314.771 261.287,314.104 260.5,312.5C 261.538,310.481 262.872,310.147 264.5,311.5 Z"/></g>
<g><path style="opacity:0.014" fill="#121212" d="M 133.5,311.5 C 133.833,311.5 134.167,311.5 134.5,311.5C 134.5,312.5 134.5,313.5 134.5,314.5C 135.959,314.567 137.292,314.234 138.5,313.5C 138.5,314.167 138.5,314.833 138.5,315.5C 136.833,315.5 135.167,315.5 133.5,315.5C 133.5,314.167 133.5,312.833 133.5,311.5 Z"/></g>
<g><path style="opacity:0.271" fill="#2d2d2d" d="M 264.5,311.5 C 265.434,312.568 265.768,313.901 265.5,315.5C 263.265,315.795 261.265,315.461 259.5,314.5C 259.328,313.508 259.662,312.842 260.5,312.5C 261.287,314.104 262.62,314.771 264.5,314.5C 264.5,313.5 264.5,312.5 264.5,311.5 Z"/></g>
<g><path style="opacity:0.733" fill="#5d5d5d" d="M 100.5,308.5 C 106.488,308.664 107.821,311.164 104.5,316C 98.4034,316.147 97.0701,313.647 100.5,308.5 Z M 101.5,310.5 C 100.766,311.708 100.433,313.041 100.5,314.5C 101.833,314.5 103.167,314.5 104.5,314.5C 104.912,312.027 103.912,310.694 101.5,310.5 Z"/></g>
<g><path style="opacity:0.633" fill="#777777" d="M 119.5,322.5 C 118.163,323.315 117.163,324.482 116.5,326C 120.049,329.56 121.716,328.727 121.5,323.5C 123.601,327.831 122.267,329.664 117.5,329C 114.589,325.813 115.089,323.313 119,321.5C 120.579,321.697 120.745,322.031 119.5,322.5 Z"/></g>
<g><path style="opacity:0.827" fill="#6e6e6e" d="M 277.5,323.5 C 277.116,325.665 277.783,327.332 279.5,328.5C 281.217,327.332 281.884,325.665 281.5,323.5C 281.81,322.262 282.31,322.262 283,323.5C 283.333,329.5 281,330.833 276,327.5C 275.156,325.537 275.656,324.204 277.5,323.5 Z M 277.5,323.5 C 278.833,323.5 280.167,323.5 281.5,323.5C 281.884,325.665 281.217,327.332 279.5,328.5C 277.783,327.332 277.116,325.665 277.5,323.5 Z"/></g>
<g><path style="opacity:0.768" fill="#989898" d="M 199.5,308.5 C 200.166,313.322 200.499,318.322 200.5,323.5C 200.645,329.002 200.145,334.336 199,339.5C 198.24,329.133 198.406,318.799 199.5,308.5 Z"/></g>
<g><path style="opacity:0.025" fill="#1a1a1a" d="M 263.5,339.5 C 264.167,339.5 264.833,339.5 265.5,339.5C 265.5,341.167 265.5,342.833 265.5,344.5C 264.833,344.5 264.167,344.5 263.5,344.5C 264.833,342.833 264.833,341.167 263.5,339.5 Z"/></g>
<g><path style="opacity:0.8" fill="#7e7e7e" d="M 265.5,339.5 C 264.833,339.5 264.167,339.5 263.5,339.5C 261.748,339.418 260.748,340.251 260.5,342C 260.748,343.749 261.748,344.582 263.5,344.5C 264.167,344.5 264.833,344.5 265.5,344.5C 263.728,346.864 261.728,346.864 259.5,344.5C 258.047,342.356 258.38,340.523 260.5,339C 262.387,338.22 264.054,338.387 265.5,339.5 Z"/></g>
<g><path style="opacity:0.129" fill="#707070" d="M 136.5,344.5 C 137.278,343.844 137.944,343.011 138.5,342C 137.252,338.927 135.585,338.76 133.5,341.5C 132.402,340.603 132.402,339.77 133.5,339C 137.128,337.684 139.461,338.851 140.5,342.5C 139.632,344.796 138.298,345.463 136.5,344.5 Z"/></g>
<g><path style="opacity:0.802" fill="#868686" d="M 329.5,336.5 C 329.5,342.833 329.5,349.167 329.5,355.5C 329.665,358.85 329.498,362.183 329,365.5C 326.699,366.867 324.199,367.534 321.5,367.5C 322.653,366.234 324.653,365.234 327.5,364.5C 328.167,355.009 328.833,345.675 329.5,336.5 Z"/></g>
<g><path style="opacity:0.529" fill="#727272" d="M 133.5,342.5 C 134.5,343.167 135.5,343.833 136.5,344.5C 136.631,345.239 136.464,345.906 136,346.5C 134.294,345.692 133.461,344.359 133.5,342.5 Z"/></g>
<g><path style="opacity:0.627" fill="#616161" d="M 227.5,312.5 C 227.212,328.535 227.545,344.535 228.5,360.5C 227.069,360.119 226.236,359.119 226,357.5C 225.833,350 225.667,342.5 225.5,335C 225.503,327.136 226.169,319.636 227.5,312.5 Z"/></g>
<g><path style="opacity:0.731" fill="#808080" d="M 69.5,340.5 C 70.1666,348.343 70.8333,356.343 71.5,364.5C 74.3467,365.234 76.3467,366.234 77.5,367.5C 74.8015,367.534 72.3015,366.867 70,365.5C 69.5017,362.183 69.335,358.85 69.5,355.5C 69.5,350.5 69.5,345.5 69.5,340.5 Z"/></g>
<g><path style="opacity:0.675" fill="#525252" d="M 165.5,362.5 C 165.34,364.153 164.674,365.486 163.5,366.5C 163.157,364.517 163.824,363.183 165.5,362.5 Z"/></g>
<g><path style="opacity:0.702" fill="#676767" d="M 228.5,360.5 C 230.333,362.832 231.666,365.498 232.5,368.5C 232.332,370.171 231.665,371.504 230.5,372.5C 230.539,368.59 229.873,364.59 228.5,360.5 Z"/></g>
<g><path style="opacity:0.12" fill="#111111" d="M 168.5,364.5 C 168.5,365.167 168.5,365.833 168.5,366.5C 167.566,367.568 167.232,368.901 167.5,370.5C 166.861,369.903 166.528,369.07 166.5,368C 166.387,366.301 167.053,365.134 168.5,364.5 Z"/></g>
<g><path style="opacity:0.835" fill="#747474" d="M 168.5,366.5 C 168.935,368.703 168.935,370.703 168.5,372.5C 167.662,372.158 167.328,371.492 167.5,370.5C 167.232,368.901 167.566,367.568 168.5,366.5 Z"/></g>
<g><path style="opacity:0.149" fill="#686868" d="M 99.5,374.5 C 98.209,374.737 97.209,374.404 96.5,373.5C 97.9473,372.115 98.9473,372.448 99.5,374.5 Z"/></g>
<g><path style="opacity:0.149" fill="#5f5f5f" d="M 176.5,374.5 C 174.901,374.768 173.568,374.434 172.5,373.5C 174.456,371.825 175.789,372.158 176.5,374.5 Z"/></g>
<g><path style="opacity:0.588" fill="#6f6f6f" d="M 225.5,373.5 C 219.711,375.249 213.711,376.582 207.5,377.5C 206.5,377.5 205.5,377.5 204.5,377.5C 210.393,375.28 216.559,373.613 223,372.5C 223.902,372.743 224.735,373.077 225.5,373.5 Z"/></g>
<g><path style="opacity:0.753" fill="#5a5a5a" d="M 187.5,376.5 C 185.901,376.768 184.568,376.434 183.5,375.5C 185.456,373.825 186.789,374.158 187.5,376.5 Z"/></g>
<g><path style="opacity:0.553" fill="#717171" d="M 299.5,374.5 C 296.063,375.945 292.397,376.945 288.5,377.5C 287.508,377.672 286.842,377.338 286.5,376.5C 290.077,375.731 293.577,374.731 297,373.5C 297.671,374.252 298.504,374.586 299.5,374.5 Z"/></g>
<g><path style="opacity:0.851" fill="#6d6d6d" d="M 163.5,366.5 C 162.822,370.273 164.156,373.106 167.5,375C 171.721,376.61 176.054,377.777 180.5,378.5C 180.5,378.833 180.5,379.167 180.5,379.5C 174.822,379.247 169.489,377.747 164.5,375C 162.448,372.226 162.114,369.393 163.5,366.5 Z"/></g>
<g><path style="opacity:0.757" fill="#545454" d="M 204.5,377.5 C 205.5,377.5 206.5,377.5 207.5,377.5C 204.826,379.319 201.993,380.986 199,382.5C 195.441,379.805 191.608,377.805 187.5,376.5C 191.91,376.01 195.91,377.344 199.5,380.5C 200.94,379.048 202.606,378.048 204.5,377.5 Z"/></g>
<g><path style="opacity:0.871" fill="#7c7c7c" d="M 230.5,320.5 C 230.833,320.5 231.167,320.5 231.5,320.5C 231.333,332.505 231.5,344.505 232,356.5C 233.713,360.756 235.546,364.922 237.5,369C 233.965,376.583 227.965,379.75 219.5,378.5C 223.469,377.657 227.469,376.491 231.5,375C 233.677,373.503 235.01,371.503 235.5,369C 234.033,365.518 232.533,362.018 231,358.5C 230.5,345.838 230.333,333.171 230.5,320.5 Z"/></g>
<g><path style="opacity:0.604" fill="#595959" d="M 286.5,376.5 C 286.842,377.338 287.508,377.672 288.5,377.5C 286.095,378.768 283.428,379.435 280.5,379.5C 281.895,377.621 283.895,376.621 286.5,376.5 Z"/></g>
<g><path style="opacity:0.765" fill="#656565" d="M 218.5,378.5 C 214.566,380.594 210.233,382.261 205.5,383.5C 204.101,386.054 202.101,387.72 199.5,388.5C 201.268,386.492 202.934,384.326 204.5,382C 209.023,380.203 213.69,379.036 218.5,378.5 Z"/></g>
<g><path style="opacity:0.69" fill="#5c5c5c" d="M 272.5,381.5 C 260.662,384.793 248.662,387.793 236.5,390.5C 236.62,389.414 237.287,388.747 238.5,388.5C 249.666,385.207 260.999,382.874 272.5,381.5 Z"/></g>
<g><path style="opacity:0.851" fill="#686868" d="M 165.5,390.5 C 143.164,386.082 121.164,380.748 99.5,374.5C 100.583,374.461 101.583,374.127 102.5,373.5C 124.197,379.161 145.197,384.828 165.5,390.5 Z"/></g>
<g><path style="opacity:0.886" fill="#5f5f5f" d="M 180.5,378.5 C 185.31,379.036 189.977,380.203 194.5,382C 196.314,384.479 197.981,386.979 199.5,389.5C 200.969,391.105 200.635,391.605 198.5,391C 196.743,388.154 194.743,385.488 192.5,383C 188.377,381.808 184.377,380.641 180.5,379.5C 180.5,379.167 180.5,378.833 180.5,378.5 Z"/></g>
<g><path style="opacity:0.475" fill="#7e7e7e" d="M 221.5,393.5 C 217.366,395.283 213.033,396.283 208.5,396.5C 208.791,395.351 209.624,394.684 211,394.5C 214.031,393.961 217.031,393.294 220,392.5C 220.765,392.57 221.265,392.903 221.5,393.5 Z"/></g>
<g><path style="opacity:0.141" fill="#616161" d="M 194.5,397.5 C 192.901,397.768 191.568,397.434 190.5,396.5C 192.456,394.825 193.789,395.158 194.5,397.5 Z"/></g>
</svg>
