<?xml version="1.0" encoding="UTF-8"?>
<!DOCTYPE svg PUBLIC "-//W3C//DTD SVG 1.1//EN" "http://www.w3.org/Graphics/SVG/1.1/DTD/svg11.dtd">
<svg xmlns="http://www.w3.org/2000/svg" version="1.1" width="432px" height="432px" style="shape-rendering:geometricPrecision; text-rendering:geometricPrecision; image-rendering:optimizeQuality; fill-rule:evenodd; clip-rule:evenodd" xmlns:xlink="http://www.w3.org/1999/xlink">
<g><path style="opacity:0.968" fill="#ededed" d="M 213.5,3.5 C 219.176,3.33391 224.843,3.50058 230.5,4C 232.286,4.78451 233.786,5.95118 235,7.5C 235.828,37.4052 235.662,67.2385 234.5,97C 248.717,111.664 252.551,128.83 246,148.5C 243.392,154.716 239.559,160.049 234.5,164.5C 234.833,166.167 235.833,167.167 237.5,167.5C 244.349,168.292 250.682,170.459 256.5,174C 261.096,178.484 262.763,183.984 261.5,190.5C 266.738,190.233 269.738,192.733 270.5,198C 269.501,204.417 266.334,206.25 261,203.5C 260.308,204.025 259.808,204.692 259.5,205.5C 267.061,206.754 269.561,211.087 267,218.5C 264.772,220.968 261.938,222.135 258.5,222C 258.043,222.414 257.709,222.914 257.5,223.5C 267.323,226.158 268.99,231.324 262.5,239C 259.671,239.048 257.337,240.048 255.5,242C 260.679,242.178 263.679,244.845 264.5,250C 264.097,252.887 262.764,255.221 260.5,257C 257.671,257.048 255.337,258.048 253.5,260C 260.339,260.821 262.839,264.654 261,271.5C 260.535,272.931 259.701,274.097 258.5,275C 256.423,275.192 254.423,275.692 252.5,276.5C 248.831,286.523 247.664,296.857 249,307.5C 251.652,321.399 252.985,335.399 253,349.5C 249.384,373.435 236.884,390.935 215.5,402C 209.383,405.391 203.05,406.058 196.5,404C 204.923,395.817 209.256,385.817 209.5,374C 208.379,360.856 208.212,347.689 209,334.5C 209.822,327.711 211.655,321.211 214.5,315C 211.179,308.321 205.846,303.988 198.5,302C 196.667,300.167 194.833,298.333 193,296.5C 191.658,289.909 190.825,283.243 190.5,276.5C 182.181,276.656 179.348,272.656 182,264.5C 183.509,262.081 185.675,261.081 188.5,261.5C 188.5,260.5 188.5,259.5 188.5,258.5C 180.004,258.505 177.171,254.505 180,246.5C 181.887,244.114 184.387,242.947 187.5,243C 184.524,241.141 181.357,239.641 178,238.5C 175.203,231.27 177.703,227.103 185.5,226C 179.852,225.189 176.186,222.022 174.5,216.5C 175.051,211.117 178.051,208.283 183.5,208C 175.124,206.618 171.957,201.785 174,193.5C 175.995,191.253 178.495,190.253 181.5,190.5C 180.274,183.792 182.274,178.292 187.5,174C 193.095,170.802 199.095,168.802 205.5,168C 207.053,166.903 208.386,165.57 209.5,164C 202.666,159.158 198.166,152.658 196,144.5C 191.388,126.357 195.554,110.691 208.5,97.5C 207.342,67.5421 207.175,37.5421 208,7.5C 209.812,6.02294 211.645,4.6896 213.5,3.5 Z"/></g>
<g><path style="opacity:0.956" fill="#ededed" d="M 167.5,260.5 C 170.261,259.915 171.927,260.915 172.5,263.5C 167.988,275.365 170.321,285.532 179.5,294C 182.759,295.211 185.592,297.044 188,299.5C 188.667,300.833 188.667,302.167 188,303.5C 178.584,309.459 169.084,315.292 159.5,321C 143.372,333.159 133.872,349.326 131,369.5C 128.546,371.013 126.879,370.346 126,367.5C 121.741,349.309 113.075,333.642 100,320.5C 99.7273,325.229 99.0607,329.896 98,334.5C 94.5899,342.319 90.9233,349.986 87,357.5C 77.1674,387.69 85.6674,410.857 112.5,427C 112.138,428.885 110.971,429.719 109,429.5C 70.7981,423.806 50.6314,401.806 48.5,363.5C 48.0268,350.394 50.8601,338.061 57,326.5C 65.1212,315.705 72.4545,304.372 79,292.5C 80.9862,286.683 81.9862,280.683 82,274.5C 83.3876,273.446 84.8876,273.28 86.5,274C 99.3206,280.241 111.654,287.241 123.5,295C 127.036,298.201 130.203,301.701 133,305.5C 137.35,289.981 145.85,277.147 158.5,267C 161.567,264.812 164.567,262.645 167.5,260.5 Z"/></g>
<g><path style="opacity:0.95" fill="#ededed" d="M 284.5,431.5 C 275.5,431.5 266.5,431.5 257.5,431.5C 257.5,431.167 257.5,430.833 257.5,430.5C 257.167,429.833 256.833,429.167 256.5,428.5C 283.92,417.257 305.42,398.924 321,373.5C 318.619,359.372 313.285,346.372 305,334.5C 304.035,330.218 304.702,326.218 307,322.5C 312.445,314.055 318.279,305.888 324.5,298C 337.784,288.437 351.951,280.27 367,273.5C 367.772,273.645 368.439,273.978 369,274.5C 368.086,280.62 368.753,286.62 371,292.5C 377.545,304.372 384.879,315.705 393,326.5C 405.421,351.244 405.421,375.911 393,400.5C 379.638,419.68 361.304,429.347 338,429.5C 337.316,428.216 337.483,427.049 338.5,426C 359.26,415.658 369.094,398.824 368,375.5C 365.897,362.189 361.23,349.856 354,338.5C 352.014,332.683 351.014,326.683 351,320.5C 339.135,332.058 330.969,345.892 326.5,362C 326.548,363.033 326.881,363.366 327.5,363C 330.118,358.446 333.452,354.446 337.5,351C 339.92,350.085 341.253,350.918 341.5,353.5C 339.076,362.896 338.41,372.396 339.5,382C 336.749,415.922 318.415,432.422 284.5,431.5 Z"/></g>
<g><path style="opacity:0.955" fill="#ededed" d="M 146.5,431.5 C 141.833,431.5 137.167,431.5 132.5,431.5C 131.588,430.262 131.421,428.928 132,427.5C 139.218,423.948 143.884,418.281 146,410.5C 148.364,396.893 150.364,383.226 152,369.5C 157.167,355.355 165.667,343.521 177.5,334C 185.966,327.866 194.133,321.366 202,314.5C 203.732,314.734 204.566,315.734 204.5,317.5C 201.048,323.355 198.881,329.688 198,336.5C 197.667,350.5 197.333,364.5 197,378.5C 191.517,407.146 174.684,424.813 146.5,431.5 Z"/></g>
<g><path style="opacity:0.304" fill="#171717" d="M 300.5,331.5 C 299.508,331.672 298.842,331.338 298.5,330.5C 299.925,328.969 300.591,329.302 300.5,331.5 Z"/></g>
<g><path style="opacity:0.915" fill="#ededed" d="M 298.5,330.5 C 298.842,331.338 299.508,331.672 300.5,331.5C 291.41,356.175 277.41,377.675 258.5,396C 254.446,399.527 249.78,401.694 244.5,402.5C 244.672,401.508 244.338,400.842 243.5,400.5C 248.933,394.207 253.433,387.207 257,379.5C 259.09,372.009 260.09,364.343 260,356.5C 261.7,350.6 265.2,346.1 270.5,343C 275.995,340.542 281.662,338.542 287.5,337C 291.071,334.579 294.738,332.413 298.5,330.5 Z"/></g>
<g><path style="opacity:0.199" fill="#0b0b0b" d="M 243.5,400.5 C 244.338,400.842 244.672,401.508 244.5,402.5C 241.094,403.69 240.761,403.023 243.5,400.5 Z"/></g>
<g><path style="opacity:0.363" fill="#131313" d="M 256.5,428.5 C 256.833,429.167 257.167,429.833 257.5,430.5C 252.921,430.66 252.588,429.993 256.5,428.5 Z"/></g>
</svg>
