<?xml version="1.0" encoding="UTF-8"?>
<!DOCTYPE svg PUBLIC "-//W3C//DTD SVG 1.1//EN" "http://www.w3.org/Graphics/SVG/1.1/DTD/svg11.dtd">
<svg xmlns="http://www.w3.org/2000/svg" version="1.1" width="402px" height="402px" style="shape-rendering:geometricPrecision; text-rendering:geometricPrecision; image-rendering:optimizeQuality; fill-rule:evenodd; clip-rule:evenodd" xmlns:xlink="http://www.w3.org/1999/xlink">
<g><path style="opacity:0.064" fill="#000000" d="M 278.5,30.5 C 278.5,21.8333 278.5,13.1667 278.5,4.5C 274.167,4.5 269.833,4.5 265.5,4.5C 265.5,13.1667 265.5,21.8333 265.5,30.5C 264.507,21.6822 264.173,12.6822 264.5,3.5C 269.5,3.5 274.5,3.5 279.5,3.5C 279.827,12.6822 279.493,21.6822 278.5,30.5 Z"/></g>
<g><path style="opacity:1" fill="#edeeed" d="M 278.5,30.5 C 274.167,30.5 269.833,30.5 265.5,30.5C 265.5,21.8333 265.5,13.1667 265.5,4.5C 269.833,4.5 274.167,4.5 278.5,4.5C 278.5,13.1667 278.5,21.8333 278.5,30.5 Z"/></g>
<g><path style="opacity:1" fill="#dddddd" d="M 117.5,34.5 C 117.427,36.0269 118.094,37.0269 119.5,37.5C 124.325,42.1984 127.825,47.8651 130,54.5C 132.417,59.6709 132.917,65.0042 131.5,70.5C 130.893,70.3764 130.56,70.0431 130.5,69.5C 127.038,68.5184 123.371,68.185 119.5,68.5C 119.768,66.901 119.434,65.5676 118.5,64.5C 115.86,52.8643 108.526,45.8643 96.5,43.5C 95.5108,47.1073 95.1774,50.774 95.5,54.5C 99.7934,54.9769 103.127,56.9769 105.5,60.5C 105.796,62.403 106.463,64.0697 107.5,65.5C 107.5,66.5 107.5,67.5 107.5,68.5C 100.426,67.8279 94.0928,65.4946 88.5,61.5C 88.0269,60.0937 87.0269,59.427 85.5,59.5C 84.8333,58.8333 84.1667,58.1667 83.5,57.5C 83.1667,56.5 82.5,55.8333 81.5,55.5C 79.086,54.0892 77.4194,52.0892 76.5,49.5C 75.7377,47.7376 74.4044,46.7376 72.5,46.5C 66.0787,42.3473 59.7453,42.514 53.5,47C 50.593,50.1508 47.9264,53.4841 45.5,57C 40.2514,58.0836 36.2514,60.917 33.5,65.5C 32.7326,66.172 32.0659,67.0053 31.5,68C 27.6437,68.1773 23.977,68.6773 20.5,69.5C 20.1667,69.5 19.8333,69.5 19.5,69.5C 18.5489,68.0813 18.2155,66.4147 18.5,64.5C 20.2591,49.9767 26.9257,38.31 38.5,29.5C 40.0269,29.573 41.0269,28.9063 41.5,27.5C 48.5082,22.0564 56.5082,18.5564 65.5,17C 85.8871,14.2518 103.22,20.0852 117.5,34.5 Z"/></g>
<g><path style="opacity:1" fill="#ebebeb" d="M 252.5,16.5 C 253.441,21.0704 253.774,25.737 253.5,30.5C 248.833,30.5 244.167,30.5 239.5,30.5C 239.5,25.8333 239.5,21.1667 239.5,16.5C 243.833,16.5 248.167,16.5 252.5,16.5 Z"/></g>
<g><path style="opacity:0.027" fill="#000000" d="M 252.5,16.5 C 253.805,18.3972 254.471,20.7305 254.5,23.5C 254.497,26.0254 254.163,28.3587 253.5,30.5C 253.774,25.737 253.441,21.0704 252.5,16.5 Z"/></g>
<g><path style="opacity:1" fill="#e9e9e9" d="M 290.5,16.5 C 295.167,16.5 299.833,16.5 304.5,16.5C 304.5,21.1667 304.5,25.8333 304.5,30.5C 299.833,30.5 295.167,30.5 290.5,30.5C 290.5,25.8333 290.5,21.1667 290.5,16.5 Z"/></g>
<g><path style="opacity:0.065" fill="#000000" d="M 41.5,27.5 C 41.0269,28.9063 40.0269,29.573 38.5,29.5C 38.9731,28.0937 39.9731,27.427 41.5,27.5 Z"/></g>
<g><path style="opacity:0.086" fill="#000000" d="M 117.5,34.5 C 118.906,34.9731 119.573,35.9731 119.5,37.5C 118.094,37.0269 117.427,36.0269 117.5,34.5 Z"/></g>
<g><path style="opacity:0.135" fill="#000000" d="M 239.5,42.5 C 250.161,41.8335 260.995,41.5001 272,41.5C 283.188,41.5012 294.021,42.1678 304.5,43.5C 282.909,42.5116 261.242,42.1783 239.5,42.5 Z"/></g>
<g><path style="opacity:1" fill="#ebebeb" d="M 239.5,42.5 C 261.242,42.1783 282.909,42.5116 304.5,43.5C 304.5,51.5 304.5,59.5 304.5,67.5C 299.93,68.441 295.263,68.7744 290.5,68.5C 290.5,64.5 290.5,60.5 290.5,56.5C 286.833,56.5 283.167,56.5 279.5,56.5C 278.517,60.2984 278.183,64.2984 278.5,68.5C 274.167,68.5 269.833,68.5 265.5,68.5C 265.5,64.1667 265.5,59.8333 265.5,55.5C 261.5,55.5 257.5,55.5 253.5,55.5C 253.5,59.8333 253.5,64.1667 253.5,68.5C 248.737,68.7744 244.07,68.441 239.5,67.5C 239.5,59.1667 239.5,50.8333 239.5,42.5 Z"/></g>
<g><path style="opacity:0.065" fill="#000000" d="M 72.5,46.5 C 74.4044,46.7376 75.7377,47.7376 76.5,49.5C 74.5956,49.2624 73.2623,48.2624 72.5,46.5 Z"/></g>
<g><path style="opacity:1" fill="#e4e4e4" d="M 75.5,65.5 C 75.9731,66.9063 76.9731,67.573 78.5,67.5C 78.5,68.1667 78.8333,68.5 79.5,68.5C 79.9731,69.9063 80.9731,70.573 82.5,70.5C 90.1764,75.2814 98.5097,78.2814 107.5,79.5C 107.666,89.8387 107.5,100.172 107,110.5C 105.974,113.239 104.474,115.572 102.5,117.5C 101.5,117.833 100.833,118.5 100.5,119.5C 100.5,120.167 100.167,120.5 99.5,120.5C 98.1667,121.167 97.1667,122.167 96.5,123.5C 94.5372,124.96 92.7038,126.627 91,128.5C 89.084,133.649 88.084,138.983 88,144.5C 83.7481,150.588 77.9148,152.754 70.5,151C 68.9336,150.392 67.6002,149.558 66.5,148.5C 66.1667,147.5 65.5,146.833 64.5,146.5C 63.5416,146.047 62.7083,145.381 62,144.5C 61.8791,138.676 61.0457,133.01 59.5,127.5C 58.8333,126.167 57.8333,125.167 56.5,124.5C 51.2395,122.408 47.4062,118.741 45,113.5C 44.4888,111.122 43.8221,108.788 43,106.5C 42.1737,94.3262 42.3403,82.3262 43.5,70.5C 44.5,70.1667 45.1667,69.5 45.5,68.5C 47.631,67.6862 49.9644,67.1862 52.5,67C 54.585,64.3178 56.2517,61.4845 57.5,58.5C 58.5,58.1667 59.1667,57.5 59.5,56.5C 59.6107,55.8826 59.944,55.3826 60.5,55C 62.5,54.3333 64.5,54.3333 66.5,55C 69.3894,58.6244 72.3894,62.1244 75.5,65.5 Z"/></g>
<g><path style="opacity:0.059" fill="#000000" d="M 81.5,55.5 C 82.5,55.8333 83.1667,56.5 83.5,57.5C 82.1667,57.5 81.5,56.8333 81.5,55.5 Z"/></g>
<g><path style="opacity:0.07" fill="#000000" d="M 265.5,68.5 C 264.517,64.7016 264.183,60.7016 264.5,56.5C 261.167,56.5 257.833,56.5 254.5,56.5C 254.817,60.7016 254.483,64.7016 253.5,68.5C 253.5,64.1667 253.5,59.8333 253.5,55.5C 257.5,55.5 261.5,55.5 265.5,55.5C 265.5,59.8333 265.5,64.1667 265.5,68.5 Z"/></g>
<g><path style="opacity:0.092" fill="#000000" d="M 59.5,56.5 C 59.1667,57.5 58.5,58.1667 57.5,58.5C 57.5,57.1667 58.1667,56.5 59.5,56.5 Z"/></g>
<g><path style="opacity:0.052" fill="#000000" d="M 279.5,56.5 C 279.5,60.8333 279.5,65.1667 279.5,69.5C 274.637,69.8195 269.97,69.4861 265.5,68.5C 269.833,68.5 274.167,68.5 278.5,68.5C 278.183,64.2984 278.517,60.2984 279.5,56.5 Z"/></g>
<g><path style="opacity:0.063" fill="#000000" d="M 85.5,59.5 C 87.0269,59.427 88.0269,60.0937 88.5,61.5C 86.9731,61.573 85.9731,60.9063 85.5,59.5 Z"/></g>
<g><path style="opacity:0.069" fill="#000000" d="M 105.5,60.5 C 107.213,61.6354 107.88,63.302 107.5,65.5C 106.463,64.0697 105.796,62.403 105.5,60.5 Z"/></g>
<g><path style="opacity:0.072" fill="#000000" d="M 18.5,64.5 C 18.2155,66.4147 18.5489,68.0813 19.5,69.5C 19.44,70.0431 19.1067,70.3764 18.5,70.5C 17.2072,68.3635 17.2072,66.3635 18.5,64.5 Z"/></g>
<g><path style="opacity:0.071" fill="#000000" d="M 118.5,64.5 C 119.434,65.5676 119.768,66.901 119.5,68.5C 123.371,68.185 127.038,68.5184 130.5,69.5C 126.5,69.5 122.5,69.5 118.5,69.5C 118.5,67.8333 118.5,66.1667 118.5,64.5 Z"/></g>
<g><path style="opacity:0.055" fill="#000000" d="M 33.5,65.5 C 33.67,66.8221 33.3366,67.9887 32.5,69C 28.5138,69.4988 24.5138,69.6655 20.5,69.5C 23.977,68.6773 27.6437,68.1773 31.5,68C 32.0659,67.0053 32.7326,66.172 33.5,65.5 Z"/></g>
<g><path style="opacity:0.08" fill="#000000" d="M 75.5,65.5 C 77.0269,65.427 78.0269,66.0937 78.5,67.5C 76.9731,67.573 75.9731,66.9063 75.5,65.5 Z"/></g>
<g><path style="opacity:1" fill="#dfdfdf" d="M 205.5,85.5 C 205.833,86.5 206.5,87.1667 207.5,87.5C 209.326,89.1475 210.66,91.1475 211.5,93.5C 211.833,94.5 212.5,95.1667 213.5,95.5C 214.222,95.9175 214.722,96.5842 215,97.5C 215.832,105.521 215.665,113.521 214.5,121.5C 212.663,119.824 211.33,117.824 210.5,115.5C 210.167,114.5 209.5,113.833 208.5,113.5C 203.112,106.778 198.112,99.7784 193.5,92.5C 193.573,90.9731 192.906,89.9731 191.5,89.5C 189.364,87.1877 187.364,84.6877 185.5,82C 182.183,81.5017 178.85,81.335 175.5,81.5C 175.5,76.8333 175.5,72.1667 175.5,67.5C 188.833,67.5 202.167,67.5 215.5,67.5C 215.5,72.1667 215.5,76.8333 215.5,81.5C 211.818,81.3347 208.152,81.5014 204.5,82C 205.337,83.0113 205.67,84.1779 205.5,85.5 Z"/></g>
<g><path style="opacity:0.045" fill="#000000" d="M 239.5,67.5 C 244.07,68.441 248.737,68.7744 253.5,68.5C 251.359,69.1633 249.025,69.4966 246.5,69.5C 243.731,69.4714 241.397,68.8048 239.5,67.5 Z"/></g>
<g><path style="opacity:0.042" fill="#000000" d="M 304.5,67.5 C 302.603,68.8048 300.269,69.4714 297.5,69.5C 294.975,69.4966 292.641,69.1633 290.5,68.5C 295.263,68.7744 299.93,68.441 304.5,67.5 Z"/></g>
<g><path style="opacity:0.026" fill="#000000" d="M 328.5,67.5 C 328.226,72.263 328.559,76.9296 329.5,81.5C 328.195,79.6028 327.529,77.2695 327.5,74.5C 327.503,71.9746 327.837,69.6413 328.5,67.5 Z"/></g>
<g><path style="opacity:1" fill="#e4e4e4" d="M 328.5,67.5 C 341.5,67.5 354.5,67.5 367.5,67.5C 367.774,72.263 367.441,76.9296 366.5,81.5C 363.391,81.2641 360.391,81.5975 357.5,82.5C 356.094,82.9731 355.427,83.9731 355.5,85.5C 354.488,86.8717 353.488,88.205 352.5,89.5C 351.094,89.9731 350.427,90.9731 350.5,92.5C 344.745,101.01 338.745,109.343 332.5,117.5C 331.094,117.973 330.427,118.973 330.5,120.5C 328.537,113.576 327.87,106.243 328.5,98.5C 329.811,95.8646 331.478,93.5313 333.5,91.5C 334.5,91.1667 335.167,90.5 335.5,89.5C 335.5,89.1667 335.5,88.8333 335.5,88.5C 336.906,88.0269 337.573,87.0269 337.5,85.5C 338.141,84.5178 338.807,83.5178 339.5,82.5C 336.232,81.513 332.898,81.1796 329.5,81.5C 328.559,76.9296 328.226,72.263 328.5,67.5 Z"/></g>
<g><path style="opacity:0.069" fill="#000000" d="M 367.5,67.5 C 368.163,69.6413 368.497,71.9746 368.5,74.5C 368.471,77.2695 367.805,79.6028 366.5,81.5C 367.441,76.9296 367.774,72.263 367.5,67.5 Z"/></g>
<g><path style="opacity:0.097" fill="#000000" d="M 45.5,68.5 C 45.1667,69.5 44.5,70.1667 43.5,70.5C 43.5,69.1667 44.1667,68.5 45.5,68.5 Z"/></g>
<g><path style="opacity:0.051" fill="#000000" d="M 79.5,68.5 C 81.0269,68.427 82.0269,69.0937 82.5,70.5C 80.9731,70.573 79.9731,69.9063 79.5,68.5 Z"/></g>
<g><path style="opacity:0.082" fill="#000000" d="M 127.5,80.5 C 124.833,80.5 122.167,80.5 119.5,80.5C 119.5,84.8333 119.5,89.1667 119.5,93.5C 122.833,93.5 126.167,93.5 129.5,93.5C 126.038,94.4816 122.371,94.815 118.5,94.5C 118.5,89.5 118.5,84.5 118.5,79.5C 121.713,79.19 124.713,79.5233 127.5,80.5 Z"/></g>
<g><path style="opacity:0.077" fill="#000000" d="M 316.5,80.5 C 286.833,80.5 257.167,80.5 227.5,80.5C 227.5,93.5 227.5,106.5 227.5,119.5C 226.504,106.344 226.171,93.0105 226.5,79.5C 256.671,79.1686 286.671,79.5019 316.5,80.5 Z"/></g>
<g><path style="opacity:1" fill="#cbcbcb" d="M 18.5,83.5 C 19.5,83.1667 20.1667,82.5 20.5,81.5C 23.8448,79.783 27.5115,79.1164 31.5,79.5C 31.5,84.5 31.5,89.5 31.5,94.5C 27.7604,94.7592 24.0938,94.4259 20.5,93.5C 17.5079,90.5245 16.8412,87.1912 18.5,83.5 Z"/></g>
<g><path style="opacity:1" fill="#dcdcdc" d="M 127.5,80.5 C 131.566,80.9728 133.566,83.3061 133.5,87.5C 133.148,90.217 131.815,92.217 129.5,93.5C 126.167,93.5 122.833,93.5 119.5,93.5C 119.5,89.1667 119.5,84.8333 119.5,80.5C 122.167,80.5 124.833,80.5 127.5,80.5 Z"/></g>
<g><path style="opacity:1" fill="#ebebeb" d="M 316.5,80.5 C 317.495,93.3226 317.829,106.323 317.5,119.5C 287.5,119.5 257.5,119.5 227.5,119.5C 227.5,106.5 227.5,93.5 227.5,80.5C 257.167,80.5 286.833,80.5 316.5,80.5 Z"/></g>
<g><path style="opacity:0.092" fill="#000000" d="M 20.5,81.5 C 20.1667,82.5 19.5,83.1667 18.5,83.5C 18.5,82.1667 19.1667,81.5 20.5,81.5 Z"/></g>
<g><path style="opacity:0.062" fill="#000000" d="M 357.5,82.5 C 357.573,84.0269 356.906,85.0269 355.5,85.5C 355.427,83.9731 356.094,82.9731 357.5,82.5 Z"/></g>
<g><path style="opacity:0.108" fill="#000000" d="M 205.5,85.5 C 206.833,85.5 207.5,86.1667 207.5,87.5C 206.5,87.1667 205.833,86.5 205.5,85.5 Z"/></g>
<g><path style="opacity:0.059" fill="#000000" d="M 337.5,85.5 C 337.573,87.0269 336.906,88.0269 335.5,88.5C 335.427,86.9731 336.094,85.9731 337.5,85.5 Z"/></g>
<g><path style="opacity:0.065" fill="#000000" d="M 191.5,89.5 C 192.906,89.9731 193.573,90.9731 193.5,92.5C 192.094,92.0269 191.427,91.0269 191.5,89.5 Z"/></g>
<g><path style="opacity:0.084" fill="#000000" d="M 335.5,89.5 C 335.167,90.5 334.5,91.1667 333.5,91.5C 333.5,90.1667 334.167,89.5 335.5,89.5 Z"/></g>
<g><path style="opacity:0.066" fill="#000000" d="M 352.5,89.5 C 352.573,91.0269 351.906,92.0269 350.5,92.5C 350.427,90.9731 351.094,89.9731 352.5,89.5 Z"/></g>
<g><path style="opacity:0.065" fill="#000000" d="M 211.5,93.5 C 212.833,93.5 213.5,94.1667 213.5,95.5C 212.5,95.1667 211.833,94.5 211.5,93.5 Z"/></g>
<g><path style="opacity:0.021" fill="#000000" d="M 328.5,98.5 C 327.87,106.243 328.537,113.576 330.5,120.5C 329.791,121.404 328.791,121.737 327.5,121.5C 327.175,113.648 327.508,105.982 328.5,98.5 Z"/></g>
<g><path style="opacity:1" fill="#dcdcdc" d="M 41.5,127.5 C 42.2623,129.262 43.5956,130.262 45.5,130.5C 50.0218,132.236 51.6885,135.569 50.5,140.5C 44.661,141.751 38.8277,143.084 33,144.5C 28.2753,143.604 24.442,141.271 21.5,137.5C 21.573,135.973 20.9063,134.973 19.5,134.5C 19.0133,133.527 18.5133,132.527 18,131.5C 17.5002,122.506 17.3336,113.506 17.5,104.5C 22.4635,105.254 27.4635,105.587 32.5,105.5C 32.804,108.522 33.304,111.522 34,114.5C 36.2309,119.071 38.7309,123.405 41.5,127.5 Z"/></g>
<g><path style="opacity:1" fill="#d7d7d7" d="M 127.5,138.5 C 126.5,138.833 125.833,139.5 125.5,140.5C 123.829,143.254 121.329,144.587 118,144.5C 112.686,143.672 107.52,142.339 102.5,140.5C 100.925,138.886 100.259,136.886 100.5,134.5C 100.833,133.5 101.5,132.833 102.5,132.5C 104.027,132.573 105.027,131.906 105.5,130.5C 108.195,127.474 110.862,124.474 113.5,121.5C 114.674,120.486 115.34,119.153 115.5,117.5C 116.82,113.793 117.82,109.96 118.5,106C 123.519,105.589 128.519,105.089 133.5,104.5C 133.824,114.217 133.324,123.884 132,133.5C 131.004,135.66 129.504,137.327 127.5,138.5 Z"/></g>
<g><path style="opacity:0.071" fill="#000000" d="M 208.5,113.5 C 209.5,113.833 210.167,114.5 210.5,115.5C 209.167,115.5 208.5,114.833 208.5,113.5 Z"/></g>
<g><path style="opacity:0.084" fill="#000000" d="M 102.5,117.5 C 102.5,118.833 101.833,119.5 100.5,119.5C 100.833,118.5 101.5,117.833 102.5,117.5 Z"/></g>
<g><path style="opacity:0.079" fill="#000000" d="M 115.5,117.5 C 115.34,119.153 114.674,120.486 113.5,121.5C 113.229,119.62 113.896,118.287 115.5,117.5 Z"/></g>
<g><path style="opacity:0.07" fill="#000000" d="M 332.5,117.5 C 332.573,119.027 331.906,120.027 330.5,120.5C 330.427,118.973 331.094,117.973 332.5,117.5 Z"/></g>
<g><path style="opacity:0.058" fill="#000000" d="M 99.5,120.5 C 99.5,122.5 98.5,123.5 96.5,123.5C 97.1667,122.167 98.1667,121.167 99.5,120.5 Z"/></g>
<g><path style="opacity:0.083" fill="#000000" d="M 56.5,124.5 C 57.8333,125.167 58.8333,126.167 59.5,127.5C 57.5,127.5 56.5,126.5 56.5,124.5 Z"/></g>
<g><path style="opacity:0.083" fill="#000000" d="M 41.5,127.5 C 43.4044,127.738 44.7377,128.738 45.5,130.5C 43.5956,130.262 42.2623,129.262 41.5,127.5 Z"/></g>
<g><path style="opacity:0.074" fill="#000000" d="M 105.5,130.5 C 105.027,131.906 104.027,132.573 102.5,132.5C 102.973,131.094 103.973,130.427 105.5,130.5 Z"/></g>
<g><path style="opacity:0.109" fill="#000000" d="M 354.5,144.5 C 354.5,140.167 354.5,135.833 354.5,131.5C 299.5,131.5 244.5,131.5 189.5,131.5C 189.5,135.833 189.5,140.167 189.5,144.5C 188.514,140.03 188.181,135.363 188.5,130.5C 244.167,130.5 299.833,130.5 355.5,130.5C 355.819,135.363 355.486,140.03 354.5,144.5 Z"/></g>
<g><path style="opacity:1" fill="#edeeed" d="M 354.5,144.5 C 299.5,144.5 244.5,144.5 189.5,144.5C 189.5,140.167 189.5,135.833 189.5,131.5C 244.5,131.5 299.5,131.5 354.5,131.5C 354.5,135.833 354.5,140.167 354.5,144.5 Z"/></g>
<g><path style="opacity:0.062" fill="#000000" d="M 19.5,134.5 C 20.9063,134.973 21.573,135.973 21.5,137.5C 20.0937,137.027 19.427,136.027 19.5,134.5 Z"/></g>
<g><path style="opacity:0.098" fill="#000000" d="M 100.5,134.5 C 100.259,136.886 100.925,138.886 102.5,140.5C 101.5,140.5 100.5,140.5 99.5,140.5C 99.2053,138.265 99.5386,136.265 100.5,134.5 Z"/></g>
<g><path style="opacity:0.119" fill="#000000" d="M 127.5,138.5 C 127.5,139.833 126.833,140.5 125.5,140.5C 125.833,139.5 126.5,138.833 127.5,138.5 Z"/></g>
<g><path style="opacity:0.061" fill="#000000" d="M 64.5,146.5 C 65.5,146.833 66.1667,147.5 66.5,148.5C 65.1667,148.5 64.5,147.833 64.5,146.5 Z"/></g>
<g><path style="opacity:0.04" fill="#000000" d="M 49.5,151.5 C 50.0968,150.861 50.9302,150.528 52,150.5C 53.3756,150.684 54.2089,151.351 54.5,152.5C 52.9582,151.699 51.2915,151.366 49.5,151.5 Z"/></g>
<g><path style="opacity:1" fill="#e1e1e1" d="M 129.5,163.5 C 129.833,164.5 130.5,165.167 131.5,165.5C 132.5,165.833 133.167,166.5 133.5,167.5C 133.427,169.027 134.094,170.027 135.5,170.5C 138.777,176.019 140.277,182.019 140,188.5C 135.263,189.469 130.43,189.803 125.5,189.5C 125.5,185.5 125.5,181.5 125.5,177.5C 92.0041,176.502 58.3375,176.168 24.5,176.5C 24.5,180.5 24.5,184.5 24.5,188.5C 20.1667,188.5 15.8333,188.5 11.5,188.5C 10.4879,177.533 14.1545,168.533 22.5,161.5C 24.0269,161.573 25.0269,160.906 25.5,159.5C 27.9422,157.774 30.6089,156.274 33.5,155C 38.8718,153.93 44.2051,152.763 49.5,151.5C 51.2915,151.366 52.9582,151.699 54.5,152.5C 65.768,163.951 78.1013,165.284 91.5,156.5C 93.5,156.5 94.5,155.5 94.5,153.5C 95.2495,151.754 96.5828,150.754 98.5,150.5C 106.999,152.54 115.332,155.04 123.5,158C 125.996,159.331 127.996,161.164 129.5,163.5 Z"/></g>
<g><path style="opacity:0.075" fill="#000000" d="M 94.5,153.5 C 94.5,155.5 93.5,156.5 91.5,156.5C 92.1667,155.167 93.1667,154.167 94.5,153.5 Z"/></g>
<g><path style="opacity:0.054" fill="#000000" d="M 191.5,156.5 C 245.331,155.501 299.331,155.168 353.5,155.5C 353.768,157.099 353.434,158.432 352.5,159.5C 352.5,158.5 352.5,157.5 352.5,156.5C 298.833,156.5 245.167,156.5 191.5,156.5 Z"/></g>
<g><path style="opacity:1" fill="#e3e3e3" d="M 191.5,156.5 C 245.167,156.5 298.833,156.5 352.5,156.5C 352.5,157.5 352.5,158.5 352.5,159.5C 351.212,165.715 348.879,171.381 345.5,176.5C 344.326,177.514 343.66,178.847 343.5,180.5C 343.389,181.117 343.056,181.617 342.5,182C 325.899,184.622 310.233,181.956 295.5,174C 277.836,169.334 260.169,169.334 242.5,174C 234.925,176.955 227.259,179.622 219.5,182C 213.539,183.239 207.539,183.573 201.5,183C 196.046,174.932 192.713,166.099 191.5,156.5 Z"/></g>
<g><path style="opacity:0.068" fill="#000000" d="M 25.5,159.5 C 25.0269,160.906 24.0269,161.573 22.5,161.5C 22.9731,160.094 23.9731,159.427 25.5,159.5 Z"/></g>
<g><path style="opacity:0.095" fill="#000000" d="M 129.5,163.5 C 130.833,163.5 131.5,164.167 131.5,165.5C 130.5,165.167 129.833,164.5 129.5,163.5 Z"/></g>
<g><path style="opacity:0.06" fill="#000000" d="M 133.5,167.5 C 134.906,167.973 135.573,168.973 135.5,170.5C 134.094,170.027 133.427,169.027 133.5,167.5 Z"/></g>
<g><path style="opacity:0.042" fill="#000000" d="M 125.5,177.5 C 92.1667,177.5 58.8333,177.5 25.5,177.5C 25.5,181.5 25.5,185.5 25.5,189.5C 20.6367,189.819 15.97,189.486 11.5,188.5C 15.8333,188.5 20.1667,188.5 24.5,188.5C 24.5,184.5 24.5,180.5 24.5,176.5C 58.3375,176.168 92.0041,176.502 125.5,177.5 Z"/></g>
<g><path style="opacity:0.089" fill="#000000" d="M 345.5,176.5 C 345.771,178.38 345.104,179.713 343.5,180.5C 343.66,178.847 344.326,177.514 345.5,176.5 Z"/></g>
<g><path style="opacity:1" fill="#d5d5d5" d="M 300.5,187.5 C 301.78,188.931 303.447,189.598 305.5,189.5C 320.785,194.759 336.119,195.259 351.5,191C 364.693,184.301 378.693,181.134 393.5,181.5C 393.803,186.43 393.469,191.263 392.5,196C 386.147,196.487 379.814,197.153 373.5,198C 344.498,211.972 315.498,211.972 286.5,198C 268.103,194.1 250.437,196.434 233.5,205C 209.242,211.469 185.909,209.136 163.5,198C 160.456,197.637 157.456,197.137 154.5,196.5C 153.791,195.596 152.791,195.263 151.5,195.5C 151.813,191.958 151.479,188.625 150.5,185.5C 150.5,184.167 150.5,182.833 150.5,181.5C 162.983,181.717 174.65,184.884 185.5,191C 206.23,196.191 226.23,193.858 245.5,184C 261.167,180.667 276.833,180.667 292.5,184C 295.31,184.906 297.976,186.073 300.5,187.5 Z"/></g>
<g><path style="opacity:0.143" fill="#000000" d="M 150.5,185.5 C 151.479,188.625 151.813,191.958 151.5,195.5C 152.791,195.263 153.791,195.596 154.5,196.5C 153.167,196.5 151.833,196.5 150.5,196.5C 150.5,192.833 150.5,189.167 150.5,185.5 Z"/></g>
<g><path style="opacity:0.083" fill="#000000" d="M 88.5,188.5 C 79.8333,188.5 71.1667,188.5 62.5,188.5C 62.5,192.833 62.5,197.167 62.5,201.5C 61.5139,197.03 61.1805,192.363 61.5,187.5C 70.6822,187.173 79.6822,187.507 88.5,188.5 Z"/></g>
<g><path style="opacity:0.091" fill="#000000" d="M 113.5,252.5 C 113.5,231.167 113.5,209.833 113.5,188.5C 109.167,188.5 104.833,188.5 100.5,188.5C 100.5,196.833 100.5,205.167 100.5,213.5C 83.6583,213.83 66.9916,213.497 50.5,212.5C 66.8333,212.5 83.1667,212.5 99.5,212.5C 99.5,204.167 99.5,195.833 99.5,187.5C 104.5,187.5 109.5,187.5 114.5,187.5C 114.831,209.34 114.497,231.006 113.5,252.5 Z"/></g>
<g><path style="opacity:0.064" fill="#000000" d="M 300.5,187.5 C 302.553,187.402 304.22,188.069 305.5,189.5C 303.447,189.598 301.78,188.931 300.5,187.5 Z"/></g>
<g><path style="opacity:0.013" fill="#000000" d="M 36.5,188.5 C 36.1732,209.742 36.5065,230.909 37.5,252C 62.8311,252.5 88.1645,252.667 113.5,252.5C 88.0033,253.663 62.3366,253.83 36.5,253C 35.1688,231.402 35.1688,209.902 36.5,188.5 Z"/></g>
<g><path style="opacity:1" fill="#ececec" d="M 50.5,212.5 C 66.9916,213.497 83.6583,213.83 100.5,213.5C 100.5,205.167 100.5,196.833 100.5,188.5C 104.833,188.5 109.167,188.5 113.5,188.5C 113.5,209.833 113.5,231.167 113.5,252.5C 88.1645,252.667 62.8311,252.5 37.5,252C 36.5065,230.909 36.1732,209.742 36.5,188.5C 40.97,187.514 45.6367,187.181 50.5,187.5C 50.5,195.833 50.5,204.167 50.5,212.5 Z"/></g>
<g><path style="opacity:1" fill="#edeeed" d="M 88.5,188.5 C 88.5,192.833 88.5,197.167 88.5,201.5C 79.8333,201.5 71.1667,201.5 62.5,201.5C 62.5,197.167 62.5,192.833 62.5,188.5C 71.1667,188.5 79.8333,188.5 88.5,188.5 Z"/></g>
<g><path style="opacity:1" fill="#d8d8d8" d="M 11.5,200.5 C 16.1667,200.5 20.8333,200.5 25.5,200.5C 25.5,205.167 25.5,209.833 25.5,214.5C 20.7971,214.437 16.1304,214.771 11.5,215.5C 11.5,210.5 11.5,205.5 11.5,200.5 Z"/></g>
<g><path style="opacity:1" fill="#d8d8d8" d="M 125.5,200.5 C 130.179,200.334 134.845,200.501 139.5,201C 140.833,205.667 140.833,210.333 139.5,215C 134.864,214.876 130.198,214.71 125.5,214.5C 125.5,209.833 125.5,205.167 125.5,200.5 Z"/></g>
<g><path style="opacity:0.078" fill="#000000" d="M 15.5,226.5 C 18.6248,225.521 21.9581,225.187 25.5,225.5C 25.8266,234.682 25.4933,243.682 24.5,252.5C 24.5,243.833 24.5,235.167 24.5,226.5C 21.5,226.5 18.5,226.5 15.5,226.5 Z"/></g>
<g><path style="opacity:1" fill="#e0e0e0" d="M 15.5,226.5 C 18.5,226.5 21.5,226.5 24.5,226.5C 24.5,235.167 24.5,243.833 24.5,252.5C 20.1586,253.949 15.9919,253.283 12,250.5C 11.3333,243.167 11.3333,235.833 12,228.5C 12.8159,227.177 13.9826,226.511 15.5,226.5 Z"/></g>
<g><path style="opacity:1" fill="#d0d0d0" d="M 125.5,225.5 C 136.013,223.845 141.013,228.345 140.5,239C 141.569,250.097 136.569,254.93 125.5,253.5C 125.5,244.167 125.5,234.833 125.5,225.5 Z"/></g>
<g><path style="opacity:1" fill="#e8e8e8" d="M 150.5,232.5 C 167.833,232.5 185.167,232.5 202.5,232.5C 202.5,237.167 202.5,241.833 202.5,246.5C 185.167,246.5 167.833,246.5 150.5,246.5C 150.5,241.833 150.5,237.167 150.5,232.5 Z"/></g>
<g><path style="opacity:0.114" fill="#000000" d="M 214.5,232.5 C 214.5,253.833 214.5,275.167 214.5,296.5C 240.167,296.5 265.833,296.5 291.5,296.5C 265.672,297.498 239.672,297.831 213.5,297.5C 213.169,275.66 213.503,253.994 214.5,232.5 Z"/></g>
<g><path style="opacity:1" fill="#eaeaea" d="M 214.5,232.5 C 219.167,232.5 223.833,232.5 228.5,232.5C 228.5,240.833 228.5,249.167 228.5,257.5C 244.833,257.5 261.167,257.5 277.5,257.5C 277.5,249.167 277.5,240.833 277.5,232.5C 282.167,232.5 286.833,232.5 291.5,232.5C 291.5,253.833 291.5,275.167 291.5,296.5C 265.833,296.5 240.167,296.5 214.5,296.5C 214.5,275.167 214.5,253.833 214.5,232.5 Z"/></g>
<g><path style="opacity:1" fill="#e3e3e3" d="M 239.5,232.5 C 248.5,232.5 257.5,232.5 266.5,232.5C 266.5,237.167 266.5,241.833 266.5,246.5C 257.5,246.5 248.5,246.5 239.5,246.5C 239.5,241.833 239.5,237.167 239.5,232.5 Z"/></g>
<g><path style="opacity:0.072" fill="#000000" d="M 303.5,232.5 C 303.226,237.263 303.559,241.93 304.5,246.5C 303.195,244.603 302.529,242.269 302.5,239.5C 302.503,236.975 302.837,234.641 303.5,232.5 Z"/></g>
<g><path style="opacity:1" fill="#ebebeb" d="M 303.5,232.5 C 333.5,232.5 363.5,232.5 393.5,232.5C 393.5,237.167 393.5,241.833 393.5,246.5C 363.833,246.5 334.167,246.5 304.5,246.5C 303.559,241.93 303.226,237.263 303.5,232.5 Z"/></g>
<g><path style="opacity:0.078" fill="#000000" d="M 69.5,264.5 C 57.9131,263.889 46.5798,264.556 35.5,266.5C 35.5,265.5 35.5,264.5 35.5,263.5C 47.0123,263.172 58.3456,263.505 69.5,264.5 Z"/></g>
<g><path style="opacity:0.077" fill="#000000" d="M 81.5,264.5 C 92.6544,263.505 103.988,263.172 115.5,263.5C 115.5,266.167 115.5,268.833 115.5,271.5C 114.532,269.393 114.198,267.059 114.5,264.5C 103.5,264.5 92.5,264.5 81.5,264.5 Z"/></g>
<g><path style="opacity:1" fill="#e1e1e1" d="M 69.5,264.5 C 70.6291,266.628 70.7958,268.961 70,271.5C 65.6112,295.776 61.6112,320.109 58,344.5C 56.7031,351.994 55.0365,359.328 53,366.5C 50.1865,365.034 47.3531,363.534 44.5,362C 38.0724,361.693 31.7391,361.526 25.5,361.5C 29.2422,329.893 32.5755,298.227 35.5,266.5C 46.5798,264.556 57.9131,263.889 69.5,264.5 Z"/></g>
<g><path style="opacity:1" fill="#e2e2e2" d="M 81.5,264.5 C 92.5,264.5 103.5,264.5 114.5,264.5C 114.198,267.059 114.532,269.393 115.5,271.5C 118.376,301.848 121.376,332.182 124.5,362.5C 114.834,360.075 105.834,361.408 97.5,366.5C 97.1667,365.833 96.8333,365.167 96.5,364.5C 91.6571,334.451 86.4904,304.451 81,274.5C 80.1925,270.973 80.3592,267.64 81.5,264.5 Z"/></g>
<g><path style="opacity:1" fill="#ececec" d="M 184.5,333.5 C 200.658,334.496 216.991,334.83 233.5,334.5C 233.5,325.833 233.5,317.167 233.5,308.5C 237.833,308.5 242.167,308.5 246.5,308.5C 246.5,329.833 246.5,351.167 246.5,372.5C 220.833,372.5 195.167,372.5 169.5,372.5C 169.5,351.167 169.5,329.833 169.5,308.5C 174.5,308.5 179.5,308.5 184.5,308.5C 184.5,316.833 184.5,325.167 184.5,333.5 Z"/></g>
<g><path style="opacity:1" fill="#e4e4e4" d="M 195.5,308.5 C 204.5,308.5 213.5,308.5 222.5,308.5C 222.5,313.167 222.5,317.833 222.5,322.5C 213.5,322.5 204.5,322.5 195.5,322.5C 195.5,317.833 195.5,313.167 195.5,308.5 Z"/></g>
<g><path style="opacity:0.12" fill="#000000" d="M 233.5,308.5 C 233.5,317.167 233.5,325.833 233.5,334.5C 216.991,334.83 200.658,334.496 184.5,333.5C 200.5,333.5 216.5,333.5 232.5,333.5C 232.174,324.983 232.507,316.65 233.5,308.5 Z"/></g>
<g><path style="opacity:0.166" fill="#000000" d="M 246.5,308.5 C 247.497,329.994 247.831,351.66 247.5,373.5C 221.328,373.831 195.328,373.498 169.5,372.5C 195.167,372.5 220.833,372.5 246.5,372.5C 246.5,351.167 246.5,329.833 246.5,308.5 Z"/></g>
<g><path style="opacity:1" fill="#ededed" d="M 272.5,333.5 C 288.992,334.497 305.658,334.83 322.5,334.5C 322.5,325.833 322.5,317.167 322.5,308.5C 326.833,308.5 331.167,308.5 335.5,308.5C 335.5,329.833 335.5,351.167 335.5,372.5C 309.833,372.5 284.167,372.5 258.5,372.5C 258.5,351.167 258.5,329.833 258.5,308.5C 263.167,308.5 267.833,308.5 272.5,308.5C 272.5,316.833 272.5,325.167 272.5,333.5 Z"/></g>
<g><path style="opacity:1" fill="#e4e4e4" d="M 309.5,308.5 C 310.441,313.07 310.774,317.737 310.5,322.5C 301.5,322.5 292.5,322.5 283.5,322.5C 283.5,317.833 283.5,313.167 283.5,308.5C 292.167,308.5 300.833,308.5 309.5,308.5 Z"/></g>
<g><path style="opacity:0.049" fill="#000000" d="M 309.5,308.5 C 310.805,310.397 311.471,312.731 311.5,315.5C 311.497,318.025 311.163,320.359 310.5,322.5C 310.774,317.737 310.441,313.07 309.5,308.5 Z"/></g>
<g><path style="opacity:0.115" fill="#000000" d="M 322.5,308.5 C 322.5,317.167 322.5,325.833 322.5,334.5C 305.658,334.83 288.992,334.497 272.5,333.5C 288.833,333.5 305.167,333.5 321.5,333.5C 321.174,324.983 321.507,316.65 322.5,308.5 Z"/></g>
<g><path style="opacity:0.145" fill="#000000" d="M 335.5,308.5 C 336.497,329.994 336.831,351.66 336.5,373.5C 310.328,373.831 284.328,373.498 258.5,372.5C 284.167,372.5 309.833,372.5 335.5,372.5C 335.5,351.167 335.5,329.833 335.5,308.5 Z"/></g>
<g><path style="opacity:1" fill="#dfdfdf" d="M 50.5,385.5 C 41.8333,385.5 33.1667,385.5 24.5,385.5C 24.5,383.833 24.5,382.167 24.5,380.5C 24.3284,379.508 24.6618,378.842 25.5,378.5C 26.5,378.167 27.1667,377.5 27.5,376.5C 28.8333,375.833 29.8333,374.833 30.5,373.5C 35.4337,372.092 40.4337,372.259 45.5,374C 49.4929,376.819 51.1596,380.653 50.5,385.5 Z"/></g>
<g><path style="opacity:1" fill="#dadada" d="M 126.5,385.5 C 117.833,385.5 109.167,385.5 100.5,385.5C 100.5,384.5 100.5,383.5 100.5,382.5C 100.433,381.041 100.766,379.708 101.5,378.5C 102.5,378.167 103.167,377.5 103.5,376.5C 104.29,375.206 105.29,374.039 106.5,373C 117.691,369.59 124.691,373.423 127.5,384.5C 127.376,385.107 127.043,385.44 126.5,385.5 Z"/></g>
<g><path style="opacity:0.076" fill="#000000" d="M 30.5,373.5 C 29.8333,374.833 28.8333,375.833 27.5,376.5C 27.5,374.5 28.5,373.5 30.5,373.5 Z"/></g>
<g><path style="opacity:0.073" fill="#000000" d="M 27.5,376.5 C 27.1667,377.5 26.5,378.167 25.5,378.5C 25.5,377.167 26.1667,376.5 27.5,376.5 Z"/></g>
<g><path style="opacity:0.051" fill="#000000" d="M 103.5,376.5 C 103.167,377.5 102.5,378.167 101.5,378.5C 101.5,377.167 102.167,376.5 103.5,376.5 Z"/></g>
<g><path style="opacity:0.05" fill="#000000" d="M 24.5,380.5 C 24.5,382.167 24.5,383.833 24.5,385.5C 33.1667,385.5 41.8333,385.5 50.5,385.5C 41.6822,386.493 32.6822,386.827 23.5,386.5C 23.2053,384.265 23.5386,382.265 24.5,380.5 Z"/></g>
<g><path style="opacity:0.053" fill="#000000" d="M 100.5,382.5 C 100.5,383.5 100.5,384.5 100.5,385.5C 109.167,385.5 117.833,385.5 126.5,385.5C 117.682,386.493 108.682,386.827 99.5,386.5C 99.2322,384.901 99.5655,383.568 100.5,382.5 Z"/></g>
</svg>
