<?xml version="1.0" encoding="UTF-8"?>
<!DOCTYPE svg PUBLIC "-//W3C//DTD SVG 1.1//EN" "http://www.w3.org/Graphics/SVG/1.1/DTD/svg11.dtd">
<svg xmlns="http://www.w3.org/2000/svg" version="1.1" width="402px" height="402px" style="shape-rendering:geometricPrecision; text-rendering:geometricPrecision; image-rendering:optimizeQuality; fill-rule:evenodd; clip-rule:evenodd" xmlns:xlink="http://www.w3.org/1999/xlink">
<g><path style="opacity:0.975" fill="#ededed" d="M 111.5,11.5 C 138.435,9.61497 156.602,21.2816 166,46.5C 166.696,49.4781 167.196,52.4781 167.5,55.5C 175.818,55.9869 177.485,59.4869 172.5,66C 168.514,66.4988 164.514,66.6655 160.5,66.5C 160.822,89.3306 150.156,104.164 128.5,111C 96.6394,113.309 79.9728,98.4753 78.5,66.5C 74.4862,66.6655 70.4862,66.4988 66.5,66C 61.5149,59.4869 63.1815,55.9869 71.5,55.5C 74.7273,31.6076 88.0606,16.9409 111.5,11.5 Z"/></g>
<g><path style="opacity:0.983" fill="#ededed" d="M 34.5,19.5 C 40.3729,19.0295 44.0395,21.6962 45.5,27.5C 52.9032,29.2956 55.4032,33.9623 53,41.5C 51.3523,42.717 49.519,43.5503 47.5,44C 50.7563,60.0382 53.423,76.2048 55.5,92.5C 59.9093,91.6185 63.4093,92.9518 66,96.5C 67.9886,105.43 69.6552,114.43 71,123.5C 75.7981,120.678 80.9648,118.845 86.5,118C 108.5,117.333 130.5,117.333 152.5,118C 168.115,120.947 178.948,129.78 185,144.5C 186.639,178.453 186.972,212.453 186,246.5C 181.368,261.798 171.368,271.798 156,276.5C 155.667,307.167 155.333,337.833 155,368.5C 150.669,378.832 143.169,385.665 132.5,389C 123.5,389.667 114.5,389.667 105.5,389C 94.3333,385.833 87.1667,378.667 84,367.5C 83.6667,337.167 83.3333,306.833 83,276.5C 68.8286,272.328 59.1619,263.328 54,249.5C 45.6721,201.366 37.5054,153.199 29.5,105C 29.6922,100.476 31.8589,97.309 36,95.5C 33.32,72.9169 29.82,50.4169 25.5,28C 26.4511,22.8794 29.4511,20.046 34.5,19.5 Z"/></g>
<g><path style="opacity:0.971" fill="#ededed" d="M 266.5,105.5 C 284.652,104.67 302.652,105.837 320.5,109C 329.035,110.391 336.202,114.225 342,120.5C 344,128.833 344,137.167 342,145.5C 338.613,149.446 334.446,152.28 329.5,154C 301.693,161.86 273.693,162.527 245.5,156C 237.458,154.57 230.958,150.737 226,144.5C 225.333,136.833 225.333,129.167 226,121.5C 229.266,117.245 233.432,114.078 238.5,112C 247.748,108.856 257.082,106.69 266.5,105.5 Z"/></g>
<g><path style="opacity:0.951" fill="#ededed" d="M 226.5,163.5 C 259.191,175.871 292.525,177.705 326.5,169C 331.08,167.362 335.58,165.529 340,163.5C 340.772,163.645 341.439,163.978 342,164.5C 342.667,172.167 342.667,179.833 342,187.5C 339.011,191.491 335.178,194.324 330.5,196C 321.745,199.105 312.745,201.105 303.5,202C 284.686,203.348 266.019,202.348 247.5,199C 239.743,197.206 232.91,193.706 227,188.5C 225.198,180.192 225.031,171.859 226.5,163.5 Z"/></g>
<g><path style="opacity:0.932" fill="#ededed" d="M 226.5,206.5 C 239.034,211.383 252.034,214.55 265.5,216C 265.021,225.216 265.521,234.382 267,243.5C 254.558,243.766 242.724,240.932 231.5,235C 229.291,233.127 227.458,230.96 226,228.5C 225.204,221.087 225.37,213.754 226.5,206.5 Z"/></g>
<g><path style="opacity:0.971" fill="#ededed" d="M 318.5,207.5 C 337.399,206.437 356.066,207.937 374.5,212C 393.68,216.695 399.847,228.529 393,247.5C 389.613,251.446 385.446,254.28 380.5,256C 351.271,264.265 321.937,264.599 292.5,257C 285.994,255.341 280.827,251.841 277,246.5C 276.063,238.063 276.396,229.73 278,221.5C 281.293,218.213 285.127,215.713 289.5,214C 299.116,210.98 308.783,208.813 318.5,207.5 Z"/></g>
<g><path style="opacity:0.933" fill="#ededed" d="M 226.5,248.5 C 231.893,250.02 237.226,251.854 242.5,254C 250.122,255.924 257.788,257.591 265.5,259C 265.023,267.883 265.523,276.717 267,285.5C 253.01,286.46 240.177,282.96 228.5,275C 227.54,273.581 226.707,272.081 226,270.5C 225.204,263.087 225.37,255.754 226.5,248.5 Z"/></g>
<g><path style="opacity:0.951" fill="#ededed" d="M 277.5,265.5 C 310.174,277.908 343.507,279.741 377.5,271C 382.17,269.581 386.67,267.748 391,265.5C 391.772,265.645 392.439,265.978 393,266.5C 393.667,274.167 393.667,281.833 393,289.5C 390.011,293.491 386.178,296.324 381.5,298C 366.43,303.155 350.93,305.321 335,304.5C 318.271,305.472 302.104,302.972 286.5,297C 277.758,293.351 274.425,286.851 276.5,277.5C 276.532,273.419 276.865,269.419 277.5,265.5 Z"/></g>
<g><path style="opacity:0.952" fill="#ededed" d="M 277.5,308.5 C 306.761,318.836 336.761,321.336 367.5,316C 375.535,314.576 383.202,312.076 390.5,308.5C 391.442,308.608 392.275,308.941 393,309.5C 393.667,316.833 393.667,324.167 393,331.5C 388.039,337.731 381.539,341.565 373.5,343C 344.867,349.775 316.534,348.775 288.5,340C 278.657,336.826 274.657,330.16 276.5,320C 276.533,316.085 276.867,312.251 277.5,308.5 Z"/></g>
<g><path style="opacity:0.951" fill="#ededed" d="M 277.5,350.5 C 308.776,362.174 340.776,364.341 373.5,357C 379.488,355.227 385.321,353.06 391,350.5C 392.653,350.82 393.653,351.82 394,353.5C 394.839,360.567 394.506,367.567 393,374.5C 385.582,381.457 376.749,385.623 366.5,387C 345.5,390.333 324.5,390.333 303.5,387C 294.367,385.627 286.2,382.127 279,376.5C 278.581,375.328 277.915,374.328 277,373.5C 276.202,365.754 276.369,358.087 277.5,350.5 Z"/></g>
</svg>
