<?xml version="1.0" encoding="UTF-8"?>
<!DOCTYPE svg PUBLIC "-//W3C//DTD SVG 1.1//EN" "http://www.w3.org/Graphics/SVG/1.1/DTD/svg11.dtd">
<svg xmlns="http://www.w3.org/2000/svg" version="1.1" width="372px" height="432px" style="shape-rendering:geometricPrecision; text-rendering:geometricPrecision; image-rendering:optimizeQuality; fill-rule:evenodd; clip-rule:evenodd" xmlns:xlink="http://www.w3.org/1999/xlink">
<g><path style="opacity:0.931" fill="#ececec" d="M 371.5,300.5 C 371.5,306.5 371.5,312.5 371.5,318.5C 366.821,349.863 350.155,372.53 321.5,386.5C 320.925,396.555 320.092,406.555 319,416.5C 316.438,422.061 312.272,425.894 306.5,428C 209.167,428.667 111.833,428.667 14.5,428C 6.54277,425.545 1.54277,420.379 -0.5,412.5C -0.5,281.167 -0.5,149.833 -0.5,18.5C 1.54277,10.6215 6.54277,5.45483 14.5,3C 93.8333,2.33333 173.167,2.33333 252.5,3C 275,25.5 297.5,48 320,70.5C 320.333,124.5 320.667,178.5 321,232.5C 349.921,246.246 366.754,268.913 371.5,300.5 Z M 18.5,17.5 C 92.5,17.5 166.5,17.5 240.5,17.5C 240.022,38.9248 240.522,60.2581 242,81.5C 242.75,82.1258 243.584,82.6258 244.5,83C 264.838,83.508 285.172,83.3414 305.5,82.5C 305.5,130.833 305.5,179.167 305.5,227.5C 291.326,225.827 277.326,226.327 263.5,229C 265.504,226.159 266.004,222.993 265,219.5C 263.681,217.513 261.848,216.346 259.5,216C 192.109,215.01 124.776,215.344 57.5,217C 54.6061,219.909 53.7728,223.409 55,227.5C 56.214,229.049 57.714,230.215 59.5,231C 125.167,231.333 190.833,231.667 256.5,232C 237.003,240.498 222.336,254.164 212.5,273C 161.167,273.333 109.833,273.667 58.5,274C 53.1667,278.667 53.1667,283.333 58.5,288C 107.832,288.5 157.166,288.667 206.5,288.5C 199.414,325.136 210.414,354.969 239.5,378C 259.68,391.269 281.68,395.769 305.5,391.5C 305.666,397.509 305.499,403.509 305,409.5C 304.5,411.333 303.333,412.5 301.5,413C 207.167,413.667 112.833,413.667 18.5,413C 17.6667,412.167 16.8333,411.333 16,410.5C 14.337,281.247 14.0037,151.914 15,22.5C 15.9973,20.6769 17.1639,19.0103 18.5,17.5 Z M 256.5,29.5 C 269.298,41.798 281.965,54.298 294.5,67C 281.483,67.2883 268.483,67.7883 255.5,68.5C 255.223,55.4632 255.557,42.4632 256.5,29.5 Z M 279.5,241.5 C 325.425,241.593 351.092,264.426 356.5,310C 353.104,346.726 333.437,369.06 297.5,377C 265.025,379.348 241.192,366.181 226,337.5C 213.12,302.539 221.62,274.039 251.5,252C 260.331,246.784 269.664,243.284 279.5,241.5 Z M 287.5,257.5 C 290.974,258.741 293.974,260.741 296.5,263.5C 297.039,266.202 298.372,268.369 300.5,270C 304.786,283.518 302.453,295.852 293.5,307C 292.668,311.239 291.668,315.406 290.5,319.5C 289.07,319.579 287.736,319.246 286.5,318.5C 285.711,315.354 285.045,312.187 284.5,309C 281.959,303.13 278.959,297.63 275.5,292.5C 272.914,285.512 272.914,278.512 275.5,271.5C 279.523,266.741 283.523,262.074 287.5,257.5 Z M 324.5,283.5 C 326.097,284.09 327.431,285.09 328.5,286.5C 332.392,295.157 335.725,303.991 338.5,313C 338.167,313.833 337.833,314.667 337.5,315.5C 331.447,308.004 324.114,306.671 315.5,311.5C 314.365,313.707 313.699,316.04 313.5,318.5C 312.167,318.5 310.833,318.5 309.5,318.5C 311.332,312.755 312.998,306.922 314.5,301C 316.708,295.42 319.042,289.92 321.5,284.5C 322.791,284.737 323.791,284.404 324.5,283.5 Z M 250.5,284.5 C 251.978,284.238 253.311,284.571 254.5,285.5C 255.43,288.397 257.097,290.73 259.5,292.5C 260.5,295 261.5,297.5 262.5,300C 263.77,306.559 264.937,313.059 266,319.5C 261.208,308.725 253.374,305.892 242.5,311C 241.333,312.5 240.167,314 239,315.5C 239.663,310.299 240.829,305.133 242.5,300C 244.982,294.646 247.648,289.48 250.5,284.5 Z M 266.5,292.5 C 268.337,292.639 268.67,293.306 267.5,294.5C 266.702,294.043 266.369,293.376 266.5,292.5 Z M 269.5,300.5 C 271.257,301.084 272.59,302.251 273.5,304C 274.146,307.365 275.313,310.532 277,313.5C 277.495,315.473 277.662,317.473 277.5,319.5C 276.5,319.5 275.5,319.5 274.5,319.5C 273.975,312.832 272.308,306.499 269.5,300.5 Z M 303.5,303.5 C 304.675,303.281 305.675,303.614 306.5,304.5C 305.172,309.154 303.838,313.82 302.5,318.5C 301.264,319.246 299.93,319.579 298.5,319.5C 299.399,313.782 301.065,308.448 303.5,303.5 Z M 261.5,326.5 C 279.833,326.5 298.167,326.5 316.5,326.5C 316.64,328.124 315.973,329.29 314.5,330C 296.503,330.5 278.503,330.667 260.5,330.5C 260.433,329.041 260.766,327.708 261.5,326.5 Z M 265.5,337.5 C 266.746,341.855 265.746,345.855 262.5,349.5C 260.955,350.452 259.288,350.785 257.5,350.5C 257.488,346.494 259.488,344.16 263.5,343.5C 263.259,341.114 263.925,339.114 265.5,337.5 Z M 282.5,337.5 C 286.571,337.234 290.571,337.567 294.5,338.5C 300.343,351.824 296.177,356.824 282,353.5C 280.788,352.224 279.955,350.724 279.5,349C 281.518,345.427 282.518,341.593 282.5,337.5 Z M 309.5,337.5 C 310.833,337.5 312.167,337.5 313.5,337.5C 312.736,342.58 314.736,345.913 319.5,347.5C 318.485,348.681 317.319,349.681 316,350.5C 311.926,347.136 309.759,342.803 309.5,337.5 Z"/></g>
<g><path style="opacity:0.921" fill="#ececec" d="M 60.5,98.5 C 92.5017,98.3334 124.502,98.5 156.5,99C 162.759,103.167 163.092,107.833 157.5,113C 124.833,113.667 92.1667,113.667 59.5,113C 54.1092,107.704 54.4425,102.87 60.5,98.5 Z"/></g>
<g><path style="opacity:0.926" fill="#ececec" d="M 58.5,158.5 C 126.167,158.333 193.834,158.5 261.5,159C 264.366,160.393 265.699,162.726 265.5,166C 265.699,169.274 264.366,171.607 261.5,173C 193.833,173.667 126.167,173.667 58.5,173C 54.7885,170.487 53.6218,166.987 55,162.5C 56.3756,161.295 57.5423,159.962 58.5,158.5 Z"/></g>
<g><path style="opacity:0.757" fill="#ececec" d="M 227.5,330.5 C 229.563,320.593 231.729,310.593 234,300.5C 237.266,293.532 240.433,286.532 243.5,279.5C 248.215,276.703 253.215,276.037 258.5,277.5C 260.362,279.959 262.362,282.293 264.5,284.5C 265.314,286.766 265.814,289.1 266,291.5C 266.169,284.809 266.669,278.142 267.5,271.5C 270.147,266.845 272.814,262.179 275.5,257.5C 278.681,255.408 281.681,253.075 284.5,250.5C 287.167,249.167 289.833,249.167 292.5,250.5C 294.629,253.306 297.295,255.306 300.5,256.5C 301.255,259.517 303.088,261.851 306,263.5C 306.554,265.61 307.388,267.61 308.5,269.5C 309.093,276.165 309.76,282.831 310.5,289.5C 312.926,286.041 315.259,282.541 317.5,279C 320.832,276.705 324.499,276.039 328.5,277C 333.746,282.096 337.913,287.929 341,294.5C 342.753,302.94 344.92,311.273 347.5,319.5C 348.492,323.783 348.826,328.116 348.5,332.5C 346.076,332.808 343.743,332.474 341.5,331.5C 339.164,325.697 335.164,321.697 329.5,319.5C 329.5,318.5 329.5,317.5 329.5,316.5C 326.728,315.629 324.062,315.629 321.5,316.5C 322.833,324.5 322.833,332.5 321.5,340.5C 324.986,341.953 328.653,342.619 332.5,342.5C 332.676,347.331 330.676,350.997 326.5,353.5C 321.114,356.379 315.448,357.046 309.5,355.5C 307.82,354.231 306.653,352.564 306,350.5C 303.864,356.664 299.697,360.497 293.5,362C 288.07,362.638 282.736,362.138 277.5,360.5C 274.635,357.094 272.969,353.094 272.5,348.5C 270.967,350.289 269.967,352.289 269.5,354.5C 263.137,357.223 256.804,357.057 250.5,354C 247.815,350.462 245.815,346.628 244.5,342.5C 248.347,342.619 252.014,341.953 255.5,340.5C 254.167,332.5 254.167,324.5 255.5,316.5C 251.874,316.486 248.54,317.486 245.5,319.5C 241.476,323.19 237.809,327.19 234.5,331.5C 232.314,332.221 230.147,332.887 228,333.5C 227.517,332.552 227.351,331.552 227.5,330.5 Z M 287.5,257.5 C 283.523,262.074 279.523,266.741 275.5,271.5C 272.914,278.512 272.914,285.512 275.5,292.5C 278.959,297.63 281.959,303.13 284.5,309C 285.045,312.187 285.711,315.354 286.5,318.5C 287.736,319.246 289.07,319.579 290.5,319.5C 291.668,315.406 292.668,311.239 293.5,307C 302.453,295.852 304.786,283.518 300.5,270C 298.372,268.369 297.039,266.202 296.5,263.5C 293.974,260.741 290.974,258.741 287.5,257.5 Z M 324.5,283.5 C 323.791,284.404 322.791,284.737 321.5,284.5C 319.042,289.92 316.708,295.42 314.5,301C 312.998,306.922 311.332,312.755 309.5,318.5C 310.833,318.5 312.167,318.5 313.5,318.5C 313.699,316.04 314.365,313.707 315.5,311.5C 324.114,306.671 331.447,308.004 337.5,315.5C 337.833,314.667 338.167,313.833 338.5,313C 335.725,303.991 332.392,295.157 328.5,286.5C 327.431,285.09 326.097,284.09 324.5,283.5 Z M 250.5,284.5 C 247.648,289.48 244.982,294.646 242.5,300C 240.829,305.133 239.663,310.299 239,315.5C 240.167,314 241.333,312.5 242.5,311C 253.374,305.892 261.208,308.725 266,319.5C 264.937,313.059 263.77,306.559 262.5,300C 261.5,297.5 260.5,295 259.5,292.5C 257.097,290.73 255.43,288.397 254.5,285.5C 253.311,284.571 251.978,284.238 250.5,284.5 Z M 266.5,292.5 C 266.369,293.376 266.702,294.043 267.5,294.5C 268.67,293.306 268.337,292.639 266.5,292.5 Z M 269.5,300.5 C 272.308,306.499 273.975,312.832 274.5,319.5C 275.5,319.5 276.5,319.5 277.5,319.5C 277.662,317.473 277.495,315.473 277,313.5C 275.313,310.532 274.146,307.365 273.5,304C 272.59,302.251 271.257,301.084 269.5,300.5 Z M 303.5,303.5 C 301.065,308.448 299.399,313.782 298.5,319.5C 299.93,319.579 301.264,319.246 302.5,318.5C 303.838,313.82 305.172,309.154 306.5,304.5C 305.675,303.614 304.675,303.281 303.5,303.5 Z M 261.5,326.5 C 260.766,327.708 260.433,329.041 260.5,330.5C 278.503,330.667 296.503,330.5 314.5,330C 315.973,329.29 316.64,328.124 316.5,326.5C 298.167,326.5 279.833,326.5 261.5,326.5 Z M 265.5,337.5 C 263.925,339.114 263.259,341.114 263.5,343.5C 259.488,344.16 257.488,346.494 257.5,350.5C 259.288,350.785 260.955,350.452 262.5,349.5C 265.746,345.855 266.746,341.855 265.5,337.5 Z M 282.5,337.5 C 282.518,341.593 281.518,345.427 279.5,349C 279.955,350.724 280.788,352.224 282,353.5C 296.177,356.824 300.343,351.824 294.5,338.5C 290.571,337.567 286.571,337.234 282.5,337.5 Z M 309.5,337.5 C 309.759,342.803 311.926,347.136 316,350.5C 317.319,349.681 318.485,348.681 319.5,347.5C 314.736,345.913 312.736,342.58 313.5,337.5C 312.167,337.5 310.833,337.5 309.5,337.5 Z"/></g>
<g><path style="opacity:0.92" fill="#ececec" d="M 67.5,335.5 C 72.2675,335.191 76.9342,335.691 81.5,337C 86.8333,341 91.5,345.667 95.5,351C 96.7659,351.309 97.9326,351.809 99,352.5C 102.037,351.291 105.204,350.457 108.5,350C 118.849,349.607 129.182,349.607 139.5,350C 143.149,346.594 147.315,344.094 152,342.5C 158.106,343.704 160.439,347.371 159,353.5C 148.742,366.153 135.742,369.82 120,364.5C 111.217,366.126 102.383,366.959 93.5,367C 86.0131,363.852 80.0131,358.852 75.5,352C 71.553,350.367 68.3864,351.533 66,355.5C 64.1426,361.178 60.3093,363.345 54.5,362C 50.1392,359.774 48.6392,356.274 50,351.5C 54.1531,344.174 59.9864,338.84 67.5,335.5 Z"/></g>
</svg>
