<?xml version="1.0" encoding="UTF-8"?>
<!DOCTYPE svg PUBLIC "-//W3C//DTD SVG 1.1//EN" "http://www.w3.org/Graphics/SVG/1.1/DTD/svg11.dtd">
<svg xmlns="http://www.w3.org/2000/svg" version="1.1" width="472px" height="472px" style="shape-rendering:geometricPrecision; text-rendering:geometricPrecision; image-rendering:optimizeQuality; fill-rule:evenodd; clip-rule:evenodd" xmlns:xlink="http://www.w3.org/1999/xlink">
<g><path style="opacity:0.998" fill="#ededed" d="M 209.5,-0.5 C 219.167,-0.5 228.833,-0.5 238.5,-0.5C 252.649,4.3131 262.649,13.6464 268.5,27.5C 267.957,27.56 267.624,27.8933 267.5,28.5C 267.868,30.4867 268.534,31.4867 269.5,31.5C 276.27,57.3355 267.937,76.8355 244.5,90C 236.302,93.3974 227.969,94.5641 219.5,93.5C 219.101,92.4789 217.767,92.1455 215.5,92.5C 215.365,94.9724 216.032,96.3057 217.5,96.5C 220.758,104.044 222.091,112.044 221.5,120.5C 256.795,157.3 292.961,193.966 330,230.5C 330.399,230.272 330.565,229.938 330.5,229.5C 334.222,232.943 336.389,237.277 337,242.5C 337.814,247.02 337.647,251.354 336.5,255.5C 335.388,255.486 335.221,256.486 336,258.5C 336.69,259.738 337.19,259.738 337.5,258.5C 341.025,259.759 344.025,261.759 346.5,264.5C 347.814,266.626 349.981,268.626 353,270.5C 353.399,270.272 353.565,269.938 353.5,269.5C 357.025,270.759 360.025,272.759 362.5,275.5C 361.262,275.81 361.262,276.31 362.5,277C 363.931,277.465 365.097,278.299 366,279.5C 366.399,279.272 366.565,278.938 366.5,278.5C 372.024,281.092 377.024,284.425 381.5,288.5C 380.262,288.81 380.262,289.31 381.5,290C 382.931,290.465 384.097,291.299 385,292.5C 385.399,292.272 385.565,291.938 385.5,291.5C 389.852,293.673 393.852,296.34 397.5,299.5C 396.262,299.81 396.262,300.31 397.5,301C 398.931,301.465 400.097,302.299 401,303.5C 401.399,303.272 401.565,302.938 401.5,302.5C 405.025,303.759 408.025,305.759 410.5,308.5C 409.262,308.81 409.262,309.31 410.5,310C 411.931,310.465 413.097,311.299 414,312.5C 414.399,312.272 414.565,311.938 414.5,311.5C 418.852,313.673 422.852,316.34 426.5,319.5C 425.262,319.81 425.262,320.31 426.5,321C 427.931,321.465 429.097,322.299 430,323.5C 430.399,323.272 430.565,322.938 430.5,322.5C 434.032,323.854 437.198,325.854 440,328.5C 440.278,327.584 440.778,326.918 441.5,326.5C 441.435,326.938 441.601,327.272 442,327.5C 443.298,326.054 443.465,324.721 442.5,323.5C 445.65,314.451 447.317,305.118 447.5,295.5C 446.199,285.843 445.365,276.177 445,266.5C 445.649,263.353 447.482,261.353 450.5,260.5C 450.435,260.938 450.601,261.272 451,261.5C 451.75,260.874 452.584,260.374 453.5,260C 453.272,259.601 452.938,259.435 452.5,259.5C 454.966,258.366 457.633,258.199 460.5,259C 462.32,259.2 463.653,260.034 464.5,261.5C 464.062,261.435 463.728,261.601 463.5,262C 464.333,262.833 465.167,263.667 466,264.5C 466.399,264.272 466.565,263.938 466.5,263.5C 467.117,263.611 467.617,263.944 468,264.5C 469.192,268.623 470.359,272.623 471.5,276.5C 471.5,289.167 471.5,301.833 471.5,314.5C 469.758,322.796 467.092,330.796 463.5,338.5C 461.216,340.956 459.216,344.289 457.5,348.5C 457.624,349.107 457.957,349.44 458.5,349.5C 454.975,355.23 450.975,360.563 446.5,365.5C 446.565,365.062 446.399,364.728 446,364.5C 444.833,365.667 443.667,366.833 442.5,368C 442.728,368.399 443.062,368.565 443.5,368.5C 442.5,371.5 440.5,373.5 437.5,374.5C 437.565,374.062 437.399,373.728 437,373.5C 436.167,374.333 435.333,375.167 434.5,376C 434.728,376.399 435.062,376.565 435.5,376.5C 431.432,380.899 426.765,384.565 421.5,387.5C 421.44,386.957 421.107,386.624 420.5,386.5C 418.188,387.194 416.854,388.194 416.5,389.5C 415.341,391.25 413.674,392.25 411.5,392.5C 411.44,391.957 411.107,391.624 410.5,391.5C 408.188,392.194 406.854,393.194 406.5,394.5C 399.05,399.143 391.05,400.309 382.5,398C 377.626,393.665 376.293,388.498 378.5,382.5C 378.435,382.938 378.601,383.272 379,383.5C 379.374,382.584 379.874,381.75 380.5,381C 380.272,380.601 379.938,380.435 379.5,380.5C 379.511,378.983 380.177,377.816 381.5,377C 388.956,374.437 396.289,371.604 403.5,368.5C 406.697,368.238 409.697,366.738 412.5,364C 412.272,363.601 411.938,363.435 411.5,363.5C 411.842,362.662 412.508,362.328 413.5,362.5C 418.257,360.319 422.59,356.819 426.5,352C 426.272,351.601 425.938,351.435 425.5,351.5C 425.5,350.833 425.5,350.167 425.5,349.5C 426.738,349.19 426.738,348.69 425.5,348C 390.558,324.096 355.891,300.596 321.5,277.5C 316.824,278.035 312.157,278.701 307.5,279.5C 303.189,279.244 299.189,278.244 295.5,276.5C 295.938,276.565 296.272,276.399 296.5,276C 292.726,274.698 289.559,272.531 287,269.5C 286.601,269.728 286.435,270.062 286.5,270.5C 284.973,270.573 283.973,269.906 283.5,268.5C 283.938,268.565 284.272,268.399 284.5,268C 275.712,260.179 267.212,252.012 259,243.5C 258.601,243.728 258.435,244.062 258.5,244.5C 256.973,244.573 255.973,243.906 255.5,242.5C 255.938,242.565 256.272,242.399 256.5,242C 252.667,238.167 248.833,234.333 245,230.5C 244.601,230.728 244.435,231.062 244.5,231.5C 242.973,231.573 241.973,230.906 241.5,229.5C 241.938,229.565 242.272,229.399 242.5,229C 234.237,221.282 226.071,213.449 218,205.5C 217.601,205.728 217.435,206.062 217.5,206.5C 215.596,206.262 214.262,205.262 213.5,203.5C 213.938,203.565 214.272,203.399 214.5,203C 210.667,199.167 206.833,195.333 203,191.5C 202.601,191.728 202.435,192.062 202.5,192.5C 200.973,192.573 199.973,191.906 199.5,190.5C 199.938,190.565 200.272,190.399 200.5,190C 196.667,186.167 192.833,182.333 189,178.5C 188.601,178.728 188.435,179.062 188.5,179.5C 186.956,179.297 185.622,178.63 184.5,177.5C 163.105,203.277 141.938,229.277 121,255.5C 121.537,262.989 123.037,270.323 125.5,277.5C 124.903,277.735 124.57,278.235 124.5,279C 124.836,281.377 125.503,282.877 126.5,283.5C 131.319,297.606 134.985,312.106 137.5,327C 136.954,334.352 134.787,341.185 131,347.5C 115.833,373.167 100.667,398.833 85.5,424.5C 89.691,430.222 93.3576,436.222 96.5,442.5C 96.0618,442.435 95.7284,442.601 95.5,443C 96.1258,443.75 96.6258,444.584 97,445.5C 97.3988,445.272 97.5654,444.938 97.5,444.5C 101.888,455.336 99.2214,464.002 89.5,470.5C 88.0379,469.529 86.7046,469.862 85.5,471.5C 64.1667,471.5 42.8333,471.5 21.5,471.5C 21.5,471.167 21.5,470.833 21.5,470.5C 21.9382,470.565 22.2716,470.399 22.5,470C 18.0689,468.371 14.2356,465.871 11,462.5C 10.6012,462.728 10.4346,463.062 10.5,463.5C 8.5,463.5 7.5,462.5 7.5,460.5C 7.93822,460.565 8.27155,460.399 8.5,460C 6.95118,458.786 5.78451,457.286 5,455.5C 4.31001,454.262 3.81001,454.262 3.5,455.5C 1.89984,453.297 0.56651,450.964 -0.5,448.5C -0.5,439.167 -0.5,429.833 -0.5,420.5C 2.98361,413.534 6.98361,406.868 11.5,400.5C 11.81,401.738 12.31,401.738 13,400.5C 13.3742,399.584 13.8742,398.75 14.5,398C 14.2716,397.601 13.9382,397.435 13.5,397.5C 16.4453,391.896 19.7786,386.562 23.5,381.5C 23.81,382.738 24.31,382.738 25,381.5C 25.3742,380.584 25.8742,379.75 26.5,379C 26.2716,378.601 25.9382,378.435 25.5,378.5C 34.6697,362.821 44.3364,347.488 54.5,332.5C 54.81,333.738 55.31,333.738 56,332.5C 56.3742,331.584 56.8742,330.75 57.5,330C 57.2716,329.601 56.9382,329.435 56.5,329.5C 57.3909,327.391 58.5576,325.391 60,323.5C 60.6667,321.833 60.6667,320.167 60,318.5C 51.8756,297.922 44.0423,277.256 36.5,256.5C 37.0431,256.44 37.3764,256.107 37.5,255.5C 36.8065,253.188 35.8065,251.854 34.5,251.5C 33.6618,251.158 33.3284,250.492 33.5,249.5C 34.4646,248.279 34.298,246.946 33,245.5C 32.6012,245.728 32.4346,246.062 32.5,246.5C 28.4393,237.7 27.7726,228.7 30.5,219.5C 31.9396,216.391 33.9396,212.891 36.5,209C 36.2716,208.601 35.9382,208.435 35.5,208.5C 35.3284,207.508 35.6618,206.842 36.5,206.5C 37.3285,207.332 38.1618,206.999 39,205.5C 40.4578,203.04 42.2911,200.873 44.5,199C 44.2716,198.601 43.9382,198.435 43.5,198.5C 44.7859,195.883 46.4525,193.55 48.5,191.5C 48.4346,191.938 48.6012,192.272 49,192.5C 54.1129,187.303 58.2796,181.97 61.5,176.5C 61.3284,175.508 61.6618,174.842 62.5,174.5C 62.4346,174.938 62.6012,175.272 63,175.5C 65.3824,172.573 67.8824,169.739 70.5,167C 70.2716,166.601 69.9382,166.435 69.5,166.5C 69.427,164.973 70.0937,163.973 71.5,163.5C 71.4346,163.938 71.6012,164.272 72,164.5C 74.3824,161.573 76.8824,158.739 79.5,156C 79.2716,155.601 78.9382,155.435 78.5,155.5C 78.3284,154.508 78.6618,153.842 79.5,153.5C 79.4346,153.938 79.6012,154.272 80,154.5C 81.5,153 83,151.5 84.5,150C 84.2716,149.601 83.9382,149.435 83.5,149.5C 83.3284,148.508 83.6618,147.842 84.5,147.5C 84.4346,147.938 84.6012,148.272 85,148.5C 87.3824,145.573 89.8824,142.739 92.5,140C 92.2716,139.601 91.9382,139.435 91.5,139.5C 91.427,137.973 92.0937,136.973 93.5,136.5C 93.4346,136.938 93.6012,137.272 94,137.5C 96.3824,134.573 98.8824,131.739 101.5,129C 101.272,128.601 100.938,128.435 100.5,128.5C 100.427,126.973 101.094,125.973 102.5,125.5C 103.329,126.332 104.162,125.999 105,124.5C 106.458,122.04 108.291,119.873 110.5,118C 110.272,117.601 109.938,117.435 109.5,117.5C 109.328,116.508 109.662,115.842 110.5,115.5C 110.435,115.938 110.601,116.272 111,116.5C 113.482,113.051 116.315,109.884 119.5,107C 119.272,106.601 118.938,106.435 118.5,106.5C 118.328,105.508 118.662,104.842 119.5,104.5C 119.435,104.938 119.601,105.272 120,105.5C 122.382,102.573 124.882,99.7395 127.5,97C 127.272,96.6012 126.938,96.4346 126.5,96.5C 126.328,95.5084 126.662,94.8417 127.5,94.5C 127.435,94.9382 127.601,95.2716 128,95.5C 131.375,92.2381 133.875,88.9048 135.5,85.5C 135.328,84.5084 135.662,83.8417 136.5,83.5C 136.435,83.9382 136.601,84.2716 137,84.5C 140.251,80.5783 144.084,77.4117 148.5,75C 149.738,74.31 149.738,73.81 148.5,73.5C 158.429,67.8654 169.096,65.6988 180.5,67C 177.266,60.3899 175.932,53.3899 176.5,46C 176.058,39.7801 177.058,33.9468 179.5,28.5C 179.435,28.9382 179.601,29.2716 180,29.5C 181.298,28.0544 181.465,26.7211 180.5,25.5C 180.328,24.5084 180.662,23.8417 181.5,23.5C 181.81,24.7383 182.31,24.7383 183,23.5C 183.374,22.5838 183.874,21.7504 184.5,21C 184.272,20.6012 183.938,20.4346 183.5,20.5C 183.328,19.5084 183.662,18.8417 184.5,18.5C 184.435,18.9382 184.601,19.2716 185,19.5C 188.167,15 192,11.1667 196.5,8C 196.272,7.60123 195.938,7.43456 195.5,7.5C 198.052,5.05682 201.052,3.39015 204.5,2.5C 204.435,2.93822 204.601,3.27155 205,3.5C 205.75,2.87424 206.584,2.37424 207.5,2C 207.272,1.60123 206.938,1.43456 206.5,1.5C 207.5,0.833333 208.5,0.166667 209.5,-0.5 Z"/></g>
<g><path style="opacity:0.569" fill="#aeaeae" d="M 206.5,1.5 C 206.938,1.43456 207.272,1.60123 207.5,2C 206.584,2.37424 205.75,2.87424 205,3.5C 204.601,3.27155 204.435,2.93822 204.5,2.5C 204.842,1.66175 205.508,1.32842 206.5,1.5 Z"/></g>
<g><path style="opacity:0.987" fill="#e8e8e8" d="M 125.5,10.5 C 131.653,9.3467 137.986,9.18003 144.5,10C 150.786,11.7197 153.786,15.8864 153.5,22.5C 152.08,32.9005 146.08,36.9005 135.5,34.5C 131.833,34.3333 128.167,34.1667 124.5,34C 119.257,32.0281 116.59,28.1948 116.5,22.5C 116.599,20.2014 117.266,18.2014 118.5,16.5C 119.625,15.9371 120.959,14.7705 122.5,13C 122.272,12.6012 121.938,12.4346 121.5,12.5C 121.842,11.6618 122.508,11.3284 123.5,11.5C 123.435,11.9382 123.601,12.2716 124,12.5C 124.75,11.8742 125.584,11.3742 126.5,11C 126.272,10.6012 125.938,10.4346 125.5,10.5 Z"/></g>
<g><path style="opacity:0.986" fill="#e8e8e8" d="M 326.5,32.5 C 325.279,31.5354 323.946,31.702 322.5,33C 322.728,33.3988 323.062,33.5654 323.5,33.5C 320.016,34.1654 316.349,34.4987 312.5,34.5C 298.891,36.2272 293.225,30.5606 295.5,17.5C 295.435,17.9382 295.601,18.2716 296,18.5C 297.25,15.8293 299.083,13.6626 301.5,12C 301.272,11.6012 300.938,11.4346 300.5,11.5C 301.263,10.7321 302.263,10.2321 303.5,10C 310.914,9.10968 318.247,9.44301 325.5,11C 333.089,17.9155 333.422,25.0821 326.5,32.5 Z"/></g>
<g><path style="opacity:0.565" fill="#b0b0b0" d="M 125.5,10.5 C 125.938,10.4346 126.272,10.6012 126.5,11C 125.584,11.3742 124.75,11.8742 124,12.5C 123.601,12.2716 123.435,11.9382 123.5,11.5C 123.842,10.6618 124.508,10.3284 125.5,10.5 Z"/></g>
<g><path style="opacity:0.592" fill="#c4c4c4" d="M 195.5,7.5 C 195.938,7.43456 196.272,7.60123 196.5,8C 192,11.1667 188.167,15 185,19.5C 184.601,19.2716 184.435,18.9382 184.5,18.5C 187.167,13.8333 190.833,10.1667 195.5,7.5 Z"/></g>
<g><path style="opacity:0.663" fill="#b8b8b8" d="M 121.5,12.5 C 121.938,12.4346 122.272,12.6012 122.5,13C 120.959,14.7705 119.625,15.9371 118.5,16.5C 118.738,14.5956 119.738,13.2623 121.5,12.5 Z"/></g>
<g><path style="opacity:0.522" fill="#bababa" d="M 300.5,11.5 C 300.938,11.4346 301.272,11.6012 301.5,12C 299.083,13.6626 297.25,15.8293 296,18.5C 295.601,18.2716 295.435,17.9382 295.5,17.5C 296.226,14.7122 297.893,12.7122 300.5,11.5 Z"/></g>
<g><path style="opacity:0.635" fill="#afafaf" d="M 183.5,20.5 C 183.938,20.4346 184.272,20.6012 184.5,21C 183.874,21.7504 183.374,22.5838 183,23.5C 182.31,24.7383 181.81,24.7383 181.5,23.5C 181.932,22.2905 182.599,21.2905 183.5,20.5 Z"/></g>
<g><path style="opacity:0.569" fill="#aeaeae" d="M 180.5,25.5 C 181.465,26.7211 181.298,28.0544 180,29.5C 179.601,29.2716 179.435,28.9382 179.5,28.5C 179.557,27.391 179.89,26.391 180.5,25.5 Z"/></g>
<g><path style="opacity:0.506" fill="#b2b2b2" d="M 268.5,27.5 C 269.234,28.7079 269.567,30.0413 269.5,31.5C 268.534,31.4867 267.868,30.4867 267.5,28.5C 267.624,27.8933 267.957,27.56 268.5,27.5 Z"/></g>
<g><path style="opacity:0.635" fill="#a5a5a5" d="M 326.5,32.5 C 325.609,33.1098 324.609,33.4431 323.5,33.5C 323.062,33.5654 322.728,33.3988 322.5,33C 323.946,31.702 325.279,31.5354 326.5,32.5 Z"/></g>
<g><path style="opacity:0.985" fill="#e8e8e8" d="M 101.5,86.5 C 100.937,85.3748 99.7705,84.0414 98,82.5C 97.6012,82.7284 97.4346,83.0618 97.5,83.5C 93.088,76.9433 93.7546,70.7767 99.5,65C 103.674,62.4123 108.007,60.079 112.5,58C 122.998,55.5668 128.998,59.5668 130.5,70C 129.896,72.5838 129.063,75.0838 128,77.5C 121.974,82.6978 115.141,86.3645 107.5,88.5C 105.201,88.4008 103.201,87.7342 101.5,86.5 Z"/></g>
<g><path style="opacity:0.991" fill="#e7e7e7" d="M 301.5,58.5 C 304.976,57.3567 308.642,57.1901 312.5,58C 317.333,60.5821 322,63.4155 326.5,66.5C 330.473,72.6334 330.473,78.8001 326.5,85C 323.679,87.0008 320.513,88.1674 317,88.5C 311.065,86.9492 305.565,84.4492 300.5,81C 294.239,75.8412 292.906,69.6745 296.5,62.5C 296.435,62.9382 296.601,63.2716 297,63.5C 299.093,61.6213 300.593,59.9546 301.5,58.5 Z"/></g>
<g><path style="opacity:0.702" fill="#b2b2b2" d="M 301.5,58.5 C 300.593,59.9546 299.093,61.6213 297,63.5C 296.601,63.2716 296.435,62.9382 296.5,62.5C 297.585,60.4131 299.251,59.0798 301.5,58.5 Z"/></g>
<g><path style="opacity:0.588" fill="#c8c8c8" d="M 148.5,73.5 C 149.738,73.81 149.738,74.31 148.5,75C 144.084,77.4117 140.251,80.5783 137,84.5C 136.601,84.2716 136.435,83.9382 136.5,83.5C 139.721,79.224 143.721,75.8907 148.5,73.5 Z"/></g>
<g><path style="opacity:0.102" fill="#a8a8a8" d="M 101.5,86.5 C 99.5956,86.2624 98.2623,85.2624 97.5,83.5C 97.4346,83.0618 97.6012,82.7284 98,82.5C 99.7705,84.0414 100.937,85.3748 101.5,86.5 Z"/></g>
<g><path style="opacity:0.506" fill="#c4c4c4" d="M 135.5,85.5 C 133.875,88.9048 131.375,92.2381 128,95.5C 127.601,95.2716 127.435,94.9382 127.5,94.5C 129.942,91.271 132.608,88.271 135.5,85.5 Z"/></g>
<g><path style="opacity:0.733" fill="#a0a0a0" d="M 219.5,93.5 C 218.448,93.3505 217.448,93.5172 216.5,94C 217.252,94.6708 217.586,95.5041 217.5,96.5C 216.032,96.3057 215.365,94.9724 215.5,92.5C 217.767,92.1455 219.101,92.4789 219.5,93.5 Z"/></g>
<g><path style="opacity:0.49" fill="#c7c7c7" d="M 126.5,96.5 C 126.938,96.4346 127.272,96.6012 127.5,97C 124.882,99.7395 122.382,102.573 120,105.5C 119.601,105.272 119.435,104.938 119.5,104.5C 121.372,101.418 123.705,98.7514 126.5,96.5 Z"/></g>
<g><path style="opacity:0.993" fill="#eaeaea" d="M 287.5,105.5 C 292.025,108.642 295.525,113.309 298,119.5C 298.69,120.738 299.19,120.738 299.5,119.5C 300.338,119.842 300.672,120.508 300.5,121.5C 299.957,121.56 299.624,121.893 299.5,122.5C 300.08,125.311 300.746,127.977 301.5,130.5C 300.931,134.812 298.598,137.646 294.5,139C 290.642,139.81 286.976,139.643 283.5,138.5C 281.203,136.254 279.036,133.254 277,129.5C 276.601,129.728 276.435,130.062 276.5,130.5C 272.024,125.903 270.357,120.569 271.5,114.5C 271.435,114.938 271.601,115.272 272,115.5C 272.606,112.452 274.106,109.952 276.5,108C 276.272,107.601 275.938,107.435 275.5,107.5C 276.347,106.034 277.68,105.2 279.5,105C 282.367,104.199 285.034,104.366 287.5,105.5 Z"/></g>
<g><path style="opacity:0.486" fill="#c7c7c7" d="M 118.5,106.5 C 118.938,106.435 119.272,106.601 119.5,107C 116.315,109.884 113.482,113.051 111,116.5C 110.601,116.272 110.435,115.938 110.5,115.5C 112.472,111.895 115.139,108.895 118.5,106.5 Z"/></g>
<g><path style="opacity:0.545" fill="#afafaf" d="M 275.5,107.5 C 275.938,107.435 276.272,107.601 276.5,108C 274.106,109.952 272.606,112.452 272,115.5C 271.601,115.272 271.435,114.938 271.5,114.5C 271.555,111.386 272.888,109.052 275.5,107.5 Z"/></g>
<g><path style="opacity:0.482" fill="#c6c6c6" d="M 287.5,105.5 C 290.195,105.933 292.362,107.266 294,109.5C 296.099,112.7 297.933,116.033 299.5,119.5C 299.19,120.738 298.69,120.738 298,119.5C 295.525,113.309 292.025,108.642 287.5,105.5 Z"/></g>
<g><path style="opacity:0.098" fill="#979797" d="M 221.5,120.5 C 258.167,156.5 294.5,192.833 330.5,229.5C 330.565,229.938 330.399,230.272 330,230.5C 292.961,193.966 256.795,157.3 221.5,120.5 Z"/></g>
<g><path style="opacity:0.475" fill="#c9c9c9" d="M 109.5,117.5 C 109.938,117.435 110.272,117.601 110.5,118C 108.291,119.873 106.458,122.04 105,124.5C 104.162,125.999 103.329,126.332 102.5,125.5C 104.117,122.216 106.45,119.549 109.5,117.5 Z"/></g>
<g><path style="opacity:0.769" fill="#a0a0a0" d="M 300.5,121.5 C 301.403,124.391 301.736,127.391 301.5,130.5C 300.746,127.977 300.08,125.311 299.5,122.5C 299.624,121.893 299.957,121.56 300.5,121.5 Z"/></g>
<g><path style="opacity:0.459" fill="#cecece" d="M 283.5,138.5 C 279.783,137.08 277.45,134.413 276.5,130.5C 276.435,130.062 276.601,129.728 277,129.5C 279.036,133.254 281.203,136.254 283.5,138.5 Z"/></g>
<g><path style="opacity:0.51" fill="#c1c1c1" d="M 100.5,128.5 C 100.938,128.435 101.272,128.601 101.5,129C 98.8824,131.739 96.3824,134.573 94,137.5C 93.6012,137.272 93.4346,136.938 93.5,136.5C 95.3719,133.418 97.7052,130.751 100.5,128.5 Z"/></g>
<g><path style="opacity:0.494" fill="#c6c6c6" d="M 91.5,139.5 C 91.9382,139.435 92.2716,139.601 92.5,140C 89.8824,142.739 87.3824,145.573 85,148.5C 84.6012,148.272 84.4346,147.938 84.5,147.5C 86.3719,144.418 88.7052,141.751 91.5,139.5 Z"/></g>
<g><path style="opacity:0.537" fill="#bfbfbf" d="M 83.5,149.5 C 83.9382,149.435 84.2716,149.601 84.5,150C 83,151.5 81.5,153 80,154.5C 79.6012,154.272 79.4346,153.938 79.5,153.5C 80.5,151.833 81.8333,150.5 83.5,149.5 Z"/></g>
<g><path style="opacity:0.506" fill="#c3c3c3" d="M 78.5,155.5 C 78.9382,155.435 79.2716,155.601 79.5,156C 76.8824,158.739 74.3824,161.573 72,164.5C 71.6012,164.272 71.4346,163.938 71.5,163.5C 73.3719,160.418 75.7052,157.751 78.5,155.5 Z"/></g>
<g><path style="opacity:0.49" fill="#c7c7c7" d="M 69.5,166.5 C 69.9382,166.435 70.2716,166.601 70.5,167C 67.8824,169.739 65.3824,172.573 63,175.5C 62.6012,175.272 62.4346,174.938 62.5,174.5C 64.3719,171.418 66.7052,168.751 69.5,166.5 Z"/></g>
<g><path style="opacity:0.482" fill="#c6c6c6" d="M 61.5,176.5 C 58.2796,181.97 54.1129,187.303 49,192.5C 48.6012,192.272 48.4346,191.938 48.5,191.5C 52.489,186.179 56.8223,181.179 61.5,176.5 Z"/></g>
<g><path style="opacity:0.616" fill="#c1c1c1" d="M 199.5,190.5 C 195.5,187.167 191.833,183.5 188.5,179.5C 188.435,179.062 188.601,178.728 189,178.5C 192.833,182.333 196.667,186.167 200.5,190C 200.272,190.399 199.938,190.565 199.5,190.5 Z"/></g>
<g><path style="opacity:0.616" fill="#c2c2c2" d="M 213.5,203.5 C 209.5,200.167 205.833,196.5 202.5,192.5C 202.435,192.062 202.601,191.728 203,191.5C 206.833,195.333 210.667,199.167 214.5,203C 214.272,203.399 213.938,203.565 213.5,203.5 Z"/></g>
<g><path style="opacity:0.49" fill="#c6c6c6" d="M 43.5,198.5 C 43.9382,198.435 44.2716,198.601 44.5,199C 42.2911,200.873 40.4578,203.04 39,205.5C 38.1618,206.999 37.3285,207.332 36.5,206.5C 38.117,203.216 40.4503,200.549 43.5,198.5 Z"/></g>
<g><path style="opacity:0.455" fill="#cecece" d="M 35.5,208.5 C 35.9382,208.435 36.2716,208.601 36.5,209C 33.9396,212.891 31.9396,216.391 30.5,219.5C 30.8457,215.148 32.5124,211.481 35.5,208.5 Z"/></g>
<g><path style="opacity:0.506" fill="#c5c5c5" d="M 241.5,229.5 C 233.074,222.285 225.074,214.619 217.5,206.5C 217.435,206.062 217.601,205.728 218,205.5C 226.071,213.449 234.237,221.282 242.5,229C 242.272,229.399 241.938,229.565 241.5,229.5 Z"/></g>
<g><path style="opacity:0.997" fill="#ececec" d="M 185.5,236.5 C 184.262,236.81 184.262,237.31 185.5,238C 188.912,239.455 192.079,241.288 195,243.5C 195.399,243.272 195.565,242.938 195.5,242.5C 197.674,242.75 199.341,243.75 200.5,245.5C 205.187,248.858 210.353,252.524 216,256.5C 216.399,256.272 216.565,255.938 216.5,255.5C 220.467,258.313 223.634,261.979 226,266.5C 236.971,303.384 247.471,340.384 257.5,377.5C 256.475,377.897 256.308,378.563 257,379.5C 257.977,380.774 258.811,380.774 259.5,379.5C 268.726,381.389 277.726,383.722 286.5,386.5C 287.479,388.02 289.313,389.353 292,390.5C 292.399,390.272 292.565,389.938 292.5,389.5C 294.404,389.738 295.738,390.738 296.5,392.5C 296.062,392.435 295.728,392.601 295.5,393C 299.842,397.121 303.176,401.288 305.5,405.5C 310.703,422.721 305.703,436.221 290.5,446C 287.343,447.578 284.009,448.578 280.5,449C 259.833,449.667 239.167,449.667 218.5,449C 214.509,448.502 210.842,447.335 207.5,445.5C 207.938,445.565 208.272,445.399 208.5,445C 205.217,443.439 202.383,441.273 200,438.5C 199.601,438.728 199.435,439.062 199.5,439.5C 198.167,439.5 197.5,438.833 197.5,437.5C 197.938,437.565 198.272,437.399 198.5,437C 197.667,436.167 196.833,435.333 196,434.5C 195.601,434.728 195.435,435.062 195.5,435.5C 194.094,435.027 193.427,434.027 193.5,432.5C 193.938,432.565 194.272,432.399 194.5,432C 193.353,429.313 192.02,427.479 190.5,426.5C 189.037,423.797 188.204,420.797 188,417.5C 187.667,411.833 187.333,406.167 187,400.5C 179.004,368.671 170.17,337.171 160.5,306C 157.751,304.877 155.251,303.377 153,301.5C 149.496,288.148 145.996,274.815 142.5,261.5C 144.454,257.344 147.121,253.51 150.5,250C 150.272,249.601 149.938,249.435 149.5,249.5C 149.427,247.973 150.094,246.973 151.5,246.5C 152.329,247.332 153.162,246.999 154,245.5C 155.122,243.376 156.622,241.543 158.5,240C 158.272,239.601 157.938,239.435 157.5,239.5C 157.427,237.973 158.094,236.973 159.5,236.5C 160.329,237.332 161.162,236.999 162,235.5C 163.122,233.376 164.622,231.543 166.5,230C 166.272,229.601 165.938,229.435 165.5,229.5C 165.722,226.924 167.055,226.09 169.5,227C 175.062,229.941 180.395,233.108 185.5,236.5 Z"/></g>
<g><path style="opacity:0.502" fill="#c1c1c1" d="M 165.5,229.5 C 165.938,229.435 166.272,229.601 166.5,230C 164.622,231.543 163.122,233.376 162,235.5C 161.162,236.999 160.329,237.332 159.5,236.5C 160.8,233.568 162.8,231.234 165.5,229.5 Z"/></g>
<g><path style="opacity:0.612" fill="#c2c2c2" d="M 255.5,242.5 C 251.5,239.167 247.833,235.5 244.5,231.5C 244.435,231.062 244.601,230.728 245,230.5C 248.833,234.333 252.667,238.167 256.5,242C 256.272,242.399 255.938,242.565 255.5,242.5 Z"/></g>
<g><path style="opacity:0.078" fill="#c8c8c8" d="M 185.5,236.5 C 189.201,238.012 192.534,240.012 195.5,242.5C 195.565,242.938 195.399,243.272 195,243.5C 192.079,241.288 188.912,239.455 185.5,238C 184.262,237.31 184.262,236.81 185.5,236.5 Z"/></g>
<g><path style="opacity:0.506" fill="#bfbfbf" d="M 157.5,239.5 C 157.938,239.435 158.272,239.601 158.5,240C 156.622,241.543 155.122,243.376 154,245.5C 153.162,246.999 152.329,247.332 151.5,246.5C 152.8,243.568 154.8,241.234 157.5,239.5 Z"/></g>
<g><path style="opacity:0.078" fill="#c9c9c9" d="M 200.5,245.5 C 206.514,247.835 211.848,251.169 216.5,255.5C 216.565,255.938 216.399,256.272 216,256.5C 210.353,252.524 205.187,248.858 200.5,245.5 Z"/></g>
<g><path style="opacity:0.62" fill="#ababab" d="M 33.5,249.5 C 32.8902,248.609 32.5569,247.609 32.5,246.5C 32.4346,246.062 32.6012,245.728 33,245.5C 34.298,246.946 34.4646,248.279 33.5,249.5 Z"/></g>
<g><path style="opacity:0.608" fill="#c2c2c2" d="M 283.5,268.5 C 274.549,261.182 266.216,253.182 258.5,244.5C 258.435,244.062 258.601,243.728 259,243.5C 267.212,252.012 275.712,260.179 284.5,268C 284.272,268.399 283.938,268.565 283.5,268.5 Z"/></g>
<g><path style="opacity:0.533" fill="#bebebe" d="M 36.5,256.5 C 35.5592,254.95 34.8925,253.284 34.5,251.5C 35.8065,251.854 36.8065,253.188 37.5,255.5C 37.3764,256.107 37.0431,256.44 36.5,256.5 Z"/></g>
<g><path style="opacity:0.678" fill="#b2b2b2" d="M 149.5,249.5 C 149.938,249.435 150.272,249.601 150.5,250C 147.121,253.51 144.454,257.344 142.5,261.5C 143.1,256.549 145.433,252.549 149.5,249.5 Z"/></g>
<g><path style="opacity:0.671" fill="#aaaaaa" d="M 336.5,255.5 C 336.557,256.609 336.89,257.609 337.5,258.5C 337.19,259.738 336.69,259.738 336,258.5C 335.221,256.486 335.388,255.486 336.5,255.5 Z"/></g>
<g><path style="opacity:0.557" fill="#b2b2b2" d="M 452.5,259.5 C 452.938,259.435 453.272,259.601 453.5,260C 452.584,260.374 451.75,260.874 451,261.5C 450.601,261.272 450.435,260.938 450.5,260.5C 450.842,259.662 451.508,259.328 452.5,259.5 Z"/></g>
<g><path style="opacity:0.133" fill="#868686" d="M 464.5,261.5 C 465.5,261.833 466.167,262.5 466.5,263.5C 466.565,263.938 466.399,264.272 466,264.5C 465.167,263.667 464.333,262.833 463.5,262C 463.728,261.601 464.062,261.435 464.5,261.5 Z"/></g>
<g><path style="opacity:0.522" fill="#c0c0c0" d="M 346.5,264.5 C 349.117,265.786 351.45,267.453 353.5,269.5C 353.565,269.938 353.399,270.272 353,270.5C 349.981,268.626 347.814,266.626 346.5,264.5 Z"/></g>
<g><path style="opacity:0.502" fill="#b7b7b7" d="M 295.5,276.5 C 291.63,275.737 288.63,273.737 286.5,270.5C 286.435,270.062 286.601,269.728 287,269.5C 289.559,272.531 292.726,274.698 296.5,276C 296.272,276.399 295.938,276.565 295.5,276.5 Z"/></g>
<g><path style="opacity:0.094" fill="#b0b0b0" d="M 362.5,275.5 C 364.23,276.026 365.564,277.026 366.5,278.5C 366.565,278.938 366.399,279.272 366,279.5C 365.097,278.299 363.931,277.465 362.5,277C 361.262,276.31 361.262,275.81 362.5,275.5 Z"/></g>
<g><path style="opacity:0.467" fill="#bcbcbc" d="M 125.5,277.5 C 126.15,279.435 126.483,281.435 126.5,283.5C 125.503,282.877 124.836,281.377 124.5,279C 124.57,278.235 124.903,277.735 125.5,277.5 Z"/></g>
<g><path style="opacity:0.078" fill="#bdbdbd" d="M 381.5,288.5 C 383.23,289.026 384.564,290.026 385.5,291.5C 385.565,291.938 385.399,292.272 385,292.5C 384.097,291.299 382.931,290.465 381.5,290C 380.262,289.31 380.262,288.81 381.5,288.5 Z"/></g>
<g><path style="opacity:0.482" fill="#cacaca" d="M 425.5,349.5 C 390.448,325.981 355.781,301.981 321.5,277.5C 355.891,300.596 390.558,324.096 425.5,348C 426.738,348.69 426.738,349.19 425.5,349.5 Z"/></g>
<g><path style="opacity:0.078" fill="#bdbdbd" d="M 397.5,299.5 C 399.23,300.026 400.564,301.026 401.5,302.5C 401.565,302.938 401.399,303.272 401,303.5C 400.097,302.299 398.931,301.465 397.5,301C 396.262,300.31 396.262,299.81 397.5,299.5 Z"/></g>
<g><path style="opacity:0.086" fill="#b3b3b3" d="M 410.5,308.5 C 412.23,309.026 413.564,310.026 414.5,311.5C 414.565,311.938 414.399,312.272 414,312.5C 413.097,311.299 411.931,310.465 410.5,310C 409.262,309.31 409.262,308.81 410.5,308.5 Z"/></g>
<g><path style="opacity:0.086" fill="#b6b6b6" d="M 426.5,319.5 C 428.23,320.026 429.564,321.026 430.5,322.5C 430.565,322.938 430.399,323.272 430,323.5C 429.097,322.299 427.931,321.465 426.5,321C 425.262,320.31 425.262,319.81 426.5,319.5 Z"/></g>
<g><path style="opacity:0.533" fill="#b2b2b2" d="M 442.5,323.5 C 443.465,324.721 443.298,326.054 442,327.5C 441.601,327.272 441.435,326.938 441.5,326.5C 441.557,325.391 441.89,324.391 442.5,323.5 Z"/></g>
<g><path style="opacity:0.682" fill="#acacac" d="M 56.5,329.5 C 56.9382,329.435 57.2716,329.601 57.5,330C 56.8742,330.75 56.3742,331.584 56,332.5C 55.31,333.738 54.81,333.738 54.5,332.5C 54.9321,331.29 55.5987,330.29 56.5,329.5 Z"/></g>
<g><path style="opacity:0.514" fill="#c8c8c8" d="M 463.5,338.5 C 462.105,342.29 460.438,345.957 458.5,349.5C 457.957,349.44 457.624,349.107 457.5,348.5C 459.216,344.289 461.216,340.956 463.5,338.5 Z"/></g>
<g><path style="opacity:0.624" fill="#bababa" d="M 425.5,351.5 C 425.938,351.435 426.272,351.601 426.5,352C 422.59,356.819 418.257,360.319 413.5,362.5C 417.474,358.862 421.474,355.195 425.5,351.5 Z"/></g>
<g><path style="opacity:0.569" fill="#bebebe" d="M 411.5,363.5 C 411.938,363.435 412.272,363.601 412.5,364C 409.697,366.738 406.697,368.238 403.5,368.5C 406.131,366.847 408.797,365.181 411.5,363.5 Z"/></g>
<g><path style="opacity:0.102" fill="#a1a1a1" d="M 446.5,365.5 C 445.833,366.833 444.833,367.833 443.5,368.5C 443.062,368.565 442.728,368.399 442.5,368C 443.667,366.833 444.833,365.667 446,364.5C 446.399,364.728 446.565,365.062 446.5,365.5 Z"/></g>
<g><path style="opacity:0.086" fill="#aaaaaa" d="M 437.5,374.5 C 437.167,375.5 436.5,376.167 435.5,376.5C 435.062,376.565 434.728,376.399 434.5,376C 435.333,375.167 436.167,374.333 437,373.5C 437.399,373.728 437.565,374.062 437.5,374.5 Z"/></g>
<g><path style="opacity:0.706" fill="#9b9b9b" d="M 257.5,377.5 C 257.833,378.5 258.5,379.167 259.5,379.5C 258.811,380.774 257.977,380.774 257,379.5C 256.308,378.563 256.475,377.897 257.5,377.5 Z"/></g>
<g><path style="opacity:0.663" fill="#b1b1b1" d="M 25.5,378.5 C 25.9382,378.435 26.2716,378.601 26.5,379C 25.8742,379.75 25.3742,380.584 25,381.5C 24.31,382.738 23.81,382.738 23.5,381.5C 23.9321,380.29 24.5987,379.29 25.5,378.5 Z"/></g>
<g><path style="opacity:0.627" fill="#a0a0a0" d="M 379.5,380.5 C 379.938,380.435 380.272,380.601 380.5,381C 379.874,381.75 379.374,382.584 379,383.5C 378.601,383.272 378.435,382.938 378.5,382.5C 378.328,381.508 378.662,380.842 379.5,380.5 Z"/></g>
<g><path style="opacity:0.604" fill="#b3b3b3" d="M 286.5,386.5 C 288.819,386.992 290.819,387.992 292.5,389.5C 292.565,389.938 292.399,390.272 292,390.5C 289.313,389.353 287.479,388.02 286.5,386.5 Z"/></g>
<g><path style="opacity:0.51" fill="#c3c3c3" d="M 421.5,387.5 C 419.95,388.441 418.284,389.107 416.5,389.5C 416.854,388.194 418.188,387.194 420.5,386.5C 421.107,386.624 421.44,386.957 421.5,387.5 Z"/></g>
<g><path style="opacity:0.573" fill="#b8b8b8" d="M 411.5,392.5 C 409.95,393.441 408.284,394.107 406.5,394.5C 406.854,393.194 408.188,392.194 410.5,391.5C 411.107,391.624 411.44,391.957 411.5,392.5 Z"/></g>
<g><path style="opacity:0.494" fill="#b5b5b5" d="M 296.5,392.5 C 301.223,395.604 304.223,399.938 305.5,405.5C 303.176,401.288 299.842,397.121 295.5,393C 295.728,392.601 296.062,392.435 296.5,392.5 Z"/></g>
<g><path style="opacity:0.667" fill="#b1b1b1" d="M 13.5,397.5 C 13.9382,397.435 14.2716,397.601 14.5,398C 13.8742,398.75 13.3742,399.584 13,400.5C 12.31,401.738 11.81,401.738 11.5,400.5C 11.9321,399.29 12.5987,398.29 13.5,397.5 Z"/></g>
<g><path style="opacity:0.6" fill="#b2b2b2" d="M 193.5,432.5 C 191.992,430.819 190.992,428.819 190.5,426.5C 192.02,427.479 193.353,429.313 194.5,432C 194.272,432.399 193.938,432.565 193.5,432.5 Z"/></g>
<g><path style="opacity:0.118" fill="#989898" d="M 197.5,437.5 C 196.5,437.167 195.833,436.5 195.5,435.5C 195.435,435.062 195.601,434.728 196,434.5C 196.833,435.333 197.667,436.167 198.5,437C 198.272,437.399 197.938,437.565 197.5,437.5 Z"/></g>
<g><path style="opacity:0.078" fill="#acacac" d="M 96.5,442.5 C 97.3382,442.842 97.6716,443.508 97.5,444.5C 97.5654,444.938 97.3988,445.272 97,445.5C 96.6258,444.584 96.1258,443.75 95.5,443C 95.7284,442.601 96.0618,442.435 96.5,442.5 Z"/></g>
<g><path style="opacity:0.51" fill="#bdbdbd" d="M 207.5,445.5 C 204.109,444.471 201.443,442.471 199.5,439.5C 199.435,439.062 199.601,438.728 200,438.5C 202.383,441.273 205.217,443.439 208.5,445C 208.272,445.399 207.938,445.565 207.5,445.5 Z"/></g>
<g><path style="opacity:0.549" fill="#b8b8b8" d="M 7.5,460.5 C 5.45703,459.421 4.1237,457.754 3.5,455.5C 3.81001,454.262 4.31001,454.262 5,455.5C 5.78451,457.286 6.95118,458.786 8.5,460C 8.27155,460.399 7.93822,460.565 7.5,460.5 Z"/></g>
<g><path style="opacity:0.475" fill="#bdbdbd" d="M 21.5,470.5 C 16.9777,469.411 13.311,467.078 10.5,463.5C 10.4346,463.062 10.6012,462.728 11,462.5C 14.2356,465.871 18.0689,468.371 22.5,470C 22.2716,470.399 21.9382,470.565 21.5,470.5 Z"/></g>
<g><path style="opacity:0.6" fill="#afafaf" d="M 89.5,470.5 C 88.8333,470.5 88.5,470.833 88.5,471.5C 87.5,471.5 86.5,471.5 85.5,471.5C 86.7046,469.862 88.0379,469.529 89.5,470.5 Z"/></g>
</svg>
