<?xml version="1.0" encoding="UTF-8"?>
<!DOCTYPE svg PUBLIC "-//W3C//DTD SVG 1.1//EN" "http://www.w3.org/Graphics/SVG/1.1/DTD/svg11.dtd">
<svg xmlns="http://www.w3.org/2000/svg" version="1.1" width="380px" height="360px" style="shape-rendering:geometricPrecision; text-rendering:geometricPrecision; image-rendering:optimizeQuality; fill-rule:evenodd; clip-rule:evenodd" xmlns:xlink="http://www.w3.org/1999/xlink">
<g><path style="opacity:0.95" fill="#ebebeb" d="M 180.5,0.5 C 198.745,-1.81039 213.911,3.85627 226,17.5C 237.845,35.377 238.512,53.7104 228,72.5C 213.884,90.5769 195.718,96.4103 173.5,90C 151.379,79.9293 141.545,62.7626 144,38.5C 148.567,18.4346 160.734,5.76793 180.5,0.5 Z M 188.5,11.5 C 190.17,11.7512 191.67,12.4178 193,13.5C 193.333,16.8333 193.667,20.1667 194,23.5C 200.507,26.5223 203.34,31.5223 202.5,38.5C 200.878,40.4386 199.044,40.772 197,39.5C 196.377,32.8606 192.877,30.0273 186.5,31C 182.5,34.6667 182.5,38.3333 186.5,42C 200.63,43.104 205.463,50.2707 201,63.5C 199.079,65.9634 196.746,67.9634 194,69.5C 193.667,72.8333 193.333,76.1667 193,79.5C 190.047,81.8872 187.714,81.2205 186,77.5C 185.667,74.8333 185.333,72.1667 185,69.5C 177.985,66.1373 175.318,60.804 177,53.5C 181.906,52.0534 184.239,54.0534 184,59.5C 187.667,63.5 191.333,63.5 195,59.5C 196.123,56.0437 195.29,53.2103 192.5,51C 182.814,50.83 177.147,45.9967 175.5,36.5C 176.249,30.3114 179.416,25.9781 185,23.5C 184.878,19.0331 186.045,15.0331 188.5,11.5 Z"/></g>
<g><path style="opacity:0.955" fill="#ebebeb" d="M 131.5,35.5 C 133.144,35.2865 134.644,35.6198 136,36.5C 134.183,52.2337 137.85,66.567 147,79.5C 151.202,83.3666 155.035,87.5332 158.5,92C 136.086,93.1569 113.586,93.6569 91,93.5C 68.1054,93.6516 45.2721,93.1516 22.5,92C 23.8333,91.3333 24.8333,90.3333 25.5,89C 61.0497,71.3922 96.3831,53.5589 131.5,35.5 Z"/></g>
<g><path style="opacity:0.955" fill="#ebebeb" d="M 243.5,35.5 C 244.873,35.3433 246.207,35.51 247.5,36C 282.833,53.6667 318.167,71.3333 353.5,89C 354.167,90.3333 355.167,91.3333 356.5,92C 311.892,93.6509 267.226,93.9843 222.5,93C 220.314,92.3964 220.148,91.2297 222,89.5C 238.494,75.1784 245.661,57.1784 243.5,35.5 Z"/></g>
<g><path style="opacity:0.958" fill="#ebebeb" d="M 23.5,109.5 C 134.167,109.333 244.834,109.5 355.5,110C 356.649,118.421 356.816,126.921 356,135.5C 245.236,136.665 134.403,136.832 23.5,136C 22.18,127.167 22.18,118.333 23.5,109.5 Z"/></g>
<g><path style="opacity:0.879" fill="#ebebeb" d="M 47.5,144.5 C 64.8365,144.333 82.1699,144.5 99.5,145C 100.61,147.737 100.777,150.571 100,153.5C 82.5738,154.658 65.0738,154.825 47.5,154C 46.208,150.835 46.208,147.668 47.5,144.5 Z"/></g>
<g><path style="opacity:0.879" fill="#ebeceb" d="M 163.5,144.5 C 180.837,144.333 198.17,144.5 215.5,145C 216.61,147.737 216.777,150.571 216,153.5C 198.574,154.658 181.074,154.825 163.5,154C 162.208,150.835 162.208,147.668 163.5,144.5 Z"/></g>
<g><path style="opacity:0.879" fill="#ebeceb" d="M 279.5,144.5 C 296.837,144.333 314.17,144.5 331.5,145C 332.61,147.737 332.777,150.571 332,153.5C 314.574,154.658 297.074,154.825 279.5,154C 278.208,150.835 278.208,147.668 279.5,144.5 Z"/></g>
<g><path style="opacity:0.973" fill="#ebebeb" d="M 55.5,162.5 C 67.747,162.178 79.9136,162.512 92,163.5C 98.0744,207.761 103.741,252.094 109,296.5C 109.784,299.76 109.617,302.927 108.5,306C 84.9274,306.827 61.4274,306.66 38,305.5C 42.769,257.682 48.6023,210.015 55.5,162.5 Z"/></g>
<g><path style="opacity:0.973" fill="#ebebeb" d="M 171.5,162.5 C 183.747,162.178 195.914,162.512 208,163.5C 214.16,209.449 219.994,255.449 225.5,301.5C 225.449,303.1 225.116,304.6 224.5,306C 200.927,306.827 177.427,306.66 154,305.5C 154.752,291.81 156.085,278.143 158,264.5C 162.015,230.376 166.515,196.376 171.5,162.5 Z"/></g>
<g><path style="opacity:0.973" fill="#ebebeb" d="M 287.5,162.5 C 299.747,162.178 311.914,162.512 324,163.5C 330.198,209.611 336.031,255.778 341.5,302C 341.441,303.436 341.108,304.769 340.5,306C 316.927,306.827 293.427,306.66 270,305.5C 269.333,302.5 269.333,299.5 270,296.5C 275.186,251.679 281.019,207.012 287.5,162.5 Z"/></g>
<g><path style="opacity:0.917" fill="#ebeceb" d="M 23.5,313.5 C 57.1683,313.333 90.835,313.5 124.5,314C 125.629,318.079 125.796,322.245 125,326.5C 91.2382,327.662 57.4048,327.829 23.5,327C 22.1943,322.501 22.1943,318.001 23.5,313.5 Z"/></g>
<g><path style="opacity:0.917" fill="#ebeceb" d="M 139.5,313.5 C 172.835,313.333 206.168,313.5 239.5,314C 241.045,315.822 241.712,317.989 241.5,320.5C 241.712,323.011 241.045,325.178 239.5,327C 206.167,327.667 172.833,327.667 139.5,327C 136.867,322.501 136.867,318.001 139.5,313.5 Z"/></g>
<g><path style="opacity:0.917" fill="#ebeceb" d="M 254.5,313.5 C 288.168,313.333 321.835,313.5 355.5,314C 356.629,318.079 356.796,322.245 356,326.5C 322.572,327.662 289.072,327.829 255.5,327C 253.217,322.712 252.884,318.212 254.5,313.5 Z"/></g>
<g><path style="opacity:0.954" fill="#ebebeb" d="M 2.5,334.5 C 127.167,334.333 251.834,334.5 376.5,335C 377.647,342.42 377.813,349.92 377,357.5C 252.236,358.665 127.403,358.832 2.5,358C 1.1818,350.167 1.1818,342.334 2.5,334.5 Z"/></g>
</svg>
