<?xml version="1.0" encoding="UTF-8"?>
<!DOCTYPE svg PUBLIC "-//W3C//DTD SVG 1.1//EN" "http://www.w3.org/Graphics/SVG/1.1/DTD/svg11.dtd">
<svg xmlns="http://www.w3.org/2000/svg" version="1.1" width="280px" height="280px" style="shape-rendering:geometricPrecision; text-rendering:geometricPrecision; image-rendering:optimizeQuality; fill-rule:evenodd; clip-rule:evenodd" xmlns:xlink="http://www.w3.org/1999/xlink">
<g><path style="opacity:0.988" fill="#e5e8f1" d="M 103.5,1.5 C 104.601,2.84839 105.601,4.34839 106.5,6C 107.448,6.48278 108.448,6.64945 109.5,6.5C 111.099,6.23219 112.432,6.56552 113.5,7.5C 112.524,8.81486 111.524,10.1482 110.5,11.5C 111.127,12.4168 111.461,13.4168 111.5,14.5C 111.414,15.4959 111.748,16.3292 112.5,17C 111.906,17.4643 111.239,17.631 110.5,17.5C 109.178,17.67 108.011,17.3366 107,16.5C 105.629,18.0414 104.129,19.3747 102.5,20.5C 101.833,18.1667 101.167,15.8333 100.5,13.5C 99.0413,13.5674 97.7079,13.2341 96.5,12.5C 96.3893,11.8826 96.056,11.3826 95.5,11C 96.7375,10.7679 97.7375,10.2679 98.5,9.5C 99.8333,9.5 101.167,9.5 102.5,9.5C 102.194,6.61456 102.527,3.9479 103.5,1.5 Z"/></g>
<g><path style="opacity:0.42" fill="#a6b3d1" d="M 188.5,3.5 C 189.1,4.89992 190.1,5.89992 191.5,6.5C 188.784,6.3215 186.117,5.8215 183.5,5C 184.905,3.73082 186.571,3.23082 188.5,3.5 Z"/></g>
<g><path style="opacity:0.987" fill="#e0e3ef" d="M 219.5,21.5 C 219.427,23.0269 220.094,24.0269 221.5,24.5C 222.5,24.8333 223.167,25.5 223.5,26.5C 223.414,27.4959 223.748,28.3292 224.5,29C 223.552,29.4828 222.552,29.6495 221.5,29.5C 216.308,28.6583 211.141,28.6583 206,29.5C 201.995,29.0081 198.162,28.3414 194.5,27.5C 192.485,26.0762 190.152,25.4095 187.5,25.5C 184.669,24.9213 182.336,23.588 180.5,21.5C 180.842,20.6618 181.508,20.3284 182.5,20.5C 191.584,20.1956 200.584,20.5289 209.5,21.5C 211.65,22.6701 213.984,23.6701 216.5,24.5C 217.696,24.1543 217.696,23.6543 216.5,23C 214.807,22.1534 213.14,21.3201 211.5,20.5C 208.63,19.5667 206.296,17.9 204.5,15.5C 204.027,14.0937 203.027,13.427 201.5,13.5C 198.143,11.1342 194.81,8.80084 191.5,6.5C 190.1,5.89992 189.1,4.89992 188.5,3.5C 202.661,2.4269 212.994,8.4269 219.5,21.5 Z"/></g>
<g><path style="opacity:0.016" fill="#7282b5" d="M 113.5,7.5 C 112.432,6.56552 111.099,6.23219 109.5,6.5C 110.997,5.69423 112.664,5.02756 114.5,4.5C 115.665,5.85953 115.332,6.85953 113.5,7.5 Z"/></g>
<g><path style="opacity:0.016" fill="#92a3c8" d="M 103.5,1.5 C 102.527,3.9479 102.194,6.61456 102.5,9.5C 101.167,9.5 99.8333,9.5 98.5,9.5C 99.209,8.59603 100.209,8.26269 101.5,8.5C 101.187,5.75312 101.52,3.08645 102.5,0.5C 103.107,0.62358 103.44,0.956913 103.5,1.5 Z"/></g>
<g><path style="opacity:0.016" fill="#6e82b4" d="M 215.5,7.5 C 214.508,7.32842 213.842,7.66175 213.5,8.5C 211.577,8.20505 209.91,7.37171 208.5,6C 211.139,5.41187 213.473,5.91187 215.5,7.5 Z"/></g>
<g><path style="opacity:0.997" fill="#e6e9f2" d="M 196.5,13.5 C 196.414,14.4959 196.748,15.3292 197.5,16C 192.177,16.4994 186.844,16.666 181.5,16.5C 179.485,15.0762 177.152,14.4095 174.5,14.5C 169.846,13.6708 165.18,12.8375 160.5,12C 169.435,5.01279 179.102,4.01279 189.5,9C 191.862,10.5106 194.195,12.0106 196.5,13.5 Z"/></g>
<g><path style="opacity:0.42" fill="#7b89b9" d="M 213.5,8.5 C 216.167,9.16667 217.833,10.8333 218.5,13.5C 216.5,12.1667 214.833,10.5 213.5,8.5 Z"/></g>
<g><path style="opacity:0.993" fill="#e6e9f2" d="M 213.5,8.5 C 213.842,7.66175 214.508,7.32842 215.5,7.5C 220.718,8.77572 225.385,11.1091 229.5,14.5C 229.5,15.8333 230.167,16.5 231.5,16.5C 231.427,18.0269 232.094,19.0269 233.5,19.5C 236.709,22.228 239.209,25.5613 241,29.5C 242.94,35.1535 244.774,40.8202 246.5,46.5C 246.715,48.1788 246.048,49.1788 244.5,49.5C 240.424,47.8139 236.424,46.1472 232.5,44.5C 230.485,43.0762 228.152,42.4095 225.5,42.5C 220.331,42.001 215.664,40.3343 211.5,37.5C 211.027,36.0937 210.027,35.427 208.5,35.5C 208.027,34.0937 207.027,33.427 205.5,33.5C 208.625,32.5206 211.958,32.1872 215.5,32.5C 221.121,32.2248 226.455,33.2248 231.5,35.5C 234.725,37.2131 237.559,39.5464 240,42.5C 239.142,39.1351 236.975,36.8018 233.5,35.5C 228.5,28.1667 223.5,20.8333 218.5,13.5C 217.833,10.8333 216.167,9.16667 213.5,8.5 Z"/></g>
<g><path style="opacity:0.882" fill="#7c8ebc" d="M 98.5,9.5 C 97.7375,10.2679 96.7375,10.7679 95.5,11C 96.056,11.3826 96.3893,11.8826 96.5,12.5C 95.2438,12.5386 94.2438,12.0386 93.5,11C 94.9047,9.73082 96.5714,9.23082 98.5,9.5 Z"/></g>
<g><path style="opacity:0.42" fill="#8a98c2" d="M 201.5,13.5 C 203.027,13.427 204.027,14.0937 204.5,15.5C 202.973,15.573 201.973,14.9063 201.5,13.5 Z"/></g>
<g><path style="opacity:0.016" fill="#4a65a2" d="M 100.5,13.5 C 101.167,15.8333 101.833,18.1667 102.5,20.5C 102.631,21.3764 102.298,22.0431 101.5,22.5C 100.516,19.5719 100.183,16.5719 100.5,13.5 Z"/></g>
<g><path style="opacity:0.42" fill="#94a2c8" d="M 174.5,14.5 C 177.152,14.4095 179.485,15.0762 181.5,16.5C 178.848,16.5905 176.515,15.9238 174.5,14.5 Z"/></g>
<g><path style="opacity:0.42" fill="#6f7db2" d="M 229.5,14.5 C 230.5,14.8333 231.167,15.5 231.5,16.5C 230.167,16.5 229.5,15.8333 229.5,14.5 Z"/></g>
<g><path style="opacity:0.016" fill="#7f90bd" d="M 69.5,16.5 C 68.5489,17.9187 68.2155,19.5853 68.5,21.5C 67.7171,19.6568 67.0505,17.6568 66.5,15.5C 67.8595,14.3347 68.8595,14.668 69.5,16.5 Z"/></g>
<g><path style="opacity:0.016" fill="#6d7fb3" d="M 79.5,19.5 C 79.5,18.1667 78.8333,17.5 77.5,17.5C 78.172,16.7326 79.0053,16.0659 80,15.5C 80.765,17.0657 80.5983,18.3991 79.5,19.5 Z"/></g>
<g><path style="opacity:0.016" fill="#7b8cbb" d="M 111.5,14.5 C 113.416,15.6653 114.249,17.332 114,19.5C 112.698,18.9152 111.531,18.2485 110.5,17.5C 111.239,17.631 111.906,17.4643 112.5,17C 111.748,16.3292 111.414,15.4959 111.5,14.5 Z"/></g>
<g><path style="opacity:1" fill="#c4cce1" d="M 196.5,13.5 C 197.872,14.5116 199.205,15.5116 200.5,16.5C 197.713,17.4767 194.713,17.81 191.5,17.5C 187.958,17.8128 184.625,17.4794 181.5,16.5C 186.844,16.666 192.177,16.4994 197.5,16C 196.748,15.3292 196.414,14.4959 196.5,13.5 Z"/></g>
<g><path style="opacity:0.976" fill="#dfe3ee" d="M 69.5,16.5 C 70.8149,17.4756 72.1482,18.4756 73.5,19.5C 74.8599,18.8201 76.1932,18.1534 77.5,17.5C 78.8333,17.5 79.5,18.1667 79.5,19.5C 79.3225,20.6948 78.9891,21.8615 78.5,23C 79.3146,24.6434 80.3146,26.1434 81.5,27.5C 78.8411,27.9174 76.5078,28.9174 74.5,30.5C 73.9553,32.5932 73.122,34.5932 72,36.5C 70.7309,34.0066 69.8976,31.3399 69.5,28.5C 68.3915,27.71 67.0581,27.21 65.5,27C 64.4019,26.2303 64.4019,25.397 65.5,24.5C 66.6935,23.7281 67.6935,22.7281 68.5,21.5C 68.2155,19.5853 68.5489,17.9187 69.5,16.5 Z"/></g>
<g><path style="opacity:0.071" fill="#254890" d="M 200.5,16.5 C 201.043,16.56 201.376,16.8933 201.5,17.5C 198.02,18.8056 194.687,18.8056 191.5,17.5C 194.713,17.81 197.713,17.4767 200.5,16.5 Z"/></g>
<g><path style="opacity:0.42" fill="#7f8cbb" d="M 231.5,16.5 C 232.906,16.9731 233.573,17.9731 233.5,19.5C 232.094,19.0269 231.427,18.0269 231.5,16.5 Z"/></g>
<g><path style="opacity:0.016" fill="#748ab8" d="M 140.5,20.5 C 139.833,20.5 139.167,20.5 138.5,20.5C 139.167,17.8333 139.833,17.8333 140.5,20.5 Z"/></g>
<g><path style="opacity:0.016" fill="#5e74ac" d="M 182.5,20.5 C 181.508,20.3284 180.842,20.6618 180.5,21.5C 178.668,20.8595 178.335,19.8595 179.5,18.5C 180.739,18.9424 181.739,19.6091 182.5,20.5 Z"/></g>
<g><path style="opacity:1" fill="#f2f3f8" d="M 138.5,20.5 C 139.167,20.5 139.833,20.5 140.5,20.5C 140.5,20.8333 140.5,21.1667 140.5,21.5C 140.41,24.1522 141.076,26.4855 142.5,28.5C 142.41,31.1522 143.076,33.4855 144.5,35.5C 144.41,38.1522 145.076,40.4855 146.5,42.5C 146.41,45.1522 147.076,47.4855 148.5,49.5C 148.41,52.1522 149.076,54.4855 150.5,56.5C 150.41,59.1522 151.076,61.4855 152.5,63.5C 152.41,66.1522 153.076,68.4855 154.5,70.5C 154.41,73.1522 155.076,75.4855 156.5,77.5C 156.41,80.1522 157.076,82.4855 158.5,84.5C 159.573,85.2506 159.74,86.2506 159,87.5C 157.275,86.536 155.441,85.8693 153.5,85.5C 153.068,84.2905 152.401,83.2905 151.5,82.5C 147.564,68.7524 144.231,54.7524 141.5,40.5C 140.85,38.5648 140.517,36.5648 140.5,34.5C 140.631,33.6236 140.298,32.9569 139.5,32.5C 138.501,49.1533 138.167,65.82 138.5,82.5C 135.273,82.6761 132.273,83.3428 129.5,84.5C 126.316,85.4214 123.15,86.4214 120,87.5C 119.26,86.2506 119.427,85.2506 120.5,84.5C 121.924,82.4855 122.59,80.1522 122.5,77.5C 123.924,75.4855 124.59,73.1522 124.5,70.5C 125.924,68.4855 126.59,66.1522 126.5,63.5C 127.924,61.4855 128.59,59.1522 128.5,56.5C 129.924,54.4855 130.59,52.1522 130.5,49.5C 131.924,47.4855 132.59,45.1522 132.5,42.5C 133.924,40.4855 134.59,38.1522 134.5,35.5C 135.924,33.4855 136.59,31.1522 136.5,28.5C 137.924,26.4855 138.59,24.1522 138.5,21.5C 138.5,21.1667 138.5,20.8333 138.5,20.5 Z"/></g>
<g><path style="opacity:1" fill="#7e91bd" d="M 211.5,20.5 C 213.14,21.3201 214.807,22.1534 216.5,23C 217.696,23.6543 217.696,24.1543 216.5,24.5C 213.984,23.6701 211.65,22.6701 209.5,21.5C 210.492,21.6716 211.158,21.3382 211.5,20.5 Z"/></g>
<g><path style="opacity:0.016" fill="#8695c0" d="M 219.5,21.5 C 220.906,21.9731 221.573,22.9731 221.5,24.5C 220.094,24.0269 219.427,23.0269 219.5,21.5 Z"/></g>
<g><path style="opacity:0.42" fill="#93a1c7" d="M 138.5,21.5 C 138.59,24.1522 137.924,26.4855 136.5,28.5C 136.41,25.8478 137.076,23.5145 138.5,21.5 Z"/></g>
<g><path style="opacity:0.42" fill="#93a1c7" d="M 140.5,21.5 C 141.924,23.5145 142.59,25.8478 142.5,28.5C 141.076,26.4855 140.41,24.1522 140.5,21.5 Z"/></g>
<g><path style="opacity:0.42" fill="#9eabcd" d="M 187.5,25.5 C 190.152,25.4095 192.485,26.0762 194.5,27.5C 191.848,27.5905 189.515,26.9238 187.5,25.5 Z"/></g>
<g><path style="opacity:0.016" fill="#8897c1" d="M 65.5,24.5 C 64.4019,25.397 64.4019,26.2303 65.5,27C 67.0581,27.21 68.3915,27.71 69.5,28.5C 66.7294,28.5793 64.0627,28.0793 61.5,27C 62.4709,25.5187 63.8042,24.6854 65.5,24.5 Z"/></g>
<g><path style="opacity:0.42" fill="#96a3c9" d="M 248.5,29.5 C 247.167,29.5 246.5,30.1667 246.5,31.5C 244.552,29.2113 242.552,26.878 240.5,24.5C 243.852,24.5325 246.519,26.1991 248.5,29.5 Z"/></g>
<g><path style="opacity:0.016" fill="#7b8ebb" d="M 81.5,27.5 C 82.2891,27.7828 82.9558,28.2828 83.5,29C 80.4133,29.2589 77.4133,29.7589 74.5,30.5C 76.5078,28.9174 78.8411,27.9174 81.5,27.5 Z"/></g>
<g><path style="opacity:0.218" fill="#8191be" d="M 223.5,26.5 C 226.016,27.6004 227.016,29.2671 226.5,31.5C 224.664,30.9724 222.997,30.3058 221.5,29.5C 222.552,29.6495 223.552,29.4828 224.5,29C 223.748,28.3292 223.414,27.4959 223.5,26.5 Z"/></g>
<g><path style="opacity:0.972" fill="#e0e3ef" d="M 248.5,29.5 C 263.652,43.4491 269.318,60.7824 265.5,81.5C 264.833,81.5 264.167,81.5 263.5,81.5C 261.757,78.2496 259.423,75.4162 256.5,73C 245.15,66.4825 235.15,58.3158 226.5,48.5C 226.842,47.6618 227.508,47.3284 228.5,47.5C 239.303,49.8993 248.636,54.8993 256.5,62.5C 256.52,64.5512 257.187,65.2179 258.5,64.5C 258.058,63.2613 257.391,62.2613 256.5,61.5C 252.556,51.7323 249.223,41.7323 246.5,31.5C 246.5,30.1667 247.167,29.5 248.5,29.5 Z"/></g>
<g><path style="opacity:0.42" fill="#94a2c8" d="M 136.5,28.5 C 136.59,31.1522 135.924,33.4855 134.5,35.5C 134.41,32.8478 135.076,30.5145 136.5,28.5 Z"/></g>
<g><path style="opacity:0.42" fill="#94a2c8" d="M 142.5,28.5 C 143.924,30.5145 144.59,32.8478 144.5,35.5C 143.076,33.4855 142.41,31.1522 142.5,28.5 Z"/></g>
<g><path style="opacity:0.016" fill="#6c81b4" d="M 215.5,32.5 C 211.958,32.1872 208.625,32.5206 205.5,33.5C 203.265,32.6129 202.765,31.6129 204,30.5C 207.985,31.0721 211.818,31.7388 215.5,32.5 Z"/></g>
<g><path style="opacity:0.016" fill="#7e8fbc" d="M 205.5,33.5 C 207.027,33.427 208.027,34.0937 208.5,35.5C 206.973,35.573 205.973,34.9063 205.5,33.5 Z"/></g>
<g><path style="opacity:0.988" fill="#cfd6e7" d="M 140.5,34.5 C 139.504,50.3246 139.17,66.3246 139.5,82.5C 136.456,84.0114 133.122,84.678 129.5,84.5C 132.273,83.3428 135.273,82.6761 138.5,82.5C 138.167,65.82 138.501,49.1533 139.5,32.5C 140.298,32.9569 140.631,33.6236 140.5,34.5 Z"/></g>
<g><path style="opacity:0.016" fill="#7c8cba" d="M 50.5,44.5 C 49.4138,44.38 48.7472,43.7133 48.5,42.5C 50.2255,36.5072 49.2255,36.0072 45.5,41C 44.5632,41.6917 43.8966,41.525 43.5,40.5C 45.4807,38.8564 47.4807,37.1897 49.5,35.5C 50.124,38.5771 50.4573,41.5771 50.5,44.5 Z"/></g>
<g><path style="opacity:0.016" fill="#7688b8" d="M 208.5,35.5 C 210.027,35.427 211.027,36.0937 211.5,37.5C 209.973,37.573 208.973,36.9063 208.5,35.5 Z"/></g>
<g><path style="opacity:1" fill="#e7eaf3" d="M 50.5,44.5 C 52.153,44.6596 53.4863,45.3263 54.5,46.5C 53.5,47.1667 52.5,47.8333 51.5,48.5C 50.791,49.404 49.791,49.7373 48.5,49.5C 48.4828,51.5648 48.1495,53.5648 47.5,55.5C 46.8333,55.5 46.1667,55.5 45.5,55.5C 44.3263,54.4863 43.6596,53.153 43.5,51.5C 43.38,50.4138 42.7133,49.7472 41.5,49.5C 40.5836,49.5427 39.9169,49.8761 39.5,50.5C 38.448,50.6495 37.448,50.4828 36.5,50C 37.6667,48.8333 38.8333,47.6667 40,46.5C 40.7401,45.2506 40.5735,44.2506 39.5,43.5C 39.5,42.5 39.5,41.5 39.5,40.5C 40.5,40.5 41.5,40.5 42.5,40.5C 42.8333,40.5 43.1667,40.5 43.5,40.5C 43.8966,41.525 44.5632,41.6917 45.5,41C 49.2255,36.0072 50.2255,36.5072 48.5,42.5C 48.7472,43.7133 49.4138,44.38 50.5,44.5 Z"/></g>
<g><path style="opacity:0.42" fill="#95a3c8" d="M 134.5,35.5 C 134.59,38.1522 133.924,40.4855 132.5,42.5C 132.41,39.8478 133.076,37.5145 134.5,35.5 Z"/></g>
<g><path style="opacity:0.42" fill="#95a3c8" d="M 144.5,35.5 C 145.924,37.5145 146.59,39.8478 146.5,42.5C 145.076,40.4855 144.41,38.1522 144.5,35.5 Z"/></g>
<g><path style="opacity:0.42" fill="#9faacd" d="M 42.5,40.5 C 41.5,40.5 40.5,40.5 39.5,40.5C 39.5,41.5 39.5,42.5 39.5,43.5C 35.1667,37.1667 36.1667,36.1667 42.5,40.5 Z"/></g>
<g><path style="opacity:1" fill="#6379ae" d="M 231.5,35.5 C 232.167,35.5 232.833,35.5 233.5,35.5C 236.975,36.8018 239.142,39.1351 240,42.5C 237.559,39.5464 234.725,37.2131 231.5,35.5 Z"/></g>
<g><path style="opacity:0.022" fill="#23478f" d="M 140.5,34.5 C 140.517,36.5648 140.85,38.5648 141.5,40.5C 140.833,54.5 140.167,68.5 139.5,82.5C 139.17,66.3246 139.504,50.3246 140.5,34.5 Z"/></g>
<g><path style="opacity:0.42" fill="#9eabcd" d="M 225.5,42.5 C 228.152,42.4095 230.485,43.0762 232.5,44.5C 229.848,44.5905 227.515,43.9238 225.5,42.5 Z"/></g>
<g><path style="opacity:0.42" fill="#96a4c9" d="M 132.5,42.5 C 132.59,45.1522 131.924,47.4855 130.5,49.5C 130.41,46.8478 131.076,44.5145 132.5,42.5 Z"/></g>
<g><path style="opacity:0.42" fill="#96a4c9" d="M 146.5,42.5 C 147.924,44.5145 148.59,46.8478 148.5,49.5C 147.076,47.4855 146.41,45.1522 146.5,42.5 Z"/></g>
<g><path style="opacity:0.016" fill="#7d8fbc" d="M 228.5,47.5 C 227.508,47.3284 226.842,47.6618 226.5,48.5C 224.272,47.6782 223.605,46.3448 224.5,44.5C 225.901,45.5207 227.235,46.5207 228.5,47.5 Z"/></g>
<g><path style="opacity:0.016" fill="#8395bf" d="M 54.5,46.5 C 55.3764,46.3691 56.0431,46.7025 56.5,47.5C 54.9547,48.4519 53.288,48.7852 51.5,48.5C 52.5,47.8333 53.5,47.1667 54.5,46.5 Z"/></g>
<g><path style="opacity:0.016" fill="#677cb1" d="M 119.5,48.5 C 121.265,47.5386 123.265,47.2053 125.5,47.5C 125.737,48.791 125.404,49.791 124.5,50.5C 123.448,48.744 121.781,48.0773 119.5,48.5 Z"/></g>
<g><path style="opacity:0.987" fill="#dcdfed" d="M 119.5,48.5 C 121.781,48.0773 123.448,48.744 124.5,50.5C 124.67,51.8221 124.337,52.9887 123.5,54C 108.514,57.4932 95.1803,64.1599 83.5,74C 81.4652,74.5986 79.7985,74.0986 78.5,72.5C 77.8902,71.609 77.5569,70.609 77.5,69.5C 89.5349,58.8158 103.535,51.8158 119.5,48.5 Z"/></g>
<g><path style="opacity:0.016" fill="#5e75ad" d="M 159.5,48.5 C 157.219,48.0773 155.552,48.744 154.5,50.5C 153.596,49.791 153.263,48.791 153.5,47.5C 155.735,47.2053 157.735,47.5386 159.5,48.5 Z"/></g>
<g><path style="opacity:0.987" fill="#dee2ee" d="M 159.5,48.5 C 174.925,51.713 188.591,58.3796 200.5,68.5C 201.405,69.9643 201.405,71.2976 200.5,72.5C 200.158,73.3382 199.492,73.6716 198.5,73.5C 197.167,73.1667 195.833,72.8333 194.5,72.5C 182.841,63.6723 169.841,57.5056 155.5,54C 154.663,52.9887 154.33,51.8221 154.5,50.5C 155.552,48.744 157.219,48.0773 159.5,48.5 Z"/></g>
<g><path style="opacity:0.42" fill="#8596c0" d="M 39.5,50.5 C 39.9169,49.8761 40.5836,49.5427 41.5,49.5C 42.7133,49.7472 43.38,50.4138 43.5,51.5C 42.2921,50.7659 40.9587,50.4326 39.5,50.5 Z"/></g>
<g><path style="opacity:0.016" fill="#687cb1" d="M 39.5,43.5 C 40.5735,44.2506 40.7401,45.2506 40,46.5C 38.8333,47.6667 37.6667,48.8333 36.5,50C 37.448,50.4828 38.448,50.6495 39.5,50.5C 37.9652,51.7879 36.2985,51.7879 34.5,50.5C 36.6049,48.4084 38.2716,46.0751 39.5,43.5 Z"/></g>
<g><path style="opacity:0.882" fill="#8c9bc3" d="M 246.5,46.5 C 250.955,53.5842 250.288,54.5842 244.5,49.5C 246.048,49.1788 246.715,48.1788 246.5,46.5 Z"/></g>
<g><path style="opacity:0.42" fill="#97a5c9" d="M 130.5,49.5 C 130.59,52.1522 129.924,54.4855 128.5,56.5C 128.41,53.8478 129.076,51.5145 130.5,49.5 Z"/></g>
<g><path style="opacity:0.42" fill="#97a5c9" d="M 148.5,49.5 C 149.924,51.5145 150.59,53.8478 150.5,56.5C 149.076,54.4855 148.41,52.1522 148.5,49.5 Z"/></g>
<g><path style="opacity:0.016" fill="#6477ae" d="M 270.5,55.5 C 269.596,56.209 269.263,57.209 269.5,58.5C 267.811,56.1172 266.978,53.4505 267,50.5C 268.669,51.8463 269.836,53.513 270.5,55.5 Z"/></g>
<g><path style="opacity:0.29" fill="#4e67a4" d="M 45.5,55.5 C 46.1667,55.5 46.8333,55.5 47.5,55.5C 46.8333,58.1667 46.1667,58.1667 45.5,55.5 Z"/></g>
<g><path style="opacity:0.989" fill="#e4e7f1" d="M 270.5,55.5 C 275.229,61.0214 278.229,67.3547 279.5,74.5C 279.5,78.1667 279.5,81.8333 279.5,85.5C 277.343,95.6477 274.343,105.648 270.5,115.5C 269.833,115.833 269.167,116.167 268.5,116.5C 264.359,104.485 258.192,93.4855 250,83.5C 248.546,80.9289 247.38,78.2622 246.5,75.5C 246.351,74.448 246.517,73.448 247,72.5C 247.671,73.2524 248.504,73.5858 249.5,73.5C 254.46,76.7923 258.793,80.7923 262.5,85.5C 262.427,87.0269 263.094,88.0269 264.5,88.5C 266.008,90.1815 267.008,92.1815 267.5,94.5C 268.06,96.8008 268.56,99.1341 269,101.5C 269.5,93.5069 269.666,85.5069 269.5,77.5C 269.5,71.1667 269.5,64.8333 269.5,58.5C 269.263,57.209 269.596,56.209 270.5,55.5 Z"/></g>
<g><path style="opacity:0.42" fill="#98a6ca" d="M 128.5,56.5 C 128.59,59.1522 127.924,61.4855 126.5,63.5C 126.41,60.8478 127.076,58.5145 128.5,56.5 Z"/></g>
<g><path style="opacity:0.42" fill="#98a6ca" d="M 150.5,56.5 C 151.924,58.5145 152.59,60.8478 152.5,63.5C 151.076,61.4855 150.41,59.1522 150.5,56.5 Z"/></g>
<g><path style="opacity:1" fill="#4f69a5" d="M 256.5,61.5 C 257.391,62.2613 258.058,63.2613 258.5,64.5C 257.187,65.2179 256.52,64.5512 256.5,62.5C 256.5,62.1667 256.5,61.8333 256.5,61.5 Z"/></g>
<g><path style="opacity:0.994" fill="#dde1ed" d="M 32.5,71.5 C 32.8333,72.1667 33.1667,72.8333 33.5,73.5C 32.2196,74.9313 30.5529,75.5979 28.5,75.5C 27.8333,77.8333 27.1667,80.1667 26.5,82.5C 24.7867,80.1496 22.4534,79.1496 19.5,79.5C 17.9519,79.1788 17.2852,78.1788 17.5,76.5C 17.8039,75.8501 18.1373,75.1835 18.5,74.5C 17.4756,73.1482 16.4756,71.8149 15.5,70.5C 17.8333,69.8333 20.1667,69.1667 22.5,68.5C 22.9617,66.2433 23.9617,64.2433 25.5,62.5C 26.7946,65.0119 27.4613,67.6786 27.5,70.5C 29.2161,70.6287 30.8828,70.962 32.5,71.5 Z"/></g>
<g><path style="opacity:0.42" fill="#99a7cb" d="M 126.5,63.5 C 126.59,66.1522 125.924,68.4855 124.5,70.5C 124.41,67.8478 125.076,65.5145 126.5,63.5 Z"/></g>
<g><path style="opacity:0.42" fill="#99a7cb" d="M 152.5,63.5 C 153.924,65.5145 154.59,67.8478 154.5,70.5C 153.076,68.4855 152.41,66.1522 152.5,63.5 Z"/></g>
<g><path style="opacity:0.42" fill="#8392be" d="M 22.5,68.5 C 20.1667,69.1667 17.8333,69.8333 15.5,70.5C 13.3754,69.6324 13.2087,68.6324 15,67.5C 17.4339,68.3223 19.9339,68.6556 22.5,68.5 Z"/></g>
<g><path style="opacity:0.016" fill="#6378ae" d="M 245.5,69.5 C 244.662,69.8417 244.328,70.5084 244.5,71.5C 243.086,69.9561 242.753,68.2894 243.5,66.5C 244.425,67.3569 245.092,68.3569 245.5,69.5 Z"/></g>
<g><path style="opacity:0.42" fill="#6d7db2" d="M 200.5,68.5 C 203.022,70.0018 203.022,71.3351 200.5,72.5C 203.022,71.3351 203.022,70.0018 200.5,68.5 Z"/></g>
<g><path style="opacity:0.016" fill="#6b7eb2" d="M 77.5,69.5 C 77.5569,70.609 77.8902,71.609 78.5,72.5C 76.4482,71.9473 76.1148,70.9473 77.5,69.5 Z"/></g>
<g><path style="opacity:0.29" fill="#3e599b" d="M 32.5,71.5 C 33.675,71.281 34.675,71.6143 35.5,72.5C 35.0431,73.2975 34.3764,73.6309 33.5,73.5C 33.1667,72.8333 32.8333,72.1667 32.5,71.5 Z"/></g>
<g><path style="opacity:0.42" fill="#b5bed9" d="M 245.5,69.5 C 247.167,70.5 248.5,71.8333 249.5,73.5C 248.504,73.5858 247.671,73.2524 247,72.5C 246.517,73.448 246.351,74.448 246.5,75.5C 245.326,74.4863 244.66,73.153 244.5,71.5C 244.328,70.5084 244.662,69.8417 245.5,69.5 Z"/></g>
<g><path style="opacity:0.42" fill="#9aa7cb" d="M 124.5,70.5 C 124.59,73.1522 123.924,75.4855 122.5,77.5C 122.41,74.8478 123.076,72.5145 124.5,70.5 Z"/></g>
<g><path style="opacity:0.42" fill="#9aa7cb" d="M 154.5,70.5 C 155.924,72.5145 156.59,74.8478 156.5,77.5C 155.076,75.4855 154.41,73.1522 154.5,70.5 Z"/></g>
<g><path style="opacity:0.016" fill="#7184b6" d="M 194.5,72.5 C 195.833,72.8333 197.167,73.1667 198.5,73.5C 196.872,74.8528 195.538,74.5195 194.5,72.5 Z"/></g>
<g><path style="opacity:0.98" fill="#d9ddeb" d="M 71.5,77.5 C 73.7082,78.9175 74.5415,80.9175 74,83.5C 64.1599,95.1803 57.4932,108.514 54,123.5C 51.9935,124.669 49.8268,125.335 47.5,125.5C 47.322,121.878 47.9886,118.544 49.5,115.5C 50.9238,113.485 51.5905,111.152 51.5,108.5C 54.8871,97.3773 60.5538,87.7107 68.5,79.5C 69.5,78.8333 70.5,78.1667 71.5,77.5 Z"/></g>
<g><path style="opacity:0.016" fill="#909ec6" d="M 79.5,77.5 C 78.1667,77.5 77.5,78.1667 77.5,79.5C 73.5162,75.2529 74.1828,74.5862 79.5,77.5 Z"/></g>
<g><path style="opacity:0.98" fill="#dee1ee" d="M 212.5,81.5 C 212.427,83.0269 213.094,84.0269 214.5,84.5C 220.369,91.5652 224.703,99.5652 227.5,108.5C 227.41,111.152 228.076,113.485 229.5,115.5C 230.434,116.568 230.768,117.901 230.5,119.5C 230.923,121.781 230.256,123.448 228.5,124.5C 226.089,124.863 224.589,123.863 224,121.5C 222.16,111.826 218.66,102.826 213.5,94.5C 213.715,92.8212 213.048,91.8212 211.5,91.5C 209.293,88.2566 206.959,85.09 204.5,82C 206.905,74.9469 209.571,74.7802 212.5,81.5 Z"/></g>
<g><path style="opacity:0.016" fill="#7f8fbc" d="M 71.5,77.5 C 70.5,78.1667 69.5,78.8333 68.5,79.5C 68.6682,76.9486 69.6682,76.2819 71.5,77.5 Z"/></g>
<g><path style="opacity:0.98" fill="#d7dbea" d="M 79.5,77.5 C 79.8333,77.5 80.1667,77.5 80.5,77.5C 80.8212,79.0481 81.8212,79.7148 83.5,79.5C 91.3866,83.6943 99.22,88.0276 107,92.5C 107.268,94.5902 106.268,95.9236 104,96.5C 99.0548,93.6143 94.2215,90.6143 89.5,87.5C 88.4264,86.1154 87.0931,84.9487 85.5,84C 84.8333,83.3333 84.1667,83.3333 83.5,84C 85.0375,85.7073 86.7041,87.2073 88.5,88.5C 92.677,91.8437 96.3437,95.6771 99.5,100C 98.0149,102.156 96.5149,104.323 95,106.5C 94.2825,107.451 93.4491,107.617 92.5,107C 86.8402,98.1793 81.8402,89.0127 77.5,79.5C 77.5,78.1667 78.1667,77.5 79.5,77.5 Z"/></g>
<g><path style="opacity:0.42" fill="#8490be" d="M 80.5,77.5 C 81.7095,77.9321 82.7095,78.5987 83.5,79.5C 81.8212,79.7148 80.8212,79.0481 80.5,77.5 Z"/></g>
<g><path style="opacity:0.945" fill="#d3d8e8" d="M 191.5,89.5 C 193.054,88.0858 194.388,86.4192 195.5,84.5C 195.333,84.1667 195.167,83.8333 195,83.5C 193.331,84.8463 192.164,86.513 191.5,88.5C 187.49,92.3434 183.323,96.0101 179,99.5C 176.367,97.7038 173.867,95.7038 171.5,93.5C 179.298,88.4298 187.298,83.5965 195.5,79C 198.298,77.0863 201.298,76.0863 204.5,76C 198.62,85.591 193.12,95.4243 188,105.5C 187.311,106.357 186.478,107.023 185.5,107.5C 184.618,106.24 183.618,105.074 182.5,104C 185.887,99.3903 188.887,94.557 191.5,89.5 Z"/></g>
<g><path style="opacity:0.016" fill="#8595c0" d="M 17.5,76.5 C 17.2852,78.1788 17.9519,79.1788 19.5,79.5C 18.2015,81.0986 16.5348,81.5986 14.5,81C 15.3994,79.3484 16.3994,77.8484 17.5,76.5 Z"/></g>
<g><path style="opacity:0.42" fill="#9ba8cc" d="M 122.5,77.5 C 122.59,80.1522 121.924,82.4855 120.5,84.5C 120.41,81.8478 121.076,79.5145 122.5,77.5 Z"/></g>
<g><path style="opacity:0.42" fill="#9ba8cc" d="M 156.5,77.5 C 157.924,79.5145 158.59,81.8478 158.5,84.5C 157.076,82.4855 156.41,80.1522 156.5,77.5 Z"/></g>
<g><path style="opacity:0.882" fill="#6678ae" d="M 263.5,81.5 C 264.167,81.5 264.833,81.5 265.5,81.5C 266.547,82.0778 266.38,82.7445 265,83.5C 264.283,82.9558 263.783,82.2891 263.5,81.5 Z"/></g>
<g><path style="opacity:0.016" fill="#788dba" d="M 28.5,75.5 C 28.6646,78.5184 28.498,81.5184 28,84.5C 27.2828,83.9558 26.7828,83.2891 26.5,82.5C 27.1667,80.1667 27.8333,77.8333 28.5,75.5 Z"/></g>
<g><path style="opacity:0.42" fill="#8896c1" d="M 212.5,81.5 C 213.906,81.9731 214.573,82.9731 214.5,84.5C 213.094,84.0269 212.427,83.0269 212.5,81.5 Z"/></g>
<g><path style="opacity:1" fill="#6278ae" d="M 89.5,87.5 C 88.8333,87.5 88.5,87.8333 88.5,88.5C 86.7041,87.2073 85.0375,85.7073 83.5,84C 84.1667,83.3333 84.8333,83.3333 85.5,84C 87.0931,84.9487 88.4264,86.1154 89.5,87.5 Z"/></g>
<g><path style="opacity:0.016" fill="#6378ae" d="M 151.5,82.5 C 152.401,83.2905 153.068,84.2905 153.5,85.5C 151.952,85.1788 151.285,84.1788 151.5,82.5 Z"/></g>
<g><path style="opacity:1" fill="#5a6fa9" d="M 191.5,89.5 C 191.5,89.1667 191.5,88.8333 191.5,88.5C 192.164,86.513 193.331,84.8463 195,83.5C 195.167,83.8333 195.333,84.1667 195.5,84.5C 194.388,86.4192 193.054,88.0858 191.5,89.5 Z"/></g>
<g><path style="opacity:0.016" fill="#7f8fbc" d="M 262.5,85.5 C 263.906,85.9731 264.573,86.9731 264.5,88.5C 263.094,88.0269 262.427,87.0269 262.5,85.5 Z"/></g>
<g><path style="opacity:0.993" fill="#d4d8e8" d="M 102.5,103.5 C 104.749,102.92 106.415,101.587 107.5,99.5C 118.661,89.9538 131.661,86.1204 146.5,88C 168.817,91.9832 183.317,104.817 190,126.5C 194.932,160.146 181.099,181.646 148.5,191C 112.12,192.783 91.7862,175.617 87.5,139.5C 87.5961,125.325 92.5961,113.325 102.5,103.5 Z M 144.5,93.5 C 170.153,98.1525 183.819,113.486 185.5,139.5C 181.991,171.766 163.991,186.933 131.5,185C 105.149,177.975 92.6486,160.808 94,133.5C 97.9538,113.719 109.454,100.719 128.5,94.5C 133.805,93.8058 139.138,93.4724 144.5,93.5 Z M 134.5,98.5 C 135.833,98.5 137.167,98.5 138.5,98.5C 138.5,100.5 138.5,102.5 138.5,104.5C 137.209,104.263 136.209,104.596 135.5,105.5C 134.833,105.5 134.167,105.5 133.5,105.5C 126.831,106.419 120.998,109.086 116,113.5C 114.225,112.73 112.725,111.563 111.5,110C 118.17,103.998 125.836,100.165 134.5,98.5 Z M 144.5,98.5 C 153.153,100.16 160.82,103.993 167.5,110C 165.855,113.169 163.521,114.003 160.5,112.5C 160.167,111.5 159.5,110.833 158.5,110.5C 157.71,109.599 156.71,108.932 155.5,108.5C 155.167,108.5 154.833,108.5 154.5,108.5C 150.241,106.054 145.574,104.721 140.5,104.5C 140.5,102.5 140.5,100.5 140.5,98.5C 141.833,98.5 143.167,98.5 144.5,98.5 Z M 138.5,112.5 C 135.659,112.56 132.993,113.226 130.5,114.5C 127.071,115.381 124.071,117.048 121.5,119.5C 117.042,117.642 116.708,115.475 120.5,113C 125.904,109.255 131.904,107.421 138.5,107.5C 138.5,109.167 138.5,110.833 138.5,112.5 Z M 140.5,107.5 C 143.881,107.46 147.214,107.793 150.5,108.5C 150.263,109.791 150.596,110.791 151.5,111.5C 152.98,114.039 154.98,116.039 157.5,117.5C 157.5,118.167 157.167,118.5 156.5,118.5C 153.215,116.025 149.548,114.358 145.5,113.5C 143.958,112.699 142.292,112.366 140.5,112.5C 140.5,110.833 140.5,109.167 140.5,107.5 Z M 105.5,133.5 C 105.5,133.833 105.5,134.167 105.5,134.5C 104.732,135.263 104.232,136.263 104,137.5C 102.708,136.209 101.542,136.209 100.5,137.5C 99.8826,137.611 99.3826,137.944 99,138.5C 98.51,137.207 98.3433,135.873 98.5,134.5C 100.16,125.847 103.993,118.18 110,111.5C 111.563,112.725 112.73,114.225 113.5,116C 109.086,120.998 106.419,126.831 105.5,133.5 Z M 180.5,132.5 C 180.5,134.5 180.5,136.5 180.5,138.5C 178.5,138.5 176.5,138.5 174.5,138.5C 174.315,131.269 171.982,124.936 167.5,119.5C 167.068,118.29 166.401,117.29 165.5,116.5C 167.315,110.501 169.815,110.168 173,115.5C 176.393,120.872 178.893,126.538 180.5,132.5 Z M 140.5,114.5 C 140.833,114.5 141.167,114.5 141.5,114.5C 147.069,115.199 151.736,117.699 155.5,122C 154.529,123.481 153.196,124.315 151.5,124.5C 148.4,121.79 144.733,120.457 140.5,120.5C 140.5,118.5 140.5,116.5 140.5,114.5 Z M 138.5,114.5 C 138.5,116.5 138.5,118.5 138.5,120.5C 133.896,121.21 129.563,122.376 125.5,124C 123.993,123.163 123.493,121.996 124,120.5C 126.682,118.415 129.516,116.748 132.5,115.5C 134.621,115.675 136.621,115.341 138.5,114.5 Z M 113.5,134.5 C 112.326,135.514 111.66,136.847 111.5,138.5C 110.167,138.5 108.833,138.5 107.5,138.5C 107.307,130.239 110.141,123.239 116,117.5C 117.353,118.685 118.52,120.019 119.5,121.5C 116.139,125.222 114.139,129.555 113.5,134.5 Z M 133.5,130.5 C 133.179,128.952 132.179,128.285 130.5,128.5C 127.875,127.559 127.875,126.393 130.5,125C 133.022,123.659 135.689,122.826 138.5,122.5C 138.5,124.833 138.5,127.167 138.5,129.5C 136.708,129.366 135.042,129.699 133.5,130.5 Z M 149.5,125.5 C 148.449,126.222 147.782,127.222 147.5,128.5C 146.833,129.167 146.167,129.833 145.5,130.5C 145.167,130.5 144.833,130.5 144.5,130.5C 144.414,129.504 144.748,128.671 145.5,128C 143.892,127.342 142.725,127.842 142,129.5C 140.648,127.406 140.148,125.073 140.5,122.5C 143.715,122.905 146.715,123.905 149.5,125.5 Z M 124.5,128.5 C 123.833,128.5 123.5,128.833 123.5,129.5C 122.599,130.29 121.932,131.29 121.5,132.5C 120.5,132.833 119.833,133.5 119.5,134.5C 118.778,134.918 118.278,135.584 118,136.5C 117.722,135.584 117.222,134.918 116.5,134.5C 116.167,134.5 115.833,134.5 115.5,134.5C 116.225,130.551 117.891,127.051 120.5,124C 123.302,123.976 124.636,125.476 124.5,128.5 Z M 139.5,133.5 C 139.842,134.338 140.508,134.672 141.5,134.5C 144.018,136.357 144.018,138.19 141.5,140C 142.094,140.464 142.761,140.631 143.5,140.5C 144.167,141.5 144.833,142.5 145.5,143.5C 144.209,143.263 143.209,143.596 142.5,144.5C 141.857,146.076 140.857,147.41 139.5,148.5C 139.196,146.204 138.196,145.871 136.5,147.5C 135.167,146.5 133.833,145.5 132.5,144.5C 136.009,142.621 137.342,139.621 136.5,135.5C 136.833,135.5 137.167,135.5 137.5,135.5C 138.167,134.833 138.833,134.167 139.5,133.5 Z M 161.5,130.5 C 160.791,131.404 159.791,131.737 158.5,131.5C 158.167,130.5 157.5,129.833 156.5,129.5C 153.692,127.084 154.025,125.084 157.5,123.5C 158.411,125.709 159.745,128.042 161.5,130.5 Z M 162.5,120.5 C 162.953,121.458 163.619,122.292 164.5,123C 165.825,122.852 166.992,123.018 168,123.5C 170.57,128.185 172.07,133.185 172.5,138.5C 170.5,138.5 168.5,138.5 166.5,138.5C 166.219,131.818 163.885,125.985 159.5,121C 160.448,120.517 161.448,120.351 162.5,120.5 Z M 161.5,136.5 C 162.5,136.5 163.5,136.5 164.5,136.5C 163.5,139.167 162.5,139.167 161.5,136.5 Z M 120.5,140.5 C 120.457,144.733 121.79,148.4 124.5,151.5C 124.167,153.833 122.833,155.167 120.5,155.5C 120.5,155.167 120.5,154.833 120.5,154.5C 119.554,149.913 119.554,145.246 120.5,140.5 Z M 122.5,140.5 C 124.167,140.5 125.833,140.5 127.5,140.5C 128.167,141.167 128.833,141.833 129.5,142.5C 129.427,144.027 130.094,145.027 131.5,145.5C 130.375,147.129 129.041,148.629 127.5,150C 126.563,150.692 125.897,150.525 125.5,149.5C 123.905,146.715 122.905,143.715 122.5,140.5 Z M 161.5,141.5 C 162.209,140.596 163.209,140.263 164.5,140.5C 164.649,141.552 164.483,142.552 164,143.5C 163.583,142.244 162.75,141.577 161.5,141.5 Z M 160.5,159.5 C 160.5,159.167 160.5,158.833 160.5,158.5C 163.875,153.043 165.875,147.043 166.5,140.5C 168.5,140.5 170.5,140.5 172.5,140.5C 172.07,145.815 170.57,150.815 168,155.5C 167.259,156.641 166.425,156.641 165.5,155.5C 163.982,157.514 163.315,159.514 163.5,161.5C 162.735,160.388 161.735,159.721 160.5,159.5 Z M 180.5,140.5 C 180.149,150.896 176.482,159.896 169.5,167.5C 167.389,166.395 166.055,164.729 165.5,162.5C 171.213,156.379 174.213,149.046 174.5,140.5C 176.5,140.5 178.5,140.5 180.5,140.5 Z M 100.5,143.5 C 102.167,144.833 103.833,146.167 105.5,147.5C 105.935,150.157 106.935,152.491 108.5,154.5C 109.709,157.721 111.376,160.721 113.5,163.5C 112.52,164.981 111.353,166.315 110,167.5C 104.369,161.572 100.869,154.572 99.5,146.5C 100.11,145.609 100.443,144.609 100.5,143.5 Z M 162.5,144.5 C 163.346,147.342 162.679,150.008 160.5,152.5C 159.539,150.735 159.205,148.735 159.5,146.5C 160.71,146.068 161.71,145.401 162.5,144.5 Z M 136.5,156.5 C 133.833,155.5 131.167,154.5 128.5,153.5C 130.489,147.898 133.823,147.064 138.5,151C 135.972,152.316 135.972,153.483 138.5,154.5C 137.757,155.182 137.091,155.849 136.5,156.5 Z M 149.5,156.5 C 150.002,154.915 151.002,154.415 152.5,155C 151.756,156.039 150.756,156.539 149.5,156.5 Z M 112.5,156.5 C 113.492,156.328 114.158,156.662 114.5,157.5C 114.833,158.5 115.5,159.167 116.5,159.5C 116.833,159.5 117.167,159.5 117.5,159.5C 117.189,160.478 116.522,161.145 115.5,161.5C 114.048,160.06 113.048,158.394 112.5,156.5 Z M 132.5,160.5 C 131.849,161.091 131.182,161.757 130.5,162.5C 127.6,161.557 125.267,159.89 123.5,157.5C 124.167,156.167 125.167,155.167 126.5,154.5C 129.246,156.473 132.246,157.973 135.5,159C 134.263,159.232 133.263,159.732 132.5,160.5 Z M 119.5,160.5 C 123.006,161.248 126.34,162.581 129.5,164.5C 130.708,165.234 132.041,165.567 133.5,165.5C 134.919,166.451 136.585,166.784 138.5,166.5C 138.5,168.5 138.5,170.5 138.5,172.5C 137.833,172.5 137.167,172.5 136.5,172.5C 129.361,171.433 123.028,168.433 117.5,163.5C 118.193,162.482 118.859,161.482 119.5,160.5 Z M 132.5,173.5 C 134.379,174.341 136.379,174.675 138.5,174.5C 138.5,176.5 138.5,178.5 138.5,180.5C 127.915,180.254 118.915,176.42 111.5,169C 112.685,167.647 114.019,166.48 115.5,165.5C 120.534,169.517 126.201,172.184 132.5,173.5 Z M 162.5,165.5 C 168.406,167.44 168.74,169.94 163.5,173C 156.531,177.601 148.864,180.101 140.5,180.5C 140.5,178.5 140.5,176.5 140.5,174.5C 142.621,174.675 144.621,174.341 146.5,173.5C 147.791,173.737 148.791,173.404 149.5,172.5C 155.568,173.63 159.901,171.297 162.5,165.5 Z M 145.5,167.5 C 146.289,167.783 146.956,168.283 147.5,169C 146.402,169.77 146.402,170.603 147.5,171.5C 145.901,171.232 144.568,171.566 143.5,172.5C 142.5,172.5 141.5,172.5 140.5,172.5C 140.5,170.5 140.5,168.5 140.5,166.5C 142.292,166.366 143.958,166.699 145.5,167.5 Z"/></g>
<g><path style="opacity:0.016" fill="#778bb9" d="M 269.5,77.5 C 269.666,85.5069 269.5,93.5069 269,101.5C 268.56,99.1341 268.06,96.8008 267.5,94.5C 268.167,88.8333 268.833,83.1667 269.5,77.5 Z"/></g>
<g><path style="opacity:0.42" fill="#8c97c1" d="M 211.5,91.5 C 213.048,91.8212 213.715,92.8212 213.5,94.5C 212.599,93.7095 211.932,92.7095 211.5,91.5 Z"/></g>
<g><path style="opacity:0.545" fill="#8395bf" d="M 144.5,93.5 C 139.138,93.4724 133.805,93.8058 128.5,94.5C 131.55,93.0648 134.883,92.3981 138.5,92.5C 140.696,92.5046 142.696,92.838 144.5,93.5 Z"/></g>
<g><path style="opacity:0.016" fill="#7187b6" d="M 10.5,96.5 C 9.83333,96.8333 9.16667,97.1667 8.5,97.5C 9.03204,94.5404 9.69871,94.2071 10.5,96.5 Z"/></g>
<g><path style="opacity:0.982" fill="#e4e7f1" d="M 10.5,96.5 C 11.9313,97.7804 12.5979,99.4471 12.5,101.5C 14.8333,102.167 17.1667,102.833 19.5,103.5C 18.3515,105.149 17.0182,106.649 15.5,108C 15.9891,109.138 16.3225,110.305 16.5,111.5C 16.5,112.833 15.8333,113.5 14.5,113.5C 12.0596,111.078 9.72627,111.078 7.5,113.5C 5.82351,112.817 5.15684,111.483 5.5,109.5C 5.5,108.833 5.5,108.167 5.5,107.5C 5.02694,106.094 4.02694,105.427 2.5,105.5C 1.50838,105.672 0.841711,105.338 0.5,104.5C 2.83333,103.833 5.16667,103.167 7.5,102.5C 7.36596,100.708 7.69929,99.0418 8.5,97.5C 9.16667,97.1667 9.83333,96.8333 10.5,96.5 Z"/></g>
<g><path style="opacity:0.922" fill="#abb6d4" d="M 148.5,97.5 C 147.432,98.4345 146.099,98.7678 144.5,98.5C 143.167,98.5 141.833,98.5 140.5,98.5C 140.5,100.5 140.5,102.5 140.5,104.5C 141.952,105.302 143.618,105.802 145.5,106C 143.618,106.198 141.952,106.698 140.5,107.5C 140.5,109.167 140.5,110.833 140.5,112.5C 142.292,112.366 143.958,112.699 145.5,113.5C 144.432,114.434 143.099,114.768 141.5,114.5C 141.167,114.5 140.833,114.5 140.5,114.5C 139.833,114.5 139.167,114.5 138.5,114.5C 136.621,115.341 134.621,115.675 132.5,115.5C 131.508,115.672 130.842,115.338 130.5,114.5C 132.993,113.226 135.659,112.56 138.5,112.5C 139.461,110.735 139.795,108.735 139.5,106.5C 137.265,106.795 135.265,106.461 133.5,105.5C 134.167,105.5 134.833,105.5 135.5,105.5C 136.209,104.596 137.209,104.263 138.5,104.5C 138.5,102.5 138.5,100.5 138.5,98.5C 137.167,98.5 135.833,98.5 134.5,98.5C 133.209,98.7373 132.209,98.404 131.5,97.5C 137.136,96.2099 142.802,96.2099 148.5,97.5 Z"/></g>
<g><path style="opacity:0.545" fill="#7287b7" d="M 138.5,98.5 C 139.468,100.607 139.802,102.941 139.5,105.5C 138.167,105.5 136.833,105.5 135.5,105.5C 136.833,105.5 138.167,105.5 139.5,105.5C 139.802,102.941 139.468,100.607 138.5,98.5 Z"/></g>
<g><path style="opacity:0.016" fill="#5570a9" d="M 12.5,101.5 C 15.5184,101.335 18.5184,101.502 21.5,102C 20.9558,102.717 20.2891,103.217 19.5,103.5C 17.1667,102.833 14.8333,102.167 12.5,101.5 Z"/></g>
<g><path style="opacity:0.42" fill="#9da9cc" d="M 107.5,99.5 C 106.415,101.587 104.749,102.92 102.5,103.5C 103.585,101.413 105.251,100.08 107.5,99.5 Z"/></g>
<g><path style="opacity:0.545" fill="#8d9bc4" d="M 148.5,97.5 C 166.514,101.514 177.514,112.514 181.5,130.5C 180.662,130.842 180.328,131.508 180.5,132.5C 178.893,126.538 176.393,120.872 173,115.5C 169.815,110.168 167.315,110.501 165.5,116.5C 164.259,114.069 163.092,114.069 162,116.5C 159.988,115.434 159.488,114.1 160.5,112.5C 163.521,114.003 165.855,113.169 167.5,110C 160.82,103.993 153.153,100.16 144.5,98.5C 146.099,98.7678 147.432,98.4345 148.5,97.5 Z"/></g>
<g><path style="opacity:0.29" fill="#7a8fbb" d="M -0.5,102.5 C 2.16667,102.5 4.83333,102.5 7.5,102.5C 5.16667,103.167 2.83333,103.833 0.5,104.5C 0.166667,104.5 -0.166667,104.5 -0.5,104.5C -0.5,103.833 -0.5,103.167 -0.5,102.5 Z"/></g>
<g><path style="opacity:0.016" fill="#8493bf" d="M 2.5,105.5 C 4.02694,105.427 5.02694,106.094 5.5,107.5C 3.97306,107.573 2.97306,106.906 2.5,105.5 Z"/></g>
<g><path style="opacity:0.545" fill="#8595c0" d="M 140.5,104.5 C 145.574,104.721 150.241,106.054 154.5,108.5C 153.5,109.5 152.5,110.5 151.5,111.5C 150.596,110.791 150.263,109.791 150.5,108.5C 147.214,107.793 143.881,107.46 140.5,107.5C 141.952,106.698 143.618,106.198 145.5,106C 143.618,105.802 141.952,105.302 140.5,104.5 Z"/></g>
<g><path style="opacity:1" fill="#e0e4ef" d="M 154.5,108.5 C 154.833,108.5 155.167,108.5 155.5,108.5C 155.821,110.048 156.821,110.715 158.5,110.5C 159.5,110.833 160.167,111.5 160.5,112.5C 159.488,114.1 159.988,115.434 162,116.5C 163.092,114.069 164.259,114.069 165.5,116.5C 166.401,117.29 167.068,118.29 167.5,119.5C 167.53,120.497 167.03,121.164 166,121.5C 164.862,121.011 163.695,120.678 162.5,120.5C 161.791,119.596 160.791,119.263 159.5,119.5C 159.167,118.5 158.5,117.833 157.5,117.5C 154.98,116.039 152.98,114.039 151.5,111.5C 152.5,110.5 153.5,109.5 154.5,108.5 Z"/></g>
<g><path style="opacity:0.922" fill="#8b98c2" d="M 155.5,108.5 C 156.71,108.932 157.71,109.599 158.5,110.5C 156.821,110.715 155.821,110.048 155.5,108.5 Z"/></g>
<g><path style="opacity:0.42" fill="#8d9bc4" d="M 51.5,108.5 C 51.5905,111.152 50.9238,113.485 49.5,115.5C 49.4095,112.848 50.0762,110.515 51.5,108.5 Z"/></g>
<g><path style="opacity:0.42" fill="#8d9bc4" d="M 227.5,108.5 C 228.924,110.515 229.59,112.848 229.5,115.5C 228.076,113.485 227.41,111.152 227.5,108.5 Z"/></g>
<g><path style="opacity:0.42" fill="#7e8dbb" d="M 5.5,109.5 C 5.15684,111.483 5.82351,112.817 7.5,113.5C 6.68512,114.837 5.51845,115.837 4,116.5C 3.7247,113.942 4.2247,111.608 5.5,109.5 Z"/></g>
<g><path style="opacity:0.016" fill="#6c7eb2" d="M 16.5,111.5 C 19.4701,115.684 18.8034,116.35 14.5,113.5C 15.8333,113.5 16.5,112.833 16.5,111.5 Z"/></g>
<g><path style="opacity:0.922" fill="#95a3c8" d="M 131.5,97.5 C 132.209,98.404 133.209,98.7373 134.5,98.5C 125.836,100.165 118.17,103.998 111.5,110C 112.725,111.563 114.225,112.73 116,113.5C 120.998,109.086 126.831,106.419 133.5,105.5C 135.265,106.461 137.265,106.795 139.5,106.5C 139.795,108.735 139.461,110.735 138.5,112.5C 138.5,110.833 138.5,109.167 138.5,107.5C 131.904,107.421 125.904,109.255 120.5,113C 116.708,115.475 117.042,117.642 121.5,119.5C 124.071,117.048 127.071,115.381 130.5,114.5C 130.842,115.338 131.508,115.672 132.5,115.5C 129.516,116.748 126.682,118.415 124,120.5C 123.493,121.996 123.993,123.163 125.5,124C 129.563,122.376 133.896,121.21 138.5,120.5C 138.5,118.5 138.5,116.5 138.5,114.5C 139.167,114.5 139.833,114.5 140.5,114.5C 140.5,116.5 140.5,118.5 140.5,120.5C 144.733,120.457 148.4,121.79 151.5,124.5C 150.508,124.328 149.842,124.662 149.5,125.5C 146.715,123.905 143.715,122.905 140.5,122.5C 140.148,125.073 140.648,127.406 142,129.5C 142.725,127.842 143.892,127.342 145.5,128C 144.748,128.671 144.414,129.504 144.5,130.5C 143.167,130.5 141.833,130.5 140.5,130.5C 140.433,131.959 140.766,133.292 141.5,134.5C 140.508,134.672 139.842,134.338 139.5,133.5C 139.131,129.987 137.798,129.653 135.5,132.5C 134.5,132.167 133.833,131.5 133.5,130.5C 135.042,129.699 136.708,129.366 138.5,129.5C 138.5,127.167 138.5,124.833 138.5,122.5C 135.689,122.826 133.022,123.659 130.5,125C 127.875,126.393 127.875,127.559 130.5,128.5C 128.5,129.833 126.5,129.833 124.5,128.5C 124.636,125.476 123.302,123.976 120.5,124C 117.891,127.051 116.225,130.551 115.5,134.5C 114.833,134.5 114.167,134.5 113.5,134.5C 114.139,129.555 116.139,125.222 119.5,121.5C 118.52,120.019 117.353,118.685 116,117.5C 110.141,123.239 107.307,130.239 107.5,138.5C 108.833,138.5 110.167,138.5 111.5,138.5C 110.081,139.451 108.415,139.784 106.5,139.5C 106.795,137.265 106.461,135.265 105.5,133.5C 106.419,126.831 109.086,120.998 113.5,116C 112.73,114.225 111.563,112.725 110,111.5C 103.993,118.18 100.16,125.847 98.5,134.5C 98.7373,133.209 98.404,132.209 97.5,131.5C 100.801,116.024 109.801,105.191 124.5,99C 126.74,98.023 129.073,97.523 131.5,97.5 Z M 138.5,114.5 C 138.5,116.5 138.5,118.5 138.5,120.5C 133.896,121.21 129.563,122.376 125.5,124C 123.993,123.163 123.493,121.996 124,120.5C 126.682,118.415 129.516,116.748 132.5,115.5C 134.621,115.675 136.621,115.341 138.5,114.5 Z M 133.5,130.5 C 133.179,128.952 132.179,128.285 130.5,128.5C 127.875,127.559 127.875,126.393 130.5,125C 133.022,123.659 135.689,122.826 138.5,122.5C 138.5,124.833 138.5,127.167 138.5,129.5C 136.708,129.366 135.042,129.699 133.5,130.5 Z"/></g>
<g><path style="opacity:0.29" fill="#657cb0" d="M 270.5,115.5 C 269.968,118.46 269.301,118.793 268.5,116.5C 269.167,116.167 269.833,115.833 270.5,115.5 Z"/></g>
<g><path style="opacity:0.922" fill="#314991" d="M 157.5,117.5 C 158.5,117.833 159.167,118.5 159.5,119.5C 158.105,120.815 157.105,120.481 156.5,118.5C 157.167,118.5 157.5,118.167 157.5,117.5 Z"/></g>
<g><path style="opacity:0.42" fill="#96a4c9" d="M 84.5,120.5 C 82.4855,121.924 80.1522,122.59 77.5,122.5C 79.5145,121.076 81.8478,120.41 84.5,120.5 Z"/></g>
<g><path style="opacity:1" fill="#f1f2f7" d="M 85.5,124.5 C 84.5,125.5 83.5,126.5 82.5,127.5C 67.7213,131.611 52.7213,135.277 37.5,138.5C 36.0222,138.238 34.6888,138.571 33.5,139.5C 49.8197,140.499 66.1531,140.833 82.5,140.5C 82.2627,141.791 82.596,142.791 83.5,143.5C 84.1439,148.827 85.4772,153.994 87.5,159C 84.8606,159.588 82.5273,159.088 80.5,157.5C 78.4855,156.076 76.1522,155.41 73.5,155.5C 71.4855,154.076 69.1522,153.41 66.5,153.5C 64.4855,152.076 62.1522,151.41 59.5,151.5C 57.4855,150.076 55.1522,149.41 52.5,149.5C 50.4855,148.076 48.1522,147.41 45.5,147.5C 43.4855,146.076 41.1522,145.41 38.5,145.5C 36.4855,144.076 34.1522,143.41 31.5,143.5C 29.4855,142.076 27.1522,141.41 24.5,141.5C 23.7375,140.732 22.7375,140.232 21.5,140C 22.8584,139.066 24.1917,138.232 25.5,137.5C 28.1522,137.59 30.4855,136.924 32.5,135.5C 35.1522,135.59 37.4855,134.924 39.5,133.5C 42.1522,133.59 44.4855,132.924 46.5,131.5C 49.1522,131.59 51.4855,130.924 53.5,129.5C 57.1621,129.277 60.4954,128.277 63.5,126.5C 66.1522,126.59 68.4855,125.924 70.5,124.5C 73.1522,124.59 75.4855,123.924 77.5,122.5C 80.1522,122.59 82.4855,121.924 84.5,120.5C 85.2506,119.427 86.2506,119.26 87.5,120C 86.9011,121.622 86.2344,123.122 85.5,124.5 Z"/></g>
<g><path style="opacity:1" fill="#e3e6f0" d="M 258.5,138.5 C 258.5,139.167 258.5,139.833 258.5,140.5C 237.733,146.945 216.733,152.945 195.5,158.5C 194.624,158.631 193.957,158.298 193.5,157.5C 194.309,155.929 194.643,154.262 194.5,152.5C 208.827,147.918 223.494,144.252 238.5,141.5C 240.179,141.108 241.846,140.608 243.5,140C 227.503,139.5 211.503,139.333 195.5,139.5C 195.276,133.38 194.276,127.38 192.5,121.5C 192.833,120.833 193.167,120.167 193.5,119.5C 215.15,125.995 236.817,132.328 258.5,138.5 Z"/></g>
<g><path style="opacity:0.016" fill="#7c8fbc" d="M 230.5,119.5 C 231.461,121.265 231.795,123.265 231.5,125.5C 230.209,125.737 229.209,125.404 228.5,124.5C 230.256,123.448 230.923,121.781 230.5,119.5 Z"/></g>
<g><path style="opacity:0.42" fill="#95a4c8" d="M 77.5,122.5 C 75.4855,123.924 73.1522,124.59 70.5,124.5C 72.5145,123.076 74.8478,122.41 77.5,122.5 Z"/></g>
<g><path style="opacity:0.42" fill="#94a2c8" d="M 70.5,124.5 C 68.4855,125.924 66.1522,126.59 63.5,126.5C 65.5145,125.076 67.8478,124.41 70.5,124.5 Z"/></g>
<g><path style="opacity:0.016" fill="#8d9ec5" d="M 85.5,124.5 C 85.5,125.5 85.5,126.5 85.5,127.5C 84.5,127.5 83.5,127.5 82.5,127.5C 83.5,126.5 84.5,125.5 85.5,124.5 Z"/></g>
<g><path style="opacity:0.42" fill="#9ba9cc" d="M 63.5,126.5 C 60.4954,128.277 57.1621,129.277 53.5,129.5C 56.5046,127.723 59.8379,126.723 63.5,126.5 Z"/></g>
<g><path style="opacity:1" fill="#536fa8" d="M 149.5,125.5 C 150.404,126.209 150.737,127.209 150.5,128.5C 149.5,128.5 148.5,128.5 147.5,128.5C 147.782,127.222 148.449,126.222 149.5,125.5 Z"/></g>
<g><path style="opacity:0.999" fill="#eceef5" d="M 124.5,128.5 C 126.5,129.833 128.5,129.833 130.5,128.5C 132.179,128.285 133.179,128.952 133.5,130.5C 133.833,131.5 134.5,132.167 135.5,132.5C 136.551,133.222 137.218,134.222 137.5,135.5C 137.167,135.5 136.833,135.5 136.5,135.5C 135.596,136.209 135.263,137.209 135.5,138.5C 134.5,138.5 133.5,138.5 132.5,138.5C 132.5,137.833 132.167,137.5 131.5,137.5C 130.375,138.348 130.375,139.348 131.5,140.5C 130.833,141.167 130.167,141.833 129.5,142.5C 128.833,141.833 128.167,141.167 127.5,140.5C 127.068,139.29 126.401,138.29 125.5,137.5C 125.5,136.5 125.5,135.5 125.5,134.5C 125.5,134.167 125.5,133.833 125.5,133.5C 126.043,133.44 126.376,133.107 126.5,132.5C 125.007,131.859 124.007,130.859 123.5,129.5C 123.5,128.833 123.833,128.5 124.5,128.5 Z"/></g>
<g><path style="opacity:0.42" fill="#aab6d3" d="M 53.5,129.5 C 51.4855,130.924 49.1522,131.59 46.5,131.5C 48.5145,130.076 50.8478,129.41 53.5,129.5 Z"/></g>
<g><path style="opacity:0.922" fill="#5a74ab" d="M 147.5,128.5 C 147.719,129.675 147.386,130.675 146.5,131.5C 145.893,131.376 145.56,131.043 145.5,130.5C 146.167,129.833 146.833,129.167 147.5,128.5 Z"/></g>
<g><path style="opacity:0.851" fill="#7d8cbb" d="M 123.5,129.5 C 124.007,130.859 125.007,131.859 126.5,132.5C 126.376,133.107 126.043,133.44 125.5,133.5C 124.167,133.833 124.167,134.167 125.5,134.5C 125.5,135.5 125.5,136.5 125.5,137.5C 124.947,139.552 123.947,139.885 122.5,138.5C 125.167,138.167 125.167,137.833 122.5,137.5C 122.784,135.585 122.451,133.919 121.5,132.5C 121.932,131.29 122.599,130.29 123.5,129.5 Z"/></g>
<g><path style="opacity:0.42" fill="#a9b5d3" d="M 46.5,131.5 C 44.4855,132.924 42.1522,133.59 39.5,133.5C 41.5145,132.076 43.8478,131.41 46.5,131.5 Z"/></g>
<g><path style="opacity:0.545" fill="#5a6fa9" d="M 139.5,133.5 C 138.833,134.167 138.167,134.833 137.5,135.5C 137.218,134.222 136.551,133.222 135.5,132.5C 137.798,129.653 139.131,129.987 139.5,133.5 Z"/></g>
<g><path style="opacity:0.922" fill="#9caacc" d="M 145.5,113.5 C 149.548,114.358 153.215,116.025 156.5,118.5C 157.105,120.481 158.105,120.815 159.5,119.5C 160.791,119.263 161.791,119.596 162.5,120.5C 163.695,120.678 164.862,121.011 166,121.5C 167.03,121.164 167.53,120.497 167.5,119.5C 171.982,124.936 174.315,131.269 174.5,138.5C 176.5,138.5 178.5,138.5 180.5,138.5C 180.5,136.5 180.5,134.5 180.5,132.5C 180.328,131.508 180.662,130.842 181.5,130.5C 182.483,134.298 182.817,138.298 182.5,142.5C 181.833,141.833 181.167,141.167 180.5,140.5C 178.5,140.5 176.5,140.5 174.5,140.5C 174.213,149.046 171.213,156.379 165.5,162.5C 164.778,163.551 163.778,164.218 162.5,164.5C 162.167,164.5 161.833,164.5 161.5,164.5C 161.5,164.167 161.5,163.833 161.5,163.5C 161.567,162.041 161.234,160.708 160.5,159.5C 161.735,159.721 162.735,160.388 163.5,161.5C 163.315,159.514 163.982,157.514 165.5,155.5C 166.425,156.641 167.259,156.641 168,155.5C 170.57,150.815 172.07,145.815 172.5,140.5C 170.5,140.5 168.5,140.5 166.5,140.5C 165.875,147.043 163.875,153.043 160.5,158.5C 160.715,156.821 160.048,155.821 158.5,155.5C 157.833,155.5 157.5,155.833 157.5,156.5C 156.243,155.377 156.576,154.711 158.5,154.5C 158.833,154.5 159.167,154.5 159.5,154.5C 160.338,154.158 160.672,153.492 160.5,152.5C 162.679,150.008 163.346,147.342 162.5,144.5C 162.443,143.391 162.11,142.391 161.5,141.5C 160.965,138.366 159.965,135.366 158.5,132.5C 159.5,132.5 160.5,132.5 161.5,132.5C 161.5,133.833 161.5,135.167 161.5,136.5C 162.5,139.167 163.5,139.167 164.5,136.5C 164.279,135.265 163.612,134.265 162.5,133.5C 164.092,131.775 163.758,130.775 161.5,130.5C 159.745,128.042 158.411,125.709 157.5,123.5C 154.025,125.084 153.692,127.084 156.5,129.5C 155.25,129.577 154.417,130.244 154,131.5C 151.173,129.914 151.007,128.248 153.5,126.5C 152.757,125.818 152.091,125.151 151.5,124.5C 153.196,124.315 154.529,123.481 155.5,122C 151.736,117.699 147.069,115.199 141.5,114.5C 143.099,114.768 144.432,114.434 145.5,113.5 Z M 161.5,130.5 C 160.791,131.404 159.791,131.737 158.5,131.5C 158.167,130.5 157.5,129.833 156.5,129.5C 153.692,127.084 154.025,125.084 157.5,123.5C 158.411,125.709 159.745,128.042 161.5,130.5 Z M 162.5,120.5 C 161.448,120.351 160.448,120.517 159.5,121C 163.885,125.985 166.219,131.818 166.5,138.5C 168.5,138.5 170.5,138.5 172.5,138.5C 172.07,133.185 170.57,128.185 168,123.5C 166.992,123.018 165.825,122.852 164.5,123C 163.619,122.292 162.953,121.458 162.5,120.5 Z M 161.5,136.5 C 162.5,136.5 163.5,136.5 164.5,136.5C 163.5,139.167 162.5,139.167 161.5,136.5 Z M 161.5,141.5 C 162.75,141.577 163.583,142.244 164,143.5C 164.483,142.552 164.649,141.552 164.5,140.5C 163.209,140.263 162.209,140.596 161.5,141.5 Z"/></g>
<g><path style="opacity:0.42" fill="#a8b4d3" d="M 39.5,133.5 C 37.4855,134.924 35.1522,135.59 32.5,135.5C 34.5145,134.076 36.8478,133.41 39.5,133.5 Z"/></g>
<g><path style="opacity:0.922" fill="#a9b5d3" d="M 141.5,134.5 C 144.599,135.533 145.266,137.533 143.5,140.5C 142.761,140.631 142.094,140.464 141.5,140C 144.018,138.19 144.018,136.357 141.5,134.5 Z"/></g>
<g><path style="opacity:1" fill="#526aa5" d="M 161.5,130.5 C 163.758,130.775 164.092,131.775 162.5,133.5C 163.612,134.265 164.279,135.265 164.5,136.5C 163.5,136.5 162.5,136.5 161.5,136.5C 161.5,135.167 161.5,133.833 161.5,132.5C 160.5,132.5 159.5,132.5 158.5,132.5C 158.5,132.167 158.5,131.833 158.5,131.5C 159.791,131.737 160.791,131.404 161.5,130.5 Z"/></g>
<g><path style="opacity:0.999" fill="#f1f3f8" d="M 105.5,133.5 C 106.461,135.265 106.795,137.265 106.5,139.5C 108.415,139.784 110.081,139.451 111.5,138.5C 111.66,136.847 112.326,135.514 113.5,134.5C 114.167,134.5 114.833,134.5 115.5,134.5C 115.833,134.5 116.167,134.5 116.5,134.5C 116.527,136.199 117.194,137.533 118.5,138.5C 118.334,143.511 118.501,148.511 119,153.5C 119.383,154.056 119.883,154.389 120.5,154.5C 120.5,154.833 120.5,155.167 120.5,155.5C 121.806,156.467 122.473,157.801 122.5,159.5C 121.209,159.263 120.209,159.596 119.5,160.5C 118.833,160.167 118.167,159.833 117.5,159.5C 117.167,159.5 116.833,159.5 116.5,159.5C 116.5,158.167 115.833,157.5 114.5,157.5C 114.158,156.662 113.492,156.328 112.5,156.5C 111.655,154.238 110.322,153.571 108.5,154.5C 106.935,152.491 105.935,150.157 105.5,147.5C 104.762,144.374 103.095,143.04 100.5,143.5C 99.596,142.791 99.2627,141.791 99.5,140.5C 100.11,139.609 100.443,138.609 100.5,137.5C 104.147,140.504 105.814,139.504 105.5,134.5C 105.5,134.167 105.5,133.833 105.5,133.5 Z"/></g>
<g><path style="opacity:0.42" fill="#a7b3d2" d="M 32.5,135.5 C 30.4855,136.924 28.1522,137.59 25.5,137.5C 27.5145,136.076 29.8478,135.41 32.5,135.5 Z"/></g>
<g><path style="opacity:0.545" fill="#6c81b3" d="M 116.5,134.5 C 117.222,134.918 117.722,135.584 118,136.5C 118.278,135.584 118.778,134.918 119.5,134.5C 119.5,134.833 119.5,135.167 119.5,135.5C 119.5,136.5 119.5,137.5 119.5,138.5C 119.167,138.5 118.833,138.5 118.5,138.5C 117.194,137.533 116.527,136.199 116.5,134.5 Z"/></g>
<g><path style="opacity:1" fill="#9ca7cb" d="M 105.5,134.5 C 105.814,139.504 104.147,140.504 100.5,137.5C 101.542,136.209 102.708,136.209 104,137.5C 104.232,136.263 104.732,135.263 105.5,134.5 Z"/></g>
<g><path style="opacity:0.42" fill="#9ba9cb" d="M 25.5,137.5 C 24.1917,138.232 22.8584,139.066 21.5,140C 22.7375,140.232 23.7375,140.732 24.5,141.5C 22.1727,141.753 20.1727,141.086 18.5,139.5C 20.6079,138.056 22.9412,137.39 25.5,137.5 Z"/></g>
<g><path style="opacity:0.025" fill="#c8d2e4" d="M 37.5,138.5 C 52.6576,139.496 67.9909,139.83 83.5,139.5C 83.5,140.833 83.5,142.167 83.5,143.5C 82.596,142.791 82.2627,141.791 82.5,140.5C 66.1531,140.833 49.8197,140.499 33.5,139.5C 34.6888,138.571 36.0222,138.238 37.5,138.5 Z"/></g>
<g><path style="opacity:1" fill="#a9b5d3" d="M 97.5,131.5 C 98.404,132.209 98.7373,133.209 98.5,134.5C 98.3433,135.873 98.51,137.207 99,138.5C 99.3826,137.944 99.8826,137.611 100.5,137.5C 100.443,138.609 100.11,139.609 99.5,140.5C 98.5386,142.265 98.2053,144.265 98.5,146.5C 98.6716,147.492 98.3382,148.158 97.5,148.5C 96.1667,142.833 96.1667,137.167 97.5,131.5 Z"/></g>
<g><path style="opacity:0.545" fill="#aebad6" d="M 121.5,132.5 C 122.451,133.919 122.784,135.585 122.5,137.5C 122.5,137.833 122.5,138.167 122.5,138.5C 123.947,139.885 124.947,139.552 125.5,137.5C 126.401,138.29 127.068,139.29 127.5,140.5C 125.833,140.5 124.167,140.5 122.5,140.5C 121.833,140.5 121.167,140.5 120.5,140.5C 119.554,145.246 119.554,149.913 120.5,154.5C 119.883,154.389 119.383,154.056 119,153.5C 118.501,148.511 118.334,143.511 118.5,138.5C 118.833,138.5 119.167,138.5 119.5,138.5C 120.833,137.5 120.833,136.5 119.5,135.5C 119.5,135.167 119.5,134.833 119.5,134.5C 119.833,133.5 120.5,132.833 121.5,132.5 Z"/></g>
<g><path style="opacity:0.506" fill="#8192be" d="M 136.5,135.5 C 137.342,139.621 136.009,142.621 132.5,144.5C 131.833,144.5 131.5,144.833 131.5,145.5C 130.094,145.027 129.427,144.027 129.5,142.5C 130.167,141.833 130.833,141.167 131.5,140.5C 130.375,139.348 130.375,138.348 131.5,137.5C 132.167,137.5 132.5,137.833 132.5,138.5C 133.5,139.833 134.5,139.833 135.5,138.5C 135.263,137.209 135.596,136.209 136.5,135.5 Z"/></g>
<g><path style="opacity:0.025" fill="#305296" d="M 195.5,139.5 C 211.503,139.333 227.503,139.5 243.5,140C 241.846,140.608 240.179,141.108 238.5,141.5C 224.167,140.833 209.833,140.167 195.5,139.5 Z"/></g>
<g><path style="opacity:0.29" fill="#6b82b3" d="M 258.5,138.5 C 261.167,139.167 261.167,139.833 258.5,140.5C 258.5,139.833 258.5,139.167 258.5,138.5 Z"/></g>
<g><path style="opacity:0.42" fill="#95a3c8" d="M 24.5,141.5 C 27.1522,141.41 29.4855,142.076 31.5,143.5C 28.8478,143.59 26.5145,142.924 24.5,141.5 Z"/></g>
<g><path style="opacity:1" fill="#a0adce" d="M 143.5,140.5 C 145.09,140.628 146.423,141.295 147.5,142.5C 147.043,143.298 146.376,143.631 145.5,143.5C 144.833,142.5 144.167,141.5 143.5,140.5 Z"/></g>
<g><path style="opacity:0.922" fill="#7889b9" d="M 100.5,143.5 C 103.095,143.04 104.762,144.374 105.5,147.5C 103.833,146.167 102.167,144.833 100.5,143.5 Z"/></g>
<g><path style="opacity:0.42" fill="#96a4c9" d="M 31.5,143.5 C 34.1522,143.41 36.4855,144.076 38.5,145.5C 35.8478,145.59 33.5145,144.924 31.5,143.5 Z"/></g>
<g><path style="opacity:1" fill="#2d4e94" d="M 99.5,140.5 C 99.2627,141.791 99.596,142.791 100.5,143.5C 100.443,144.609 100.11,145.609 99.5,146.5C 99.1667,146.5 98.8333,146.5 98.5,146.5C 98.2053,144.265 98.5386,142.265 99.5,140.5 Z"/></g>
<g><path style="opacity:1" fill="#7989b9" d="M 142.5,144.5 C 143.209,143.596 144.209,143.263 145.5,143.5C 145.649,144.552 145.483,145.552 145,146.5C 144.583,145.244 143.75,144.577 142.5,144.5 Z"/></g>
<g><path style="opacity:0.42" fill="#97a5c9" d="M 38.5,145.5 C 41.1522,145.41 43.4855,146.076 45.5,147.5C 42.8478,147.59 40.5145,146.924 38.5,145.5 Z"/></g>
<g><path style="opacity:0.42" fill="#98a5ca" d="M 45.5,147.5 C 48.1522,147.41 50.4855,148.076 52.5,149.5C 49.8478,149.59 47.5145,148.924 45.5,147.5 Z"/></g>
<g><path style="opacity:0.545" fill="#8a99c2" d="M 120.5,140.5 C 121.167,140.5 121.833,140.5 122.5,140.5C 122.905,143.715 123.905,146.715 125.5,149.5C 124.662,149.842 124.328,150.508 124.5,151.5C 121.79,148.4 120.457,144.733 120.5,140.5 Z"/></g>
<g><path style="opacity:0.961" fill="#abb7d4" d="M 132.5,144.5 C 133.833,145.5 135.167,146.5 136.5,147.5C 137.209,148.404 138.209,148.737 139.5,148.5C 140.857,147.41 141.857,146.076 142.5,144.5C 142.5,145.833 142.5,147.167 142.5,148.5C 143.5,148.5 144.5,148.5 145.5,148.5C 145.737,149.791 145.404,150.791 144.5,151.5C 142.157,153.672 139.49,155.339 136.5,156.5C 137.091,155.849 137.757,155.182 138.5,154.5C 135.972,153.483 135.972,152.316 138.5,151C 133.823,147.064 130.489,147.898 128.5,153.5C 126.801,153.473 125.467,152.806 124.5,151.5C 124.328,150.508 124.662,149.842 125.5,149.5C 125.897,150.525 126.563,150.692 127.5,150C 129.041,148.629 130.375,147.129 131.5,145.5C 131.5,144.833 131.833,144.5 132.5,144.5 Z"/></g>
<g><path style="opacity:0.922" fill="#335397" d="M 139.5,148.5 C 138.209,148.737 137.209,148.404 136.5,147.5C 138.196,145.871 139.196,146.204 139.5,148.5 Z"/></g>
<g><path style="opacity:0.42" fill="#99a7cb" d="M 52.5,149.5 C 55.1522,149.41 57.4855,150.076 59.5,151.5C 56.8478,151.59 54.5145,150.924 52.5,149.5 Z"/></g>
<g><path style="opacity:0.545" fill="#315397" d="M 101.5,149.5 C 103.085,150.002 103.585,151.002 103,152.5C 101.961,151.756 101.461,150.756 101.5,149.5 Z"/></g>
<g><path style="opacity:0.545" fill="#5e74ac" d="M 159.5,146.5 C 159.205,148.735 159.539,150.735 160.5,152.5C 160.672,153.492 160.338,154.158 159.5,154.5C 159.5,153.833 159.167,153.5 158.5,153.5C 158.198,150.941 158.532,148.607 159.5,146.5 Z"/></g>
<g><path style="opacity:0.42" fill="#9aa8cb" d="M 59.5,151.5 C 62.1522,151.41 64.4855,152.076 66.5,153.5C 63.8478,153.59 61.5145,152.924 59.5,151.5 Z"/></g>
<g><path style="opacity:0.545" fill="#8c9bc4" d="M 180.5,140.5 C 181.167,141.167 181.833,141.833 182.5,142.5C 179.5,166.167 166.167,179.5 142.5,182.5C 141.833,181.833 141.167,181.167 140.5,180.5C 148.864,180.101 156.531,177.601 163.5,173C 168.74,169.94 168.406,167.44 162.5,165.5C 162.5,165.167 162.5,164.833 162.5,164.5C 163.778,164.218 164.778,163.551 165.5,162.5C 166.055,164.729 167.389,166.395 169.5,167.5C 176.482,159.896 180.149,150.896 180.5,140.5 Z"/></g>
<g><path style="opacity:0.42" fill="#9ba8cc" d="M 66.5,153.5 C 69.1522,153.41 71.4855,154.076 73.5,155.5C 70.8478,155.59 68.5145,154.924 66.5,153.5 Z"/></g>
<g><path style="opacity:0.016" fill="#8092be" d="M 49.5,154.5 C 48.5489,155.919 48.2155,157.585 48.5,159.5C 47.2072,157.636 47.2072,155.636 48.5,153.5C 49.1067,153.624 49.44,153.957 49.5,154.5 Z"/></g>
<g><path style="opacity:0.987" fill="#dcdfec" d="M 49.5,154.5 C 51.1439,154.286 52.6439,154.62 54,155.5C 57.4452,169.383 63.2785,182.05 71.5,193.5C 71.427,195.027 72.0937,196.027 73.5,196.5C 74.4709,197.962 74.1376,199.295 72.5,200.5C 71.609,201.11 70.609,201.443 69.5,201.5C 58.2837,189.734 51.2837,175.734 48.5,159.5C 48.2155,157.585 48.5489,155.919 49.5,154.5 Z"/></g>
<g><path style="opacity:0.42" fill="#9ca9cc" d="M 73.5,155.5 C 76.1522,155.41 78.4855,156.076 80.5,157.5C 77.8478,157.59 75.5145,156.924 73.5,155.5 Z"/></g>
<g><path style="opacity:0.992" fill="#f3f5f9" d="M 149.5,125.5 C 149.842,124.662 150.508,124.328 151.5,124.5C 152.091,125.151 152.757,125.818 153.5,126.5C 151.007,128.248 151.173,129.914 154,131.5C 154.417,130.244 155.25,129.577 156.5,129.5C 157.5,129.833 158.167,130.5 158.5,131.5C 158.5,131.833 158.5,132.167 158.5,132.5C 159.965,135.366 160.965,138.366 161.5,141.5C 162.11,142.391 162.443,143.391 162.5,144.5C 161.71,145.401 160.71,146.068 159.5,146.5C 158.532,148.607 158.198,150.941 158.5,153.5C 158.5,153.833 158.5,154.167 158.5,154.5C 156.576,154.711 156.243,155.377 157.5,156.5C 158.167,156.5 158.5,156.167 158.5,155.5C 160.048,155.821 160.715,156.821 160.5,158.5C 160.5,158.833 160.5,159.167 160.5,159.5C 161.234,160.708 161.567,162.041 161.5,163.5C 160.167,163.833 160.167,164.167 161.5,164.5C 161.833,164.5 162.167,164.5 162.5,164.5C 162.5,164.833 162.5,165.167 162.5,165.5C 159.901,171.297 155.568,173.63 149.5,172.5C 148.508,172.672 147.842,172.338 147.5,171.5C 146.402,170.603 146.402,169.77 147.5,169C 146.956,168.283 146.289,167.783 145.5,167.5C 141.971,165.577 137.971,164.911 133.5,165.5C 132.041,165.567 130.708,165.234 129.5,164.5C 130.209,163.596 131.209,163.263 132.5,163.5C 132.5,162.5 132.5,161.5 132.5,160.5C 133.833,160.5 135.167,160.5 136.5,160.5C 136.5,159.167 136.5,157.833 136.5,156.5C 139.49,155.339 142.157,153.672 144.5,151.5C 145.404,150.791 145.737,149.791 145.5,148.5C 144.5,148.5 143.5,148.5 142.5,148.5C 142.5,147.167 142.5,145.833 142.5,144.5C 143.75,144.577 144.583,145.244 145,146.5C 145.483,145.552 145.649,144.552 145.5,143.5C 146.376,143.631 147.043,143.298 147.5,142.5C 146.423,141.295 145.09,140.628 143.5,140.5C 145.266,137.533 144.599,135.533 141.5,134.5C 140.766,133.292 140.433,131.959 140.5,130.5C 141.833,130.5 143.167,130.5 144.5,130.5C 144.833,130.5 145.167,130.5 145.5,130.5C 145.56,131.043 145.893,131.376 146.5,131.5C 147.386,130.675 147.719,129.675 147.5,128.5C 148.5,128.5 149.5,128.5 150.5,128.5C 150.737,127.209 150.404,126.209 149.5,125.5 Z M 149.5,156.5 C 150.756,156.539 151.756,156.039 152.5,155C 151.002,154.415 150.002,154.915 149.5,156.5 Z"/></g>
<g><path style="opacity:0.987" fill="#dbdeec" d="M 229.5,154.5 C 230.451,155.919 230.784,157.585 230.5,159.5C 227.716,175.734 220.716,189.734 209.5,201.5C 208.167,200.833 206.833,200.167 205.5,199.5C 204.375,198.348 204.375,197.348 205.5,196.5C 206.906,196.027 207.573,195.027 207.5,193.5C 215.721,182.05 221.555,169.383 225,155.5C 226.356,154.62 227.856,154.286 229.5,154.5 Z"/></g>
<g><path style="opacity:0.016" fill="#8294bf" d="M 229.5,154.5 C 229.56,153.957 229.893,153.624 230.5,153.5C 231.793,155.636 231.793,157.636 230.5,159.5C 230.784,157.585 230.451,155.919 229.5,154.5 Z"/></g>
<g><path style="opacity:0.922" fill="#6b79b0" d="M 114.5,157.5 C 115.833,157.5 116.5,158.167 116.5,159.5C 115.5,159.167 114.833,158.5 114.5,157.5 Z"/></g>
<g><path style="opacity:0.733" fill="#b5c1d9" d="M 142.5,155.5 C 142.833,155.5 143.167,155.5 143.5,155.5C 144.568,156.434 145.901,156.768 147.5,156.5C 147.5,156.833 147.5,157.167 147.5,157.5C 144.833,157.833 144.833,158.167 147.5,158.5C 147.083,159.124 146.416,159.457 145.5,159.5C 143.87,158.579 142.203,157.745 140.5,157C 141.416,156.722 142.082,156.222 142.5,155.5 Z"/></g>
<g><path style="opacity:0.29" fill="#7084b5" d="M 194.5,152.5 C 194.643,154.262 194.309,155.929 193.5,157.5C 193.957,158.298 194.624,158.631 195.5,158.5C 194.791,159.404 193.791,159.737 192.5,159.5C 192.41,156.848 193.076,154.515 194.5,152.5 Z"/></g>
<g><path style="opacity:0.545" fill="#8d9cc4" d="M 124.5,151.5 C 125.467,152.806 126.801,153.473 128.5,153.5C 131.167,154.5 133.833,155.5 136.5,156.5C 136.5,157.833 136.5,159.167 136.5,160.5C 135.167,160.5 133.833,160.5 132.5,160.5C 132.5,161.5 132.5,162.5 132.5,163.5C 131.209,163.263 130.209,163.596 129.5,164.5C 126.34,162.581 123.006,161.248 119.5,160.5C 120.209,159.596 121.209,159.263 122.5,159.5C 122.473,157.801 121.806,156.467 120.5,155.5C 122.833,155.167 124.167,153.833 124.5,151.5 Z M 132.5,160.5 C 133.263,159.732 134.263,159.232 135.5,159C 132.246,157.973 129.246,156.473 126.5,154.5C 125.167,155.167 124.167,156.167 123.5,157.5C 125.267,159.89 127.6,161.557 130.5,162.5C 131.182,161.757 131.849,161.091 132.5,160.5 Z"/></g>
<g><path style="opacity:0.016" fill="#5168a4" d="M 10.5,162.5 C 9.83333,162.833 9.16667,163.167 8.5,163.5C 9.03204,160.54 9.69871,160.207 10.5,162.5 Z"/></g>
<g><path style="opacity:0.99" fill="#e3e6f1" d="M 10.5,162.5 C 11.4345,163.568 11.7678,164.901 11.5,166.5C 11.1201,168.698 11.7868,170.365 13.5,171.5C 15.0075,173.181 16.0075,175.181 16.5,177.5C 16.427,179.027 17.0937,180.027 18.5,180.5C 21.9957,184.819 24.9957,189.485 27.5,194.5C 27.427,196.027 28.0937,197.027 29.5,197.5C 32.2067,200.247 33.8734,203.58 34.5,207.5C 34.6716,208.492 34.3382,209.158 33.5,209.5C 31.1667,207.833 29.1667,205.833 27.5,203.5C 27.0269,202.094 26.0269,201.427 24.5,201.5C 17.8098,197.152 13.4765,191.152 11.5,183.5C 11.162,181.146 10.662,178.813 10,176.5C 9.19549,179.696 9.36216,182.696 10.5,185.5C 10.2406,196.836 9.90724,208.169 9.5,219.5C 9.71481,221.179 9.04814,222.179 7.5,222.5C 3.26997,216.806 0.603308,210.472 -0.5,203.5C -0.5,200.833 -0.5,198.167 -0.5,195.5C 0.22477,191.769 1.22477,188.102 2.5,184.5C 3.92381,182.485 4.59047,180.152 4.5,177.5C 5.63035,172.776 6.96369,168.109 8.5,163.5C 9.16667,163.167 9.83333,162.833 10.5,162.5 Z"/></g>
<g><path style="opacity:0.016" fill="#546ba6" d="M 269.5,165.5 C 268.833,165.5 268.167,165.5 267.5,165.5C 268.167,162.833 268.833,162.833 269.5,165.5 Z"/></g>
<g><path style="opacity:0.851" fill="#92a0c7" d="M 98.5,146.5 C 98.8333,146.5 99.1667,146.5 99.5,146.5C 100.869,154.572 104.369,161.572 110,167.5C 111.353,166.315 112.52,164.981 113.5,163.5C 111.376,160.721 109.709,157.721 108.5,154.5C 110.322,153.571 111.655,154.238 112.5,156.5C 113.048,158.394 114.048,160.06 115.5,161.5C 116.522,161.145 117.189,160.478 117.5,159.5C 118.167,159.833 118.833,160.167 119.5,160.5C 118.859,161.482 118.193,162.482 117.5,163.5C 123.028,168.433 129.361,171.433 136.5,172.5C 134.901,172.232 133.568,172.566 132.5,173.5C 126.201,172.184 120.534,169.517 115.5,165.5C 114.019,166.48 112.685,167.647 111.5,169C 118.915,176.42 127.915,180.254 138.5,180.5C 137.833,181.167 137.167,181.833 136.5,182.5C 115.548,180.203 102.548,168.87 97.5,148.5C 98.3382,148.158 98.6716,147.492 98.5,146.5 Z"/></g>
<g><path style="opacity:0.545" fill="#91a2c7" d="M 133.5,165.5 C 137.971,164.911 141.971,165.577 145.5,167.5C 143.958,166.699 142.292,166.366 140.5,166.5C 140.5,168.5 140.5,170.5 140.5,172.5C 139.833,172.5 139.167,172.5 138.5,172.5C 138.5,170.5 138.5,168.5 138.5,166.5C 136.585,166.784 134.919,166.451 133.5,165.5 Z"/></g>
<g><path style="opacity:1" fill="#e4e7f1" d="M 270.5,168.5 C 271.048,170.532 272.381,171.532 274.5,171.5C 276.099,171.232 277.432,171.566 278.5,172.5C 276.295,174.363 274.961,176.697 274.5,179.5C 274.715,181.179 274.048,182.179 272.5,182.5C 271.279,181.972 270.113,181.305 269,180.5C 267.961,181.71 266.794,182.71 265.5,183.5C 264.167,183.5 263.5,182.833 263.5,181.5C 263.5,179.833 263.5,178.167 263.5,176.5C 263.027,175.094 262.027,174.427 260.5,174.5C 259.508,174.672 258.842,174.338 258.5,173.5C 261.477,173.098 264.143,172.098 266.5,170.5C 267.158,169.602 267.824,168.602 268.5,167.5C 269.183,167.863 269.85,168.196 270.5,168.5 Z"/></g>
<g><path style="opacity:0.42" fill="#8e9dc5" d="M 11.5,166.5 C 12.5375,167.93 13.2041,169.597 13.5,171.5C 11.7868,170.365 11.1201,168.698 11.5,166.5 Z"/></g>
<g><path style="opacity:0.016" fill="#a4b0d0" d="M 267.5,165.5 C 268.167,165.5 268.833,165.5 269.5,165.5C 270.11,166.391 270.443,167.391 270.5,168.5C 269.85,168.196 269.183,167.863 268.5,167.5C 267.824,168.602 267.158,169.602 266.5,170.5C 266.366,168.708 266.699,167.042 267.5,165.5 Z"/></g>
<g><path style="opacity:0.016" fill="#3c599b" d="M 274.5,171.5 C 275.919,170.549 277.585,170.216 279.5,170.5C 279.5,171.167 279.5,171.833 279.5,172.5C 279.167,172.5 278.833,172.5 278.5,172.5C 277.432,171.566 276.099,171.232 274.5,171.5 Z"/></g>
<g><path style="opacity:0.545" fill="#6c82b4" d="M 143.5,172.5 C 144.568,171.566 145.901,171.232 147.5,171.5C 147.842,172.338 148.508,172.672 149.5,172.5C 148.791,173.404 147.791,173.737 146.5,173.5C 145.791,172.596 144.791,172.263 143.5,172.5 Z"/></g>
<g><path style="opacity:0.016" fill="#5e77ad" d="M 266.5,170.5 C 264.143,172.098 261.477,173.098 258.5,173.5C 257.957,173.44 257.624,173.107 257.5,172.5C 260.527,171.751 263.527,171.084 266.5,170.5 Z"/></g>
<g><path style="opacity:0.974" fill="#d4d9e9" d="M 87.5,189.5 C 85.5839,190.665 84.7506,192.332 85,194.5C 86.3756,193.295 87.5423,191.962 88.5,190.5C 91.8437,186.323 95.6771,182.656 100,179.5C 103.158,181.323 105.492,183.657 107,186.5C 97.7154,192.225 88.2154,197.559 78.5,202.5C 77.5084,202.672 76.8417,202.338 76.5,201.5C 81.3464,190.999 87.0131,180.999 93.5,171.5C 94.3816,172.76 95.3816,173.926 96.5,175C 93.6143,179.945 90.6143,184.779 87.5,189.5 Z"/></g>
<g><path style="opacity:0.939" fill="#d8ddeb" d="M 202.5,201.5 C 202.158,202.338 201.492,202.672 200.5,202.5C 190.536,197.518 180.869,192.018 171.5,186C 172.399,184.764 173.566,183.93 175,183.5C 179.795,185.808 184.295,188.475 188.5,191.5C 190.331,193.749 192.664,194.915 195.5,195C 194.154,193.331 192.487,192.164 190.5,191.5C 186.855,187.52 183.189,183.52 179.5,179.5C 181.098,176.399 183.265,173.732 186,171.5C 192.159,181.153 197.659,191.153 202.5,201.5 Z"/></g>
<g><path style="opacity:0.016" fill="#7b8cba" d="M 260.5,174.5 C 262.027,174.427 263.027,175.094 263.5,176.5C 261.973,176.573 260.973,175.906 260.5,174.5 Z"/></g>
<g><path style="opacity:0.016" fill="#7687b7" d="M 16.5,177.5 C 17.9063,177.973 18.573,178.973 18.5,180.5C 17.0937,180.027 16.427,179.027 16.5,177.5 Z"/></g>
<g><path style="opacity:0.42" fill="#9ca9cc" d="M 4.5,177.5 C 4.59047,180.152 3.92381,182.485 2.5,184.5C 2.40953,181.848 3.07619,179.515 4.5,177.5 Z"/></g>
<g><path style="opacity:0.62" fill="#a5b1d1" d="M 132.5,173.5 C 133.568,172.566 134.901,172.232 136.5,172.5C 137.167,172.5 137.833,172.5 138.5,172.5C 139.167,172.5 139.833,172.5 140.5,172.5C 141.5,172.5 142.5,172.5 143.5,172.5C 144.791,172.263 145.791,172.596 146.5,173.5C 144.621,174.341 142.621,174.675 140.5,174.5C 140.5,176.5 140.5,178.5 140.5,180.5C 141.167,181.167 141.833,181.833 142.5,182.5C 140.5,182.5 138.5,182.5 136.5,182.5C 137.167,181.833 137.833,181.167 138.5,180.5C 138.5,178.5 138.5,176.5 138.5,174.5C 136.379,174.675 134.379,174.341 132.5,173.5 Z"/></g>
<g><path style="opacity:0.016" fill="#617aaf" d="M 11.5,183.5 C 10.6618,183.842 10.3284,184.508 10.5,185.5C 9.36216,182.696 9.19549,179.696 10,176.5C 10.662,178.813 11.162,181.146 11.5,183.5 Z"/></g>
<g><path style="opacity:0.882" fill="#97a5c9" d="M 274.5,179.5 C 275.914,181.044 276.247,182.711 275.5,184.5C 274.261,184.058 273.261,183.391 272.5,182.5C 274.048,182.179 274.715,181.179 274.5,179.5 Z"/></g>
<g><path style="opacity:0.016" fill="#7588b8" d="M 263.5,181.5 C 263.5,182.833 264.167,183.5 265.5,183.5C 264.828,184.267 263.995,184.934 263,185.5C 262.235,183.934 262.402,182.601 263.5,181.5 Z"/></g>
<g><path style="opacity:1" fill="#4b62a0" d="M 87.5,189.5 C 87.5,190.167 87.8333,190.5 88.5,190.5C 87.5423,191.962 86.3756,193.295 85,194.5C 84.7506,192.332 85.5839,190.665 87.5,189.5 Z"/></g>
<g><path style="opacity:1" fill="#8895c1" d="M 123.5,193.5 C 121.744,194.552 121.077,196.219 121.5,198.5C 120.262,196.786 119.595,194.786 119.5,192.5C 121.099,192.232 122.432,192.566 123.5,193.5 Z"/></g>
<g><path style="opacity:1" fill="#e6e9f2" d="M 123.5,193.5 C 125.911,193.137 127.411,194.137 128,196.5C 131.486,210.444 134.653,224.444 137.5,238.5C 137.629,240.216 137.962,241.883 138.5,243.5C 138.369,244.376 138.702,245.043 139.5,245.5C 140.499,229.18 140.833,212.847 140.5,196.5C 143.187,196.664 145.854,196.497 148.5,196C 149.416,195.722 150.082,195.222 150.5,194.5C 151.167,194.5 151.833,194.5 152.5,194.5C 154.262,194.643 155.929,194.309 157.5,193.5C 158.298,193.957 158.631,194.624 158.5,195.5C 153.406,215.437 147.739,235.104 141.5,254.5C 140.849,255.091 140.182,255.757 139.5,256.5C 138.818,255.757 138.151,255.091 137.5,254.5C 131.592,236.097 126.259,217.43 121.5,198.5C 121.077,196.219 121.744,194.552 123.5,193.5 Z"/></g>
<g><path style="opacity:0.42" fill="#8393bf" d="M 158.5,195.5 C 158.631,194.624 158.298,193.957 157.5,193.5C 155.929,194.309 154.262,194.643 152.5,194.5C 154.515,193.076 156.848,192.41 159.5,192.5C 159.737,193.791 159.404,194.791 158.5,195.5 Z"/></g>
<g><path style="opacity:0.42" fill="#8390be" d="M 71.5,193.5 C 72.9063,193.973 73.573,194.973 73.5,196.5C 72.0937,196.027 71.427,195.027 71.5,193.5 Z"/></g>
<g><path style="opacity:1" fill="#6c7fb2" d="M 188.5,191.5 C 189.167,191.5 189.833,191.5 190.5,191.5C 192.487,192.164 194.154,193.331 195.5,195C 192.664,194.915 190.331,193.749 188.5,191.5 Z"/></g>
<g><path style="opacity:0.42" fill="#8390be" d="M 207.5,193.5 C 207.573,195.027 206.906,196.027 205.5,196.5C 205.427,194.973 206.094,193.973 207.5,193.5 Z"/></g>
<g><path style="opacity:0.016" fill="#8b9ac3" d="M 27.5,194.5 C 28.9063,194.973 29.573,195.973 29.5,197.5C 28.0937,197.027 27.427,196.027 27.5,194.5 Z"/></g>
<g><path style="opacity:0.022" fill="#23478f" d="M 139.5,196.5 C 139.83,212.342 139.496,228.009 138.5,243.5C 137.962,241.883 137.629,240.216 137.5,238.5C 138.167,224.5 138.833,210.5 139.5,196.5 Z"/></g>
<g><path style="opacity:0.988" fill="#d3d9e9" d="M 150.5,194.5 C 150.082,195.222 149.416,195.722 148.5,196C 145.854,196.497 143.187,196.664 140.5,196.5C 140.833,212.847 140.499,229.18 139.5,245.5C 138.702,245.043 138.369,244.376 138.5,243.5C 139.496,228.009 139.83,212.342 139.5,196.5C 142.974,195.475 146.64,194.808 150.5,194.5 Z"/></g>
<g><path style="opacity:0.016" fill="#687db1" d="M 15.5,198.5 C 14.5084,205.648 14.175,212.981 14.5,220.5C 13.3434,212.344 13.1768,204.01 14,195.5C 15.0386,196.244 15.5386,197.244 15.5,198.5 Z"/></g>
<g><path style="opacity:0.971" fill="#dde1ed" d="M 265.5,205.5 C 265.5,206.167 265.5,206.833 265.5,207.5C 263.95,208.441 262.284,209.107 260.5,209.5C 259.833,211.833 259.167,214.167 258.5,216.5C 256.871,215.375 255.371,214.041 254,212.5C 252.67,213.582 251.17,214.249 249.5,214.5C 248.508,214.672 247.842,214.338 247.5,213.5C 248.361,211.614 249.361,209.78 250.5,208C 248.959,206.629 247.625,205.129 246.5,203.5C 247.209,202.596 248.209,202.263 249.5,202.5C 250.167,202.5 250.833,202.5 251.5,202.5C 252.947,203.885 253.947,203.552 254.5,201.5C 255.906,201.027 256.573,200.027 256.5,198.5C 256.369,197.624 256.702,196.957 257.5,196.5C 258.795,199.012 259.461,201.679 259.5,204.5C 261.565,204.517 263.565,204.85 265.5,205.5 Z"/></g>
<g><path style="opacity:0.98" fill="#e6e9f2" d="M 15.5,198.5 C 17.934,201.438 20.6007,204.271 23.5,207C 34.514,213.182 44.1807,221.015 52.5,230.5C 52.1583,231.338 51.4916,231.672 50.5,231.5C 49.391,231.443 48.391,231.11 47.5,230.5C 46.3646,228.787 44.698,228.12 42.5,228.5C 36.0998,226.801 30.4331,223.801 25.5,219.5C 24.8333,218.5 24.1667,217.5 23.5,216.5C 21.6778,213.528 19.8445,210.528 18,207.5C 18.6647,211.166 20.1647,214.5 22.5,217.5C 22.9321,218.71 23.5987,219.71 24.5,220.5C 24.8333,221.833 25.1667,223.167 25.5,224.5C 25.4095,227.152 26.0762,229.485 27.5,231.5C 29.2141,237.967 31.5474,244.3 34.5,250.5C 34.1583,251.338 33.4916,251.672 32.5,251.5C 22.3437,243.655 16.3437,233.322 14.5,220.5C 14.175,212.981 14.5084,205.648 15.5,198.5 Z"/></g>
<g><path style="opacity:0.42" fill="#818fbd" d="M 205.5,199.5 C 206.833,200.167 208.167,200.833 209.5,201.5C 207.559,202.679 206.226,202.013 205.5,199.5 Z"/></g>
<g><path style="opacity:0.016" fill="#7486b7" d="M 256.5,198.5 C 256.573,200.027 255.906,201.027 254.5,201.5C 254.427,199.973 255.094,198.973 256.5,198.5 Z"/></g>
<g><path style="opacity:0.42" fill="#7a89b9" d="M 24.5,201.5 C 26.0269,201.427 27.0269,202.094 27.5,203.5C 25.9731,203.573 24.9731,202.906 24.5,201.5 Z"/></g>
<g><path style="opacity:0.29" fill="#5c6fa9" d="M 72.5,200.5 C 71.9473,202.552 70.9473,202.885 69.5,201.5C 70.609,201.443 71.609,201.11 72.5,200.5 Z"/></g>
<g><path style="opacity:0.29" fill="#4561a0" d="M 249.5,202.5 C 248.209,202.263 247.209,202.596 246.5,203.5C 245.249,202.528 245.582,201.861 247.5,201.5C 248.416,201.543 249.083,201.876 249.5,202.5 Z"/></g>
<g><path style="opacity:0.016" fill="#6376ad" d="M 76.5,201.5 C 76.8417,202.338 77.5084,202.672 78.5,202.5C 77.4732,203.848 76.1398,204.348 74.5,204C 75.0659,203.005 75.7326,202.172 76.5,201.5 Z"/></g>
<g><path style="opacity:0.016" fill="#687bb0" d="M 202.5,201.5 C 203.267,202.172 203.934,203.005 204.5,204C 202.86,204.348 201.527,203.848 200.5,202.5C 201.492,202.672 202.158,202.338 202.5,201.5 Z"/></g>
<g><path style="opacity:0.42" fill="#697eb1" d="M 254.5,201.5 C 253.947,203.552 252.947,203.885 251.5,202.5C 252.609,202.443 253.609,202.11 254.5,201.5 Z"/></g>
<g><path style="opacity:0.985" fill="#dde1ed" d="M 94.5,213.5 C 94.8212,215.048 95.8212,215.715 97.5,215.5C 105.804,219.547 114.471,222.714 123.5,225C 124.337,226.011 124.67,227.178 124.5,228.5C 124.737,229.791 124.404,230.791 123.5,231.5C 121.585,231.784 119.919,231.451 118.5,230.5C 116.485,229.076 114.152,228.41 111.5,228.5C 101.689,226.261 93.0224,221.928 85.5,215.5C 85.0269,214.094 84.0269,213.427 82.5,213.5C 81.5,213.167 80.8333,212.5 80.5,211.5C 80.0269,210.094 79.0269,209.427 77.5,209.5C 76.475,209.103 76.3083,208.437 77,207.5C 78.586,206.624 80.086,205.624 81.5,204.5C 85.688,207.757 90.0214,210.757 94.5,213.5 Z"/></g>
<g><path style="opacity:0.985" fill="#dadeec" d="M 155.5,231.5 C 154.596,230.791 154.263,229.791 154.5,228.5C 154.33,227.178 154.663,226.011 155.5,225C 157.74,224.023 160.073,223.523 162.5,223.5C 166.708,223.323 170.374,221.99 173.5,219.5C 181.971,215.384 189.971,210.384 197.5,204.5C 199.389,205.604 201.055,206.937 202.5,208.5C 189.403,221.214 173.736,228.881 155.5,231.5 Z"/></g>
<g><path style="opacity:0.29" fill="#3b5699" d="M 265.5,205.5 C 268.167,206.167 268.167,206.833 265.5,207.5C 265.5,206.833 265.5,206.167 265.5,205.5 Z"/></g>
<g><path style="opacity:0.016" fill="#7689b8" d="M 34.5,207.5 C 35.914,209.044 36.2474,210.711 35.5,212.5C 34.5748,211.643 33.9081,210.643 33.5,209.5C 34.3382,209.158 34.6716,208.492 34.5,207.5 Z"/></g>
<g><path style="opacity:0.42" fill="#8593bf" d="M 77.5,209.5 C 79.0269,209.427 80.0269,210.094 80.5,211.5C 78.9731,211.573 77.9731,210.906 77.5,209.5 Z"/></g>
<g><path style="opacity:0.42" fill="#8391be" d="M 82.5,213.5 C 84.0269,213.427 85.0269,214.094 85.5,215.5C 83.9731,215.573 82.9731,214.906 82.5,213.5 Z"/></g>
<g><path style="opacity:1" fill="#788cba" d="M 23.5,216.5 C 22.8333,216.5 22.5,216.833 22.5,217.5C 20.1647,214.5 18.6647,211.166 18,207.5C 19.8445,210.528 21.6778,213.528 23.5,216.5 Z"/></g>
<g><path style="opacity:0.42" fill="#8894c0" d="M 94.5,213.5 C 95.7095,213.932 96.7095,214.599 97.5,215.5C 95.8212,215.715 94.8212,215.048 94.5,213.5 Z"/></g>
<g><path style="opacity:0.29" fill="#4b66a3" d="M 247.5,213.5 C 247.842,214.338 248.508,214.672 249.5,214.5C 248.614,215.776 247.614,215.776 246.5,214.5C 246.624,213.893 246.957,213.56 247.5,213.5 Z"/></g>
<g><path style="opacity:0.016" fill="#6c82b4" d="M 260.5,209.5 C 260.665,212.518 260.498,215.518 260,218.5C 259.283,217.956 258.783,217.289 258.5,216.5C 259.167,214.167 259.833,211.833 260.5,209.5 Z"/></g>
<g><path style="opacity:0.016" fill="#163a88" d="M 23.5,216.5 C 24.1667,217.5 24.8333,218.5 25.5,219.5C 24.8333,219.5 24.5,219.833 24.5,220.5C 23.5987,219.71 22.9321,218.71 22.5,217.5C 22.5,216.833 22.8333,216.5 23.5,216.5 Z"/></g>
<g><path style="opacity:0.42" fill="#9ca9cc" d="M 173.5,219.5 C 170.374,221.99 166.708,223.323 162.5,223.5C 165.939,221.796 169.605,220.462 173.5,219.5 Z"/></g>
<g><path style="opacity:0.016" fill="#7e8ebc" d="M 9.5,219.5 C 10.9039,222.317 11.7372,225.317 12,228.5C 10.2476,226.649 8.74759,224.649 7.5,222.5C 9.04814,222.179 9.71481,221.179 9.5,219.5 Z"/></g>
<g><path style="opacity:0.449" fill="#7183b5" d="M 239.5,233.5 C 238.833,231.167 238.167,228.833 237.5,226.5C 238.14,224.668 239.14,224.335 240.5,225.5C 239.607,228.084 239.274,230.751 239.5,233.5 Z"/></g>
<g><path style="opacity:0.42" fill="#8e9cc4" d="M 25.5,224.5 C 26.9238,226.515 27.5905,228.848 27.5,231.5C 26.0762,229.485 25.4095,227.152 25.5,224.5 Z"/></g>
<g><path style="opacity:1" fill="#e3e6f0" d="M 237.5,226.5 C 238.167,228.833 238.833,231.167 239.5,233.5C 241.284,233.893 242.95,234.559 244.5,235.5C 244.5,236.167 244.5,236.833 244.5,237.5C 244.167,237.5 243.833,237.5 243.5,237.5C 240.918,237.025 238.918,237.692 237.5,239.5C 237.852,242.073 237.352,244.406 236,246.5C 234.609,243.664 232.776,241.331 230.5,239.5C 228.585,239.784 226.919,239.451 225.5,238.5C 225.833,237.5 226.5,236.833 227.5,236.5C 228.586,236.38 229.253,235.713 229.5,234.5C 229.457,233.584 229.124,232.917 228.5,232.5C 228.5,231.5 228.5,230.5 228.5,229.5C 229.5,229.5 230.5,229.5 231.5,229.5C 233.947,229.385 235.947,228.385 237.5,226.5 Z"/></g>
<g><path style="opacity:0.42" fill="#8a98c2" d="M 42.5,228.5 C 44.698,228.12 46.3646,228.787 47.5,230.5C 45.597,230.204 43.9303,229.537 42.5,228.5 Z"/></g>
<g><path style="opacity:0.42" fill="#909bc5" d="M 231.5,229.5 C 230.5,229.5 229.5,229.5 228.5,229.5C 228.5,230.5 228.5,231.5 228.5,232.5C 224.167,226.167 225.167,225.167 231.5,229.5 Z"/></g>
<g><path style="opacity:0.016" fill="#8191be" d="M 34.5,229.5 C 32.9519,229.821 32.2852,230.821 32.5,232.5C 31.6963,230.811 30.6963,229.145 29.5,227.5C 29.8333,227.167 30.1667,226.833 30.5,226.5C 31.9014,227.521 33.2347,228.521 34.5,229.5 Z"/></g>
<g><path style="opacity:0.993" fill="#e4e6f1" d="M 34.5,229.5 C 42.909,233.025 51.5757,235.858 60.5,238C 64.9748,239.402 68.9748,241.569 72.5,244.5C 69.3157,246.414 65.649,247.08 61.5,246.5C 58.9407,246.802 56.6074,246.468 54.5,245.5C 52.4855,244.076 50.1522,243.41 47.5,243.5C 47.1667,243.5 46.8333,243.5 46.5,243.5C 43.8959,241.4 41.3959,239.067 39,236.5C 40.1143,239.805 42.2809,242.472 45.5,244.5C 47.984,246.8 49.984,249.467 51.5,252.5C 51.427,254.027 52.0937,255.027 53.5,255.5C 54.3382,255.842 54.6716,256.508 54.5,257.5C 54.427,259.027 55.0937,260.027 56.5,260.5C 56.427,262.027 57.0937,263.027 58.5,263.5C 60.8333,265.167 62.8333,267.167 64.5,269.5C 64.5,270.833 63.8333,271.5 62.5,271.5C 57.8349,270.172 53.8349,267.839 50.5,264.5C 50.0269,263.094 49.0269,262.427 47.5,262.5C 39.8621,253.984 34.8621,243.984 32.5,232.5C 32.2852,230.821 32.9519,229.821 34.5,229.5 Z"/></g>
<g><path style="opacity:0.016" fill="#8d9dc4" d="M 111.5,228.5 C 114.152,228.41 116.485,229.076 118.5,230.5C 115.848,230.59 113.515,229.924 111.5,228.5 Z"/></g>
<g><path style="opacity:0.882" fill="#92a0c6" d="M 52.5,230.5 C 53.9616,231.458 55.2949,232.624 56.5,234C 54.0207,234.362 52.0207,233.529 50.5,231.5C 51.4916,231.672 52.1583,231.338 52.5,230.5 Z"/></g>
<g><path style="opacity:0.29" fill="#325096" d="M 124.5,228.5 C 125.782,229.708 125.782,231.042 124.5,232.5C 123.893,232.376 123.56,232.043 123.5,231.5C 124.404,230.791 124.737,229.791 124.5,228.5 Z"/></g>
<g><path style="opacity:0.29" fill="#325096" d="M 154.5,228.5 C 154.263,229.791 154.596,230.791 155.5,231.5C 154.528,232.751 153.861,232.418 153.5,230.5C 153.543,229.584 153.876,228.917 154.5,228.5 Z"/></g>
<g><path style="opacity:0.42" fill="#8996c1" d="M 228.5,232.5 C 229.124,232.917 229.457,233.584 229.5,234.5C 229.253,235.713 228.586,236.38 227.5,236.5C 228.234,235.292 228.567,233.959 228.5,232.5 Z"/></g>
<g><path style="opacity:0.016" fill="#576ea8" d="M 244.5,235.5 C 246.933,236.548 246.933,237.214 244.5,237.5C 244.5,236.833 244.5,236.167 244.5,235.5 Z"/></g>
<g><path style="opacity:0.016" fill="#6177ae" d="M 243.5,237.5 C 241.626,238.285 239.626,238.952 237.5,239.5C 238.918,237.692 240.918,237.025 243.5,237.5 Z"/></g>
<g><path style="opacity:0.016" fill="#768ab9" d="M 225.5,238.5 C 226.919,239.451 228.585,239.784 230.5,239.5C 228.372,240.629 226.039,240.796 223.5,240C 224.044,239.283 224.711,238.783 225.5,238.5 Z"/></g>
<g><path style="opacity:1" fill="#6076ad" d="M 46.5,243.5 C 45.8333,243.5 45.5,243.833 45.5,244.5C 42.2809,242.472 40.1143,239.805 39,236.5C 41.3959,239.067 43.8959,241.4 46.5,243.5 Z"/></g>
<g><path style="opacity:0.42" fill="#a0adce" d="M 47.5,243.5 C 50.1522,243.41 52.4855,244.076 54.5,245.5C 51.8478,245.59 49.5145,244.924 47.5,243.5 Z"/></g>
<g><path style="opacity:0.42" fill="#8797c1" d="M 72.5,244.5 C 74.903,245.835 76.2363,247.502 76.5,249.5C 71.4606,248.085 66.4606,247.085 61.5,246.5C 65.649,247.08 69.3157,246.414 72.5,244.5 Z"/></g>
<g><path style="opacity:0.29" fill="#4d69a4" d="M 202.5,247.5 C 201.662,247.842 201.328,248.508 201.5,249.5C 200.224,248.614 200.224,247.614 201.5,246.5C 202.107,246.624 202.44,246.957 202.5,247.5 Z"/></g>
<g><path style="opacity:0.016" fill="#6679af" d="M 56.5,249.5 C 55.209,249.263 54.209,249.596 53.5,250.5C 52.7326,249.828 52.0659,248.995 51.5,248C 53.3908,247.797 55.0575,248.297 56.5,249.5 Z"/></g>
<g><path style="opacity:0.976" fill="#dee1ee" d="M 202.5,247.5 C 204.129,248.625 205.629,249.959 207,251.5C 207.671,250.748 208.504,250.414 209.5,250.5C 211.179,250.285 212.179,250.952 212.5,252.5C 212.15,255.453 213.15,257.787 215.5,259.5C 213.167,260.167 210.833,260.833 208.5,261.5C 208.598,263.553 207.931,265.22 206.5,266.5C 205.833,266.167 205.167,265.833 204.5,265.5C 203.962,263.883 203.629,262.216 203.5,260.5C 200.679,260.461 198.012,259.795 195.5,258.5C 197.029,257.237 198.695,256.237 200.5,255.5C 201.586,255.38 202.253,254.713 202.5,253.5C 202.457,252.584 202.124,251.917 201.5,251.5C 201.5,250.833 201.5,250.167 201.5,249.5C 201.328,248.508 201.662,247.842 202.5,247.5 Z"/></g>
<g><path style="opacity:0.42" fill="#a0acce" d="M 212.5,252.5 C 212.179,250.952 211.179,250.285 209.5,250.5C 215.535,246.001 216.535,246.668 212.5,252.5 Z"/></g>
<g><path style="opacity:0.993" fill="#dce0ed" d="M 56.5,249.5 C 65.4845,250.142 74.4845,250.642 83.5,251C 87.0094,251.422 90.3428,252.422 93.5,254C 95.3237,254.66 96.657,255.827 97.5,257.5C 97.1583,258.338 96.4916,258.672 95.5,258.5C 87.5,258.5 79.5,258.5 71.5,258.5C 69.6843,257.379 67.6843,256.879 65.5,257C 66.6934,258.095 68.0267,258.928 69.5,259.5C 76.0544,264.936 83.0544,269.603 90.5,273.5C 91.5,274.167 92.5,274.833 93.5,275.5C 86.3291,277.367 79.6625,276.367 73.5,272.5C 73.0269,271.094 72.0269,270.427 70.5,270.5C 64.1126,264.446 58.4459,257.779 53.5,250.5C 54.209,249.596 55.209,249.263 56.5,249.5 Z"/></g>
<g><path style="opacity:0.42" fill="#8190bd" d="M 34.5,250.5 C 36.2959,251.793 37.9625,253.293 39.5,255C 36.65,255.009 34.3167,253.842 32.5,251.5C 33.4916,251.672 34.1583,251.338 34.5,250.5 Z"/></g>
<g><path style="opacity:0.016" fill="#798ab9" d="M 51.5,252.5 C 52.9063,252.973 53.573,253.973 53.5,255.5C 52.0937,255.027 51.427,254.027 51.5,252.5 Z"/></g>
<g><path style="opacity:0.42" fill="#546ba6" d="M 201.5,251.5 C 202.124,251.917 202.457,252.584 202.5,253.5C 202.253,254.713 201.586,255.38 200.5,255.5C 201.234,254.292 201.567,252.959 201.5,251.5 Z"/></g>
<g><path style="opacity:0.42" fill="#a7b3d2" d="M 137.5,254.5 C 138.151,255.091 138.818,255.757 139.5,256.5C 140.182,255.757 140.849,255.091 141.5,254.5C 140.167,262.5 138.833,262.5 137.5,254.5 Z"/></g>
<g><path style="opacity:0.42" fill="#314e95" d="M 71.5,258.5 C 70.5084,258.328 69.8417,258.662 69.5,259.5C 68.0267,258.928 66.6934,258.095 65.5,257C 67.6843,256.879 69.6843,257.379 71.5,258.5 Z"/></g>
<g><path style="opacity:0.016" fill="#7d8ebc" d="M 97.5,257.5 C 99.9728,257.604 100.639,258.604 99.5,260.5C 97.9745,260.006 96.6412,259.339 95.5,258.5C 96.4916,258.672 97.1583,258.338 97.5,257.5 Z"/></g>
<g><path style="opacity:0.016" fill="#8897c1" d="M 54.5,257.5 C 55.9063,257.973 56.573,258.973 56.5,260.5C 55.0937,260.027 54.427,259.027 54.5,257.5 Z"/></g>
<g><path style="opacity:0.016" fill="#6d81b4" d="M 215.5,259.5 C 216.376,259.369 217.043,259.702 217.5,260.5C 214.572,261.484 211.572,261.817 208.5,261.5C 210.833,260.833 213.167,260.167 215.5,259.5 Z"/></g>
<g><path style="opacity:0.016" fill="#9aa9cb" d="M 96.5,262.5 C 90.9738,262.179 85.6405,262.512 80.5,263.5C 79.2438,263.539 78.2438,263.039 77.5,262C 84.0137,261.18 90.3471,261.347 96.5,262.5 Z"/></g>
<g><path style="opacity:0.42" fill="#7c8aba" d="M 47.5,262.5 C 49.0269,262.427 50.0269,263.094 50.5,264.5C 48.9731,264.573 47.9731,263.906 47.5,262.5 Z"/></g>
<g><path style="opacity:0.016" fill="#8594c0" d="M 56.5,260.5 C 57.9063,260.973 58.573,261.973 58.5,263.5C 57.0937,263.027 56.427,262.027 56.5,260.5 Z"/></g>
<g><path style="opacity:0.997" fill="#e1e4ef" d="M 80.5,263.5 C 85.6405,262.512 90.9738,262.179 96.5,262.5C 103.369,263.798 110.036,265.465 116.5,267.5C 117.5,268.167 118.5,268.833 119.5,269.5C 112.744,272.722 105.744,273.722 98.5,272.5C 96.4855,271.076 94.1522,270.41 91.5,270.5C 88.2957,269.617 85.6291,267.95 83.5,265.5C 83.0269,264.094 82.0269,263.427 80.5,263.5 Z"/></g>
<g><path style="opacity:0.994" fill="#dee1ee" d="M 172.5,259.5 C 173.69,261.869 175.357,263.869 177.5,265.5C 179.483,265.157 180.817,265.824 181.5,267.5C 180.699,269.042 180.366,270.708 180.5,272.5C 180.427,274.027 181.094,275.027 182.5,275.5C 182.158,276.338 181.492,276.672 180.5,276.5C 176.823,274.726 174.156,275.726 172.5,279.5C 171.5,279.5 170.5,279.5 169.5,279.5C 169.674,277.139 170.007,274.806 170.5,272.5C 168.297,272.396 166.297,271.73 164.5,270.5C 164.5,269.833 164.5,269.167 164.5,268.5C 166.117,267.962 167.784,267.629 169.5,267.5C 171.098,265.143 172.098,262.477 172.5,259.5 Z"/></g>
<g><path style="opacity:0.016" fill="#8d9cc4" d="M 80.5,263.5 C 82.0269,263.427 83.0269,264.094 83.5,265.5C 81.9731,265.573 80.9731,264.906 80.5,263.5 Z"/></g>
<g><path style="opacity:0.42" fill="#8e9cc5" d="M 181.5,267.5 C 180.817,265.824 179.483,265.157 177.5,265.5C 179.6,263.727 181.934,263.394 184.5,264.5C 183.812,265.855 182.812,266.855 181.5,267.5 Z"/></g>
<g><path style="opacity:0.42" fill="#5c73ab" d="M 172.5,259.5 C 172.098,262.477 171.098,265.143 169.5,267.5C 170.084,264.527 170.751,261.527 171.5,258.5C 172.107,258.624 172.44,258.957 172.5,259.5 Z"/></g>
<g><path style="opacity:0.29" fill="#5770a9" d="M 204.5,265.5 C 205.167,265.833 205.833,266.167 206.5,266.5C 205.699,268.793 205.032,268.46 204.5,265.5 Z"/></g>
<g><path style="opacity:0.016" fill="#8798c1" d="M 116.5,267.5 C 118.604,267.201 120.604,267.534 122.5,268.5C 121.675,269.386 120.675,269.719 119.5,269.5C 118.5,268.833 117.5,268.167 116.5,267.5 Z"/></g>
<g><path style="opacity:0.016" fill="#5b72aa" d="M 164.5,268.5 C 164.5,269.167 164.5,269.833 164.5,270.5C 161.833,269.833 161.833,269.167 164.5,268.5 Z"/></g>
<g><path style="opacity:0.42" fill="#8596c0" d="M 64.5,269.5 C 66.3083,270.907 68.3083,272.074 70.5,273C 67.5806,273.433 64.914,272.933 62.5,271.5C 63.8333,271.5 64.5,270.833 64.5,269.5 Z"/></g>
<g><path style="opacity:0.42" fill="#98a5ca" d="M 91.5,270.5 C 94.1522,270.41 96.4855,271.076 98.5,272.5C 95.8478,272.59 93.5145,271.924 91.5,270.5 Z"/></g>
<g><path style="opacity:0.016" fill="#8090bd" d="M 70.5,270.5 C 72.0269,270.427 73.0269,271.094 73.5,272.5C 71.9731,272.573 70.9731,271.906 70.5,270.5 Z"/></g>
<g><path style="opacity:0.016" fill="#6f85b6" d="M 90.5,273.5 C 92.288,273.215 93.9547,273.548 95.5,274.5C 95.0431,275.298 94.3764,275.631 93.5,275.5C 92.5,274.833 91.5,274.167 90.5,273.5 Z"/></g>
<g><path style="opacity:0.016" fill="#8191bd" d="M 180.5,272.5 C 181.906,272.973 182.573,273.973 182.5,275.5C 181.094,275.027 180.427,274.027 180.5,272.5 Z"/></g>
<g><path style="opacity:0.29" fill="#677fb1" d="M 182.5,275.5 C 183.885,276.302 183.718,276.969 182,277.5C 181.235,277.43 180.735,277.097 180.5,276.5C 181.492,276.672 182.158,276.338 182.5,275.5 Z"/></g>
</svg>
