<?xml version="1.0" encoding="UTF-8"?>
<!DOCTYPE svg PUBLIC "-//W3C//DTD SVG 1.1//EN" "http://www.w3.org/Graphics/SVG/1.1/DTD/svg11.dtd">
<svg xmlns="http://www.w3.org/2000/svg" version="1.1" width="560px" height="745px" style="shape-rendering:geometricPrecision; text-rendering:geometricPrecision; image-rendering:optimizeQuality; fill-rule:evenodd; clip-rule:evenodd" xmlns:xlink="http://www.w3.org/1999/xlink">
<g><path style="opacity:0.057" fill="#000000" d="M 196.5,-0.5 C 202.167,-0.5 207.833,-0.5 213.5,-0.5C 214.167,0.166667 214.833,0.833333 215.5,1.5C 209.167,1.5 202.833,1.5 196.5,1.5C 196.5,0.833333 196.5,0.166667 196.5,-0.5 Z"/></g>
<g><path style="opacity:0.045" fill="#000000" d="M 194.5,1.5 C 191.702,2.86909 188.702,3.86909 185.5,4.5C 185.47,3.50278 185.97,2.83611 187,2.5C 189.434,1.67771 191.934,1.34438 194.5,1.5 Z"/></g>
<g><path style="opacity:0.063" fill="#000000" d="M 216.5,1.5 C 219.553,1.11066 222.22,1.77733 224.5,3.5C 221.447,3.88934 218.78,3.22267 216.5,1.5 Z"/></g>
<g><path style="opacity:1" fill="#efefef" d="M 194.5,1.5 C 195.167,1.5 195.833,1.5 196.5,1.5C 202.833,1.5 209.167,1.5 215.5,1.5C 215.833,1.5 216.167,1.5 216.5,1.5C 218.78,3.22267 221.447,3.88934 224.5,3.5C 224.842,4.33825 225.508,4.67158 226.5,4.5C 227.671,5.34464 229.005,6.01131 230.5,6.5C 230.833,6.5 231.167,6.5 231.5,6.5C 232.29,7.40128 233.29,8.06795 234.5,8.5C 234.833,8.5 235.167,8.5 235.5,8.5C 236.514,9.67373 237.847,10.3404 239.5,10.5C 241.147,12.3264 243.147,13.6597 245.5,14.5C 245.833,15.5 246.5,16.1667 247.5,16.5C 247.833,17.5 248.5,18.1667 249.5,18.5C 249.427,20.0269 250.094,21.0269 251.5,21.5C 251.833,21.5 252.167,21.5 252.5,21.5C 252.833,22.5 253.5,23.1667 254.5,23.5C 256.072,26.417 258.072,29.0837 260.5,31.5C 260.5,31.8333 260.5,32.1667 260.5,32.5C 260.932,33.7095 261.599,34.7095 262.5,35.5C 262.5,35.8333 262.5,36.1667 262.5,36.5C 262.932,37.7095 263.599,38.7095 264.5,39.5C 264.5,39.8333 264.5,40.1667 264.5,40.5C 265.024,42.3057 265.691,43.9724 266.5,45.5C 266.328,46.4916 266.662,47.1583 267.5,47.5C 267.251,51.4578 267.918,55.1244 269.5,58.5C 269.5,62.5 269.5,66.5 269.5,70.5C 267.783,73.8448 267.116,77.5115 267.5,81.5C 266.895,83.9741 265.895,86.3074 264.5,88.5C 263.655,89.6715 262.989,91.0048 262.5,92.5C 262.5,92.8333 262.5,93.1667 262.5,93.5C 261.599,94.2905 260.932,95.2905 260.5,96.5C 259.326,97.5137 258.66,98.847 258.5,100.5C 257.5,100.833 256.833,101.5 256.5,102.5C 253.112,106.555 249.445,110.222 245.5,113.5C 243.111,113.979 241.444,115.312 240.5,117.5C 238.847,117.66 237.514,118.326 236.5,119.5C 232.999,121.161 229.665,122.827 226.5,124.5C 223.772,124.171 221.438,124.837 219.5,126.5C 218.833,126.5 218.167,126.5 217.5,126.5C 209.833,126.5 202.167,126.5 194.5,126.5C 193.833,126.5 193.167,126.5 192.5,126.5C 190.562,124.837 188.228,124.171 185.5,124.5C 185.167,124.5 184.833,124.5 184.5,124.5C 183.365,122.787 181.698,122.12 179.5,122.5C 178.232,120.953 176.565,119.953 174.5,119.5C 172.795,117.808 170.795,116.475 168.5,115.5C 168.027,114.094 167.027,113.427 165.5,113.5C 161.833,110.5 158.5,107.167 155.5,103.5C 155.573,101.973 154.906,100.973 153.5,100.5C 153.201,98.5447 152.201,97.2114 150.5,96.5C 149.833,95.5 149.167,94.5 148.5,93.5C 148.88,91.302 148.213,89.6354 146.5,88.5C 146.5,88.1667 146.5,87.8333 146.5,87.5C 146.923,85.2188 146.256,83.5521 144.5,82.5C 144.5,82.1667 144.5,81.8333 144.5,81.5C 144.461,77.2671 143.795,73.2671 142.5,69.5C 142.5,66.1667 142.5,62.8333 142.5,59.5C 143.795,55.7329 144.461,51.7329 144.5,47.5C 144.5,47.1667 144.5,46.8333 144.5,46.5C 146.074,44.8984 146.741,42.8984 146.5,40.5C 148.104,39.713 148.771,38.3797 148.5,36.5C 149.233,34.7056 150.233,33.0389 151.5,31.5C 153.192,29.7952 154.525,27.7952 155.5,25.5C 157.982,24.4506 159.649,22.6173 160.5,20C 163.468,19.238 165.468,17.4047 166.5,14.5C 167.5,14.1667 168.167,13.5 168.5,12.5C 170.027,12.573 171.027,11.9063 171.5,10.5C 171.833,10.5 172.167,10.5 172.5,10.5C 175.032,9.40425 177.365,8.07092 179.5,6.5C 181.403,6.20414 183.07,5.53747 184.5,4.5C 184.833,4.5 185.167,4.5 185.5,4.5C 188.702,3.86909 191.702,2.86909 194.5,1.5 Z"/></g>
<g><path style="opacity:0.049" fill="#000000" d="M 184.5,4.5 C 183.07,5.53747 181.403,6.20414 179.5,6.5C 180.552,4.74395 182.219,4.07729 184.5,4.5 Z"/></g>
<g><path style="opacity:0.067" fill="#000000" d="M 226.5,4.5 C 228.483,4.15684 229.817,4.82351 230.5,6.5C 229.005,6.01131 227.671,5.34464 226.5,4.5 Z"/></g>
<g><path style="opacity:0.048" fill="#000000" d="M 179.5,6.5 C 177.365,8.07092 175.032,9.40425 172.5,10.5C 173.809,7.54926 176.143,6.21593 179.5,6.5 Z"/></g>
<g><path style="opacity:0.081" fill="#000000" d="M 231.5,6.5 C 233.179,6.28519 234.179,6.95186 234.5,8.5C 233.29,8.06795 232.29,7.40128 231.5,6.5 Z"/></g>
<g><path style="opacity:0.05" fill="#000000" d="M 235.5,8.5 C 237.483,8.15684 238.817,8.82351 239.5,10.5C 237.847,10.3404 236.514,9.67373 235.5,8.5 Z"/></g>
<g><path style="opacity:0.036" fill="#000000" d="M 171.5,10.5 C 171.027,11.9063 170.027,12.573 168.5,12.5C 168.821,10.9519 169.821,10.2852 171.5,10.5 Z"/></g>
<g><path style="opacity:0.037" fill="#000000" d="M 239.5,10.5 C 242.554,10.354 244.554,11.6874 245.5,14.5C 243.147,13.6597 241.147,12.3264 239.5,10.5 Z"/></g>
<g><path style="opacity:0.044" fill="#000000" d="M 168.5,12.5 C 168.167,13.5 167.5,14.1667 166.5,14.5C 166.5,13.1667 167.167,12.5 168.5,12.5 Z"/></g>
<g><path style="opacity:0.047" fill="#111111" d="M 166.5,14.5 C 165.468,17.4047 163.468,19.238 160.5,20C 159.649,22.6173 157.982,24.4506 155.5,25.5C 157.5,20.1667 161.167,16.5 166.5,14.5 Z"/></g>
<g><path style="opacity:0.037" fill="#000000" d="M 245.5,14.5 C 246.833,14.5 247.5,15.1667 247.5,16.5C 246.5,16.1667 245.833,15.5 245.5,14.5 Z"/></g>
<g><path style="opacity:0.037" fill="#000000" d="M 247.5,16.5 C 248.833,16.5 249.5,17.1667 249.5,18.5C 248.5,18.1667 247.833,17.5 247.5,16.5 Z"/></g>
<g><path style="opacity:0.384" fill="#4e4e4e" d="M 249.5,18.5 C 250.906,18.9731 251.573,19.9731 251.5,21.5C 250.094,21.0269 249.427,20.0269 249.5,18.5 Z"/></g>
<g><path style="opacity:0.039" fill="#000000" d="M 252.5,21.5 C 253.833,21.5 254.5,22.1667 254.5,23.5C 253.5,23.1667 252.833,22.5 252.5,21.5 Z"/></g>
<g><path style="opacity:0.048" fill="#090909" d="M 254.5,23.5 C 257.95,25.0631 259.95,27.7298 260.5,31.5C 258.072,29.0837 256.072,26.417 254.5,23.5 Z"/></g>
<g><path style="opacity:0.05" fill="#000000" d="M 155.5,25.5 C 154.525,27.7952 153.192,29.7952 151.5,31.5C 151.354,28.4461 152.687,26.4461 155.5,25.5 Z"/></g>
<g><path style="opacity:0.069" fill="#000000" d="M 260.5,32.5 C 262.048,32.8212 262.715,33.8212 262.5,35.5C 261.599,34.7095 260.932,33.7095 260.5,32.5 Z"/></g>
<g><path style="opacity:0.155" fill="#000000" d="M 41.5,35.5 C 34.4122,35.2045 27.4122,35.5379 20.5,36.5C 23.5982,35.179 27.0982,34.5123 31,34.5C 34.6833,34.5014 38.1833,34.8348 41.5,35.5 Z"/></g>
<g><path style="opacity:0.06" fill="#000000" d="M 19.5,36.5 C 18.0697,37.5375 16.403,38.2041 14.5,38.5C 15.6354,36.7868 17.302,36.1201 19.5,36.5 Z"/></g>
<g><path style="opacity:1" fill="#f0f0f0" d="M 41.5,35.5 C 41.8417,36.3382 42.5084,36.6716 43.5,36.5C 45.6351,38.0709 47.9684,39.4043 50.5,40.5C 52.8333,42.1667 54.8333,44.1667 56.5,46.5C 57.5511,47.2223 58.2178,48.2223 58.5,49.5C 58.7769,51.7281 59.7769,53.3947 61.5,54.5C 61.5,54.8333 61.5,55.1667 61.5,55.5C 61.5488,59.0781 62.2154,62.4115 63.5,65.5C 63.5,100.833 63.5,136.167 63.5,171.5C 63.7856,173.933 64.4523,173.933 65.5,171.5C 67.0269,171.573 68.0269,170.906 68.5,169.5C 68.8333,169.5 69.1667,169.5 69.5,169.5C 70.5,169.167 71.1667,168.5 71.5,167.5C 73.5652,167.047 75.2318,166.047 76.5,164.5C 78.8525,163.66 80.8525,162.326 82.5,160.5C 84.0269,160.573 85.0269,159.906 85.5,158.5C 87.153,158.34 88.4863,157.674 89.5,156.5C 91.4553,156.201 92.7886,155.201 93.5,153.5C 93.8417,152.662 94.5084,152.328 95.5,152.5C 97.2303,151.974 98.5637,150.974 99.5,149.5C 102.004,148.416 104.337,147.083 106.5,145.5C 109.036,144.963 111.036,143.63 112.5,141.5C 114.403,141.204 116.07,140.537 117.5,139.5C 118.492,139.672 119.158,139.338 119.5,138.5C 128.506,138.334 137.506,138.5 146.5,139C 148.331,141.925 149.997,144.759 151.5,147.5C 151.077,149.781 151.744,151.448 153.5,152.5C 153.077,154.781 153.744,156.448 155.5,157.5C 155.5,157.833 155.5,158.167 155.5,158.5C 155.66,160.153 156.326,161.486 157.5,162.5C 157.402,164.553 158.069,166.22 159.5,167.5C 160.72,169.282 161.386,171.282 161.5,173.5C 161.912,175.887 162.912,177.887 164.5,179.5C 164.5,179.833 164.5,180.167 164.5,180.5C 164.229,182.38 164.896,183.713 166.5,184.5C 166.077,186.781 166.744,188.448 168.5,189.5C 168.5,189.833 168.5,190.167 168.5,190.5C 168.157,192.483 168.824,193.817 170.5,194.5C 170.5,194.833 170.5,195.167 170.5,195.5C 170.66,197.153 171.326,198.486 172.5,199.5C 172.402,201.553 173.069,203.22 174.5,204.5C 174.5,204.833 174.5,205.167 174.5,205.5C 174.989,206.995 175.655,208.329 176.5,209.5C 176.5,209.833 176.5,210.167 176.5,210.5C 176.769,213.015 177.769,215.015 179.5,216.5C 179.823,220.298 181.156,223.631 183.5,226.5C 183.5,226.833 183.5,227.167 183.5,227.5C 183.66,229.153 184.326,230.486 185.5,231.5C 185.402,233.553 186.069,235.22 187.5,236.5C 187.5,236.833 187.5,237.167 187.5,237.5C 188.228,239.512 189.062,241.512 190,243.5C 191.271,238.246 191.771,232.913 191.5,227.5C 191.5,226.5 191.5,225.5 191.5,224.5C 192.268,223.737 192.768,222.737 193,221.5C 193.499,217.179 193.666,212.846 193.5,208.5C 194.076,200.441 195.076,192.441 196.5,184.5C 197.341,179.99 198.008,175.324 198.5,170.5C 198.5,166.5 198.5,162.5 198.5,158.5C 198.104,155.279 196.771,152.612 194.5,150.5C 194.5,149.833 194.167,149.5 193.5,149.5C 193.771,147.62 193.104,146.287 191.5,145.5C 191.244,143.208 191.577,141.041 192.5,139C 202.167,138.333 211.833,138.333 221.5,139C 222.423,141.041 222.756,143.208 222.5,145.5C 221.522,147.456 220.522,149.456 219.5,151.5C 218.326,152.514 217.66,153.847 217.5,155.5C 215.983,157.462 215.316,159.795 215.5,162.5C 215.771,167.036 216.438,171.369 217.5,175.5C 217.5,177.167 217.5,178.833 217.5,180.5C 218.006,185.654 218.673,190.654 219.5,195.5C 221.016,204.023 222.016,212.69 222.5,221.5C 222.211,227.245 222.711,232.912 224,238.5C 225.12,236.97 225.954,235.303 226.5,233.5C 226.5,233.167 226.5,232.833 226.5,232.5C 227.537,231.07 228.204,229.403 228.5,227.5C 229.537,226.07 230.204,224.403 230.5,222.5C 230.5,222.167 230.5,221.833 230.5,221.5C 231.931,220.22 232.598,218.553 232.5,216.5C 233.674,215.486 234.34,214.153 234.5,212.5C 234.5,211.833 234.5,211.167 234.5,210.5C 236.213,209.365 236.88,207.698 236.5,205.5C 238.104,204.713 238.771,203.38 238.5,201.5C 238.95,198.872 239.95,196.539 241.5,194.5C 242.537,193.07 243.204,191.403 243.5,189.5C 243.5,189.167 243.5,188.833 243.5,188.5C 244.674,187.486 245.34,186.153 245.5,184.5C 245.5,184.167 245.5,183.833 245.5,183.5C 246.931,182.22 247.598,180.553 247.5,178.5C 248.931,177.22 249.598,175.553 249.5,173.5C 249.5,173.167 249.5,172.833 249.5,172.5C 251.213,171.365 251.88,169.698 251.5,167.5C 253.213,166.365 253.88,164.698 253.5,162.5C 254.167,162.5 254.5,162.167 254.5,161.5C 255.309,159.972 255.976,158.306 256.5,156.5C 257.345,155.329 258.011,153.995 258.5,152.5C 258.5,151.833 258.5,151.167 258.5,150.5C 259.931,149.22 260.598,147.553 260.5,145.5C 261.674,144.486 262.34,143.153 262.5,141.5C 262.5,141.167 262.5,140.833 262.5,140.5C 263.167,140.167 263.833,139.833 264.5,139.5C 274.885,139.214 285.218,139.548 295.5,140.5C 297.216,140.629 298.883,140.962 300.5,141.5C 301.29,142.401 302.29,143.068 303.5,143.5C 305.034,145.369 307.034,146.702 309.5,147.5C 309.833,148.5 310.5,149.167 311.5,149.5C 312.167,150.833 313.167,151.833 314.5,152.5C 316.833,156.833 320.167,160.167 324.5,162.5C 324.833,163.5 325.5,164.167 326.5,164.5C 327.167,164.5 327.5,164.833 327.5,165.5C 327.833,166.5 328.5,167.167 329.5,167.5C 331.833,171.833 335.167,175.167 339.5,177.5C 339.833,178.5 340.5,179.167 341.5,179.5C 342.167,179.5 342.5,179.833 342.5,180.5C 342.833,181.5 343.5,182.167 344.5,182.5C 346.833,186.833 350.167,190.167 354.5,192.5C 355.167,193.833 356.167,194.833 357.5,195.5C 357.833,196.5 358.5,197.167 359.5,197.5C 361.833,201.833 365.167,205.167 369.5,207.5C 370.167,208.833 371.167,209.833 372.5,210.5C 372.833,211.5 373.5,212.167 374.5,212.5C 376.167,216.167 378.833,218.833 382.5,220.5C 382.833,221.5 383.5,222.167 384.5,222.5C 385.167,223.833 386.167,224.833 387.5,225.5C 387.833,226.5 388.5,227.167 389.5,227.5C 391.167,231.167 393.833,233.833 397.5,235.5C 397.833,236.5 398.5,237.167 399.5,237.5C 400.167,238.833 401.167,239.833 402.5,240.5C 405.5,245.5 409.5,249.5 414.5,252.5C 414.973,253.906 415.973,254.573 417.5,254.5C 435.528,254.221 453.528,254.554 471.5,255.5C 473.374,256.285 475.374,256.952 477.5,257.5C 477.833,257.5 478.167,257.5 478.5,257.5C 479.29,258.401 480.29,259.068 481.5,259.5C 481.833,259.5 482.167,259.5 482.5,259.5C 482.973,260.906 483.973,261.573 485.5,261.5C 485.833,262.5 486.5,263.167 487.5,263.5C 489.177,265.54 490.844,267.54 492.5,269.5C 492.157,271.483 492.824,272.817 494.5,273.5C 494.41,276.152 495.076,278.485 496.5,280.5C 497.833,284.833 497.833,289.167 496.5,293.5C 494.926,295.102 494.259,297.102 494.5,299.5C 494.5,299.833 494.5,300.167 494.5,300.5C 492.37,301.964 491.037,303.964 490.5,306.5C 488.167,308.167 486.167,310.167 484.5,312.5C 483.833,312.5 483.5,312.833 483.5,313.5C 481.973,313.427 480.973,314.094 480.5,315.5C 478.302,315.12 476.635,315.787 475.5,317.5C 475.167,317.5 474.833,317.5 474.5,317.5C 447.5,317.5 420.5,317.5 393.5,317.5C 393.167,317.5 392.833,317.5 392.5,317.5C 391.365,315.787 389.698,315.12 387.5,315.5C 386.833,314.167 385.833,313.167 384.5,312.5C 360.527,288.861 336.527,265.194 312.5,241.5C 307.833,236.167 302.833,231.167 297.5,226.5C 297.167,225.5 296.5,224.833 295.5,224.5C 293.5,222.167 291.5,219.833 289.5,217.5C 289.539,216.244 289.039,215.244 288,214.5C 287.5,379.833 287.333,545.166 287.5,710.5C 286.949,713.807 286.616,717.14 286.5,720.5C 284.983,723.035 283.65,725.702 282.5,728.5C 282.167,729.167 281.833,729.833 281.5,730.5C 278.141,733.529 274.808,736.529 271.5,739.5C 270.29,739.932 269.29,740.599 268.5,741.5C 267.508,741.328 266.842,741.662 266.5,742.5C 264.302,742.12 262.635,742.787 261.5,744.5C 254.833,744.5 248.167,744.5 241.5,744.5C 239.645,742.767 237.312,741.767 234.5,741.5C 233.486,740.326 232.153,739.66 230.5,739.5C 230.167,738.5 229.5,737.833 228.5,737.5C 225.167,734.833 222.167,731.833 219.5,728.5C 219.573,726.973 218.906,725.973 217.5,725.5C 217.5,725.167 217.5,724.833 217.5,724.5C 217.34,722.847 216.674,721.514 215.5,720.5C 215.5,720.167 215.5,719.833 215.5,719.5C 214.843,626.02 214.176,532.687 213.5,439.5C 213.389,438.883 213.056,438.383 212.5,438C 209.833,437.833 207.167,437.667 204.5,437.5C 201.41,437.522 198.743,438.188 196.5,439.5C 196.5,528.833 196.5,618.167 196.5,707.5C 195.105,711.591 194.438,715.924 194.5,720.5C 194.5,720.833 194.5,721.167 194.5,721.5C 192.787,722.635 192.12,724.302 192.5,726.5C 191.833,726.5 191.5,726.833 191.5,727.5C 189.808,729.205 188.475,731.205 187.5,733.5C 185.833,734.5 184.5,735.833 183.5,737.5C 182.5,737.833 181.833,738.5 181.5,739.5C 180.29,739.932 179.29,740.599 178.5,741.5C 177.833,741.833 177.167,742.167 176.5,742.5C 174.517,742.157 173.183,742.824 172.5,744.5C 163.5,744.5 154.5,744.5 145.5,744.5C 144.232,742.953 142.565,741.953 140.5,741.5C 138.88,739.587 136.88,738.253 134.5,737.5C 133.167,735.5 131.5,733.833 129.5,732.5C 129.843,730.517 129.176,729.183 127.5,728.5C 127.34,726.847 126.674,725.514 125.5,724.5C 125.125,722.302 124.458,720.302 123.5,718.5C 123.443,717.391 123.11,716.391 122.5,715.5C 123.831,549.511 123.831,383.511 122.5,217.5C 123.301,215.958 123.634,214.292 123.5,212.5C 123.631,211.624 123.298,210.957 122.5,210.5C 120.581,211.612 118.914,212.946 117.5,214.5C 117.167,214.5 116.833,214.5 116.5,214.5C 113.828,214.948 111.828,216.281 110.5,218.5C 109.29,218.932 108.29,219.599 107.5,220.5C 105.973,220.427 104.973,221.094 104.5,222.5C 103.151,223.953 101.485,224.953 99.5,225.5C 97.1475,226.34 95.1475,227.674 93.5,229.5C 91.9731,229.427 90.9731,230.094 90.5,231.5C 88.847,231.66 87.5137,232.326 86.5,233.5C 85.2905,233.932 84.2905,234.599 83.5,235.5C 83.0269,236.906 82.0269,237.573 80.5,237.5C 79.2905,237.932 78.2905,238.599 77.5,239.5C 77.5,240.167 77.1667,240.5 76.5,240.5C 74.9731,240.427 73.9731,241.094 73.5,242.5C 71.6203,242.229 70.287,242.896 69.5,244.5C 65.827,246 62.4937,248 59.5,250.5C 58.7777,251.551 57.7777,252.218 56.5,252.5C 54.7697,253.026 53.4363,254.026 52.5,255.5C 49.8997,256.468 47.5664,257.801 45.5,259.5C 43.4471,259.402 41.7804,260.069 40.5,261.5C 40.1667,261.5 39.8333,261.5 39.5,261.5C 33.8406,262.725 28.174,262.725 22.5,261.5C 20.8984,259.926 18.8984,259.259 16.5,259.5C 13.2602,257.608 10.2602,255.274 7.5,252.5C 7.16667,251.5 6.5,250.833 5.5,250.5C 5.3404,248.847 4.67373,247.514 3.5,246.5C 3.01131,245.005 2.34464,243.671 1.5,242.5C 1.5,241.833 1.16667,241.5 0.5,241.5C 1.82596,179.489 1.82596,117.489 0.5,55.5C 1.16667,54.1667 1.83333,52.8333 2.5,51.5C 4.20136,50.7886 5.20136,49.4553 5.5,47.5C 6.40128,46.7095 7.06795,45.7095 7.5,44.5C 8.5,44.1667 9.16667,43.5 9.5,42.5C 11.754,41.8763 13.4206,40.543 14.5,38.5C 16.403,38.2041 18.0697,37.5375 19.5,36.5C 19.8333,36.5 20.1667,36.5 20.5,36.5C 27.4122,35.5379 34.4122,35.2045 41.5,35.5 Z"/></g>
<g><path style="opacity:0.051" fill="#000000" d="M 43.5,36.5 C 46.8573,36.2159 49.1906,37.5493 50.5,40.5C 47.9684,39.4043 45.6351,38.0709 43.5,36.5 Z"/></g>
<g><path style="opacity:0.059" fill="#000000" d="M 148.5,36.5 C 148.771,38.3797 148.104,39.713 146.5,40.5C 146.157,38.5168 146.824,37.1834 148.5,36.5 Z"/></g>
<g><path style="opacity:0.069" fill="#000000" d="M 262.5,36.5 C 264.048,36.8212 264.715,37.8212 264.5,39.5C 263.599,38.7095 262.932,37.7095 262.5,36.5 Z"/></g>
<g><path style="opacity:0.058" fill="#000000" d="M 14.5,38.5 C 13.4206,40.543 11.754,41.8763 9.5,42.5C 10.2648,40.071 11.9315,38.7377 14.5,38.5 Z"/></g>
<g><path style="opacity:0.041" fill="#121212" d="M 50.5,40.5 C 54.2651,40.6757 56.2651,42.6757 56.5,46.5C 54.8333,44.1667 52.8333,42.1667 50.5,40.5 Z"/></g>
<g><path style="opacity:0.051" fill="#000000" d="M 146.5,40.5 C 146.741,42.8984 146.074,44.8984 144.5,46.5C 144.025,43.9179 144.692,41.9179 146.5,40.5 Z"/></g>
<g><path style="opacity:0.073" fill="#000000" d="M 264.5,40.5 C 266.256,41.5521 266.923,43.2188 266.5,45.5C 265.691,43.9724 265.024,42.3057 264.5,40.5 Z"/></g>
<g><path style="opacity:0.056" fill="#000000" d="M 9.5,42.5 C 9.16667,43.5 8.5,44.1667 7.5,44.5C 7.5,43.1667 8.16667,42.5 9.5,42.5 Z"/></g>
<g><path style="opacity:0.062" fill="#000000" d="M 7.5,44.5 C 7.06795,45.7095 6.40128,46.7095 5.5,47.5C 5.28519,45.8212 5.95186,44.8212 7.5,44.5 Z"/></g>
<g><path style="opacity:0.09" fill="#000000" d="M 144.5,47.5 C 144.461,51.7329 143.795,55.7329 142.5,59.5C 141.911,55.0293 142.577,51.0293 144.5,47.5 Z"/></g>
<g><path style="opacity:0.069" fill="#000000" d="M 267.5,47.5 C 268.222,47.9175 268.722,48.5842 269,49.5C 269.498,52.4816 269.665,55.4816 269.5,58.5C 267.918,55.1244 267.251,51.4578 267.5,47.5 Z"/></g>
<g><path style="opacity:0.051" fill="#101010" d="M 58.5,49.5 C 60.7409,50.2998 61.7409,51.9664 61.5,54.5C 59.7769,53.3947 58.7769,51.7281 58.5,49.5 Z"/></g>
<g><path style="opacity:0.624" fill="#525252" d="M 5.5,47.5 C 5.20136,49.4553 4.20136,50.7886 2.5,51.5C 2.79864,49.5447 3.79864,48.2114 5.5,47.5 Z"/></g>
<g><path style="opacity:0.079" fill="#000000" d="M 61.5,55.5 C 63.4023,58.3373 64.069,61.6707 63.5,65.5C 62.2154,62.4115 61.5488,59.0781 61.5,55.5 Z"/></g>
<g><path style="opacity:0.788" fill="#5f5f5f" d="M -0.5,55.5 C -0.166667,55.5 0.166667,55.5 0.5,55.5C 1.82596,117.489 1.82596,179.489 0.5,241.5C 0.166667,241.5 -0.166667,241.5 -0.5,241.5C -0.5,179.5 -0.5,117.5 -0.5,55.5 Z"/></g>
<g><path style="opacity:0.089" fill="#000000" d="M 142.5,69.5 C 143.795,73.2671 144.461,77.2671 144.5,81.5C 143.883,81.3893 143.383,81.056 143,80.5C 142.501,76.8484 142.335,73.1817 142.5,69.5 Z"/></g>
<g><path style="opacity:0.073" fill="#000000" d="M 269.5,70.5 C 269.665,73.8499 269.498,77.1832 269,80.5C 268.617,81.056 268.117,81.3893 267.5,81.5C 267.116,77.5115 267.783,73.8448 269.5,70.5 Z"/></g>
<g><path style="opacity:0.077" fill="#0e0e0e" d="M 144.5,82.5 C 146.256,83.5521 146.923,85.2188 146.5,87.5C 144.744,86.4479 144.077,84.7812 144.5,82.5 Z"/></g>
<g><path style="opacity:0.051" fill="#000000" d="M 146.5,88.5 C 148.213,89.6354 148.88,91.302 148.5,93.5C 147.069,92.2196 146.402,90.5529 146.5,88.5 Z"/></g>
<g><path style="opacity:0.074" fill="#000000" d="M 264.5,88.5 C 264.843,90.4832 264.176,91.8166 262.5,92.5C 262.989,91.0048 263.655,89.6715 264.5,88.5 Z"/></g>
<g><path style="opacity:0.054" fill="#000000" d="M 262.5,93.5 C 262.715,95.1788 262.048,96.1788 260.5,96.5C 260.932,95.2905 261.599,94.2905 262.5,93.5 Z"/></g>
<g><path style="opacity:0.049" fill="#000000" d="M 260.5,96.5 C 260.843,98.4832 260.176,99.8166 258.5,100.5C 258.66,98.847 259.326,97.5137 260.5,96.5 Z"/></g>
<g><path style="opacity:0.062" fill="#191919" d="M 150.5,96.5 C 152.201,97.2114 153.201,98.5447 153.5,100.5C 151.799,99.7886 150.799,98.4553 150.5,96.5 Z"/></g>
<g><path style="opacity:0.075" fill="#000000" d="M 153.5,100.5 C 154.906,100.973 155.573,101.973 155.5,103.5C 154.094,103.027 153.427,102.027 153.5,100.5 Z"/></g>
<g><path style="opacity:0.054" fill="#000000" d="M 258.5,100.5 C 258.5,101.833 257.833,102.5 256.5,102.5C 256.833,101.5 257.5,100.833 258.5,100.5 Z"/></g>
<g><path style="opacity:0.035" fill="#060606" d="M 256.5,102.5 C 256.649,103.552 256.483,104.552 256,105.5C 254.315,107.017 252.815,108.684 251.5,110.5C 249.929,112.415 247.929,113.415 245.5,113.5C 249.445,110.222 253.112,106.555 256.5,102.5 Z"/></g>
<g><path style="opacity:0.029" fill="#000000" d="M 155.5,103.5 C 158.5,107.167 161.833,110.5 165.5,113.5C 160.519,111.852 157.185,108.519 155.5,103.5 Z"/></g>
<g><path style="opacity:0.078" fill="#000000" d="M 165.5,113.5 C 167.027,113.427 168.027,114.094 168.5,115.5C 166.973,115.573 165.973,114.906 165.5,113.5 Z"/></g>
<g><path style="opacity:0.055" fill="#000000" d="M 168.5,115.5 C 170.795,116.475 172.795,117.808 174.5,119.5C 171.446,119.646 169.446,118.313 168.5,115.5 Z"/></g>
<g><path style="opacity:0.053" fill="#222222" d="M 245.5,113.5 C 244.735,115.929 243.069,117.262 240.5,117.5C 241.444,115.312 243.111,113.979 245.5,113.5 Z"/></g>
<g><path style="opacity:0.06" fill="#000000" d="M 240.5,117.5 C 239.713,119.104 238.38,119.771 236.5,119.5C 237.514,118.326 238.847,117.66 240.5,117.5 Z"/></g>
<g><path style="opacity:0.033" fill="#000000" d="M 174.5,119.5 C 176.565,119.953 178.232,120.953 179.5,122.5C 176.966,122.741 175.3,121.741 174.5,119.5 Z"/></g>
<g><path style="opacity:0.056" fill="#080808" d="M 236.5,119.5 C 234.107,122.861 230.773,124.527 226.5,124.5C 229.665,122.827 232.999,121.161 236.5,119.5 Z"/></g>
<g><path style="opacity:0.047" fill="#000000" d="M 179.5,122.5 C 181.698,122.12 183.365,122.787 184.5,124.5C 182.219,124.923 180.552,124.256 179.5,122.5 Z"/></g>
<g><path style="opacity:0.076" fill="#000000" d="M 185.5,124.5 C 188.228,124.171 190.562,124.837 192.5,126.5C 189.612,127.01 187.279,126.344 185.5,124.5 Z"/></g>
<g><path style="opacity:0.066" fill="#000000" d="M 226.5,124.5 C 226.389,125.117 226.056,125.617 225.5,126C 223.527,126.495 221.527,126.662 219.5,126.5C 221.438,124.837 223.772,124.171 226.5,124.5 Z"/></g>
<g><path style="opacity:0.112" fill="#000000" d="M 194.5,126.5 C 202.167,126.5 209.833,126.5 217.5,126.5C 217.389,127.117 217.056,127.617 216.5,128C 212.833,128.167 209.167,128.333 205.5,128.5C 201.435,128.489 197.768,127.822 194.5,126.5 Z"/></g>
<g><path style="opacity:0.115" fill="#030303" d="M 119.5,138.5 C 128.986,137.506 138.652,137.173 148.5,137.5C 150.051,140.619 151.051,143.952 151.5,147.5C 149.997,144.759 148.331,141.925 146.5,139C 137.506,138.5 128.506,138.334 119.5,138.5 Z"/></g>
<g><path style="opacity:0.132" fill="#000000" d="M 222.5,145.5 C 222.756,143.208 222.423,141.041 221.5,139C 211.833,138.333 202.167,138.333 192.5,139C 191.577,141.041 191.244,143.208 191.5,145.5C 189.859,143.797 188.859,141.63 188.5,139C 188.833,138.667 189.167,138.333 189.5,138C 201.495,137.5 213.495,137.333 225.5,137.5C 225.482,140.736 224.482,143.403 222.5,145.5 Z"/></g>
<g><path style="opacity:0.136" fill="#000000" d="M 293.5,138.5 C 283.652,138.173 273.986,138.506 264.5,139.5C 263.833,139.833 263.167,140.167 262.5,140.5C 262.5,139.5 262.5,138.5 262.5,137.5C 273.014,137.172 283.347,137.506 293.5,138.5 Z"/></g>
<g><path style="opacity:0.663" fill="#b1b1b1" d="M 264.5,139.5 C 273.986,138.506 283.652,138.173 293.5,138.5C 294.167,138.833 294.833,139.167 295.5,139.5C 295.5,139.833 295.5,140.167 295.5,140.5C 285.218,139.548 274.885,139.214 264.5,139.5 Z"/></g>
<g><path style="opacity:0.046" fill="#000000" d="M 117.5,139.5 C 116.07,140.537 114.403,141.204 112.5,141.5C 113.552,139.744 115.219,139.077 117.5,139.5 Z"/></g>
<g><path style="opacity:0.056" fill="#000000" d="M 295.5,140.5 C 295.5,140.167 295.5,139.833 295.5,139.5C 297.698,139.12 299.365,139.787 300.5,141.5C 298.883,140.962 297.216,140.629 295.5,140.5 Z"/></g>
<g><path style="opacity:0.058" fill="#0c0c0c" d="M 112.5,141.5 C 111.036,143.63 109.036,144.963 106.5,145.5C 107.446,142.687 109.446,141.354 112.5,141.5 Z"/></g>
<g><path style="opacity:0.063" fill="#000000" d="M 262.5,141.5 C 262.34,143.153 261.674,144.486 260.5,145.5C 260.157,143.517 260.824,142.183 262.5,141.5 Z"/></g>
<g><path style="opacity:0.055" fill="#000000" d="M 300.5,141.5 C 302.179,141.285 303.179,141.952 303.5,143.5C 302.29,143.068 301.29,142.401 300.5,141.5 Z"/></g>
<g><path style="opacity:0.05" fill="#0b0b0b" d="M 303.5,143.5 C 306.554,143.354 308.554,144.687 309.5,147.5C 307.034,146.702 305.034,145.369 303.5,143.5 Z"/></g>
<g><path style="opacity:0.033" fill="#000000" d="M 106.5,145.5 C 104.337,147.083 102.004,148.416 99.5,149.5C 100.809,146.549 103.143,145.216 106.5,145.5 Z"/></g>
<g><path style="opacity:0.034" fill="#000000" d="M 191.5,145.5 C 193.104,146.287 193.771,147.62 193.5,149.5C 191.896,148.713 191.229,147.38 191.5,145.5 Z"/></g>
<g><path style="opacity:0.041" fill="#000000" d="M 260.5,145.5 C 260.598,147.553 259.931,149.22 258.5,150.5C 258.077,148.219 258.744,146.552 260.5,145.5 Z"/></g>
<g><path style="opacity:0.064" fill="#0e0e0e" d="M 151.5,147.5 C 153.256,148.552 153.923,150.219 153.5,152.5C 151.744,151.448 151.077,149.781 151.5,147.5 Z"/></g>
<g><path style="opacity:0.022" fill="#000000" d="M 309.5,147.5 C 310.833,147.5 311.5,148.167 311.5,149.5C 310.5,149.167 309.833,148.5 309.5,147.5 Z"/></g>
<g><path style="opacity:0.031" fill="#000000" d="M 99.5,149.5 C 98.5637,150.974 97.2303,151.974 95.5,152.5C 96.0347,150.554 97.368,149.554 99.5,149.5 Z"/></g>
<g><path style="opacity:0.014" fill="#000000" d="M 311.5,149.5 C 313.5,149.5 314.5,150.5 314.5,152.5C 313.167,151.833 312.167,150.833 311.5,149.5 Z"/></g>
<g><path style="opacity:0.046" fill="#000000" d="M 194.5,150.5 C 196.771,152.612 198.104,155.279 198.5,158.5C 196.604,156.163 195.27,153.496 194.5,150.5 Z"/></g>
<g><path style="opacity:0.05" fill="#000000" d="M 219.5,151.5 C 219.771,153.38 219.104,154.713 217.5,155.5C 217.66,153.847 218.326,152.514 219.5,151.5 Z"/></g>
<g><path style="opacity:0.062" fill="#0e0e0e" d="M 153.5,152.5 C 155.256,153.552 155.923,155.219 155.5,157.5C 153.744,156.448 153.077,154.781 153.5,152.5 Z"/></g>
<g><path style="opacity:0.088" fill="#000000" d="M 258.5,152.5 C 258.011,153.995 257.345,155.329 256.5,156.5C 256.157,154.517 256.824,153.183 258.5,152.5 Z"/></g>
<g><path style="opacity:0.053" fill="#000000" d="M 314.5,152.5 C 318.5,155.167 321.833,158.5 324.5,162.5C 320.167,160.167 316.833,156.833 314.5,152.5 Z"/></g>
<g><path style="opacity:0.066" fill="#191919" d="M 93.5,153.5 C 92.7886,155.201 91.4553,156.201 89.5,156.5C 90.2114,154.799 91.5447,153.799 93.5,153.5 Z"/></g>
<g><path style="opacity:0.082" fill="#000000" d="M 217.5,155.5 C 217.256,162.007 217.256,168.673 217.5,175.5C 216.438,171.369 215.771,167.036 215.5,162.5C 215.316,159.795 215.983,157.462 217.5,155.5 Z"/></g>
<g><path style="opacity:0.048" fill="#000000" d="M 89.5,156.5 C 88.4863,157.674 87.153,158.34 85.5,158.5C 86.1834,156.824 87.5168,156.157 89.5,156.5 Z"/></g>
<g><path style="opacity:0.061" fill="#000000" d="M 256.5,156.5 C 255.976,158.306 255.309,159.972 254.5,161.5C 254.077,159.219 254.744,157.552 256.5,156.5 Z"/></g>
<g><path style="opacity:0.042" fill="#000000" d="M 85.5,158.5 C 85.0269,159.906 84.0269,160.573 82.5,160.5C 82.8212,158.952 83.8212,158.285 85.5,158.5 Z"/></g>
<g><path style="opacity:0.056" fill="#000000" d="M 155.5,158.5 C 157.176,159.183 157.843,160.517 157.5,162.5C 156.326,161.486 155.66,160.153 155.5,158.5 Z"/></g>
<g><path style="opacity:0.044" fill="#000000" d="M 82.5,160.5 C 80.8525,162.326 78.8525,163.66 76.5,164.5C 77.6627,162.018 79.6627,160.684 82.5,160.5 Z"/></g>
<g><path style="opacity:0.038" fill="#000000" d="M 157.5,162.5 C 159.213,163.635 159.88,165.302 159.5,167.5C 158.069,166.22 157.402,164.553 157.5,162.5 Z"/></g>
<g><path style="opacity:0.045" fill="#000000" d="M 253.5,162.5 C 253.88,164.698 253.213,166.365 251.5,167.5C 251.402,165.447 252.069,163.78 253.5,162.5 Z"/></g>
<g><path style="opacity:0.021" fill="#000000" d="M 324.5,162.5 C 325.833,162.5 326.5,163.167 326.5,164.5C 325.5,164.167 324.833,163.5 324.5,162.5 Z"/></g>
<g><path style="opacity:0.034" fill="#000000" d="M 76.5,164.5 C 75.2318,166.047 73.5652,167.047 71.5,167.5C 72.4856,165.592 74.1523,164.592 76.5,164.5 Z"/></g>
<g><path style="opacity:0.021" fill="#000000" d="M 327.5,165.5 C 328.833,165.5 329.5,166.167 329.5,167.5C 328.5,167.167 327.833,166.5 327.5,165.5 Z"/></g>
<g><path style="opacity:0.047" fill="#000000" d="M 71.5,167.5 C 71.1667,168.5 70.5,169.167 69.5,169.5C 69.5,168.167 70.1667,167.5 71.5,167.5 Z"/></g>
<g><path style="opacity:0.046" fill="#000000" d="M 251.5,167.5 C 251.88,169.698 251.213,171.365 249.5,172.5C 249.402,170.447 250.069,168.78 251.5,167.5 Z"/></g>
<g><path style="opacity:0.053" fill="#000000" d="M 329.5,167.5 C 333.5,170.167 336.833,173.5 339.5,177.5C 335.167,175.167 331.833,171.833 329.5,167.5 Z"/></g>
<g><path style="opacity:0.046" fill="#000000" d="M 68.5,169.5 C 68.0269,170.906 67.0269,171.573 65.5,171.5C 65.8212,169.952 66.8212,169.285 68.5,169.5 Z"/></g>
<g><path style="opacity:0.105" fill="#000000" d="M 198.5,170.5 C 198.008,175.324 197.341,179.99 196.5,184.5C 196.334,180.154 196.501,175.821 197,171.5C 197.383,170.944 197.883,170.611 198.5,170.5 Z"/></g>
<g><path style="opacity:0.082" fill="#000000" d="M 63.5,171.5 C 64.1667,171.5 64.8333,171.5 65.5,171.5C 64.4523,173.933 63.7856,173.933 63.5,171.5 Z"/></g>
<g><path style="opacity:0.046" fill="#000000" d="M 161.5,173.5 C 163.614,174.784 164.614,176.784 164.5,179.5C 162.912,177.887 161.912,175.887 161.5,173.5 Z"/></g>
<g><path style="opacity:0.05" fill="#000000" d="M 249.5,173.5 C 249.598,175.553 248.931,177.22 247.5,178.5C 247.077,176.219 247.744,174.552 249.5,173.5 Z"/></g>
<g><path style="opacity:0.021" fill="#000000" d="M 339.5,177.5 C 340.833,177.5 341.5,178.167 341.5,179.5C 340.5,179.167 339.833,178.5 339.5,177.5 Z"/></g>
<g><path style="opacity:0.049" fill="#000000" d="M 247.5,178.5 C 247.598,180.553 246.931,182.22 245.5,183.5C 245.12,181.302 245.787,179.635 247.5,178.5 Z"/></g>
<g><path style="opacity:0.067" fill="#000000" d="M 164.5,180.5 C 166.176,181.183 166.843,182.517 166.5,184.5C 164.896,183.713 164.229,182.38 164.5,180.5 Z"/></g>
<g><path style="opacity:0.095" fill="#000000" d="M 217.5,180.5 C 219.442,185.056 220.108,190.056 219.5,195.5C 218.673,190.654 218.006,185.654 217.5,180.5 Z"/></g>
<g><path style="opacity:0.021" fill="#000000" d="M 342.5,180.5 C 343.833,180.5 344.5,181.167 344.5,182.5C 343.5,182.167 342.833,181.5 342.5,180.5 Z"/></g>
<g><path style="opacity:0.055" fill="#000000" d="M 344.5,182.5 C 348.5,185.167 351.833,188.5 354.5,192.5C 350.167,190.167 346.833,186.833 344.5,182.5 Z"/></g>
<g><path style="opacity:0.058" fill="#0e0e0e" d="M 166.5,184.5 C 168.256,185.552 168.923,187.219 168.5,189.5C 166.744,188.448 166.077,186.781 166.5,184.5 Z"/></g>
<g><path style="opacity:0.052" fill="#000000" d="M 245.5,184.5 C 245.34,186.153 244.674,187.486 243.5,188.5C 243.157,186.517 243.824,185.183 245.5,184.5 Z"/></g>
<g><path style="opacity:0.069" fill="#000000" d="M 243.5,189.5 C 243.204,191.403 242.537,193.07 241.5,194.5C 241.12,192.302 241.787,190.635 243.5,189.5 Z"/></g>
<g><path style="opacity:0.073" fill="#111111" d="M 168.5,190.5 C 170.176,191.183 170.843,192.517 170.5,194.5C 168.824,193.817 168.157,192.483 168.5,190.5 Z"/></g>
<g><path style="opacity:0.014" fill="#000000" d="M 354.5,192.5 C 356.5,192.5 357.5,193.5 357.5,195.5C 356.167,194.833 355.167,193.833 354.5,192.5 Z"/></g>
<g><path style="opacity:0.052" fill="#000000" d="M 170.5,195.5 C 172.176,196.183 172.843,197.517 172.5,199.5C 171.326,198.486 170.66,197.153 170.5,195.5 Z"/></g>
<g><path style="opacity:0.022" fill="#000000" d="M 357.5,195.5 C 358.833,195.5 359.5,196.167 359.5,197.5C 358.5,197.167 357.833,196.5 357.5,195.5 Z"/></g>
<g><path style="opacity:0.054" fill="#000000" d="M 359.5,197.5 C 363.5,200.167 366.833,203.5 369.5,207.5C 365.167,205.167 361.833,201.833 359.5,197.5 Z"/></g>
<g><path style="opacity:0.044" fill="#000000" d="M 172.5,199.5 C 174.213,200.635 174.88,202.302 174.5,204.5C 173.069,203.22 172.402,201.553 172.5,199.5 Z"/></g>
<g><path style="opacity:0.053" fill="#000000" d="M 238.5,201.5 C 238.771,203.38 238.104,204.713 236.5,205.5C 236.229,203.62 236.896,202.287 238.5,201.5 Z"/></g>
<g><path style="opacity:0.048" fill="#000000" d="M 174.5,205.5 C 176.176,206.183 176.843,207.517 176.5,209.5C 175.655,208.329 174.989,206.995 174.5,205.5 Z"/></g>
<g><path style="opacity:0.039" fill="#000000" d="M 236.5,205.5 C 236.88,207.698 236.213,209.365 234.5,210.5C 234.12,208.302 234.787,206.635 236.5,205.5 Z"/></g>
<g><path style="opacity:0.013" fill="#000000" d="M 369.5,207.5 C 371.5,207.5 372.5,208.5 372.5,210.5C 371.167,209.833 370.167,208.833 369.5,207.5 Z"/></g>
<g><path style="opacity:0.074" fill="#000000" d="M 193.5,208.5 C 193.666,212.846 193.499,217.179 193,221.5C 192.768,222.737 192.268,223.737 191.5,224.5C 191.334,219.821 191.501,215.155 192,210.5C 192.278,209.584 192.778,208.918 193.5,208.5 Z"/></g>
<g><path style="opacity:0.037" fill="#000000" d="M 123.5,212.5 C 121.685,213.63 119.685,214.296 117.5,214.5C 118.914,212.946 120.581,211.612 122.5,210.5C 123.298,210.957 123.631,211.624 123.5,212.5 Z"/></g>
<g><path style="opacity:0.048" fill="#0e0e0e" d="M 176.5,210.5 C 178.969,211.607 179.969,213.607 179.5,216.5C 177.769,215.015 176.769,213.015 176.5,210.5 Z"/></g>
<g><path style="opacity:0.022" fill="#000000" d="M 372.5,210.5 C 373.833,210.5 374.5,211.167 374.5,212.5C 373.5,212.167 372.833,211.5 372.5,210.5 Z"/></g>
<g><path style="opacity:0.063" fill="#000000" d="M 234.5,212.5 C 234.34,214.153 233.674,215.486 232.5,216.5C 232.157,214.517 232.824,213.183 234.5,212.5 Z"/></g>
<g><path style="opacity:0.054" fill="#000000" d="M 374.5,212.5 C 377.833,214.5 380.5,217.167 382.5,220.5C 378.833,218.833 376.167,216.167 374.5,212.5 Z"/></g>
<g><path style="opacity:0.064" fill="#131313" d="M 116.5,214.5 C 115.554,217.313 113.554,218.646 110.5,218.5C 111.828,216.281 113.828,214.948 116.5,214.5 Z"/></g>
<g><path style="opacity:0.051" fill="#080808" d="M 179.5,216.5 C 181.097,217.737 182.263,219.404 183,221.5C 183.494,223.134 183.66,224.801 183.5,226.5C 181.156,223.631 179.823,220.298 179.5,216.5 Z"/></g>
<g><path style="opacity:0.043" fill="#000000" d="M 232.5,216.5 C 232.598,218.553 231.931,220.22 230.5,221.5C 230.077,219.219 230.744,217.552 232.5,216.5 Z"/></g>
<g><path style="opacity:0.576" fill="#c7c7c7" d="M 289.5,217.5 C 288.596,218.209 288.263,219.209 288.5,220.5C 288.5,383.833 288.5,547.167 288.5,710.5C 288.167,710.5 287.833,710.5 287.5,710.5C 287.333,545.166 287.5,379.833 288,214.5C 289.039,215.244 289.539,216.244 289.5,217.5 Z"/></g>
<g><path style="opacity:0.019" fill="#000000" d="M 289.5,217.5 C 291.5,219.833 293.5,222.167 295.5,224.5C 293.167,223.167 290.833,221.833 288.5,220.5C 288.263,219.209 288.596,218.209 289.5,217.5 Z"/></g>
<g><path style="opacity:0.046" fill="#000000" d="M 110.5,218.5 C 110.179,220.048 109.179,220.715 107.5,220.5C 108.29,219.599 109.29,218.932 110.5,218.5 Z"/></g>
<g><path style="opacity:0.032" fill="#000000" d="M 107.5,220.5 C 107.179,222.048 106.179,222.715 104.5,222.5C 104.973,221.094 105.973,220.427 107.5,220.5 Z"/></g>
<g><path style="opacity:0.024" fill="#000000" d="M 382.5,220.5 C 383.833,220.5 384.5,221.167 384.5,222.5C 383.5,222.167 382.833,221.5 382.5,220.5 Z"/></g>
<g><path style="opacity:0.072" fill="#000000" d="M 222.5,221.5 C 223.694,225.644 225.027,229.644 226.5,233.5C 225.954,235.303 225.12,236.97 224,238.5C 222.711,232.912 222.211,227.245 222.5,221.5 Z"/></g>
<g><path style="opacity:0.066" fill="#000000" d="M 230.5,222.5 C 230.204,224.403 229.537,226.07 228.5,227.5C 228.077,225.219 228.744,223.552 230.5,222.5 Z"/></g>
<g><path style="opacity:0.014" fill="#000000" d="M 384.5,222.5 C 386.5,222.5 387.5,223.5 387.5,225.5C 386.167,224.833 385.167,223.833 384.5,222.5 Z"/></g>
<g><path style="opacity:0.012" fill="#000000" d="M 295.5,224.5 C 296.5,224.833 297.167,225.5 297.5,226.5C 296.167,226.5 295.5,225.833 295.5,224.5 Z"/></g>
<g><path style="opacity:0.046" fill="#000000" d="M 99.5,225.5 C 98.5539,228.313 96.5539,229.646 93.5,229.5C 95.1475,227.674 97.1475,226.34 99.5,225.5 Z"/></g>
<g><path style="opacity:0.022" fill="#000000" d="M 387.5,225.5 C 388.833,225.5 389.5,226.167 389.5,227.5C 388.5,227.167 387.833,226.5 387.5,225.5 Z"/></g>
<g><path style="opacity:0.017" fill="#000000" d="M 297.5,226.5 C 302.833,231.167 307.833,236.167 312.5,241.5C 306.167,237.833 301.167,232.833 297.5,226.5 Z"/></g>
<g><path style="opacity:0.065" fill="#000000" d="M 183.5,227.5 C 185.176,228.183 185.843,229.517 185.5,231.5C 184.326,230.486 183.66,229.153 183.5,227.5 Z"/></g>
<g><path style="opacity:0.082" fill="#000000" d="M 191.5,227.5 C 191.771,232.913 191.271,238.246 190,243.5C 189.062,241.512 188.228,239.512 187.5,237.5C 189.002,234.33 190.336,230.997 191.5,227.5 Z"/></g>
<g><path style="opacity:0.059" fill="#000000" d="M 228.5,227.5 C 228.204,229.403 227.537,231.07 226.5,232.5C 226.077,230.219 226.744,228.552 228.5,227.5 Z"/></g>
<g><path style="opacity:0.052" fill="#000000" d="M 389.5,227.5 C 392.833,229.5 395.5,232.167 397.5,235.5C 393.833,233.833 391.167,231.167 389.5,227.5 Z"/></g>
<g><path style="opacity:0.045" fill="#000000" d="M 93.5,229.5 C 93.1788,231.048 92.1788,231.715 90.5,231.5C 90.9731,230.094 91.9731,229.427 93.5,229.5 Z"/></g>
<g><path style="opacity:0.039" fill="#000000" d="M 90.5,231.5 C 89.8166,233.176 88.4832,233.843 86.5,233.5C 87.5137,232.326 88.847,231.66 90.5,231.5 Z"/></g>
<g><path style="opacity:0.05" fill="#000000" d="M 185.5,231.5 C 187.256,232.552 187.923,234.219 187.5,236.5C 186.069,235.22 185.402,233.553 185.5,231.5 Z"/></g>
<g><path style="opacity:0.06" fill="#000000" d="M 86.5,233.5 C 86.1788,235.048 85.1788,235.715 83.5,235.5C 84.2905,234.599 85.2905,233.932 86.5,233.5 Z"/></g>
<g><path style="opacity:0.612" fill="#787878" d="M 122.5,217.5 C 123.831,383.511 123.831,549.511 122.5,715.5C 121.167,549.5 121.167,383.5 122.5,217.5 Z"/></g>
<g><path style="opacity:0.024" fill="#000000" d="M 397.5,235.5 C 398.833,235.5 399.5,236.167 399.5,237.5C 398.5,237.167 397.833,236.5 397.5,235.5 Z"/></g>
<g><path style="opacity:0.035" fill="#000000" d="M 80.5,237.5 C 80.1788,239.048 79.1788,239.715 77.5,239.5C 78.2905,238.599 79.2905,237.932 80.5,237.5 Z"/></g>
<g><path style="opacity:0.013" fill="#000000" d="M 399.5,237.5 C 401.5,237.5 402.5,238.5 402.5,240.5C 401.167,239.833 400.167,238.833 399.5,237.5 Z"/></g>
<g><path style="opacity:0.032" fill="#000000" d="M 76.5,240.5 C 76.0269,241.906 75.0269,242.573 73.5,242.5C 73.9731,241.094 74.9731,240.427 76.5,240.5 Z"/></g>
<g><path style="opacity:0.05" fill="#000000" d="M 402.5,240.5 C 407.167,243.833 411.167,247.833 414.5,252.5C 409.5,249.5 405.5,245.5 402.5,240.5 Z"/></g>
<g><path style="opacity:0.018" fill="#000000" d="M 312.5,241.5 C 336.527,265.194 360.527,288.861 384.5,312.5C 383.022,312.762 381.689,312.429 380.5,311.5C 358.5,289.5 336.5,267.5 314.5,245.5C 313.37,244.378 312.703,243.044 312.5,241.5 Z"/></g>
<g><path style="opacity:0.074" fill="#000000" d="M 1.5,242.5 C 2.34464,243.671 3.01131,245.005 3.5,246.5C 1.82351,245.817 1.15684,244.483 1.5,242.5 Z"/></g>
<g><path style="opacity:0.041" fill="#000000" d="M 73.5,242.5 C 72.8166,244.176 71.4832,244.843 69.5,244.5C 70.287,242.896 71.6203,242.229 73.5,242.5 Z"/></g>
<g><path style="opacity:0.049" fill="#000000" d="M 69.5,244.5 C 69.0629,246.074 68.0629,247.241 66.5,248C 64.3476,249.413 62.0143,250.246 59.5,250.5C 62.4937,248 65.827,246 69.5,244.5 Z"/></g>
<g><path style="opacity:0.059" fill="#000000" d="M 3.5,246.5 C 4.67373,247.514 5.3404,248.847 5.5,250.5C 3.82351,249.817 3.15684,248.483 3.5,246.5 Z"/></g>
<g><path style="opacity:0.051" fill="#000000" d="M 5.5,250.5 C 6.5,250.833 7.16667,251.5 7.5,252.5C 6.16667,252.5 5.5,251.833 5.5,250.5 Z"/></g>
<g><path style="opacity:0.04" fill="#000000" d="M 7.5,252.5 C 10.2602,255.274 13.2602,257.608 16.5,259.5C 11.8173,259.326 8.8173,256.992 7.5,252.5 Z"/></g>
<g><path style="opacity:0.03" fill="#000000" d="M 56.5,252.5 C 55.9653,254.446 54.632,255.446 52.5,255.5C 53.4363,254.026 54.7697,253.026 56.5,252.5 Z"/></g>
<g><path style="opacity:0.014" fill="#000000" d="M 414.5,252.5 C 416.027,252.427 417.027,253.094 417.5,254.5C 415.973,254.573 414.973,253.906 414.5,252.5 Z"/></g>
<g><path style="opacity:0.039" fill="#000000" d="M 52.5,255.5 C 51.1906,258.451 48.8573,259.784 45.5,259.5C 47.5664,257.801 49.8997,256.468 52.5,255.5 Z"/></g>
<g><path style="opacity:0.092" fill="#000000" d="M 471.5,255.5 C 474.082,255.025 476.082,255.692 477.5,257.5C 475.374,256.952 473.374,256.285 471.5,255.5 Z"/></g>
<g><path style="opacity:0.07" fill="#000000" d="M 478.5,257.5 C 480.179,257.285 481.179,257.952 481.5,259.5C 480.29,259.068 479.29,258.401 478.5,257.5 Z"/></g>
<g><path style="opacity:0.06" fill="#000000" d="M 16.5,259.5 C 18.8984,259.259 20.8984,259.926 22.5,261.5C 19.9899,261.946 17.9899,261.28 16.5,259.5 Z"/></g>
<g><path style="opacity:0.053" fill="#000000" d="M 45.5,259.5 C 44.4479,261.256 42.7812,261.923 40.5,261.5C 41.7804,260.069 43.4471,259.402 45.5,259.5 Z"/></g>
<g><path style="opacity:0.048" fill="#000000" d="M 482.5,259.5 C 484.179,259.285 485.179,259.952 485.5,261.5C 483.973,261.573 482.973,260.906 482.5,259.5 Z"/></g>
<g><path style="opacity:0.072" fill="#000000" d="M 22.5,261.5 C 28.174,262.725 33.8406,262.725 39.5,261.5C 37.2568,262.812 34.5902,263.478 31.5,263.5C 28.8333,263.333 26.1667,263.167 23.5,263C 22.944,262.617 22.6107,262.117 22.5,261.5 Z"/></g>
<g><path style="opacity:0.052" fill="#000000" d="M 485.5,261.5 C 486.833,261.5 487.5,262.167 487.5,263.5C 486.5,263.167 485.833,262.5 485.5,261.5 Z"/></g>
<g><path style="opacity:0.033" fill="#000000" d="M 487.5,263.5 C 490.621,264.288 492.288,266.288 492.5,269.5C 490.844,267.54 489.177,265.54 487.5,263.5 Z"/></g>
<g><path style="opacity:0.068" fill="#131313" d="M 492.5,269.5 C 494.104,270.287 494.771,271.62 494.5,273.5C 492.824,272.817 492.157,271.483 492.5,269.5 Z"/></g>
<g><path style="opacity:0.076" fill="#000000" d="M 494.5,273.5 C 495.117,273.611 495.617,273.944 496,274.5C 496.495,276.473 496.662,278.473 496.5,280.5C 495.076,278.485 494.41,276.152 494.5,273.5 Z"/></g>
<g><path style="opacity:0.077" fill="#000000" d="M 496.5,293.5 C 496.975,296.082 496.308,298.082 494.5,299.5C 494.259,297.102 494.926,295.102 496.5,293.5 Z"/></g>
<g><path style="opacity:0.05" fill="#0c0c0c" d="M 494.5,300.5 C 494.646,303.554 493.313,305.554 490.5,306.5C 491.037,303.964 492.37,301.964 494.5,300.5 Z"/></g>
<g><path style="opacity:0.034" fill="#000000" d="M 490.5,306.5 C 489.816,309.851 487.816,311.851 484.5,312.5C 486.167,310.167 488.167,308.167 490.5,306.5 Z"/></g>
<g><path style="opacity:0.023" fill="#000000" d="M 384.5,312.5 C 385.833,313.167 386.833,314.167 387.5,315.5C 385.5,315.5 384.5,314.5 384.5,312.5 Z"/></g>
<g><path style="opacity:0.035" fill="#000000" d="M 483.5,313.5 C 483.179,315.048 482.179,315.715 480.5,315.5C 480.973,314.094 481.973,313.427 483.5,313.5 Z"/></g>
<g><path style="opacity:0.052" fill="#000000" d="M 387.5,315.5 C 389.698,315.12 391.365,315.787 392.5,317.5C 390.302,317.88 388.635,317.213 387.5,315.5 Z"/></g>
<g><path style="opacity:0.06" fill="#000000" d="M 480.5,315.5 C 479.365,317.213 477.698,317.88 475.5,317.5C 476.635,315.787 478.302,315.12 480.5,315.5 Z"/></g>
<g><path style="opacity:0.17" fill="#000000" d="M 393.5,317.5 C 420.5,317.5 447.5,317.5 474.5,317.5C 461.35,318.833 447.85,319.499 434,319.5C 420.15,319.499 406.65,318.833 393.5,317.5 Z"/></g>
<g><path style="opacity:0.074" fill="#000000" d="M 512.5,364.5 C 513.823,353 513.823,341.5 512.5,330C 467.096,329.172 421.762,329.339 376.5,330.5C 376.414,329.504 376.748,328.671 377.5,328C 422.833,327.333 468.167,327.333 513.5,328C 515.467,339.916 516.134,352.082 515.5,364.5C 514.5,364.5 513.5,364.5 512.5,364.5 Z"/></g>
<g><path style="opacity:0.979" fill="#f1f1f1" d="M 512.5,364.5 C 507.156,364.334 501.823,364.501 496.5,365C 508.333,372.833 520.167,380.667 532,388.5C 541.146,430.071 549.479,471.738 557,513.5C 554.958,515.604 552.458,516.771 549.5,517C 518.869,523.526 488.203,529.526 457.5,535C 455.513,533.681 454.346,531.848 454,529.5C 445.833,490 437.667,450.5 429.5,411C 438.712,395.439 448.379,380.106 458.5,365C 431.835,364.5 405.169,364.333 378.5,364.5C 378.5,363.167 377.833,362.5 376.5,362.5C 376.5,351.833 376.5,341.167 376.5,330.5C 421.762,329.339 467.096,329.172 512.5,330C 513.823,341.5 513.823,353 512.5,364.5 Z M 476.5,386.5 C 488.851,385.899 493.684,391.566 491,403.5C 484,411.5 477,411.5 470,403.5C 467.366,395.892 469.533,390.225 476.5,386.5 Z M 501.5,444.5 C 509.284,444.228 514.618,447.728 517.5,455C 519.587,454.782 521.587,454.949 523.5,455.5C 521.433,456.134 519.6,457.134 518,458.5C 518.244,461.367 517.911,464.367 517,467.5C 516.29,468.973 515.124,469.64 513.5,469.5C 516.098,461.495 514.431,454.662 508.5,449C 504.495,447.902 500.995,448.735 498,451.5C 495.957,457.378 494.29,463.378 493,469.5C 488.898,478.746 482.398,480.913 473.5,476C 471.833,473.667 470.167,471.333 468.5,469C 461.794,468.548 461.294,467.381 467,465.5C 467.667,462.167 468.333,458.833 469,455.5C 469.288,451.826 470.788,450.993 473.5,453C 470.703,459.24 470.87,465.406 474,471.5C 481.027,476.545 486.361,475.212 490,467.5C 491.23,460.909 493.23,454.576 496,448.5C 497.812,447.023 499.645,445.69 501.5,444.5 Z"/></g>
<g><path style="opacity:0.099" fill="#181818" d="M 376.5,362.5 C 377.833,362.5 378.5,363.167 378.5,364.5C 377.167,364.5 376.5,363.833 376.5,362.5 Z"/></g>
<g><path style="opacity:0.181" fill="#000000" d="M 213.5,439.5 C 207.833,439.5 202.167,439.5 196.5,439.5C 198.743,438.188 201.41,437.522 204.5,437.5C 207.167,437.667 209.833,437.833 212.5,438C 213.056,438.383 213.389,438.883 213.5,439.5 Z"/></g>
<g><path style="opacity:0.199" fill="#000000" d="M 213.5,439.5 C 214.176,532.687 214.843,626.02 215.5,719.5C 214.883,719.389 214.383,719.056 214,718.5C 213.5,625.501 213.333,532.501 213.5,439.5 Z"/></g>
<g><path style="opacity:0.072" fill="#000000" d="M 196.5,707.5 C 196.666,711.514 196.499,715.514 196,719.5C 195.617,720.056 195.117,720.389 194.5,720.5C 194.438,715.924 195.105,711.591 196.5,707.5 Z"/></g>
<g><path style="opacity:0.085" fill="#000000" d="M 287.5,710.5 C 287.833,710.5 288.167,710.5 288.5,710.5C 289.069,714.329 288.402,717.663 286.5,720.5C 286.616,717.14 286.949,713.807 287.5,710.5 Z"/></g>
<g><path style="opacity:0.064" fill="#000000" d="M 123.5,718.5 C 124.458,720.302 125.125,722.302 125.5,724.5C 123.692,723.082 123.025,721.082 123.5,718.5 Z"/></g>
<g><path style="opacity:0.064" fill="#000000" d="M 215.5,720.5 C 216.674,721.514 217.34,722.847 217.5,724.5C 215.824,723.817 215.157,722.483 215.5,720.5 Z"/></g>
<g><path style="opacity:0.05" fill="#000000" d="M 286.5,720.5 C 287.226,724.343 285.892,727.01 282.5,728.5C 283.65,725.702 284.983,723.035 286.5,720.5 Z"/></g>
<g><path style="opacity:0.054" fill="#000000" d="M 194.5,721.5 C 194.598,723.553 193.931,725.22 192.5,726.5C 192.12,724.302 192.787,722.635 194.5,721.5 Z"/></g>
<g><path style="opacity:0.063" fill="#000000" d="M 125.5,724.5 C 126.674,725.514 127.34,726.847 127.5,728.5C 125.824,727.817 125.157,726.483 125.5,724.5 Z"/></g>
<g><path style="opacity:0.05" fill="#000000" d="M 217.5,725.5 C 218.906,725.973 219.573,726.973 219.5,728.5C 217.952,728.179 217.285,727.179 217.5,725.5 Z"/></g>
<g><path style="opacity:0.048" fill="#000000" d="M 191.5,727.5 C 191.646,730.554 190.313,732.554 187.5,733.5C 188.475,731.205 189.808,729.205 191.5,727.5 Z"/></g>
<g><path style="opacity:0.058" fill="#111111" d="M 127.5,728.5 C 129.176,729.183 129.843,730.517 129.5,732.5C 127.824,731.817 127.157,730.483 127.5,728.5 Z"/></g>
<g><path style="opacity:0.035" fill="#000000" d="M 219.5,728.5 C 222.167,731.833 225.167,734.833 228.5,737.5C 223.51,736.51 220.51,733.51 219.5,728.5 Z"/></g>
<g><path style="opacity:0.046" fill="#000000" d="M 281.5,730.5 C 280.338,733.68 278.338,736.347 275.5,738.5C 274.311,739.429 272.978,739.762 271.5,739.5C 274.808,736.529 278.141,733.529 281.5,730.5 Z"/></g>
<g><path style="opacity:0.026" fill="#000000" d="M 129.5,732.5 C 131.5,733.833 133.167,735.5 134.5,737.5C 131.5,737.167 129.833,735.5 129.5,732.5 Z"/></g>
<g><path style="opacity:0.067" fill="#000000" d="M 187.5,733.5 C 187.167,735.833 185.833,737.167 183.5,737.5C 184.5,735.833 185.833,734.5 187.5,733.5 Z"/></g>
<g><path style="opacity:0.054" fill="#0d0d0d" d="M 134.5,737.5 C 136.88,738.253 138.88,739.587 140.5,741.5C 137.446,741.646 135.446,740.313 134.5,737.5 Z"/></g>
<g><path style="opacity:0.058" fill="#000000" d="M 183.5,737.5 C 183.5,738.833 182.833,739.5 181.5,739.5C 181.833,738.5 182.5,737.833 183.5,737.5 Z"/></g>
<g><path style="opacity:0.072" fill="#000000" d="M 228.5,737.5 C 229.5,737.833 230.167,738.5 230.5,739.5C 229.167,739.5 228.5,738.833 228.5,737.5 Z"/></g>
<g><path style="opacity:0.037" fill="#000000" d="M 181.5,739.5 C 181.179,741.048 180.179,741.715 178.5,741.5C 179.29,740.599 180.29,739.932 181.5,739.5 Z"/></g>
<g><path style="opacity:0.05" fill="#000000" d="M 230.5,739.5 C 232.153,739.66 233.486,740.326 234.5,741.5C 232.517,741.843 231.183,741.176 230.5,739.5 Z"/></g>
<g><path style="opacity:0.043" fill="#000000" d="M 271.5,739.5 C 271.179,741.048 270.179,741.715 268.5,741.5C 269.29,740.599 270.29,739.932 271.5,739.5 Z"/></g>
<g><path style="opacity:0.051" fill="#000000" d="M 140.5,741.5 C 142.565,741.953 144.232,742.953 145.5,744.5C 144.5,744.5 143.5,744.5 142.5,744.5C 141.449,743.778 140.782,742.778 140.5,741.5 Z"/></g>
<g><path style="opacity:0.055" fill="#0c0c0c" d="M 234.5,741.5 C 237.312,741.767 239.645,742.767 241.5,744.5C 240.167,744.5 238.833,744.5 237.5,744.5C 236.1,743.9 235.1,742.9 234.5,741.5 Z"/></g>
<g><path style="opacity:0.06" fill="#111111" d="M 176.5,742.5 C 176.5,743.167 176.5,743.833 176.5,744.5C 175.167,744.5 173.833,744.5 172.5,744.5C 173.183,742.824 174.517,742.157 176.5,742.5 Z"/></g>
<g><path style="opacity:0.058" fill="#000000" d="M 266.5,742.5 C 266.167,743.167 265.833,743.833 265.5,744.5C 264.167,744.5 262.833,744.5 261.5,744.5C 262.635,742.787 264.302,742.12 266.5,742.5 Z"/></g>
</svg>
