<?xml version="1.0" encoding="UTF-8"?>
<!DOCTYPE svg PUBLIC "-//W3C//DTD SVG 1.1//EN" "http://www.w3.org/Graphics/SVG/1.1/DTD/svg11.dtd">
<svg xmlns="http://www.w3.org/2000/svg" version="1.1" width="250px" height="400px" style="shape-rendering:geometricPrecision; text-rendering:geometricPrecision; image-rendering:optimizeQuality; fill-rule:evenodd; clip-rule:evenodd" xmlns:xlink="http://www.w3.org/1999/xlink">
<g><path style="opacity:0.942" fill="#f0f0f0" d="M 9.5,5.5 C 24.5037,5.33342 39.5037,5.50008 54.5,6C 56.3333,7.83333 58.1667,9.66667 60,11.5C 81.2653,43.7094 102.765,75.7094 124.5,107.5C 146.235,75.7094 167.735,43.7094 189,11.5C 190.833,9.66667 192.667,7.83333 194.5,6C 209.5,5.33333 224.5,5.33333 239.5,6C 244.669,9.80977 245.835,14.6431 243,20.5C 219.333,55.8333 195.667,91.1667 172,126.5C 171,137.833 170,149.167 169,160.5C 167.786,162.049 166.286,163.215 164.5,164C 156.167,164.333 147.833,164.667 139.5,165C 146.88,171.382 154.547,177.382 162.5,183C 172.48,184.453 182.48,185.786 192.5,187C 202,189.833 208.167,196 211,205.5C 212.214,215.52 213.547,225.52 215,235.5C 219.573,242.744 224.907,249.41 231,255.5C 237.655,264.448 238.988,274.115 235,284.5C 228.719,293.782 222.052,302.782 215,311.5C 213.547,321.48 212.214,331.48 211,341.5C 208.167,351 202,357.167 192.5,360C 182.48,361.214 172.48,362.547 162.5,364C 154.547,369.618 146.88,375.618 139.5,382C 129.5,388 119.5,388 109.5,382C 102.12,375.618 94.4533,369.618 86.5,364C 76.5202,362.547 66.5202,361.214 56.5,360C 47,357.167 40.8333,351 38,341.5C 36.7862,331.48 35.4529,321.48 34,311.5C 29.4266,304.256 24.0933,297.59 18,291.5C 11.3449,282.552 10.0115,272.885 14,262.5C 20.2811,253.218 26.9478,244.218 34,235.5C 35.4529,225.52 36.7862,215.52 38,205.5C 40.8333,196 47,189.833 56.5,187C 66.5202,185.786 76.5202,184.453 86.5,183C 94.4533,177.382 102.12,171.382 109.5,165C 101.167,164.667 92.8333,164.333 84.5,164C 82.714,163.215 81.214,162.049 80,160.5C 78.7127,149.931 78.046,139.265 78,128.5C 54,92.5 30,56.5 6,20.5C 3.20255,14.4957 4.36922,9.49568 9.5,5.5 Z M 31.5,23.5 C 36.43,23.1975 41.2633,23.5308 46,24.5C 66.1667,54.8333 86.3333,85.1667 106.5,115.5C 101.615,116.802 96.7817,116.802 92,115.5C 71.564,84.9476 51.3974,54.2809 31.5,23.5 Z M 203.5,23.5 C 208.214,23.1734 212.88,23.5067 217.5,24.5C 197.333,54.8333 177.167,85.1667 157,115.5C 152.218,116.802 147.385,116.802 142.5,115.5C 162.859,84.8156 183.193,54.1489 203.5,23.5 Z M 96.5,134.5 C 115.167,134.5 133.833,134.5 152.5,134.5C 152.5,138.167 152.5,141.833 152.5,145.5C 133.833,145.5 115.167,145.5 96.5,145.5C 96.5,141.833 96.5,138.167 96.5,134.5 Z M 121.5,179.5 C 125.131,179.16 128.464,179.994 131.5,182C 138.307,189.145 145.973,195.145 154.5,200C 164.007,202.397 173.673,203.73 183.5,204C 188.005,204.327 191.172,206.494 193,210.5C 193.954,221.616 195.62,232.616 198,243.5C 202.855,252.027 208.855,259.693 216,266.5C 219.333,271.167 219.333,275.833 216,280.5C 208.855,287.307 202.855,294.973 198,303.5C 195.603,313.007 194.27,322.673 194,332.5C 193.5,339 190,342.5 183.5,343C 173.673,343.27 164.007,344.603 154.5,347C 145.973,351.855 138.307,357.855 131.5,365C 126.833,368.333 122.167,368.333 117.5,365C 110.693,357.855 103.027,351.855 94.5,347C 85.3199,344.686 75.9865,343.352 66.5,343C 59.4708,342.97 55.6374,339.47 55,332.5C 54.7302,322.673 53.3968,313.007 51,303.5C 46.1449,294.973 40.1449,287.307 33,280.5C 29.6667,275.833 29.6667,271.167 33,266.5C 40.1449,259.693 46.1449,252.027 51,243.5C 53.3968,233.993 54.7302,224.327 55,214.5C 55.3272,209.995 57.4939,206.828 61.5,205C 72.616,204.046 83.616,202.38 94.5,200C 96.9962,198.92 99.3295,197.586 101.5,196C 107.774,189.881 114.44,184.381 121.5,179.5 Z M 114.5,216.5 C 149.285,214.468 171.452,230.135 181,263.5C 183.508,298.317 168.008,320.483 134.5,330C 99.6889,332.515 77.5223,317.015 68,283.5C 65.7238,248.639 81.2238,226.306 114.5,216.5 Z M 128.5,278.5 C 125.833,278.5 123.167,278.5 120.5,278.5C 120.82,273.977 119.154,270.477 115.5,268C 117.167,267.667 118.833,267.333 120.5,267C 121.685,265.647 123.019,264.48 124.5,263.5C 125.981,264.48 127.315,265.647 128.5,267C 130.167,267.333 131.833,267.667 133.5,268C 129.808,270.55 128.142,274.05 128.5,278.5 Z"/></g>
<g><path style="opacity:0.939" fill="#f0f0f0" d="M 118.5,197.5 C 153.057,197.019 178.224,212.019 194,242.5C 207.463,280.761 198.297,312.261 166.5,337C 133.881,355.365 102.881,353.031 73.5,330C 50.1723,306.718 43.339,279.218 53,247.5C 65.2143,218.107 87.0476,201.44 118.5,197.5 Z M 114.5,216.5 C 81.2238,226.306 65.7238,248.639 68,283.5C 77.5223,317.015 99.6889,332.515 134.5,330C 168.008,320.483 183.508,298.317 181,263.5C 171.452,230.135 149.285,214.468 114.5,216.5 Z M 128.5,278.5 C 125.833,278.5 123.167,278.5 120.5,278.5C 120.82,273.977 119.154,270.477 115.5,268C 117.167,267.667 118.833,267.333 120.5,267C 121.685,265.647 123.019,264.48 124.5,263.5C 125.981,264.48 127.315,265.647 128.5,267C 130.167,267.333 131.833,267.667 133.5,268C 129.808,270.55 128.142,274.05 128.5,278.5 Z"/></g>
<g><path style="opacity:0.948" fill="#f0f0f0" d="M 119.5,224.5 C 122.85,224.335 126.183,224.502 129.5,225C 130.333,225.833 131.167,226.667 132,227.5C 134.599,234.462 137.099,241.462 139.5,248.5C 147.479,249.332 155.479,249.832 163.5,250C 168.665,253.721 169.832,258.554 167,264.5C 160.926,269.786 154.759,274.952 148.5,280C 151.533,287.266 153.866,294.766 155.5,302.5C 154.192,309.976 149.859,312.81 142.5,311C 136.61,306.933 130.61,303.1 124.5,299.5C 118.206,303.653 111.872,307.819 105.5,312C 97,312.833 93.1667,309 94,300.5C 95.9398,293.567 98.1065,286.734 100.5,280C 94.6109,274.476 88.4442,269.31 82,264.5C 79.1682,258.554 80.3349,253.721 85.5,250C 93.5207,249.832 101.521,249.332 109.5,248.5C 111.765,242.204 113.932,235.871 116,229.5C 116.997,227.677 118.164,226.01 119.5,224.5 Z M 128.5,278.5 C 125.833,278.5 123.167,278.5 120.5,278.5C 120.82,273.977 119.154,270.477 115.5,268C 117.167,267.667 118.833,267.333 120.5,267C 121.685,265.647 123.019,264.48 124.5,263.5C 125.981,264.48 127.315,265.647 128.5,267C 130.167,267.333 131.833,267.667 133.5,268C 129.808,270.55 128.142,274.05 128.5,278.5 Z"/></g>
</svg>
