<?xml version="1.0" encoding="UTF-8"?>
<!DOCTYPE svg PUBLIC "-//W3C//DTD SVG 1.1//EN" "http://www.w3.org/Graphics/SVG/1.1/DTD/svg11.dtd">
<svg xmlns="http://www.w3.org/2000/svg" version="1.1" width="514px" height="480px" style="shape-rendering:geometricPrecision; text-rendering:geometricPrecision; image-rendering:optimizeQuality; fill-rule:evenodd; clip-rule:evenodd" xmlns:xlink="http://www.w3.org/1999/xlink">
<g><path style="opacity:0.682" fill="#d9dae6" d="M 260.5,13.5 C 258.674,10.67 257.174,7.00334 256,2.5C 253.531,10.2418 250.864,17.9084 248,25.5C 247.601,25.2716 247.435,24.9382 247.5,24.5C 249.844,16.3011 252.677,8.30107 256,0.5C 258.191,4.57291 259.691,8.90624 260.5,13.5 Z"/></g>
<g><path style="opacity:1" fill="#ebeced" d="M 260.5,13.5 C 262.34,17.6733 264.006,22.0066 265.5,26.5C 274.068,27.1929 282.734,27.8596 291.5,28.5C 284.425,33.2217 277.425,38.2217 270.5,43.5C 273.502,52.26 276.502,60.5933 279.5,68.5C 279,68.8333 278.5,69.1667 278,69.5C 270.84,64.2528 263.507,59.2528 256,54.5C 248.92,58.959 242.087,63.7923 235.5,69C 234.5,69.6667 233.5,69.6667 232.5,69C 234.039,63.0724 236.372,56.739 239.5,50C 239.167,49.6667 238.833,49.3333 238.5,49C 241.213,46.5036 241.546,44.0036 239.5,41.5C 240.738,41.19 240.738,40.69 239.5,40C 237.167,38.3333 234.833,36.6667 232.5,35C 231.563,34.3083 230.897,34.475 230.5,35.5C 226.807,32.7972 223.14,30.1306 219.5,27.5C 229.071,27.1053 238.405,26.1053 247.5,24.5C 247.435,24.9382 247.601,25.2716 248,25.5C 250.864,17.9084 253.531,10.2418 256,2.5C 257.174,7.00334 258.674,10.67 260.5,13.5 Z"/></g>
<g><path style="opacity:0.682" fill="#caceea" d="M 265.5,26.5 C 274.506,26.3336 283.506,26.5002 292.5,27C 291.944,27.3826 291.611,27.8826 291.5,28.5C 282.734,27.8596 274.068,27.1929 265.5,26.5 Z"/></g>
<g><path style="opacity:0.988" fill="#dadceb" d="M 230.5,35.5 C 230.897,34.475 231.563,34.3083 232.5,35C 234.833,36.6667 237.167,38.3333 239.5,40C 240.738,40.69 240.738,41.19 239.5,41.5C 236.5,39.5 233.5,37.5 230.5,35.5 Z"/></g>
<g><path style="opacity:0.988" fill="#d9dbe7" d="M 258.5,97.5 C 257.11,96.6836 255.943,95.0169 255,92.5C 253.826,97.0033 252.326,100.67 250.5,103.5C 251.378,98.5315 253.045,93.8648 255.5,89.5C 256.897,92.0258 257.897,94.6924 258.5,97.5 Z"/></g>
<g><path style="opacity:1" fill="#eeeeee" d="M 258.5,97.5 C 259.338,97.8417 259.672,98.5084 259.5,99.5C 258.957,99.56 258.624,99.8933 258.5,100.5C 259.726,105.068 261.393,108.735 263.5,111.5C 264.728,115.127 266.395,118.627 268.5,122C 268.167,122.333 267.833,122.667 267.5,123C 271.928,135.123 275.928,146.957 279.5,158.5C 278.903,158.735 278.57,159.235 278.5,160C 282.136,171.241 285.969,182.408 290,193.5C 290.399,193.272 290.565,192.938 290.5,192.5C 291.338,192.842 291.672,193.508 291.5,194.5C 290.957,194.56 290.624,194.893 290.5,195.5C 291.74,199.056 293.073,202.556 294.5,206C 292.618,206.198 290.952,206.698 289.5,207.5C 285.688,208.324 281.688,208.824 277.5,209C 257.503,209.5 237.503,209.667 217.5,209.5C 217.784,207.123 217.784,204.956 217.5,203C 221.083,195.255 224.083,187.255 226.5,179C 225.434,177.841 225.767,177.008 227.5,176.5C 230.935,168.852 233.935,160.352 236.5,151C 236.43,150.235 236.097,149.735 235.5,149.5C 237.184,142.45 239.518,135.283 242.5,128C 241.434,126.841 241.767,126.008 243.5,125.5C 245.401,122.311 247.068,118.311 248.5,113.5C 248.376,112.893 248.043,112.56 247.5,112.5C 247.062,112.565 246.728,112.399 246.5,112C 248.329,109.318 249.663,106.484 250.5,103.5C 252.326,100.67 253.826,97.0033 255,92.5C 255.943,95.0169 257.11,96.6836 258.5,97.5 Z"/></g>
<g><path style="opacity:0.988" fill="#d8dae8" d="M 259.5,99.5 C 261.029,103.421 262.363,107.421 263.5,111.5C 261.393,108.735 259.726,105.068 258.5,100.5C 258.624,99.8933 258.957,99.56 259.5,99.5 Z"/></g>
<g><path style="opacity:0.682" fill="#d8dae7" d="M 247.5,112.5 C 248.043,112.56 248.376,112.893 248.5,113.5C 247.068,118.311 245.401,122.311 243.5,125.5C 244.435,121.03 245.768,116.697 247.5,112.5 Z"/></g>
<g><path style="opacity:0.988" fill="#dbdce7" d="M 235.5,149.5 C 236.097,149.735 236.43,150.235 236.5,151C 233.935,160.352 230.935,168.852 227.5,176.5C 229.88,167.409 232.547,158.409 235.5,149.5 Z"/></g>
<g><path style="opacity:0.682" fill="#d8dae7" d="M 279.5,158.5 C 283.167,169.833 286.833,181.167 290.5,192.5C 290.565,192.938 290.399,193.272 290,193.5C 285.969,182.408 282.136,171.241 278.5,160C 278.57,159.235 278.903,158.735 279.5,158.5 Z"/></g>
<g><path style="opacity:0.992" fill="#cccee2" d="M 476.5,169.5 C 475.167,171.833 473.833,174.167 472.5,176.5C 473.093,173.055 474.093,169.721 475.5,166.5C 476.386,167.325 476.719,168.325 476.5,169.5 Z"/></g>
<g><path style="opacity:1" fill="#ececed" d="M 476.5,169.5 C 479.193,177.07 482.193,184.57 485.5,192C 494.079,192.816 502.579,192.649 511,191.5C 513.019,193.124 512.852,194.457 510.5,195.5C 510.103,194.475 509.437,194.308 508.5,195C 506.167,196.667 503.833,198.333 501.5,200C 500.262,200.69 500.262,201.19 501.5,201.5C 497.433,204.201 493.766,207.367 490.5,211C 492.073,215.535 493.406,219.702 494.5,223.5C 493.957,223.56 493.624,223.893 493.5,224.5C 494.877,227.449 495.71,230.449 496,233.5C 494.414,232.624 492.914,231.624 491.5,230.5C 490.893,230.624 490.56,230.957 490.5,231.5C 489.5,231.167 488.833,230.5 488.5,229.5C 489.738,229.19 489.738,228.69 488.5,228C 484.656,225.578 480.99,222.911 477.5,220C 476.563,219.308 475.897,219.475 475.5,220.5C 471.447,223.883 467.114,226.883 462.5,229.5C 460.059,230.557 457.725,231.89 455.5,233.5C 455.407,232.528 455.074,231.528 454.5,230.5C 454.062,230.565 453.728,230.399 453.5,230C 455.967,226.948 456.967,223.614 456.5,220C 459.454,216.98 460.454,213.48 459.5,209.5C 460.774,208.811 460.774,207.977 459.5,207C 457.167,205.333 454.833,203.667 452.5,202C 451.563,201.308 450.897,201.475 450.5,202.5C 447.28,200.397 444.28,198.064 441.5,195.5C 442.738,195.19 442.738,194.69 441.5,194C 449.677,193.829 457.677,193.329 465.5,192.5C 465.842,191.662 466.508,191.328 467.5,191.5C 469.629,187.633 471.296,183.466 472.5,179C 472.43,178.235 472.097,177.735 471.5,177.5C 471.5,176.833 471.833,176.5 472.5,176.5C 473.833,174.167 475.167,171.833 476.5,169.5 Z"/></g>
<g><path style="opacity:1" fill="#ececed" d="M 43.5,191.5 C 44.4718,192.868 45.4718,194.368 46.5,196C 55.5184,196.168 64.5184,196.668 73.5,197.5C 66.3839,203.232 59.0506,208.732 51.5,214C 52.8333,214.667 52.8333,215.333 51.5,216C 53.5689,216.324 53.9023,217.158 52.5,218.5C 54.788,224.62 56.788,230.62 58.5,236.5C 57.7784,236.918 57.2784,237.584 57,238.5C 54.7797,235.811 52.2797,234.478 49.5,234.5C 48.5,234.167 47.8333,233.5 47.5,232.5C 48.7383,232.19 48.7383,231.69 47.5,231C 45.1667,229.333 42.8333,227.667 40.5,226C 39.5632,225.308 38.8966,225.475 38.5,226.5C 37.8501,226.196 37.1835,225.863 36.5,225.5C 34.2099,226.467 32.2099,227.8 30.5,229.5C 30.1034,228.475 29.4368,228.308 28.5,229C 24.2435,232.045 20.0768,235.212 16,238.5C 15.7216,237.584 15.2216,236.918 14.5,236.5C 16.839,228.99 19.1723,221.823 21.5,215C 14.5916,208.924 7.25831,203.424 -0.5,198.5C -0.5,197.833 -0.5,197.167 -0.5,196.5C 8.88699,196.807 18.2203,196.473 27.5,195.5C 29.6599,189.012 31.9933,182.678 34.5,176.5C 34.4346,176.938 34.6012,177.272 35,177.5C 35.2492,176.376 35.7492,175.376 36.5,174.5C 36.8333,175 37.1667,175.5 37.5,176C 39.1843,181.991 41.1843,187.157 43.5,191.5 Z"/></g>
<g><path style="opacity:0.988" fill="#d9dbe7" d="M 43.5,191.5 C 41.1843,187.157 39.1843,181.991 37.5,176C 37.1667,175.5 36.8333,175 36.5,174.5C 35.7492,175.376 35.2492,176.376 35,177.5C 34.6012,177.272 34.4346,176.938 34.5,176.5C 34.5652,174.304 35.2319,172.304 36.5,170.5C 39.4348,177.304 41.7681,184.304 43.5,191.5 Z"/></g>
<g><path style="opacity:0.792" fill="#cfd1e3" d="M 471.5,177.5 C 472.097,177.735 472.43,178.235 472.5,179C 471.296,183.466 469.629,187.633 467.5,191.5C 468.759,186.438 470.092,181.771 471.5,177.5 Z"/></g>
<g><path style="opacity:0.792" fill="#d9d6d5" d="M 465.5,192.5 C 457.677,193.329 449.677,193.829 441.5,194C 442.738,194.69 442.738,195.19 441.5,195.5C 438.955,194.562 438.455,193.229 440,191.5C 448.415,192.483 456.915,192.817 465.5,192.5 Z"/></g>
<g><path style="opacity:0.792" fill="#d1d2e2" d="M 510.5,195.5 C 507.5,197.5 504.5,199.5 501.5,201.5C 500.262,201.19 500.262,200.69 501.5,200C 503.833,198.333 506.167,196.667 508.5,195C 509.437,194.308 510.103,194.475 510.5,195.5 Z"/></g>
<g><path style="opacity:0.992" fill="#d2d4e4" d="M 450.5,202.5 C 450.897,201.475 451.563,201.308 452.5,202C 454.833,203.667 457.167,205.333 459.5,207C 460.774,207.977 460.774,208.811 459.5,209.5C 456.81,206.815 453.81,204.482 450.5,202.5 Z"/></g>
<g><path style="opacity:0.988" fill="#d7d8e6" d="M 291.5,194.5 C 293.232,198.697 294.565,203.031 295.5,207.5C 293.5,207.5 291.5,207.5 289.5,207.5C 290.952,206.698 292.618,206.198 294.5,206C 293.073,202.556 291.74,199.056 290.5,195.5C 290.624,194.893 290.957,194.56 291.5,194.5 Z"/></g>
<g><path style="opacity:1" fill="#ededee" d="M 158.5,266.5 C 159.738,266.19 159.738,265.69 158.5,265C 153.306,260.973 147.973,257.14 142.5,253.5C 141.893,253.624 141.56,253.957 141.5,254.5C 134.476,249.136 127.476,243.802 120.5,238.5C 121.738,238.19 121.738,237.69 120.5,237C 117.167,234.667 113.833,232.333 110.5,230C 109.563,229.308 108.897,229.475 108.5,230.5C 101.046,225.553 93.7128,220.386 86.5,215C 92.0943,213.127 97.761,212.627 103.5,213.5C 114.306,212.462 125.139,211.796 136,211.5C 161.159,212.368 186.326,212.701 211.5,212.5C 211.208,216.207 210.208,219.707 208.5,223C 203.566,239.283 198.233,255.616 192.5,272C 192.833,272.333 193.167,272.667 193.5,273C 191.254,276.734 189.587,280.734 188.5,285C 189.381,286.793 188.714,287.46 186.5,287C 176.922,280.39 167.588,273.556 158.5,266.5 Z"/></g>
<g><path style="opacity:0.682" fill="#ccd1e9" d="M 366.5,212.5 C 366.5,212.833 366.5,213.167 366.5,213.5C 344.425,213.178 322.425,213.511 300.5,214.5C 322.141,212.511 344.141,211.844 366.5,212.5 Z"/></g>
<g><path style="opacity:0.792" fill="#b8bfe6" d="M 366.5,213.5 C 366.5,213.167 366.5,212.833 366.5,212.5C 386.178,212.167 405.845,212.5 425.5,213.5C 425.043,214.298 424.376,214.631 423.5,214.5C 404.674,213.503 385.674,213.17 366.5,213.5 Z"/></g>
<g><path style="opacity:1" fill="#eeeeee" d="M 366.5,213.5 C 385.674,213.17 404.674,213.503 423.5,214.5C 412.403,223.93 400.736,232.597 388.5,240.5C 385.63,241.433 383.296,243.1 381.5,245.5C 380.738,247.262 379.404,248.262 377.5,248.5C 367.546,254.484 357.879,260.984 348.5,268C 347.262,268.69 347.262,269.19 348.5,269.5C 342.81,274.518 336.81,279.185 330.5,283.5C 330.44,282.957 330.107,282.624 329.5,282.5C 328.186,283.313 327.019,284.313 326,285.5C 322.115,276.411 318.282,267.411 314.5,258.5C 313.528,257.132 312.528,255.632 311.5,254C 311.937,250.445 310.937,247.111 308.5,244C 309.458,242.853 309.125,241.853 307.5,241C 307.937,237.445 306.937,234.111 304.5,231C 305.458,229.853 305.125,228.853 303.5,228C 303.967,224.386 302.967,221.052 300.5,218C 301.458,216.853 301.125,215.853 299.5,215C 299.728,214.601 300.062,214.435 300.5,214.5C 322.425,213.511 344.425,213.178 366.5,213.5 Z"/></g>
<g><path style="opacity:0.682" fill="#dfdede" d="M 290.5,220.5 C 268.164,220.333 245.831,220.5 223.5,221C 220.958,228.561 218.292,235.395 215.5,241.5C 217.333,234.169 219.666,227.002 222.5,220C 245.337,219.17 268.004,219.337 290.5,220.5 Z"/></g>
<g><path style="opacity:1" fill="#eeeeee" d="M 290.5,220.5 C 293.652,228.301 296.319,235.968 298.5,243.5C 297.903,243.735 297.57,244.235 297.5,245C 301.645,257.769 305.978,270.435 310.5,283C 308.353,285.237 306.02,287.237 303.5,289C 303.728,289.399 304.062,289.565 304.5,289.5C 298.81,294.518 292.81,299.185 286.5,303.5C 286.44,302.957 286.107,302.624 285.5,302.5C 277.305,308.528 268.972,314.361 260.5,320C 259.262,320.69 259.262,321.19 260.5,321.5C 260.167,322.5 259.5,323.167 258.5,323.5C 254.992,322.035 251.659,320.035 248.5,317.5C 247.893,317.624 247.56,317.957 247.5,318.5C 241.86,314.853 236.527,310.853 231.5,306.5C 232.738,306.19 232.738,305.69 231.5,305C 226.5,301.5 221.5,298 216.5,294.5C 215.893,294.624 215.56,294.957 215.5,295.5C 213.142,293.471 210.808,291.471 208.5,289.5C 208.938,289.565 209.272,289.399 209.5,289C 206.98,287.237 204.647,285.237 202.5,283C 207.128,270.283 211.461,257.45 215.5,244.5C 215.376,243.893 215.043,243.56 214.5,243.5C 214.328,242.508 214.662,241.842 215.5,241.5C 218.292,235.395 220.958,228.561 223.5,221C 245.831,220.5 268.164,220.333 290.5,220.5 Z"/></g>
<g><path style="opacity:0.992" fill="#d1d3e6" d="M 475.5,220.5 C 475.897,219.475 476.563,219.308 477.5,220C 480.99,222.911 484.656,225.578 488.5,228C 489.738,228.69 489.738,229.19 488.5,229.5C 483.992,226.747 479.659,223.747 475.5,220.5 Z"/></g>
<g><path style="opacity:0.988" fill="#d8dbeb" d="M 38.5,226.5 C 38.8966,225.475 39.5632,225.308 40.5,226C 42.8333,227.667 45.1667,229.333 47.5,231C 48.7383,231.69 48.7383,232.19 47.5,232.5C 44.5,230.5 41.5,228.5 38.5,226.5 Z"/></g>
<g><path style="opacity:0.792" fill="#d1d3e2" d="M 494.5,223.5 C 495.686,227.562 497.352,231.395 499.5,235C 498.975,235.692 498.308,236.192 497.5,236.5C 495.313,234.578 492.98,232.912 490.5,231.5C 490.56,230.957 490.893,230.624 491.5,230.5C 492.914,231.624 494.414,232.624 496,233.5C 495.71,230.449 494.877,227.449 493.5,224.5C 493.624,223.893 493.957,223.56 494.5,223.5 Z"/></g>
<g><path style="opacity:0.988" fill="#d9dbea" d="M 108.5,230.5 C 108.897,229.475 109.563,229.308 110.5,230C 113.833,232.333 117.167,234.667 120.5,237C 121.738,237.69 121.738,238.19 120.5,238.5C 116.5,235.833 112.5,233.167 108.5,230.5 Z"/></g>
<g><path style="opacity:0.992" fill="#cfd0e2" d="M 462.5,229.5 C 459.829,232.161 456.829,234.494 453.5,236.5C 452.911,234.519 453.245,232.519 454.5,230.5C 455.074,231.528 455.407,232.528 455.5,233.5C 457.725,231.89 460.059,230.557 462.5,229.5 Z"/></g>
<g><path style="opacity:0.682" fill="#d7d9e8" d="M 30.5,229.5 C 24.8782,233.282 19.3782,237.282 14,241.5C 13.6155,239.803 13.7822,238.137 14.5,236.5C 15.2216,236.918 15.7216,237.584 16,238.5C 20.0768,235.212 24.2435,232.045 28.5,229C 29.4368,228.308 30.1034,228.475 30.5,229.5 Z"/></g>
<g><path style="opacity:0.988" fill="#d6d8e9" d="M 49.5,234.5 C 52.2797,234.478 54.7797,235.811 57,238.5C 57.2784,237.584 57.7784,236.918 58.5,236.5C 59.2178,238.137 59.3845,239.803 59,241.5C 55.9556,238.949 52.7889,236.616 49.5,234.5 Z"/></g>
<g><path style="opacity:0.792" fill="#ced0e2" d="M 388.5,240.5 C 386.704,242.9 384.37,244.567 381.5,245.5C 383.296,243.1 385.63,241.433 388.5,240.5 Z"/></g>
<g><path style="opacity:0.682" fill="#dcdce4" d="M 298.5,243.5 C 302.73,256.691 307.064,269.858 311.5,283C 309.962,286.038 307.629,288.205 304.5,289.5C 304.062,289.565 303.728,289.399 303.5,289C 306.02,287.237 308.353,285.237 310.5,283C 305.978,270.435 301.645,257.769 297.5,245C 297.57,244.235 297.903,243.735 298.5,243.5 Z"/></g>
<g><path style="opacity:0.682" fill="#dbdce5" d="M 214.5,243.5 C 215.043,243.56 215.376,243.893 215.5,244.5C 211.461,257.45 207.128,270.283 202.5,283C 204.647,285.237 206.98,287.237 209.5,289C 209.272,289.399 208.938,289.565 208.5,289.5C 205.371,288.205 203.038,286.038 201.5,283C 205.945,269.831 210.279,256.664 214.5,243.5 Z"/></g>
<g><path style="opacity:0.988" fill="#dadcea" d="M 141.5,254.5 C 141.56,253.957 141.893,253.624 142.5,253.5C 147.973,257.14 153.306,260.973 158.5,265C 159.738,265.69 159.738,266.19 158.5,266.5C 152.833,262.5 147.167,258.5 141.5,254.5 Z"/></g>
<g><path style="opacity:0.682" fill="#dadbe5" d="M 377.5,248.5 C 368.137,255.855 358.47,262.855 348.5,269.5C 347.262,269.19 347.262,268.69 348.5,268C 357.879,260.984 367.546,254.484 377.5,248.5 Z"/></g>
<g><path style="opacity:0.988" fill="#dadbe6" d="M 314.5,258.5 C 318.282,267.411 322.115,276.411 326,285.5C 327.019,284.313 328.186,283.313 329.5,282.5C 330.107,282.624 330.44,282.957 330.5,283.5C 329.373,284.122 328.373,284.955 327.5,286C 326.365,286.749 325.365,286.583 324.5,285.5C 320.369,276.773 317.036,267.773 314.5,258.5 Z"/></g>
<g><path style="opacity:1" fill="#eeeeee" d="M 319.5,294.5 C 320.625,295.014 321.791,295.347 323,295.5C 324.652,301.103 326.818,305.77 329.5,309.5C 330.338,309.842 330.672,310.508 330.5,311.5C 329.957,311.56 329.624,311.893 329.5,312.5C 332.959,323.275 336.626,333.275 340.5,342.5C 342.233,343.008 342.566,343.841 341.5,345C 344.89,353.046 347.89,361.046 350.5,369C 349.542,370.147 349.875,371.147 351.5,372C 351.033,375.614 352.033,378.948 354.5,382C 354.272,382.399 353.938,382.565 353.5,382.5C 352.957,382.56 352.624,382.893 352.5,383.5C 353.726,388.068 355.393,391.735 357.5,394.5C 359.233,395.008 359.566,395.841 358.5,397C 359.933,400.468 361.267,403.968 362.5,407.5C 360.806,408.686 359.139,408.519 357.5,407C 350.167,402 342.833,397 335.5,392C 334.563,391.308 333.897,391.475 333.5,392.5C 332.5,392.167 331.833,391.5 331.5,390.5C 332.738,390.19 332.738,389.69 331.5,389C 322.36,382.694 313.36,376.194 304.5,369.5C 303.893,369.624 303.56,369.957 303.5,370.5C 289.161,359.826 274.828,349.16 260.5,338.5C 266.565,333.095 272.898,328.095 279.5,323.5C 279.56,324.043 279.893,324.376 280.5,324.5C 286.362,320.138 292.362,315.972 298.5,312C 299.738,311.31 299.738,310.81 298.5,310.5C 301.28,307.936 304.28,305.603 307.5,303.5C 307.56,304.043 307.893,304.376 308.5,304.5C 311.975,302.192 315.308,299.692 318.5,297C 318.272,296.601 317.938,296.435 317.5,296.5C 317.833,295.5 318.5,294.833 319.5,294.5 Z"/></g>
<g><path style="opacity:1" fill="#eeeeee" d="M 195.5,296.5 C 195.369,297.376 195.702,298.043 196.5,298.5C 215.305,311.472 233.972,324.639 252.5,338C 251.5,339 250.5,340 249.5,341C 249.728,341.399 250.062,341.565 250.5,341.5C 240.899,349.64 230.899,357.307 220.5,364.5C 220.44,363.957 220.107,363.624 219.5,363.5C 205.167,373.667 190.833,383.833 176.5,394C 175.262,394.69 175.262,395.19 176.5,395.5C 169.066,401.089 161.733,406.922 154.5,413C 153.275,413.563 152.275,413.23 151.5,412C 153.514,408.464 154.848,404.631 155.5,400.5C 154.332,399.094 154.665,397.928 156.5,397C 156.167,396.667 155.833,396.333 155.5,396C 158.09,392.63 159.09,388.964 158.5,385C 160.795,380.886 162.795,376.219 164.5,371C 164.167,370.667 163.833,370.333 163.5,370C 165.547,366.536 167.213,362.87 168.5,359C 167.434,357.841 167.767,357.008 169.5,356.5C 174.668,344.555 179.334,331.722 183.5,318C 183.43,317.235 183.097,316.735 182.5,316.5C 182.328,315.508 182.662,314.842 183.5,314.5C 185.675,310.886 187.342,306.386 188.5,301C 188.43,300.235 188.097,299.735 187.5,299.5C 188.187,292.818 190.854,291.818 195.5,296.5 Z"/></g>
<g><path style="opacity:0.988" fill="#d9dbeb" d="M 317.5,296.5 C 317.938,296.435 318.272,296.601 318.5,297C 315.308,299.692 311.975,302.192 308.5,304.5C 307.893,304.376 307.56,304.043 307.5,303.5C 310.833,301.167 314.167,298.833 317.5,296.5 Z"/></g>
<g><path style="opacity:0.988" fill="#d9dcea" d="M 215.5,295.5 C 215.56,294.957 215.893,294.624 216.5,294.5C 221.5,298 226.5,301.5 231.5,305C 232.738,305.69 232.738,306.19 231.5,306.5C 226.167,302.833 220.833,299.167 215.5,295.5 Z"/></g>
<g><path style="opacity:0.988" fill="#d9dbe8" d="M 329.5,309.5 C 326.818,305.77 324.652,301.103 323,295.5C 321.791,295.347 320.625,295.014 319.5,294.5C 320.482,293.859 321.482,293.193 322.5,292.5C 325.417,297.915 327.75,303.581 329.5,309.5 Z"/></g>
<g><path style="opacity:0.988" fill="#dcdde7" d="M 195.5,296.5 C 215.728,309.731 235.395,323.731 254.5,338.5C 253.148,339.524 251.815,340.524 250.5,341.5C 250.062,341.565 249.728,341.399 249.5,341C 250.5,340 251.5,339 252.5,338C 233.972,324.639 215.305,311.472 196.5,298.5C 195.702,298.043 195.369,297.376 195.5,296.5 Z"/></g>
<g><path style="opacity:0.988" fill="#d9dae8" d="M 187.5,299.5 C 188.097,299.735 188.43,300.235 188.5,301C 187.342,306.386 185.675,310.886 183.5,314.5C 184.833,309.501 186.166,304.501 187.5,299.5 Z"/></g>
<g><path style="opacity:0.988" fill="#dbdcea" d="M 298.5,310.5 C 299.738,310.81 299.738,311.31 298.5,312C 292.362,315.972 286.362,320.138 280.5,324.5C 279.893,324.376 279.56,324.043 279.5,323.5C 285.66,318.92 291.993,314.586 298.5,310.5 Z"/></g>
<g><path style="opacity:0.988" fill="#d8dbea" d="M 247.5,318.5 C 247.56,317.957 247.893,317.624 248.5,317.5C 251.659,320.035 254.992,322.035 258.5,323.5C 257.85,323.804 257.183,324.137 256.5,324.5C 253.482,322.474 250.482,320.474 247.5,318.5 Z"/></g>
<g><path style="opacity:0.682" fill="#dadbe6" d="M 286.5,303.5 C 278.109,309.89 269.442,315.89 260.5,321.5C 259.262,321.19 259.262,320.69 260.5,320C 268.972,314.361 277.305,308.528 285.5,302.5C 286.107,302.624 286.44,302.957 286.5,303.5 Z"/></g>
<g><path style="opacity:0.988" fill="#d7d9e9" d="M 182.5,316.5 C 183.097,316.735 183.43,317.235 183.5,318C 179.334,331.722 174.668,344.555 169.5,356.5C 173.829,343.178 178.163,329.845 182.5,316.5 Z"/></g>
<g><path style="opacity:0.682" fill="#d7d9e7" d="M 330.5,311.5 C 334.231,321.695 337.565,332.028 340.5,342.5C 336.626,333.275 332.959,323.275 329.5,312.5C 329.624,311.893 329.957,311.56 330.5,311.5 Z"/></g>
<g><path style="opacity:0.988" fill="#d9dbea" d="M 303.5,370.5 C 303.56,369.957 303.893,369.624 304.5,369.5C 313.36,376.194 322.36,382.694 331.5,389C 332.738,389.69 332.738,390.19 331.5,390.5C 321.888,384.221 312.555,377.555 303.5,370.5 Z"/></g>
<g><path style="opacity:0.682" fill="#d9dbe7" d="M 220.5,364.5 C 205.833,374.833 191.167,385.167 176.5,395.5C 175.262,395.19 175.262,394.69 176.5,394C 190.833,383.833 205.167,373.667 219.5,363.5C 220.107,363.624 220.44,363.957 220.5,364.5 Z"/></g>
<g><path style="opacity:0.988" fill="#d8dae8" d="M 353.5,382.5 C 353.918,383.222 354.584,383.722 355.5,384C 355.043,384.414 354.709,384.914 354.5,385.5C 355.705,388.45 356.705,391.45 357.5,394.5C 355.393,391.735 353.726,388.068 352.5,383.5C 352.624,382.893 352.957,382.56 353.5,382.5 Z"/></g>
<g><path style="opacity:0.988" fill="#dadbe8" d="M 333.5,392.5 C 333.897,391.475 334.563,391.308 335.5,392C 342.833,397 350.167,402 357.5,407C 359.139,408.519 360.806,408.686 362.5,407.5C 363.234,408.708 363.567,410.041 363.5,411.5C 353.211,405.685 343.211,399.352 333.5,392.5 Z"/></g>
<g><path style="opacity:1" fill="#ececed" d="M 142.5,456.5 C 141.903,456.735 141.57,457.235 141.5,458C 143.976,464.413 145.809,470.913 147,477.5C 141.5,473.333 136,469.167 130.5,465C 129.563,464.308 128.897,464.475 128.5,465.5C 127.504,465.586 126.671,465.252 126,464.5C 119.521,469.641 113.021,474.641 106.5,479.5C 105.833,479.5 105.167,479.5 104.5,479.5C 106.468,470.798 109.135,462.298 112.5,454C 105.5,449 98.5,444 91.5,439C 90.6634,437.989 90.33,436.822 90.5,435.5C 99.7506,435.182 108.917,435.515 118,436.5C 120.415,427.586 123.415,418.92 127,410.5C 130.147,419.15 132.98,427.15 135.5,434.5C 144.482,435.332 153.482,435.832 162.5,436C 162.957,436.414 163.291,436.914 163.5,437.5C 156.128,443.178 148.795,448.845 141.5,454.5C 141.863,455.183 142.196,455.85 142.5,456.5 Z"/></g>
<g><path style="opacity:0.992" fill="#cccee2" d="M 392.5,416.5 C 391.778,416.082 391.278,415.416 391,414.5C 390.626,416.491 389.793,418.158 388.5,419.5C 388.699,417.04 389.365,414.707 390.5,412.5C 392.111,413.32 392.778,414.654 392.5,416.5 Z"/></g>
<g><path style="opacity:1" fill="#ededee" d="M 392.5,416.5 C 393.537,417.93 394.204,419.597 394.5,421.5C 393.903,421.735 393.57,422.235 393.5,423C 395.088,427.322 396.755,431.488 398.5,435.5C 399.404,436.209 399.737,437.209 399.5,438.5C 407.657,439.329 415.99,439.829 424.5,440C 421.58,441.946 418.913,444.113 416.5,446.5C 412.268,448.4 408.601,451.067 405.5,454.5C 404.402,455.601 404.235,456.934 405,458.5C 405.616,461.818 406.782,464.152 408.5,465.5C 410.142,470.086 411.808,474.752 413.5,479.5C 411.833,479.5 410.167,479.5 408.5,479.5C 405.833,477.167 403.167,474.833 400.5,472.5C 401.738,472.19 401.738,471.69 400.5,471C 398.167,469.333 395.833,467.667 393.5,466C 392.563,465.308 391.897,465.475 391.5,466.5C 385.167,470.5 378.833,474.5 372.5,478.5C 371.503,478.53 370.836,478.03 370.5,477C 372.167,472 373.833,467 375.5,462C 375.43,461.235 375.097,460.735 374.5,460.5C 374.833,458.5 375.167,456.5 375.5,454.5C 376.332,453.671 375.999,452.838 374.5,452C 373.034,451.365 371.7,450.531 370.5,449.5C 369.893,449.624 369.56,449.957 369.5,450.5C 368.5,450.167 367.833,449.5 367.5,448.5C 368.738,448.19 368.738,447.69 367.5,447C 364.167,444.667 360.833,442.333 357.5,440C 365.677,439.829 373.677,439.329 381.5,438.5C 382.848,436.355 383.182,434.188 382.5,432C 383.394,430.896 384.394,429.73 385.5,428.5C 387.663,426.046 388.33,423.38 387.5,420.5C 386.443,419.794 386.776,419.461 388.5,419.5C 389.793,418.158 390.626,416.491 391,414.5C 391.278,415.416 391.778,416.082 392.5,416.5 Z"/></g>
<g><path style="opacity:0.992" fill="#cdcfe5" d="M 387.5,420.5 C 388.33,423.38 387.663,426.046 385.5,428.5C 385.963,425.779 386.629,423.112 387.5,420.5 Z"/></g>
<g><path style="opacity:0.792" fill="#cfd0df" d="M 394.5,421.5 C 396.41,425.991 397.743,430.657 398.5,435.5C 396.755,431.488 395.088,427.322 393.5,423C 393.57,422.235 393.903,421.735 394.5,421.5 Z"/></g>
<g><path style="opacity:0.992" fill="#c9cde8" d="M 381.5,438.5 C 373.677,439.329 365.677,439.829 357.5,440C 360.833,442.333 364.167,444.667 367.5,447C 368.738,447.69 368.738,448.19 367.5,448.5C 363.021,445.757 358.688,442.757 354.5,439.5C 363.475,438.502 372.475,438.168 381.5,438.5 Z"/></g>
<g><path style="opacity:0.792" fill="#c7c9e5" d="M 399.5,438.5 C 408.839,438.334 418.173,438.5 427.5,439C 424.208,442.138 420.542,444.638 416.5,446.5C 418.913,444.113 421.58,441.946 424.5,440C 415.99,439.829 407.657,439.329 399.5,438.5 Z"/></g>
<g><path style="opacity:0.792" fill="#d1d2e1" d="M 416.5,446.5 C 413.399,449.933 409.732,452.6 405.5,454.5C 408.601,451.067 412.268,448.4 416.5,446.5 Z"/></g>
<g><path style="opacity:0.992" fill="#d1d3e7" d="M 369.5,450.5 C 369.56,449.957 369.893,449.624 370.5,449.5C 371.7,450.531 373.034,451.365 374.5,452C 375.999,452.838 376.332,453.671 375.5,454.5C 373.5,453.167 371.5,451.833 369.5,450.5 Z"/></g>
<g><path style="opacity:0.792" fill="#c8cbe3" d="M 405.5,454.5 C 406.297,458.223 407.297,461.89 408.5,465.5C 406.782,464.152 405.616,461.818 405,458.5C 404.235,456.934 404.402,455.601 405.5,454.5 Z"/></g>
<g><path style="opacity:0.682" fill="#dbdce6" d="M 142.5,456.5 C 145.036,464.107 147.369,471.774 149.5,479.5C 148.5,479.5 147.5,479.5 146.5,479.5C 140.81,474.482 134.81,469.815 128.5,465.5C 128.897,464.475 129.563,464.308 130.5,465C 136,469.167 141.5,473.333 147,477.5C 145.809,470.913 143.976,464.413 141.5,458C 141.57,457.235 141.903,456.735 142.5,456.5 Z"/></g>
<g><path style="opacity:0.992" fill="#d0d3e6" d="M 391.5,466.5 C 391.897,465.475 392.563,465.308 393.5,466C 395.833,467.667 398.167,469.333 400.5,471C 401.738,471.69 401.738,472.19 400.5,472.5C 397.5,470.5 394.5,468.5 391.5,466.5 Z"/></g>
<g><path style="opacity:0.992" fill="#d2d4e4" d="M 374.5,460.5 C 375.097,460.735 375.43,461.235 375.5,462C 373.833,467 372.167,472 370.5,477C 370.836,478.03 371.503,478.53 372.5,478.5C 372.5,478.833 372.5,479.167 372.5,479.5C 371.167,479.5 369.833,479.5 368.5,479.5C 370.5,473.167 372.5,466.833 374.5,460.5 Z"/></g>
</svg>
