<?xml version="1.0" encoding="UTF-8"?>
<!DOCTYPE svg PUBLIC "-//W3C//DTD SVG 1.1//EN" "http://www.w3.org/Graphics/SVG/1.1/DTD/svg11.dtd">
<svg xmlns="http://www.w3.org/2000/svg" version="1.1" width="480px" height="480px" style="shape-rendering:geometricPrecision; text-rendering:geometricPrecision; image-rendering:optimizeQuality; fill-rule:evenodd; clip-rule:evenodd" xmlns:xlink="http://www.w3.org/1999/xlink">
<g><path style="opacity:0.978" fill="#e4e4e4" d="M 100.5,1.5 C 131.505,-1.93303 151.672,11.067 161,40.5C 165.288,71.7635 152.455,92.2635 122.5,102C 92.7607,106.221 72.5941,94.3879 62,66.5C 56.4141,33.6433 69.2474,11.9766 100.5,1.5 Z"/></g>
<g><path style="opacity:0.979" fill="#e4e4e4" d="M 34.5,119.5 C 85.5011,119.333 136.501,119.5 187.5,120C 205.996,123.829 217.163,134.996 221,153.5C 221.667,197.167 221.667,240.833 221,284.5C 214.987,299.253 204.487,303.753 189.5,298C 185.281,295.448 182.114,291.948 180,287.5C 178.69,247.88 178.023,208.213 178,168.5C 175.475,162.547 171.309,161.047 165.5,164C 164.299,164.903 163.465,166.069 163,167.5C 162.667,250.833 162.333,334.167 162,417.5C 148,418.833 134,418.833 120,417.5C 119.667,380.5 119.333,343.5 119,306.5C 114.33,299.023 109.33,298.689 104,305.5C 103.667,356.833 103.333,408.167 103,459.5C 99.3321,474.592 89.8321,480.426 74.5,477C 68,474.5 63.5,470 61,463.5C 60.9932,364.444 60.3265,265.444 59,166.5C 51.983,160.369 46.983,161.703 44,170.5C 43.9825,209.893 43.3158,249.226 42,288.5C 32.6367,301.822 21.1367,303.988 7.5,295C 5.27276,292.436 3.43943,289.603 2,286.5C 1.33333,241.167 1.33333,195.833 2,150.5C 7.21859,134.111 18.0519,123.778 34.5,119.5 Z"/></g>
<g><path style="opacity:0.971" fill="#e4e4e4" d="M 385.5,296.5 C 425.186,297.724 453.686,316.057 471,351.5C 484.134,387.028 478.801,419.362 455,448.5C 424.541,478.384 389.374,485.551 349.5,470C 320.306,455.308 303.306,431.808 298.5,399.5C 283.369,399.487 270.036,404.32 258.5,414C 244.273,428.112 228.273,439.779 210.5,449C 195.049,454.946 179.049,458.446 162.5,459.5C 156.342,477.281 144.675,482.115 127.5,474C 120.352,467.388 117.685,459.221 119.5,449.5C 119.514,444.919 119.847,440.419 120.5,436C 139.187,435.798 157.853,435.131 176.5,434C 190.205,432.099 202.872,427.432 214.5,420C 224.792,412.043 234.792,403.71 244.5,395C 260.17,382.275 278.17,375.775 298.5,375.5C 303.815,341.042 322.482,316.875 354.5,303C 364.66,299.313 374.993,297.146 385.5,296.5 Z M 384.5,320.5 C 388.192,319.971 391.358,320.971 394,323.5C 395.087,328.638 395.92,333.805 396.5,339C 401.251,339.189 405.917,339.855 410.5,341C 417.352,346.828 416.685,351.828 408.5,356C 399.833,356.333 391.167,356.667 382.5,357C 373.61,363.571 373.276,370.571 381.5,378C 392.265,378.142 401.432,381.976 409,389.5C 420.06,408.835 415.727,423.835 396,434.5C 395.906,440.278 395.239,445.944 394,451.5C 388.559,455.926 383.892,455.259 380,449.5C 379.803,444.914 379.303,440.414 378.5,436C 373.749,435.811 369.083,435.145 364.5,434C 357.668,428.127 358.334,423.127 366.5,419C 375.167,418.667 383.833,418.333 392.5,418C 401.153,411.381 401.486,404.381 393.5,397C 384.753,396.482 376.753,393.816 369.5,389C 358.27,377.661 356.77,365.161 365,351.5C 369.122,347.11 373.789,343.443 379,340.5C 379.333,335.5 379.667,330.5 380,325.5C 381.025,323.313 382.525,321.646 384.5,320.5 Z"/></g>
</svg>
