<?xml version="1.0" encoding="UTF-8"?>
<!DOCTYPE svg PUBLIC "-//W3C//DTD SVG 1.1//EN" "http://www.w3.org/Graphics/SVG/1.1/DTD/svg11.dtd">
<svg xmlns="http://www.w3.org/2000/svg" version="1.1" width="460px" height="460px" style="shape-rendering:geometricPrecision; text-rendering:geometricPrecision; image-rendering:optimizeQuality; fill-rule:evenodd; clip-rule:evenodd" xmlns:xlink="http://www.w3.org/1999/xlink">
<g><path style="opacity:0.986" fill="#f3f4f5" d="M 225.5,6.5 C 230.08,6.11343 234.414,6.94676 238.5,9C 297.684,34.5041 356.85,60.0041 416,85.5C 416.667,142.833 416.667,200.167 416,257.5C 407.377,331.973 371.211,388.473 307.5,427C 283.156,440.615 257.156,449.115 229.5,452.5C 168.329,443.847 119.495,414.847 83,365.5C 60.1604,333.13 46.8271,297.13 43,257.5C 42.3333,200.167 42.3333,142.833 43,85.5C 103.966,59.2618 164.799,32.9285 225.5,6.5 Z M 119.5,99.5 C 127.584,101.147 131.917,97.9801 132.5,90C 128.601,75.8963 133.934,69.8963 148.5,72C 151.548,72.6064 154.048,74.1064 156,76.5C 156.417,80.8399 156.251,85.1732 155.5,89.5C 155.524,97.3502 159.524,100.85 167.5,100C 166.667,100.833 165.833,101.667 165,102.5C 164.502,105.482 164.335,108.482 164.5,111.5C 150.833,111.5 137.167,111.5 123.5,111.5C 123.664,108.813 123.497,106.146 123,103.5C 122.31,101.65 121.144,100.316 119.5,99.5 Z M 339.5,99.5 C 337.856,100.316 336.69,101.65 336,103.5C 335.503,106.146 335.336,108.813 335.5,111.5C 321.833,111.5 308.167,111.5 294.5,111.5C 294.665,108.482 294.498,105.482 294,102.5C 293.167,101.667 292.333,100.833 291.5,100C 299.721,100.775 303.721,97.1087 303.5,89C 300.106,75.3896 305.439,69.7229 319.5,72C 322.548,72.6064 325.048,74.1064 327,76.5C 327.5,81.0123 327.333,85.5123 326.5,90C 327.083,97.9801 331.416,101.147 339.5,99.5 Z M 119.5,99.5 C 109.016,97.0454 104.349,101.045 105.5,111.5C 103.712,111.785 102.045,111.452 100.5,110.5C 103.611,103.261 107.944,96.9279 113.5,91.5C 114.075,95.3492 116.075,98.0158 119.5,99.5 Z M 173.5,91.5 C 179.96,96.5372 184.626,103.037 187.5,111C 185.866,111.494 184.199,111.66 182.5,111.5C 183.091,101.595 178.424,97.4287 168.5,99C 172.007,97.6704 173.673,95.1704 173.5,91.5 Z M 284.5,91.5 C 285.108,94.9583 287.108,97.4583 290.5,99C 280.576,97.4287 275.909,101.595 276.5,111.5C 274.801,111.66 273.134,111.494 271.5,111C 274.481,103.521 278.814,97.0213 284.5,91.5 Z M 339.5,99.5 C 342.925,98.0158 344.925,95.3492 345.5,91.5C 351.056,96.9279 355.389,103.261 358.5,110.5C 356.955,111.452 355.288,111.785 353.5,111.5C 354.651,101.045 349.984,97.0454 339.5,99.5 Z M 97.5,129.5 C 128.168,129.333 158.835,129.5 189.5,130C 193.573,130.359 195.907,132.526 196.5,136.5C 195.731,139.104 194.064,140.938 191.5,142C 159.833,142.667 128.167,142.667 96.5,142C 89.6858,137.242 90.0192,133.075 97.5,129.5 Z M 269.5,129.5 C 300.168,129.333 330.835,129.5 361.5,130C 369.058,133.445 369.391,137.445 362.5,142C 330.833,142.667 299.167,142.667 267.5,142C 262.584,140.152 261.417,136.986 264,132.5C 265.876,131.391 267.709,130.391 269.5,129.5 Z M 109.5,160.5 C 132.51,160.167 155.51,160.5 178.5,161.5C 163.378,184.266 144.044,188.766 120.5,175C 115.479,171.093 111.813,166.26 109.5,160.5 Z M 280.5,160.5 C 303.51,160.167 326.51,160.5 349.5,161.5C 336.565,182.316 318.898,187.816 296.5,178C 289.207,173.877 283.873,168.044 280.5,160.5 Z M 225.5,176.5 C 232.324,175.83 238.157,177.83 243,182.5C 243.638,183.609 244.138,184.775 244.5,186C 242.916,192.759 242.416,199.592 243,206.5C 243.5,208.333 244.667,209.5 246.5,210C 249.833,210.333 253.167,210.667 256.5,211C 255.333,211.5 254.5,212.333 254,213.5C 253.797,217.421 253.297,221.255 252.5,225C 236.926,225.824 221.426,225.657 206,224.5C 205.667,220.833 205.333,217.167 205,213.5C 204.5,212.333 203.667,211.5 202.5,211C 206.167,210.667 209.833,210.333 213.5,210C 215.941,207.347 216.941,204.18 216.5,200.5C 216.253,195.603 215.586,190.769 214.5,186C 216.526,180.799 220.193,177.632 225.5,176.5 Z M 134.5,192.5 C 146.433,191.74 158.1,193.074 169.5,196.5C 166.409,203.691 163.576,211.024 161,218.5C 160.147,222.469 159.481,226.469 159,230.5C 150.876,238.997 148.376,248.997 151.5,260.5C 123.831,260.667 96.1647,260.5 68.5,260C 68,259.5 67.5,259 67,258.5C 69.6833,239.306 78.5167,223.472 93.5,211C 105.764,201.531 119.43,195.365 134.5,192.5 Z M 305.5,192.5 C 350.645,191.724 379.645,212.891 392.5,256C 392.561,257.711 391.894,259.044 390.5,260C 362.835,260.5 335.169,260.667 307.5,260.5C 310.624,248.997 308.124,238.997 300,230.5C 299.519,226.469 298.853,222.469 298,218.5C 295.424,211.024 292.591,203.691 289.5,196.5C 294.943,195.139 300.276,193.806 305.5,192.5 Z M 200.5,209.5 C 189.223,208.83 184.889,214.163 187.5,225.5C 184.833,225.5 182.167,225.5 179.5,225.5C 182.014,214.148 187.847,204.815 197,197.5C 197.851,201.64 199.018,205.64 200.5,209.5 Z M 258.5,209.5 C 260.102,205.677 261.269,201.677 262,197.5C 271.138,204.777 276.971,214.111 279.5,225.5C 276.833,225.5 274.167,225.5 271.5,225.5C 274.111,214.163 269.777,208.83 258.5,209.5 Z M 174.5,243.5 C 211.168,243.333 247.835,243.5 284.5,244C 291.846,250.267 290.846,254.933 281.5,258C 246.833,258.667 212.167,258.667 177.5,258C 168.085,254.76 167.085,249.926 174.5,243.5 Z M 188.5,277.5 C 215.664,276.336 242.997,276.17 270.5,277C 255.719,302.816 234.719,309.816 207.5,298C 199.207,292.878 192.873,286.044 188.5,277.5 Z M 219.5,313.5 C 271.547,313.176 304.547,338.009 318.5,388C 317.5,389 316.5,390 315.5,391C 258.167,391.667 200.833,391.667 143.5,391C 142.5,390 141.5,389 140.5,388C 151.206,346.458 177.539,321.624 219.5,313.5 Z"/></g>
</svg>
