<?xml version="1.0" encoding="UTF-8"?>
<!DOCTYPE svg PUBLIC "-//W3C//DTD SVG 1.1//EN" "http://www.w3.org/Graphics/SVG/1.1/DTD/svg11.dtd">
<svg xmlns="http://www.w3.org/2000/svg" version="1.1" width="472px" height="472px" style="shape-rendering:geometricPrecision; text-rendering:geometricPrecision; image-rendering:optimizeQuality; fill-rule:evenodd; clip-rule:evenodd" xmlns:xlink="http://www.w3.org/1999/xlink">
<g><path style="opacity:0.992" fill="#efefef" d="M 374.5,13.5 C 391.475,11.2645 406.808,15.0978 420.5,25C 430.686,33.5305 435.186,44.3638 434,57.5C 431.016,60.1001 427.516,61.1001 423.5,60.5C 423.67,61.8221 423.337,62.9887 422.5,64C 428.291,83.1868 423.291,98.8535 407.5,111C 385.795,122.124 366.962,118.624 351,100.5C 344.263,88.8086 342.763,76.4752 346.5,63.5C 346.167,62.8333 345.833,62.1667 345.5,61.5C 335.639,61.1395 332.139,56.1395 335,46.5C 339.304,32.194 348.471,22.3607 362.5,17C 366.623,15.8077 370.623,14.641 374.5,13.5 Z M 391.5,26.5 C 392.209,27.404 393.209,27.7373 394.5,27.5C 395.552,27.3505 396.552,27.5172 397.5,28C 392.874,30.4736 388.54,33.307 384.5,36.5C 380.404,33.818 376.404,30.9847 372.5,28C 376.485,28.0126 379.485,26.346 381.5,23C 383.5,22.3333 385.5,22.3333 387.5,23C 388.705,24.3756 390.038,25.5423 391.5,26.5 Z M 382.5,41.5 C 395.092,41.3196 407.092,43.8196 418.5,49C 420.638,50.4216 421.805,52.255 422,54.5C 416.654,51.1606 410.82,48.9939 404.5,48C 389.44,45.7972 374.44,46.1306 359.5,49C 355.025,50.1548 350.858,51.9882 347,54.5C 348.429,50.0851 351.596,47.2517 356.5,46C 365.141,43.5153 373.807,42.0153 382.5,41.5 Z"/></g>
<g><path style="opacity:0.737" fill="#787878" d="M 394.5,27.5 C 393.209,27.7373 392.209,27.404 391.5,26.5C 391.435,26.0618 391.601,25.7284 392,25.5C 392.995,26.0659 393.828,26.7326 394.5,27.5 Z"/></g>
<g><path style="opacity:0.996" fill="#f0f0f0" d="M 65.5,118.5 C 65.4346,118.938 65.6012,119.272 66,119.5C 68.1667,117.333 70.3333,115.167 72.5,113C 72.2716,112.601 71.9382,112.435 71.5,112.5C 80.7917,105.066 91.4583,102.233 103.5,104C 124.878,108.738 136.211,122.071 137.5,144C 137.229,155.83 132.895,165.83 124.5,174C 106.167,174.667 87.8333,174.667 69.5,174C 57.6495,162.105 53.8161,147.938 58,131.5C 59.5031,126.481 62.0031,122.148 65.5,118.5 Z"/></g>
<g><path style="opacity:0.847" fill="#949494" d="M 71.5,112.5 C 71.9382,112.435 72.2716,112.601 72.5,113C 70.3333,115.167 68.1667,117.333 66,119.5C 65.6012,119.272 65.4346,118.938 65.5,118.5C 67.1667,116.167 69.1667,114.167 71.5,112.5 Z"/></g>
<g><path style="opacity:0.986" fill="#ededed" d="M 238.5,154.5 C 237.833,154.5 237.5,154.833 237.5,155.5C 234.219,157.222 230.719,158.222 227,158.5C 223.281,158.222 219.781,157.222 216.5,155.5C 216.5,154.833 216.167,154.5 215.5,154.5C 213.027,150.249 212.027,145.582 212.5,140.5C 212.667,137.5 212.833,134.5 213,131.5C 213.2,129.68 214.034,128.347 215.5,127.5C 215.435,127.938 215.601,128.272 216,128.5C 218.093,126.621 219.593,124.955 220.5,123.5C 228.118,120.084 234.618,121.751 240,128.5C 241.551,135.418 241.884,142.418 241,149.5C 239.906,151.078 239.072,152.745 238.5,154.5 Z"/></g>
<g><path style="opacity:0.984" fill="#f1f1f1" d="M 345.5,126.5 C 371.835,126.333 398.169,126.5 424.5,127C 425.428,127.388 426.095,128.055 426.5,129C 397.069,170.768 367.236,212.268 337,253.5C 335.84,222.973 335.007,192.306 334.5,161.5C 323.364,164.467 312.031,166.134 300.5,166.5C 300.5,159.833 300.5,153.167 300.5,146.5C 281.83,146.667 263.164,146.5 244.5,146C 243.657,140.229 242.99,134.395 242.5,128.5C 277.157,140.887 311.491,140.22 345.5,126.5 Z"/></g>
<g><path style="opacity:0.78" fill="#a2a2a2" d="M 220.5,123.5 C 219.593,124.955 218.093,126.621 216,128.5C 215.601,128.272 215.435,127.938 215.5,127.5C 216.585,125.413 218.251,124.08 220.5,123.5 Z"/></g>
<g><path style="opacity:0.995" fill="#f1f1f1" d="M 471.5,207.5 C 471.5,234.167 471.5,260.833 471.5,287.5C 465.989,296.609 458.322,298.776 448.5,294C 443.123,289.429 441.123,283.596 442.5,276.5C 444.467,249.36 443.3,222.36 439,195.5C 437.585,188.149 435.419,181.149 432.5,174.5C 431.194,198.586 431.194,224.919 432.5,253.5C 437.665,312.308 442.332,371.308 446.5,430.5C 446.479,449.866 436.812,458.033 417.5,455C 410.427,452.928 405.594,448.428 403,441.5C 398.553,390.855 394.386,340.188 390.5,289.5C 391.434,288.432 391.768,287.099 391.5,285.5C 386.833,285.5 382.167,285.5 377.5,285.5C 377.232,287.099 377.566,288.432 378.5,289.5C 374.642,338.491 370.808,387.491 367,436.5C 363.307,452.11 353.474,458.277 337.5,455C 330,452.833 325.167,448 323,440.5C 325.825,384.106 329.825,327.772 335,271.5C 368.305,224.535 401.972,177.868 436,131.5C 446.475,137.985 454.141,146.985 459,158.5C 465.231,174.427 469.398,190.76 471.5,207.5 Z"/></g>
<g><path style="opacity:0.949" fill="#e9e9e9" d="M 215.5,154.5 C 216.167,154.5 216.5,154.833 216.5,155.5C 217.972,157.134 219.638,158.634 221.5,160C 193.169,160.5 164.835,160.667 136.5,160.5C 137.167,156.5 137.833,152.5 138.5,148.5C 162.842,148.167 187.176,148.5 211.5,149.5C 212.133,151.786 213.466,153.452 215.5,154.5 Z"/></g>
<g><path style="opacity:0.966" fill="#eaeaea" d="M 233.5,261.5 C 232.493,263.361 232.16,266.028 232.5,269.5C 238.5,269.5 244.5,269.5 250.5,269.5C 250.5,273.5 250.5,277.5 250.5,281.5C 232.833,281.5 215.167,281.5 197.5,281.5C 197.5,280.167 197.5,278.833 197.5,277.5C 199.755,275.241 200.755,272.408 200.5,269C 200.641,265.125 199.307,261.958 196.5,259.5C 196.5,258.833 196.167,258.5 195.5,258.5C 195.5,257.833 195.167,257.5 194.5,257.5C 192.88,255.016 190.547,253.516 187.5,253C 179.989,252.829 172.655,252.329 165.5,251.5C 165.833,250.833 166.167,250.167 166.5,249.5C 206.167,249.5 245.833,249.5 285.5,249.5C 285.5,219.833 285.5,190.167 285.5,160.5C 267.83,160.667 250.164,160.5 232.5,160C 234.362,158.634 236.028,157.134 237.5,155.5C 238.167,155.5 238.5,155.167 238.5,154.5C 240.534,153.452 241.867,151.786 242.5,149.5C 260.821,148.5 279.155,148.167 297.5,148.5C 297.5,186.167 297.5,223.833 297.5,261.5C 276.167,261.5 254.833,261.5 233.5,261.5 Z"/></g>
<g><path style="opacity:0.913" fill="#f3f4f3" d="M 209.5,164.5 C 212.939,164.589 215.772,165.922 218,168.5C 219.351,174.072 219.851,179.738 219.5,185.5C 224.599,185.175 229.599,185.675 234.5,187C 239.833,191.667 239.833,196.333 234.5,201C 229.599,202.325 224.599,202.825 219.5,202.5C 219.667,215.504 219.5,228.504 219,241.5C 216.726,247.592 212.559,249.426 206.5,247C 204.513,245.681 203.346,243.848 203,241.5C 202.5,228.504 202.333,215.504 202.5,202.5C 197.07,202.839 191.736,202.339 186.5,201C 181.167,196.333 181.167,191.667 186.5,187C 191.736,185.661 197.07,185.161 202.5,185.5C 202.149,179.738 202.649,174.072 204,168.5C 205.5,166.531 207.333,165.198 209.5,164.5 Z"/></g>
<g><path style="opacity:0.651" fill="#a6a6a6" d="M 432.5,174.5 C 432.5,200.833 432.5,227.167 432.5,253.5C 431.194,224.919 431.194,198.586 432.5,174.5 Z"/></g>
<g><path style="opacity:0.993" fill="#f2f2f2" d="M 194.5,257.5 C 195.167,257.5 195.5,257.833 195.5,258.5C 196.167,258.5 196.5,258.833 196.5,259.5C 198.758,265.356 199.092,271.356 197.5,277.5C 194.716,281.108 191.05,283.275 186.5,284C 171.934,285.729 157.934,283.729 144.5,278C 142.391,276.859 140.558,275.359 139,273.5C 138.5,285.495 138.333,297.495 138.5,309.5C 158.836,309.333 179.169,309.5 199.5,310C 211.021,312.523 217.188,319.69 218,331.5C 218.667,365.167 218.667,398.833 218,432.5C 215.12,449.016 205.287,455.85 188.5,453C 181.427,450.928 176.594,446.428 174,439.5C 172.525,411.564 172.025,383.564 172.5,355.5C 135.832,355.667 99.1652,355.5 62.5,355C 50.7312,353.731 44.0645,347.231 42.5,335.5C 43.8306,295.998 43.8306,256.331 42.5,216.5C 40.8551,217.036 40.5218,217.703 41.5,218.5C 37.8057,223.222 35.139,228.555 33.5,234.5C 34.4095,238.653 36.5761,241.986 40,244.5C 40.4998,255.495 40.6665,266.495 40.5,277.5C 38.5853,277.784 36.9187,277.451 35.5,276.5C 31.9175,273.584 27.5841,270.75 22.5,268C 18.6124,263.926 14.9457,260.426 11.5,257.5C 8.02618,253.547 5.85951,248.88 5,243.5C 2.72015,226.273 7.38681,211.273 19,198.5C 38.4856,178.024 62.3189,170.69 90.5,176.5C 105.857,176.438 121.191,176.938 136.5,178C 143.661,180.808 148.161,185.974 150,193.5C 151.202,207.476 152.202,221.476 153,235.5C 153.584,241.936 156.084,247.436 160.5,252C 162.788,252.822 165.122,253.489 167.5,254C 174.5,254.333 181.5,254.667 188.5,255C 190.628,255.655 192.628,256.489 194.5,257.5 Z"/></g>
<g><path style="opacity:0.733" fill="#969696" d="M 42.5,335.5 C 42.8319,296.33 42.4985,257.33 41.5,218.5C 40.5218,217.703 40.8551,217.036 42.5,216.5C 43.8306,256.331 43.8306,295.998 42.5,335.5 Z"/></g>
<g><path style="opacity:0.375" fill="#050505" d="M 166.5,249.5 C 166.167,250.167 165.833,250.833 165.5,251.5C 160.306,250.021 160.639,249.354 166.5,249.5 Z"/></g>
<g><path style="opacity:0.475" fill="#cbcbcb" d="M 35.5,276.5 C 25.1987,273.023 17.1987,266.689 11.5,257.5C 14.9457,260.426 18.6124,263.926 22.5,268C 27.5841,270.75 31.9175,273.584 35.5,276.5 Z"/></g>
<g><path style="opacity:0.78" fill="#8f8f8f" d="M 233.5,261.5 C 233.5,263.833 233.5,266.167 233.5,268.5C 239.5,268.5 245.5,268.5 251.5,268.5C 251.818,273.032 251.485,277.366 250.5,281.5C 250.5,277.5 250.5,273.5 250.5,269.5C 244.5,269.5 238.5,269.5 232.5,269.5C 232.16,266.028 232.493,263.361 233.5,261.5 Z"/></g>
<g><path style="opacity:0.671" fill="#a6a6a6" d="M 390.5,289.5 C 390.5,288.5 390.5,287.5 390.5,286.5C 386.5,286.5 382.5,286.5 378.5,286.5C 378.5,287.5 378.5,288.5 378.5,289.5C 377.566,288.432 377.232,287.099 377.5,285.5C 382.167,285.5 386.833,285.5 391.5,285.5C 391.768,287.099 391.434,288.432 390.5,289.5 Z"/></g>
<g><path style="opacity:0.954" fill="#f2f2f2" d="M -0.5,288.5 C 12.8375,288.333 26.1708,288.5 39.5,289C 40.4749,294.741 40.8082,300.575 40.5,306.5C 26.8333,306.5 13.1667,306.5 -0.5,306.5C -0.5,300.5 -0.5,294.5 -0.5,288.5 Z"/></g>
<g><path style="opacity:0.878" fill="#7d7d7d" d="M 310.5,289.5 C 254.669,290.499 198.669,290.832 142.5,290.5C 142.5,295.833 142.5,301.167 142.5,306.5C 141.511,301.025 141.178,295.358 141.5,289.5C 197.833,289.5 254.167,289.5 310.5,289.5 Z"/></g>
<g><path style="opacity:0.996" fill="#f2f2f2" d="M 310.5,289.5 C 311.489,294.975 311.822,300.642 311.5,306.5C 255.167,306.5 198.833,306.5 142.5,306.5C 142.5,301.167 142.5,295.833 142.5,290.5C 198.669,290.832 254.669,290.499 310.5,289.5 Z"/></g>
<g><path style="opacity:0.995" fill="#f3f3f3" d="M 62.5,357.5 C 94.76,358.499 127.76,358.833 161.5,358.5C 161.168,390.004 161.502,421.338 162.5,452.5C 162.141,454.371 161.141,455.871 159.5,457C 124.998,457.831 90.6642,457.664 56.5,456.5C 56.9382,456.565 57.2716,456.399 57.5,456C 55.9586,454.23 54.6252,453.063 53.5,452.5C 52.5017,420.004 52.1684,387.338 52.5,354.5C 56.0477,355.13 59.3811,356.13 62.5,357.5 Z"/></g>
<g><path style="opacity:0.804" fill="#8a8a8a" d="M 62.5,357.5 C 95.8333,357.5 129.167,357.5 162.5,357.5C 162.5,389.167 162.5,420.833 162.5,452.5C 161.502,421.338 161.168,390.004 161.5,358.5C 127.76,358.833 94.76,358.499 62.5,357.5 Z"/></g>
<g><path style="opacity:0.114" fill="#a4a4a4" d="M 56.5,456.5 C 54.7376,455.738 53.7376,454.404 53.5,452.5C 54.6252,453.063 55.9586,454.23 57.5,456C 57.2716,456.399 56.9382,456.565 56.5,456.5 Z"/></g>
</svg>
