<?xml version="1.0" encoding="UTF-8"?>
<!DOCTYPE svg PUBLIC "-//W3C//DTD SVG 1.1//EN" "http://www.w3.org/Graphics/SVG/1.1/DTD/svg11.dtd">
<svg xmlns="http://www.w3.org/2000/svg" version="1.1" width="400px" height="530px" style="shape-rendering:geometricPrecision; text-rendering:geometricPrecision; image-rendering:optimizeQuality; fill-rule:evenodd; clip-rule:evenodd" xmlns:xlink="http://www.w3.org/1999/xlink">
<g><path style="opacity:1" fill="#eaebea" d="M 172.5,-0.5 C 175.167,-0.5 177.833,-0.5 180.5,-0.5C 184.016,4.3971 188.683,5.73043 194.5,3.5C 201.225,5.5025 207.892,7.5025 214.5,9.5C 215.244,12.443 215.744,15.443 216,18.5C 217.908,21.2154 219.241,24.2154 220,27.5C 227.893,33.972 229.227,41.6387 224,50.5C 225.282,58.3411 222.949,64.6745 217,69.5C 215.734,72.4662 214.567,75.4662 213.5,78.5C 210.123,79.2709 207.289,80.9376 205,83.5C 204.199,87.1935 203.032,90.6935 201.5,94C 197.823,94.1078 194.157,94.1078 190.5,94C 185.633,96.1665 180.8,98.3331 176,100.5C 176.478,116.376 169.978,128.543 156.5,137C 153.627,140.577 151.127,144.411 149,148.5C 146.828,149.585 144.828,150.919 143,152.5C 141.621,161.924 140.788,171.424 140.5,181C 142.976,189.16 141.809,196.66 137,203.5C 136.579,207.872 135.912,212.205 135,216.5C 133.15,219.677 131.317,222.843 129.5,226C 130.232,230.65 130.899,235.316 131.5,240C 130.673,243.488 129.173,246.654 127,249.5C 126.246,254.43 125.079,259.263 123.5,264C 126.695,270.319 126.028,276.152 121.5,281.5C 122.833,285.833 122.833,290.167 121.5,294.5C 122.167,295.167 122.833,295.833 123.5,296.5C 121.198,300.633 118.698,304.633 116,308.5C 115.254,319.576 113.921,330.576 112,341.5C 111,342.833 110,344.167 109,345.5C 108.534,350.898 106.867,355.898 104,360.5C 103.79,366.231 103.124,371.897 102,377.5C 97.4194,385.587 93.4194,393.92 90,402.5C 91.5783,410.52 89.5783,417.52 84,423.5C 83.8813,431.523 81.548,438.857 77,445.5C 76.1368,448.269 75.6368,451.102 75.5,454C 76.2917,458.157 76.4583,462.323 76,466.5C 72.4894,469.365 71.656,472.865 73.5,477C 72.6813,480.176 71.348,483.176 69.5,486C 70.4091,487.789 70.5758,489.623 70,491.5C 68.7604,494.412 67.0937,497.079 65,499.5C 64.2208,506.081 62.5542,512.414 60,518.5C 57.5398,521.125 55.7064,524.125 54.5,527.5C 48.5556,530.094 45.5556,528.261 45.5,522C 44.4078,517.482 44.4078,512.982 45.5,508.5C 43.1757,499.329 42.0091,489.995 42,480.5C 38.3101,470.553 36.6435,460.22 37,449.5C 34.2774,446.443 31.944,443.11 30,439.5C 28.7322,434.363 27.0656,429.363 25,424.5C 24.3333,419.833 23.6667,415.167 23,410.5C 14.6642,393.838 10.6642,376.172 11,357.5C 9.4211,353.345 7.58777,349.345 5.5,345.5C 8.54321,336.955 14.2099,330.789 22.5,327C 25.7405,322.035 29.5738,317.535 34,313.5C 36.9193,307.323 40.5859,301.656 45,296.5C 48.1947,287.115 53.1947,278.782 60,271.5C 62.5539,264.724 65.8873,258.391 70,252.5C 71.119,247.851 72.619,243.351 74.5,239C 72.6612,229.612 73.4945,220.445 77,211.5C 77.3333,208.167 77.6667,204.833 78,201.5C 79.5862,199.33 80.9196,196.996 82,194.5C 81.6428,178.554 87.3095,165.22 99,154.5C 100.09,150.223 101.757,146.223 104,142.5C 109.591,138.914 114.591,134.58 119,129.5C 122.178,123.134 125.844,117.134 130,111.5C 132.682,108.65 135.516,105.984 138.5,103.5C 139.982,99.6504 140.816,95.6504 141,91.5C 142.271,88.5674 143.938,85.9007 146,83.5C 146.833,77.8329 147.667,72.1662 148.5,66.5C 146.445,59.6893 147.278,53.3559 151,47.5C 152.458,45.04 154.291,42.8734 156.5,41C 161.518,39.7734 166.185,37.7734 170.5,35C 174.362,30.7714 177.862,26.2714 181,21.5C 181.667,19.1667 181.667,16.8333 181,14.5C 176.947,12.1133 173.947,8.77999 172,4.5C 171.36,2.73498 171.527,1.06831 172.5,-0.5 Z"/></g>
<g><path style="opacity:0.936" fill="#eaeaea" d="M 291.5,198.5 C 305.101,198.448 318.434,200.282 331.5,204C 340.387,206.853 347.553,212.019 353,219.5C 354.277,232.431 354.943,245.431 355,258.5C 385.9,269.291 399.233,290.958 395,323.5C 385.343,353.925 364.51,367.759 332.5,365C 329.373,364.608 326.373,363.775 323.5,362.5C 307.616,365.853 291.616,366.353 275.5,364C 264.411,362.284 254.411,358.117 245.5,351.5C 234.506,359.445 222.173,363.945 208.5,365C 191.459,366.798 174.792,365.131 158.5,360C 148.135,356.966 140.968,350.466 137,340.5C 136.333,316.167 136.333,291.833 137,267.5C 138.239,262.259 141.072,258.092 145.5,255C 156.744,247.77 169.078,243.77 182.5,243C 196.667,241.793 210.667,242.793 224.5,246C 229.185,247.428 233.685,249.261 238,251.5C 232.107,226.426 241.273,210.26 265.5,203C 274.181,200.721 282.847,199.221 291.5,198.5 Z M 292.5,212.5 C 308.475,212.126 323.475,215.626 337.5,223C 339.625,224.737 340.458,226.904 340,229.5C 337.861,232.001 335.361,234.168 332.5,236C 309.631,244.279 286.631,244.612 263.5,237C 258.835,235.174 255.168,232.174 252.5,228C 256.4,222.373 261.733,218.706 268.5,217C 276.541,214.941 284.541,213.441 292.5,212.5 Z M 252.5,247.5 C 266.482,254.397 281.315,257.397 297,256.5C 311.796,257.107 325.963,254.441 339.5,248.5C 339.833,249 340.167,249.5 340.5,250C 338.456,253.71 335.456,256.376 331.5,258C 309.287,266.27 286.954,266.603 264.5,259C 261.339,257.587 258.339,255.92 255.5,254C 253.549,252.266 252.549,250.099 252.5,247.5 Z M 184.5,256.5 C 197.015,255.849 209.348,257.016 221.5,260C 227.998,261.497 233.498,264.663 238,269.5C 238.746,272.789 237.58,275.289 234.5,277C 213.292,287.171 191.292,289.171 168.5,283C 163.125,281.432 158.125,279.099 153.5,276C 150.648,273.847 150.148,271.347 152,268.5C 155.081,265.707 158.581,263.54 162.5,262C 169.823,259.575 177.157,257.742 184.5,256.5 Z M 252.5,269.5 C 267.081,275.988 282.414,279.155 298.5,279C 296.968,281.034 295.635,283.201 294.5,285.5C 280.221,286.639 267.055,283.305 255,275.5C 253.441,273.783 252.608,271.783 252.5,269.5 Z M 336.5,271.5 C 363.3,271.633 378.634,284.966 382.5,311.5C 377.78,341.389 360.446,354.222 330.5,350C 312.753,343.401 303.087,330.567 301.5,311.5C 304.034,289.977 315.701,276.644 336.5,271.5 Z M 150.5,291.5 C 172.778,300.725 195.778,302.892 219.5,298C 226.038,296.821 232.205,294.654 238,291.5C 238.458,294.096 237.625,296.263 235.5,298C 212.279,309.811 188.279,311.478 163.5,303C 160.006,301.421 156.673,299.587 153.5,297.5C 151.962,295.757 150.962,293.757 150.5,291.5 Z M 252.5,291.5 C 263.966,296.528 275.966,299.528 288.5,300.5C 288.5,302.833 288.5,305.167 288.5,307.5C 276.5,307.388 265.5,304.055 255.5,297.5C 253.962,295.757 252.962,293.757 252.5,291.5 Z M 339.5,295.5 C 341.467,295.261 343.301,295.594 345,296.5C 345.942,299.443 347.108,302.276 348.5,305C 344.95,305.129 341.617,304.295 338.5,302.5C 337.073,299.884 337.406,297.551 339.5,295.5 Z M 150.5,313.5 C 179.503,325.459 208.503,325.459 237.5,313.5C 238.578,315.475 238.245,317.308 236.5,319C 223.648,326.88 209.648,330.38 194.5,329.5C 180.75,330.05 167.75,327.217 155.5,321C 152.8,319.143 151.134,316.643 150.5,313.5 Z M 252.5,313.5 C 264.028,318.274 276.028,321.274 288.5,322.5C 291.889,328.759 289.889,330.925 282.5,329C 273.712,327.737 265.379,325.071 257.5,321C 254.8,319.143 253.134,316.643 252.5,313.5 Z M 334.5,318.5 C 334.56,317.957 334.893,317.624 335.5,317.5C 338.5,318.167 341.5,318.833 344.5,319.5C 347.888,325.286 346.221,327.786 339.5,327C 337.926,325.174 337.093,323.007 337,320.5C 336.292,319.619 335.458,318.953 334.5,318.5 Z M 150.5,334.5 C 164.324,341.332 178.991,344.332 194.5,343.5C 209.504,344.357 223.838,341.69 237.5,335.5C 237.833,336 238.167,336.5 238.5,337C 234.392,342.899 228.725,346.565 221.5,348C 202.405,352.913 183.405,352.579 164.5,347C 159.919,345.129 155.752,342.629 152,339.5C 150.991,337.975 150.491,336.308 150.5,334.5 Z M 252.5,334.5 C 266.99,341.418 282.324,344.584 298.5,344C 300.126,346.628 302.126,348.961 304.5,351C 287.537,352.951 271.537,349.951 256.5,342C 253.976,340.117 252.642,337.617 252.5,334.5 Z"/></g>
<g><path style="opacity:0.923" fill="#eaeaea" d="M 338.5,275.5 C 344.054,274.102 347.554,276.102 349,281.5C 358.014,286.194 361.68,293.527 360,303.5C 357.772,305.968 354.938,307.135 351.5,307C 360.374,313.113 362.874,321.28 359,331.5C 356.333,335.5 353,338.833 349,341.5C 347.48,348.009 343.647,349.842 337.5,347C 335.996,345.509 335.163,343.676 335,341.5C 328.116,337.801 324.283,332.135 323.5,324.5C 323.368,318.467 326.368,315.633 332.5,316C 323.157,309.093 320.99,300.259 326,289.5C 328.703,286.462 331.703,283.795 335,281.5C 335.564,279.113 336.73,277.113 338.5,275.5 Z M 339.5,295.5 C 337.406,297.551 337.073,299.884 338.5,302.5C 341.617,304.295 344.95,305.129 348.5,305C 347.108,302.276 345.942,299.443 345,296.5C 343.301,295.594 341.467,295.261 339.5,295.5 Z M 334.5,318.5 C 335.458,318.953 336.292,319.619 337,320.5C 337.093,323.007 337.926,325.174 339.5,327C 346.221,327.786 347.888,325.286 344.5,319.5C 341.5,318.833 338.5,318.167 335.5,317.5C 334.893,317.624 334.56,317.957 334.5,318.5 Z"/></g>
</svg>
