<?xml version="1.0" encoding="UTF-8"?>
<!DOCTYPE svg PUBLIC "-//W3C//DTD SVG 1.1//EN" "http://www.w3.org/Graphics/SVG/1.1/DTD/svg11.dtd">
<svg xmlns="http://www.w3.org/2000/svg" version="1.1" width="460px" height="460px" style="shape-rendering:geometricPrecision; text-rendering:geometricPrecision; image-rendering:optimizeQuality; fill-rule:evenodd; clip-rule:evenodd" xmlns:xlink="http://www.w3.org/1999/xlink">
<g><path style="opacity:0.967" fill="#e7e7e7" d="M 71.5,28.5 C 76.7389,27.9588 80.5723,29.9588 83,34.5C 83.5,87.8323 83.6667,141.166 83.5,194.5C 94.0821,194.18 104.582,194.513 115,195.5C 115.667,215.833 115.667,236.167 115,256.5C 109.451,281.06 94.2846,294.56 69.5,297C 49.4031,289.575 37.2364,275.408 33,254.5C 32.3333,234.833 32.3333,215.167 33,195.5C 43.4179,194.513 53.9179,194.18 64.5,194.5C 64.3333,141.499 64.5,88.499 65,35.5C 65.9914,32.0107 68.158,29.6774 71.5,28.5 Z"/></g>
<g><path style="opacity:0.949" fill="#e7e7e7" d="M 360.5,99.5 C 385.167,102.157 396,115.824 393,140.5C 390.363,148.269 385.863,154.769 379.5,160C 382.197,165.895 385.031,171.728 388,177.5C 388.667,179.167 388.667,180.833 388,182.5C 385.358,184.238 382.525,185.571 379.5,186.5C 377.971,186.471 376.804,185.804 376,184.5C 363.697,159.394 351.53,134.228 339.5,109C 341.355,106.057 344.021,104.057 347.5,103C 351.86,101.417 356.194,100.25 360.5,99.5 Z"/></g>
<g><path style="opacity:0.978" fill="#e7e7e7" d="M 244.5,107.5 C 266.941,107.48 286.941,114.313 304.5,128C 315.176,140.012 317.343,153.512 311,168.5C 299.833,184.833 288.667,201.167 277.5,217.5C 288.453,229.955 299.953,241.955 312,253.5C 316.915,264.696 314.082,273.196 303.5,279C 298.382,279.888 293.382,279.555 288.5,278C 272.721,262.221 256.887,246.387 241,230.5C 239.508,225.589 239.174,220.589 240,215.5C 247.128,204.075 254.628,192.908 262.5,182C 240.861,177.059 223.361,183.559 210,201.5C 207.006,206.816 205.006,212.482 204,218.5C 203.667,258.167 203.333,297.833 203,337.5C 197.147,351.513 186.647,357.347 171.5,355C 159.884,351.386 153.384,343.553 152,331.5C 151.333,287.833 151.333,244.167 152,200.5C 155.05,158.788 175.883,129.955 214.5,114C 224.381,110.593 234.381,108.426 244.5,107.5 Z"/></g>
<g><path style="opacity:0.944" fill="#e7e7e7" d="M 331.5,110.5 C 333.144,110.286 334.644,110.62 336,111.5C 344.939,129.044 353.605,146.71 362,164.5C 362.684,165.784 362.517,166.951 361.5,168C 344.412,174.302 330.578,170.135 320,155.5C 311.908,137.346 315.741,122.346 331.5,110.5 Z"/></g>
<g><path style="opacity:0.949" fill="#e7e7e7" d="M -0.5,429.5 C -0.5,423.167 -0.5,416.833 -0.5,410.5C 36.9327,371.837 74.266,333.004 111.5,294C 120.095,290.629 125.095,293.462 126.5,302.5C 126.705,305.229 125.872,307.562 124,309.5C 85.7181,349.237 47.5514,389.071 9.5,429C 6.21133,430.695 2.878,430.862 -0.5,429.5 Z"/></g>
<g><path style="opacity:0.95" fill="#e7e7e7" d="M 459.5,410.5 C 459.5,416.833 459.5,423.167 459.5,429.5C 456.122,430.862 452.789,430.695 449.5,429C 410.667,388.833 371.833,348.667 333,308.5C 328.92,299.62 331.586,294.287 341,292.5C 342.967,292.542 344.801,293.042 346.5,294C 384.034,333.033 421.7,371.866 459.5,410.5 Z"/></g>
<g><path style="opacity:0.935" fill="#e7e7e7" d="M 261.5,293.5 C 266.347,292.84 270.181,294.507 273,298.5C 287.803,339.075 302.303,379.742 316.5,420.5C 315.419,428.046 311.086,431.212 303.5,430C 301.376,428.878 299.543,427.378 298,425.5C 283.197,384.925 268.697,344.258 254.5,303.5C 254.898,298.673 257.231,295.339 261.5,293.5 Z"/></g>
<g><path style="opacity:0.935" fill="#e7e7e7" d="M 297.5,293.5 C 302.74,292.538 306.907,294.205 310,298.5C 336.333,337.5 362.667,376.5 389,415.5C 391.321,420.876 390.154,425.376 385.5,429C 379.441,431.732 374.608,430.232 371,424.5C 345.247,385.994 319.247,347.66 293,309.5C 289.994,302.771 291.494,297.438 297.5,293.5 Z"/></g>
<g><path style="opacity:0.941" fill="#e7e7e7" d="M 225.5,294.5 C 232.115,293.055 236.615,295.389 239,301.5C 239.667,342.167 239.667,382.833 239,423.5C 235.865,429.989 231.032,431.823 224.5,429C 222.19,427.363 220.69,425.196 220,422.5C 219.333,382.167 219.333,341.833 220,301.5C 220.938,298.402 222.772,296.069 225.5,294.5 Z"/></g>
<g><path style="opacity:0.931" fill="#e7e7e7" d="M 139.5,312.5 C 140.822,312.33 141.989,312.663 143,313.5C 143.446,322.871 143.78,332.205 144,341.5C 124.538,370.926 104.704,400.093 84.5,429C 72.084,431.583 67.584,426.75 71,414.5C 94.0913,380.644 116.925,346.644 139.5,312.5 Z"/></g>
<g><path style="opacity:0.928" fill="#e7e7e7" d="M 164.5,362.5 C 170.156,363.331 175.823,364.165 181.5,365C 182.576,366.726 182.743,368.559 182,370.5C 175.53,388.91 168.864,407.243 162,425.5C 155.079,432.567 149.079,431.9 144,423.5C 143.333,421.5 143.333,419.5 144,417.5C 150.35,398.945 157.184,380.611 164.5,362.5 Z"/></g>
</svg>
