<?xml version="1.0" encoding="UTF-8"?>
<!DOCTYPE svg PUBLIC "-//W3C//DTD SVG 1.1//EN" "http://www.w3.org/Graphics/SVG/1.1/DTD/svg11.dtd">
<svg xmlns="http://www.w3.org/2000/svg" version="1.1" width="460px" height="460px" style="shape-rendering:geometricPrecision; text-rendering:geometricPrecision; image-rendering:optimizeQuality; fill-rule:evenodd; clip-rule:evenodd" xmlns:xlink="http://www.w3.org/1999/xlink">
<g><path style="opacity:0.983" fill="#f3f4f5" d="M 226.5,-0.5 C 228.5,-0.5 230.5,-0.5 232.5,-0.5C 234.291,0.391268 236.124,1.39127 238,2.5C 253.333,33.1667 268.667,63.8333 284,94.5C 284.667,98.1667 284.667,101.833 284,105.5C 283.167,107.667 281.667,109.167 279.5,110C 246.167,110.667 212.833,110.667 179.5,110C 175.463,107.925 173.796,104.592 174.5,100C 174.667,98.1667 174.833,96.3333 175,94.5C 190.333,63.8333 205.667,33.1667 221,2.5C 222.876,1.39127 224.709,0.391268 226.5,-0.5 Z"/></g>
<g><path style="opacity:0.994" fill="#f3f4f5" d="M 160.5,125.5 C 206.501,125.333 252.501,125.5 298.5,126C 313.638,153.775 328.138,181.942 342,210.5C 342.867,214.956 342.534,219.289 341,223.5C 340.097,224.701 338.931,225.535 337.5,226C 264.752,226.993 192.085,226.66 119.5,225C 118.299,224.097 117.465,222.931 117,221.5C 116.333,217.833 116.333,214.167 117,210.5C 131.002,181.827 145.502,153.494 160.5,125.5 Z"/></g>
<g><path style="opacity:0.996" fill="#f3f4f5" d="M 103.5,241.5 C 187.501,241.333 271.501,241.5 355.5,242C 356.931,242.465 358.097,243.299 359,244.5C 372.667,271.833 386.333,299.167 400,326.5C 400.667,330.5 400.667,334.5 400,338.5C 398.833,339.667 397.667,340.833 396.5,342C 285.167,342.667 173.833,342.667 62.5,342C 61.3333,340.833 60.1667,339.667 59,338.5C 58.3333,334.5 58.3333,330.5 59,326.5C 72.6667,299.167 86.3333,271.833 100,244.5C 101.145,243.364 102.312,242.364 103.5,241.5 Z"/></g>
<g><path style="opacity:0.997" fill="#f3f4f5" d="M 459.5,446.5 C 459.5,448.167 459.5,449.833 459.5,451.5C 457.833,455.167 455.167,457.833 451.5,459.5C 303.5,459.5 155.5,459.5 7.5,459.5C 3.83333,457.833 1.16667,455.167 -0.5,451.5C -0.5,449.833 -0.5,448.167 -0.5,446.5C 13.3433,417.812 27.51,389.145 42,360.5C 42.9025,359.299 44.0692,358.465 45.5,358C 168.167,357.333 290.833,357.333 413.5,358C 414.931,358.465 416.097,359.299 417,360.5C 431.49,389.145 445.657,417.812 459.5,446.5 Z"/></g>
</svg>
