<?xml version="1.0" encoding="UTF-8"?>
<!DOCTYPE svg PUBLIC "-//W3C//DTD SVG 1.1//EN" "http://www.w3.org/Graphics/SVG/1.1/DTD/svg11.dtd">
<svg xmlns="http://www.w3.org/2000/svg" version="1.1" width="410px" height="425px" style="shape-rendering:geometricPrecision; text-rendering:geometricPrecision; image-rendering:optimizeQuality; fill-rule:evenodd; clip-rule:evenodd" xmlns:xlink="http://www.w3.org/1999/xlink">
<g><path style="opacity:0.942" fill="#f4f4f4" d="M 107.5,-0.5 C 109.833,-0.5 112.167,-0.5 114.5,-0.5C 124.223,17.2743 134.223,34.941 144.5,52.5C 166.398,53.1718 188.232,53.8385 210,54.5C 209.914,57.7025 208.914,60.7025 207,63.5C 197.626,79.7489 188.126,95.9156 178.5,112C 190.346,131.356 201.679,151.023 212.5,171C 212.355,171.772 212.022,172.439 211.5,173C 188.493,173.167 165.493,173.667 142.5,174.5C 132.8,191.038 123.3,207.705 114,224.5C 111,229.833 108,229.833 105,224.5C 95.7,207.705 86.2,191.038 76.5,174.5C 54.5076,173.667 32.5076,173.167 10.5,173C 9.97814,172.439 9.6448,171.772 9.5,171C 20.0331,152.102 30.6998,133.268 41.5,114.5C 31.5331,96.7043 21.3665,79.0376 11,61.5C 9.41006,59.3502 8.74339,57.0168 9,54.5C 31.768,53.8382 54.6014,53.1716 77.5,52.5C 87.7771,34.941 97.7771,17.2743 107.5,-0.5 Z M 110.5,29.5 C 115.392,36.9364 120.059,44.603 124.5,52.5C 115.5,53.8333 106.5,53.8333 97.5,52.5C 102.098,44.9682 106.432,37.3015 110.5,29.5 Z M 36.5,69.5 C 46.8387,69.3335 57.172,69.5002 67.5,70C 62.2072,78.7512 57.0405,87.5846 52,96.5C 46.1783,87.8525 41.0117,78.8525 36.5,69.5 Z M 87.5,69.5 C 103.17,69.3334 118.837,69.5001 134.5,70C 141.793,82.0844 148.959,94.251 156,106.5C 157.59,108.65 158.257,110.983 158,113.5C 150.033,127.63 141.866,141.63 133.5,155.5C 117.5,156.833 101.5,156.833 85.5,155.5C 77.866,142.037 70.0327,128.703 62,115.5C 70.1775,100.159 78.6775,84.8258 87.5,69.5 Z M 154.5,70.5 C 163.991,69.342 173.658,69.1754 183.5,70C 178.541,78.0842 173.707,86.2509 169,94.5C 164.392,86.2703 159.559,78.2703 154.5,70.5 Z M 168.5,129.5 C 173.933,138.187 179.267,147.02 184.5,156C 174.151,156.832 163.817,156.666 153.5,155.5C 158.528,146.816 163.528,138.15 168.5,129.5 Z M 51.5,132.5 C 56.3922,139.936 61.0589,147.603 65.5,155.5C 56.1845,156.665 46.8511,156.832 37.5,156C 42.304,148.222 46.9706,140.388 51.5,132.5 Z M 96.5,173.5 C 105.192,173.169 113.859,173.502 122.5,174.5C 118.671,182.163 114.337,189.496 109.5,196.5C 104.383,189.265 100.05,181.599 96.5,173.5 Z"/></g>
<g><path style="opacity:0.962" fill="#f4f4f4" d="M 409.5,110.5 C 409.5,121.5 409.5,132.5 409.5,143.5C 401.349,178.158 380.349,201.325 346.5,213C 308.669,222.277 276.836,212.443 251,183.5C 230.438,155.568 226.105,125.235 238,92.5C 256.786,53.3492 287.953,35.1825 331.5,38C 365.404,43.2402 389.571,61.4069 404,92.5C 406.168,98.5308 408.001,104.531 409.5,110.5 Z M 252.5,93.5 C 263.392,71.7924 280.725,57.9591 304.5,52C 346.275,46.1317 375.775,62.2984 393,100.5C 397.654,113.896 398.654,127.562 396,141.5C 385.784,164.688 368.617,172.188 344.5,164C 332.468,158.285 325.301,148.785 323,135.5C 322.15,97.2981 302.983,80.7981 265.5,86C 260.812,88.0065 256.479,90.5065 252.5,93.5 Z M 278.5,115.5 C 287.84,116.335 291.674,121.335 290,130.5C 286.252,136.542 281.085,138.042 274.5,135C 267.413,126.763 268.746,120.263 278.5,115.5 Z"/></g>
<g><path style="opacity:0.921" fill="#f4f4f4" d="M 356.5,112.5 C 370.652,111.151 376.819,117.485 375,131.5C 370.461,139.905 363.628,142.405 354.5,139C 347.636,133.954 345.803,127.454 349,119.5C 351.015,116.588 353.515,114.255 356.5,112.5 Z"/></g>
<g><path style="opacity:0.961" fill="#f4f4f4" d="M -0.5,295.5 C -0.5,293.167 -0.5,290.833 -0.5,288.5C 16.0961,282.801 32.5961,276.801 49,270.5C 44.4614,255.392 39.2947,240.392 33.5,225.5C 33.5288,223.971 34.1955,222.804 35.5,222C 44.0632,218.552 52.7298,215.385 61.5,212.5C 62.4419,212.608 63.2753,212.941 64,213.5C 68.6667,226.167 73.3333,238.833 78,251.5C 78.7824,254.216 80.1157,256.55 82,258.5C 99.1337,252.067 116.3,245.733 133.5,239.5C 134.442,239.608 135.275,239.941 136,240.5C 139.167,249.333 142.333,258.167 145.5,267C 145.241,268.261 144.574,269.261 143.5,270C 126.166,276.106 109.166,282.772 92.5,290C 107.07,329.877 121.737,369.711 136.5,409.5C 136.41,411.425 135.41,412.592 133.5,413C 125.395,416.035 117.228,418.868 109,421.5C 106.249,421.054 104.582,419.387 104,416.5C 89.9815,377.606 75.4815,338.939 60.5,300.5C 44.1778,306.996 27.6778,312.996 11,318.5C 9.8926,318.415 8.8926,318.081 8,317.5C 5.43294,309.95 2.59961,302.616 -0.5,295.5 Z"/></g>
<g><path style="opacity:0.955" fill="#f4f4f4" d="M 306.5,424.5 C 291.5,424.5 276.5,424.5 261.5,424.5C 226.435,414.607 202.268,392.607 189,358.5C 185.332,347.679 184.165,336.679 185.5,325.5C 186.167,325.5 186.833,325.5 187.5,325.5C 191.625,340.416 198.458,354.083 208,366.5C 234.273,393.109 265.106,400.276 300.5,388C 340.085,368.665 356.252,337.165 349,293.5C 338.993,260.492 317.16,240.325 283.5,233C 282.944,232.617 282.611,232.117 282.5,231.5C 282.5,230.833 282.5,230.167 282.5,229.5C 321.976,228.823 351.809,245.49 372,279.5C 383.134,300.976 386.467,323.643 382,347.5C 371.725,387.94 346.558,413.607 306.5,424.5 Z"/></g>
<g><path style="opacity:0.309" fill="#000000" d="M 282.5,229.5 C 282.5,230.167 282.5,230.833 282.5,231.5C 274.652,230.251 274.652,229.585 282.5,229.5 Z"/></g>
<g><path style="opacity:0.931" fill="#f4f4f4" d="M 268.5,258.5 C 269.822,258.33 270.989,258.663 272,259.5C 272.167,261.333 272.333,263.167 272.5,265C 271.741,272.526 271.241,280.026 271,287.5C 278.736,290.858 286.57,294.024 294.5,297C 297.346,297.879 298.013,299.546 296.5,302C 287.234,304.251 278.067,306.751 269,309.5C 268.422,318.84 267.755,328.173 267,337.5C 265.667,338.833 264.333,338.833 263,337.5C 258.396,329.234 253.396,321.234 248,313.5C 239.638,316.216 231.138,318.55 222.5,320.5C 221.558,320.392 220.725,320.059 220,319.5C 219.582,317.212 220.249,315.212 222,313.5C 227.167,307.667 232.333,301.833 237.5,296C 233.125,288.749 228.625,281.582 224,274.5C 223.506,272.866 223.34,271.199 223.5,269.5C 232.762,271.957 241.762,275.291 250.5,279.5C 257.208,273.068 263.208,266.068 268.5,258.5 Z"/></g>
<g><path style="opacity:0.224" fill="#000000" d="M 187.5,325.5 C 186.833,325.5 186.167,325.5 185.5,325.5C 185.706,317.699 186.372,317.699 187.5,325.5 Z"/></g>
</svg>
