<?xml version="1.0" encoding="UTF-8"?>
<!DOCTYPE svg PUBLIC "-//W3C//DTD SVG 1.1//EN" "http://www.w3.org/Graphics/SVG/1.1/DTD/svg11.dtd">
<svg xmlns="http://www.w3.org/2000/svg" version="1.1" width="1571px" height="1571px" style="shape-rendering:geometricPrecision; text-rendering:geometricPrecision; image-rendering:optimizeQuality; fill-rule:evenodd; clip-rule:evenodd" xmlns:xlink="http://www.w3.org/1999/xlink">
<g><path style="opacity:0.986" fill="#fefffe" d="M 781.5,-0.5 C 783.5,-0.5 785.5,-0.5 787.5,-0.5C 791.765,7.66798 797.265,15.0013 804,21.5C 807.394,25.8981 810.394,30.5648 813,35.5C 816.164,47.4521 816.331,59.4521 813.5,71.5C 837.388,65.0246 852.554,73.6913 859,97.5C 862.428,117.455 856.261,133.621 840.5,146C 836.105,148.521 831.438,150.354 826.5,151.5C 824.734,151.566 823.734,150.732 823.5,149C 825.758,143.984 827.591,138.817 829,133.5C 830.808,122.881 826.642,119.381 816.5,123C 810.312,130.727 806.979,139.56 806.5,149.5C 808.527,149.338 810.527,149.505 812.5,150C 816.527,153.615 819.36,157.782 821,162.5C 819.039,165.463 816.706,168.129 814,170.5C 813.312,171.332 813.479,171.998 814.5,172.5C 828.248,177.971 841.914,183.638 855.5,189.5C 861.014,175.577 871.014,170.41 885.5,174C 889.595,176.259 893.262,179.093 896.5,182.5C 905.168,169.333 916.501,166.5 930.5,174C 939.693,183.098 941.859,193.598 937,205.5C 939.08,207.993 940.914,210.659 942.5,213.5C 945.495,214.521 948.495,215.021 951.5,215C 942.422,201.547 944.088,189.547 956.5,179C 976.064,172.422 987.397,179.255 990.5,199.5C 990.492,208.684 986.492,215.518 978.5,220C 985.474,222.332 992.641,224.165 1000,225.5C 1000.5,225.167 1001,224.833 1001.5,224.5C 994.154,204.853 1000.65,192.853 1021,188.5C 1041.02,193.21 1047.36,205.21 1040,224.5C 1037.45,228.719 1033.95,231.886 1029.5,234C 1034.73,235.616 1039.73,237.783 1044.5,240.5C 1041.98,227.413 1046.31,217.247 1057.5,210C 1076.09,205.457 1086.75,212.623 1089.5,231.5C 1088.55,243.626 1082.21,251.459 1070.5,255C 1077.77,259.219 1084.61,264.052 1091,269.5C 1088.82,257.054 1093.32,247.887 1104.5,242C 1122.62,237.954 1132.95,245.121 1135.5,263.5C 1134.42,279.041 1126.09,286.874 1110.5,287C 1115.36,292.563 1119.86,298.396 1124,304.5C 1129.3,283.097 1141.8,277.264 1161.5,287C 1172.7,300.301 1172.04,312.968 1159.5,325C 1151.73,329.462 1143.9,329.629 1136,325.5C 1138.85,333.71 1141.51,342.044 1144,350.5C 1153.01,338.87 1163.84,336.703 1176.5,344C 1179.76,346.592 1182.26,349.759 1184,353.5C 1188.57,368.177 1184.07,378.677 1170.5,385C 1163.05,387.309 1156.22,386.143 1150,381.5C 1149.95,390.464 1149.11,399.298 1147.5,408C 1157.27,406.749 1167.1,405.582 1177,404.5C 1178.83,404.667 1180.67,404.833 1182.5,405C 1183.02,405.561 1183.36,406.228 1183.5,407C 1164.69,428.487 1148.19,451.654 1134,476.5C 1117.63,499.4 1102.13,522.9 1087.5,547C 1091.79,552.357 1091.45,557.357 1086.5,562C 1081.8,563.038 1077.47,562.205 1073.5,559.5C 1069.78,565.33 1071.45,568.497 1078.5,569C 1080.54,571.185 1081.87,573.685 1082.5,576.5C 1083.82,576.33 1084.99,576.663 1086,577.5C 1089.13,582.895 1089.13,588.229 1086,593.5C 1081.58,595.977 1077.42,598.81 1073.5,602C 1069.14,601.998 1064.81,601.498 1060.5,600.5C 1060.51,602.308 1060.01,603.975 1059,605.5C 1047.28,620.504 1042.11,637.504 1043.5,656.5C 1049.52,657.135 1055.52,657.969 1061.5,659C 1073.47,672.739 1072.13,684.739 1057.5,695C 1095.4,695.17 1133.24,695.67 1171,696.5C 1171.67,900.5 1171.67,1104.5 1171,1308.5C 1166.17,1370.37 1137.33,1417.21 1084.5,1449C 1032.31,1476.45 977.309,1496.29 919.5,1508.5C 917.626,1508.61 916.126,1507.94 915,1506.5C 896.545,1512.93 878.045,1519.26 859.5,1525.5C 859.67,1526.82 859.337,1527.99 858.5,1529C 833.255,1541.54 808.422,1554.7 784,1568.5C 760.073,1554.45 735.573,1541.28 710.5,1529C 709.663,1527.99 709.33,1526.82 709.5,1525.5C 705.812,1524.83 702.145,1523.99 698.5,1523C 685.956,1516.71 672.789,1512.21 659,1509.5C 566.687,1509.17 491.021,1473.84 432,1403.5C 411.801,1376.58 400.468,1346.25 398,1312.5C 397.333,1107.17 397.333,901.833 398,696.5C 435.762,695.67 473.595,695.17 511.5,695C 507.385,692.552 503.552,689.719 500,686.5C 498.517,683.298 498.183,679.964 499,676.5C 500.524,671.118 502.858,666.118 506,661.5C 508.409,659.401 511.076,657.734 514,656.5C 515.413,652.761 517.247,649.261 519.5,646C 517.432,634.227 513.598,623.06 508,612.5C 505.787,611.198 503.454,610.198 501,609.5C 500.503,607.19 500.337,604.857 500.5,602.5C 497.575,602.54 494.909,601.707 492.5,600C 488.136,597.65 484.302,594.484 481,590.5C 479.71,584.765 480.877,579.598 484.5,575C 485.793,574.51 487.127,574.343 488.5,574.5C 489.235,571.728 489.401,569.061 489,566.5C 490.584,565.139 492.418,564.472 494.5,564.5C 494.762,563.022 494.429,561.689 493.5,560.5C 488.285,563.448 483.452,563.114 479,559.5C 476.986,555.049 477.486,550.882 480.5,547C 465.709,521.245 449.542,496.412 432,472.5C 418.992,449.493 403.659,428.159 386,408.5C 385.316,407.216 385.483,406.049 386.5,405C 397.956,404.884 409.289,406.051 420.5,408.5C 419.501,399.84 418.501,391.174 417.5,382.5C 405.016,388.904 394.516,386.571 386,375.5C 384.402,367.939 384.069,360.272 385,352.5C 392.158,340.497 402.325,336.997 415.5,342C 419.333,344.5 422.5,347.667 425,351.5C 426.366,344.071 428.533,336.904 431.5,330C 430.809,328.933 430.309,327.766 430,326.5C 415.838,330.752 405.838,326.086 400,312.5C 396.989,298.69 401.822,288.857 414.5,283C 432.14,280.31 441.973,287.81 444,305.5C 448.07,298.76 452.904,292.593 458.5,287C 439.298,285.783 431.131,275.616 434,256.5C 440.353,241.488 451.186,236.988 466.5,243C 475.343,249.531 479.176,258.364 478,269.5C 484.218,264.281 490.718,259.448 497.5,255C 483.606,250.056 477.772,240.222 480,225.5C 485.121,210.689 495.288,205.522 510.5,210C 515.667,212.5 519.5,216.333 522,221.5C 523.458,227.921 523.958,234.254 523.5,240.5C 528.5,238.333 533.5,236.167 538.5,234C 525.364,224.915 522.197,213.081 529,198.5C 542.038,184.958 554.704,185.291 567,199.5C 571.763,208.134 571.596,216.634 566.5,225C 574.254,224.216 581.92,222.716 589.5,220.5C 579.813,213.618 576.313,204.284 579,192.5C 586.071,176.389 597.571,172.223 613.5,180C 622.388,187.746 624.888,197.246 621,208.5C 620.117,211.102 618.617,213.269 616.5,215C 619.777,214.799 623.111,214.632 626.5,214.5C 627.227,210.546 628.894,207.046 631.5,204C 625.255,184.843 631.922,173.343 651.5,169.5C 660.781,169.943 667.614,174.276 672,182.5C 680.741,171.886 691.241,169.719 703.5,176C 708.02,179.536 711.186,184.036 713,189.5C 727.095,183.537 741.261,177.704 755.5,172C 753.372,168.87 750.872,166.037 748,163.5C 747.333,162.167 747.333,160.833 748,159.5C 750.5,156.333 753,153.167 755.5,150C 757.81,149.503 760.143,149.337 762.5,149.5C 761.457,139.529 757.791,130.695 751.5,123C 743.752,119.702 739.752,122.202 739.5,130.5C 740.93,137.265 742.43,143.932 744,150.5C 737.72,150.638 731.887,148.805 726.5,145C 707.865,127.306 704.032,106.806 715,83.5C 720.088,75.7554 727.255,71.2554 736.5,70C 742.945,69.4001 749.278,69.7334 755.5,71C 751.364,58.8044 751.531,46.6377 756,34.5C 764.331,22.6749 772.831,11.0083 781.5,-0.5 Z M 648.5,175.5 C 662.394,176.273 668.561,183.606 667,197.5C 666.439,200.29 665.106,202.623 663,204.5C 655.35,198.205 646.85,196.872 637.5,200.5C 632.812,188.578 636.479,180.245 648.5,175.5 Z M 914.5,175.5 C 930.099,177.392 935.599,185.725 931,200.5C 930.25,199.874 929.416,199.374 928.5,199C 919.664,197.009 911.83,198.842 905,204.5C 897.55,191.288 900.717,181.621 914.5,175.5 Z M 686.5,178.5 C 691.08,178.113 695.414,178.947 699.5,181C 703.766,186.228 707.766,191.561 711.5,197C 709.294,200.268 707.461,203.768 706,207.5C 700.282,214.35 693.116,216.684 684.5,214.5C 684.649,213.448 684.483,212.448 684,211.5C 673.532,203.767 671.866,194.433 679,183.5C 681.479,181.686 683.979,180.019 686.5,178.5 Z M 874.5,178.5 C 890.163,179.801 895.996,188.134 892,203.5C 887.147,212.414 879.98,214.914 870.5,211C 860.799,203.879 858.965,195.046 865,184.5C 867.843,181.837 871.009,179.837 874.5,178.5 Z M 967.5,181.5 C 981.291,184.405 986.457,192.738 983,206.5C 981.692,208.641 980.192,210.641 978.5,212.5C 973.751,215.228 968.751,217.228 963.5,218.5C 960.913,215.408 958.079,212.408 955,209.5C 948.608,195.292 952.775,185.959 967.5,181.5 Z M 595.5,182.5 C 610.784,181.951 617.617,189.284 616,204.5C 615,206.5 614,208.5 613,210.5C 609.574,212.592 606.907,215.259 605,218.5C 600.008,217.24 595.174,215.407 590.5,213C 580.557,200.936 582.224,190.769 595.5,182.5 Z M 545.5,194.5 C 559.894,196.296 565.728,204.296 563,218.5C 560.848,221.634 559.182,224.968 558,228.5C 554.196,231.413 550.029,232.08 545.5,230.5C 531.981,224.443 528.481,214.776 535,201.5C 537.998,198.262 541.498,195.929 545.5,194.5 Z M 1017.5,194.5 C 1029.54,194.537 1036.2,200.537 1037.5,212.5C 1035.52,222.981 1029.35,229.315 1019,231.5C 1015.93,231.216 1013.1,230.216 1010.5,228.5C 1009.64,225.473 1008.14,222.806 1006,220.5C 1002.02,208.148 1005.85,199.481 1017.5,194.5 Z M 754.5,201.5 C 755.239,201.369 755.906,201.536 756.5,202C 749.272,223.684 742.439,245.517 736,267.5C 731.644,282.612 728.311,297.945 726,313.5C 725.138,329.199 725.471,344.866 727,360.5C 730.295,373.591 735.128,386.091 741.5,398C 741.333,398.5 741.167,399 741,399.5C 710.373,395.134 693.54,408.3 690.5,439C 690.019,450.889 693.519,461.389 701,470.5C 709.153,480.659 719.653,486.159 732.5,487C 733.059,486.275 733.392,485.442 733.5,484.5C 731.67,479.505 729.837,474.505 728,469.5C 726.31,456.083 731.81,451.916 744.5,457C 748.288,461.406 751.455,466.239 754,471.5C 757.517,483.603 759.851,495.936 761,508.5C 761.833,509.333 762.667,510.167 763.5,511C 758.053,517.557 751.053,521.224 742.5,522C 725.471,525.399 710.638,521.232 698,509.5C 693.473,501.779 689.473,493.779 686,485.5C 684.667,484.167 683.333,484.167 682,485.5C 680.762,493.593 679.096,501.593 677,509.5C 674.802,515.762 670.635,518.595 664.5,518C 654.924,525.044 645.257,525.21 635.5,518.5C 638.946,509.918 636.279,504.585 627.5,502.5C 626.446,502.68 625.446,503.013 624.5,503.5C 620.85,491.231 620.683,478.898 624,466.5C 628.104,458.679 633.437,457.679 640,463.5C 641.131,465.725 641.964,468.058 642.5,470.5C 641.338,474.794 640.838,479.128 641,483.5C 641.561,484.022 642.228,484.355 643,484.5C 657.981,479.52 666.315,469.186 668,453.5C 669.643,440.715 667.31,428.715 661,417.5C 651,407.285 638.834,403.118 624.5,405C 619.013,406.078 614.013,408.244 609.5,411.5C 607.122,404.413 603.956,397.746 600,391.5C 594.963,360.997 600.963,332.997 618,307.5C 658.253,265.041 703.753,229.707 754.5,201.5 Z M 812.5,201.5 C 825.418,207.292 837.752,214.125 849.5,222C 884.673,246.49 917.507,273.99 948,304.5C 959.844,319.006 966.844,335.673 969,354.5C 969.667,365.833 969.667,377.167 969,388.5C 965.159,396.196 961.825,404.196 959,412.5C 947.139,403.631 934.306,402.131 920.5,408C 909.115,413.075 902.615,421.909 901,434.5C 898.65,447.051 900.317,459.051 906,470.5C 910.691,477.038 916.858,481.371 924.5,483.5C 925.442,483.392 926.275,483.059 927,482.5C 926.737,477.184 926.737,471.851 927,466.5C 929.794,460.35 934.294,458.517 940.5,461C 942.894,462.952 944.394,465.452 945,468.5C 947.05,480.192 946.883,491.858 944.5,503.5C 932.888,502.461 929.222,507.461 933.5,518.5C 919.295,526.027 906.795,523.694 896,511.5C 892.488,500.099 890.154,488.433 889,476.5C 888.121,473.654 886.454,472.987 884,474.5C 878.845,486.143 873.178,497.477 867,508.5C 851.965,519.839 835.465,522.339 817.5,516C 814.397,514.719 811.731,512.886 809.5,510.5C 812.286,505.981 811.953,501.648 808.5,497.5C 810.093,488.37 812.26,479.37 815,470.5C 817.389,465.446 820.555,460.946 824.5,457C 829.982,453.82 835.148,454.32 840,458.5C 840.436,460.847 840.936,463.181 841.5,465.5C 839.731,472.37 837.398,479.036 834.5,485.5C 834.434,487.266 835.268,488.266 837,488.5C 856.132,484.698 869.132,473.698 876,455.5C 882.265,434.645 877.098,417.478 860.5,404C 857.382,402.107 854.049,400.774 850.5,400C 842.282,398.638 834.282,398.138 826.5,398.5C 843.756,366.637 848.256,332.97 840,297.5C 832.074,265.127 822.907,233.127 812.5,201.5 Z M 642.5,204.5 C 651.111,203.057 657.611,206.057 662,213.5C 668.645,228.54 663.812,237.873 647.5,241.5C 632.329,238.543 627.163,229.876 632,215.5C 634.357,210.645 637.857,206.979 642.5,204.5 Z M 916.5,204.5 C 922.121,203.674 927.121,205.007 931.5,208.5C 944.41,224.607 940.91,235.607 921,241.5C 911.061,240.227 904.894,234.727 902.5,225C 904.274,219.682 906.44,214.515 909,209.5C 911.479,207.686 913.979,206.019 916.5,204.5 Z M 497.5,214.5 C 509.537,213.864 516.537,219.531 518.5,231.5C 517.853,235.565 516.519,239.399 514.5,243C 514.645,243.772 514.978,244.439 515.5,245C 512.915,247.258 510.082,249.091 507,250.5C 506.5,250 506,249.5 505.5,249C 489.184,247.869 483.017,239.369 487,223.5C 489.489,219.168 492.989,216.168 497.5,214.5 Z M 1062.5,214.5 C 1074.67,213.754 1081.67,219.421 1083.5,231.5C 1082.73,239.423 1078.73,244.923 1071.5,248C 1067.89,248.026 1064.56,248.859 1061.5,250.5C 1059.08,249.543 1056.92,248.209 1055,246.5C 1052.95,241.715 1051.45,236.715 1050.5,231.5C 1050.85,223.084 1054.85,217.417 1062.5,214.5 Z M 601.5,236.5 C 611.022,235.426 617.689,239.259 621.5,248C 622.448,248.483 623.448,248.649 624.5,248.5C 626.081,262.699 619.915,271.033 606,273.5C 591.614,271.372 586.281,263.372 590,249.5C 591.553,243.116 595.386,238.783 601.5,236.5 Z M 958.5,236.5 C 967.561,235.745 974.061,239.412 978,247.5C 983.495,261.82 978.495,270.486 963,273.5C 948.505,270.829 942.338,262.162 944.5,247.5C 945.552,247.649 946.552,247.483 947.5,247C 949.747,241.918 953.413,238.418 958.5,236.5 Z M 451.5,246.5 C 466.26,246.43 472.76,253.764 471,268.5C 468.742,272.429 466.576,276.429 464.5,280.5C 450.51,283.34 441.843,277.84 438.5,264C 439.297,255.39 443.63,249.557 451.5,246.5 Z M 512.5,467.5 C 505.522,454.341 494.522,448.508 479.5,450C 475.637,451.181 472.137,453.014 469,455.5C 438.14,409.285 437.14,362.285 466,314.5C 480.465,296.031 497.965,281.198 518.5,270C 538.306,258.399 559.473,250.566 582,246.5C 581.565,250.308 580.399,253.974 578.5,257.5C 575.793,259.843 573.126,262.177 570.5,264.5C 558.318,267.181 550.485,274.515 547,286.5C 510.16,330.474 505.993,377.641 534.5,428C 521.208,430.292 513.708,438.125 512,451.5C 511.568,456.846 511.734,462.18 512.5,467.5 Z M 1056.5,466.5 C 1056.67,460.491 1056.5,454.491 1056,448.5C 1053.23,436.888 1046.07,429.888 1034.5,427.5C 1057.48,387.974 1058.31,347.974 1037,307.5C 1032.39,299.961 1027.06,292.961 1021,286.5C 1018.19,273.191 1010.03,266.191 996.5,265.5C 996.65,261.839 995.15,260.839 992,262.5C 991.274,259.54 989.44,257.54 986.5,256.5C 985.051,253.179 984.718,249.846 985.5,246.5C 1027.56,254.609 1063.72,273.609 1094,303.5C 1124.21,341.303 1130.88,382.969 1114,428.5C 1109.77,437.729 1105.1,446.729 1100,455.5C 1089.02,447.75 1077.85,447.583 1066.5,455C 1062.55,458.435 1059.22,462.268 1056.5,466.5 Z M 1108.5,246.5 C 1123.29,245.794 1130.13,252.794 1129,267.5C 1127.57,273.925 1123.74,278.092 1117.5,280C 1112.76,280.112 1108.1,280.278 1103.5,280.5C 1101.35,278.851 1099.35,277.018 1097.5,275C 1098.06,274.275 1098.39,273.442 1098.5,272.5C 1094.6,260.847 1097.93,252.18 1108.5,246.5 Z M 990.5,270.5 C 1011.07,271.553 1018.57,281.887 1013,301.5C 1002.63,311.124 992.632,310.791 983,300.5C 976.799,288.277 979.299,278.277 990.5,270.5 Z M 567.5,271.5 C 572.99,271.41 577.823,273.077 582,276.5C 582.772,276.355 583.439,276.022 584,275.5C 591.447,285.963 590.613,295.797 581.5,305C 571.098,310.881 562.098,309.215 554.5,300C 555.86,298.062 555.527,296.396 553.5,295C 552.114,283.61 556.781,275.777 567.5,271.5 Z M 420.5,287.5 C 436.149,291.129 440.982,300.463 435,315.5C 424.885,325.257 415.552,324.59 407,313.5C 402.777,300.278 407.277,291.612 420.5,287.5 Z M 1146.5,287.5 C 1161.29,291.073 1166.12,300.073 1161,314.5C 1151.67,325.167 1142.33,325.167 1133,314.5C 1127.99,300.517 1132.49,291.517 1146.5,287.5 Z M 544.5,312.5 C 557.691,312.757 565.024,319.424 566.5,332.5C 562.433,350.534 552.099,355.701 535.5,348C 527.515,340.104 526.681,331.27 533,321.5C 535.525,319.95 537.359,317.783 538.5,315C 540.611,314.155 542.611,313.322 544.5,312.5 Z M 1018.5,312.5 C 1027.37,312.304 1033.87,315.97 1038,323.5C 1039.41,327.976 1040.58,332.476 1041.5,337C 1038.43,341.105 1035.09,345.105 1031.5,349C 1022.53,353.888 1014.36,352.721 1007,345.5C 1000.13,334.687 1001.29,324.853 1010.5,316C 1013.16,314.522 1015.82,313.355 1018.5,312.5 Z M 402.5,345.5 C 409.499,345.083 414.999,347.75 419,353.5C 420.591,358.362 422.091,363.195 423.5,368C 423.025,369.763 422.358,371.43 421.5,373C 416.626,376.268 411.293,378.768 405.5,380.5C 390,376.5 385.5,367.167 392,352.5C 394.998,349.262 398.498,346.929 402.5,345.5 Z M 1160.5,345.5 C 1177.21,347.576 1182.71,356.576 1177,372.5C 1171.88,379.097 1165.38,381.263 1157.5,379C 1154.29,376.896 1150.96,375.063 1147.5,373.5C 1145.9,370.699 1144.9,367.699 1144.5,364.5C 1146.75,360.284 1148.92,355.951 1151,351.5C 1153.84,348.837 1157.01,346.837 1160.5,345.5 Z M 517.5,479.5 C 522.761,487.929 529.595,494.929 538,500.5C 537.645,512 535.979,523.334 533,534.5C 531.667,537.167 530.333,539.833 529,542.5C 526.457,544.105 523.791,545.438 521,546.5C 521.06,534.111 515.56,530.777 504.5,536.5C 501.185,523.393 498.185,510.227 495.5,497C 495.85,495.743 496.517,495.409 497.5,496C 505.588,505.585 509.755,516.752 510,529.5C 511.049,530.517 512.216,530.684 513.5,530C 519.274,518.86 521.441,507.027 520,494.5C 519.1,489.499 518.266,484.499 517.5,479.5 Z M 1047.5,545.5 C 1041.41,544.919 1037.58,541.586 1036,535.5C 1033,524.127 1030.83,512.627 1029.5,501C 1038.67,495.833 1045.83,488.667 1051,479.5C 1049.74,486.726 1048.57,494.059 1047.5,501.5C 1048,511.18 1050.33,520.347 1054.5,529C 1056.89,529.865 1058.39,529.032 1059,526.5C 1059.46,514.418 1063.8,504.084 1072,495.5C 1072.17,497 1072.33,498.5 1072.5,500C 1069.88,512.207 1067.04,524.374 1064,536.5C 1053.82,531.006 1048.32,534.006 1047.5,545.5 Z M 549.5,505.5 C 553.696,505.923 557.863,506.59 562,507.5C 565.441,508.06 566.774,506.727 566,503.5C 561.647,498.294 558.481,492.46 556.5,486C 556.703,483.297 558.203,481.797 561,481.5C 567.887,484.953 573.887,489.62 579,495.5C 582.621,499.91 586.121,504.41 589.5,509C 583.334,512.656 581.834,517.822 585,524.5C 586.41,525.787 587.91,526.954 589.5,528C 580.412,533.581 571.079,533.914 561.5,529C 555.783,522.066 551.783,514.233 549.5,505.5 Z M 1006.5,481.5 C 1009.78,481.305 1011.78,482.805 1012.5,486C 1009.66,492.831 1006,499.164 1001.5,505C 1002.23,506.992 1003.73,507.826 1006,507.5C 1010.48,507.004 1014.82,506.004 1019,504.5C 1016.84,512.28 1013.51,519.613 1009,526.5C 1001.42,532.626 992.924,534.126 983.5,531C 981.884,530.385 980.551,529.385 979.5,528C 986.559,522.602 987.226,516.602 981.5,510C 980.5,509.667 979.5,509.333 978.5,509C 986.402,498.264 995.735,489.097 1006.5,481.5 Z M 694.5,580.5 C 703.997,581.527 707.497,586.527 705,595.5C 696.863,602.871 690.697,601.371 686.5,591C 687.619,586.236 690.286,582.736 694.5,580.5 Z M 753.5,580.5 C 774.169,580.333 794.836,580.5 815.5,581C 833.761,586.011 840.928,597.844 837,616.5C 833.321,624.849 827.154,630.349 818.5,633C 794.437,633.97 770.437,633.637 746.5,632C 730.846,623.523 726.346,611.023 733,594.5C 737.98,586.941 744.813,582.274 753.5,580.5 Z M 870.5,580.5 C 882.465,583.577 884.465,589.744 876.5,599C 868.838,601.216 863.838,598.383 861.5,590.5C 863.185,585.823 866.185,582.49 870.5,580.5 Z M 612.5,588.5 C 614.857,588.337 617.19,588.503 619.5,589C 633.049,595.275 646.716,601.275 660.5,607C 663.4,607.943 665.733,609.61 667.5,612C 654.433,620.729 641.099,629.062 627.5,637C 625.833,637.667 624.167,637.667 622.5,637C 607.827,628.829 592.827,621.496 577.5,615C 586.8,607.015 596.8,600.015 607.5,594C 609.3,592.188 610.967,590.355 612.5,588.5 Z M 949.5,588.5 C 951.857,588.337 954.19,588.503 956.5,589C 969.5,597.5 982.5,606 995.5,614.5C 978.528,622.937 961.195,630.604 943.5,637.5C 940.245,636.359 936.911,635.526 933.5,635C 920.496,627.5 907.829,619.5 895.5,611C 913.075,602.033 931.075,594.533 949.5,588.5 Z M 543.5,597.5 C 552.663,599.172 555.496,604.172 552,612.5C 544.308,618.094 538.808,616.261 535.5,607C 536.606,602.403 539.273,599.236 543.5,597.5 Z M 1022.5,597.5 C 1027.83,598.653 1031.49,601.82 1033.5,607C 1026.89,619.519 1020.56,619.519 1014.5,607C 1015.57,602.437 1018.23,599.271 1022.5,597.5 Z M 697.5,616.5 C 704.37,616.263 708.703,619.429 710.5,626C 706.584,636.576 700.417,638.409 692,631.5C 688.844,624.538 690.678,619.538 697.5,616.5 Z M 865.5,616.5 C 872.514,616.016 876.848,619.183 878.5,626C 876.318,634.593 871.318,637.259 863.5,634C 856.75,627.457 857.417,621.624 865.5,616.5 Z M 551.5,630.5 C 560.193,630.999 563.693,635.332 562,643.5C 554.642,651.399 548.809,650.232 544.5,640C 545.558,635.791 547.891,632.625 551.5,630.5 Z M 1012.5,630.5 C 1021.44,631.401 1024.61,636.067 1022,644.5C 1018.38,649.279 1014.21,650.112 1009.5,647C 1003.72,640.387 1004.72,634.887 1012.5,630.5 Z M 705.5,678.5 C 766.511,678.106 827.511,678.606 888.5,680C 941.473,681.816 994.139,686.816 1046.5,695C 872.167,695.667 697.833,695.667 523.5,695C 583.986,685.85 644.652,680.35 705.5,678.5 Z M 585.5,801.5 C 588.707,807.569 592.207,813.569 596,819.5C 597.5,821 599,822.5 600.5,824C 608.766,828.604 616.766,833.604 624.5,839C 635.705,850.98 639.872,865.147 637,881.5C 636.108,887.278 634.108,892.611 631,897.5C 629.836,900.567 630.836,902.233 634,902.5C 669.182,895.49 690.016,909.49 696.5,944.5C 692.776,974.724 675.776,991.224 645.5,994C 651.576,984.894 653.076,975.061 650,964.5C 646.061,958.627 640.561,956.46 633.5,958C 626.101,961.421 621.601,967.255 620,975.5C 618.671,981.128 618.005,986.795 618,992.5C 619.734,993.249 621.567,993.749 623.5,994C 626.5,998.333 629.5,1002.67 632.5,1007C 628.471,1012.68 624.138,1018.02 619.5,1023C 625.275,1038.89 633.608,1053.23 644.5,1066C 639.111,1065.66 633.778,1064.66 628.5,1063C 622.391,1060.93 616.391,1058.93 610.5,1057C 612.229,1079.05 604.229,1096.89 586.5,1110.5C 572.999,1100.17 564.666,1086.67 561.5,1070C 562.213,1066.51 562.879,1063.01 563.5,1059.5C 563.392,1058.56 563.059,1057.72 562.5,1057C 556.599,1058.93 550.599,1060.93 544.5,1063C 539.222,1064.66 533.889,1065.66 528.5,1066C 539.896,1053.55 548.23,1039.22 553.5,1023C 548.862,1018.02 544.529,1012.68 540.5,1007C 543.377,1002.75 546.377,998.578 549.5,994.5C 551.341,993.77 553.175,993.103 555,992.5C 555.008,983.539 553.341,974.872 550,966.5C 544.134,957.436 536.3,955.269 526.5,960C 522.611,964.371 520.944,969.538 521.5,975.5C 521.787,982.195 523.787,988.361 527.5,994C 496.975,991.142 479.975,974.475 476.5,944C 483.394,909.198 504.394,895.364 539.5,902.5C 542.246,901.904 543.08,900.237 542,897.5C 534.544,882.975 533.544,867.975 539,852.5C 541.215,847.9 544.048,843.734 547.5,840C 555.664,834.417 563.997,829.084 572.5,824C 579.162,817.84 583.495,810.34 585.5,801.5 Z M 980.5,802.5 C 981.496,802.414 982.329,802.748 983,803.5C 985.139,809.112 987.806,814.446 991,819.5C 999.894,826.058 1009.06,832.225 1018.5,838C 1031.29,850.978 1035.79,866.478 1032,884.5C 1029.65,890.169 1027.65,895.836 1026,901.5C 1026.89,902.081 1027.89,902.415 1029,902.5C 1063.94,895.342 1084.77,909.008 1091.5,943.5C 1090.08,969.429 1076.74,985.596 1051.5,992C 1048.45,992.679 1045.45,993.512 1042.5,994.5C 1042.17,994.167 1041.83,993.833 1041.5,993.5C 1047.4,984.854 1048.9,975.521 1046,965.5C 1044.6,960.772 1041.44,958.272 1036.5,958C 1029.66,956.67 1024.16,958.836 1020,964.5C 1015.21,973.244 1013.21,982.578 1014,992.5C 1016.24,993.056 1018.24,994.056 1020,995.5C 1022.63,999.265 1025.13,1003.1 1027.5,1007C 1023.78,1013.02 1019.78,1018.69 1015.5,1024C 1020.81,1039.46 1028.81,1053.29 1039.5,1065.5C 1029.51,1065.08 1019.84,1062.58 1010.5,1058C 1009.17,1057.33 1007.83,1057.33 1006.5,1058C 1005.48,1061.76 1005.48,1065.6 1006.5,1069.5C 1005.07,1080.36 1000.9,1090.02 994,1098.5C 990.645,1103.36 986.478,1107.36 981.5,1110.5C 970.17,1101.17 962.337,1089.51 958,1075.5C 957.824,1069.57 957.658,1063.74 957.5,1058C 956.167,1057.33 954.833,1057.33 953.5,1058C 944.158,1062.58 934.491,1065.08 924.5,1065.5C 935.19,1053.29 943.19,1039.46 948.5,1024C 944.217,1018.69 940.217,1013.02 936.5,1007C 938.869,1003.1 941.369,999.265 944,995.5C 945.763,994.056 947.763,993.056 950,992.5C 950.79,982.578 948.79,973.244 944,964.5C 937.752,957.028 930.252,955.528 921.5,960C 916.559,967.22 915.392,975.053 918,983.5C 919.226,986.952 920.726,990.285 922.5,993.5C 892.73,990.732 876.063,974.398 872.5,944.5C 874.223,924.62 884.223,910.787 902.5,903C 913.288,899.92 924.122,899.754 935,902.5C 936.107,902.415 937.107,902.081 938,901.5C 936.351,895.836 934.351,890.169 932,884.5C 928.21,866.478 932.71,850.978 945.5,838C 955.222,832.277 964.389,825.777 973,818.5C 976.315,813.537 978.815,808.204 980.5,802.5 Z M 727.5,1397.5 C 736.506,1385.5 744.006,1372.5 750,1358.5C 750.667,1356.83 750.667,1355.17 750,1353.5C 745.592,1348.93 741.759,1343.93 738.5,1338.5C 741.195,1334.97 743.695,1331.3 746,1327.5C 747.532,1325.44 749.532,1324.1 752,1323.5C 752.963,1313.02 750.629,1303.35 745,1294.5C 737.629,1288.2 729.963,1287.86 722,1293.5C 720.088,1297.96 718.921,1302.63 718.5,1307.5C 719.509,1313.86 721.509,1319.86 724.5,1325.5C 694.652,1322.3 677.985,1305.8 674.5,1276C 679.486,1244.03 698.152,1229.69 730.5,1233C 733.036,1233.34 735.536,1233.84 738,1234.5C 740.319,1233.59 740.986,1231.92 740,1229.5C 729.96,1211.67 730.293,1194.01 741,1176.5C 743.5,1174 746,1171.5 748.5,1169C 757.249,1163.92 765.749,1158.42 774,1152.5C 777.781,1146.6 781.281,1140.6 784.5,1134.5C 787.533,1142.73 792.2,1149.9 798.5,1156C 808.485,1160.99 817.652,1167.16 826,1174.5C 833.953,1185.92 836.953,1198.59 835,1212.5C 833.415,1219.92 831.081,1226.92 828,1233.5C 828.725,1234.06 829.558,1234.39 830.5,1234.5C 861.544,1226.77 882.377,1237.77 893,1267.5C 894.122,1302.19 877.622,1321.53 843.5,1325.5C 849.536,1316.54 851.036,1306.88 848,1296.5C 843.748,1290.41 837.915,1288.25 830.5,1290C 823.331,1293.18 819.164,1298.68 818,1306.5C 816.563,1312.11 815.896,1317.78 816,1323.5C 817.667,1324.17 819.333,1324.83 821,1325.5C 824.066,1329.72 826.899,1334.06 829.5,1338.5C 826.213,1344.77 822.213,1350.43 817.5,1355.5C 822.905,1371.49 831.238,1385.66 842.5,1398C 830.802,1396.24 819.469,1393.24 808.5,1389C 810.356,1404.07 806.523,1417.57 797,1429.5C 793.333,1434.5 789,1438.83 784,1442.5C 773.623,1433.79 765.956,1423.12 761,1410.5C 759.727,1403.64 759.227,1396.81 759.5,1390C 749.153,1393.42 738.487,1395.92 727.5,1397.5 Z"/></g>
</svg>
