<?xml version="1.0" encoding="UTF-8"?>
<!DOCTYPE svg PUBLIC "-//W3C//DTD SVG 1.1//EN" "http://www.w3.org/Graphics/SVG/1.1/DTD/svg11.dtd">
<svg xmlns="http://www.w3.org/2000/svg" version="1.1" width="230px" height="530px" style="shape-rendering:geometricPrecision; text-rendering:geometricPrecision; image-rendering:optimizeQuality; fill-rule:evenodd; clip-rule:evenodd" xmlns:xlink="http://www.w3.org/1999/xlink">
<g><path style="opacity:1" fill="#eaebea" d="M 172.5,-0.5 C 175.167,-0.5 177.833,-0.5 180.5,-0.5C 184.016,4.3971 188.683,5.73043 194.5,3.5C 201.225,5.5025 207.892,7.5025 214.5,9.5C 215.244,12.443 215.744,15.443 216,18.5C 217.908,21.2154 219.241,24.2154 220,27.5C 227.893,33.972 229.227,41.6387 224,50.5C 225.282,58.3411 222.949,64.6745 217,69.5C 215.734,72.4662 214.567,75.4662 213.5,78.5C 210.123,79.2709 207.289,80.9376 205,83.5C 204.199,87.1935 203.032,90.6935 201.5,94C 197.823,94.1078 194.157,94.1078 190.5,94C 185.633,96.1665 180.8,98.3331 176,100.5C 176.478,116.376 169.978,128.543 156.5,137C 153.627,140.577 151.127,144.411 149,148.5C 146.828,149.585 144.828,150.919 143,152.5C 141.621,161.924 140.788,171.424 140.5,181C 142.976,189.16 141.809,196.66 137,203.5C 136.579,207.872 135.912,212.205 135,216.5C 133.15,219.677 131.317,222.843 129.5,226C 130.232,230.65 130.899,235.316 131.5,240C 130.673,243.488 129.173,246.654 127,249.5C 126.246,254.43 125.079,259.263 123.5,264C 126.695,270.319 126.028,276.152 121.5,281.5C 122.833,285.833 122.833,290.167 121.5,294.5C 122.167,295.167 122.833,295.833 123.5,296.5C 121.198,300.633 118.698,304.633 116,308.5C 115.254,319.576 113.921,330.576 112,341.5C 111,342.833 110,344.167 109,345.5C 108.534,350.898 106.867,355.898 104,360.5C 103.79,366.231 103.124,371.897 102,377.5C 97.4194,385.587 93.4194,393.92 90,402.5C 91.5783,410.52 89.5783,417.52 84,423.5C 83.8813,431.523 81.548,438.857 77,445.5C 76.1368,448.269 75.6368,451.102 75.5,454C 76.2917,458.157 76.4583,462.323 76,466.5C 72.4894,469.365 71.656,472.865 73.5,477C 72.6813,480.176 71.348,483.176 69.5,486C 70.4091,487.789 70.5758,489.623 70,491.5C 68.7604,494.412 67.0937,497.079 65,499.5C 64.2208,506.081 62.5542,512.414 60,518.5C 57.5398,521.125 55.7064,524.125 54.5,527.5C 48.5556,530.094 45.5556,528.261 45.5,522C 44.4078,517.482 44.4078,512.982 45.5,508.5C 43.1757,499.329 42.0091,489.995 42,480.5C 38.3101,470.553 36.6435,460.22 37,449.5C 34.2774,446.443 31.944,443.11 30,439.5C 28.7322,434.363 27.0656,429.363 25,424.5C 24.3333,419.833 23.6667,415.167 23,410.5C 14.6642,393.838 10.6642,376.172 11,357.5C 9.4211,353.345 7.58777,349.345 5.5,345.5C 8.54321,336.955 14.2099,330.789 22.5,327C 25.7405,322.035 29.5738,317.535 34,313.5C 36.9193,307.323 40.5859,301.656 45,296.5C 48.1947,287.115 53.1947,278.782 60,271.5C 62.5539,264.724 65.8873,258.391 70,252.5C 71.119,247.851 72.619,243.351 74.5,239C 72.6612,229.612 73.4945,220.445 77,211.5C 77.3333,208.167 77.6667,204.833 78,201.5C 79.5862,199.33 80.9196,196.996 82,194.5C 81.6428,178.554 87.3095,165.22 99,154.5C 100.09,150.223 101.757,146.223 104,142.5C 109.591,138.914 114.591,134.58 119,129.5C 122.178,123.134 125.844,117.134 130,111.5C 132.682,108.65 135.516,105.984 138.5,103.5C 139.982,99.6504 140.816,95.6504 141,91.5C 142.271,88.5674 143.938,85.9007 146,83.5C 146.833,77.8329 147.667,72.1662 148.5,66.5C 146.445,59.6893 147.278,53.3559 151,47.5C 152.458,45.04 154.291,42.8734 156.5,41C 161.518,39.7734 166.185,37.7734 170.5,35C 174.362,30.7714 177.862,26.2714 181,21.5C 181.667,19.1667 181.667,16.8333 181,14.5C 176.947,12.1133 173.947,8.77999 172,4.5C 171.36,2.73498 171.527,1.06831 172.5,-0.5 Z"/></g>
</svg>
