<?xml version="1.0" encoding="UTF-8"?>
<!DOCTYPE svg PUBLIC "-//W3C//DTD SVG 1.1//EN" "http://www.w3.org/Graphics/SVG/1.1/DTD/svg11.dtd">
<svg xmlns="http://www.w3.org/2000/svg" version="1.1" width="602px" height="352px" style="shape-rendering:geometricPrecision; text-rendering:geometricPrecision; image-rendering:optimizeQuality; fill-rule:evenodd; clip-rule:evenodd" xmlns:xlink="http://www.w3.org/1999/xlink">
<g><path style="opacity:0.984" fill="#f2f2f2" d="M 67.5,5.5 C 96.4404,2.32954 115.607,14.3295 125,41.5C 129.871,70.934 118.371,90.7673 90.5,101C 59.7096,106.176 39.543,94.009 30,64.5C 26.0939,34.2661 38.5939,14.5995 67.5,5.5 Z"/></g>
<g><path style="opacity:0.977" fill="#f2f2f2" d="M 515.5,6.5 C 536.127,4.08881 552.627,11.0888 565,27.5C 572.092,39.2081 574.425,51.8747 572,65.5C 563.506,92.001 545.339,104.501 517.5,103C 486.27,95.404 472.77,75.5706 477,43.5C 482.892,23.7719 495.725,11.4385 515.5,6.5 Z"/></g>
<g><path style="opacity:0.988" fill="#f2f2f2" d="M 54.5,112.5 C 105.501,112.333 156.501,112.5 207.5,113C 213.019,114.504 215.186,118.004 214,123.5C 211.667,129.833 209.333,136.167 207,142.5C 206.117,145.102 204.617,147.269 202.5,149C 179.5,149.333 156.5,149.667 133.5,150C 128,151.5 124.5,155 123,160.5C 120.143,212.49 117.477,264.49 115,316.5C 114.561,322.551 111.728,327.051 106.5,330C 88.5526,331.612 70.5526,331.946 52.5,331C 45.6667,329.5 41.5,325.333 40,318.5C 38.2249,288.489 36.3915,258.489 34.5,228.5C 27.124,227.66 19.7907,226.494 12.5,225C 7.90139,223.402 5.06805,220.235 4,215.5C 5.59729,193.122 7.93062,170.789 11,148.5C 17.8721,127.116 32.3721,115.116 54.5,112.5 Z"/></g>
<g><path style="opacity:0.982" fill="#f2f2f2" d="M 391.5,114.5 C 445.501,114.333 499.501,114.5 553.5,115C 573.117,119.283 585.617,131.116 591,150.5C 593.464,171.507 595.964,192.507 598.5,213.5C 597.993,218.494 595.66,222.327 591.5,225C 584.328,227.073 576.994,228.407 569.5,229C 568.484,229.519 567.818,230.353 567.5,231.5C 565.413,260.473 563.58,289.473 562,318.5C 560.833,326.333 556.333,330.833 548.5,332C 532.5,332.667 516.5,332.667 500.5,332C 490.542,329.363 486.042,322.863 487,312.5C 484.682,261.479 482.015,210.479 479,159.5C 477.402,154.901 474.235,152.068 469.5,151C 445.746,150.98 422.079,150.314 398.5,149C 394.428,141.131 390.928,132.964 388,124.5C 387.182,120.469 388.349,117.136 391.5,114.5 Z"/></g>
<g><path style="opacity:0.977" fill="#f2f2f2" d="M 192.5,183.5 C 197.126,182.7 200.96,184.034 204,187.5C 204.333,200.167 204.667,212.833 205,225.5C 212.654,220.167 221.154,218.001 230.5,219C 233.939,229.126 232.439,238.626 226,247.5C 220.051,253.391 212.884,256.391 204.5,256.5C 204.5,262.5 204.5,268.5 204.5,274.5C 230.476,272.985 256.476,271.985 282.5,271.5C 282.5,259.833 282.5,248.167 282.5,236.5C 262.045,233.296 252.878,221.296 255,200.5C 264.582,197.116 273.582,198.449 282,204.5C 282.333,199.167 282.667,193.833 283,188.5C 285.541,183.931 289.375,182.431 294.5,184C 296.286,184.785 297.786,185.951 299,187.5C 299.333,200.167 299.667,212.833 300,225.5C 307.654,220.167 316.154,218.001 325.5,219C 326.333,219.833 327.167,220.667 328,221.5C 329.865,242.293 320.532,254.293 300,257.5C 299.501,262.155 299.334,266.821 299.5,271.5C 325.858,271.963 352.191,272.963 378.5,274.5C 378.5,261.833 378.5,249.167 378.5,236.5C 358.045,233.296 348.878,221.296 351,200.5C 360.582,197.116 369.582,198.449 378,204.5C 378.333,199.833 378.667,195.167 379,190.5C 380.846,184.005 385.012,181.838 391.5,184C 393.378,185.543 394.878,187.376 396,189.5C 396.167,201.181 396.667,212.848 397.5,224.5C 423.9,211.734 431.067,218.734 419,245.5C 413.008,253.079 405.174,256.746 395.5,256.5C 395.5,262.833 395.5,269.167 395.5,275.5C 414.128,276.947 432.461,280.114 450.5,285C 461.361,288.214 465.361,295.38 462.5,306.5C 462.562,312.232 462.062,317.898 461,323.5C 458.685,327.817 455.185,330.65 450.5,332C 345.833,332.667 241.167,332.667 136.5,332C 135.941,331.275 135.608,330.442 135.5,329.5C 137.707,314.583 139.207,299.583 140,284.5C 145.253,282.247 150.753,280.747 156.5,280C 166.794,278.421 177.128,277.255 187.5,276.5C 187.5,263.167 187.5,249.833 187.5,236.5C 165.36,233.222 156.36,220.722 160.5,199C 170.168,197.146 179.001,198.98 187,204.5C 187.333,199.167 187.667,193.833 188,188.5C 189.025,186.313 190.525,184.646 192.5,183.5 Z"/></g>
</svg>
