<?xml version="1.0" encoding="UTF-8"?>
<!DOCTYPE svg PUBLIC "-//W3C//DTD SVG 1.1//EN" "http://www.w3.org/Graphics/SVG/1.1/DTD/svg11.dtd">
<svg xmlns="http://www.w3.org/2000/svg" version="1.1" width="180px" height="403px" style="shape-rendering:geometricPrecision; text-rendering:geometricPrecision; image-rendering:optimizeQuality; fill-rule:evenodd; clip-rule:evenodd" xmlns:xlink="http://www.w3.org/1999/xlink">
<g><path style="opacity:0.982" fill="#f1f1f1" d="M 83.5,-0.5 C 87.5,-0.5 91.5,-0.5 95.5,-0.5C 95.7076,1.92006 95.3742,4.2534 94.5,6.5C 97.6699,6.6379 100.837,6.97124 104,7.5C 104.667,10.8333 104.667,14.1667 104,17.5C 100.656,18.3841 97.4897,18.7174 94.5,18.5C 96.5195,21.2667 98.6862,23.9334 101,26.5C 101.483,27.448 101.649,28.448 101.5,29.5C 107.333,29.9316 108.999,32.9316 106.5,38.5C 109.536,42.0715 112.203,45.9049 114.5,50C 120.844,52.3366 127.178,54.67 133.5,57C 134.573,58.3129 135.24,59.8129 135.5,61.5C 128.138,75.4132 122.638,90.0799 119,105.5C 118.501,110.155 118.334,114.821 118.5,119.5C 123.9,119.071 126.4,121.404 126,126.5C 123.808,128.235 121.308,129.402 118.5,130C 121.242,131.886 122.909,134.386 123.5,137.5C 128.564,137.235 131.564,139.568 132.5,144.5C 135.5,146 138.5,147.5 141.5,149C 142.804,149.804 143.471,150.971 143.5,152.5C 140.498,160.813 134.498,164.813 125.5,164.5C 124.579,166.756 122.912,167.756 120.5,167.5C 117.638,202.047 119.471,236.38 126,270.5C 128.953,288.883 132.119,307.217 135.5,325.5C 142.516,325.689 146.516,329.189 147.5,336C 147.507,337.812 146.84,339.312 145.5,340.5C 147.699,346.199 151.699,350.033 157.5,352C 159.333,353.833 161.167,355.667 163,357.5C 166.159,364.488 169.826,371.154 174,377.5C 174.839,380.14 174.339,382.473 172.5,384.5C 175.039,385.931 177.372,387.597 179.5,389.5C 179.5,392.833 179.5,396.167 179.5,399.5C 178.167,400.167 177.167,401.167 176.5,402.5C 118.5,402.5 60.5,402.5 2.5,402.5C 1.83333,401.167 0.833333,400.167 -0.5,399.5C -0.5,396.167 -0.5,392.833 -0.5,389.5C 1.36118,387.216 3.69451,385.382 6.5,384C 4.60407,382.192 4.10407,380.025 5,377.5C 9.17437,371.154 12.841,364.488 16,357.5C 19.3584,353.241 23.5251,350.074 28.5,348C 30.3589,346.442 31.8589,344.609 33,342.5C 33.1116,340.243 32.6116,338.076 31.5,336C 32.9965,333.766 34.1632,331.266 35,328.5C 37.781,326.46 40.781,324.793 44,323.5C 52.7103,283.406 58.5436,242.906 61.5,202C 61.0061,190.437 60.0061,178.937 58.5,167.5C 56.0876,167.756 54.4209,166.756 53.5,164.5C 44.5016,164.813 38.5016,160.813 35.5,152.5C 35.5288,150.971 36.1955,149.804 37.5,149C 40.5,147.5 43.5,146 46.5,144.5C 47.4363,139.568 50.4363,137.235 55.5,137.5C 56.0913,134.386 57.758,131.886 60.5,130C 57.6922,129.402 55.1922,128.235 53,126.5C 52.6003,121.404 55.1003,119.071 60.5,119.5C 60.9418,112.013 60.1084,104.68 58,97.5C 54.2322,85.021 49.3988,73.021 43.5,61.5C 43.7605,59.8129 44.4272,58.3129 45.5,57C 51.8223,54.67 58.1556,52.3366 64.5,50C 66.797,45.9049 69.4636,42.0715 72.5,38.5C 70.0006,32.9316 71.6672,29.9316 77.5,29.5C 77.3505,28.448 77.5172,27.448 78,26.5C 80.3138,23.9334 82.4805,21.2667 84.5,18.5C 81.5103,18.7174 78.3437,18.3841 75,17.5C 74.3333,14.1667 74.3333,10.8333 75,7.5C 78.1634,6.97124 81.3301,6.6379 84.5,6.5C 83.6258,4.2534 83.2924,1.92006 83.5,-0.5 Z"/></g>
</svg>
