<?xml version="1.0" encoding="UTF-8"?>
<!DOCTYPE svg PUBLIC "-//W3C//DTD SVG 1.1//EN" "http://www.w3.org/Graphics/SVG/1.1/DTD/svg11.dtd">
<svg xmlns="http://www.w3.org/2000/svg" version="1.1" width="480px" height="480px" style="shape-rendering:geometricPrecision; text-rendering:geometricPrecision; image-rendering:optimizeQuality; fill-rule:evenodd; clip-rule:evenodd" xmlns:xlink="http://www.w3.org/1999/xlink">
<g><path style="opacity:0.959" fill="#f3f3f3" d="M 250.5,39.5 C 262.845,37.0841 271.012,41.7508 275,53.5C 277.876,70.7804 278.21,88.1137 276,105.5C 270.741,115.375 262.575,118.875 251.5,116C 244.455,113.623 240.288,108.79 239,101.5C 239.648,85.1443 239.315,68.811 238,52.5C 240.327,46.3406 244.494,42.0073 250.5,39.5 Z"/></g>
<g><path style="opacity:0.959" fill="#f3f3f3" d="M 298.5,45.5 C 309.653,44.8242 316.82,49.8242 320,60.5C 321.49,76.4725 321.824,92.4725 321,108.5C 316.225,119.887 307.725,124.054 295.5,121C 289.16,118.152 285.326,113.318 284,106.5C 283.486,90.8198 283.153,75.1532 283,59.5C 285.852,52.1419 291.019,47.4752 298.5,45.5 Z"/></g>
<g><path style="opacity:0.959" fill="#f3f3f3" d="M 203.5,48.5 C 214.977,46.4912 223.477,50.4912 229,60.5C 230.096,78.165 230.762,95.8317 231,113.5C 224.615,126.107 214.782,129.94 201.5,125C 199,123.833 197.167,122 196,119.5C 194.346,112.271 193.346,104.937 193,97.5C 192.333,84.5 192.333,71.5 193,58.5C 195.106,53.5573 198.606,50.224 203.5,48.5 Z"/></g>
<g><path style="opacity:0.958" fill="#f3f3f3" d="M 160.5,72.5 C 171.767,69.8784 179.267,73.8784 183,84.5C 185.855,99.7191 186.855,115.052 186,130.5C 179.624,143.847 169.791,147.013 156.5,140C 153.567,137.736 151.4,134.902 150,131.5C 148.004,116.211 147.004,100.877 147,85.5C 149.417,78.9149 153.917,74.5815 160.5,72.5 Z"/></g>
<g><path style="opacity:0.981" fill="#f3f3f3" d="M 260.5,126.5 C 277.998,125.741 294.998,128.241 311.5,134C 331.058,141.965 337.558,156.131 331,176.5C 325.012,200.478 312.512,220.312 293.5,236C 289.912,238.377 286.412,240.877 283,243.5C 282.667,264.5 282.333,285.5 282,306.5C 250.572,307.662 219.072,307.829 187.5,307C 186.839,286.565 186.172,266.065 185.5,245.5C 166.268,236.102 153.768,221.102 148,200.5C 145.738,187.667 147.404,175.334 153,163.5C 156.321,158.923 160.821,156.589 166.5,156.5C 188.074,159.52 207.407,167.686 224.5,181C 228.702,184.867 232.535,189.033 236,193.5C 241.198,187.967 246.698,182.8 252.5,178C 259.167,174.333 265.833,170.667 272.5,167C 260.193,167.536 247.86,167.536 235.5,167C 220.717,166.604 214.55,159.104 217,144.5C 219.908,138.627 224.408,134.46 230.5,132C 240.477,129.271 250.477,127.437 260.5,126.5 Z"/></g>
<g><path style="opacity:0.955" fill="#f3f3f3" d="M 48.5,189.5 C 51.9594,190.436 54.7928,192.436 57,195.5C 69.4326,210.488 73.2659,227.488 68.5,246.5C 69.8982,256.093 72.2315,265.426 75.5,274.5C 78.7345,261.197 84.7345,249.364 93.5,239C 95.3668,238.289 96.8668,238.789 98,240.5C 110.299,261.547 111.632,283.214 102,305.5C 98.935,309.069 95.435,312.069 91.5,314.5C 101.277,332.876 113.61,349.376 128.5,364C 129.167,364.667 129.833,364.667 130.5,364C 121.954,340.448 123.121,317.281 134,294.5C 135.049,293.483 136.216,293.316 137.5,294C 160.186,312.873 170.686,337.039 169,366.5C 168.421,373.323 165.921,379.323 161.5,384.5C 176.933,392.086 193.266,395.253 210.5,394C 207.634,390.057 207.968,386.39 211.5,383C 212.667,382.833 213.833,382.667 215,382.5C 222.525,385.23 230.191,387.563 238,389.5C 244.017,388.272 249.851,386.439 255.5,384C 265.988,381.811 268.988,385.478 264.5,395C 281.822,396.418 298.489,393.751 314.5,387C 308.845,379.7 306.179,371.367 306.5,362C 307.836,334.486 319.503,312.653 341.5,296.5C 342.442,296.608 343.275,296.941 344,297.5C 353.678,319.91 354.512,342.576 346.5,365.5C 347.002,366.521 347.668,366.688 348.5,366C 363.451,351.726 376.118,335.726 386.5,318C 375.762,311.709 370.262,302.209 370,289.5C 368.832,272.504 372.832,256.838 382,242.5C 383.049,241.483 384.216,241.316 385.5,242C 394.416,253.002 400.249,265.502 403,279.5C 406.231,269.406 409.064,259.239 411.5,249C 407.333,234.83 409.166,221.33 417,208.5C 420.833,204 424.667,199.5 428.5,195C 429.833,194.333 431.167,194.333 432.5,195C 437.137,205.686 438.637,216.852 437,228.5C 435.801,238.233 431.468,246.233 424,252.5C 423.149,256.876 422.483,261.209 422,265.5C 435.327,256.126 450.16,252.293 466.5,254C 467.554,255.388 467.72,256.888 467,258.5C 459.265,275.237 446.765,286.737 429.5,293C 423.661,293.383 417.994,293.549 412.5,293.5C 405.962,311.748 396.962,328.582 385.5,344C 408.939,337.885 431.772,339.719 454,349.5C 454.667,350.5 454.667,351.5 454,352.5C 436.506,373.328 414.173,384.328 387,385.5C 376.314,385.165 367.314,381.165 360,373.5C 347.082,385.069 332.582,394.235 316.5,401C 340.957,412.463 357.29,431.13 365.5,457C 365.415,458.107 365.081,459.107 364.5,460C 341.36,461.387 320.694,455.054 302.5,441C 295.025,434.529 289.525,426.696 286,417.5C 285.502,414.518 285.335,411.518 285.5,408.5C 269.154,409.25 252.987,407.917 237,404.5C 221.376,407.476 205.709,408.143 190,406.5C 189.222,418.889 184.056,429.055 174.5,437C 155.579,452.154 133.912,458.82 109.5,457C 108.325,454.162 108.491,451.329 110,448.5C 119.8,425.701 135.967,409.201 158.5,399C 142.674,391.659 128.34,382.159 115.5,370.5C 109.69,376.949 102.357,380.449 93.5,381C 74.7102,382.053 57.7102,377.053 42.5,366C 35.6975,360.199 29.1975,354.032 23,347.5C 22.4392,344.702 23.6059,342.869 26.5,342C 47.7041,334.255 69.0374,333.589 90.5,340C 80.1838,324.201 71.8505,307.367 65.5,289.5C 46.4327,290.384 31.2661,283.051 20,267.5C 17.3333,262.833 14.6667,258.167 12,253.5C 11.2571,251.559 11.4238,249.726 12.5,248C 29.156,246.703 43.9894,251.203 57,261.5C 57.6567,253.464 54.99,246.797 49,241.5C 41.4895,225.973 40.4895,209.973 46,193.5C 46.6622,192.016 47.4955,190.683 48.5,189.5 Z"/></g>
</svg>
