<?xml version="1.0" encoding="UTF-8"?>
<!DOCTYPE svg PUBLIC "-//W3C//DTD SVG 1.1//EN" "http://www.w3.org/Graphics/SVG/1.1/DTD/svg11.dtd">
<svg xmlns="http://www.w3.org/2000/svg" version="1.1" width="370px" height="424px" style="shape-rendering:geometricPrecision; text-rendering:geometricPrecision; image-rendering:optimizeQuality; fill-rule:evenodd; clip-rule:evenodd" xmlns:xlink="http://www.w3.org/1999/xlink">
<g><path style="opacity:0.371" fill="#0a0a0a" d="M 122.5,-0.5 C 123.833,-0.5 125.167,-0.5 126.5,-0.5C 126.5,0.166667 126.833,0.5 127.5,0.5C 127.672,1.49162 127.338,2.15829 126.5,2.5C 125.128,1.48837 123.795,0.488369 122.5,-0.5 Z"/></g>
<g><path style="opacity:0.968" fill="#ececec" d="M 127.5,0.5 C 178.477,18.9805 220.977,49.3139 255,91.5C 286.124,131.997 296.791,177.331 287,227.5C 280.902,250.539 269.068,270.039 251.5,286C 256.122,292.078 260.622,298.245 265,304.5C 265.667,305.833 265.667,307.167 265,308.5C 256.152,318.258 245.485,325.258 233,329.5C 231.893,329.415 230.893,329.081 230,328.5C 225.624,321.581 221.124,314.748 216.5,308C 168.095,323.386 124.928,314.219 87,280.5C 85.8589,282.609 84.3589,284.442 82.5,286C 86.0406,288.282 86.3739,290.949 83.5,294C 86.1025,295.554 87.2692,297.72 87,300.5C 76.5806,305.252 69.2472,312.919 65,323.5C 63.9929,331.558 62.6596,339.558 61,347.5C 52.7971,364.851 39.2971,371.351 20.5,367C 9.27048,362.283 2.27048,354.117 -0.5,342.5C -0.5,338.833 -0.5,335.167 -0.5,331.5C 4.23066,316.604 14.2307,306.771 29.5,302C 39.2458,294.679 44.4125,284.846 45,272.5C 47.3691,270.092 49.8691,270.092 52.5,272.5C 53.8448,271.653 54.8448,270.487 55.5,269C 57.4406,268.257 59.2739,268.424 61,269.5C 64.5307,265.603 67.6974,261.436 70.5,257C 80.0835,255.875 87.4168,251.208 92.5,243C 93.8333,242.333 95.1667,242.333 96.5,243C 121.887,272.429 152.887,280.763 189.5,268C 162,227.833 134.5,187.667 107,147.5C 92.9896,156.848 78.9896,166.182 65,175.5C 63.7387,175.241 62.7387,174.574 62,173.5C 52.6667,159.5 43.3333,145.5 34,131.5C 33.1751,129.299 33.6751,127.466 35.5,126C 60.6732,109.247 85.6732,92.2474 110.5,75C 123.078,77.4479 135.745,79.7813 148.5,82C 156.53,82.7711 164.53,82.6045 172.5,81.5C 173.442,81.6082 174.275,81.9415 175,82.5C 177.884,86.4343 180.384,90.601 182.5,95C 167.776,106.366 152.442,117.033 136.5,127C 135.978,127.561 135.645,128.228 135.5,129C 164.295,168.75 193.462,208.25 223,247.5C 246.752,226.083 255.919,199.417 250.5,167.5C 246.935,147.639 240.102,128.972 230,111.5C 204.019,68.1846 169.852,32.6846 127.5,5C 126.748,4.32924 126.414,3.4959 126.5,2.5C 127.338,2.15829 127.672,1.49162 127.5,0.5 Z"/></g>
<g><path style="opacity:0.964" fill="#ececec" d="M 369.5,339.5 C 369.5,344.167 369.5,348.833 369.5,353.5C 366.966,355.916 366.966,358.25 369.5,360.5C 369.5,365.5 369.5,370.5 369.5,375.5C 366.963,379.863 363.296,383.03 358.5,385C 360.973,395.198 357.307,402.198 347.5,406C 349.351,412.337 348.351,418.171 344.5,423.5C 316.5,423.5 288.5,423.5 260.5,423.5C 255.413,420.961 250.079,418.961 244.5,417.5C 244.167,391.491 244.5,365.491 245.5,339.5C 255.021,335.913 263.354,330.58 270.5,323.5C 277.285,310.706 281.452,297.039 283,282.5C 288.389,275.046 295.223,273.546 303.5,278C 313.215,285.113 317.548,294.779 316.5,307C 316.302,312.595 315.469,318.095 314,323.5C 313.55,325.519 312.717,327.352 311.5,329C 326.833,329.333 342.167,329.667 357.5,330C 363.149,331.155 367.149,334.322 369.5,339.5 Z"/></g>
<g><path style="opacity:0.937" fill="#ececec" d="M 236.5,423.5 C 225.833,423.5 215.167,423.5 204.5,423.5C 203.312,422.636 202.145,421.636 201,420.5C 200.333,393.167 200.333,365.833 201,338.5C 201.903,337.299 203.069,336.465 204.5,336C 215.167,335.333 225.833,335.333 236.5,336C 237.931,336.465 239.097,337.299 240,338.5C 240.667,365.833 240.667,393.167 240,420.5C 238.855,421.636 237.688,422.636 236.5,423.5 Z"/></g>
</svg>
