<?xml version="1.0" encoding="UTF-8"?>
<!DOCTYPE svg PUBLIC "-//W3C//DTD SVG 1.1//EN" "http://www.w3.org/Graphics/SVG/1.1/DTD/svg11.dtd">
<svg xmlns="http://www.w3.org/2000/svg" version="1.1" width="550px" height="500px" style="shape-rendering:geometricPrecision; text-rendering:geometricPrecision; image-rendering:optimizeQuality; fill-rule:evenodd; clip-rule:evenodd" xmlns:xlink="http://www.w3.org/1999/xlink">
<g><path style="opacity:0.992" fill="#eeeeee" d="M 440.5,231.5 C 424.346,231.538 408.013,231.704 391.5,232C 383.917,233.186 376.417,235.02 369,237.5C 368.098,237.257 367.265,236.923 366.5,236.5C 365.167,236.5 364.5,237.167 364.5,238.5C 343.389,246.735 324.889,259.735 309,277.5C 303.276,284.075 298.276,291.075 294,298.5C 290.603,308.715 286.103,318.382 280.5,327.5C 280.931,328.293 281.265,329.127 281.5,330C 279.639,337.039 278.139,344.205 277,351.5C 276.333,360.833 276.333,370.167 277,379.5C 278.646,385.305 279.646,391.305 280,397.5C 281.367,404.147 283.867,410.314 287.5,416C 286.756,417.039 285.756,417.539 284.5,417.5C 240.052,421.022 196.385,416.855 153.5,405C 137.105,400.091 120.938,394.591 105,388.5C 104.333,319.167 104.333,249.833 105,180.5C 123.557,171.809 141.39,161.975 158.5,151C 173.557,139.746 184.391,125.246 191,107.5C 201.099,80.676 207.765,53.0093 211,24.5C 213.726,14.1063 220.226,7.27297 230.5,4C 257.838,1.5831 277.338,12.7498 289,37.5C 301.137,70.4186 301.137,103.419 289,136.5C 286.962,141.408 284.795,146.241 282.5,151C 324.167,151.333 365.833,151.667 407.5,152C 428.519,154.352 441.353,165.852 446,186.5C 448.632,200.972 445.465,213.972 436.5,225.5C 438.252,227.246 439.585,229.246 440.5,231.5 Z"/></g>
<g><path style="opacity:0.99" fill="#eeeeee" d="M -0.5,169.5 C 25.5021,169.333 51.5021,169.5 77.5,170C 83,171.5 86.5,175 88,180.5C 88.6667,251.5 88.6667,322.5 88,393.5C 86.2983,399.864 82.1317,403.364 75.5,404C 50.1689,404.5 24.8355,404.667 -0.5,404.5C -0.5,326.167 -0.5,247.833 -0.5,169.5 Z"/></g>
<g><path style="opacity:0.886" fill="#ececec" d="M 440.5,231.5 C 446.258,234.326 452.258,236.66 458.5,238.5C 459.518,239.852 460.851,240.852 462.5,241.5C 466.5,242.167 470.5,242.833 474.5,243.5C 526.34,273.707 550.34,319.374 546.5,380.5C 544.612,391.45 542.279,402.284 539.5,413C 526.298,445.551 504.131,470.385 473,487.5C 459.605,491.199 446.438,495.199 433.5,499.5C 418.5,499.5 403.5,499.5 388.5,499.5C 365.055,495.692 344.055,486.525 325.5,472C 307.674,456.712 294.007,438.546 284.5,417.5C 285.756,417.539 286.756,417.039 287.5,416C 283.867,410.314 281.367,404.147 280,397.5C 279.646,391.305 278.646,385.305 277,379.5C 276.333,370.167 276.333,360.833 277,351.5C 278.139,344.205 279.639,337.039 281.5,330C 281.265,329.127 280.931,328.293 280.5,327.5C 286.103,318.382 290.603,308.715 294,298.5C 298.276,291.075 303.276,284.075 309,277.5C 324.889,259.735 343.389,246.735 364.5,238.5C 365.833,238.5 366.5,237.833 366.5,236.5C 367.265,236.923 368.098,237.257 369,237.5C 376.417,235.02 383.917,233.186 391.5,232C 408.013,231.704 424.346,231.538 440.5,231.5 Z M 398.5,255.5 C 415.906,254.646 432.906,256.812 449.5,262C 485.793,277.63 508.793,304.63 518.5,343C 519.148,350.71 520.148,358.377 521.5,366C 517.893,408.604 497.893,440.604 461.5,462C 438.754,473.18 414.754,477.013 389.5,473.5C 377.286,469.483 365.453,464.483 354,458.5C 349.37,455.374 344.87,452.04 340.5,448.5C 304.141,414.332 293.475,373.165 308.5,325C 312.736,316.49 317.403,308.323 322.5,300.5C 325.101,299.309 326.768,297.309 327.5,294.5C 331.615,290.429 335.615,286.263 339.5,282C 350.253,273.706 362.086,266.873 375,261.5C 382.24,258.798 389.74,257.298 397.5,257C 398.056,256.617 398.389,256.117 398.5,255.5 Z M 414.5,282.5 C 414.5,283.833 415.167,284.5 416.5,284.5C 418.626,287.96 421.626,290.293 425.5,291.5C 424.803,295.827 426.47,298.494 430.5,299.5C 431.018,302.887 431.851,306.221 433,309.5C 433.414,309.957 433.914,310.291 434.5,310.5C 434.833,313.5 435.167,316.5 435.5,319.5C 433.507,327.602 431.84,335.935 430.5,344.5C 429.5,344.5 428.5,344.5 427.5,344.5C 426.36,347.025 425.693,349.692 425.5,352.5C 424.5,352.5 423.5,352.5 422.5,352.5C 422.5,354.167 422.5,355.833 422.5,357.5C 421.5,357.5 420.5,357.5 419.5,357.5C 418.127,362.723 417.461,368.056 417.5,373.5C 416.5,373.5 415.5,373.5 414.5,373.5C 414.5,375.833 414.5,378.167 414.5,380.5C 412.167,379.833 409.833,379.167 407.5,378.5C 407.789,372.755 407.289,367.088 406,361.5C 404.989,360.663 403.822,360.33 402.5,360.5C 402.543,357.09 402.043,353.757 401,350.5C 399.13,348.781 396.963,347.781 394.5,347.5C 394.276,343.821 393.942,340.154 393.5,336.5C 392.5,336.5 391.5,336.5 390.5,336.5C 388.948,329.59 388.448,322.59 389,315.5C 389.8,308.95 391.633,302.95 394.5,297.5C 395.552,297.649 396.552,297.483 397.5,297C 399.667,295.241 401.334,293.074 402.5,290.5C 403.689,289.571 405.022,289.238 406.5,289.5C 406.421,288.07 406.754,286.736 407.5,285.5C 409.162,284.673 410.495,283.507 411.5,282C 412.749,281.26 413.749,281.427 414.5,282.5 Z M 446.5,375.5 C 447.71,375.068 448.71,374.401 449.5,373.5C 448.784,368.659 450.117,364.659 453.5,361.5C 453.5,359.167 453.5,356.833 453.5,354.5C 454.082,351.66 455.582,349.327 458,347.5C 458.633,343.653 459.467,339.986 460.5,336.5C 461.833,336.5 462.5,335.833 462.5,334.5C 462.12,332.302 462.787,330.635 464.5,329.5C 465.674,328.486 466.34,327.153 466.5,325.5C 468.451,325.773 469.951,325.107 471,323.5C 471.71,324.973 472.876,325.64 474.5,325.5C 474.5,326.5 474.5,327.5 474.5,328.5C 475.5,328.5 476.5,328.5 477.5,328.5C 477.69,332.923 478.357,337.256 479.5,341.5C 480.5,341.5 481.5,341.5 482.5,341.5C 485.967,350.992 489.301,360.659 492.5,370.5C 492.167,371.5 491.833,372.5 491.5,373.5C 489.967,371.711 488.967,369.711 488.5,367.5C 485.014,366.047 481.347,365.381 477.5,365.5C 477.5,364.5 477.5,363.5 477.5,362.5C 472.167,362.5 466.833,362.5 461.5,362.5C 461.5,363.5 461.5,364.5 461.5,365.5C 458.692,365.693 456.025,366.36 453.5,367.5C 453.039,371.212 452.373,374.879 451.5,378.5C 449.833,378.5 448.167,378.5 446.5,378.5C 446.5,377.5 446.5,376.5 446.5,375.5 Z M 374.5,373.5 C 374.672,374.492 374.338,375.158 373.5,375.5C 372.549,374.081 372.216,372.415 372.5,370.5C 371.167,370.5 369.833,370.5 368.5,370.5C 368.579,369.07 368.246,367.736 367.5,366.5C 365.709,365.83 364.042,365.163 362.5,364.5C 362.5,363.167 361.833,362.5 360.5,362.5C 355.167,362.5 349.833,362.5 344.5,362.5C 344.5,363.5 344.5,364.5 344.5,365.5C 341.753,365.187 339.086,365.52 336.5,366.5C 335.561,368.053 334.394,369.387 333,370.5C 332.5,370.167 332,369.833 331.5,369.5C 332.791,366.351 334.291,363.351 336,360.5C 337.623,356.013 338.456,351.347 338.5,346.5C 339.5,346.5 340.5,346.5 341.5,346.5C 340.372,341.581 341.872,337.915 346,335.5C 346.333,333.833 346.667,332.167 347,330.5C 348.972,329.695 350.472,328.361 351.5,326.5C 353.006,325.253 354.506,325.253 356,326.5C 357.202,328.677 357.702,331.011 357.5,333.5C 360.038,334.677 362.371,336.344 364.5,338.5C 365.48,341.086 365.813,343.753 365.5,346.5C 366.5,346.5 367.5,346.5 368.5,346.5C 369.879,352.991 370.712,359.658 371,366.5C 372.842,368.546 374.009,370.88 374.5,373.5 Z M 381.5,350.5 C 383.476,351.427 383.809,352.76 382.5,354.5C 381.571,353.311 381.238,351.978 381.5,350.5 Z M 384.5,355.5 C 384.56,354.957 384.893,354.624 385.5,354.5C 387.039,357.403 387.873,360.403 388,363.5C 386.108,361.113 384.942,358.447 384.5,355.5 Z M 436.5,355.5 C 437.978,355.238 439.311,355.571 440.5,356.5C 438.688,359.899 438.021,363.566 438.5,367.5C 437.5,367.5 436.5,367.5 435.5,367.5C 435.5,371.167 435.5,374.833 435.5,378.5C 433.263,379.449 430.929,380.116 428.5,380.5C 428.5,377.833 428.5,375.167 428.5,372.5C 429.822,372.67 430.989,372.337 432,371.5C 432.333,369.167 432.667,366.833 433,364.5C 436.045,362.325 437.211,359.325 436.5,355.5 Z M 388.5,366.5 C 390.65,367.815 391.984,369.815 392.5,372.5C 393.48,375.086 393.813,377.753 393.5,380.5C 392.5,380.5 391.5,380.5 390.5,380.5C 389.204,375.938 388.538,371.271 388.5,366.5 Z M 368.5,393.5 C 397.833,393.5 427.167,393.5 456.5,393.5C 456.5,394.5 456.5,395.5 456.5,396.5C 426.952,398.451 397.286,399.117 367.5,398.5C 367.366,396.708 367.699,395.042 368.5,393.5 Z M 402.5,411.5 C 409.211,411.287 415.877,411.62 422.5,412.5C 422.5,416.167 422.5,419.833 422.5,423.5C 423.5,423.5 424.5,423.5 425.5,423.5C 425.5,426.5 425.5,429.5 425.5,432.5C 424.5,432.5 423.5,432.5 422.5,432.5C 422.5,433.5 422.5,434.5 422.5,435.5C 415.971,437.579 409.305,437.912 402.5,436.5C 401.974,434.77 400.974,433.436 399.5,432.5C 398.526,430.257 398.192,427.924 398.5,425.5C 399.5,425.5 400.5,425.5 401.5,425.5C 401.998,420.848 402.331,416.181 402.5,411.5 Z M 453.5,427.5 C 452.738,425.738 451.404,424.738 449.5,424.5C 449.5,422.833 449.5,421.167 449.5,419.5C 448.5,419.5 447.5,419.5 446.5,419.5C 446.5,416.833 446.5,414.167 446.5,411.5C 448.167,411.5 449.833,411.5 451.5,411.5C 451.339,415.723 452.006,419.723 453.5,423.5C 456.167,424.366 458.833,425.366 461.5,426.5C 460.675,427.386 459.675,427.719 458.5,427.5C 458.5,428.5 458.5,429.5 458.5,430.5C 457.167,430.5 455.833,430.5 454.5,430.5C 454.737,429.209 454.404,428.209 453.5,427.5 Z M 372.5,412.5 C 373.5,412.5 374.5,412.5 375.5,412.5C 374.777,416.536 373.777,420.536 372.5,424.5C 370.344,425.983 369.01,427.983 368.5,430.5C 366.5,430.5 364.5,430.5 362.5,430.5C 362.011,426.513 363.678,424.18 367.5,423.5C 367.5,422.5 367.5,421.5 367.5,420.5C 369.167,420.5 370.833,420.5 372.5,420.5C 372.5,417.833 372.5,415.167 372.5,412.5 Z"/></g>
<g><path style="opacity:1" fill="#dfdfdf" d="M 366.5,236.5 C 366.5,237.833 365.833,238.5 364.5,238.5C 364.5,237.167 365.167,236.5 366.5,236.5 Z"/></g>
<g><path style="opacity:0.754" fill="#ededed" d="M 425.5,275.5 C 425.5,276.833 426.167,277.5 427.5,277.5C 428.919,278.451 430.585,278.784 432.5,278.5C 431.599,282.241 432.932,284.241 436.5,284.5C 436.961,286.916 438.294,288.75 440.5,290C 441.078,291.811 441.578,293.645 442,295.5C 443.011,296.337 444.178,296.67 445.5,296.5C 446.029,308.167 446.696,319.833 447.5,331.5C 448.452,329.955 448.785,328.288 448.5,326.5C 449.5,326.5 450.5,326.5 451.5,326.5C 452.64,323.975 453.307,321.308 453.5,318.5C 454.791,318.737 455.791,318.404 456.5,317.5C 457.833,317.5 458.5,316.833 458.5,315.5C 458.821,313.952 459.821,313.285 461.5,313.5C 461.5,312.5 461.5,311.5 461.5,310.5C 466.833,310.5 472.167,310.5 477.5,310.5C 477.5,311.5 477.5,312.5 477.5,313.5C 481.833,314.5 484.5,317.167 485.5,321.5C 486.5,321.5 487.5,321.5 488.5,321.5C 488.273,324.438 489.273,326.771 491.5,328.5C 491.5,329.833 492.167,330.5 493.5,330.5C 493.5,331.833 493.5,333.167 493.5,334.5C 494.5,334.5 495.5,334.5 496.5,334.5C 497.811,339.394 498.477,344.394 498.5,349.5C 499.5,349.5 500.5,349.5 501.5,349.5C 502.048,356.514 502.715,363.514 503.5,370.5C 504.5,370.5 505.5,370.5 506.5,370.5C 506.5,373.833 506.5,377.167 506.5,380.5C 507.5,380.5 508.5,380.5 509.5,380.5C 509.5,387.833 509.5,395.167 509.5,402.5C 505.445,402.824 501.445,402.491 497.5,401.5C 495.829,399.49 495.162,397.157 495.5,394.5C 494.5,394.5 493.5,394.5 492.5,394.5C 492.741,392.114 492.075,390.114 490.5,388.5C 489.817,386.824 488.483,386.157 486.5,386.5C 483.516,386.213 482.183,384.546 482.5,381.5C 480.833,381.5 479.167,381.5 477.5,381.5C 477.5,380.167 477.5,378.833 477.5,377.5C 475.064,377.683 472.897,377.016 471,375.5C 469.67,376.582 468.17,377.249 466.5,377.5C 465.105,375.946 464.439,376.279 464.5,378.5C 464.747,379.713 465.414,380.38 466.5,380.5C 467.818,390.735 467.818,401.069 466.5,411.5C 465.105,409.946 464.439,410.279 464.5,412.5C 464.747,413.713 465.414,414.38 466.5,414.5C 468.716,414.275 470.383,415.108 471.5,417C 475.486,417.499 479.486,417.666 483.5,417.5C 483.5,421.167 483.5,424.833 483.5,428.5C 482.5,428.5 481.5,428.5 480.5,428.5C 480.684,431.321 479.351,432.988 476.5,433.5C 475.614,434.325 475.281,435.325 475.5,436.5C 472.975,437.64 470.308,438.307 467.5,438.5C 467.5,439.5 467.5,440.5 467.5,441.5C 460.167,441.5 452.833,441.5 445.5,441.5C 444.134,436.694 441.134,435.027 436.5,436.5C 436.5,438.167 436.5,439.833 436.5,441.5C 435.5,441.5 434.5,441.5 433.5,441.5C 433.817,445.172 432.151,446.838 428.5,446.5C 428.5,447.5 428.5,448.5 428.5,449.5C 423.186,450.159 417.853,450.826 412.5,451.5C 406.488,450.731 400.488,449.897 394.5,449C 388.589,443.638 385.755,436.804 386,428.5C 385.506,430.134 385.34,431.801 385.5,433.5C 384.167,433.5 382.833,433.5 381.5,433.5C 381.5,435.167 381.5,436.833 381.5,438.5C 380.167,438.5 378.833,438.5 377.5,438.5C 377.5,439.5 377.5,440.5 377.5,441.5C 370.492,441.666 363.492,441.5 356.5,441C 354.584,439.183 352.251,438.016 349.5,437.5C 348.147,436.476 347.48,435.143 347.5,433.5C 346.5,433.5 345.5,433.5 344.5,433.5C 344.425,430.794 344.092,428.127 343.5,425.5C 342.167,425.5 340.833,425.5 339.5,425.5C 339.5,422.833 339.5,420.167 339.5,417.5C 343.833,417.5 348.167,417.5 352.5,417.5C 352.5,416.5 352.5,415.5 352.5,414.5C 354.167,414.5 355.833,414.5 357.5,414.5C 354.833,402.167 354.833,389.833 357.5,377.5C 353.876,375.974 350.876,376.807 348.5,380C 346.187,380.662 343.854,381.162 341.5,381.5C 341.649,382.552 341.483,383.552 341,384.5C 338.564,386.467 336.064,388.134 333.5,389.5C 333.5,392.833 331.833,394.5 328.5,394.5C 328.5,396.167 328.5,397.833 328.5,399.5C 327.5,399.5 326.5,399.5 325.5,399.5C 325.5,400.5 325.5,401.5 325.5,402.5C 322.167,402.5 318.833,402.5 315.5,402.5C 314.609,401.89 313.609,401.557 312.5,401.5C 312.5,400.833 312.5,400.167 312.5,399.5C 313.914,397.402 313.248,396.402 310.5,396.5C 310.5,395.833 310.5,395.167 310.5,394.5C 310.5,393.833 310.833,393.5 311.5,393.5C 313.344,391.721 314.01,389.388 313.5,386.5C 314.833,386.5 316.167,386.5 317.5,386.5C 317.518,376.82 317.852,367.153 318.5,357.5C 319.5,357.5 320.5,357.5 321.5,357.5C 320.953,352.456 322.287,348.123 325.5,344.5C 326.48,341.914 326.813,339.247 326.5,336.5C 327.833,336.5 329.167,336.5 330.5,336.5C 330.833,333.167 331.167,329.833 331.5,326.5C 332.5,326.5 333.5,326.5 334.5,326.5C 335.259,322.14 336.926,318.14 339.5,314.5C 341.045,313.548 342.712,313.215 344.5,313.5C 344.5,312.5 344.5,311.5 344.5,310.5C 350.842,310.334 357.175,310.5 363.5,311C 367.7,313.235 369.367,316.735 368.5,321.5C 370.963,321.781 373.13,322.781 375,324.5C 375.333,317.833 375.667,311.167 376,304.5C 377.895,302.223 379.062,299.556 379.5,296.5C 381.144,293.689 383.31,291.356 386,289.5C 386.766,286.42 387.766,283.42 389,280.5C 391.562,279.636 393.395,277.969 394.5,275.5C 396.071,274.691 397.738,274.357 399.5,274.5C 399.746,271.53 401.412,270.197 404.5,270.5C 404.5,269.167 404.5,267.833 404.5,266.5C 409.179,266.334 413.845,266.501 418.5,267C 419.191,268.067 419.691,269.234 420,270.5C 422.617,271.351 424.451,273.018 425.5,275.5 Z M 414.5,282.5 C 414.5,283.833 415.167,284.5 416.5,284.5C 418.626,287.96 421.626,290.293 425.5,291.5C 424.803,295.827 426.47,298.494 430.5,299.5C 431.018,302.887 431.851,306.221 433,309.5C 433.414,309.957 433.914,310.291 434.5,310.5C 434.833,313.5 435.167,316.5 435.5,319.5C 433.507,327.602 431.84,335.935 430.5,344.5C 429.5,344.5 428.5,344.5 427.5,344.5C 426.36,347.025 425.693,349.692 425.5,352.5C 424.5,352.5 423.5,352.5 422.5,352.5C 422.5,354.167 422.5,355.833 422.5,357.5C 421.5,357.5 420.5,357.5 419.5,357.5C 418.127,362.723 417.461,368.056 417.5,373.5C 416.5,373.5 415.5,373.5 414.5,373.5C 414.5,375.833 414.5,378.167 414.5,380.5C 412.167,379.833 409.833,379.167 407.5,378.5C 407.789,372.755 407.289,367.088 406,361.5C 404.989,360.663 403.822,360.33 402.5,360.5C 402.543,357.09 402.043,353.757 401,350.5C 399.13,348.781 396.963,347.781 394.5,347.5C 394.276,343.821 393.942,340.154 393.5,336.5C 392.5,336.5 391.5,336.5 390.5,336.5C 388.948,329.59 388.448,322.59 389,315.5C 389.8,308.95 391.633,302.95 394.5,297.5C 395.552,297.649 396.552,297.483 397.5,297C 399.667,295.241 401.334,293.074 402.5,290.5C 403.689,289.571 405.022,289.238 406.5,289.5C 406.421,288.07 406.754,286.736 407.5,285.5C 409.162,284.673 410.495,283.507 411.5,282C 412.749,281.26 413.749,281.427 414.5,282.5 Z M 446.5,375.5 C 447.71,375.068 448.71,374.401 449.5,373.5C 448.784,368.659 450.117,364.659 453.5,361.5C 453.5,359.167 453.5,356.833 453.5,354.5C 454.082,351.66 455.582,349.327 458,347.5C 458.633,343.653 459.467,339.986 460.5,336.5C 461.833,336.5 462.5,335.833 462.5,334.5C 462.12,332.302 462.787,330.635 464.5,329.5C 465.674,328.486 466.34,327.153 466.5,325.5C 468.451,325.773 469.951,325.107 471,323.5C 471.71,324.973 472.876,325.64 474.5,325.5C 474.5,326.5 474.5,327.5 474.5,328.5C 475.5,328.5 476.5,328.5 477.5,328.5C 477.69,332.923 478.357,337.256 479.5,341.5C 480.5,341.5 481.5,341.5 482.5,341.5C 485.967,350.992 489.301,360.659 492.5,370.5C 492.167,371.5 491.833,372.5 491.5,373.5C 489.967,371.711 488.967,369.711 488.5,367.5C 485.014,366.047 481.347,365.381 477.5,365.5C 477.5,364.5 477.5,363.5 477.5,362.5C 472.167,362.5 466.833,362.5 461.5,362.5C 461.5,363.5 461.5,364.5 461.5,365.5C 458.692,365.693 456.025,366.36 453.5,367.5C 453.039,371.212 452.373,374.879 451.5,378.5C 449.833,378.5 448.167,378.5 446.5,378.5C 446.5,377.5 446.5,376.5 446.5,375.5 Z M 374.5,373.5 C 374.672,374.492 374.338,375.158 373.5,375.5C 372.549,374.081 372.216,372.415 372.5,370.5C 371.167,370.5 369.833,370.5 368.5,370.5C 368.579,369.07 368.246,367.736 367.5,366.5C 365.709,365.83 364.042,365.163 362.5,364.5C 362.5,363.167 361.833,362.5 360.5,362.5C 355.167,362.5 349.833,362.5 344.5,362.5C 344.5,363.5 344.5,364.5 344.5,365.5C 341.753,365.187 339.086,365.52 336.5,366.5C 335.561,368.053 334.394,369.387 333,370.5C 332.5,370.167 332,369.833 331.5,369.5C 332.791,366.351 334.291,363.351 336,360.5C 337.623,356.013 338.456,351.347 338.5,346.5C 339.5,346.5 340.5,346.5 341.5,346.5C 340.372,341.581 341.872,337.915 346,335.5C 346.333,333.833 346.667,332.167 347,330.5C 348.972,329.695 350.472,328.361 351.5,326.5C 353.006,325.253 354.506,325.253 356,326.5C 357.202,328.677 357.702,331.011 357.5,333.5C 360.038,334.677 362.371,336.344 364.5,338.5C 365.48,341.086 365.813,343.753 365.5,346.5C 366.5,346.5 367.5,346.5 368.5,346.5C 369.879,352.991 370.712,359.658 371,366.5C 372.842,368.546 374.009,370.88 374.5,373.5 Z M 381.5,350.5 C 381.238,351.978 381.571,353.311 382.5,354.5C 383.809,352.76 383.476,351.427 381.5,350.5 Z M 384.5,355.5 C 384.942,358.447 386.108,361.113 388,363.5C 387.873,360.403 387.039,357.403 385.5,354.5C 384.893,354.624 384.56,354.957 384.5,355.5 Z M 436.5,355.5 C 437.211,359.325 436.045,362.325 433,364.5C 432.667,366.833 432.333,369.167 432,371.5C 430.989,372.337 429.822,372.67 428.5,372.5C 428.5,375.167 428.5,377.833 428.5,380.5C 430.929,380.116 433.263,379.449 435.5,378.5C 435.5,374.833 435.5,371.167 435.5,367.5C 436.5,367.5 437.5,367.5 438.5,367.5C 438.021,363.566 438.688,359.899 440.5,356.5C 439.311,355.571 437.978,355.238 436.5,355.5 Z M 388.5,366.5 C 388.538,371.271 389.204,375.938 390.5,380.5C 391.5,380.5 392.5,380.5 393.5,380.5C 393.813,377.753 393.48,375.086 392.5,372.5C 391.984,369.815 390.65,367.815 388.5,366.5 Z M 368.5,393.5 C 367.699,395.042 367.366,396.708 367.5,398.5C 397.286,399.117 426.952,398.451 456.5,396.5C 456.5,395.5 456.5,394.5 456.5,393.5C 427.167,393.5 397.833,393.5 368.5,393.5 Z M 402.5,411.5 C 402.331,416.181 401.998,420.848 401.5,425.5C 400.5,425.5 399.5,425.5 398.5,425.5C 398.192,427.924 398.526,430.257 399.5,432.5C 400.974,433.436 401.974,434.77 402.5,436.5C 409.305,437.912 415.971,437.579 422.5,435.5C 422.5,434.5 422.5,433.5 422.5,432.5C 423.5,432.5 424.5,432.5 425.5,432.5C 425.5,429.5 425.5,426.5 425.5,423.5C 424.5,423.5 423.5,423.5 422.5,423.5C 422.5,419.833 422.5,416.167 422.5,412.5C 415.877,411.62 409.211,411.287 402.5,411.5 Z M 453.5,427.5 C 452.738,425.738 451.404,424.738 449.5,424.5C 449.5,422.833 449.5,421.167 449.5,419.5C 448.5,419.5 447.5,419.5 446.5,419.5C 446.5,416.833 446.5,414.167 446.5,411.5C 448.167,411.5 449.833,411.5 451.5,411.5C 451.339,415.723 452.006,419.723 453.5,423.5C 456.167,424.366 458.833,425.366 461.5,426.5C 460.675,427.386 459.675,427.719 458.5,427.5C 458.5,428.5 458.5,429.5 458.5,430.5C 457.167,430.5 455.833,430.5 454.5,430.5C 454.737,429.209 454.404,428.209 453.5,427.5 Z M 372.5,412.5 C 372.5,415.167 372.5,417.833 372.5,420.5C 370.833,420.5 369.167,420.5 367.5,420.5C 367.5,421.5 367.5,422.5 367.5,423.5C 363.678,424.18 362.011,426.513 362.5,430.5C 364.5,430.5 366.5,430.5 368.5,430.5C 369.01,427.983 370.344,425.983 372.5,424.5C 373.777,420.536 374.777,416.536 375.5,412.5C 374.5,412.5 373.5,412.5 372.5,412.5 Z"/></g>
<g><path style="opacity:0.018" fill="#f9f9f9" d="M 425.5,275.5 C 426.833,275.5 427.5,276.167 427.5,277.5C 427.5,276.167 426.833,275.5 425.5,275.5 Z"/></g>
<g><path style="opacity:0.028" fill="#edeeed" d="M 347.5,282.5 C 348.203,279.139 349.537,278.806 351.5,281.5C 350.311,282.429 348.978,282.762 347.5,282.5 Z"/></g>
<g><path style="opacity:0.011" fill="#fcfcfc" d="M 414.5,282.5 C 415.833,282.5 416.5,283.167 416.5,284.5C 416.5,283.167 415.833,282.5 414.5,282.5 Z"/></g>
<g><path style="opacity:0.038" fill="#efefef" d="M 347.5,282.5 C 346.076,286.218 343.409,288.551 339.5,289.5C 339.679,287.394 340.679,285.728 342.5,284.5C 344.134,284.032 345.3,283.032 346,281.5C 346.383,282.056 346.883,282.389 347.5,282.5 Z"/></g>
<g><path style="opacity:0.01" fill="#fefffe" d="M 458.5,315.5 C 458.5,316.833 457.833,317.5 456.5,317.5C 456.5,316.167 457.167,315.5 458.5,315.5 Z"/></g>
<g><path style="opacity:0.008" fill="#fefffe" d="M 466.5,325.5 C 466.34,327.153 465.674,328.486 464.5,329.5C 464.157,327.517 464.824,326.183 466.5,325.5 Z"/></g>
<g><path style="opacity:0.011" fill="#fdfdfd" d="M 491.5,328.5 C 492.833,328.5 493.5,329.167 493.5,330.5C 493.5,329.167 492.833,328.5 491.5,328.5 Z"/></g>
<g><path style="opacity:0.006" fill="#fcfcfc" d="M 462.5,334.5 C 462.5,335.833 461.833,336.5 460.5,336.5C 460.5,335.167 461.167,334.5 462.5,334.5 Z"/></g>
<g><path style="opacity:0.015" fill="#e3e3e3" d="M 453.5,354.5 C 453.5,356.833 453.5,359.167 453.5,361.5C 452.275,360.848 451.608,359.681 451.5,358C 451.608,356.319 452.275,355.152 453.5,354.5 Z"/></g>
<g><path style="opacity:0.011" fill="#fefffe" d="M 360.5,362.5 C 361.833,362.5 362.5,363.167 362.5,364.5C 361.167,364.5 360.5,363.833 360.5,362.5 Z"/></g>
<g><path style="opacity:0.007" fill="#fefffe" d="M 306.5,370.5 C 307.725,371.152 308.392,372.319 308.5,374C 307.573,379.923 306.573,379.923 305.5,374C 305.648,372.744 305.982,371.577 306.5,370.5 Z"/></g>
<g><path style="opacity:0.009" fill="#fefffe" d="M 374.5,373.5 C 375.782,374.708 375.782,376.042 374.5,377.5C 373.702,377.043 373.369,376.376 373.5,375.5C 374.338,375.158 374.672,374.492 374.5,373.5 Z"/></g>
<g><path style="opacity:0.008" fill="#fefffe" d="M 449.5,373.5 C 448.71,374.401 447.71,375.068 446.5,375.5C 446.821,373.952 447.821,373.285 449.5,373.5 Z"/></g>
<g><path style="opacity:0.011" fill="#fefefe" d="M 466.5,377.5 C 466.5,378.5 466.5,379.5 466.5,380.5C 465.414,380.38 464.747,379.713 464.5,378.5C 464.439,376.279 465.105,375.946 466.5,377.5 Z"/></g>
<g><path style="opacity:0.008" fill="#fefefe" d="M 310.5,386.5 C 309.833,386.833 309.167,387.167 308.5,387.5C 307.079,384.492 307.246,381.492 309,378.5C 310.375,380.937 310.875,383.603 310.5,386.5 Z"/></g>
<g><path style="opacity:0.061" fill="#ececec" d="M 310.5,386.5 C 312.048,386.821 312.715,387.821 312.5,389.5C 311.5,389.5 310.5,389.5 309.5,389.5C 308.662,389.158 308.328,388.492 308.5,387.5C 309.167,387.167 309.833,386.833 310.5,386.5 Z"/></g>
<g><path style="opacity:0.006" fill="#fefffe" d="M 486.5,386.5 C 488.483,386.157 489.817,386.824 490.5,388.5C 488.847,388.34 487.514,387.674 486.5,386.5 Z"/></g>
<g><path style="opacity:0.008" fill="#fefffe" d="M 309.5,389.5 C 310.5,389.5 311.5,389.5 312.5,389.5C 312.167,390.833 311.833,392.167 311.5,393.5C 310.833,393.5 310.5,393.833 310.5,394.5C 309.549,393.081 309.216,391.415 309.5,389.5 Z"/></g>
<g><path style="opacity:0.006" fill="#fefffe" d="M 310.5,396.5 C 313.248,396.402 313.914,397.402 312.5,399.5C 311.094,399.027 310.427,398.027 310.5,396.5 Z"/></g>
<g><path style="opacity:0.005" fill="#fdfdfd" d="M 312.5,401.5 C 313.609,401.557 314.609,401.89 315.5,402.5C 315.167,403.167 314.833,403.833 314.5,404.5C 313.094,404.027 312.427,403.027 312.5,401.5 Z"/></g>
<g><path style="opacity:0.006" fill="#fefffe" d="M 314.5,404.5 C 315.586,404.62 316.253,405.287 316.5,406.5C 316.167,407.167 315.833,407.833 315.5,408.5C 314.571,407.311 314.238,405.978 314.5,404.5 Z"/></g>
<g><path style="opacity:0.005" fill="#fefffe" d="M 316.5,409.5 C 318.76,410.238 318.927,411.238 317,412.5C 315.272,411.648 315.105,410.648 316.5,409.5 Z"/></g>
<g><path style="opacity:0.01" fill="#fefefe" d="M 466.5,411.5 C 466.5,412.5 466.5,413.5 466.5,414.5C 465.414,414.38 464.747,413.713 464.5,412.5C 464.439,410.279 465.105,409.946 466.5,411.5 Z"/></g>
<g><path style="opacity:0.103" fill="#f7f7f7" d="M 449.5,424.5 C 451.404,424.738 452.738,425.738 453.5,427.5C 451.027,427.912 449.694,426.912 449.5,424.5 Z"/></g>
</svg>
