<?xml version="1.0" encoding="UTF-8"?>
<!DOCTYPE svg PUBLIC "-//W3C//DTD SVG 1.1//EN" "http://www.w3.org/Graphics/SVG/1.1/DTD/svg11.dtd">
<svg xmlns="http://www.w3.org/2000/svg" version="1.1" width="312px" height="585px" style="shape-rendering:geometricPrecision; text-rendering:geometricPrecision; image-rendering:optimizeQuality; fill-rule:evenodd; clip-rule:evenodd" xmlns:xlink="http://www.w3.org/1999/xlink">
<g><path style="opacity:1" fill="#ececec" d="M 142.5,3.5 C 146.5,3.5 150.5,3.5 154.5,3.5C 155.152,4.72507 156.319,5.39174 158,5.5C 160.379,6.1949 162.545,6.1949 164.5,5.5C 165.167,5.5 165.833,5.5 166.5,5.5C 172.938,8.32707 178.772,12.3271 184,17.5C 184.399,17.2716 184.565,16.9382 184.5,16.5C 186.588,18.3356 187.921,20.6689 188.5,23.5C 187.243,24.6226 187.576,25.2893 189.5,25.5C 192.315,39.1879 187.982,49.8546 176.5,57.5C 176.095,56.4502 175.429,56.4502 174.5,57.5C 173.167,58.1667 173.167,58.8333 174.5,59.5C 176.811,60.2135 178.978,61.2135 181,62.5C 181.399,62.2716 181.565,61.9382 181.5,61.5C 182.492,61.3284 183.158,61.6618 183.5,62.5C 183.062,62.4346 182.728,62.6012 182.5,63C 185.295,64.7932 187.795,66.9598 190,69.5C 190.383,68.944 190.883,68.6107 191.5,68.5C 192.338,68.8417 192.672,69.5084 192.5,70.5C 192.062,70.4346 191.728,70.6012 191.5,71C 194.704,73.8688 197.537,77.0354 200,80.5C 200.399,80.2716 200.565,79.9382 200.5,79.5C 201.338,79.8417 201.672,80.5084 201.5,81.5C 201.062,81.4346 200.728,81.6012 200.5,82C 203.248,85.7507 205.582,89.7507 207.5,94C 206.132,95.8734 204.466,97.54 202.5,99C 202.728,99.3988 203.062,99.5654 203.5,99.5C 203.5,100.167 203.167,100.5 202.5,100.5C 201.883,100.389 201.383,100.056 201,99.5C 197.167,102.667 193.333,105.833 189.5,109C 189.728,109.399 190.062,109.565 190.5,109.5C 188.909,111.633 186.909,113.299 184.5,114.5C 182.495,113.876 180.828,114.71 179.5,117C 179.728,117.399 180.062,117.565 180.5,117.5C 175.872,121.156 171.206,124.822 166.5,128.5C 165.883,128.389 165.383,128.056 165,127.5C 163.167,129.333 161.333,131.167 159.5,133C 160.056,133.383 160.389,133.883 160.5,134.5C 160.5,135.167 160.167,135.5 159.5,135.5C 159.19,134.262 158.69,134.262 158,135.5C 157.167,137.167 156.333,138.833 155.5,140.5C 155.624,141.107 155.957,141.44 156.5,141.5C 156.5,141.833 156.5,142.167 156.5,142.5C 154.836,143.949 154.002,145.949 154,148.5C 153.343,156.515 153.509,164.515 154.5,172.5C 154.77,183.043 149.77,186.876 139.5,184C 136.397,182.561 133.564,180.727 131,178.5C 124,165.167 117,151.833 110,138.5C 106.377,133.679 101.544,131.679 95.5,132.5C 94.9032,131.861 94.0698,131.528 93,131.5C 91.6244,131.684 90.7911,132.351 90.5,133.5C 89.1667,133.5 87.8333,133.5 86.5,133.5C 85.3784,132.844 84.0451,132.511 82.5,132.5C 80.6672,132.585 79.3339,133.252 78.5,134.5C 74.1241,134.84 69.7908,135.507 65.5,136.5C 63.3472,136.439 62.0138,135.439 61.5,133.5C 62.1669,118.645 63.0002,103.645 64,88.5C 65.4054,78.5448 67.9054,68.8782 71.5,59.5C 71.3764,58.8933 71.0431,58.56 70.5,58.5C 70.3284,57.5084 70.6618,56.8417 71.5,56.5C 72.8065,56.1457 73.8065,54.8124 74.5,52.5C 74.3764,51.8933 74.0431,51.56 73.5,51.5C 73.3284,50.5084 73.6618,49.8417 74.5,49.5C 80.7847,40.0256 88.118,31.1923 96.5,23C 103.045,18.134 109.378,13.9673 115.5,10.5C 115.842,9.66175 116.508,9.32842 117.5,9.5C 117.56,10.0431 117.893,10.3764 118.5,10.5C 126.681,7.88593 134.681,5.55259 142.5,3.5 Z"/></g>
<g><path style="opacity:0.533" fill="#8c8c8c" d="M 154.5,3.5 C 157.939,3.78777 161.272,4.45444 164.5,5.5C 162.545,6.1949 160.379,6.1949 158,5.5C 156.319,5.39174 155.152,4.72507 154.5,3.5 Z"/></g>
<g><path style="opacity:0.702" fill="#797979" d="M 142.5,3.5 C 134.681,5.55259 126.681,7.88593 118.5,10.5C 117.893,10.3764 117.56,10.0431 117.5,9.5C 125.418,6.24544 133.751,4.24544 142.5,3.5 Z"/></g>
<g><path style="opacity:0.576" fill="#979797" d="M 166.5,5.5 C 173.812,7.14971 179.812,10.8164 184.5,16.5C 184.565,16.9382 184.399,17.2716 184,17.5C 178.772,12.3271 172.938,8.32707 166.5,5.5 Z"/></g>
<g><path style="opacity:0.624" fill="#868786" d="M 115.5,10.5 C 109.378,13.9673 103.045,18.134 96.5,23C 88.118,31.1923 80.7847,40.0256 74.5,49.5C 83.308,31.3579 96.9747,18.3579 115.5,10.5 Z"/></g>
<g><path style="opacity:0.847" fill="#858685" d="M 157.5,16.5 C 160.518,16.3354 163.518,16.502 166.5,17C 167.667,17.5 168.5,18.3333 169,19.5C 170.073,18.7203 171.24,18.887 172.5,20C 173.636,21.5298 174.636,22.8631 175.5,24C 174.5,24.6667 173.5,24.6667 172.5,24C 164.713,15.4037 157.38,15.9037 150.5,25.5C 149.692,25.1924 149.025,24.6924 148.5,24C 151.106,20.8816 154.106,18.3816 157.5,16.5 Z"/></g>
<g><path style="opacity:0.149" fill="#898989" d="M 159.5,22.5 C 158.833,22.5 158.5,22.8333 158.5,23.5C 157.508,23.3284 156.842,23.6618 156.5,24.5C 155.833,24.5 155.5,24.8333 155.5,25.5C 153.158,25.2252 153.158,24.3919 155.5,23C 156.946,21.702 158.279,21.5354 159.5,22.5 Z"/></g>
<g><path style="opacity:1" fill="#e7e7e7" d="M 170.5,29.5 C 170.5,30.8333 170.5,32.1667 170.5,33.5C 168.856,33.8102 167.856,34.8102 167.5,36.5C 164.98,37.9182 162.313,38.9182 159.5,39.5C 159.167,39.5 158.833,39.5 158.5,39.5C 158.167,39.5 157.833,39.5 157.5,39.5C 157.5,38.8333 157.167,38.5 156.5,38.5C 156.5,37.8333 156.167,37.5 155.5,37.5C 155.5,36.8333 155.167,36.5 154.5,36.5C 154.5,35.8333 154.5,35.1667 154.5,34.5C 155.224,31.9174 156.057,29.2507 157,26.5C 159.243,24.718 161.743,24.218 164.5,25C 166.702,26.3878 168.702,27.8878 170.5,29.5 Z"/></g>
<g><path style="opacity:0.847" fill="#6c6c6c" d="M 188.5,23.5 C 189.338,23.8417 189.672,24.5084 189.5,25.5C 187.576,25.2893 187.243,24.6226 188.5,23.5 Z"/></g>
<g><path style="opacity:0.032" fill="#000000" d="M 153.5,28.5 C 153.833,28.5 154.167,28.5 154.5,28.5C 154.5,30.5 154.5,32.5 154.5,34.5C 154.167,34.5 153.833,34.5 153.5,34.5C 152.833,34.5 152.5,34.1667 152.5,33.5C 153.434,32.4324 153.768,31.099 153.5,29.5C 153.5,29.1667 153.5,28.8333 153.5,28.5 Z"/></g>
<g><path style="opacity:0.469" fill="#8b8b8b" d="M 173.5,26.5 C 174.91,25.1716 176.076,25.5049 177,27.5C 177.497,30.146 177.664,32.8127 177.5,35.5C 176.325,35.719 175.325,35.3857 174.5,34.5C 175.415,33.6721 176.081,32.6721 176.5,31.5C 175.604,29.664 174.604,27.9974 173.5,26.5 Z"/></g>
<g><path style="opacity:0.784" fill="#888988" d="M 147.5,26.5 C 148.552,26.3505 149.552,26.5172 150.5,27C 149.726,29.405 149.226,31.905 149,34.5C 145.987,33.0776 145.82,31.4109 148.5,29.5C 147.873,28.5832 147.539,27.5832 147.5,26.5 Z"/></g>
<g><path style="opacity:0.878" fill="#8f8f8f" d="M 171.5,29.5 C 171.167,28.1667 170.833,28.1667 170.5,29.5C 168.702,27.8878 166.702,26.3878 164.5,25C 161.743,24.218 159.243,24.718 157,26.5C 156.057,29.2507 155.224,31.9174 154.5,34.5C 154.5,32.5 154.5,30.5 154.5,28.5C 154.5,27.8333 154.5,27.1667 154.5,26.5C 155.167,26.5 155.5,26.1667 155.5,25.5C 156.167,25.5 156.5,25.1667 156.5,24.5C 157.492,24.6716 158.158,24.3382 158.5,23.5C 160.857,23.6633 163.19,23.4966 165.5,23C 163.866,22.5065 162.199,22.3398 160.5,22.5C 165.825,20.4851 169.825,22.4851 172.5,28.5C 172.376,29.1067 172.043,29.44 171.5,29.5 Z"/></g>
<g><path style="opacity:0.196" fill="#454545" d="M 170.5,33.5 C 170.5,34.1667 170.833,34.5 171.5,34.5C 171.5,35.1667 171.167,35.5 170.5,35.5C 169.833,35.5 169.5,35.8333 169.5,36.5C 169.631,37.2389 169.464,37.9056 169,38.5C 168.722,37.5842 168.222,36.9175 167.5,36.5C 167.856,34.8102 168.856,33.8102 170.5,33.5 Z"/></g>
<g><path style="opacity:0.667" fill="#929292" d="M 153.5,28.5 C 153.5,28.8333 153.5,29.1667 153.5,29.5C 152.566,30.5676 152.232,31.901 152.5,33.5C 152.5,34.1667 152.833,34.5 153.5,34.5C 153.328,35.4916 153.662,36.1583 154.5,36.5C 155.167,36.5 155.5,36.8333 155.5,37.5C 156.167,37.5 156.5,37.8333 156.5,38.5C 157.167,38.5 157.5,38.8333 157.5,39.5C 157.833,39.5 158.167,39.5 158.5,39.5C 158.5,39.8333 158.5,40.1667 158.5,40.5C 155.578,40.4824 153.412,38.8157 152,35.5C 151.21,32.366 151.543,29.366 153,26.5C 153.464,27.0944 153.631,27.7611 153.5,28.5 Z"/></g>
<g><path style="opacity:0.017" fill="#000000" d="M 160.5,39.5 C 161.833,39.5 163.167,39.5 164.5,39.5C 164.5,39.8333 164.5,40.1667 164.5,40.5C 163.432,41.4345 162.099,41.7678 160.5,41.5C 160.5,40.8333 160.5,40.1667 160.5,39.5 Z"/></g>
<g><path style="opacity:0.196" fill="#747474" d="M 148.5,39.5 C 149.251,38.4265 150.251,38.2599 151.5,39C 154.102,40.5536 155.269,42.7202 155,45.5C 152.31,43.9731 150.143,41.9731 148.5,39.5 Z"/></g>
<g><path style="opacity:0.702" fill="#9a9a9a" d="M 171.5,34.5 C 172.525,34.8966 172.692,35.5632 172,36.5C 168.645,41.4919 164.812,43.1585 160.5,41.5C 162.099,41.7678 163.432,41.4345 164.5,40.5C 167.167,40.1667 167.167,39.8333 164.5,39.5C 163.167,39.5 161.833,39.5 160.5,39.5C 160.167,39.5 159.833,39.5 159.5,39.5C 162.313,38.9182 164.98,37.9182 167.5,36.5C 168.222,36.9175 168.722,37.5842 169,38.5C 169.464,37.9056 169.631,37.2389 169.5,36.5C 170.167,36.5 170.5,36.1667 170.5,35.5C 171.167,35.5 171.5,35.1667 171.5,34.5 Z"/></g>
<g><path style="opacity:0.508" fill="#a6a6a6" d="M 172.5,40.5 C 173.239,40.369 173.906,40.5357 174.5,41C 169.56,45.9956 163.56,47.8289 156.5,46.5C 156.281,45.325 156.614,44.325 157.5,43.5C 163.176,45.3391 168.176,44.3391 172.5,40.5 Z"/></g>
<g><path style="opacity:0.839" fill="#7d7d7d" d="M 73.5,51.5 C 74.0431,51.56 74.3764,51.8933 74.5,52.5C 73.8065,54.8124 72.8065,56.1457 71.5,56.5C 71.4021,54.4471 72.0687,52.7804 73.5,51.5 Z"/></g>
<g><path style="opacity:0.584" fill="#949494" d="M 176.5,57.5 C 177.984,59.0737 179.651,60.407 181.5,61.5C 181.565,61.9382 181.399,62.2716 181,62.5C 178.978,61.2135 176.811,60.2135 174.5,59.5C 173.167,58.8333 173.167,58.1667 174.5,57.5C 175.429,56.4502 176.095,56.4502 176.5,57.5 Z"/></g>
<g><path style="opacity:0.086" fill="#939393" d="M 183.5,62.5 C 186.473,64.1468 189.14,66.1468 191.5,68.5C 190.883,68.6107 190.383,68.944 190,69.5C 187.795,66.9598 185.295,64.7932 182.5,63C 182.728,62.6012 183.062,62.4346 183.5,62.5 Z"/></g>
<g><path style="opacity:0.122" fill="#7d7d7d" d="M 192.5,70.5 C 195.829,72.8336 198.496,75.8336 200.5,79.5C 200.565,79.9382 200.399,80.2716 200,80.5C 197.537,77.0354 194.704,73.8688 191.5,71C 191.728,70.6012 192.062,70.4346 192.5,70.5 Z"/></g>
<g><path style="opacity:0.102" fill="#9e9e9e" d="M 201.5,81.5 C 204.766,85.1776 207.433,89.3443 209.5,94C 208.119,96.5213 206.119,98.3546 203.5,99.5C 203.062,99.5654 202.728,99.3988 202.5,99C 204.466,97.54 206.132,95.8734 207.5,94C 205.582,89.7507 203.248,85.7507 200.5,82C 200.728,81.6012 201.062,81.4346 201.5,81.5 Z"/></g>
<g><path style="opacity:0.082" fill="#969796" d="M 202.5,100.5 C 198.538,103.488 194.538,106.488 190.5,109.5C 190.062,109.565 189.728,109.399 189.5,109C 193.333,105.833 197.167,102.667 201,99.5C 201.383,100.056 201.883,100.389 202.5,100.5 Z"/></g>
<g><path style="opacity:0.739" fill="#8b8b8b" d="M 70.5,58.5 C 71.0431,58.56 71.3764,58.8933 71.5,59.5C 67.9054,68.8782 65.4054,78.5448 64,88.5C 63.0002,103.645 62.1669,118.645 61.5,133.5C 60.9569,133.44 60.6236,133.107 60.5,132.5C 61.315,119.545 61.815,106.545 62,93.5C 63.1353,81.2987 65.9687,69.632 70.5,58.5 Z"/></g>
<g><path style="opacity:0.978" fill="#e7e7e7" d="M 289.5,315.5 C 293.038,321.596 297.871,327.263 304,332.5C 304.399,332.272 304.565,331.938 304.5,331.5C 305.802,334.107 305.636,336.773 304,339.5C 296.247,349.466 286.414,356.632 274.5,361C 271.24,361.784 268.073,361.617 265,360.5C 262.232,341.658 258.565,322.991 254,304.5C 251.834,300.914 248.834,298.247 245,296.5C 227.797,238.559 210.797,180.559 194,122.5C 192.892,118.914 192.392,115.247 192.5,111.5C 194.604,111.201 196.604,111.534 198.5,112.5C 201.487,122.116 204.321,131.782 207,141.5C 208.688,143.045 210.688,144.045 213,144.5C 217.477,158.763 221.644,173.097 225.5,187.5C 228.97,186.875 231.804,187.875 234,190.5C 243.333,222.5 252.667,254.5 262,286.5C 262.465,287.931 263.299,289.097 264.5,290C 269.039,291.066 273.206,292.899 277,295.5C 281.022,302.335 285.189,309.001 289.5,315.5 Z"/></g>
<g><path style="opacity:0.369" fill="#858685" d="M 184.5,114.5 C 183.205,115.488 181.872,116.488 180.5,117.5C 180.062,117.565 179.728,117.399 179.5,117C 180.828,114.71 182.495,113.876 184.5,114.5 Z"/></g>
<g><path style="opacity:0.165" fill="#686968" d="M 166.5,128.5 C 164.167,130.167 162.167,132.167 160.5,134.5C 160.389,133.883 160.056,133.383 159.5,133C 161.333,131.167 163.167,129.333 165,127.5C 165.383,128.056 165.883,128.389 166.5,128.5 Z"/></g>
<g><path style="opacity:0.875" fill="#5e5f5e" d="M 95.5,132.5 C 95.5,132.833 95.5,133.167 95.5,133.5C 93.8333,133.5 92.1667,133.5 90.5,133.5C 90.7911,132.351 91.6244,131.684 93,131.5C 94.0698,131.528 94.9032,131.861 95.5,132.5 Z"/></g>
<g><path style="opacity:0.573" fill="#949594" d="M 86.5,133.5 C 83.7938,133.575 81.1272,133.908 78.5,134.5C 79.3339,133.252 80.6672,132.585 82.5,132.5C 84.0451,132.511 85.3784,132.844 86.5,133.5 Z"/></g>
<g><path style="opacity:0.157" fill="#757575" d="M 159.5,135.5 C 158.486,137.574 157.486,139.574 156.5,141.5C 155.957,141.44 155.624,141.107 155.5,140.5C 156.333,138.833 157.167,137.167 158,135.5C 158.69,134.262 159.19,134.262 159.5,135.5 Z"/></g>
<g><path style="opacity:0.102" fill="#898989" d="M 95.5,133.5 C 95.5,133.167 95.5,132.833 95.5,132.5C 101.544,131.679 106.377,133.679 110,138.5C 117,151.833 124,165.167 131,178.5C 133.564,180.727 136.397,182.561 139.5,184C 149.77,186.876 154.77,183.043 154.5,172.5C 153.509,164.515 153.343,156.515 154,148.5C 154.002,145.949 154.836,143.949 156.5,142.5C 155.867,146.991 155.2,151.491 154.5,156C 155.619,163.797 155.786,171.63 155,179.5C 152.457,185.47 147.957,187.637 141.5,186C 137.131,184.733 133.297,182.567 130,179.5C 122.412,165.992 115.079,152.326 108,138.5C 104.67,134.752 100.503,133.085 95.5,133.5 Z"/></g>
<g><path style="opacity:0.977" fill="#e7e7e7" d="M 98.5,148.5 C 100.766,148.141 102.599,148.808 104,150.5C 107.149,160.43 109.982,170.43 112.5,180.5C 115.547,179.855 117.713,180.855 119,183.5C 123.155,197.121 127.155,210.788 131,224.5C 133.899,224.977 136.566,225.977 139,227.5C 148.468,260.237 158.135,292.904 168,325.5C 170.942,328.122 174.442,329.622 178.5,330C 184.709,336.891 190.209,344.391 195,352.5C 199.633,358.135 204.633,363.468 210,368.5C 210.79,371.634 210.457,374.634 209,377.5C 199.996,388.752 188.496,396.085 174.5,399.5C 172.626,399.61 171.126,398.944 170,397.5C 167.361,378.306 163.695,359.306 159,340.5C 157.062,337.894 154.562,336.061 151.5,335C 133.09,275.427 115.256,215.594 98,155.5C 97.2967,153.071 97.4634,150.738 98.5,148.5 Z"/></g>
<g><path style="opacity:0.985" fill="#e8e8e8" d="M 234.5,179.5 C 234.167,178.833 233.833,178.167 233.5,177.5C 236.546,174.643 240.213,172.81 244.5,172C 265.094,168.616 278.594,176.783 285,196.5C 287.467,217.682 278.467,231.016 258,236.5C 255.919,234.287 254.585,231.62 254,228.5C 250.203,214.774 246.203,201.108 242,187.5C 239.972,184.308 237.472,181.641 234.5,179.5 Z"/></g>
<g><path style="opacity:0.006" fill="#121212" d="M 233.5,177.5 C 233.833,178.167 234.167,178.833 234.5,179.5C 232.576,179.289 232.243,178.623 233.5,177.5 Z"/></g>
<g><path style="opacity:0.977" fill="#e7e7e7" d="M 104.5,390.5 C 104.062,390.435 103.728,390.601 103.5,391C 106.333,393.833 109.167,396.667 112,399.5C 112.399,399.272 112.565,398.938 112.5,398.5C 113.788,401.597 113.288,404.597 111,407.5C 103.077,417.091 93.2432,423.925 81.5,428C 78.5706,428.777 75.7372,428.61 73,427.5C 70.2316,408.658 66.5649,389.991 62,371.5C 59.6667,367.833 56.6667,364.833 53,362.5C 35.4682,303.57 18.1349,244.57 1,185.5C 0.333333,183.167 0.333333,180.833 1,178.5C 2.66667,177.167 4.33333,177.167 6,178.5C 9.30805,188.397 12.3081,198.397 15,208.5C 17.0065,209.669 19.1732,210.335 21.5,210.5C 25.297,225.224 29.297,239.891 33.5,254.5C 36.9705,253.875 39.8038,254.875 42,257.5C 51.3585,290.269 61.0251,322.936 71,355.5C 74.5107,357.676 78.3441,359.176 82.5,360C 83.6667,361.167 84.8333,362.333 86,363.5C 91.6317,372.948 97.7984,381.948 104.5,390.5 Z"/></g>
<g><path style="opacity:0.986" fill="#e8e8e8" d="M 151.5,208.5 C 170.733,206.521 183.567,214.521 190,232.5C 193.655,254.224 184.988,267.891 164,273.5C 162.674,273.245 161.674,272.578 161,271.5C 156.461,255.005 151.461,238.672 146,222.5C 143.748,219.971 141.248,217.804 138.5,216C 138.759,214.739 139.426,213.739 140.5,213C 144.157,211.178 147.824,209.678 151.5,208.5 Z"/></g>
<g><path style="opacity:0.983" fill="#e8e8e8" d="M 56.5,237.5 C 82.8235,237.988 94.9901,251.321 93,277.5C 89.3283,293.123 79.6617,301.123 64,301.5C 59.4885,285.788 54.8219,270.121 50,254.5C 47.5,250.667 44.3333,247.5 40.5,245C 45.2214,241.045 50.5547,238.545 56.5,237.5 Z"/></g>
<g><path style="opacity:0.963" fill="#e2e2e2" d="M 259.5,244.5 C 271.158,247.326 278.325,254.659 281,266.5C 281.5,273.158 281.666,279.825 281.5,286.5C 277.62,285.311 273.787,283.977 270,282.5C 265.983,269.953 262.483,257.286 259.5,244.5 Z"/></g>
<g><path style="opacity:0.098" fill="#0e0e0e" d="M 223.5,262.5 C 224.623,261.243 225.289,261.576 225.5,263.5C 224.833,263.167 224.167,262.833 223.5,262.5 Z"/></g>
<g><path style="opacity:0.988" fill="#e8e8e8" d="M 223.5,262.5 C 224.167,262.833 224.833,263.167 225.5,263.5C 229.263,274.629 232.763,285.963 236,297.5C 237,299.167 238,300.833 239,302.5C 241.653,304.155 243.986,306.155 246,308.5C 250.139,327.53 254.139,346.53 258,365.5C 261.074,368.538 264.74,370.538 269,371.5C 272.824,370.391 276.657,369.391 280.5,368.5C 280.649,371.607 280.149,374.607 279,377.5C 276.994,380.992 274.828,384.326 272.5,387.5C 277.722,400.278 283.222,412.945 289,425.5C 290.333,451.659 291.5,477.826 292.5,504C 292.584,514.919 287.251,519.919 276.5,519C 271.333,517.833 268.167,514.667 267,509.5C 266.311,486.151 265.311,462.817 264,439.5C 254.333,422.833 244.667,406.167 235,389.5C 228.319,384.811 223.986,378.478 222,370.5C 221.333,335.833 221.333,301.167 222,266.5C 222.21,264.942 222.71,263.609 223.5,262.5 Z"/></g>
<g><path style="opacity:0.965" fill="#e0e0e0" d="M 166.5,282.5 C 176.842,285.343 183.342,292.009 186,302.5C 186.667,309.833 186.667,317.167 186,324.5C 182.502,322.446 178.835,320.779 175,319.5C 171.522,308.235 168.355,296.902 165.5,285.5C 166.404,284.791 166.737,283.791 166.5,282.5 Z"/></g>
<g><path style="opacity:0.714" fill="#585858" d="M 166.5,282.5 C 166.737,283.791 166.404,284.791 165.5,285.5C 165.461,284.417 165.127,283.417 164.5,282.5C 164.97,281.537 165.637,281.537 166.5,282.5 Z"/></g>
<g><path style="opacity:0.981" fill="#e9e9e9" d="M 129.5,298.5 C 130.117,298.611 130.617,298.944 131,299.5C 134.511,311.879 138.178,324.212 142,336.5C 144.166,340.086 147.166,342.753 151,344.5C 155.264,363.821 159.264,383.154 163,402.5C 165.1,405.467 167.934,407.3 171.5,408C 176.524,407.998 181.524,407.498 186.5,406.5C 185.625,413.583 182.625,419.583 177.5,424.5C 183.615,438.395 189.449,452.395 195,466.5C 196.156,493.831 196.822,521.164 197,548.5C 193.628,555.433 188.128,557.933 180.5,556C 173.669,553.18 170.835,548.014 172,540.5C 171.576,519.113 170.576,497.78 169,476.5C 159.747,460.996 150.747,445.33 142,429.5C 138.021,425.852 134.355,421.852 131,417.5C 128.867,413.768 127.534,409.768 127,405.5C 126.333,372.5 126.333,339.5 127,306.5C 127.272,303.618 128.106,300.951 129.5,298.5 Z"/></g>
<g><path style="opacity:0.963" fill="#e2e2e2" d="M 67.5,311.5 C 79.1711,314.339 86.3378,321.672 89,333.5C 89.4996,340.158 89.6663,346.825 89.5,353.5C 85.3278,351.963 81.3278,350.13 77.5,348C 73.6495,335.952 70.3162,323.786 67.5,311.5 Z"/></g>
<g><path style="opacity:0.106" fill="#bababa" d="M 289.5,315.5 C 294.472,320.807 299.472,326.14 304.5,331.5C 304.565,331.938 304.399,332.272 304,332.5C 297.871,327.263 293.038,321.596 289.5,315.5 Z"/></g>
<g><path style="opacity:0.131" fill="#0b0b0b" d="M 33.5,330.5 C 32.8333,330.167 32.1667,329.833 31.5,329.5C 32.3013,327.207 32.968,327.54 33.5,330.5 Z"/></g>
<g><path style="opacity:0.989" fill="#e8e8e8" d="M 31.5,329.5 C 32.1667,329.833 32.8333,330.167 33.5,330.5C 37.2871,341.622 40.7871,352.955 44,364.5C 47.0209,368.518 50.3542,372.184 54,375.5C 58.1388,394.53 62.1388,413.53 66,432.5C 67.7309,434.617 69.8976,436.117 72.5,437C 77.9465,437.635 83.2799,437.135 88.5,435.5C 88.7372,439.41 87.9039,443.077 86,446.5C 83.9366,449.054 82.1033,451.72 80.5,454.5C 85.722,467.278 91.222,479.945 97,492.5C 98.2998,518.828 99.4665,545.162 100.5,571.5C 100.59,576.572 98.9232,580.905 95.5,584.5C 90.1667,584.5 84.8333,584.5 79.5,584.5C 77.2384,582.315 75.7384,579.648 75,576.5C 74.2219,553.156 73.2219,529.822 72,506.5C 62.7472,490.996 53.7472,475.33 45,459.5C 41.0214,455.852 37.3547,451.852 34,447.5C 32.107,444.382 30.7736,441.049 30,437.5C 29.3333,402.833 29.3333,368.167 30,333.5C 30.21,331.942 30.71,330.609 31.5,329.5 Z"/></g>
<g><path style="opacity:1" fill="#d6d6d6" d="M 307.5,347.5 C 308.5,347.5 309.5,347.5 310.5,347.5C 311.886,359.626 306.886,363.792 295.5,360C 299.86,356.028 303.86,351.861 307.5,347.5 Z"/></g>
<g><path style="opacity:0.9" fill="#dadada" d="M 214.5,384.5 C 217.888,390.92 216.221,395.754 209.5,399C 207.101,399.711 204.768,399.544 202.5,398.5C 201.417,397.635 201.251,396.635 202,395.5C 206.36,391.968 210.527,388.301 214.5,384.5 Z"/></g>
<g><path style="opacity:0.118" fill="#989898" d="M 104.5,390.5 C 107.5,392.833 110.167,395.5 112.5,398.5C 112.565,398.938 112.399,399.272 112,399.5C 109.167,396.667 106.333,393.833 103.5,391C 103.728,390.601 104.062,390.435 104.5,390.5 Z"/></g>
<g><path style="opacity:0.979" fill="#d9d9d9" d="M 115.5,414.5 C 116.5,414.5 117.5,414.5 118.5,414.5C 119.686,426.23 114.686,430.396 103.5,427C 107.648,423.017 111.648,418.851 115.5,414.5 Z"/></g>
<g><path style="opacity:0.987" fill="#e9e9e9" d="M 255.5,442.5 C 254.675,446.647 254.175,450.981 254,455.5C 247.167,469.167 240.333,482.833 233.5,496.5C 233.624,497.107 233.957,497.44 234.5,497.5C 232.627,502.745 229.627,507.245 225.5,511C 210.217,514.716 204.051,508.883 207,493.5C 219.548,469.737 231.548,445.737 243,421.5C 247.682,428.197 251.848,435.197 255.5,442.5 Z"/></g>
<g><path style="opacity:0.178" fill="#070707" d="M 149.5,460.5 C 148.833,460.833 148.167,461.167 147.5,461.5C 147.345,458.147 148.012,457.814 149.5,460.5 Z"/></g>
<g><path style="opacity:0.99" fill="#e7e7e7" d="M 149.5,460.5 C 152.975,466.103 156.475,471.769 160,477.5C 160.669,482.513 161.003,487.513 161,492.5C 152.667,509.167 144.333,525.833 136,542.5C 133.657,547.671 129.657,550.005 124,549.5C 118.264,549.971 114.264,547.637 112,542.5C 111.333,538.833 111.333,535.167 112,531.5C 124.102,508.296 135.935,484.962 147.5,461.5C 148.167,461.167 148.833,460.833 149.5,460.5 Z"/></g>
<g><path style="opacity:0.51" fill="#c5c5c5" d="M 255.5,442.5 C 255.666,447.179 255.499,451.845 255,456.5C 248.153,470.193 241.32,483.86 234.5,497.5C 233.957,497.44 233.624,497.107 233.5,496.5C 240.333,482.833 247.167,469.167 254,455.5C 254.175,450.981 254.675,446.647 255.5,442.5 Z"/></g>
<g><path style="opacity:0.987" fill="#e8e8e8" d="M 48.5,550.5 C 44.2318,556.986 40.2318,564.319 36.5,572.5C 36.6236,573.107 36.9569,573.44 37.5,573.5C 30.0441,581.442 22.5441,581.442 15,573.5C 13.5951,569.928 13.2617,566.261 14,562.5C 25.4111,539.344 37.0778,516.344 49,493.5C 49.4935,491.866 49.6602,490.199 49.5,488.5C 50.675,488.281 51.675,488.614 52.5,489.5C 55.7476,495.664 59.2476,501.664 63,507.5C 63.6667,512.833 63.6667,518.167 63,523.5C 58.6468,532.88 53.8135,541.88 48.5,550.5 Z"/></g>
<g><path style="opacity:0.561" fill="#bebebe" d="M 48.5,550.5 C 45.1037,558.293 41.437,565.959 37.5,573.5C 36.9569,573.44 36.6236,573.107 36.5,572.5C 40.2318,564.319 44.2318,556.986 48.5,550.5 Z"/></g>
</svg>
