<?xml version="1.0" encoding="UTF-8"?>
<!DOCTYPE svg PUBLIC "-//W3C//DTD SVG 1.1//EN" "http://www.w3.org/Graphics/SVG/1.1/DTD/svg11.dtd">
<svg xmlns="http://www.w3.org/2000/svg" version="1.1" width="460px" height="460px" style="shape-rendering:geometricPrecision; text-rendering:geometricPrecision; image-rendering:optimizeQuality; fill-rule:evenodd; clip-rule:evenodd" xmlns:xlink="http://www.w3.org/1999/xlink">
<g><path style="opacity:0.989" fill="#f2f2f4" d="M 224.5,8.5 C 227.978,8.18424 231.312,8.68424 234.5,10C 257.737,26.2363 277.237,46.0696 293,69.5C 307.485,92.1101 313.152,116.777 310,143.5C 307.348,173.784 296.681,200.784 278,224.5C 269.071,240.366 263.571,257.366 261.5,275.5C 268.755,275.813 275.921,275.48 283,274.5C 290.63,233.612 302.297,193.946 318,155.5C 323.822,142.013 331.989,130.179 342.5,120C 354.845,111.221 367.845,110.221 381.5,117C 390.802,123.965 398.302,132.465 404,142.5C 414.796,161.876 423.462,182.209 430,203.5C 440.929,238.715 449.096,274.549 454.5,311C 454.686,318.814 450.853,322.647 443,322.5C 440.409,322.435 437.909,321.935 435.5,321C 422.674,302.168 407.674,285.168 390.5,270C 382.563,263.365 373.563,258.865 363.5,256.5C 354.057,259.269 347.391,265.269 343.5,274.5C 347.783,275.492 352.116,275.826 356.5,275.5C 356.5,297.167 356.5,318.833 356.5,340.5C 352.774,340.177 349.107,340.511 345.5,341.5C 349.089,352.577 356.756,358.743 368.5,360C 379.161,360.5 389.828,360.667 400.5,360.5C 400.509,362.308 400.009,363.975 399,365.5C 386.424,380.407 372.924,394.241 358.5,407C 341.892,418.085 325.225,418.085 308.5,407C 295.16,394.034 287.327,378.201 285,359.5C 284.201,353.515 283.535,347.515 283,341.5C 280.936,340.409 278.769,340.242 276.5,341C 284.038,360.545 286.538,380.711 284,401.5C 281.275,412.55 275.108,421.05 265.5,427C 252.96,429.605 240.627,432.771 228.5,436.5C 217.121,432.722 205.454,429.889 193.5,428C 177.823,418.988 170.489,405.321 171.5,387C 172.124,371.176 175.124,355.843 180.5,341C 178.231,340.242 176.064,340.409 174,341.5C 173.123,362.023 167.457,381.023 157,398.5C 141.042,415.426 122.208,419.593 100.5,411C 82.0144,398.168 68.6811,381.335 60.5,360.5C 69.8393,360.666 79.1726,360.5 88.5,360C 96.3775,358.979 102.877,355.479 108,349.5C 109.908,346.794 110.741,343.794 110.5,340.5C 106.833,340.5 103.167,340.5 99.5,340.5C 99.3334,319.164 99.5,297.831 100,276.5C 104.452,275.859 108.952,275.192 113.5,274.5C 110.003,266.504 104.337,260.671 96.5,257C 91.2981,256.727 86.2981,257.727 81.5,260C 57.4546,275.712 37.7879,295.712 22.5,320C 7.1609,325.996 0.660901,320.829 3,304.5C 10.7459,254.065 24.4125,205.398 44,158.5C 51.2479,142.158 61.7479,128.325 75.5,117C 89.1547,110.221 102.155,111.221 114.5,120C 119.034,124.199 123.201,128.699 127,133.5C 141.594,159.695 152.594,187.362 160,216.5C 164.98,235.755 169.647,255.088 174,274.5C 180.744,275.479 187.578,275.812 194.5,275.5C 193.203,258.11 188.37,241.776 180,226.5C 148.319,185.761 139.319,140.427 153,90.5C 169.533,56.8006 193.366,29.4672 224.5,8.5 Z M 227.5,35.5 C 251.996,52.8323 270.496,75.1656 283,102.5C 288.365,116.452 289.698,130.785 287,145.5C 284.391,161.328 279.391,176.328 272,190.5C 253.231,215.469 241.898,243.469 238,274.5C 231.916,275.642 225.749,275.809 219.5,275C 216.132,249.374 207.632,225.541 194,203.5C 177.074,181.506 168.574,156.506 168.5,128.5C 169.773,111.849 174.939,96.5152 184,82.5C 196.245,64.755 210.745,49.0884 227.5,35.5 Z M 90.5,135.5 C 96.4388,136.561 101.272,139.561 105,144.5C 111.265,153.603 116.598,163.269 121,173.5C 133.854,206.563 143.354,240.563 149.5,275.5C 145.416,275.957 141.583,275.29 138,273.5C 124.988,234.605 100.155,224.438 63.5,243C 52.7913,250.036 42.958,258.202 34,267.5C 39.9899,238.553 48.3232,210.219 59,182.5C 64.9545,166.581 73.4545,152.247 84.5,139.5C 86.5654,138.143 88.5654,136.81 90.5,135.5 Z M 362.5,135.5 C 365.425,135.46 368.091,136.293 370.5,138C 379.312,146.475 386.145,156.309 391,167.5C 404.902,199.869 415.568,233.202 423,267.5C 411.134,254.63 397.3,244.464 381.5,237C 357.721,229.035 339.221,235.535 326,256.5C 323.014,261.959 320.514,267.626 318.5,273.5C 317.975,274.192 317.308,274.692 316.5,275C 313.5,275.667 310.5,275.667 307.5,275C 313.38,242.995 321.88,211.495 333,180.5C 337.76,167.646 344.093,155.646 352,144.5C 355.103,140.886 358.603,137.886 362.5,135.5 Z M 122.5,298.5 C 193.167,298.5 263.833,298.5 334.5,298.5C 334.811,305.09 334.478,311.59 333.5,318C 263.5,318.667 193.5,318.667 123.5,318C 122.522,311.59 122.189,305.09 122.5,298.5 Z M 134.5,340.5 C 140.206,340.171 145.872,340.505 151.5,341.5C 150.313,356.64 145.813,370.64 138,383.5C 132.088,390.472 124.588,393.305 115.5,392C 110.47,388.816 105.804,385.149 101.5,381C 121.843,375.153 132.843,361.653 134.5,340.5 Z M 205.5,340.5 C 221.078,340.176 236.578,340.509 252,341.5C 258.891,358.518 262.225,376.185 262,394.5C 260.371,398.931 257.871,402.764 254.5,406C 245.81,407.726 237.143,409.559 228.5,411.5C 219.821,409.731 211.154,407.897 202.5,406C 198.896,403.292 196.396,399.792 195,395.5C 194.464,376.348 197.964,358.015 205.5,340.5 Z M 305.5,340.5 C 311.167,340.5 316.833,340.5 322.5,340.5C 323.664,360.484 333.664,373.651 352.5,380C 347.461,385.387 341.628,389.553 335,392.5C 326.515,391.354 320.182,387.021 316,379.5C 310.414,367.077 306.914,354.077 305.5,340.5 Z"/></g>
</svg>
