<?xml version="1.0" encoding="UTF-8"?>
<!DOCTYPE svg PUBLIC "-//W3C//DTD SVG 1.1//EN" "http://www.w3.org/Graphics/SVG/1.1/DTD/svg11.dtd">
<svg xmlns="http://www.w3.org/2000/svg" version="1.1" width="910px" height="660px" style="shape-rendering:geometricPrecision; text-rendering:geometricPrecision; image-rendering:optimizeQuality; fill-rule:evenodd; clip-rule:evenodd" xmlns:xlink="http://www.w3.org/1999/xlink">
<g><path style="opacity:1" fill="#f2f3f2" d="M 390.5,659.5 C 386.167,659.5 381.833,659.5 377.5,659.5C 373.678,655.874 373.512,651.874 377,647.5C 377.667,643.167 377.667,638.833 377,634.5C 376.31,631.804 374.81,629.637 372.5,628C 366.583,626.343 360.583,625.009 354.5,624C 353.167,623.333 351.833,622.667 350.5,622C 349.194,619.427 347.527,617.094 345.5,615C 343.473,614.502 341.473,614.669 339.5,615.5C 337.803,615.101 336.137,614.601 334.5,614C 330.784,609.952 327.45,605.618 324.5,601C 320.205,600.102 316.372,598.269 313,595.5C 311.263,591.339 310.263,587.005 310,582.5C 290.428,567.253 270.594,552.42 250.5,538C 244.5,532.667 238.5,527.333 232.5,522C 211.986,508.489 192.32,493.822 173.5,478C 150.24,461.402 127.573,444.069 105.5,426C 74.7689,405.606 43.7689,385.606 12.5,366C 9.9975,363.916 7.33083,362.083 4.5,360.5C 2.22006,353.29 1.88673,345.957 3.5,338.5C 1.3678,327.152 1.20113,315.819 3,304.5C 6.08081,301.707 9.58081,299.54 13.5,298C 18.1988,292.966 23.1988,288.3 28.5,284C 32.6827,282.204 37.016,280.871 41.5,280C 44.5,277.667 47.5,275.333 50.5,273C 55.573,272.82 60.573,273.153 65.5,274C 66.4162,273.626 67.2496,273.126 68,272.5C 69.1227,269.751 70.6227,267.251 72.5,265C 81.727,263.104 91.0603,262.104 100.5,262C 108.307,259.526 113.474,254.359 116,246.5C 122.659,239.495 130.825,235.328 140.5,234C 142.87,230.558 145.87,227.891 149.5,226C 153.584,225.769 157.584,225.102 161.5,224C 162.451,223.282 162.617,222.449 162,221.5C 160.164,219.292 157.831,217.958 155,217.5C 154.306,213.998 154.806,210.664 156.5,207.5C 152.268,196.662 155.768,192.996 167,196.5C 170.603,194.872 174.437,194.038 178.5,194C 180.563,191.489 182.063,188.656 183,185.5C 183.903,184.299 185.069,183.465 186.5,183C 190.955,182.103 195.455,181.603 200,181.5C 209,182.5 218,183.5 227,184.5C 229.5,184.333 232,184.167 234.5,184C 237.228,183.361 237.728,182.194 236,180.5C 235.333,178.167 235.333,175.833 236,173.5C 237.635,172.274 239.135,170.941 240.5,169.5C 237.615,166.454 234.282,163.954 230.5,162C 227.672,158.699 227.006,155.032 228.5,151C 227.034,148.186 225.534,145.353 224,142.5C 223.755,138.147 223.755,133.813 224,129.5C 219.938,125.242 219.438,120.575 222.5,115.5C 220.621,110.91 220.287,106.243 221.5,101.5C 221.147,99.2685 220.314,97.2685 219,95.5C 218.667,92.1667 218.333,88.8333 218,85.5C 213.374,83.0615 210.541,79.3948 209.5,74.5C 216.076,73.5868 222.409,71.7535 228.5,69C 231.868,65.0982 234.868,60.9315 237.5,56.5C 242.784,51.3587 249.117,48.692 256.5,48.5C 257.624,47.086 258.624,45.586 259.5,44C 261.5,43.3333 263.5,43.3333 265.5,44C 267.405,45.87 269.572,47.37 272,48.5C 275.467,43.7613 279.301,39.2613 283.5,35C 290.374,31.0634 297.374,27.3967 304.5,24C 319.362,21.8052 334.195,19.6385 349,17.5C 351.501,17.5838 353.834,18.2505 356,19.5C 365.597,18.1959 375.097,16.3626 384.5,14C 397.852,6.39921 412.185,4.39921 427.5,8C 433.839,10.363 439.672,13.5297 445,17.5C 451.155,11.1749 458.655,8.3416 467.5,9C 471.771,8.23033 473.437,5.73033 472.5,1.5C 475.187,1.33591 477.854,1.50258 480.5,2C 482.298,4.4725 484.632,6.13916 487.5,7C 492.155,7.49915 496.821,7.66582 501.5,7.5C 501.338,5.4727 501.505,3.4727 502,1.5C 503.231,0.892206 504.564,0.558872 506,0.5C 513.529,3.03046 520.862,6.03046 528,9.5C 533.994,7.66517 540.161,6.99851 546.5,7.5C 548.603,11.1258 547.603,13.2925 543.5,14C 544.517,15.0495 544.684,16.2161 544,17.5C 542.068,19.0383 539.901,20.205 537.5,21C 540.496,23.8154 541.829,27.3154 541.5,31.5C 540.899,36.738 539.899,41.9047 538.5,47C 541.048,52.1947 541.048,57.3614 538.5,62.5C 539.194,65.0876 540.36,67.421 542,69.5C 543.115,73.4845 542.115,76.8178 539,79.5C 538.74,83.2498 538.073,86.9164 537,90.5C 533.929,92.8654 530.596,94.8654 527,96.5C 525.472,99.4167 524.139,102.417 523,105.5C 520.512,107.743 517.846,109.743 515,111.5C 511.47,116.075 512.137,120.075 517,123.5C 517.449,131.161 519.949,137.995 524.5,144C 528.363,145.181 531.863,147.014 535,149.5C 538.21,155.506 540.377,161.84 541.5,168.5C 545.923,171.921 550.923,174.088 556.5,175C 560.33,179.474 562.83,184.641 564,190.5C 567.846,205.73 571.179,221.064 574,236.5C 574.942,239.993 576.275,243.326 578,246.5C 578.667,248.5 578.667,250.5 578,252.5C 575.667,254.006 573.5,255.673 571.5,257.5C 576,264.5 580.5,271.5 585,278.5C 586.286,281.405 587.286,284.405 588,287.5C 588.109,292.249 588.275,296.916 588.5,301.5C 587.26,306.624 586.26,311.791 585.5,317C 587.592,323.779 589.592,330.612 591.5,337.5C 589.088,345.31 586.421,352.977 583.5,360.5C 586.092,366.022 588.425,371.689 590.5,377.5C 589.049,385.776 584.383,390.942 576.5,393C 575.257,394.154 574.257,395.488 573.5,397C 574.794,399.087 575.961,401.254 577,403.5C 582.044,408.876 586.711,414.542 591,420.5C 594.716,429.23 595.55,438.23 593.5,447.5C 595.527,447.338 597.527,447.505 599.5,448C 600.727,450.736 601.727,453.569 602.5,456.5C 616.904,455.513 630.237,459.013 642.5,467C 645.933,470.104 648.1,473.937 649,478.5C 650.168,483.173 651.335,487.839 652.5,492.5C 652.423,494.299 651.923,495.966 651,497.5C 643.615,502.414 635.782,506.581 627.5,510C 615.272,522.433 601.938,533.433 587.5,543C 564.67,555.578 542.337,568.912 520.5,583C 512.096,591.282 503.596,599.449 495,607.5C 484.753,620.137 473.92,632.304 462.5,644C 450.022,646.249 437.689,649.249 425.5,653C 418.256,654.652 410.923,655.652 403.5,656C 398.958,656.867 394.625,658.033 390.5,659.5 Z"/></g>
<g><path style="opacity:1" fill="#f0f0f0" d="M 895.5,11.5 C 895.5,10.8333 895.833,10.5 896.5,10.5C 897.758,11.0164 898.758,10.3497 899.5,8.5C 900.492,8.32842 901.158,8.66175 901.5,9.5C 900.262,9.81001 900.262,10.31 901.5,11C 903.833,12.5 906.167,14 908.5,15.5C 906.167,19.5 903.833,23.5 901.5,27.5C 901.624,28.1067 901.957,28.44 902.5,28.5C 892.833,43.8333 883.167,59.1667 873.5,74.5C 871.46,73.5249 871.127,74.1916 872.5,76.5C 873.622,77.6302 874.956,78.2969 876.5,78.5C 844.08,130.344 811.413,182.01 778.5,233.5C 777.922,232.453 777.256,232.62 776.5,234C 777.877,236.301 779.544,236.801 781.5,235.5C 781.833,235.5 782.167,235.5 782.5,235.5C 783.486,237.408 785.152,238.408 787.5,238.5C 792.052,240.615 796.718,241.282 801.5,240.5C 801.833,240.5 802.167,240.5 802.5,240.5C 806.276,241.825 810.443,242.491 815,242.5C 820.854,242.366 826.688,242.033 832.5,241.5C 835.905,240.657 838.905,239.324 841.5,237.5C 844.725,238.059 847.892,237.392 851,235.5C 853.087,238.673 854.921,242.006 856.5,245.5C 856.957,246.298 857.624,246.631 858.5,246.5C 858.389,247.117 858.056,247.617 857.5,248C 860.926,254.33 863.593,260.83 865.5,267.5C 865.5,268.167 865.5,268.833 865.5,269.5C 863.167,268.5 862.5,269.167 863.5,271.5C 863.5,272.167 863.167,272.5 862.5,272.5C 862.44,271.957 862.107,271.624 861.5,271.5C 829.794,281.757 797.96,282.09 766,272.5C 765.235,272.57 764.735,272.903 764.5,273.5C 764.167,273.5 763.833,273.5 763.5,273.5C 761.571,270.865 758.905,270.032 755.5,271C 755.833,271.333 756.167,271.667 756.5,272C 760.61,274.722 764.943,276.888 769.5,278.5C 770.338,278.842 770.672,279.508 770.5,280.5C 771.28,285.457 769.946,290.124 766.5,294.5C 766.624,295.107 766.957,295.44 767.5,295.5C 762.083,304.669 756.417,313.669 750.5,322.5C 750.472,326.612 751.639,330.612 754,334.5C 754.383,333.944 754.883,333.611 755.5,333.5C 755.5,333.833 755.5,334.167 755.5,334.5C 755.196,335.15 754.863,335.817 754.5,336.5C 757.098,342.459 759.598,348.459 762,354.5C 762.417,355.756 763.25,356.423 764.5,356.5C 764.737,357.791 764.404,358.791 763.5,359.5C 761.952,359.821 761.285,360.821 761.5,362.5C 758.708,363.392 757.375,365.392 757.5,368.5C 757.672,369.492 757.338,370.158 756.5,370.5C 754.952,370.821 754.285,371.821 754.5,373.5C 753.504,373.414 752.671,373.748 752,374.5C 750.667,376.5 749.333,378.5 748,380.5C 741.017,365.197 734.017,349.864 727,334.5C 723.93,330.293 720.097,329.46 715.5,332C 714.663,333.011 714.33,334.178 714.5,335.5C 712.537,337.967 711.371,340.967 711,344.5C 710.22,346.387 710.387,348.054 711.5,349.5C 712.332,350.329 711.999,351.162 710.5,352C 711.171,352.986 711.171,354.153 710.5,355.5C 708.955,356.23 708.122,357.563 708,359.5C 707.564,361.847 707.064,364.181 706.5,366.5C 706.543,367.416 706.876,368.083 707.5,368.5C 707.5,369.167 707.5,369.833 707.5,370.5C 705.158,371.211 704.825,372.544 706.5,374.5C 705.351,374.791 704.684,375.624 704.5,377C 703.576,381.195 702.576,385.362 701.5,389.5C 702.127,390.417 702.461,391.417 702.5,392.5C 702.5,393.167 702.5,393.833 702.5,394.5C 700.955,395.23 700.122,396.563 700,398.5C 698.627,405.032 697.127,411.532 695.5,418C 695.743,418.902 696.077,419.735 696.5,420.5C 697.506,421.396 697.506,422.062 696.5,422.5C 694.955,423.23 694.122,424.563 694,426.5C 693.235,428.066 693.402,429.399 694.5,430.5C 695.833,430.833 695.833,431.167 694.5,431.5C 692.955,432.23 692.122,433.563 692,435.5C 690.935,438.573 690.768,441.573 691.5,444.5C 691.5,445.167 691.5,445.833 691.5,446.5C 688.825,448.198 688.158,450.532 689.5,453.5C 689.5,454.167 689.5,454.833 689.5,455.5C 686.97,457.618 686.303,460.285 687.5,463.5C 687.5,464.167 687.5,464.833 687.5,465.5C 686.883,465.389 686.383,465.056 686,464.5C 684.352,467.563 683.518,470.563 683.5,473.5C 681.302,473.875 679.302,474.542 677.5,475.5C 675.566,474.89 673.899,473.89 672.5,472.5C 672.938,472.565 673.272,472.399 673.5,472C 671.333,470.5 669.167,469 667,467.5C 666.601,467.728 666.435,468.062 666.5,468.5C 665.508,468.672 664.842,468.338 664.5,467.5C 664.938,467.565 665.272,467.399 665.5,467C 662.222,464.209 658.889,462.376 655.5,461.5C 654.508,461.672 653.842,461.338 653.5,460.5C 653.938,460.565 654.272,460.399 654.5,460C 650.247,457.29 646.08,454.457 642,451.5C 641.601,451.728 641.435,452.062 641.5,452.5C 640.508,452.672 639.842,452.338 639.5,451.5C 640.738,451.19 640.738,450.69 639.5,450C 636.217,448.439 633.383,446.273 631,443.5C 630.433,438.37 630.933,433.37 632.5,428.5C 632.5,427.833 632.5,427.167 632.5,426.5C 633.75,426.423 634.583,425.756 635,424.5C 637.588,417.067 640.755,409.9 644.5,403C 644.272,402.601 643.938,402.435 643.5,402.5C 644.079,399.669 645.412,397.336 647.5,395.5C 647.81,396.738 648.31,396.738 649,395.5C 650.723,393.283 652.223,390.95 653.5,388.5C 655.25,386.941 656.25,384.941 656.5,382.5C 657.167,381.167 658.167,380.167 659.5,379.5C 662.034,378.366 663.367,376.366 663.5,373.5C 664.604,371.611 665.937,369.945 667.5,368.5C 670.996,366.642 672.996,363.642 673.5,359.5C 676.654,357.063 678.987,353.897 680.5,350C 680.272,349.601 679.938,349.435 679.5,349.5C 679.5,348.833 679.5,348.167 679.5,347.5C 680.117,347.611 680.617,347.944 681,348.5C 686.693,338.802 690.359,328.469 692,317.5C 691.564,314.602 690.397,312.269 688.5,310.5C 689.166,306.53 689.832,302.53 690.5,298.5C 690.376,297.893 690.043,297.56 689.5,297.5C 710.077,263.585 731.077,229.918 752.5,196.5C 750.493,194.311 749.493,191.645 749.5,188.5C 749.833,188.5 750.167,188.5 750.5,188.5C 750.435,188.938 750.601,189.272 751,189.5C 758.009,182.125 765.009,174.791 772,167.5C 772.791,166.255 773.291,164.922 773.5,163.5C 784.598,145.627 795.931,127.961 807.5,110.5C 807.435,110.938 807.601,111.272 808,111.5C 809.816,110.671 811.649,109.837 813.5,109C 814.252,108.329 814.586,107.496 814.5,106.5C 818.548,102.746 821.882,98.4131 824.5,93.5C 824.81,94.7383 825.31,94.7383 826,93.5C 829.845,87.1389 833.678,80.8055 837.5,74.5C 841.237,73.2738 845.07,72.2738 849,71.5C 850.376,71.3158 851.209,70.6491 851.5,69.5C 854.386,70.2463 857.386,70.0796 860.5,69C 861.738,68.31 861.738,67.81 860.5,67.5C 861.11,65.5659 862.11,63.8993 863.5,62.5C 863.435,62.9382 863.601,63.2716 864,63.5C 866.791,60.2221 868.624,56.8888 869.5,53.5C 869.328,52.5084 869.662,51.8417 870.5,51.5C 870.435,51.9382 870.601,52.2716 871,52.5C 875.44,46.5622 878.94,40.5622 881.5,34.5C 881.328,33.5084 881.662,32.8417 882.5,32.5C 883.297,33.4782 883.964,33.1449 884.5,31.5C 883.078,28.0779 880.745,25.7445 877.5,24.5C 877.5,24.1667 877.5,23.8333 877.5,23.5C 878.501,22.2113 878.334,20.8779 877,19.5C 874.799,16.6597 872.299,14.1597 869.5,12C 871.484,8.67679 873.484,5.34346 875.5,2C 882.392,4.87417 888.892,8.7075 895,13.5C 895.464,12.9056 895.631,12.2389 895.5,11.5 Z M 892.5,27.5 C 893.5,27.8333 894.167,28.5 894.5,29.5C 885.985,43.8762 876.985,57.8762 867.5,71.5C 867.158,70.6618 866.492,70.3284 865.5,70.5C 874.112,55.8953 883.112,41.562 892.5,27.5 Z M 841.5,92.5 C 841.573,94.0269 840.906,95.0269 839.5,95.5C 839.5,94.8333 839.5,94.1667 839.5,93.5C 840.167,93.1667 840.833,92.8333 841.5,92.5 Z M 839.5,95.5 C 839.573,97.0269 838.906,98.0269 837.5,98.5C 837.5,97.8333 837.5,97.1667 837.5,96.5C 838.167,96.1667 838.833,95.8333 839.5,95.5 Z M 837.5,98.5 C 837.573,100.027 836.906,101.027 835.5,101.5C 835.427,99.9731 836.094,98.9731 837.5,98.5 Z M 850.5,98.5 C 850.573,100.027 849.906,101.027 848.5,101.5C 848.5,100.833 848.5,100.167 848.5,99.5C 849.167,99.1667 849.833,98.8333 850.5,98.5 Z M 848.5,101.5 C 848.573,103.027 847.906,104.027 846.5,104.5C 846.427,102.973 847.094,101.973 848.5,101.5 Z M 834.5,103.5 C 834.573,105.027 833.906,106.027 832.5,106.5C 832.5,105.833 832.5,105.167 832.5,104.5C 833.167,104.167 833.833,103.833 834.5,103.5 Z M 846.5,104.5 C 846.5,105.167 846.5,105.833 846.5,106.5C 845.833,106.833 845.167,107.167 844.5,107.5C 844.427,105.973 845.094,104.973 846.5,104.5 Z M 832.5,106.5 C 832.483,108.028 831.816,108.528 830.5,108C 831.044,107.283 831.711,106.783 832.5,106.5 Z M 843.5,109.5 C 843.573,111.027 842.906,112.027 841.5,112.5C 841.5,111.833 841.5,111.167 841.5,110.5C 842.167,110.167 842.833,109.833 843.5,109.5 Z M 811.5,134.5 C 810.662,134.842 810.328,135.508 810.5,136.5C 806.473,141.875 802.807,147.541 799.5,153.5C 798.662,153.842 798.328,154.508 798.5,155.5C 796.265,158.291 794.265,161.291 792.5,164.5C 790.737,167.02 788.737,169.353 786.5,171.5C 795.479,156.218 804.979,141.218 815,126.5C 815.167,126.833 815.333,127.167 815.5,127.5C 814.139,129.85 812.806,132.184 811.5,134.5 Z M 752.5,276.5 C 756.881,278.684 760.881,281.35 764.5,284.5C 764.5,284.833 764.5,285.167 764.5,285.5C 763.833,286.833 763.167,288.167 762.5,289.5C 760.6,291.619 758.934,293.953 757.5,296.5C 755.585,296.216 753.919,296.549 752.5,297.5C 752.167,297.5 751.833,297.5 751.5,297.5C 749.161,297.854 746.994,297.187 745,295.5C 744.503,293.19 744.337,290.857 744.5,288.5C 746.684,284.119 749.35,280.119 752.5,276.5 Z M 752.5,303.5 C 751.833,305.167 751.167,306.833 750.5,308.5C 749.735,309.66 748.735,310.66 747.5,311.5C 745.275,309.89 742.941,308.557 740.5,307.5C 739.167,306.5 739.167,305.5 740.5,304.5C 741.961,305.686 743.295,305.686 744.5,304.5C 747.167,304.167 749.833,303.833 752.5,303.5 Z"/></g>
<g><path style="opacity:0.796" fill="#6f6f6f" d="M 874.5,-0.5 C 875.167,-0.5 875.833,-0.5 876.5,-0.5C 882.656,3.74685 888.99,7.74685 895.5,11.5C 895.631,12.2389 895.464,12.9056 895,13.5C 888.892,8.7075 882.392,4.87417 875.5,2C 873.484,5.34346 871.484,8.67679 869.5,12C 872.299,14.1597 874.799,16.6597 877,19.5C 878.334,20.8779 878.501,22.2113 877.5,23.5C 876.19,21.5654 874.857,19.5654 873.5,17.5C 871.581,16.3875 869.914,15.0542 868.5,13.5C 868.5,12.5 868.5,11.5 868.5,10.5C 870.766,6.96631 872.766,3.29965 874.5,-0.5 Z"/></g>
<g><path style="opacity:0.867" fill="#6d6d6d" d="M 899.5,8.5 C 898.758,10.3497 897.758,11.0164 896.5,10.5C 897.242,8.65027 898.242,7.9836 899.5,8.5 Z"/></g>
<g><path style="opacity:0.132" fill="#000000" d="M 868.5,10.5 C 868.5,11.5 868.5,12.5 868.5,13.5C 866.443,13.0433 866.443,12.0433 868.5,10.5 Z"/></g>
<g><path style="opacity:0.078" fill="#bebebe" d="M 901.5,9.5 C 903.938,11.2672 906.605,12.6006 909.5,13.5C 909.5,14.8333 909.5,16.1667 909.5,17.5C 906.931,20.961 904.597,24.6277 902.5,28.5C 901.957,28.44 901.624,28.1067 901.5,27.5C 903.833,23.5 906.167,19.5 908.5,15.5C 906.167,14 903.833,12.5 901.5,11C 900.262,10.31 900.262,9.81001 901.5,9.5 Z"/></g>
<g><path style="opacity:0.635" fill="#707070" d="M 877.5,24.5 C 880.745,25.7445 883.078,28.0779 884.5,31.5C 883.964,33.1449 883.297,33.4782 882.5,32.5C 881.331,29.4887 879.664,26.822 877.5,24.5 Z"/></g>
<g><path style="opacity:0.557" fill="#a8a8a8" d="M 881.5,34.5 C 878.94,40.5622 875.44,46.5622 871,52.5C 870.601,52.2716 870.435,51.9382 870.5,51.5C 873.807,45.5414 877.473,39.8747 881.5,34.5 Z"/></g>
<g><path style="opacity:0.247" fill="#5a5a5a" d="M 892.5,27.5 C 883.112,41.562 874.112,55.8953 865.5,70.5C 864.624,70.6309 863.957,70.2975 863.5,69.5C 872.751,54.663 882.251,39.9964 892,25.5C 892.464,26.0944 892.631,26.7611 892.5,27.5 Z"/></g>
<g><path style="opacity:0.569" fill="#a7a7a7" d="M 869.5,53.5 C 868.624,56.8888 866.791,60.2221 864,63.5C 863.601,63.2716 863.435,62.9382 863.5,62.5C 865.265,59.2911 867.265,56.2911 869.5,53.5 Z"/></g>
<g><path style="opacity:0.761" fill="#646464" d="M 894.5,29.5 C 895.239,29.369 895.906,29.5357 896.5,30C 887.364,44.6343 878.03,59.1343 868.5,73.5C 867.702,73.0431 867.369,72.3764 867.5,71.5C 876.985,57.8762 885.985,43.8762 894.5,29.5 Z"/></g>
<g><path style="opacity:0.875" fill="#5f5f5f" d="M 860.5,67.5 C 861.738,67.81 861.738,68.31 860.5,69C 857.386,70.0796 854.386,70.2463 851.5,69.5C 854.311,68.525 857.311,67.8583 860.5,67.5 Z"/></g>
<g><path style="opacity:0.757" fill="#717171" d="M 851.5,69.5 C 851.209,70.6491 850.376,71.3158 849,71.5C 845.07,72.2738 841.237,73.2738 837.5,74.5C 837.5,74.1667 837.5,73.8333 837.5,73.5C 839.109,72.2291 840.942,71.2291 843,70.5C 843.333,70.8333 843.667,71.1667 844,71.5C 846.382,70.4459 848.882,69.7792 851.5,69.5 Z"/></g>
<g><path style="opacity:0.529" fill="#b3b3b3" d="M 837.5,73.5 C 837.5,73.8333 837.5,74.1667 837.5,74.5C 833.678,80.8055 829.845,87.1389 826,93.5C 825.31,94.7383 824.81,94.7383 824.5,93.5C 828.349,86.4557 832.682,79.789 837.5,73.5 Z"/></g>
<g><path style="opacity:0.306" fill="#535353" d="M 873.5,74.5 C 875.229,75.2362 876.229,76.5695 876.5,78.5C 874.956,78.2969 873.622,77.6302 872.5,76.5C 871.127,74.1916 871.46,73.5249 873.5,74.5 Z"/></g>
<g><path style="opacity:0.169" fill="#595959" d="M 842.5,88.5 C 842.5,89.1667 842.5,89.8333 842.5,90.5C 841.662,90.8417 841.328,91.5084 841.5,92.5C 840.833,92.8333 840.167,93.1667 839.5,93.5C 839.259,90.9664 840.259,89.2998 842.5,88.5 Z"/></g>
<g><path style="opacity:0.184" fill="#474747" d="M 839.5,93.5 C 839.5,94.1667 839.5,94.8333 839.5,95.5C 838.833,95.8333 838.167,96.1667 837.5,96.5C 837.285,94.8212 837.952,93.8212 839.5,93.5 Z"/></g>
<g><path style="opacity:0.263" fill="#555555" d="M 852.5,94.5 C 851.662,94.8417 851.328,95.5084 851.5,96.5C 851.167,96.5 850.833,96.5 850.5,96.5C 850.312,94.8967 850.812,93.5634 852,92.5C 852.464,93.0944 852.631,93.7611 852.5,94.5 Z"/></g>
<g><path style="opacity:0.204" fill="#434343" d="M 850.5,96.5 C 850.5,97.1667 850.5,97.8333 850.5,98.5C 849.833,98.8333 849.167,99.1667 848.5,99.5C 848.285,97.8212 848.952,96.8212 850.5,96.5 Z"/></g>
<g><path style="opacity:0.671" fill="#5b5b5b" d="M 837.5,96.5 C 837.5,97.1667 837.5,97.8333 837.5,98.5C 836.094,98.9731 835.427,99.9731 835.5,101.5C 835.167,101.5 834.833,101.5 834.5,101.5C 833.916,98.715 834.916,97.0483 837.5,96.5 Z"/></g>
<g><path style="opacity:0.176" fill="#4a4a4a" d="M 834.5,101.5 C 834.5,102.167 834.5,102.833 834.5,103.5C 833.833,103.833 833.167,104.167 832.5,104.5C 832.285,102.821 832.952,101.821 834.5,101.5 Z"/></g>
<g><path style="opacity:0.663" fill="#626262" d="M 848.5,99.5 C 848.5,100.167 848.5,100.833 848.5,101.5C 847.094,101.973 846.427,102.973 846.5,104.5C 845.094,104.973 844.427,105.973 844.5,107.5C 844.167,107.5 843.833,107.5 843.5,107.5C 843.694,103.752 845.361,101.085 848.5,99.5 Z"/></g>
<g><path style="opacity:0.886" fill="#505050" d="M 852.5,94.5 C 853.552,94.3505 854.552,94.5172 855.5,95C 853.232,97.9251 851.232,101.092 849.5,104.5C 848.643,105.425 847.643,106.092 846.5,106.5C 846.5,105.833 846.5,105.167 846.5,104.5C 847.906,104.027 848.573,103.027 848.5,101.5C 849.906,101.027 850.573,100.027 850.5,98.5C 851.338,98.1583 851.672,97.4916 851.5,96.5C 852.338,96.1583 852.672,95.4916 852.5,94.5 Z"/></g>
<g><path style="opacity:0.773" fill="#5d5d5d" d="M 843.5,88.5 C 844.097,88.7352 844.43,89.2352 844.5,90C 841.292,97.5904 836.959,104.424 831.5,110.5C 828.144,109.653 827.644,107.987 830,105.5C 830.671,104.748 831.504,104.414 832.5,104.5C 832.5,105.167 832.5,105.833 832.5,106.5C 833.906,106.027 834.573,105.027 834.5,103.5C 835.338,103.158 835.672,102.492 835.5,101.5C 836.906,101.027 837.573,100.027 837.5,98.5C 838.906,98.0269 839.573,97.0269 839.5,95.5C 840.906,95.0269 841.573,94.0269 841.5,92.5C 842.338,92.1583 842.672,91.4916 842.5,90.5C 843.338,90.1583 843.672,89.4916 843.5,88.5 Z M 832.5,106.5 C 831.711,106.783 831.044,107.283 830.5,108C 831.816,108.528 832.483,108.028 832.5,106.5 Z"/></g>
<g><path style="opacity:0.212" fill="#414141" d="M 843.5,107.5 C 843.5,108.167 843.5,108.833 843.5,109.5C 842.833,109.833 842.167,110.167 841.5,110.5C 841.285,108.821 841.952,107.821 843.5,107.5 Z"/></g>
<g><path style="opacity:0.875" fill="#595959" d="M 814.5,106.5 C 814.586,107.496 814.252,108.329 813.5,109C 811.649,109.837 809.816,110.671 808,111.5C 807.601,111.272 807.435,110.938 807.5,110.5C 809.35,108.428 811.683,107.095 814.5,106.5 Z"/></g>
<g><path style="opacity:0.306" fill="#383838" d="M 841.5,110.5 C 841.5,111.167 841.5,111.833 841.5,112.5C 840.662,112.842 840.328,113.508 840.5,114.5C 839.448,114.649 838.448,114.483 837.5,114C 838.103,111.929 839.436,110.762 841.5,110.5 Z"/></g>
<g><path style="opacity:0.878" fill="#5d5d5d" d="M 846.5,106.5 C 845.708,110.134 844.208,113.467 842,116.5C 841.282,117.451 840.449,117.617 839.5,117C 840.252,116.329 840.586,115.496 840.5,114.5C 841.338,114.158 841.672,113.492 841.5,112.5C 842.906,112.027 843.573,111.027 843.5,109.5C 844.338,109.158 844.672,108.492 844.5,107.5C 845.167,107.167 845.833,106.833 846.5,106.5 Z"/></g>
<g><path style="opacity:0.102" fill="#a6a6a6" d="M 811.5,134.5 C 812.806,132.184 814.139,129.85 815.5,127.5C 815.333,127.167 815.167,126.833 815,126.5C 804.979,141.218 795.479,156.218 786.5,171.5C 785.761,171.631 785.094,171.464 784.5,171C 793.667,156.5 802.833,142 812,127.5C 813.019,126.313 814.186,125.313 815.5,124.5C 816.5,124.833 817.167,125.5 817.5,126.5C 816.253,129.329 814.753,131.995 813,134.5C 812.31,135.738 811.81,135.738 811.5,134.5 Z"/></g>
<g><path style="opacity:0.553" fill="#aaaaaa" d="M 810.5,136.5 C 807.94,142.562 804.44,148.562 800,154.5C 799.601,154.272 799.435,153.938 799.5,153.5C 802.807,147.541 806.473,141.875 810.5,136.5 Z"/></g>
<g><path style="opacity:0.565" fill="#a9a9a9" d="M 798.5,155.5 C 797.624,158.889 795.791,162.222 793,165.5C 792.601,165.272 792.435,164.938 792.5,164.5C 794.265,161.291 796.265,158.291 798.5,155.5 Z"/></g>
<g><path style="opacity:0.698" fill="#757575" d="M 773.5,163.5 C 773.291,164.922 772.791,166.255 772,167.5C 765.009,174.791 758.009,182.125 751,189.5C 750.601,189.272 750.435,188.938 750.5,188.5C 757.855,179.815 765.522,171.481 773.5,163.5 Z"/></g>
<g><path style="opacity:0.147" fill="#000000" d="M 748.5,190.5 C 748.5,191.5 748.5,192.5 748.5,193.5C 746.015,192.74 746.015,191.74 748.5,190.5 Z"/></g>
<g><path style="opacity:0.867" fill="#6b6b6b" d="M 749.5,188.5 C 749.493,191.645 750.493,194.311 752.5,196.5C 750.77,195.974 749.436,194.974 748.5,193.5C 748.5,192.5 748.5,191.5 748.5,190.5C 748.328,189.508 748.662,188.842 749.5,188.5 Z"/></g>
<g><path style="opacity:0.422" fill="#6d6d6d" d="M 778.5,233.5 C 779.29,234.401 780.29,235.068 781.5,235.5C 779.544,236.801 777.877,236.301 776.5,234C 777.256,232.62 777.922,232.453 778.5,233.5 Z"/></g>
<g><path style="opacity:0.588" fill="#959595" d="M 782.5,235.5 C 784.403,235.796 786.07,236.463 787.5,237.5C 787.5,237.833 787.5,238.167 787.5,238.5C 785.152,238.408 783.486,237.408 782.5,235.5 Z"/></g>
<g><path style="opacity:0.82" fill="#646464" d="M 787.5,237.5 C 792.189,238.503 796.855,239.503 801.5,240.5C 796.718,241.282 792.052,240.615 787.5,238.5C 787.5,238.167 787.5,237.833 787.5,237.5 Z"/></g>
<g><path style="opacity:0.882" fill="#555555" d="M 841.5,237.5 C 838.905,239.324 835.905,240.657 832.5,241.5C 831.791,240.596 830.791,240.263 829.5,240.5C 833.445,238.513 837.445,237.513 841.5,237.5 Z"/></g>
<g><path style="opacity:0.545" fill="#6f6f6f" d="M 829.5,240.5 C 830.791,240.263 831.791,240.596 832.5,241.5C 826.688,242.033 820.854,242.366 815,242.5C 810.443,242.491 806.276,241.825 802.5,240.5C 811.261,240.978 820.261,240.978 829.5,240.5 Z"/></g>
<g><path style="opacity:0.843" fill="#5d5d5d" d="M 858.5,246.5 C 857.624,246.631 856.957,246.298 856.5,245.5C 854.921,242.006 853.087,238.673 851,235.5C 847.892,237.392 844.725,238.059 841.5,237.5C 844.429,235.79 847.596,234.457 851,233.5C 854.881,236.917 857.381,241.25 858.5,246.5 Z"/></g>
<g><path style="opacity:0.78" fill="#676767" d="M 858.5,246.5 C 861.685,252.21 864.352,258.21 866.5,264.5C 866.315,265.584 865.982,266.584 865.5,267.5C 863.593,260.83 860.926,254.33 857.5,248C 858.056,247.617 858.389,247.117 858.5,246.5 Z"/></g>
<g><path style="opacity:0.141" fill="#575757" d="M 865.5,269.5 C 865.167,270.5 864.5,271.167 863.5,271.5C 862.5,269.167 863.167,268.5 865.5,269.5 Z"/></g>
<g><path style="opacity:0.733" fill="#616161" d="M 763.5,273.5 C 765.5,275.167 767.5,276.833 769.5,278.5C 764.943,276.888 760.61,274.722 756.5,272C 756.167,271.667 755.833,271.333 755.5,271C 758.905,270.032 761.571,270.865 763.5,273.5 Z"/></g>
<g><path style="opacity:0.475" fill="#676767" d="M 862.5,272.5 C 852.389,276.144 842.222,278.811 832,280.5C 822.7,281.553 813.534,281.553 804.5,280.5C 803.081,279.549 801.415,279.216 799.5,279.5C 788.22,279.674 776.553,277.674 764.5,273.5C 764.735,272.903 765.235,272.57 766,272.5C 797.96,282.09 829.794,281.757 861.5,271.5C 862.107,271.624 862.44,271.957 862.5,272.5 Z"/></g>
<g><path style="opacity:0.859" fill="#656565" d="M 764.5,284.5 C 760.881,281.35 756.881,278.684 752.5,276.5C 751.537,275.637 751.537,274.97 752.5,274.5C 756.968,277.137 761.302,279.97 765.5,283C 764.944,283.383 764.611,283.883 764.5,284.5 Z"/></g>
<g><path style="opacity:0.094" fill="#000000" d="M 799.5,279.5 C 801.415,279.216 803.081,279.549 804.5,280.5C 802.741,281.261 801.074,280.928 799.5,279.5 Z"/></g>
<g><path style="opacity:0.804" fill="#6a6a6a" d="M 764.5,285.5 C 765.239,285.369 765.906,285.536 766.5,286C 765.897,288.071 764.564,289.238 762.5,289.5C 763.167,288.167 763.833,286.833 764.5,285.5 Z"/></g>
<g><path style="opacity:0.406" fill="#787878" d="M 770.5,280.5 C 771.239,280.369 771.906,280.536 772.5,281C 772.806,286.283 771.139,291.116 767.5,295.5C 766.957,295.44 766.624,295.107 766.5,294.5C 769.946,290.124 771.28,285.457 770.5,280.5 Z"/></g>
<g><path style="opacity:0.751" fill="#626262" d="M 744.5,288.5 C 744.337,290.857 744.503,293.19 745,295.5C 746.994,297.187 749.161,297.854 751.5,297.5C 748.53,299.609 745.697,298.942 743,295.5C 742.333,292.833 742.333,290.167 743,287.5C 743.383,288.056 743.883,288.389 744.5,288.5 Z"/></g>
<g><path style="opacity:0.106" fill="#030303" d="M 752.5,297.5 C 753.919,296.549 755.585,296.216 757.5,296.5C 757.5,296.833 757.5,297.167 757.5,297.5C 757.5,297.833 757.5,298.167 757.5,298.5C 756.778,298.918 756.278,299.584 756,300.5C 755.722,299.584 755.222,298.918 754.5,298.5C 754.158,297.662 753.492,297.328 752.5,297.5 Z"/></g>
<g><path style="opacity:0.702" fill="#6b6b6b" d="M 762.5,289.5 C 763.501,290.789 763.334,292.122 762,293.5C 761.124,295.635 759.624,296.969 757.5,297.5C 757.5,297.167 757.5,296.833 757.5,296.5C 758.934,293.953 760.6,291.619 762.5,289.5 Z"/></g>
<g><path style="opacity:0.678" fill="#606060" d="M 754.5,298.5 C 755.222,298.918 755.722,299.584 756,300.5C 756.278,299.584 756.778,298.918 757.5,298.5C 757.938,298.435 758.272,298.601 758.5,299C 756.542,301.748 754.709,304.582 753,307.5C 752.329,308.252 751.496,308.586 750.5,308.5C 751.167,306.833 751.833,305.167 752.5,303.5C 749.833,303.833 747.167,304.167 744.5,304.5C 748.025,303.061 751.358,301.061 754.5,298.5 Z"/></g>
<g><path style="opacity:0.034" fill="#141414" d="M 740.5,304.5 C 739.167,305.5 739.167,306.5 740.5,307.5C 734.258,305.431 734.258,304.431 740.5,304.5 Z"/></g>
<g><path style="opacity:0.741" fill="#5b5b5b" d="M 689.5,297.5 C 690.043,297.56 690.376,297.893 690.5,298.5C 689.832,302.53 689.166,306.53 688.5,310.5C 687.875,307.147 687.542,303.647 687.5,300C 688.066,299.005 688.733,298.172 689.5,297.5 Z"/></g>
<g><path style="opacity:0.663" fill="#5d5d5d" d="M 740.5,307.5 C 742.941,308.557 745.275,309.89 747.5,311.5C 748.735,310.66 749.735,309.66 750.5,308.5C 751.567,310.677 750.734,312.011 748,312.5C 744.5,312.142 742,310.475 740.5,307.5 Z"/></g>
<g><path style="opacity:0.498" fill="#787878" d="M 688.5,310.5 C 690.397,312.269 691.564,314.602 692,317.5C 690.359,328.469 686.693,338.802 681,348.5C 680.617,347.944 680.117,347.611 679.5,347.5C 683.554,339.889 687.221,332.056 690.5,324C 690.5,321.333 690.5,318.667 690.5,316C 689.536,314.275 688.869,312.441 688.5,310.5 Z"/></g>
<g><path style="opacity:0.753" fill="#606060" d="M 750.5,322.5 C 752.406,325.983 754.072,329.65 755.5,333.5C 754.883,333.611 754.383,333.944 754,334.5C 751.639,330.612 750.472,326.612 750.5,322.5 Z"/></g>
<g><path style="opacity:0.8" fill="#5f5f5f" d="M 754.5,373.5 C 752.95,377.22 750.783,380.553 748,383.5C 743.689,377.994 740.189,371.494 737.5,364C 737.833,363.667 738.167,363.333 738.5,363C 737.023,361.116 735.69,359.116 734.5,357C 734.833,356.667 735.167,356.333 735.5,356C 734.281,352.308 732.281,348.641 729.5,345C 729.833,344.667 730.167,344.333 730.5,344C 727.972,340.788 725.805,337.288 724,333.5C 720.151,331.731 716.985,332.398 714.5,335.5C 714.33,334.178 714.663,333.011 715.5,332C 720.097,329.46 723.93,330.293 727,334.5C 734.017,349.864 741.017,365.197 748,380.5C 749.333,378.5 750.667,376.5 752,374.5C 752.671,373.748 753.504,373.414 754.5,373.5 Z"/></g>
<g><path style="opacity:0.561" fill="#676767" d="M 714.5,335.5 C 713.114,340.352 712.114,345.018 711.5,349.5C 710.387,348.054 710.22,346.387 711,344.5C 711.371,340.967 712.537,337.967 714.5,335.5 Z"/></g>
<g><path style="opacity:0.557" fill="#6f6f6f" d="M 755.5,334.5 C 759.205,341.861 762.205,349.194 764.5,356.5C 763.25,356.423 762.417,355.756 762,354.5C 759.598,348.459 757.098,342.459 754.5,336.5C 754.863,335.817 755.196,335.15 755.5,334.5 Z"/></g>
<g><path style="opacity:0.886" fill="#5f5f5f" d="M 679.5,349.5 C 679.938,349.435 680.272,349.601 680.5,350C 678.987,353.897 676.654,357.063 673.5,359.5C 675.11,355.9 677.11,352.566 679.5,349.5 Z"/></g>
<g><path style="opacity:0.22" fill="#4a4a4a" d="M 763.5,359.5 C 763.068,360.71 762.401,361.71 761.5,362.5C 761.285,360.821 761.952,359.821 763.5,359.5 Z"/></g>
<g><path style="opacity:0.769" fill="#585858" d="M 673.5,359.5 C 672.996,363.642 670.996,366.642 667.5,368.5C 669.265,365.291 671.265,362.291 673.5,359.5 Z"/></g>
<g><path style="opacity:0.812" fill="#5e5e5e" d="M 710.5,355.5 C 710.115,360.11 709.115,364.444 707.5,368.5C 706.876,368.083 706.543,367.416 706.5,366.5C 707.064,364.181 707.564,361.847 708,359.5C 708.122,357.563 708.955,356.23 710.5,355.5 Z"/></g>
<g><path style="opacity:0.278" fill="#414141" d="M 761.5,362.5 C 760.649,364.882 759.316,366.882 757.5,368.5C 757.375,365.392 758.708,363.392 761.5,362.5 Z"/></g>
<g><path style="opacity:0.231" fill="#484848" d="M 756.5,370.5 C 756.068,371.71 755.401,372.71 754.5,373.5C 754.285,371.821 754.952,370.821 756.5,370.5 Z"/></g>
<g><path style="opacity:0.733" fill="#646464" d="M 707.5,370.5 C 707.768,372.099 707.434,373.432 706.5,374.5C 704.825,372.544 705.158,371.211 707.5,370.5 Z"/></g>
<g><path style="opacity:0.443" fill="#2b2b2b" d="M 663.5,373.5 C 663.367,376.366 662.034,378.366 659.5,379.5C 660.34,377.147 661.674,375.147 663.5,373.5 Z"/></g>
<g><path style="opacity:0.765" fill="#5f5f5f" d="M 706.5,374.5 C 705.688,381.039 704.355,387.039 702.5,392.5C 702.461,391.417 702.127,390.417 701.5,389.5C 702.576,385.362 703.576,381.195 704.5,377C 704.684,375.624 705.351,374.791 706.5,374.5 Z"/></g>
<g><path style="opacity:0.373" fill="#333333" d="M 656.5,382.5 C 656.25,384.941 655.25,386.941 653.5,388.5C 653.167,388.5 652.833,388.5 652.5,388.5C 653.34,386.147 654.674,384.147 656.5,382.5 Z"/></g>
<g><path style="opacity:0.504" fill="#8c8c8c" d="M 652.5,388.5 C 652.833,388.5 653.167,388.5 653.5,388.5C 652.223,390.95 650.723,393.283 649,395.5C 648.31,396.738 647.81,396.738 647.5,395.5C 648.811,392.865 650.478,390.531 652.5,388.5 Z"/></g>
<g><path style="opacity:0.757" fill="#656565" d="M 702.5,394.5 C 701.468,400.422 700.135,406.255 698.5,412C 699.458,413.147 699.125,414.147 697.5,415C 697.833,415.333 698.167,415.667 698.5,416C 697.901,417.622 697.234,419.122 696.5,420.5C 696.077,419.735 695.743,418.902 695.5,418C 697.127,411.532 698.627,405.032 700,398.5C 700.122,396.563 700.955,395.23 702.5,394.5 Z"/></g>
<g><path style="opacity:0.616" fill="#707070" d="M 643.5,402.5 C 643.938,402.435 644.272,402.601 644.5,403C 640.755,409.9 637.588,417.067 635,424.5C 634.583,425.756 633.75,426.423 632.5,426.5C 634.909,418.27 638.576,410.27 643.5,402.5 Z"/></g>
<g><path style="opacity:0.584" fill="#6a6a6a" d="M 696.5,422.5 C 696.44,425.341 695.774,428.007 694.5,430.5C 693.402,429.399 693.235,428.066 694,426.5C 694.122,424.563 694.955,423.23 696.5,422.5 Z"/></g>
<g><path style="opacity:0.588" fill="#656565" d="M 694.5,431.5 C 693.66,435.985 692.66,440.319 691.5,444.5C 690.768,441.573 690.935,438.573 692,435.5C 692.122,433.563 692.955,432.23 694.5,431.5 Z"/></g>
<g><path style="opacity:0.788" fill="#717171" d="M 632.5,428.5 C 630.933,433.37 630.433,438.37 631,443.5C 633.383,446.273 636.217,448.439 639.5,450C 640.738,450.69 640.738,451.19 639.5,451.5C 627.709,446.222 625.375,438.555 632.5,428.5 Z"/></g>
<g><path style="opacity:0.722" fill="#595959" d="M 691.5,446.5 C 692.069,449.026 691.402,451.359 689.5,453.5C 688.158,450.532 688.825,448.198 691.5,446.5 Z"/></g>
<g><path style="opacity:0.58" fill="#a2a2a2" d="M 653.5,460.5 C 649.119,458.316 645.119,455.65 641.5,452.5C 641.435,452.062 641.601,451.728 642,451.5C 646.08,454.457 650.247,457.29 654.5,460C 654.272,460.399 653.938,460.565 653.5,460.5 Z"/></g>
<g><path style="opacity:0.825" fill="#616161" d="M 689.5,455.5 C 689.612,458.179 688.945,460.846 687.5,463.5C 686.303,460.285 686.97,457.618 689.5,455.5 Z"/></g>
<g><path style="opacity:0.565" fill="#a6a6a6" d="M 664.5,467.5 C 661.291,465.735 658.291,463.735 655.5,461.5C 658.889,462.376 662.222,464.209 665.5,467C 665.272,467.399 664.938,467.565 664.5,467.5 Z"/></g>
<g><path style="opacity:0.098" fill="#959595" d="M 672.5,472.5 C 670.205,471.525 668.205,470.192 666.5,468.5C 666.435,468.062 666.601,467.728 667,467.5C 669.167,469 671.333,470.5 673.5,472C 673.272,472.399 672.938,472.565 672.5,472.5 Z"/></g>
<g><path style="opacity:0.612" fill="#757575" d="M 687.5,465.5 C 686.345,468.328 685.011,470.995 683.5,473.5C 683.518,470.563 684.352,467.563 686,464.5C 686.383,465.056 686.883,465.389 687.5,465.5 Z"/></g>
<g><path style="opacity:0.82" fill="#737373" d="M 683.5,473.5 C 682.197,476.379 680.197,477.045 677.5,475.5C 679.302,474.542 681.302,473.875 683.5,473.5 Z"/></g>
</svg>
