<?xml version="1.0" encoding="UTF-8"?>
<!DOCTYPE svg PUBLIC "-//W3C//DTD SVG 1.1//EN" "http://www.w3.org/Graphics/SVG/1.1/DTD/svg11.dtd">
<svg xmlns="http://www.w3.org/2000/svg" version="1.1" width="380px" height="320px" style="shape-rendering:geometricPrecision; text-rendering:geometricPrecision; image-rendering:optimizeQuality; fill-rule:evenodd; clip-rule:evenodd" xmlns:xlink="http://www.w3.org/1999/xlink">
<g><path style="opacity:0.947" fill="#ebebeb" d="M 336.5,-0.5 C 341.833,-0.5 347.167,-0.5 352.5,-0.5C 352.752,2.3198 352.252,4.98646 351,7.5C 336.833,21.6667 322.667,35.8333 308.5,50C 326.219,50.055 343.886,50.7217 361.5,52C 368.758,54.9241 373.592,60.0908 376,67.5C 377.651,127.455 377.985,187.455 377,247.5C 375.456,257.376 369.956,263.876 360.5,267C 270.5,267.333 180.5,267.667 90.5,268C 73.2982,285.035 56.2982,302.201 39.5,319.5C 34.5,319.5 29.5,319.5 24.5,319.5C 23.2083,316.304 23.7083,313.304 26,310.5C 40.1667,296.333 54.3333,282.167 68.5,268C 50.8333,267.667 33.1667,267.333 15.5,267C 7.89337,263.562 2.56003,258.062 -0.5,250.5C -0.5,189.833 -0.5,129.167 -0.5,68.5C 3.08302,59.7528 9.41636,53.9195 18.5,51C 107.833,50.6667 197.167,50.3333 286.5,50C 303.368,33.2986 320.035,16.4652 336.5,-0.5 Z M 21.5,65.5 C 104.501,65.3333 187.501,65.5 270.5,66C 261.833,74.6667 253.167,83.3333 244.5,92C 185.084,92.0076 125.751,92.6743 66.5,94C 65.2986,94.9025 64.4652,96.0692 64,97.5C 63.095,109.402 56.595,115.569 44.5,116C 43.2986,116.903 42.4652,118.069 42,119.5C 41.3333,146.167 41.3333,172.833 42,199.5C 42.5,201.333 43.6667,202.5 45.5,203C 57.0232,203.857 63.1899,210.023 64,221.5C 64.4652,222.931 65.2986,224.097 66.5,225C 80.7788,226.264 95.1121,226.931 109.5,227C 100.833,235.667 92.1667,244.333 83.5,253C 63.1667,253.667 42.8333,253.667 22.5,253C 18.9798,252.496 16.4798,250.663 15,247.5C 14.3333,188.833 14.3333,130.167 15,71.5C 16.4361,68.5581 18.6028,66.5581 21.5,65.5 Z M 292.5,65.5 C 313.169,65.3334 333.836,65.5 354.5,66C 357.455,66.3917 359.622,67.8917 361,70.5C 362.155,100.107 362.655,129.774 362.5,159.5C 362.655,189.226 362.155,218.893 361,248.5C 359.048,250.894 356.548,252.394 353.5,253C 270.833,253.667 188.167,253.667 105.5,253C 114.167,244.333 122.833,235.667 131.5,227C 189.833,226.667 248.167,226.333 306.5,226C 308.848,225.654 310.681,224.487 312,222.5C 312.506,209.994 319.006,203.494 331.5,203C 332.333,202.167 333.167,201.333 334,200.5C 335.15,186.924 335.65,173.257 335.5,159.5C 335.65,145.743 335.15,132.076 334,118.5C 330.931,115.193 327.098,113.693 322.5,114C 315.69,110.323 312.19,104.49 312,96.5C 311.5,94.6667 310.333,93.5 308.5,93C 294.5,92.6667 280.5,92.3333 266.5,92C 275.369,83.2983 284.036,74.465 292.5,65.5 Z M 77.5,107.5 C 127.834,107.333 178.168,107.5 228.5,108C 223.652,113.015 218.652,117.848 213.5,122.5C 195.558,111.614 177.891,112.114 160.5,124C 141.767,141.832 138.767,161.998 151.5,184.5C 143.014,193.486 134.348,202.319 125.5,211C 109.503,211.5 93.5035,211.667 77.5,211.5C 74.6885,200.519 67.8551,193.185 57,189.5C 56.5,169.169 56.3334,148.836 56.5,128.5C 67.7971,125.87 74.7971,118.87 77.5,107.5 Z M 250.5,107.5 C 266.503,107.333 282.503,107.5 298.5,108C 302.333,118.5 309.5,125.667 320,129.5C 320.667,149.5 320.667,169.5 320,189.5C 309.758,193.241 302.591,200.241 298.5,210.5C 248.17,211.667 197.837,211.833 147.5,211C 152.377,205.787 157.544,200.954 163,196.5C 179.366,205.64 195.866,205.807 212.5,197C 229.929,184.387 236.096,167.553 231,146.5C 229.486,141.971 227.319,137.805 224.5,134C 233.369,125.298 242.036,116.465 250.5,107.5 Z M 186.5,129.5 C 192.205,129.805 197.538,131.305 202.5,134C 189.333,147.167 176.167,160.333 163,173.5C 155.47,157.508 158.97,144.341 173.5,134C 177.715,131.763 182.048,130.263 186.5,129.5 Z M 212.5,145.5 C 214.335,146.122 215.502,147.456 216,149.5C 220.278,168.857 213.111,181.691 194.5,188C 187.976,189.011 181.643,188.345 175.5,186C 174.549,185.282 174.383,184.449 175,183.5C 187.702,170.965 200.202,158.298 212.5,145.5 Z"/></g>
<g><path style="opacity:0.965" fill="#e8e8e8" d="M 85.5,152.5 C 98.8375,152.333 112.171,152.5 125.5,153C 129.5,157.333 129.5,161.667 125.5,166C 112.167,166.667 98.8333,166.667 85.5,166C 81.5413,161.501 81.5413,157.001 85.5,152.5 Z"/></g>
<g><path style="opacity:0.963" fill="#e8e8e8" d="M 250.5,152.5 C 264.171,152.333 277.837,152.5 291.5,153C 295.749,157.801 295.416,162.134 290.5,166C 277.5,166.667 264.5,166.667 251.5,166C 246.509,161.875 246.175,157.375 250.5,152.5 Z"/></g>
</svg>
