<?xml version="1.0" encoding="UTF-8"?>
<!DOCTYPE svg PUBLIC "-//W3C//DTD SVG 1.1//EN" "http://www.w3.org/Graphics/SVG/1.1/DTD/svg11.dtd">
<svg xmlns="http://www.w3.org/2000/svg" version="1.1" width="260px" height="452px" style="shape-rendering:geometricPrecision; text-rendering:geometricPrecision; image-rendering:optimizeQuality; fill-rule:evenodd; clip-rule:evenodd" xmlns:xlink="http://www.w3.org/1999/xlink">
<g><path style="opacity:0.965" fill="#ededed" d="M 114.5,-0.5 C 116.5,-0.5 118.5,-0.5 120.5,-0.5C 126.79,3.7313 130.29,9.7313 131,17.5C 134.417,38.5068 137.084,59.5068 139,80.5C 135.495,87.504 129.995,90.004 122.5,88C 110.269,91.6408 97.9361,94.8075 85.5,97.5C 89.2948,121.936 93.6282,146.27 98.5,170.5C 100.167,171.333 101.833,172.167 103.5,173C 114.236,187.198 128.236,192.031 145.5,187.5C 158.315,164.543 176.648,158.71 200.5,170C 231.624,190.709 249.124,219.876 253,257.5C 253.832,264.484 254.499,271.484 255,278.5C 255.333,310.167 255.667,341.833 256,373.5C 256.241,387.396 257.408,401.062 259.5,414.5C 259.5,425.167 259.5,435.833 259.5,446.5C 257.5,447.833 255.833,449.5 254.5,451.5C 246.5,451.5 238.5,451.5 230.5,451.5C 227.324,448.489 225.157,444.822 224,440.5C 220.108,414.815 216.108,389.148 212,363.5C 206.608,390.4 200.275,417.066 193,443.5C 191.404,446.369 189.57,449.036 187.5,451.5C 179.5,451.5 171.5,451.5 163.5,451.5C 156.884,445.606 154.718,438.272 157,429.5C 170.439,387.534 177.605,344.534 178.5,300.5C 178.63,290.274 177.964,280.107 176.5,270C 176.643,267.849 177.643,266.182 179.5,265C 197.638,253.143 208.138,236.31 211,214.5C 212.482,195.317 203.649,185.817 184.5,186C 177.244,187.932 171.744,192.099 168,198.5C 165.806,209.392 160.64,218.559 152.5,226C 137.172,228.834 122.172,227.667 107.5,222.5C 107.83,226.154 107.83,229.988 107.5,234C 101.536,235.329 95.5365,235.996 89.5,236C 87.2958,226.95 85.4625,217.783 84,208.5C 80.6357,204.143 77.3024,199.809 74,195.5C 73.3333,190.833 73.3333,186.167 74,181.5C 74.8776,178.785 76.3776,176.451 78.5,174.5C 74.1199,150.887 69.9532,127.22 66,103.5C 56.3064,103.638 46.8064,105.471 37.5,109C 31.1667,109.667 24.8333,109.667 18.5,109C 14.9421,107.108 12.4421,104.275 11,100.5C 5.63109,77.4776 3.29776,54.1442 4,30.5C 5.12173,28.3762 6.62173,26.5429 8.5,25C 25.3166,18.0617 42.6499,12.7283 60.5,9C 78.5781,5.49326 96.5781,2.3266 114.5,-0.5 Z M 111.5,16.5 C 112.496,16.4142 113.329,16.7476 114,17.5C 118.144,35.3106 119.977,53.3106 119.5,71.5C 103.534,76.0993 87.5344,80.5993 71.5,85C 56.0855,87.5166 40.7522,90.3499 25.5,93.5C 21.609,74.7771 20.2757,55.9437 21.5,37C 50.9869,27.4057 80.9869,20.5723 111.5,16.5 Z"/></g>
<g><path style="opacity:1" fill="#edeeed" d="M 102.5,22.5 C 106.585,21.6588 109.585,22.9922 111.5,26.5C 110.581,34.031 109.414,41.6977 108,49.5C 106.521,54.2534 103.854,55.2534 100,52.5C 96.5558,45.1108 92.7224,37.9441 88.5,31C 88.7804,29.605 89.4471,28.4383 90.5,27.5C 94.6003,25.8078 98.6003,24.1411 102.5,22.5 Z"/></g>
<g><path style="opacity:1" fill="#edeeed" d="M 74.5,29.5 C 80.2945,28.9588 83.2945,31.6255 83.5,37.5C 82.6667,43.4995 81.8334,49.4995 81,55.5C 78.4905,60.2549 75.4905,60.5883 72,56.5C 68.9731,50.4179 66.1397,44.2512 63.5,38C 65.397,32.7335 69.0637,29.9002 74.5,29.5 Z"/></g>
<g><path style="opacity:1" fill="#edeeed" d="M 40.5,37.5 C 43.6008,37.6917 46.6008,38.3584 49.5,39.5C 50.84,40.6878 51.5066,42.1878 51.5,44C 50.3499,52.5886 48.3499,60.922 45.5,69C 42.9894,71.105 40.6561,70.9383 38.5,68.5C 34.97,60.6064 31.3033,52.7731 27.5,45C 27.7804,43.605 28.4471,42.4383 29.5,41.5C 33.2727,40.1611 36.9394,38.8277 40.5,37.5 Z"/></g>
<g><path style="opacity:1" fill="#edeeed" d="M 103.5,55.5 C 110.285,56.1177 113.118,59.7844 112,66.5C 109.839,70.1241 106.672,71.2907 102.5,70C 97.7435,67.6608 96.5769,64.1608 99,59.5C 100.397,57.9297 101.897,56.5964 103.5,55.5 Z"/></g>
<g><path style="opacity:1" fill="#edeeed" d="M 73.5,62.5 C 82.0679,61.5642 85.5679,65.2309 84,73.5C 79.7813,79.7419 75.1146,80.0753 70,74.5C 68.5927,69.556 69.7593,65.556 73.5,62.5 Z"/></g>
<g><path style="opacity:1" fill="#edeeed" d="M 39.5,75.5 C 46.1633,74.3326 48.9966,76.9992 48,83.5C 45.748,89.1983 42.248,90.0316 37.5,86C 34.6023,81.7656 35.2689,78.2656 39.5,75.5 Z"/></g>
<g><path style="opacity:0.971" fill="#ededed" d="M 129.5,96.5 C 157.612,94.3747 173.612,107.208 177.5,135C 174.978,158.855 161.811,172.022 138,174.5C 110.058,170.623 97.3912,154.623 100,126.5C 104.015,110.652 113.848,100.652 129.5,96.5 Z"/></g>
<g><path style="opacity:0.954" fill="#ededed" d="M 183.5,189.5 C 194.693,188.008 202.526,192.342 207,202.5C 208.412,214.772 205.745,226.105 199,236.5C 184.524,259.491 163.691,271.824 136.5,273.5C 127.311,329.303 117.478,384.969 107,440.5C 100.651,443.717 94.9839,442.717 90,437.5C 89.8333,435.5 89.6667,433.5 89.5,431.5C 98.5667,375.1 108.067,318.767 118,262.5C 116.062,251.903 119.228,243.403 127.5,237C 133.728,235.262 140.061,233.928 146.5,233C 153.841,229.993 159.674,225.16 164,218.5C 167.147,210.717 170.48,203.05 174,195.5C 176.843,192.837 180.009,190.837 183.5,189.5 Z"/></g>
</svg>
