<?xml version="1.0" encoding="UTF-8" standalone="no"?>
<svg
   xmlns:dc="http://purl.org/dc/elements/1.1/"
   xmlns:cc="http://creativecommons.org/ns#"
   xmlns:rdf="http://www.w3.org/1999/02/22-rdf-syntax-ns#"
   xmlns:svg="http://www.w3.org/2000/svg"
   xmlns="http://www.w3.org/2000/svg"
   id="svg8"
   preserveAspectRatio="xMidYMid meet"
   viewBox="0 0 256 256"
   height="256pt"
   width="256pt"
   version="1.0">
  <defs
     id="defs12" />
  <metadata
     id="metadata2">
Created by potrace 1.15, written by Peter Selinger 2001-2017
<rdf:RDF>
  <cc:Work
     rdf:about="">
    <dc:format>image/svg+xml</dc:format>
    <dc:type
       rdf:resource="http://purl.org/dc/dcmitype/StillImage" />
    <dc:title></dc:title>
  </cc:Work>
</rdf:RDF>
</metadata>
  <g
     style="fill:#ffffff;stroke:none"
     id="g6"
     transform="matrix(0.01901907,0,0,-0.02114303,4.8935314,209.33365)">
    <path
       style="fill:#ffffff"
       id="path4"
       d="m 6100,9276 c 66,-138 130,-377 130,-486 v -27 l -62,8 c -164,22 -339,73 -463,138 -38,20 -73,37 -76,39 -4,2 2,-30 12,-70 42,-158 42,-365 0,-542 -10,-42 -17,-76 -16,-76 2,0 38,18 81,40 128,64 300,112 478,134 l 49,6 -7,-68 c -21,-201 -130,-509 -188,-527 -33,-11 -171,-121 -209,-167 -87,-105 -138,-205 -169,-333 -16,-67 -18,-70 -53,-78 -19,-5 -53,-24 -75,-43 l -40,-33 -6,38 c -8,53 -56,114 -108,140 -80,38 -200,21 -252,-37 l -19,-22 -22,48 c -41,88 -112,127 -216,120 -64,-5 -117,-34 -149,-84 l -18,-27 -15,29 c -71,136 -275,143 -363,12 l -32,-47 -28,31 c -36,37 -67,54 -120,62 -118,20 -243,-79 -244,-193 0,-28 -3,-32 -17,-26 -67,29 -102,36 -141,31 -116,-16 -192,-104 -192,-222 0,-43 -1,-43 -26,-34 -66,25 -161,1 -218,-56 -38,-38 -56,-83 -56,-138 0,-37 -5,-48 -31,-70 -17,-14 -40,-26 -52,-26 -12,0 -35,-7 -52,-16 -24,-12 -30,-13 -34,-2 -2,7 -23,32 -46,54 -78,75 -192,81 -277,13 -43,-34 -48,-35 -48,-11 0,30 -48,90 -93,116 -87,50 -176,41 -251,-25 l -44,-39 -12,31 c -17,41 -64,86 -107,104 -83,35 -197,7 -250,-60 l -26,-33 -21,31 c -54,80 -163,116 -250,83 -46,-18 -126,-94 -126,-121 0,-23 -12,-18 -45,17 -81,85 -214,90 -298,10 -34,-32 -67,-93 -67,-122 0,-12 -3,-20 -7,-18 -101,52 -175,56 -247,14 -48,-28 -91,-88 -102,-143 -7,-37 -39,-54 -86,-47 -89,15 -203,-64 -228,-156 -14,-53 -79,-126 -121,-135 -44,-10 -107,-61 -129,-106 -12,-22 -23,-64 -25,-92 -2,-34 -14,-71 -33,-107 C 102,5886 45,5720 25,5618 16,5572 6,5477 3,5405 -18,4927 168,4415 518,3980 c 95,-117 290,-314 397,-399 44,-36 84,-68 89,-72 4,-4 -18,-10 -50,-14 -33,-4 -83,-13 -112,-21 l -53,-15 51,-73 c 154,-223 476,-518 807,-739 114,-76 122,-83 115,-107 -4,-14 -7,-68 -7,-120 0,-88 3,-101 33,-162 38,-77 97,-134 181,-175 50,-25 67,-28 156,-28 89,0 106,3 157,28 31,15 79,48 105,72 38,34 53,41 66,34 15,-9 17,-37 17,-304 v -293 l -30,-7 c -43,-9 -96,-63 -110,-112 -21,-69 -6,-130 46,-181 l 43,-44 -124,-220 c -69,-121 -125,-222 -125,-226 0,-3 56,-105 125,-227 l 125,-222 -44,-44 c -35,-36 -46,-54 -51,-93 -14,-88 25,-163 99,-197 40,-18 167,-19 3971,-19 3792,0 3931,1 3970,19 48,22 69,44 90,94 31,75 14,150 -49,205 l -38,33 126,221 c 69,121 126,226 125,232 0,6 -56,108 -124,226 l -123,215 36,35 c 19,19 41,49 48,67 40,94 -18,222 -108,240 l -28,6 v 288 c 0,283 0,288 22,303 20,14 24,12 72,-31 28,-25 76,-58 106,-72 48,-23 68,-26 155,-26 90,0 106,3 160,29 76,38 149,110 183,184 23,49 27,70 27,152 0,52 -3,106 -7,120 -7,24 1,31 115,107 331,221 653,516 807,739 l 51,73 -53,15 c -29,8 -79,17 -112,21 -32,4 -54,10 -50,14 5,4 45,36 89,72 107,85 302,282 397,399 353,438 539,958 514,1440 -10,195 -49,353 -129,520 -26,55 -41,102 -43,133 -5,85 -75,173 -155,192 -41,10 -106,83 -119,135 -25,92 -139,171 -228,156 -47,-7 -79,10 -86,47 -11,55 -54,115 -102,143 -72,42 -146,38 -246,-14 -5,-2 -8,6 -8,18 0,11 -9,37 -19,58 -39,75 -113,122 -194,122 -52,0 -138,-40 -161,-75 -18,-28 -36,-33 -36,-10 0,24 -72,97 -115,116 -94,43 -211,6 -265,-83 l -17,-29 -26,35 c -52,68 -167,96 -250,61 -43,-18 -90,-63 -107,-104 l -12,-31 -44,39 c -107,94 -268,65 -332,-61 l -24,-47 -37,29 c -84,67 -199,61 -276,-14 -23,-22 -44,-47 -46,-54 -4,-11 -10,-10 -34,2 -17,9 -39,16 -49,16 -11,0 -34,11 -53,26 -29,22 -33,31 -33,70 0,24 -6,59 -13,77 -18,42 -85,101 -132,117 -36,12 -113,10 -145,-4 -12,-5 -15,2 -12,38 6,69 -34,148 -94,185 -76,49 -134,50 -236,6 -15,-6 -18,-2 -18,24 0,108 -97,196 -215,195 -67,-1 -105,-17 -149,-62 l -28,-31 -32,47 c -87,130 -292,124 -362,-10 l -14,-28 -35,39 c -20,21 -51,46 -69,55 -45,21 -131,20 -182,-3 -47,-21 -100,-82 -110,-124 l -6,-29 -26,26 c -62,58 -170,73 -250,35 -52,-26 -100,-87 -108,-140 l -6,-38 -40,33 c -21,19 -58,39 -81,45 l -42,12 -18,78 c -21,95 -77,208 -145,294 -51,63 -165,159 -229,191 -69,34 -166,308 -189,529 l -7,69 49,-7 c 199,-26 352,-71 483,-140 46,-25 81,-39 78,-32 -2,6 -15,53 -28,102 -39,153 -28,378 26,562 6,19 -1,17 -77,-22 -131,-69 -316,-121 -482,-138 l -48,-5 7,57 c 19,161 78,361 141,480 18,36 32,66 30,68 -2,2 -41,-6 -87,-19 -72,-19 -108,-23 -254,-23 -169,0 -178,1 -311,43 l -32,10 z M 4961,6681 c 179,-36 439,-141 439,-177 0,-9 -17,-1 -45,21 -109,83 -262,51 -323,-68 l -25,-47 -42,39 c -91,84 -206,80 -297,-10 l -47,-47 -22,32 c -44,65 -135,104 -209,91 -42,-8 -115,-49 -130,-73 -9,-16 -11,-16 -20,0 -27,45 -68,83 -112,103 l -48,22 74,36 c 83,40 183,73 288,93 102,19 390,11 519,-15 z m 3391,14 c 109,-19 202,-48 295,-92 l 74,-35 -48,-23 c -44,-20 -86,-58 -113,-103 -9,-16 -11,-16 -20,0 -15,24 -88,65 -130,73 -74,13 -165,-26 -209,-91 l -22,-32 -47,47 c -91,90 -206,94 -297,10 l -42,-39 -25,47 c -61,119 -214,151 -323,68 -28,-22 -45,-30 -45,-21 0,31 209,122 375,162 185,44 421,56 577,29 z M 2345,6150 c 100,-9 365,-47 372,-54 1,-1 -15,-51 -36,-111 -76,-214 -107,-430 -98,-660 12,-261 56,-457 187,-820 102,-282 149,-434 168,-552 l 18,-102 244,-163 c 192,-128 406,-276 439,-304 2,-2 1,-13 -2,-26 -6,-21 -11,-23 -66,-20 l -61,4 19,-54 c 39,-113 124,-265 228,-406 l 54,-73 -52,27 c -72,36 -122,53 -203,69 l -68,13 6,-41 c 4,-23 18,-66 32,-96 l 24,-54 -23,-26 c -42,-45 -55,-73 -82,-179 l -25,-103 75,-94 c 73,-92 155,-167 195,-180 16,-5 20,-15 20,-56 0,-62 19,-139 34,-139 17,0 116,48 168,81 37,24 54,29 78,24 16,-4 30,-12 30,-19 0,-19 -73,-127 -106,-158 -89,-82 -220,-103 -321,-53 -87,44 -166,144 -202,257 -10,31 -9,42 4,67 41,79 27,181 -33,252 -47,54 -101,79 -177,79 -76,0 -146,-37 -189,-98 -38,-54 -48,-149 -22,-217 18,-46 79,-109 123,-126 21,-8 24,-14 19,-37 -11,-43 -71,-134 -110,-166 -41,-34 -118,-46 -166,-26 -56,23 -120,110 -156,212 -13,39 -13,39 9,32 12,-3 38,-15 57,-24 38,-19 236,-90 251,-90 11,0 -48,84 -108,156 -39,46 -42,55 -33,78 15,40 12,91 -9,179 -16,67 -25,84 -68,130 -27,28 -67,79 -90,112 -45,67 -97,122 -124,130 -9,3 -23,19 -30,36 -6,17 -30,58 -51,91 l -39,61 -43,-6 c -57,-8 -145,-42 -191,-72 -20,-14 -48,-25 -64,-25 -24,0 -30,7 -51,58 -13,31 -38,82 -55,113 -29,50 -34,70 -44,175 -33,357 -36,616 -10,869 6,55 11,108 12,118 2,15 -17,26 -93,53 -442,159 -760,467 -877,851 -24,79 -26,104 -27,243 0,184 13,251 78,385 74,153 202,272 378,355 225,105 543,148 883,120 z m 8633,-15 c 363,-56 619,-216 738,-460 65,-134 78,-201 78,-385 -1,-140 -3,-164 -28,-245 -116,-381 -436,-691 -876,-849 -76,-27 -95,-38 -93,-53 1,-10 6,-63 12,-118 26,-251 23,-528 -10,-874 -10,-99 -16,-121 -44,-170 -17,-31 -42,-82 -55,-113 -21,-51 -27,-58 -51,-58 -16,0 -44,11 -64,25 -46,30 -134,64 -191,72 l -43,6 -39,-61 c -21,-33 -44,-73 -51,-89 -6,-15 -30,-39 -52,-53 -23,-14 -61,-55 -91,-100 -29,-41 -74,-99 -101,-127 -43,-46 -52,-63 -68,-130 -21,-88 -24,-139 -9,-179 9,-23 6,-32 -33,-78 -60,-72 -119,-156 -108,-156 16,0 204,68 261,94 30,14 56,23 59,21 7,-7 -30,-97 -62,-149 -43,-69 -98,-106 -159,-106 -27,0 -62,7 -77,15 -64,33 -170,197 -139,216 7,5 18,9 24,9 6,0 32,18 57,40 59,52 81,108 75,192 -5,83 -39,137 -110,178 -98,56 -217,36 -290,-49 -60,-70 -74,-173 -33,-250 13,-25 13,-35 1,-68 -42,-119 -120,-219 -201,-258 -24,-12 -69,-21 -113,-23 -63,-4 -79,-1 -127,22 -62,31 -142,113 -173,178 l -20,43 34,9 c 29,7 41,4 82,-22 52,-34 151,-82 168,-82 15,0 34,77 34,139 0,41 4,51 20,56 40,13 122,88 195,180 l 75,94 -22,88 c -27,112 -41,144 -78,186 l -30,35 25,53 c 13,30 27,73 31,96 l 6,41 -68,-13 c -81,-16 -131,-33 -203,-69 l -52,-27 54,73 c 104,141 189,293 228,406 l 19,54 -60,-4 c -60,-3 -70,2 -70,36 0,16 165,135 458,329 122,81 222,149 222,151 0,2 7,43 15,92 22,126 64,262 159,522 125,341 174,523 196,741 27,270 1,500 -85,756 -24,71 -43,131 -42,131 6,6 269,46 352,53 135,13 416,5 543,-14 z M 5864,5907 c 45,-146 60,-249 60,-422 0,-187 -17,-289 -75,-470 -105,-320 -310,-637 -569,-876 -96,-88 -100,-94 -83,-110 10,-9 86,-71 170,-136 162,-127 378,-314 533,-462 l 95,-90 -52,-1 c -52,0 -53,0 -53,-31 0,-99 86,-302 205,-483 l 19,-28 -60,30 c -70,35 -175,68 -258,81 l -58,8 5,-71 c 4,-39 9,-82 11,-96 5,-21 -2,-30 -36,-55 -52,-37 -103,-104 -154,-200 l -39,-73 48,-70 c 67,-99 122,-158 172,-188 l 43,-25 -5,-96 -6,-96 32,6 c 55,11 233,85 302,125 l 66,39 36,-21 c 20,-12 37,-25 37,-30 0,-19 -63,-106 -104,-144 -99,-91 -199,-126 -345,-120 -86,3 -105,7 -174,40 -85,41 -157,105 -202,181 l -28,48 21,22 c 79,84 81,224 4,309 -49,54 -102,78 -177,78 -198,0 -301,-245 -162,-388 l 31,-32 -19,-38 c -34,-64 -128,-150 -202,-184 -57,-27 -83,-33 -161,-36 -78,-4 -103,-1 -155,18 -116,43 -207,125 -259,236 l -30,64 23,19 c 23,18 23,18 88,-26 80,-55 192,-112 289,-147 l 74,-26 -7,42 c -4,24 -16,69 -26,101 l -20,58 29,24 c 36,30 74,101 103,192 l 23,73 -57,83 c -74,109 -126,168 -171,192 -35,19 -36,21 -37,85 -2,102 -10,126 -39,122 -64,-8 -147,-39 -201,-73 -32,-21 -59,-35 -59,-30 0,4 9,33 19,64 42,121 68,315 56,413 l -7,56 -58,-4 c -40,-3 -57,-1 -52,6 103,174 267,355 410,456 34,24 62,49 62,55 0,6 -48,42 -107,80 -683,443 -1039,898 -1118,1429 -26,176 -15,389 26,513 12,36 27,40 89,23 56,-15 323,-58 480,-77 179,-21 587,-24 775,-4 274,27 623,97 850,169 107,34 102,37 139,-81 z m 1273,63 c 382,-112 755,-165 1163,-164 293,0 497,20 808,80 73,14 139,24 146,21 7,-3 21,-43 32,-89 28,-123 26,-394 -4,-535 -105,-485 -428,-890 -1039,-1300 -95,-64 -173,-121 -173,-128 0,-6 21,-27 48,-46 82,-59 195,-163 257,-238 58,-70 165,-219 165,-230 0,-3 -24,-4 -54,-3 l -54,4 -7,-57 c -12,-97 14,-291 56,-412 10,-31 19,-60 19,-64 0,-5 -27,9 -59,30 -54,34 -137,65 -201,73 -29,4 -37,-20 -39,-122 -1,-64 -2,-66 -37,-85 -45,-24 -97,-83 -171,-192 l -57,-83 23,-73 c 29,-91 67,-162 103,-192 l 29,-24 -20,-58 c -10,-32 -22,-77 -26,-101 l -7,-42 74,26 c 97,35 209,92 290,148 63,42 67,44 82,27 22,-24 21,-32 -15,-103 -41,-82 -118,-156 -204,-199 -67,-33 -74,-34 -185,-34 -107,0 -119,2 -175,29 -70,35 -144,101 -191,171 l -34,49 35,36 c 104,107 82,281 -45,358 -157,94 -350,-18 -350,-203 0,-43 36,-131 63,-153 15,-13 15,-17 -5,-55 -29,-57 -119,-149 -176,-180 -83,-45 -154,-60 -261,-55 -81,4 -107,9 -163,36 -77,35 -162,110 -209,184 -17,27 -30,50 -28,52 2,1 21,12 42,24 l 38,22 59,-34 c 105,-62 322,-147 336,-133 10,9 10,86 1,138 l -8,47 43,25 c 55,32 112,92 177,186 l 51,74 -32,56 c -78,139 -128,201 -195,240 -9,5 -9,25 4,88 22,114 22,114 -74,97 -91,-17 -180,-46 -242,-80 -24,-13 -45,-23 -47,-21 -1,1 18,34 43,72 87,136 160,310 177,423 l 6,42 h -57 -57 l 35,36 c 121,127 597,533 732,624 20,14 39,30 41,36 3,7 -40,53 -95,104 -257,238 -464,552 -568,866 -109,325 -109,650 1,957 16,45 25,57 37,52 9,-4 75,-24 148,-45 z" />
  </g>
</svg>
