<?xml version="1.0" encoding="UTF-8"?>
<!DOCTYPE svg PUBLIC "-//W3C//DTD SVG 1.1//EN" "http://www.w3.org/Graphics/SVG/1.1/DTD/svg11.dtd">
<svg xmlns="http://www.w3.org/2000/svg" version="1.1" width="400px" height="445px" style="shape-rendering:geometricPrecision; text-rendering:geometricPrecision; image-rendering:optimizeQuality; fill-rule:evenodd; clip-rule:evenodd" xmlns:xlink="http://www.w3.org/1999/xlink">
<g><path style="opacity:0.988" fill="#ededed" d="M 116.5,-0.5 C 120.167,-0.5 123.833,-0.5 127.5,-0.5C 131.892,4.36097 132.559,9.69431 129.5,15.5C 131.48,19.4867 134.147,22.1533 137.5,23.5C 134.331,20.8363 133.165,17.5029 134,13.5C 134.5,11.6667 135.667,10.5 137.5,10C 140.099,9.23101 142.599,9.39768 145,10.5C 145.114,6.42619 146.28,2.75952 148.5,-0.5C 153.5,-0.5 158.5,-0.5 163.5,-0.5C 166.671,3.52302 167.171,7.85635 165,12.5C 163.214,13.7774 162.048,15.444 161.5,17.5C 163.82,26.1103 165.82,34.777 167.5,43.5C 171.413,43.2405 173.747,45.0739 174.5,49C 173.167,50.6667 171.833,52.3333 170.5,54C 171.024,56.4133 172.024,58.5799 173.5,60.5C 178.962,58.7925 181.128,60.7925 180,66.5C 172.934,69.8569 165.767,73.0236 158.5,76C 196.893,85.3871 224.06,108.22 240,144.5C 243.947,160.009 249.28,175.009 256,189.5C 257.378,191.213 259.045,192.547 261,193.5C 265.537,191.23 269.537,188.23 273,184.5C 280.252,172.999 287.252,161.332 294,149.5C 310.569,125.806 333.069,116.973 361.5,123C 379.564,130.595 390.397,144.095 394,163.5C 397.031,172.965 398.031,182.632 397,192.5C 394.277,199.065 391.277,199.065 388,192.5C 387.667,199.5 387.333,206.5 387,213.5C 386.187,219.495 383.187,223.828 378,226.5C 377.228,226.355 376.561,226.022 376,225.5C 373.787,217.529 370.787,209.862 367,202.5C 365.333,200.833 363.667,199.167 362,197.5C 362.007,202.213 362.673,206.88 364,211.5C 366.902,224.778 363.736,236.278 354.5,246C 350.74,247.176 347.907,246.01 346,242.5C 342.667,234.5 339.333,226.5 336,218.5C 333.971,214.304 330.804,211.304 326.5,209.5C 321.013,217.797 315.513,226.13 310,234.5C 305.425,239.746 300.258,244.246 294.5,248C 290.705,248.837 287.039,248.504 283.5,247C 280.63,244.075 278.13,240.908 276,237.5C 270.206,238.601 264.373,238.768 258.5,238C 255.178,237.941 252.344,236.774 250,234.5C 245.092,262.619 241.926,290.953 240.5,319.5C 239.984,342.088 244.151,363.755 253,384.5C 257.882,392.383 264.382,398.549 272.5,403C 294.839,414.503 318.506,421.837 343.5,425C 357.806,426.83 372.139,428.33 386.5,429.5C 387.11,430.391 387.443,431.391 387.5,432.5C 385.615,434.311 383.281,435.478 380.5,436C 348.866,443.021 316.866,445.354 284.5,443C 261.561,441.745 239.228,437.412 217.5,430C 205.376,425.208 194.876,418.042 186,408.5C 180.276,399.329 176.943,389.329 176,378.5C 175.077,364.513 174.411,350.513 174,336.5C 172.267,316.296 165.601,297.963 154,281.5C 149.478,287.355 144.311,292.522 138.5,297C 141.441,311.738 135.274,318.905 120,318.5C 107.877,317.642 96.0438,315.309 84.5,311.5C 83.5581,311.608 82.7247,311.941 82,312.5C 81.3333,314.833 81.3333,317.167 82,319.5C 86.1251,330.079 89.9584,340.746 93.5,351.5C 93.072,355.561 90.7386,357.561 86.5,357.5C 82.1339,356.879 78.1339,355.379 74.5,353C 65.8625,344.539 58.1959,335.373 51.5,325.5C 50.3483,328.106 50.1816,330.773 51,333.5C 53.1636,340.658 55.3302,347.825 57.5,355C 56.4718,359.206 53.8052,360.539 49.5,359C 41.4687,355.638 35.302,350.138 31,342.5C 30.7717,348.567 27.9384,350.067 22.5,347C 11.3947,336.946 3.728,324.78 -0.5,310.5C -0.5,299.833 -0.5,289.167 -0.5,278.5C 8.99128,258.399 24.9913,247.733 47.5,246.5C 67.7243,248.746 87.891,251.413 108,254.5C 112.132,254.282 115.798,252.949 119,250.5C 119.106,243.916 117.773,237.583 115,231.5C 109.272,219.044 103.272,206.711 97,194.5C 84.6745,161.953 87.5078,130.787 105.5,101C 98.7186,103.046 92.0519,105.713 85.5,109C 81.7072,110.052 79.7072,108.552 79.5,104.5C 80.2402,102.106 81.9068,100.606 84.5,100C 83.1667,98 81.8333,96 80.5,94C 73.5672,94.2616 71.5672,91.4282 74.5,85.5C 69.9152,77.9953 65.0818,70.662 60,63.5C 48.6913,62.8834 44.358,57.2167 47,46.5C 53.42,39.6433 59.42,39.9766 65,47.5C 67.2324,39.0168 71.8991,37.3502 79,42.5C 79.1922,44.5767 79.6922,46.5767 80.5,48.5C 81.4939,45.1035 81.1605,41.7701 79.5,38.5C 70.8146,35.7959 67.9812,30.1292 71,21.5C 77.3679,15.8756 83.3679,16.2089 89,22.5C 89.6012,24.1368 90.1012,25.8034 90.5,27.5C 89.6491,29.8535 89.1491,32.1868 89,34.5C 92.39,38.3932 96.2233,41.7265 100.5,44.5C 101.657,41.2156 101.824,37.8823 101,34.5C 97.67,30.6006 97.8367,26.7673 101.5,23C 108.557,20.7393 112.39,23.2393 113,30.5C 115.628,32.1255 117.961,34.1255 120,36.5C 120.446,33.657 120.946,30.8236 121.5,28C 120.744,24.8752 120.411,21.7086 120.5,18.5C 113.197,17.2508 110.364,12.9174 112,5.5C 112.804,2.85408 114.304,0.854084 116.5,-0.5 Z M 147.5,14.5 C 152.182,16.2476 153.682,19.581 152,24.5C 148.853,21.8691 147.353,18.5357 147.5,14.5 Z M 144.5,29.5 C 146.757,30.5618 147.923,32.2285 148,34.5C 145.444,33.7809 144.277,32.1142 144.5,29.5 Z M 109.5,38.5 C 112.579,40.4668 115.412,42.8001 118,45.5C 118.376,51.2161 115.876,52.8827 110.5,50.5C 109.509,46.5546 109.176,42.5546 109.5,38.5 Z M 66.5,51.5 C 70.12,53.4065 71.62,56.4065 71,60.5C 69.3333,59.1667 67.6667,57.8333 66,56.5C 65.6155,54.8034 65.7822,53.1368 66.5,51.5 Z M 79.5,58.5 C 83.1449,59.8852 83.4783,61.8852 80.5,64.5C 79.5344,62.604 79.2011,60.604 79.5,58.5 Z M 153.5,62.5 C 155.465,62.9483 155.798,63.9483 154.5,65.5C 153.614,64.675 153.281,63.675 153.5,62.5 Z M 139.5,69.5 C 142.797,69.3287 143.131,69.9954 140.5,71.5C 139.702,71.0431 139.369,70.3764 139.5,69.5 Z M 125.5,75.5 C 126.675,75.281 127.675,75.6143 128.5,76.5C 126.948,77.7979 125.948,77.4646 125.5,75.5 Z M 111.5,81.5 C 114.548,81.494 115.048,82.494 113,84.5C 111.961,83.7562 111.461,82.7562 111.5,81.5 Z M 98.5,87.5 C 100.76,88.2376 100.927,89.2376 99,90.5C 97.2716,89.6477 97.105,88.6477 98.5,87.5 Z M 183.5,126.5 C 184.552,126.351 185.552,126.517 186.5,127C 187.833,127.667 187.833,128.333 186.5,129C 178.545,132.644 170.879,136.811 163.5,141.5C 162.692,141.192 162.025,140.692 161.5,140C 168.396,134.722 175.729,130.222 183.5,126.5 Z M 116.5,137.5 C 124.731,138.977 132.731,141.143 140.5,144C 139.737,144.944 138.737,145.444 137.5,145.5C 129.911,143.939 122.578,141.773 115.5,139C 116.056,138.617 116.389,138.117 116.5,137.5 Z M 173.5,146.5 C 183.988,145.487 188.488,150.154 187,160.5C 184.081,166.025 179.581,167.858 173.5,166C 167.975,163.081 166.142,158.581 168,152.5C 169.36,149.977 171.193,147.977 173.5,146.5 Z M 126.5,152.5 C 136.988,151.487 141.488,156.154 140,166.5C 137.081,172.025 132.581,173.858 126.5,172C 120.975,169.081 119.142,164.581 121,158.5C 122.36,155.977 124.193,153.977 126.5,152.5 Z"/></g>
<g><path style="opacity:0.107" fill="#000000" d="M 386.5,429.5 C 388.346,429.222 389.68,429.889 390.5,431.5C 389.675,432.386 388.675,432.719 387.5,432.5C 387.443,431.391 387.11,430.391 386.5,429.5 Z"/></g>
</svg>
