<?xml version="1.0" encoding="UTF-8"?>
<!DOCTYPE svg PUBLIC "-//W3C//DTD SVG 1.1//EN" "http://www.w3.org/Graphics/SVG/1.1/DTD/svg11.dtd">
<svg xmlns="http://www.w3.org/2000/svg" version="1.1" width="420px" height="454px" style="shape-rendering:geometricPrecision; text-rendering:geometricPrecision; image-rendering:optimizeQuality; fill-rule:evenodd; clip-rule:evenodd" xmlns:xlink="http://www.w3.org/1999/xlink">
<g><path style="opacity:0.095" fill="#000000" d="M 212.5,19.5 C 210.833,18.1667 209.167,18.1667 207.5,19.5C 209.102,12.9048 210.769,12.9048 212.5,19.5 Z"/></g>
<g><path style="opacity:0.975" fill="#e7e7e7" d="M 212.5,19.5 C 226.838,73.6535 241.005,127.987 255,182.5C 309.703,197.598 364.536,212.265 419.5,226.5C 419.5,227.833 419.5,229.167 419.5,230.5C 365.134,245.681 310.467,260.181 255.5,274C 241.366,328.48 227.033,382.98 212.5,437.5C 210.958,438.301 209.292,438.634 207.5,438.5C 193.19,384.26 179.023,329.927 165,275.5C 157.648,272.605 150.148,270.105 142.5,268C 94.5317,256.259 46.8651,243.759 -0.5,230.5C -0.5,229.167 -0.5,227.833 -0.5,226.5C 54.536,212.454 109.536,197.954 164.5,183C 178.859,128.697 193.193,74.1969 207.5,19.5C 209.167,18.1667 210.833,18.1667 212.5,19.5 Z M 211.5,69.5 C 222.002,109.93 232.669,150.597 243.5,191.5C 233.549,202.953 223.049,213.953 212,224.5C 211.5,172.834 211.333,121.168 211.5,69.5 Z M 183.5,204.5 C 183.973,205.906 184.973,206.573 186.5,206.5C 188.782,209.122 191.115,211.788 193.5,214.5C 193.973,215.906 194.973,216.573 196.5,216.5C 198.782,219.122 201.115,221.788 203.5,224.5C 203.973,225.906 204.973,226.573 206.5,226.5C 154.668,227.665 102.668,227.832 50.5,227C 90.8211,216 131.321,205.5 172,195.5C 173.226,195.645 174.393,195.978 175.5,196.5C 178.521,198.854 181.188,201.521 183.5,204.5 Z M 214.5,231.5 C 264.665,230.335 314.998,230.168 365.5,231C 325.46,241.997 285.46,252.33 245.5,262C 235.298,251.631 224.965,241.465 214.5,231.5 Z M 207.5,232.5 C 208.665,283.998 208.832,335.665 208,387.5C 197.746,346.884 187.246,306.384 176.5,266C 176.667,265.167 176.833,264.333 177,263.5C 187.623,253.562 197.789,243.229 207.5,232.5 Z"/></g>
<g><path style="opacity:0.059" fill="#000000" d="M 172.5,87.5 C 173.946,86.3871 175.613,86.2204 177.5,87C 178.774,87.9772 178.774,88.8106 177.5,89.5C 176.365,87.7868 174.698,87.1201 172.5,87.5 Z"/></g>
<g><path style="opacity:0.043" fill="#000000" d="M 247.5,87.5 C 243.5,86.8333 241.833,88.5 242.5,92.5C 240.5,87.1667 242.167,85.5 247.5,87.5 Z"/></g>
<g><path style="opacity:0.97" fill="#dedede" d="M 172.5,87.5 C 174.698,87.1201 176.365,87.7868 177.5,89.5C 178.384,93.4896 177.051,96.3229 173.5,98C 124.605,113.297 92.7715,145.463 78,194.5C 75.0964,196.227 71.9297,196.893 68.5,196.5C 68.5305,191.375 69.3638,186.375 71,181.5C 88.9827,133.016 122.816,101.683 172.5,87.5 Z"/></g>
<g><path style="opacity:0.971" fill="#dedede" d="M 247.5,87.5 C 298.66,102.155 332.827,134.822 350,185.5C 351.043,188.757 351.543,192.09 351.5,195.5C 350.833,195.833 350.167,196.167 349.5,196.5C 347.08,196.708 344.747,196.374 342.5,195.5C 326.55,144.959 293.383,111.626 243,95.5C 242.517,94.552 242.351,93.552 242.5,92.5C 241.833,88.5 243.5,86.8333 247.5,87.5 Z"/></g>
<g><path style="opacity:0.056" fill="#000000" d="M 351.5,195.5 C 351.289,197.424 350.623,197.757 349.5,196.5C 350.167,196.167 350.833,195.833 351.5,195.5 Z"/></g>
<g><path style="opacity:0.275" fill="#646464" d="M 183.5,204.5 C 185.027,204.427 186.027,205.094 186.5,206.5C 184.973,206.573 183.973,205.906 183.5,204.5 Z"/></g>
<g><path style="opacity:0.275" fill="#646464" d="M 193.5,214.5 C 195.027,214.427 196.027,215.094 196.5,216.5C 194.973,216.573 193.973,215.906 193.5,214.5 Z"/></g>
<g><path style="opacity:0.275" fill="#656565" d="M 203.5,224.5 C 205.027,224.427 206.027,225.094 206.5,226.5C 204.973,226.573 203.973,225.906 203.5,224.5 Z"/></g>
<g><path style="opacity:0.073" fill="#000000" d="M 344.5,261.5 C 345.449,260.848 346.615,260.514 348,260.5C 349.681,260.608 350.848,261.275 351.5,262.5C 349.283,261.631 346.95,261.298 344.5,261.5 Z"/></g>
<g><path style="opacity:0.956" fill="#e5e5e5" d="M 70.5,260.5 C 73.9967,259.891 76.6634,261.057 78.5,264C 94.0191,313.019 126.352,345.186 175.5,360.5C 176.192,361.025 176.692,361.692 177,362.5C 177.497,365.146 177.664,367.813 177.5,370.5C 127.47,358.634 92.6365,328.967 73,281.5C 70.5748,275.726 69.0748,269.726 68.5,263.5C 69.1667,262.5 69.8333,261.5 70.5,260.5 Z"/></g>
<g><path style="opacity:0.949" fill="#e8e8e8" d="M 344.5,261.5 C 346.95,261.298 349.283,261.631 351.5,262.5C 341.169,305.663 316.502,337.83 277.5,359C 272.387,360.813 267.387,362.813 262.5,365C 270.5,365.333 278.5,365.667 286.5,366C 287.931,366.465 289.097,367.299 290,368.5C 290.667,395.833 290.667,423.167 290,450.5C 288.855,451.636 287.688,452.636 286.5,453.5C 275.833,453.5 265.167,453.5 254.5,453.5C 253.312,452.636 252.145,451.636 251,450.5C 250.5,423.502 250.333,396.502 250.5,369.5C 248.194,369.993 245.861,370.326 243.5,370.5C 242.659,368.621 242.325,366.621 242.5,364.5C 242.628,362.91 243.295,361.577 244.5,360.5C 266.208,354.152 285.542,343.485 302.5,328.5C 304.833,328.167 306.167,326.833 306.5,324.5C 320.394,310.046 330.727,293.38 337.5,274.5C 339.176,273.817 339.843,272.483 339.5,270.5C 339.562,266.48 341.229,263.48 344.5,261.5 Z"/></g>
<g><path style="opacity:0.667" fill="#585858" d="M 70.5,260.5 C 69.8333,261.5 69.1667,262.5 68.5,263.5C 68.238,262.022 68.5713,260.689 69.5,259.5C 70.1067,259.624 70.44,259.957 70.5,260.5 Z"/></g>
<g><path style="opacity:0.51" fill="#6e6e6e" d="M 339.5,270.5 C 339.843,272.483 339.176,273.817 337.5,274.5C 337.989,273.005 338.655,271.671 339.5,270.5 Z"/></g>
<g><path style="opacity:0.964" fill="#ececec" d="M 419.5,369.5 C 419.5,374.167 419.5,378.833 419.5,383.5C 416.966,385.916 416.966,388.25 419.5,390.5C 419.5,395.5 419.5,400.5 419.5,405.5C 416.963,409.863 413.296,413.03 408.5,415C 410.973,425.198 407.307,432.198 397.5,436C 399.351,442.337 398.351,448.171 394.5,453.5C 366.5,453.5 338.5,453.5 310.5,453.5C 305.413,450.961 300.079,448.961 294.5,447.5C 294.167,421.491 294.5,395.491 295.5,369.5C 305.021,365.913 313.354,360.58 320.5,353.5C 327.285,340.706 331.452,327.039 333,312.5C 338.389,305.046 345.223,303.546 353.5,308C 363.215,315.113 367.548,324.779 366.5,337C 366.302,342.595 365.469,348.095 364,353.5C 363.55,355.519 362.717,357.352 361.5,359C 376.833,359.333 392.167,359.667 407.5,360C 413.149,361.155 417.149,364.322 419.5,369.5 Z"/></g>
<g><path style="opacity:0.298" fill="#6a6a6a" d="M 306.5,324.5 C 306.167,326.833 304.833,328.167 302.5,328.5C 303.5,326.833 304.833,325.5 306.5,324.5 Z"/></g>
<g><path style="opacity:0.034" fill="#000000" d="M 242.5,364.5 C 242.325,366.621 242.659,368.621 243.5,370.5C 242.244,370.539 241.244,370.039 240.5,369C 241.099,367.378 241.766,365.878 242.5,364.5 Z"/></g>
<g><path style="opacity:0.112" fill="#000000" d="M 212.5,437.5 C 213.169,441.676 211.669,443.009 208,441.5C 207.517,440.552 207.351,439.552 207.5,438.5C 209.292,438.634 210.958,438.301 212.5,437.5 Z"/></g>
</svg>
