<?xml version="1.0" encoding="UTF-8"?>
<!DOCTYPE svg PUBLIC "-//W3C//DTD SVG 1.1//EN" "http://www.w3.org/Graphics/SVG/1.1/DTD/svg11.dtd">
<svg xmlns="http://www.w3.org/2000/svg" version="1.1" width="400px" height="450px" style="shape-rendering:geometricPrecision; text-rendering:geometricPrecision; image-rendering:optimizeQuality; fill-rule:evenodd; clip-rule:evenodd" xmlns:xlink="http://www.w3.org/1999/xlink">
<g><path style="opacity:0.978" fill="#ededed" d="M 167.5,3.5 C 205.358,2.1404 234.525,17.1404 255,48.5C 260.816,58.7818 264.316,69.7818 265.5,81.5C 285.18,83.6878 294.013,94.6878 292,114.5C 290.923,119.823 288.423,124.323 284.5,128C 292.834,137.27 294.667,147.77 290,159.5C 288.086,161.748 286.586,164.248 285.5,167C 295.638,181.155 294.638,194.488 282.5,207C 277.186,211.162 271.186,212.828 264.5,212C 254.804,209.268 245.137,206.435 235.5,203.5C 226.919,209.558 217.919,215.058 208.5,220C 173.109,232.685 140.942,227.185 112,203.5C 101.104,206.91 90.1043,209.91 79,212.5C 65.9239,210.759 57.9239,203.426 55,190.5C 53.4167,181.324 55.9167,173.491 62.5,167C 51.8829,153.931 51.8829,140.931 62.5,128C 53.8019,117.874 52.3019,106.707 58,94.5C 63.4406,85.8626 71.274,81.5293 81.5,81.5C 86.6009,48.1363 104.601,24.6363 135.5,11C 145.937,6.88843 156.604,4.38843 167.5,3.5 Z M 167.5,70.5 C 207.43,72.261 229.43,93.0943 233.5,133C 230.283,170.049 210.283,190.882 173.5,195.5C 141.288,192.454 121.788,175.121 115,143.5C 112.013,104.061 129.513,79.7275 167.5,70.5 Z"/></g>
<g><path style="opacity:0.986" fill="#ededed" d="M 212.5,449.5 C 205.5,449.5 198.5,449.5 191.5,449.5C 183.208,440.908 182.375,431.575 189,421.5C 228.806,382.695 268.306,343.528 307.5,304C 308.094,303.536 308.761,303.369 309.5,303.5C 315.409,299.098 320.909,294.098 326,288.5C 326.692,287.563 326.525,286.897 325.5,286.5C 346.272,266.229 366.938,245.729 387.5,225C 390.669,224.022 393.503,224.522 396,226.5C 396.94,250.869 396.606,275.203 395,299.5C 391.187,315.649 382.853,328.982 370,339.5C 369.667,351.167 369.333,362.833 369,374.5C 365.219,382.305 359.053,385.138 350.5,383C 344.148,379.798 341.315,374.632 342,367.5C 328.557,381.945 314.723,396.111 300.5,410C 293.5,414.667 286.5,414.667 279.5,410C 275,405.5 270.5,401 266,396.5C 247.553,413.782 229.719,431.448 212.5,449.5 Z M 384.5,243.5 C 385.638,246.304 385.805,249.304 385,252.5C 376.483,258.929 368.816,266.262 362,274.5C 360.382,278.068 359.049,281.735 358,285.5C 357.667,292.833 357.333,300.167 357,307.5C 345.192,309.487 340.025,316.487 341.5,328.5C 332.824,327.37 326.657,330.703 323,338.5C 322.667,349.167 322.333,359.833 322,370.5C 312.53,380.971 302.697,391.137 292.5,401C 289.449,401.857 286.783,401.19 284.5,399C 275.333,389.833 266.167,380.667 257,371.5C 256.333,370.833 256.333,370.167 257,369.5C 299.674,327.66 342.174,285.66 384.5,243.5 Z M 251.5,393.5 C 253.201,386.859 250.535,383.859 243.5,384.5C 244.812,382.521 246.479,380.855 248.5,379.5C 251.651,382.15 254.651,384.984 257.5,388C 255.63,390.04 253.63,391.873 251.5,393.5 Z M 241.5,386.5 C 239.945,393.278 242.612,396.278 249.5,395.5C 245.5,400.167 241.167,404.5 236.5,408.5C 237.33,401.667 234.33,399 227.5,400.5C 231.833,395.5 236.5,390.833 241.5,386.5 Z M 225.5,402.5 C 224.859,409.535 227.859,412.201 234.5,410.5C 225.369,420.132 216.036,429.632 206.5,439C 197.912,442.077 194.746,439.243 197,430.5C 206.368,420.964 215.868,411.631 225.5,402.5 Z"/></g>
<g><path style="opacity:0.985" fill="#ededed" d="M -0.5,351.5 C -0.5,348.833 -0.5,346.167 -0.5,343.5C 5.19275,325.921 11.0261,308.254 17,290.5C 21.7227,279.778 29.2227,271.611 39.5,266C 66.7992,255.067 94.1326,244.234 121.5,233.5C 130.425,240.921 138.925,248.921 147,257.5C 144.646,281.793 141.146,305.96 136.5,330C 137.422,333.256 139.422,335.589 142.5,337C 163.167,337.667 183.833,337.667 204.5,337C 207.894,335.888 209.894,333.554 210.5,330C 205.968,305.943 202.468,281.776 200,257.5C 207.833,249.667 215.667,241.833 223.5,234C 225.913,233.516 228.246,233.85 230.5,235C 256.167,245.333 281.833,255.667 307.5,266C 315.076,270.241 321.41,275.908 326.5,283C 295.597,297.707 268.764,317.873 246,343.5C 237.249,354.659 229.749,366.659 223.5,379.5C 222.5,379.833 221.5,380.167 220.5,380.5C 174.365,384.405 128.365,382.905 82.5,376C 58.3438,372.93 34.3438,368.93 10.5,364C 4.78511,361.463 1.11844,357.296 -0.5,351.5 Z"/></g>
<g><path style="opacity:0.988" fill="#e5e5e5" d="M 325.5,286.5 C 326.525,286.897 326.692,287.563 326,288.5C 320.909,294.098 315.409,299.098 309.5,303.5C 314.833,297.833 320.167,292.167 325.5,286.5 Z"/></g>
<g><path style="opacity:0.933" fill="#ededed" d="M 345.5,384.5 C 349.287,383.814 352.454,384.814 355,387.5C 358.445,392.055 361.112,397.055 363,402.5C 363.328,414.505 357.494,420.005 345.5,419C 336.624,414.711 333.791,407.877 337,398.5C 339.662,393.684 342.495,389.018 345.5,384.5 Z"/></g>
<g><path style="opacity:0.863" fill="#ededed" d="M 243.5,384.5 C 250.535,383.859 253.201,386.859 251.5,393.5C 250.833,393.5 250.5,393.833 250.5,394.5C 249.833,394.5 249.5,394.833 249.5,395.5C 242.612,396.278 239.945,393.278 241.5,386.5C 242.167,386.5 242.5,386.167 242.5,385.5C 243.167,385.5 243.5,385.167 243.5,384.5 Z"/></g>
<g><path style="opacity:0.856" fill="#ededed" d="M 227.5,400.5 C 234.33,399 237.33,401.667 236.5,408.5C 235.833,408.5 235.5,408.833 235.5,409.5C 234.833,409.5 234.5,409.833 234.5,410.5C 227.859,412.201 224.859,409.535 225.5,402.5C 226.167,402.5 226.5,402.167 226.5,401.5C 227.167,401.5 227.5,401.167 227.5,400.5 Z"/></g>
<g><path style="opacity:0.967" fill="#ededed" d="M 376.5,449.5 C 371.833,449.5 367.167,449.5 362.5,449.5C 356.936,445.661 354.77,440.328 356,433.5C 358.397,428.373 361.064,423.373 364,418.5C 367.943,415.634 371.61,415.968 375,419.5C 377.333,423.5 379.667,427.5 382,431.5C 383.979,438.784 382.145,444.784 376.5,449.5 Z"/></g>
</svg>
