<?xml version="1.0" encoding="UTF-8"?>
<!DOCTYPE svg PUBLIC "-//W3C//DTD SVG 1.1//EN" "http://www.w3.org/Graphics/SVG/1.1/DTD/svg11.dtd">
<svg xmlns="http://www.w3.org/2000/svg" version="1.1" width="930px" height="660px" style="shape-rendering:geometricPrecision; text-rendering:geometricPrecision; image-rendering:optimizeQuality; fill-rule:evenodd; clip-rule:evenodd" xmlns:xlink="http://www.w3.org/1999/xlink">
<g><path style="opacity:1" fill="#f2f3f2" d="M 390.5,659.5 C 386.167,659.5 381.833,659.5 377.5,659.5C 373.678,655.874 373.512,651.874 377,647.5C 377.667,643.167 377.667,638.833 377,634.5C 376.31,631.804 374.81,629.637 372.5,628C 366.583,626.343 360.583,625.009 354.5,624C 353.167,623.333 351.833,622.667 350.5,622C 349.194,619.427 347.527,617.094 345.5,615C 343.473,614.502 341.473,614.669 339.5,615.5C 337.803,615.101 336.137,614.601 334.5,614C 330.784,609.952 327.45,605.618 324.5,601C 320.205,600.102 316.372,598.269 313,595.5C 311.263,591.339 310.263,587.005 310,582.5C 290.428,567.253 270.594,552.42 250.5,538C 244.5,532.667 238.5,527.333 232.5,522C 211.986,508.489 192.32,493.822 173.5,478C 150.24,461.402 127.573,444.069 105.5,426C 74.7689,405.606 43.7689,385.606 12.5,366C 9.9975,363.916 7.33083,362.083 4.5,360.5C 2.22006,353.29 1.88673,345.957 3.5,338.5C 1.3678,327.152 1.20113,315.819 3,304.5C 6.08081,301.707 9.58081,299.54 13.5,298C 18.1988,292.966 23.1988,288.3 28.5,284C 32.6827,282.204 37.016,280.871 41.5,280C 44.5,277.667 47.5,275.333 50.5,273C 55.573,272.82 60.573,273.153 65.5,274C 66.4162,273.626 67.2496,273.126 68,272.5C 69.1227,269.751 70.6227,267.251 72.5,265C 81.727,263.104 91.0603,262.104 100.5,262C 108.307,259.526 113.474,254.359 116,246.5C 122.659,239.495 130.825,235.328 140.5,234C 142.87,230.558 145.87,227.891 149.5,226C 153.584,225.769 157.584,225.102 161.5,224C 162.451,223.282 162.617,222.449 162,221.5C 160.164,219.292 157.831,217.958 155,217.5C 154.306,213.998 154.806,210.664 156.5,207.5C 152.268,196.662 155.768,192.996 167,196.5C 170.603,194.872 174.437,194.038 178.5,194C 180.563,191.489 182.063,188.656 183,185.5C 183.903,184.299 185.069,183.465 186.5,183C 190.955,182.103 195.455,181.603 200,181.5C 209,182.5 218,183.5 227,184.5C 229.5,184.333 232,184.167 234.5,184C 237.228,183.361 237.728,182.194 236,180.5C 235.333,178.167 235.333,175.833 236,173.5C 237.635,172.274 239.135,170.941 240.5,169.5C 237.615,166.454 234.282,163.954 230.5,162C 227.672,158.699 227.006,155.032 228.5,151C 227.034,148.186 225.534,145.353 224,142.5C 223.755,138.147 223.755,133.813 224,129.5C 219.938,125.242 219.438,120.575 222.5,115.5C 220.621,110.91 220.287,106.243 221.5,101.5C 221.147,99.2685 220.314,97.2685 219,95.5C 218.667,92.1667 218.333,88.8333 218,85.5C 213.374,83.0615 210.541,79.3948 209.5,74.5C 216.076,73.5868 222.409,71.7535 228.5,69C 231.868,65.0982 234.868,60.9315 237.5,56.5C 242.784,51.3587 249.117,48.692 256.5,48.5C 257.624,47.086 258.624,45.586 259.5,44C 261.5,43.3333 263.5,43.3333 265.5,44C 267.405,45.87 269.572,47.37 272,48.5C 275.467,43.7613 279.301,39.2613 283.5,35C 290.374,31.0634 297.374,27.3967 304.5,24C 319.362,21.8052 334.195,19.6385 349,17.5C 351.501,17.5838 353.834,18.2505 356,19.5C 365.597,18.1959 375.097,16.3626 384.5,14C 397.852,6.39921 412.185,4.39921 427.5,8C 433.839,10.363 439.672,13.5297 445,17.5C 451.155,11.1749 458.655,8.3416 467.5,9C 471.771,8.23033 473.437,5.73033 472.5,1.5C 475.187,1.33591 477.854,1.50258 480.5,2C 482.298,4.4725 484.632,6.13916 487.5,7C 492.155,7.49915 496.821,7.66582 501.5,7.5C 501.338,5.4727 501.505,3.4727 502,1.5C 503.231,0.892206 504.564,0.558872 506,0.5C 513.529,3.03046 520.862,6.03046 528,9.5C 533.994,7.66517 540.161,6.99851 546.5,7.5C 548.603,11.1258 547.603,13.2925 543.5,14C 544.517,15.0495 544.684,16.2161 544,17.5C 542.068,19.0383 539.901,20.205 537.5,21C 540.496,23.8154 541.829,27.3154 541.5,31.5C 540.899,36.738 539.899,41.9047 538.5,47C 541.048,52.1947 541.048,57.3614 538.5,62.5C 539.194,65.0876 540.36,67.421 542,69.5C 543.115,73.4845 542.115,76.8178 539,79.5C 538.74,83.2498 538.073,86.9164 537,90.5C 533.929,92.8654 530.596,94.8654 527,96.5C 525.472,99.4167 524.139,102.417 523,105.5C 520.512,107.743 517.846,109.743 515,111.5C 511.47,116.075 512.137,120.075 517,123.5C 517.449,131.161 519.949,137.995 524.5,144C 528.363,145.181 531.863,147.014 535,149.5C 538.21,155.506 540.377,161.84 541.5,168.5C 545.923,171.921 550.923,174.088 556.5,175C 560.33,179.474 562.83,184.641 564,190.5C 567.846,205.73 571.179,221.064 574,236.5C 574.942,239.993 576.275,243.326 578,246.5C 578.667,248.5 578.667,250.5 578,252.5C 575.667,254.006 573.5,255.673 571.5,257.5C 576,264.5 580.5,271.5 585,278.5C 586.286,281.405 587.286,284.405 588,287.5C 588.109,292.249 588.275,296.916 588.5,301.5C 587.26,306.624 586.26,311.791 585.5,317C 587.592,323.779 589.592,330.612 591.5,337.5C 589.088,345.31 586.421,352.977 583.5,360.5C 586.092,366.022 588.425,371.689 590.5,377.5C 589.049,385.776 584.383,390.942 576.5,393C 575.257,394.154 574.257,395.488 573.5,397C 574.794,399.087 575.961,401.254 577,403.5C 582.044,408.876 586.711,414.542 591,420.5C 594.716,429.23 595.55,438.23 593.5,447.5C 595.527,447.338 597.527,447.505 599.5,448C 600.727,450.736 601.727,453.569 602.5,456.5C 616.904,455.513 630.237,459.013 642.5,467C 645.933,470.104 648.1,473.937 649,478.5C 650.168,483.173 651.335,487.839 652.5,492.5C 652.423,494.299 651.923,495.966 651,497.5C 643.615,502.414 635.782,506.581 627.5,510C 615.272,522.433 601.938,533.433 587.5,543C 564.67,555.578 542.337,568.912 520.5,583C 512.096,591.282 503.596,599.449 495,607.5C 484.753,620.137 473.92,632.304 462.5,644C 450.022,646.249 437.689,649.249 425.5,653C 418.256,654.652 410.923,655.652 403.5,656C 398.958,656.867 394.625,658.033 390.5,659.5 Z"/></g>
<g><path style="opacity:0.978" fill="#f2f2f2" d="M 929.5,91.5 C 929.5,171.5 929.5,251.5 929.5,331.5C 887.165,331.667 844.832,331.5 802.5,331C 789.833,318.333 777.167,305.667 764.5,293C 728.168,292.5 691.835,292.333 655.5,292.5C 655.667,338.168 655.5,383.835 655,429.5C 641,430.833 627,430.833 613,429.5C 612.333,304.167 612.333,178.833 613,53.5C 613.5,53 614,52.5 614.5,52C 670.497,52.125 726.497,52.4583 782.5,53C 795.167,65.6667 807.833,78.3333 820.5,91C 856.832,91.5 893.165,91.6667 929.5,91.5 Z M 656.5,95.5 C 692.502,95.3333 728.502,95.5 764.5,96C 777.167,108.667 789.833,121.333 802.5,134C 831.498,134.5 860.498,134.667 889.5,134.5C 889.5,185.833 889.5,237.167 889.5,288.5C 866.498,288.667 843.498,288.5 820.5,288C 807.833,275.333 795.167,262.667 782.5,250C 740.501,249.5 698.501,249.333 656.5,249.5C 656.5,198.167 656.5,146.833 656.5,95.5 Z"/></g>
</svg>
