<?xml version="1.0" encoding="UTF-8"?>
<!DOCTYPE svg PUBLIC "-//W3C//DTD SVG 1.1//EN" "http://www.w3.org/Graphics/SVG/1.1/DTD/svg11.dtd">
<svg xmlns="http://www.w3.org/2000/svg" version="1.1" width="340px" height="415px" style="shape-rendering:geometricPrecision; text-rendering:geometricPrecision; image-rendering:optimizeQuality; fill-rule:evenodd; clip-rule:evenodd" xmlns:xlink="http://www.w3.org/1999/xlink">
<g><path style="opacity:0.993" fill="#e8e8e8" d="M 124.5,-0.5 C 130.833,-0.5 137.167,-0.5 143.5,-0.5C 157.932,5.68453 164.099,16.6845 162,32.5C 155.16,52.1706 141.66,59.0039 121.5,53C 108.099,45.8496 102.932,34.6829 106,19.5C 108.587,9.41684 114.753,2.75018 124.5,-0.5 Z"/></g>
<g><path style="opacity:0.992" fill="#e9e9e9" d="M 143.5,164.5 C 143.938,164.565 144.272,164.399 144.5,164C 143.069,163.535 141.903,162.701 141,161.5C 139.115,156.961 136.948,153.295 134.5,150.5C 131.028,144.229 127.528,137.895 124,131.5C 116.342,150.466 108.676,169.466 101,188.5C 99.7492,197.932 103.583,204.432 112.5,208C 121.782,209.42 131.115,210.42 140.5,211C 148.687,212.185 154.187,216.685 157,224.5C 159.147,231.089 160.98,237.756 162.5,244.5C 165.64,242.527 168.64,240.36 171.5,238C 173.044,236.813 174.711,236.48 176.5,237C 180.333,239.5 184.167,242 188,244.5C 188.469,247.944 187.969,251.278 186.5,254.5C 186.747,255.713 187.414,256.38 188.5,256.5C 190.628,257.629 192.961,257.796 195.5,257C 192.478,256.675 190.478,255.175 189.5,252.5C 189.562,249.247 190.396,246.247 192,243.5C 193.073,244.28 194.24,244.113 195.5,243C 203.731,236.432 212.231,230.265 221,224.5C 228.159,227.986 234.659,232.319 240.5,237.5C 239.455,239.205 238.122,240.705 236.5,242C 229.359,246.974 222.359,252.14 215.5,257.5C 220.014,260.591 224.347,263.925 228.5,267.5C 223.909,272.133 218.909,276.299 213.5,280C 211.956,281.187 210.289,281.52 208.5,281C 204.302,277.97 199.968,275.137 195.5,272.5C 192.111,274.523 188.778,276.523 185.5,278.5C 184.833,278.167 184.167,277.833 183.5,277.5C 183.5,276.5 183.5,275.5 183.5,274.5C 182.5,275.833 181.5,277.167 180.5,278.5C 180.565,278.062 180.399,277.728 180,277.5C 179.691,278.766 179.191,279.933 178.5,281C 178.728,281.399 179.062,281.565 179.5,281.5C 177.425,283.719 175.091,285.719 172.5,287.5C 172.167,288.5 171.833,289.5 171.5,290.5C 173.323,297.109 174.49,303.776 175,310.5C 166.667,314.167 158.333,317.833 150,321.5C 147.236,329.304 144.402,336.97 141.5,344.5C 141.565,344.062 141.399,343.728 141,343.5C 140.015,344.814 138.848,345.814 137.5,346.5C 135.284,347.203 133.451,348.536 132,350.5C 131.847,353.151 131.013,355.484 129.5,357.5C 128.833,357.5 128.167,357.5 127.5,357.5C 126.703,356.522 126.036,356.855 125.5,358.5C 124.311,359.429 122.978,359.762 121.5,359.5C 121.963,356.779 122.629,354.112 123.5,351.5C 124.738,351.19 124.738,350.69 123.5,350C 115.734,345.035 107.901,340.202 100,335.5C 98.4213,335.697 98.2546,336.031 99.5,336.5C 95.0814,338.269 92.4147,341.602 91.5,346.5C 88.8395,347.892 86.5062,349.726 84.5,352C 75.0241,351.606 65.6908,350.106 56.5,347.5C 51.8499,350.168 47.5166,353.168 43.5,356.5C 40.4279,357.273 37.4279,357.606 34.5,357.5C 32.5434,359.275 30.8767,361.941 29.5,365.5C 29.6236,366.107 29.9569,366.44 30.5,366.5C 30.6716,367.492 30.3382,368.158 29.5,368.5C 27.2265,371.877 24.5598,375.543 21.5,379.5C 13.8567,376.345 6.52333,372.678 -0.5,368.5C -0.5,364.833 -0.5,361.167 -0.5,357.5C 2.19943,350.397 4.53276,343.064 6.5,335.5C 5.82781,332.488 5.16114,329.488 4.5,326.5C 6.4672,326.739 8.30054,326.406 10,325.5C 22.4395,285.516 35.2728,245.682 48.5,206C 41.3965,197.023 38.5632,186.856 40,175.5C 49.8833,149.398 60.05,123.398 70.5,97.5C 70.3333,97.1667 70.1667,96.8333 70,96.5C 58.3477,99.7861 46.8477,103.453 35.5,107.5C 31.2266,128.139 27.06,148.806 23,169.5C 16.5027,173.169 9.66935,176.169 2.5,178.5C 1.41635,178.315 0.416349,177.982 -0.5,177.5C -0.5,175.5 -0.5,173.5 -0.5,171.5C 3.06356,140.611 6.89689,109.611 11,78.5C 13.5106,76.4372 16.344,74.9372 19.5,74C 38.9097,67.1969 58.243,60.1969 77.5,53C 101.552,48.0179 121.719,54.8512 138,73.5C 139.586,75.6705 140.92,78.0038 142,80.5C 147.665,98.8237 154.165,116.824 161.5,134.5C 177.586,143.627 193.753,152.627 210,161.5C 210.667,163.5 210.667,165.5 210,167.5C 208.138,171.419 206.471,175.419 205,179.5C 203.6,180.116 202.1,180.449 200.5,180.5C 181.265,175.611 162.265,170.278 143.5,164.5 Z M 114.5,301.5 C 113.294,302.88 113.627,304.047 115.5,305C 121.145,309.154 127.145,312.654 133.5,315.5C 136.538,313.888 139.371,311.888 142,309.5C 143.523,311.569 144.357,313.903 144.5,316.5C 131.611,318.845 118.778,321.511 106,324.5C 103.263,322.921 100.429,321.588 97.5,320.5C 97.44,319.957 97.1067,319.624 96.5,319.5C 95.103,322.881 95.4363,326.047 97.5,329C 96.7665,330.766 96.4332,332.599 96.5,334.5C 95.5028,334.53 94.8361,334.03 94.5,333C 92.5815,325.679 89.7482,318.845 86,312.5C 74.2684,320.285 62.4351,327.952 50.5,335.5C 48.7749,334.985 47.1083,334.318 45.5,333.5C 57.6667,305.833 69.8333,278.167 82,250.5C 82.9025,251.701 84.0692,252.535 85.5,253C 97.1667,253.333 108.833,253.667 120.5,254C 122.519,254.45 124.352,255.283 126,256.5C 128.911,265.977 131.744,275.477 134.5,285C 134.241,286.261 133.574,287.261 132.5,288C 126.253,292.277 120.253,296.777 114.5,301.5 Z M 164.5,256.5 C 170.024,258.107 170.524,260.44 166,263.5C 164.648,261.406 164.148,259.073 164.5,256.5 Z M 185.5,269.5 C 185.598,271.553 184.931,273.22 183.5,274.5C 183.077,272.219 183.744,270.552 185.5,269.5 Z M 128.5,330.5 C 129.376,330.369 130.043,330.702 130.5,331.5C 129.423,333.729 128.756,336.063 128.5,338.5C 124.783,337.473 121.45,335.639 118.5,333C 122.038,332.465 125.372,331.632 128.5,330.5 Z M 76.5,333.5 C 77.5,333.5 78.5,333.5 79.5,333.5C 79.7563,335.937 80.4229,338.271 81.5,340.5C 81.1667,340.833 80.8333,341.167 80.5,341.5C 76.8872,340.477 73.2206,339.644 69.5,339C 71.9025,337.147 74.2359,335.314 76.5,333.5 Z"/></g>
<g><path style="opacity:0.588" fill="#b1b1b1" d="M 143.5,164.5 C 141.983,164.489 140.816,163.823 140,162.5C 137.881,158.598 136.048,154.598 134.5,150.5C 136.948,153.295 139.115,156.961 141,161.5C 141.903,162.701 143.069,163.535 144.5,164C 144.272,164.399 143.938,164.565 143.5,164.5 Z"/></g>
<g><path style="opacity:0.796" fill="#888888" d="M 189.5,252.5 C 190.478,255.175 192.478,256.675 195.5,257C 192.961,257.796 190.628,257.629 188.5,256.5C 189.434,255.432 189.768,254.099 189.5,252.5 Z"/></g>
<g><path style="opacity:0.608" fill="#979797" d="M 189.5,264.5 C 192.179,262.399 195.012,260.399 198,258.5C 198.167,258.833 198.333,259.167 198.5,259.5C 195.909,261.38 193.409,263.38 191,265.5C 190.617,264.944 190.117,264.611 189.5,264.5 Z"/></g>
<g><path style="opacity:0.482" fill="#888888" d="M 189.5,264.5 C 188.92,266.749 187.587,268.415 185.5,269.5C 185.343,266.656 186.676,264.989 189.5,264.5 Z"/></g>
<g><path style="opacity:0.984" fill="#e5e5e5" d="M 263.5,277.5 C 289.462,276.094 311.629,284.427 330,302.5C 333.052,306.216 335.219,310.382 336.5,315C 335.167,315.667 333.833,315.667 332.5,315C 314.602,303.012 295.269,300.012 274.5,306C 267.618,308.068 261.118,310.901 255,314.5C 254.167,313.667 253.333,312.833 252.5,312C 248.757,310.864 245.09,309.53 241.5,308C 240.253,306.506 240.253,305.006 241.5,303.5C 245.364,300.068 249.698,297.401 254.5,295.5C 255.783,292.682 255.783,289.848 254.5,287C 257.392,284.964 260.226,282.797 263,280.5C 263.483,279.552 263.649,278.552 263.5,277.5 Z"/></g>
<g><path style="opacity:0.039" fill="#121212" d="M 183.5,277.5 C 184.167,277.833 184.833,278.167 185.5,278.5C 184.377,279.757 183.711,279.424 183.5,277.5 Z"/></g>
<g><path style="opacity:0.165" fill="#797979" d="M 180.5,278.5 C 180.737,279.791 180.404,280.791 179.5,281.5C 179.062,281.565 178.728,281.399 178.5,281C 179.191,279.933 179.691,278.766 180,277.5C 180.399,277.728 180.565,278.062 180.5,278.5 Z"/></g>
<g><path style="opacity:0.983" fill="#e5e5e5" d="M 205.5,293.5 C 207.475,290.654 210.141,288.487 213.5,287C 227.643,279.881 242.643,276.381 258.5,276.5C 258.471,282.366 255.471,285.366 249.5,285.5C 250.449,288.872 250.449,292.205 249.5,295.5C 243.161,298.667 237.161,302.334 231.5,306.5C 229.061,309.896 225.728,312.062 221.5,313C 219.213,315.07 217.547,317.57 216.5,320.5C 212.777,321.681 209.111,323.014 205.5,324.5C 204.416,325.665 203.583,326.998 203,328.5C 205.152,340.341 200.319,345.841 188.5,345C 179.618,325.091 183.618,308.091 200.5,294C 202.134,293.506 203.801,293.34 205.5,293.5 Z"/></g>
<g><path style="opacity:0.835" fill="#8b8b8b" d="M 205.5,293.5 C 208.247,293.187 210.914,293.52 213.5,294.5C 210.582,295.713 207.915,295.379 205.5,293.5 Z"/></g>
<g><path style="opacity:0.486" fill="#c3c3c3" d="M 114.5,301.5 C 120.617,306.399 126.951,311.066 133.5,315.5C 127.145,312.654 121.145,309.154 115.5,305C 113.627,304.047 113.294,302.88 114.5,301.5 Z"/></g>
<g><path style="opacity:0.113" fill="#030303" d="M 324.5,314.5 C 325.386,313.224 326.386,313.224 327.5,314.5C 327.376,315.107 327.043,315.44 326.5,315.5C 325.833,315.167 325.167,314.833 324.5,314.5 Z"/></g>
<g><path style="opacity:0.959" fill="#dfdfdf" d="M 324.5,314.5 C 325.167,314.833 325.833,315.167 326.5,315.5C 326.717,320.62 324.717,324.286 320.5,326.5C 318.5,326.5 317.5,327.5 317.5,329.5C 314.559,333.068 311.059,336.068 307,338.5C 301.25,338.256 295.416,338.256 289.5,338.5C 289.167,337.833 288.833,337.167 288.5,336.5C 292.32,333.53 296.32,330.696 300.5,328C 297.325,324.346 295.325,320.179 294.5,315.5C 300.131,317.062 305.631,319.062 311,321.5C 315.459,319.021 319.959,316.688 324.5,314.5 Z"/></g>
<g><path style="opacity:0.988" fill="#e6e6e6" d="M 186.5,356.5 C 187.434,355.432 187.768,354.099 187.5,352.5C 190.041,352.851 191.708,352.518 192.5,351.5C 199.421,349.409 203.921,344.742 206,337.5C 207.214,335.951 208.714,334.785 210.5,334C 217.396,334.99 223.063,332.99 227.5,328C 233.231,327.14 238.731,325.64 244,323.5C 247.261,325.243 250.428,327.243 253.5,329.5C 255.333,330.968 255.666,332.635 254.5,334.5C 238.354,340.133 229.021,351.299 226.5,368C 229.324,381.17 236.99,390.504 249.5,396C 251.125,396.853 251.458,397.853 250.5,399C 228.119,398.224 209.285,389.724 194,373.5C 190.4,368.301 187.9,362.635 186.5,356.5 Z"/></g>
<g><path style="opacity:0.69" fill="#999999" d="M 97.5,320.5 C 95.9257,323.43 96.5924,325.93 99.5,328C 98.5317,330.878 97.5317,333.045 96.5,334.5C 96.4332,332.599 96.7665,330.766 97.5,329C 95.4363,326.047 95.103,322.881 96.5,319.5C 97.1067,319.624 97.44,319.957 97.5,320.5 Z"/></g>
<g><path style="opacity:0.959" fill="#dddddd" d="M 320.5,326.5 C 322.76,327.139 324.76,328.306 326.5,330C 330.848,330.465 335.181,330.965 339.5,331.5C 339.5,332.833 339.5,334.167 339.5,335.5C 335.323,336.253 331.323,337.586 327.5,339.5C 326.816,343.446 326.816,347.446 327.5,351.5C 326.833,351.5 326.5,351.833 326.5,352.5C 322.35,350.835 318.517,348.502 315,345.5C 316.088,340.277 316.921,334.943 317.5,329.5C 318.833,328.833 319.833,327.833 320.5,326.5 Z"/></g>
<g><path style="opacity:0.401" fill="#050505" d="M 288.5,336.5 C 288.833,337.167 289.167,337.833 289.5,338.5C 286.147,338.655 285.814,337.988 288.5,336.5 Z"/></g>
<g><path style="opacity:0.49" fill="#c2c2c2" d="M 123.5,351.5 C 115.5,346.5 107.5,341.5 99.5,336.5C 98.2546,336.031 98.4213,335.697 100,335.5C 107.901,340.202 115.734,345.035 123.5,350C 124.738,350.69 124.738,351.19 123.5,351.5 Z"/></g>
<g><path style="opacity:0.565" fill="#a9a9a9" d="M 141.5,344.5 C 143.193,345.853 144.526,347.52 145.5,349.5C 139.718,346.816 136.218,348.816 135,355.5C 134.601,355.272 134.435,354.938 134.5,354.5C 134.327,350.83 135.993,348.33 139.5,347C 138.906,346.536 138.239,346.369 137.5,346.5C 138.848,345.814 140.015,344.814 141,343.5C 141.399,343.728 141.565,344.062 141.5,344.5 Z"/></g>
<g><path style="opacity:0.977" fill="#e3e3e3" d="M 145.5,349.5 C 154.675,356.502 164.008,363.335 173.5,370C 175.746,371.257 177.079,373.09 177.5,375.5C 162.111,377.675 146.777,380.175 131.5,383C 126.374,393.419 121.374,403.919 116.5,414.5C 116.167,414.5 115.833,414.5 115.5,414.5C 112.229,412.254 108.896,409.921 105.5,407.5C 105.101,404.029 103.767,401.029 101.5,398.5C 93.8745,394.701 86.3745,390.701 79,386.5C 64.3344,391.375 49.5011,395.708 34.5,399.5C 35.5176,388.728 37.1842,378.062 39.5,367.5C 37.772,365.548 35.6053,364.215 33,363.5C 31.6898,364.13 30.8565,365.13 30.5,366.5C 29.9569,366.44 29.6236,366.107 29.5,365.5C 30.8767,361.941 32.5434,359.275 34.5,357.5C 35.4737,359.085 36.9737,360.085 39,360.5C 40.6667,359.267 42.1667,357.933 43.5,356.5C 47.4862,354.119 51.8195,353.119 56.5,353.5C 55.795,356.244 55.795,358.911 56.5,361.5C 64.1667,365.333 71.8333,369.167 79.5,373C 81.1667,373.667 82.8333,373.667 84.5,373C 90.1002,371.188 95.7669,369.688 101.5,368.5C 101.833,369.167 102.167,369.833 102.5,370.5C 102.408,373.303 102.242,376.303 102,379.5C 100.184,380.329 98.3506,381.163 96.5,382C 98.0806,382.707 99.5806,383.54 101,384.5C 101.413,387.232 102.08,389.899 103,392.5C 105.481,391.978 107.814,391.978 110,392.5C 111.039,390.254 112.206,388.087 113.5,386C 111.153,385.666 108.819,385.833 106.5,386.5C 106.298,384.05 106.631,381.717 107.5,379.5C 108.833,378.833 108.833,378.167 107.5,377.5C 108.058,376.21 109.058,375.377 110.5,375C 113.167,374.333 115.833,373.667 118.5,373C 120.672,369.153 122.672,365.319 124.5,361.5C 124.435,361.938 124.601,362.272 125,362.5C 127.02,362.055 128.187,361.389 128.5,360.5C 128.557,359.391 128.89,358.391 129.5,357.5C 131.411,356.925 133.078,355.925 134.5,354.5C 134.435,354.938 134.601,355.272 135,355.5C 136.218,348.816 139.718,346.816 145.5,349.5 Z M 43.5,356.5 C 42.1667,357.933 40.6667,359.267 39,360.5C 36.9737,360.085 35.4737,359.085 34.5,357.5C 37.4279,357.606 40.4279,357.273 43.5,356.5 Z M 127.5,357.5 C 128.167,357.5 128.833,357.5 129.5,357.5C 128.89,358.391 128.557,359.391 128.5,360.5C 126.204,360.196 125.871,359.196 127.5,357.5 Z M 139.5,362.5 C 151.493,367.961 150.493,370.461 136.5,370C 137.991,367.692 138.991,365.192 139.5,362.5 Z M 53.5,374.5 C 66.5083,378.61 65.8416,381.11 51.5,382C 52.2202,379.509 52.8869,377.009 53.5,374.5 Z"/></g>
<g><path style="opacity:0.75" fill="#848484" d="M 192.5,351.5 C 191.708,352.518 190.041,352.851 187.5,352.5C 187.768,354.099 187.434,355.432 186.5,356.5C 186.5,354.833 186.5,353.167 186.5,351.5C 188.5,351.5 190.5,351.5 192.5,351.5 Z"/></g>
<g><path style="opacity:0.085" fill="#040404" d="M 327.5,351.5 C 328.043,351.56 328.376,351.893 328.5,352.5C 327.743,353.773 327.077,353.773 326.5,352.5C 326.5,351.833 326.833,351.5 327.5,351.5 Z"/></g>
<g><path style="opacity:0.718" fill="#909090" d="M 127.5,357.5 C 125.871,359.196 126.204,360.196 128.5,360.5C 128.187,361.389 127.02,362.055 125,362.5C 124.601,362.272 124.435,361.938 124.5,361.5C 123.5,360.833 122.5,360.167 121.5,359.5C 122.978,359.762 124.311,359.429 125.5,358.5C 126.036,356.855 126.703,356.522 127.5,357.5 Z"/></g>
<g><path style="opacity:0.22" fill="#080808" d="M 101.5,368.5 C 103.424,368.711 103.757,369.377 102.5,370.5C 102.167,369.833 101.833,369.167 101.5,368.5 Z"/></g>
<g><path style="opacity:0.573" fill="#b0b0b0" d="M 29.5,368.5 C 28.2862,371.93 26.7862,375.264 25,378.5C 23.9887,379.337 22.8221,379.67 21.5,379.5C 24.5598,375.543 27.2265,371.877 29.5,368.5 Z"/></g>
<g><path style="opacity:0.796" fill="#575757" d="M 107.5,377.5 C 108.833,378.167 108.833,378.833 107.5,379.5C 106.167,378.833 106.167,378.167 107.5,377.5 Z"/></g>
</svg>
