<?xml version="1.0" encoding="UTF-8"?>
<!DOCTYPE svg PUBLIC "-//W3C//DTD SVG 1.1//EN" "http://www.w3.org/Graphics/SVG/1.1/DTD/svg11.dtd">
<svg xmlns="http://www.w3.org/2000/svg" version="1.1" width="452px" height="425px" style="shape-rendering:geometricPrecision; text-rendering:geometricPrecision; image-rendering:optimizeQuality; fill-rule:evenodd; clip-rule:evenodd" xmlns:xlink="http://www.w3.org/1999/xlink">
<g><path style="opacity:0.942" fill="#efefef" d="M 198.5,-0.5 C 216.5,-0.5 234.5,-0.5 252.5,-0.5C 298.171,17.4634 319.004,51.13 315,100.5C 304.476,148.519 274.642,174.186 225.5,177.5C 176.844,174.265 147.011,148.931 136,101.5C 131.642,51.8552 152.476,17.8552 198.5,-0.5 Z M 216.5,14.5 C 236.225,13.0105 253.892,18.1771 269.5,30C 235.986,63.6804 202.32,97.1804 168.5,130.5C 152.285,108.296 149.118,84.2956 159,58.5C 170.78,34.0424 189.946,19.3758 216.5,14.5 Z M 281.5,43.5 C 282.496,43.4142 283.329,43.7476 284,44.5C 303.375,75.9911 301.709,106.324 279,135.5C 258.406,156.108 233.906,162.942 205.5,156C 196.942,153.054 188.942,149.054 181.5,144C 215.035,110.632 248.368,77.132 281.5,43.5 Z"/></g>
<g><path style="opacity:0.946" fill="#efefef" d="M 451.5,329.5 C 451.5,335.5 451.5,341.5 451.5,347.5C 443.766,348.317 436.766,346.484 430.5,342C 417.833,329.333 405.167,316.667 392.5,304C 379.388,300.674 366.054,298.507 352.5,297.5C 352.17,304.532 352.503,311.532 353.5,318.5C 366.337,326.168 375.337,337.001 380.5,351C 383.426,351.218 386.26,351.718 389,352.5C 389.667,357.833 389.667,363.167 389,368.5C 377.85,369.921 366.684,369.754 355.5,368C 345.401,363.202 335.568,358.035 326,352.5C 321.508,353.306 320.508,355.639 323,359.5C 336.801,371.632 350.301,384.132 363.5,397C 373.661,404.278 384.994,408.611 397.5,410C 415.497,410.5 433.497,410.667 451.5,410.5C 451.5,415.167 451.5,419.833 451.5,424.5C 426.167,424.5 400.833,424.5 375.5,424.5C 367.652,421.574 360.319,417.574 353.5,412.5C 352.839,416.335 350.839,419.169 347.5,421C 266.167,421.667 184.833,421.667 103.5,421C 100.161,419.169 98.1606,416.335 97.5,412.5C 90.6813,417.574 83.3479,421.574 75.5,424.5C 50.1667,424.5 24.8333,424.5 -0.5,424.5C -0.5,419.833 -0.5,415.167 -0.5,410.5C 17.5031,410.667 35.5031,410.5 53.5,410C 68.8522,408.321 82.1855,402.321 93.5,392C 105,381.167 116.5,370.333 128,359.5C 130.492,355.639 129.492,353.306 125,352.5C 115.432,358.035 105.599,363.202 95.5,368C 84.3163,369.754 73.1496,369.921 62,368.5C 61.3333,363.167 61.3333,357.833 62,352.5C 64.7405,351.718 67.5738,351.218 70.5,351C 75.6357,337.025 84.6357,326.191 97.5,318.5C 98.497,311.532 98.8303,304.532 98.5,297.5C 84.9722,298.694 71.6389,300.86 58.5,304C 45.8333,316.667 33.1667,329.333 20.5,342C 14.2344,346.484 7.23437,348.317 -0.5,347.5C -0.5,341.5 -0.5,335.5 -0.5,329.5C 3.1309,329.84 6.46423,329.006 9.5,327C 22.8621,313.304 36.5288,299.971 50.5,287C 53.3634,285.601 56.3634,284.601 59.5,284C 72.5036,282.119 85.5036,280.285 98.5,278.5C 98.3334,252.498 98.5,226.498 99,200.5C 100.167,199.333 101.333,198.167 102.5,197C 143.442,195.842 184.442,195.342 225.5,195.5C 266.558,195.342 307.558,195.842 348.5,197C 349.667,198.167 350.833,199.333 352,200.5C 352.5,226.498 352.667,252.498 352.5,278.5C 365.524,280.099 378.524,281.932 391.5,284C 394.637,284.601 397.637,285.601 400.5,287C 414.471,299.971 428.138,313.304 441.5,327C 444.536,329.006 447.869,329.84 451.5,329.5 Z M 116.5,214.5 C 189.167,214.5 261.833,214.5 334.5,214.5C 334.667,254.835 334.5,295.168 334,335.5C 321.425,331.281 311.758,334.948 305,346.5C 302.498,354.485 303.165,362.152 307,369.5C 316,377.833 325,386.167 334,394.5C 334.498,397.482 334.665,400.482 334.5,403.5C 261.833,403.5 189.167,403.5 116.5,403.5C 116.183,400.428 116.516,397.428 117.5,394.5C 126.182,385.984 135.016,377.65 144,369.5C 150.42,356.885 148.253,346.052 137.5,337C 130.846,333.284 124.012,332.784 117,335.5C 116.5,295.168 116.333,254.835 116.5,214.5 Z M 214.5,244.5 C 221.655,243.345 228.988,243.178 236.5,244C 232.772,258.47 229.105,272.97 225.5,287.5C 221.945,273.028 218.278,258.695 214.5,244.5 Z M 97.5,341.5 C 98.5983,342.601 98.765,343.934 98,345.5C 96.3333,346.833 94.6667,348.167 93,349.5C 93.6707,346.504 95.1707,343.837 97.5,341.5 Z M 352.5,341.5 C 355.615,343.428 357.448,346.094 358,349.5C 354.335,348.015 352.502,345.349 352.5,341.5 Z M 223.5,362.5 C 227.766,362.125 230.433,363.959 231.5,368C 227.5,375.333 223.5,375.333 219.5,368C 220.036,365.492 221.369,363.659 223.5,362.5 Z"/></g>
<g><path style="opacity:0.943" fill="#efefef" d="M 199.5,225.5 C 216.837,225.333 234.17,225.5 251.5,226C 253.57,226.948 255.07,228.448 256,230.5C 256.667,233.833 256.667,237.167 256,240.5C 248.842,270.797 241.842,301.131 235,331.5C 233.001,339.122 228.168,341.622 220.5,339C 218.106,337.048 216.606,334.548 216,331.5C 209.158,301.131 202.158,270.797 195,240.5C 194.333,237.167 194.333,233.833 195,230.5C 196.025,228.313 197.525,226.646 199.5,225.5 Z M 214.5,244.5 C 218.278,258.695 221.945,273.028 225.5,287.5C 229.105,272.97 232.772,258.47 236.5,244C 228.988,243.178 221.655,243.345 214.5,244.5 Z"/></g>
<g><path style="opacity:0.938" fill="#efefef" d="M 223.5,343.5 C 241.945,345.108 250.445,355.108 249,373.5C 242.456,390.467 230.623,395.634 213.5,389C 200.594,379.393 198.094,367.56 206,353.5C 210.687,347.913 216.521,344.58 223.5,343.5 Z M 223.5,362.5 C 221.369,363.659 220.036,365.492 219.5,368C 223.5,375.333 227.5,375.333 231.5,368C 230.433,363.959 227.766,362.125 223.5,362.5 Z"/></g>
</svg>
